<svg width="24" height="24" viewBox="0 0 24 24" fill="none" xmlns="http://www.w3.org/2000/svg">
<path d="M20.54 19.04C20.39 19.19 20.2 19.26 20.01 19.26C19.82 19.26 19.63 19.19 19.48 19.04L14.53 14.09L15.06 13.56L15.59 13.03L20.54 17.98C20.83 18.27 20.83 18.75 20.54 19.04Z" fill="#121212"/>
<path d="M6.47011 9.27997L12.2701 15.08C12.6601 15.47 12.6601 16.1 12.2701 16.49L11.3701 17.4C10.5601 18.2 9.28011 18.2 8.48011 17.4L4.14011 13.06C3.35011 12.27 3.35011 10.98 4.14011 10.18L5.05011 9.26997C5.44011 8.88997 6.08011 8.88997 6.47011 9.27997Z" fill="#121212"/>
<path d="M18.59 10.1901L14.78 13.9901C14.38 14.3901 13.74 14.3901 13.34 13.9901L7.56001 8.21005C7.16001 7.81005 7.16001 7.17005 7.56001 6.77005L11.37 2.96005C12.16 2.17005 13.45 2.17005 14.25 2.96005L18.59 7.30005C19.38 8.10005 19.38 9.38005 18.59 10.1901Z" fill="#121212"/>
<path d="M8 21.75H2C1.59 21.75 1.25 21.41 1.25 21C1.25 20.59 1.59 20.25 2 20.25H8C8.41 20.25 8.75 20.59 8.75 21C8.75 21.41 8.41 21.75 8 21.75Z" fill="#121212"/>
</svg>
