<svg width="24" height="24" viewBox="0 0 24 24" fill="none" xmlns="http://www.w3.org/2000/svg">
<path d="M7.80023 22.1502C5.15023 22.1502 2.99023 20.0002 2.99023 17.3402V14.5002C2.99023 13.8302 3.65023 13.3802 4.28023 13.6002C4.54023 13.6902 4.80023 13.7502 5.07023 13.7902C5.19023 13.8102 5.31023 13.8302 5.43023 13.8302C5.58023 13.8502 5.74023 13.8602 5.89023 13.8602C7.00023 13.8602 8.10023 13.4502 8.97023 12.7402C9.80023 13.4502 10.8702 13.8602 12.0102 13.8602C13.1502 13.8602 14.2102 13.4702 15.0402 12.7502C15.9002 13.4502 16.9802 13.8602 18.0802 13.8602C18.2502 13.8602 18.4302 13.8502 18.5902 13.8302C18.7102 13.8202 18.8102 13.8102 18.9202 13.7902C19.2202 13.7502 19.4902 13.6702 19.7602 13.5802C20.3802 13.3702 21.0302 13.8302 21.0302 14.4802V17.3402C21.0302 19.9902 18.8802 22.1502 16.2202 22.1502H7.80023Z" fill="#121212"/>
<path d="M21.9799 8.5901L21.6999 5.9301C21.2999 3.0301 19.9799 1.8501 17.1699 1.8501H6.81985C3.99985 1.8501 2.68985 3.0301 2.27985 5.9601L2.01985 8.6001C1.91985 9.6301 2.19985 10.6301 2.80985 11.4101C3.53985 12.3601 4.65985 12.9001 5.90985 12.9001C7.11985 12.9001 8.27985 12.2901 9.01985 11.3201C9.66985 12.2901 10.7799 12.9001 12.0199 12.9001C13.2599 12.9001 14.3499 12.3201 15.0099 11.3601C15.7499 12.3101 16.8999 12.9001 18.0899 12.9001C19.3699 12.9001 20.5199 12.3301 21.2399 11.3301C21.8199 10.5601 22.0799 9.5901 21.9799 8.5901ZM13.4999 7.7301H10.4999C10.0899 7.7301 9.74985 7.4001 9.74985 6.9801C9.74985 6.5701 10.0899 6.2301 10.4999 6.2301H13.4999C13.9099 6.2301 14.2499 6.5701 14.2499 6.9801C14.2499 7.4001 13.9099 7.7301 13.4999 7.7301Z" fill="#121212"/>
</svg>
