<svg width="24" height="24" viewBox="0 0 24 24" fill="none" xmlns="http://www.w3.org/2000/svg">
<path d="M20.2699 18.6801C19.2799 19.5901 17.9799 20.0901 16.6299 20.0801H5.53994C0.869942 19.7401 0.859942 12.9401 5.53994 12.6001H5.58994C2.88994 5.06014 12.1199 1.34014 15.9999 6.03014V6.04014C16.6999 6.90014 17.2299 8.04014 17.4699 9.49014C18.7999 9.66014 19.8799 10.3101 20.6499 11.2301C22.3999 13.3001 22.5499 16.6801 20.2699 18.6801Z" stroke="#121212" stroke-width="1.5" stroke-miterlimit="10" stroke-linecap="round" stroke-linejoin="round"/>
<path d="M7.25984 13.0101C6.73984 12.7501 6.16984 12.6101 5.58984 12.6001" stroke="#121212" stroke-width="1.5" stroke-miterlimit="10" stroke-linecap="round" stroke-linejoin="round"/>
<path d="M15.8501 9.91977C16.3701 9.65977 16.9401 9.51977 17.5201 9.50977" stroke="#121212" stroke-width="1.5" stroke-miterlimit="10" stroke-linecap="round" stroke-linejoin="round"/>
<path d="M21.97 8.5C21.97 9.6 21.46 10.59 20.65 11.23C19.88 10.31 18.8 9.66 17.47 9.49C17.23 8.04 16.7 6.9 16 6.04V6.03C16.63 5.39 17.51 5 18.47 5C20.4 5 21.97 6.57 21.97 8.5Z" stroke="#121212" stroke-width="1.5" stroke-miterlimit="10" stroke-linecap="round" stroke-linejoin="round"/>
</svg>
