<svg width="24" height="24" viewBox="0 0 24 24" fill="none" xmlns="http://www.w3.org/2000/svg">
<path d="M7.94021 14.5099C7.32021 14.2799 6.77021 13.8299 6.42021 13.1899C5.62021 11.7299 6.11021 9.82989 7.53021 8.94989L9.87021 7.49988C11.2802 6.61988 13.1002 7.09987 13.9002 8.54987C14.7002 10.0099 14.2102 11.9099 12.7902 12.7899L12.4802 13.0099" stroke="#121212" stroke-width="1.5" stroke-linecap="round" stroke-linejoin="round"/>
<path d="M16.1102 9.44995C16.7302 9.67995 17.2802 10.1299 17.6302 10.7699C18.4302 12.2299 17.9402 14.1299 16.5202 15.0099L14.1802 16.4599C12.7702 17.3399 10.9502 16.8599 10.1502 15.4099C9.35019 13.9499 9.84019 12.05 11.2602 11.17L11.5702 10.95" stroke="#121212" stroke-width="1.5" stroke-linecap="round" stroke-linejoin="round"/>
<path d="M12 22C17.5228 22 22 17.5228 22 12C22 6.47715 17.5228 2 12 2C6.47715 2 2 6.47715 2 12C2 17.5228 6.47715 22 12 22Z" stroke="#121212" stroke-width="1.5" stroke-linecap="round" stroke-linejoin="round"/>
</svg>
