<svg width="24" height="18" viewBox="0 0 24 18" fill="none" xmlns="http://www.w3.org/2000/svg">
<mask id="mask0_395_50887" style="mask-type:luminance" maskUnits="userSpaceOnUse" x="0" y="0" width="24" height="18">
<rect width="24" height="18" fill="white"/>
</mask>
<g mask="url(#mask0_395_50887)">
<path fill-rule="evenodd" clip-rule="evenodd" d="M16.5 0H24V18H16.5V0Z" fill="#67BD38"/>
<path fill-rule="evenodd" clip-rule="evenodd" d="M7.5 0H16.5V18H7.5V0Z" fill="#D51700"/>
<path fill-rule="evenodd" clip-rule="evenodd" d="M0 0H7.5V18H0V0Z" fill="#272727"/>
<path fill-rule="evenodd" clip-rule="evenodd" d="M9.62573 6.14545C9.19307 6.87366 8.90284 7.54089 8.75269 8.1474C8.81577 8.20572 8.85574 8.25693 8.89624 8.32709C9.01351 8.53023 9.1122 8.72754 9.19214 8.91888L8.84741 9.06537C8.79374 8.93693 8.72768 8.80643 8.65503 8.67084C8.62043 8.96535 8.62407 9.24362 8.66382 9.5058C8.72643 9.51231 8.77965 9.52464 8.84058 9.54681C9.06077 9.62698 9.26294 9.71441 9.44702 9.80951L9.27808 10.1435C9.12115 10.0624 8.94824 9.98716 8.7605 9.91693C8.76165 9.92046 8.76226 9.92415 8.76343 9.92767C8.92401 10.4129 9.1708 10.8588 9.50269 11.2665C9.55366 11.2557 9.60138 11.2499 9.65698 11.2499C9.89146 11.25 10.1115 11.2626 10.3171 11.289L10.2722 11.6611C10.1329 11.6432 9.98515 11.6337 9.82983 11.6288C10.1269 11.9258 10.4754 12.2002 10.8757 12.4511L10.7175 12.7177C10.2207 12.4064 9.7975 12.0593 9.44897 11.6767C9.40337 11.6945 9.34698 11.716 9.27612 11.747C9.26723 11.7509 9.25748 11.753 9.24878 11.7568C9.55356 12.0766 9.91343 12.3711 10.3298 12.6396L10.1677 12.9042C9.68703 12.5943 9.27608 12.2495 8.93433 11.871C8.77137 11.9129 8.63409 11.9132 8.47339 11.8661L8.573 11.5048C8.59585 11.5115 8.61892 11.5132 8.64136 11.5165C8.32573 11.0955 8.08726 10.6363 7.92749 10.1396C7.89928 10.0518 7.87733 9.96196 7.85718 9.87103C7.73212 9.84745 7.62665 9.80106 7.51733 9.72064L7.73511 9.41595C7.75364 9.42957 7.77448 9.43761 7.7937 9.44818C7.75543 8.98969 7.80658 8.4949 7.9519 7.96381C7.86114 7.85912 7.8055 7.7504 7.77124 7.60931L8.09058 7.52728C8.26225 7.04132 8.5039 6.5267 8.81714 5.98431L9.07886 6.14349C8.7376 6.73437 8.48359 7.28643 8.31812 7.79974C8.36468 7.84214 8.42092 7.88841 8.49097 7.94037C8.65715 7.33596 8.94952 6.68328 9.36597 5.98236L9.62573 6.14545ZM8.31226 9.88373C8.26289 9.88684 8.21641 9.88547 8.17261 9.88666C8.18598 9.93901 8.20015 9.99094 8.21655 10.0419C8.38233 10.5573 8.63919 11.0297 8.98706 11.4599C9.03099 11.4433 9.08016 11.4256 9.13354 11.4023C9.15553 11.3927 9.17626 11.3834 9.19604 11.3749C8.87735 10.9633 8.63628 10.5146 8.47534 10.0283C8.45909 9.97913 8.44596 9.92899 8.43237 9.87885C8.39752 9.88047 8.35766 9.88086 8.31226 9.88373ZM8.20874 8.1933C8.09266 8.67041 8.05858 9.11088 8.10522 9.51556C8.1608 9.51596 8.22407 9.51526 8.29663 9.51068C8.31779 9.50935 8.33793 9.50789 8.35718 9.50677C8.30767 9.14261 8.32164 8.75451 8.39917 8.34174C8.36513 8.31519 8.32525 8.28296 8.27515 8.24603C8.25158 8.22867 8.23035 8.20987 8.20874 8.1933Z" fill="#F7FCFF"/>
<path fill-rule="evenodd" clip-rule="evenodd" d="M14.3645 6.14545C14.7972 6.87366 15.0874 7.54089 15.2375 8.1474C15.1745 8.20572 15.1345 8.25693 15.094 8.32709C14.9767 8.53023 14.878 8.72754 14.7981 8.91888L15.1428 9.06537C15.1965 8.93693 15.2625 8.80643 15.3352 8.67084C15.3698 8.96535 15.3662 9.24362 15.3264 9.5058C15.2638 9.51231 15.2106 9.52464 15.1497 9.54681C14.9295 9.62698 14.7273 9.71441 14.5432 9.80951L14.7122 10.1435C14.8691 10.0624 15.042 9.98716 15.2297 9.91693C15.2286 9.92046 15.228 9.92415 15.2268 9.92767C15.0662 10.4129 14.8194 10.8588 14.4875 11.2665C14.4366 11.2557 14.3889 11.2499 14.3333 11.2499C14.0988 11.25 13.8787 11.2626 13.6731 11.289L13.718 11.6611C13.8574 11.6432 14.0051 11.6337 14.1604 11.6288C13.8633 11.9258 13.5149 12.2002 13.1145 12.4511L13.2727 12.7177C13.7695 12.4064 14.1927 12.0593 14.5413 11.6767C14.5869 11.6945 14.6433 11.716 14.7141 11.747C14.723 11.7509 14.7328 11.753 14.7415 11.7568C14.4367 12.0766 14.0768 12.3711 13.6604 12.6396L13.8225 12.9042C14.3032 12.5943 14.7142 12.2495 15.0559 11.871C15.2189 11.9129 15.3561 11.9132 15.5168 11.8661L15.4172 11.5048C15.3944 11.5115 15.3713 11.5132 15.3489 11.5165C15.6645 11.0955 15.903 10.6363 16.0627 10.1396C16.091 10.0518 16.1129 9.96196 16.1331 9.87103C16.2581 9.84745 16.3636 9.80106 16.4729 9.72064L16.2551 9.41595C16.2366 9.42957 16.2158 9.43761 16.1965 9.44818C16.2348 8.98969 16.1837 8.4949 16.0383 7.96381C16.1291 7.85912 16.1847 7.7504 16.219 7.60931L15.8997 7.52728C15.728 7.04132 15.4863 6.5267 15.1731 5.98431L14.9114 6.14349C15.2526 6.73437 15.5066 7.28643 15.6721 7.79974C15.6256 7.84214 15.5693 7.88841 15.4993 7.94037C15.3331 7.33596 15.0407 6.68328 14.6243 5.98236L14.3645 6.14545ZM15.678 9.88373C15.7273 9.88684 15.7738 9.88547 15.8176 9.88666C15.8043 9.93901 15.7901 9.99094 15.7737 10.0419C15.6079 10.5573 15.351 11.0297 15.0032 11.4599C14.9592 11.4433 14.9101 11.4256 14.8567 11.4023C14.8347 11.3927 14.814 11.3834 14.7942 11.3749C15.1129 10.9633 15.354 10.5146 15.5149 10.0283C15.5311 9.97913 15.5443 9.92899 15.5579 9.87885C15.5927 9.88047 15.6326 9.88086 15.678 9.88373ZM15.7815 8.1933C15.8976 8.67041 15.9317 9.11088 15.885 9.51556C15.8294 9.51596 15.7662 9.51526 15.6936 9.51068C15.6724 9.50935 15.6523 9.50789 15.6331 9.50677C15.6826 9.14261 15.6686 8.75451 15.5911 8.34174C15.6251 8.31519 15.665 8.28296 15.7151 8.24603C15.7387 8.22867 15.7599 8.20987 15.7815 8.1933Z" fill="#F7FCFF"/>
<path fill-rule="evenodd" clip-rule="evenodd" d="M10.6898 12.1981L9.85254 13.0265C9.85254 13.0265 10.5745 13.4687 11.9352 13.4687C13.296 13.4687 14.0883 13.0265 14.0883 13.0265L13.4519 12.1981C13.4519 12.1981 12.5847 12.5342 11.9704 12.5342C11.3562 12.5342 10.6898 12.1981 10.6898 12.1981Z" fill="#F7FCFF"/>
<path d="M10.7073 12.7267C10.7073 12.7267 11.4161 12.894 11.9595 12.894C12.5029 12.894 13.2117 12.7267 13.2117 12.7267" stroke="#C00001" stroke-width="0.5"/>
<path fill-rule="evenodd" clip-rule="evenodd" d="M11.0432 7.83984H11.0813L11.2795 7.6875H12.6741L12.9094 7.83984H13.0276V6.65137H13.3918V7.83984H13.5198V8.04199H13.3918V10.1973C13.3918 10.3238 13.5278 10.5415 13.8108 10.8242L14.1331 11.1465H9.64966L10.3948 10.7891C10.5349 10.7217 10.6347 10.5278 10.678 10.1855V8.04199H10.3577V7.83984H10.678V6.65137H11.0432V7.83984ZM11.0432 10.209C11.0153 10.4389 10.9653 10.6237 10.8918 10.7715H13.2698C13.1093 10.5603 13.0276 10.3711 13.0276 10.1973V8.04199H11.0432V10.209ZM12.8518 10.5625H11.2698V9H12.0608L12.8518 10.5625ZM12.0002 6.5C12.3696 6.50013 12.6692 6.76591 12.6692 7.09375C12.6692 7.42159 12.3696 7.68737 12.0002 7.6875C11.6308 7.6875 11.3313 7.42167 11.3313 7.09375C11.3313 6.76583 11.6308 6.5 12.0002 6.5Z" fill="#F7FCFF"/>
<path fill-rule="evenodd" clip-rule="evenodd" d="M12.801 4.55334C12.8168 4.55704 12.8292 4.56262 12.8411 4.56994C12.8761 4.59163 12.9136 4.636 12.9426 4.68811C13.0012 4.76105 13.0345 4.85123 13.051 4.95861C13.056 4.99077 13.0595 5.01726 13.0618 5.05139C13.0762 5.01109 13.0881 4.96365 13.0979 4.91174C13.1016 4.89215 13.1044 4.87782 13.1086 4.85022C13.1105 4.8383 13.1115 4.8333 13.1125 4.82775C13.1136 4.82197 13.1137 4.82187 13.1155 4.81408C13.1193 4.79867 13.1222 4.78757 13.1331 4.77111C13.1427 4.75702 13.1435 4.75694 13.1672 4.73693C13.2051 4.71627 13.2054 4.7163 13.262 4.71936C13.3366 4.76363 13.3363 4.76417 13.3459 4.79162C13.352 4.80574 13.354 4.8152 13.3557 4.82775C13.3568 4.83554 13.358 4.84403 13.3586 4.85607C13.3591 4.8647 13.3599 4.8757 13.3606 4.89221C13.3609 4.89895 13.3621 4.93367 13.3625 4.94494C13.3635 4.96583 13.3637 4.98749 13.3635 5.00939C13.3632 5.05772 13.3608 5.10284 13.3557 5.15979C13.4172 5.09977 13.5108 5.11504 13.6155 5.17248C13.7187 5.22919 13.782 5.31124 13.8098 5.41076C13.8178 5.4395 13.8232 5.46581 13.8254 5.49377C13.8645 5.45041 13.9027 5.37933 13.9368 5.28674C13.9683 5.20097 14.0243 4.98231 14.0276 4.96643C14.0333 4.94949 14.039 4.93665 14.05 4.9215C14.0706 4.89343 14.099 4.87158 14.1448 4.86975C14.2001 4.86754 14.2366 4.89775 14.2571 4.93518C14.2727 4.96374 14.2744 4.9798 14.2766 5.026C14.2785 5.06627 14.2795 5.12621 14.2795 5.28283C14.2796 5.59226 14.3249 5.81695 14.384 5.90979H14.5286C14.5285 6.15497 14.3197 6.2643 14.1809 6.0465C14.1205 5.95164 14.0756 5.79877 14.053 5.60119C14.0113 5.66225 13.9632 5.71006 13.9075 5.74377C13.79 5.81478 13.7269 5.83708 13.6516 5.78869C13.6035 5.75778 13.5856 5.71261 13.5813 5.66076C13.5796 5.63991 13.5801 5.62889 13.5823 5.58654C13.585 5.53343 13.5838 5.50563 13.5764 5.47912C13.5727 5.46583 13.5676 5.45331 13.5598 5.44201C13.5689 5.51099 13.5691 5.56094 13.5549 5.61096C13.5283 5.70453 13.452 5.76135 13.3499 5.76135C13.2087 5.7612 13.1187 5.67758 13.095 5.5426C13.0874 5.49948 13.0851 5.46411 13.0881 5.40783C13.0009 5.45704 12.9111 5.45146 12.8577 5.35412C12.8439 5.32899 12.8361 5.30723 12.8313 5.276C12.7965 5.31244 12.7563 5.34847 12.7102 5.38342C12.6116 5.45812 12.5382 5.50635 12.4836 5.53283C12.3884 5.57909 12.3017 5.58392 12.2493 5.48596C12.2183 5.42797 12.2251 5.37724 12.2512 5.29846C12.2582 5.27755 12.2671 5.25422 12.2786 5.22522C12.2849 5.20929 12.3067 5.15637 12.3088 5.151C12.317 5.13072 12.3234 5.11403 12.3293 5.09826C12.3556 5.02848 12.3684 4.9787 12.3684 4.9508C12.3684 4.90999 12.3682 4.88172 12.3674 4.85998C12.3209 4.89599 12.2588 4.95398 12.1819 5.03674C11.916 5.32282 11.6382 5.32353 11.4114 5.14514C11.3561 5.10166 11.3165 5.05736 11.2932 5.02502L11.2883 5.01818C11.2809 5.0065 11.2648 4.9853 11.2434 4.96447C11.186 4.90859 11.1573 4.9046 11.1086 4.96545C11.0979 4.97886 11.0865 4.99519 11.0754 5.01428C10.9501 5.231 10.8495 5.35442 10.7307 5.40686C10.5692 5.47797 10.417 5.40146 10.2815 5.20471C10.2131 5.10558 10.1224 5.08208 10.0745 5.1217C10.0083 5.17669 10.0037 5.33809 10.1213 5.58068C10.2513 5.8489 10.2765 6.03286 10.1311 6.12951C10.0109 6.20944 9.82736 6.16433 9.54712 6.02209L9.65552 5.79748C9.76825 5.85469 9.85895 5.89221 9.92603 5.90881C9.95217 5.91528 9.97154 5.91746 9.98364 5.91857C9.9834 5.91603 9.98307 5.91278 9.98267 5.90979C9.976 5.86099 9.94971 5.78721 9.90356 5.69201C9.74094 5.35649 9.74865 5.07083 9.92114 4.92736C10.0885 4.78823 10.3362 4.85205 10.4797 5.06018C10.5565 5.17158 10.5993 5.19307 10.635 5.17736C10.6906 5.15269 10.7668 5.05961 10.8665 4.88732C10.8836 4.85762 10.9014 4.8308 10.9202 4.80725C11.0742 4.61402 11.2621 4.63857 11.4104 4.78283C11.4462 4.81767 11.4733 4.852 11.4905 4.87854C11.4931 4.88184 11.4982 4.88751 11.5051 4.89514C11.5206 4.91228 11.5385 4.92986 11.5588 4.94592C11.6929 5.05145 11.8321 5.05205 12.0061 4.86486C12.2335 4.62018 12.3665 4.52881 12.4934 4.59143C12.5632 4.62591 12.5927 4.69039 12.6047 4.776C12.611 4.821 12.6116 4.85898 12.6116 4.9508C12.6116 5.01836 12.5924 5.09114 12.5559 5.18811C12.5586 5.18725 12.5624 5.18476 12.5657 5.18225C12.7484 5.04375 12.783 4.93035 12.7415 4.83166C12.7089 4.80011 12.6868 4.7743 12.6731 4.75256C12.6671 4.74308 12.6616 4.73371 12.6575 4.72229C12.6457 4.6891 12.643 4.65404 12.6663 4.61291C12.6991 4.55497 12.754 4.54244 12.801 4.55334ZM13.3508 5.51232L13.3528 5.51135C13.3514 5.51135 13.3501 5.51133 13.3489 5.51135L13.3508 5.51232Z" fill="#F7FCFF"/>
<path fill-rule="evenodd" clip-rule="evenodd" d="M10.8951 9.68954L10.7457 9.79697L10.0778 8.8165C10.0014 8.85032 9.91075 8.91967 9.85217 9.05576C9.73641 9.32495 9.6908 9.79606 9.69006 9.8038L9.26135 9.52841C9.26135 9.52841 9.40484 9.19329 9.40491 8.78427C9.40491 8.5022 9.61765 8.38235 9.74963 8.33505L9.59534 8.10849L9.74475 8.00107L10.8951 9.68954Z" fill="#F7FCFF"/>
<path fill-rule="evenodd" clip-rule="evenodd" d="M13.153 9.68954L13.3024 9.79697L13.9703 8.8165C14.0467 8.85032 14.1373 8.91967 14.1959 9.05576C14.3117 9.32495 14.3573 9.79606 14.358 9.8038L14.7867 9.52841C14.7867 9.52841 14.6433 9.19329 14.6432 8.78427C14.6432 8.5022 14.4305 8.38235 14.2985 8.33505L14.4528 8.10849L14.3033 8.00107L13.153 9.68954Z" fill="#F7FCFF"/>
</g>
</svg>
