<svg width="24" height="18" viewBox="0 0 24 18" fill="none" xmlns="http://www.w3.org/2000/svg">
<mask id="mask0_395_54914" style="mask-type:luminance" maskUnits="userSpaceOnUse" x="0" y="0" width="24" height="18">
<rect width="24" height="18" fill="white"/>
</mask>
<g mask="url(#mask0_395_54914)">
<path fill-rule="evenodd" clip-rule="evenodd" d="M0 0H24V18H0V0Z" fill="#F7FCFF"/>
<path d="M24 -1L24.3516 0.936523L2.84863 9L24.3516 17.0635L24 19H-1V9.69238L-2.84766 9L-1 8.30664V-1H24Z" fill="#3547A0" stroke="#E31D1C" stroke-width="2"/>
<path fill-rule="evenodd" clip-rule="evenodd" d="M21.7666 3.83301C21.7666 3.83301 20.2589 4.23986 19.7137 4.38775C19.6402 4.4077 19.4999 4.44338 19.5099 4.24313C19.1645 4.46484 18.6077 4.68893 18.3794 4.75252C18.2645 4.78451 18.2952 4.58576 18.2462 4.52887C18.1468 4.6754 17.8913 4.89008 17.8188 4.91105C17.1001 5.11902 16.6229 5.27019 16.3872 5.36456C16.3872 5.36456 16.0504 5.68852 16.0504 5.94536C16.0504 6.2022 16.0145 6.42156 15.7827 6.42156C15.5509 6.42156 15.0161 6.8881 15.212 7.15099C15.4079 7.41389 16.0504 7.2739 16.0504 7.15099C16.0504 7.02809 16.5085 6.87433 16.5085 7.01266C16.5085 7.15099 16.3872 7.4012 16.3872 7.4012H16.893L16.5085 7.60009H16.893L16.5085 7.83567H17.2284L16.7683 8.04089H17.0875L16.893 8.311H17.3917C17.3917 8.311 17.5858 8.50729 17.7687 8.61455C17.9516 8.72182 18.3571 9.63471 18.1544 9.98822C17.9516 10.3417 18.2004 10.3943 18.2462 10.239C18.292 10.0837 18.3868 9.86114 18.4682 9.86114C18.5496 9.86114 18.7057 9.86114 18.7057 9.86114L18.8161 10.1516L19.0781 10.4315C19.0781 10.4315 19.0967 10.1882 19.1459 10.1516C19.1459 10.1516 19.3504 10.1724 19.4496 10.1483C19.4496 10.1483 19.4056 9.79445 19.4091 9.74686C19.4091 9.74686 19.7262 9.85446 19.862 9.85206C19.862 9.85206 19.658 9.53295 19.658 9.42401C19.658 9.42401 20.037 9.4433 20.037 9.60451L19.995 9.20215C19.995 9.20215 20.3538 9.04952 20.3664 8.92104L20.1313 8.89229C20.1313 8.89229 20.2534 8.73731 20.242 8.70671L19.8947 8.66262C19.8947 8.66262 20.2742 8.53054 20.3028 8.44704C20.3028 8.44704 20.2177 8.31319 20.1396 8.26063L19.8745 8.08881C19.8745 8.08881 20.4674 8.09266 20.5667 8.09266C20.5667 8.09266 20.7216 8.03697 20.6023 7.94166C20.6023 7.94166 20.4856 7.87149 20.5015 7.8037C20.5015 7.8037 20.5809 7.65123 20.5627 7.62469C20.5627 7.62469 20.6474 7.73695 20.6474 7.45956C20.6474 7.45956 20.6496 7.18075 20.5962 7.16734C20.5962 7.16734 20.7523 7.05254 20.6909 6.97927C20.6295 6.906 19.9724 6.71097 19.8152 6.71097L21.0191 5.94789C21.0191 5.94789 21.1025 5.63272 21.2247 5.44433C21.2247 5.44433 21.5446 5.15713 21.6091 4.93209C21.6736 4.70704 21.8551 4.15199 21.8551 4.15199V3.89798L21.7666 3.83301Z" fill="#9C3900"/>
<path fill-rule="evenodd" clip-rule="evenodd" d="M21.855 3.89844V4.15234C21.7341 4.52189 21.6519 4.78161 21.6089 4.93164C21.5659 5.08162 21.4382 5.25294 21.2251 5.44434C21.1436 5.56993 21.0747 5.73813 21.019 5.94824L19.8813 6.66895C19.8551 6.66527 19.8325 6.66309 19.8149 6.66309L19.8276 6.70312C19.8203 6.71044 19.8398 6.74814 19.8413 6.75098L19.8921 6.71875C20.1225 6.75613 20.637 6.91508 20.6909 6.97949C20.7257 7.02118 20.7079 7.07293 20.6372 7.13477C20.6288 7.12814 20.6186 7.12378 20.6079 7.12109L20.5962 7.16699L20.6255 7.20605C20.6412 7.25119 20.6479 7.33617 20.647 7.45996C20.6469 7.5761 20.6361 7.64082 20.6138 7.6543C20.6167 7.63115 20.6133 7.61271 20.603 7.59766L20.563 7.625L20.5239 7.65332C20.5337 7.66624 20.5442 7.6771 20.5552 7.68555C20.5448 7.71506 20.527 7.7546 20.5014 7.80371C20.4909 7.84883 20.5244 7.8947 20.602 7.94141C20.6815 8.00492 20.67 8.05565 20.5669 8.09277C20.5058 8.09277 20.3044 8.09203 19.9634 8.08984L19.9009 8.04883L19.8891 8.08887C19.8844 8.08884 19.8745 8.13672 19.8745 8.13672C19.8999 8.13688 19.9247 8.13656 19.9487 8.13672L20.1391 8.26074C20.1912 8.29578 20.2464 8.35804 20.3032 8.44727C20.2867 8.49521 20.1826 8.555 19.9927 8.62695L19.9009 8.61523L19.9057 8.65918C19.9021 8.66045 19.9106 8.70801 19.9106 8.70801C19.9418 8.69717 19.9718 8.68613 19.9995 8.67578L20.2417 8.70703C20.2479 8.72449 20.223 8.7718 20.1655 8.84863L20.1372 8.84473L20.1479 8.87109C20.1426 8.87797 20.1371 8.88529 20.1313 8.89258L20.1587 8.89551L20.1694 8.92188C20.1754 8.91426 20.1814 8.90658 20.187 8.89941L20.3667 8.9209C20.3583 9.00655 20.2338 9.10039 19.9946 9.20215L20.0346 9.57812C20.0163 9.49381 19.9067 9.44299 19.7065 9.42676C19.6887 9.42535 19.6733 9.42462 19.6577 9.42383C19.6577 9.43549 19.66 9.44956 19.6636 9.46484C19.6863 9.55296 19.7514 9.67997 19.8618 9.85254C19.7783 9.85396 19.6435 9.82351 19.4575 9.7627C19.4561 9.75714 19.4087 9.74707 19.4087 9.74707L19.393 9.79199C19.4154 9.86204 19.4286 9.97894 19.4497 10.1484C19.3836 10.1645 19.2823 10.1652 19.146 10.1514C19.0968 10.188 19.0776 10.4316 19.0776 10.4316L18.8159 10.1514L18.7055 9.86133H18.4682C18.3868 9.86133 18.2924 10.084 18.2466 10.2393C18.2007 10.3944 17.9521 10.3417 18.1548 9.98828C18.3573 9.63475 17.952 8.72184 17.769 8.61426C17.6471 8.54275 17.5215 8.44141 17.3921 8.31055H16.893L17.0532 8.08887H17.0874L17.0727 8.06152L17.0874 8.04102H17.062L17.0483 8.01367L17.0278 8.04102H16.768L17.1216 7.88379H17.228L17.2192 7.83984L17.2085 7.79199L17.1108 7.83594H16.5083L16.8149 7.64746H16.893L16.8813 7.60742L16.8677 7.55957L16.8013 7.59961H16.5083L16.8003 7.44922H16.893L16.8706 7.35938L16.7886 7.40137H16.3872C16.468 7.23458 16.5083 7.10492 16.5083 7.0127C16.5083 6.87436 16.0503 7.02846 16.0503 7.15137C16.049 7.27412 15.4084 7.41341 15.2124 7.15137C15.0165 6.88847 15.5509 6.42188 15.7827 6.42188C16.0145 6.42187 16.0503 6.20215 16.0503 5.94531C16.0503 5.7741 16.1627 5.58021 16.3872 5.36426C16.6229 5.26988 17.1002 5.11908 17.8188 4.91113C17.8913 4.89017 18.1471 4.67582 18.2466 4.5293C18.2951 4.58675 18.265 4.78468 18.3794 4.75293C18.6077 4.68934 19.1648 4.46487 19.5102 4.24316C19.5002 4.44312 19.6397 4.40766 19.7134 4.3877C20.0768 4.2891 20.7619 4.10424 21.7671 3.83301L21.855 3.89844ZM19.7261 4.43359C19.6559 4.45259 19.6131 4.45816 19.5659 4.44336C19.5138 4.42687 19.4803 4.38645 19.4673 4.3252C19.1532 4.51227 18.6616 4.72277 18.3921 4.79785C18.3379 4.81283 18.293 4.79456 18.2661 4.75098C18.2499 4.72465 18.2421 4.69736 18.2319 4.64355C18.1098 4.76681 17.9106 4.93326 17.8325 4.95605C17.1244 5.16096 16.6513 5.31145 16.4145 5.40527C16.203 5.61039 16.0991 5.79114 16.0991 5.94531C16.0991 6.10243 16.0854 6.21261 16.0483 6.29785C16.0001 6.40837 15.9118 6.46871 15.7827 6.46875C15.6846 6.46875 15.504 6.57746 15.3725 6.71973C15.2286 6.87558 15.18 7.02619 15.2514 7.12207C15.327 7.22342 15.4985 7.26701 15.6997 7.24805C15.7852 7.23996 15.8679 7.22037 15.9282 7.19531C15.9769 7.17504 16.0014 7.15396 16.0014 7.15039C16.0016 7.06436 16.1175 6.98428 16.2641 6.9375C16.3289 6.91687 16.3913 6.90672 16.4399 6.91016C16.5082 6.91511 16.5571 6.94989 16.5571 7.0127C16.557 7.09975 16.5248 7.21238 16.4624 7.35254H17.0893L16.7046 7.55176H17.063L16.6782 7.78711H17.4526L16.9927 7.99316H17.1811L16.9868 8.2627H17.4116L17.4263 8.27734C17.5529 8.40538 17.6754 8.50403 17.7934 8.57324C17.8993 8.63545 18.0506 8.90092 18.1518 9.19336C18.2698 9.53431 18.2974 9.83622 18.1968 10.0117C18.1174 10.1502 18.1089 10.2412 18.1391 10.2686C18.1544 10.2822 18.1869 10.2687 18.1997 10.2256C18.2676 9.99525 18.3636 9.8125 18.4682 9.8125H18.7397L18.8579 10.126L19.0415 10.3223C19.0435 10.3082 19.0459 10.2937 19.0483 10.2803C19.064 10.1933 19.0825 10.1388 19.1167 10.1133L19.1509 10.1035C19.2547 10.1141 19.3368 10.1154 19.396 10.1084C19.3699 9.89573 19.3584 9.77753 19.3608 9.74316L19.3647 9.68066L19.4243 9.70117C19.5693 9.75038 19.6852 9.78206 19.77 9.7959C19.6628 9.6198 19.609 9.49813 19.6089 9.42383V9.37305L19.6606 9.37598C19.795 9.38284 19.8996 9.40282 19.9712 9.43848L19.9429 9.17188L19.9761 9.1582C20.1494 9.08444 20.2565 9.01543 20.2983 8.95996L20.0405 8.92871L20.0932 8.8623C20.1315 8.81373 20.1589 8.77465 20.1763 8.74609L19.687 8.68359L19.8784 8.61719C20.0028 8.5739 20.0981 8.53459 20.1636 8.5C20.2033 8.47901 20.2301 8.46003 20.2446 8.44629C20.1974 8.37606 20.153 8.32688 20.1128 8.2998L19.7104 8.03906L19.8745 8.04102C20.2539 8.04348 20.4821 8.04482 20.5581 8.04492C20.6184 8.02282 20.6182 8.01624 20.5737 7.98047C20.4822 7.92475 20.4384 7.86265 20.4546 7.79297C20.4841 7.73308 20.5009 7.69418 20.5102 7.66699C20.5142 7.65531 20.5164 7.64634 20.5171 7.64062C20.5175 7.64223 20.5874 7.60547 20.5874 7.60547C20.5944 7.58012 20.5991 7.53012 20.5991 7.45898C20.5998 7.36868 20.5953 7.30025 20.5874 7.25488C20.5838 7.23459 20.5799 7.21956 20.5757 7.21094C20.5734 7.21035 20.4889 7.18926 20.4858 7.18848L20.5669 7.12891C20.6516 7.06657 20.6708 7.02907 20.6538 7.00879C20.6057 6.95132 19.9651 6.75781 19.8149 6.75781H19.6499L20.977 5.91699C21.033 5.71094 21.102 5.54448 21.1841 5.41797C21.3991 5.22265 21.5219 5.05863 21.562 4.91895C21.6049 4.76924 21.6863 4.51101 21.8061 4.14453V3.92188L21.7563 3.88477C20.7638 4.15261 20.0867 4.33576 19.7261 4.43359Z" fill="#212121"/>
<path fill-rule="evenodd" clip-rule="evenodd" d="M20.5549 8.09459C20.5549 8.09459 21.9863 8.28513 22.0728 8.28513C22.1594 8.28513 22.5197 8.19349 22.3963 7.6169C22.2729 7.04032 22.3232 6.69153 21.97 6.69153C21.6168 6.69153 21.2484 6.84498 21.1159 6.84498C20.9833 6.84498 21.1115 6.84498 20.5549 6.84498C19.9982 6.84498 16.6819 6.82583 16.4431 7.09181C16.2043 7.35779 15.5327 7.73293 15.2216 7.86526C14.9105 7.9976 14.8308 7.90514 14.6909 8.28513C14.5511 8.66512 14.447 8.69154 14.447 8.69154L14.6909 8.96357H15.4158C15.4158 8.96357 15.9149 8.33734 16.9511 8.28513C17.9873 8.23292 20.5549 8.09459 20.5549 8.09459Z" fill="white"/>
<path fill-rule="evenodd" clip-rule="evenodd" d="M21.9695 6.69153C22.3227 6.69153 22.2729 7.04072 22.3962 7.61731C22.5193 8.19322 22.1598 8.28517 22.073 8.28528C22.0153 8.28528 21.5087 8.22188 20.5544 8.09485C18.8429 8.18705 17.6416 8.25047 16.9509 8.28528C16.2602 8.32012 15.7485 8.54654 15.4158 8.96399H14.6912L14.447 8.69153C14.5164 8.67391 14.5979 8.53857 14.6912 8.28528C14.831 7.90537 14.9105 7.99757 15.2214 7.86536C15.5325 7.73303 16.2043 7.3579 16.4431 7.09192C16.6819 6.826 19.9965 6.84484 20.5544 6.84485H21.116C21.2485 6.84478 21.6165 6.69167 21.9695 6.69153ZM21.9099 6.76477C21.7811 6.7711 21.6479 6.79445 21.4783 6.83704C21.4439 6.84566 21.3055 6.88184 21.2732 6.88977C21.2012 6.90742 21.154 6.91613 21.116 6.91614H20.4187C19.7092 6.91517 19.1443 6.91931 18.5339 6.93567C17.986 6.95036 17.5243 6.97302 17.1736 7.00598C16.7856 7.04244 16.5385 7.0938 16.4978 7.13879C16.2823 7.37885 15.66 7.75667 15.2507 7.93079C15.2035 7.95089 15.1583 7.96714 15.1101 7.98254C15.0842 7.99079 15.0115 8.01263 15.0046 8.01477C14.9131 8.04331 14.879 8.06693 14.8357 8.13977C14.8119 8.1799 14.7868 8.23463 14.7595 8.30872C14.6879 8.50334 14.6232 8.63448 14.5554 8.70422L14.7234 8.89172H15.3806C15.7276 8.47427 16.2518 8.24812 16.947 8.21301C17.6376 8.17821 18.8391 8.11479 20.5505 8.02258C21.5055 8.14841 22.0207 8.21301 22.073 8.21301C22.1235 8.21297 22.2029 8.18103 22.2585 8.11926C22.3442 8.02411 22.3754 7.86688 22.325 7.63098C22.3081 7.55223 22.2941 7.47416 22.2791 7.38391C22.272 7.34143 22.2495 7.20066 22.2449 7.17297C22.1901 6.84322 22.1404 6.76296 21.9705 6.76282C21.9508 6.76282 21.9303 6.76377 21.9099 6.76477Z" fill="#4D4D4D"/>
<path fill-rule="evenodd" clip-rule="evenodd" d="M14.6301 8.54993C14.6301 8.54993 14.0841 8.90007 14.2845 9.1354C14.485 9.37074 14.5048 9.40055 14.5448 9.40055C14.5448 9.40055 14.5555 9.14862 14.6201 9.14862C14.6848 9.14862 15.1968 9.39331 15.3824 8.97971C15.568 8.56611 14.6301 8.54993 14.6301 8.54993Z" fill="#FFC221"/>
<path fill-rule="evenodd" clip-rule="evenodd" d="M13.4414 9.69078L14.698 9.45801L15.18 9.97984L15.3191 9.51282L15.6646 9.59761V9.8334H15.7921V10.1569L16.6957 10.3457L16.8091 10.0358C16.8091 10.0358 17.1033 10.5214 17.5553 10.4973C18.0073 10.4731 18.088 10.6011 18.1674 10.2423C18.2469 9.88349 18.4685 9.69078 18.4685 9.69078L18.9959 9.86841C18.9959 9.86841 18.4165 10.5801 18.6936 10.8037L20.7589 11.2816L20.6773 11.5318H20.4403L20.5042 11.7472L18.2472 11.5913C18.2472 11.5913 17.9957 11.91 17.9957 11.8286C17.9957 11.7472 17.982 11.7472 17.8709 11.7472C17.7598 11.7472 17.7022 11.5913 17.7022 11.5913L17.5553 11.6478C17.5553 11.6478 17.5775 11.6509 17.3929 11.5913C17.2083 11.5318 17.1002 11.5318 17.1002 11.5318L16.3378 11.4755V11.5913C16.3378 11.5913 16.1359 11.6014 16.206 11.6478C16.2761 11.6942 17.7022 11.7472 17.7022 11.7472L17.6153 11.9075C17.6153 11.9075 18.3203 11.91 18.4685 11.8286C18.6168 11.7472 18.5214 12.0089 18.5214 12.0089H19.2218C19.2218 12.0089 19.0481 12.1733 18.8254 12.1733C18.6028 12.1733 19.4646 12.4467 19.4646 12.4467C19.4646 12.4467 18.9835 12.596 18.7607 12.4972C18.5379 12.3985 18.8552 12.6881 18.9959 12.7612C19.1366 12.8344 18.501 12.8278 18.2472 12.5456C18.2472 12.5456 18.327 12.7547 18.2472 12.8145C18.2472 12.8145 17.8025 12.2906 17.5804 12.2906C17.3582 12.2906 17.6153 12.636 17.6153 12.636C17.6153 12.636 17.4884 12.4554 17.3467 12.5287C17.205 12.6021 17.1002 12.6852 17.1002 12.6852C17.1002 12.6852 17.0073 12.3651 16.5165 12.2328C16.0257 12.1005 16.1904 12.0518 15.7921 12.0089C15.3939 11.966 15.3738 11.7472 15.3191 11.7472C15.2644 11.7472 14.8431 11.3786 14.8431 11.3786C14.8431 11.3786 14.7494 11.0329 14.9691 11.0329C15.1887 11.0329 15.537 10.9295 15.6646 11.0329C15.7921 11.1362 15.8461 11.0329 15.8461 11.0329H16.0705L16.3921 11.2816H17.0303C17.0303 11.2816 17.1525 11.0927 17.3467 11.0329C17.5409 10.9731 17.3467 10.8037 17.3467 10.8037C17.3467 10.8037 16.8834 10.8301 16.6957 10.9019C16.5081 10.9737 16.6284 10.5545 16.6284 10.5545L15.7921 10.4026L15.6646 10.5545L15.3878 10.6378V10.8037L15.0961 10.7396L15.18 10.2423L14.4972 10.5545L13.4414 9.69078Z" fill="#FFC221"/>
<path fill-rule="evenodd" clip-rule="evenodd" d="M15.1416 9.93848L15.1338 9.9668L15.1621 9.95996L15.1797 9.97949L15.1875 9.9541L15.2158 9.94727L15.1963 9.92578L15.3193 9.5127L15.665 9.59766V9.83301H15.792V10.1572L16.6953 10.3457L16.8096 10.0361C17.0057 10.3596 17.2545 10.5132 17.5557 10.4971C18.0074 10.473 18.0875 10.6009 18.167 10.2422C18.22 10.003 18.321 9.8189 18.4688 9.69043L18.9961 9.86816C18.6099 10.3425 18.5089 10.6546 18.6934 10.8037L20.7588 11.2812L20.6777 11.5322H20.4912L20.4873 11.5186L20.4766 11.5322H20.4404L20.4502 11.5664L20.4404 11.5791L20.5039 11.7471L18.2471 11.5918C18.0796 11.804 17.9961 11.8823 17.9961 11.8281C17.996 11.7473 17.9818 11.7471 17.8711 11.7471C17.8356 11.7471 17.8037 11.7349 17.7764 11.7109L17.7666 11.7021C17.7414 11.6764 17.7198 11.6395 17.7021 11.5918L17.6582 11.6084C17.6569 11.6081 17.5626 11.6447 17.5557 11.6475C17.5586 11.6437 17.5624 11.6013 17.5625 11.6006C17.5453 11.6007 17.5444 11.6003 17.5225 11.6143C17.5169 11.6218 17.5145 11.6266 17.5127 11.6309C17.4853 11.6215 17.4449 11.6087 17.3926 11.5918C17.2698 11.5522 17.1726 11.5323 17.1006 11.5322L16.3867 11.4795L16.3379 11.4756V11.5918C16.3379 11.5918 16.1363 11.6011 16.2061 11.6475C16.2101 11.6501 16.2177 11.6535 16.2285 11.6562C16.3447 11.6849 16.8358 11.7149 17.7021 11.7471L17.6416 11.8594C17.6331 11.8594 17.6239 11.8594 17.6152 11.8594L17.6289 11.8818L17.6152 11.9072C17.625 11.9073 17.6349 11.9072 17.6445 11.9072L17.6582 11.9297L17.6699 11.9072C18.1072 11.9067 18.3738 11.8802 18.4688 11.8281C18.5576 11.7795 18.581 11.824 18.5381 11.9609L18.5322 11.9766C18.5288 11.9867 18.5255 11.9977 18.5215 12.0088H18.5557L18.5674 12.0254C18.5694 12.0199 18.5714 12.0141 18.5732 12.0088H19.1484C19.1261 12.037 19.1035 12.0623 19.0801 12.084H19.126C19.0387 12.1405 18.9432 12.1703 18.8398 12.1729C18.829 12.1669 18.8243 12.1643 18.8213 12.1621C18.8237 12.1662 18.826 12.1692 18.8271 12.1729C18.7682 12.1729 18.765 12.1874 18.8164 12.2148C18.9187 12.2657 19.1308 12.3404 19.4648 12.4463C19.1441 12.5458 18.9093 12.5629 18.7607 12.4971C18.7523 12.4933 18.7442 12.49 18.7373 12.4873C18.6732 12.464 18.6733 12.485 18.7041 12.5234C18.7652 12.5971 18.9122 12.7171 18.9961 12.7607C19.1247 12.8276 18.6045 12.8283 18.3203 12.6123C18.3134 12.5864 18.3041 12.5585 18.293 12.5293L18.2529 12.5518C18.2469 12.5495 18.213 12.5756 18.2109 12.5771C18.2307 12.5991 18.2523 12.6203 18.2764 12.6396C18.2967 12.7262 18.2872 12.7844 18.2471 12.8145C17.9506 12.4652 17.7282 12.291 17.5801 12.291C17.3821 12.2913 17.5659 12.5662 17.6074 12.625C17.5252 12.5135 17.4381 12.481 17.3467 12.5283C17.2073 12.6005 17.1039 12.683 17.1006 12.6855C17.0387 12.4722 16.8438 12.3206 16.5166 12.2324C16.0259 12.1001 16.1903 12.0517 15.792 12.0088C15.3945 11.9659 15.3738 11.7477 15.3193 11.7471C15.2829 11.7471 15.1236 11.6246 14.8428 11.3789C14.7804 11.1486 14.8226 11.0334 14.9688 11.0332C15.1884 11.0332 15.5375 10.9298 15.665 11.0332C15.7497 11.1016 15.8098 11.1016 15.8457 11.0332H16.0703L16.3926 11.2812H17.0303C17.1117 11.1555 17.2174 11.0731 17.3467 11.0332C17.4761 10.9933 17.4761 10.9166 17.3467 10.8037C17.0378 10.8213 16.8204 10.8545 16.6953 10.9023C16.5778 10.947 16.5508 10.8461 16.6152 10.6006C16.6198 10.5832 16.6238 10.5691 16.6279 10.5547L16.585 10.5469C16.5813 10.5432 15.792 10.4023 15.792 10.4023L15.665 10.5547L15.3877 10.6377V10.8037L15.0957 10.7393L15.1699 10.2998L15.2002 10.2852L15.1758 10.2676L15.1797 10.2422L15.1572 10.2529L15.1318 10.2344L15.127 10.2666L14.4971 10.5547L13.4414 9.69043L14.6982 9.45801L15.1416 9.93848ZM13.5518 9.71875L14.5049 10.498L15.2432 10.1611L15.1514 10.7031L15.3389 10.7441V10.6025L15.6367 10.5127L15.7725 10.3506L16.6895 10.5166L16.6748 10.5674C16.6367 10.7002 16.6235 10.7932 16.6328 10.8418C16.638 10.8687 16.6424 10.8709 16.6777 10.8574C16.8087 10.8073 17.0302 10.7737 17.3438 10.7559L17.3789 10.7676C17.533 10.902 17.533 11.0252 17.3613 11.0781C17.2431 11.1145 17.1468 11.1909 17.0713 11.3076L17.0566 11.3291H16.375L16.0537 11.0811H15.873C15.8181 11.155 15.7297 11.147 15.6338 11.0693C15.5811 11.0268 15.4745 11.0254 15.2529 11.0537C15.2449 11.0547 15.2367 11.0561 15.2246 11.0576C15.0867 11.0754 15.0324 11.0811 14.9688 11.0811C14.8663 11.0812 14.8363 11.1581 14.8867 11.3525C15.0211 11.4699 15.1268 11.5581 15.2031 11.6172C15.2415 11.6469 15.2721 11.6692 15.2949 11.6836C15.3054 11.6902 15.3141 11.6954 15.3203 11.6982C15.3366 11.7005 15.3486 11.7049 15.3594 11.7119C15.3747 11.7222 15.445 11.8157 15.4805 11.8457C15.5507 11.9051 15.6509 11.9461 15.7979 11.9619C15.9667 11.9801 16.0437 11.9989 16.125 12.0371C16.1375 12.043 16.1781 12.0628 16.1836 12.0654C16.2088 12.0776 16.2318 12.088 16.2578 12.0986C16.3265 12.1268 16.4122 12.155 16.5293 12.1865C16.839 12.27 17.0391 12.4107 17.124 12.6084C17.1752 12.5728 17.2257 12.5406 17.2793 12.5107C17.2941 12.5025 17.3093 12.494 17.3242 12.4863C17.3711 12.4621 17.4173 12.4548 17.4619 12.4629C17.4435 12.4141 17.4362 12.3708 17.4443 12.334C17.4574 12.2754 17.507 12.2433 17.5801 12.2432C17.7397 12.2432 17.9553 12.4059 18.2383 12.7305C18.2415 12.6938 18.2309 12.638 18.2021 12.5625L18.1094 12.3203L18.2832 12.5137C18.3859 12.6278 18.5733 12.7065 18.7773 12.7393C18.8182 12.7458 18.8577 12.7502 18.8916 12.752C18.829 12.7078 18.758 12.6497 18.707 12.5986C18.6604 12.5519 18.6361 12.5193 18.6348 12.4883C18.6331 12.4455 18.6693 12.4255 18.707 12.4297C18.7259 12.4319 18.7493 12.4404 18.7803 12.4541C18.8922 12.5037 19.0661 12.5006 19.2988 12.4434C19.091 12.3757 18.9428 12.3229 18.8545 12.2852C18.7917 12.2583 18.7577 12.2396 18.7422 12.2178C18.7193 12.1856 18.7336 12.1465 18.7686 12.1328C18.783 12.1271 18.801 12.126 18.8252 12.126C18.9169 12.126 19.0018 12.1027 19.0801 12.0566H18.4521L18.4756 11.9932C18.4907 11.9518 18.5006 11.9172 18.5059 11.8906C18.5081 11.8789 18.5094 11.8689 18.5098 11.8613C18.5049 11.8634 18.499 11.8664 18.4922 11.8701C18.3829 11.9301 18.095 11.9568 17.6152 11.9551H17.5342L17.623 11.792C16.6875 11.7565 16.2365 11.7258 16.1787 11.6875C16.1322 11.6566 16.1297 11.603 16.1768 11.5752C16.1958 11.564 16.2222 11.5571 16.2568 11.5518C16.2673 11.5501 16.2782 11.549 16.2891 11.5479V11.4238L17.1016 11.4844C17.1795 11.4847 17.2817 11.5051 17.4082 11.5459C17.4699 11.5658 17.5145 11.5803 17.542 11.5898C17.5478 11.5918 17.7217 11.5323 17.7305 11.5293L17.748 11.5752C17.7802 11.662 17.8207 11.6992 17.8711 11.6992C17.9779 11.6992 18.0219 11.7106 18.0371 11.7637C18.0768 11.7239 18.1348 11.6565 18.209 11.5625L18.2246 11.542L20.4385 11.6943L20.376 11.4844H20.6416L20.6963 11.3164L18.6719 10.8477C18.4562 10.6735 18.5486 10.3559 18.915 9.8916L18.4805 9.74512C18.3521 9.86542 18.2632 10.0346 18.2148 10.2529C18.1816 10.4031 18.1463 10.4774 18.0811 10.5166C18.0256 10.5499 17.9882 10.5518 17.8184 10.5449C17.716 10.5407 17.6459 10.5402 17.5576 10.5449C17.2645 10.5605 17.0178 10.4251 16.8213 10.1436L16.7275 10.4014L15.7432 10.1953V9.88086H15.6162V9.63477L15.3525 9.57031L15.2021 10.0752L14.6807 9.50977L13.5518 9.71875ZM19.208 12.0293C19.1943 12.0486 19.1801 12.067 19.166 12.084H19.126C19.1535 12.0662 19.1792 12.0447 19.2051 12.0215L19.208 12.0293ZM19.2051 12.0215L19.2021 12.0088H19.2217C19.2166 12.0136 19.2102 12.0169 19.2051 12.0215Z" fill="#4D4D4D"/>
</g>
</svg>
