<svg width="24" height="18" viewBox="0 0 24 18" fill="none" xmlns="http://www.w3.org/2000/svg">
<mask id="mask0_395_54546" style="mask-type:luminance" maskUnits="userSpaceOnUse" x="0" y="0" width="24" height="18">
<rect width="24" height="18" fill="white"/>
</mask>
<g mask="url(#mask0_395_54546)">
<path fill-rule="evenodd" clip-rule="evenodd" d="M0 0V18H24V0H0Z" fill="#2E42A5"/>
<mask id="mask1_395_54546" style="mask-type:luminance" maskUnits="userSpaceOnUse" x="0" y="0" width="24" height="18">
<path fill-rule="evenodd" clip-rule="evenodd" d="M0 0V18H24V0H0Z" fill="white"/>
</mask>
<g mask="url(#mask1_395_54546)">
<rect width="13.5" height="10.5" fill="#2B409A"/>
<mask id="mask2_395_54546" style="mask-type:luminance" maskUnits="userSpaceOnUse" x="0" y="0" width="14" height="11">
<rect width="13.5" height="10.5" fill="white"/>
</mask>
<g mask="url(#mask2_395_54546)">
<path d="M-1.5032 9.74983L1.46751 11.0527L13.5674 1.41653L15.1344 -0.519623L11.9576 -0.955091L7.02238 3.19743L3.05 5.99525L-1.5032 9.74983Z" fill="#F7FCFF"/>
<path d="M-1.0965 10.6627L0.416945 11.4188L14.5717 -0.699463H12.4467L-1.0965 10.6627Z" fill="#F50100"/>
<path d="M15.0032 9.74983L12.0325 11.0527L-0.0674057 1.41653L-1.63439 -0.519623L1.54236 -0.955091L6.47762 3.19743L10.45 5.99525L15.0032 9.74983Z" fill="#F7FCFF"/>
<path d="M14.9019 10.405L13.3884 11.1611L7.36117 5.97266L5.57422 5.39297L-1.78515 -0.51293H0.339895L7.69513 5.25279L9.64885 5.9479L14.9019 10.405Z" fill="#F50100"/>
<mask id="path-10-outside-1_395_54546" maskUnits="userSpaceOnUse" x="-2" y="-2" width="17" height="14" fill="black">
<rect fill="white" x="-2" y="-2" width="17" height="14"/>
<path fill-rule="evenodd" clip-rule="evenodd" d="M7.48838 0H5.98838V4.5H0V6H5.98838V10.5H7.48838V6H13.5V4.5H7.48838V0Z"/>
</mask>
<path fill-rule="evenodd" clip-rule="evenodd" d="M7.48838 0H5.98838V4.5H0V6H5.98838V10.5H7.48838V6H13.5V4.5H7.48838V0Z" fill="#F50100"/>
<path d="M5.98838 0V-1.5H4.48838V0H5.98838ZM7.48838 0H8.98838V-1.5H7.48838V0ZM5.98838 4.5V6H7.48838V4.5H5.98838ZM0 4.5V3H-1.5V4.5H0ZM0 6H-1.5V7.5H0V6ZM5.98838 6H7.48838V4.5H5.98838V6ZM5.98838 10.5H4.48838V12H5.98838V10.5ZM7.48838 10.5V12H8.98838V10.5H7.48838ZM7.48838 6V4.5H5.98838V6H7.48838ZM13.5 6V7.5H15V6H13.5ZM13.5 4.5H15V3H13.5V4.5ZM7.48838 4.5H5.98838V6H7.48838V4.5ZM5.98838 0V1.5H7.48838V0V-1.5H5.98838V0ZM5.98838 4.5H7.48838V0H5.98838H4.48838V4.5H5.98838ZM0 4.5V6H5.98838V4.5V3H0V4.5ZM0 6H1.5V4.5H0H-1.5V6H0ZM5.98838 6V4.5H0V6V7.5H5.98838V6ZM5.98838 10.5H7.48838V6H5.98838H4.48838V10.5H5.98838ZM7.48838 10.5V9H5.98838V10.5V12H7.48838V10.5ZM7.48838 6H5.98838V10.5H7.48838H8.98838V6H7.48838ZM13.5 6V4.5H7.48838V6V7.5H13.5V6ZM13.5 4.5H12V6H13.5H15V4.5H13.5ZM7.48838 4.5V6H13.5V4.5V3H7.48838V4.5ZM7.48838 0H5.98838V4.5H7.48838H8.98838V0H7.48838Z" fill="#F7FCFF" mask="url(#path-10-outside-1_395_54546)"/>
</g>
</g>
<g clip-path="url(#clip0_395_54546)">
<path d="M3.5 17L2.19835 18.2029L2.32725 16.4352L0.575216 16.1676L2.03761 15.1662L1.15451 13.6295L2.84917 14.1485L3.5 12.5L4.15083 14.1485L5.84549 13.6295L4.96239 15.1662L6.42478 16.1676L4.67275 16.4352L4.80165 18.2029L3.5 17Z" fill="#F7FCFF"/>
<path d="M16.5 9.5L15.6322 10.3019L15.7182 9.12349L14.5501 8.94504L15.5251 8.27748L14.9363 7.25302L16.0661 7.59903L16.5 6.5L16.9339 7.59903L18.0637 7.25302L17.4749 8.27748L18.4499 8.94504L17.2818 9.12349L17.3678 10.3019L16.5 9.5Z" fill="#F7FCFF"/>
<path d="M18.5 1.5L17.6322 2.30194L17.7182 1.12349L16.5501 0.945042L17.5251 0.277479L16.9363 -0.74698L18.0661 -0.400969L18.5 -1.5L18.9339 -0.400969L20.0637 -0.74698L19.4749 0.277479L20.4499 0.945042L19.2818 1.12349L19.3678 2.30194L18.5 1.5Z" fill="#F7FCFF"/>
<path d="M23.5 5.5L22.6322 6.30194L22.7182 5.12349L21.5501 4.94504L22.5251 4.27748L21.9363 3.25302L23.0661 3.59903L23.5 2.5L23.9339 3.59903L25.0637 3.25302L24.4749 4.27748L25.4499 4.94504L24.2818 5.12349L24.3678 6.30194L23.5 5.5Z" fill="#F7FCFF"/>
<path d="M19.5 18.5L18.6322 19.3019L18.7182 18.1235L17.5501 17.945L18.5251 17.2775L17.9363 16.253L19.0661 16.599L19.5 15.5L19.9339 16.599L21.0637 16.253L20.4749 17.2775L21.4499 17.945L20.2818 18.1235L20.3678 19.3019L19.5 18.5Z" fill="#F7FCFF"/>
<path d="M23 10.75L22.1183 11.2135L22.2867 10.2318L21.5734 9.53647L22.5592 9.39324L23 8.5L23.4408 9.39324L24.4266 9.53647L23.7133 10.2318L23.8817 11.2135L23 10.75Z" fill="#F7FCFF"/>
</g>
</g>
<defs>
<clipPath id="clip0_395_54546">
<rect width="18.75" height="15.75" fill="white" transform="translate(4.5 1.5)"/>
</clipPath>
</defs>
</svg>
