<svg width="24" height="18" viewBox="0 0 24 18" fill="none" xmlns="http://www.w3.org/2000/svg">
<mask id="mask0_395_54134" style="mask-type:luminance" maskUnits="userSpaceOnUse" x="0" y="0" width="24" height="18">
<rect width="24" height="18" fill="white"/>
</mask>
<g mask="url(#mask0_395_54134)">
<path fill-rule="evenodd" clip-rule="evenodd" d="M0 0V18H24V0H0Z" fill="#FECA00"/>
<mask id="mask1_395_54134" style="mask-type:luminance" maskUnits="userSpaceOnUse" x="0" y="0" width="24" height="18">
<path fill-rule="evenodd" clip-rule="evenodd" d="M0 0V18H24V0H0Z" fill="white"/>
</mask>
<g mask="url(#mask1_395_54134)">
<path fill-rule="evenodd" clip-rule="evenodd" d="M0 0V6H24V0H0Z" fill="#DB501C"/>
<path fill-rule="evenodd" clip-rule="evenodd" d="M0 12V18H24V12H0Z" fill="#5EAA22"/>
<path d="M9.33447 7.4687L9.36173 7.44226L14.7765 12.6508L14.7492 12.6773L9.33447 7.4687Z" fill="#864C26"/>
<path d="M15.166 12.3127L15.1426 12.3424L8.84326 7.71525L8.86664 7.68555L15.166 12.3127Z" fill="#864C26"/>
<path d="M15.2986 11.8509L15.2797 11.8834L8.27246 8.06925L8.29142 8.03674L15.2986 11.8509Z" fill="#A05A2C"/>
<path fill-rule="evenodd" clip-rule="evenodd" d="M8.10352 7.83972L8.07812 7.86804C8.09265 7.87186 8.10832 7.87503 8.12402 7.87976C8.14035 7.88471 8.15195 7.89381 8.16113 7.90417C8.16319 7.87094 8.15461 7.83395 8.13184 7.79285L8.0752 7.69226L8.16211 7.77039C8.29886 7.89483 8.342 7.99897 8.2832 8.07996C8.22574 8.15906 8.10571 8.17465 7.92676 8.13074L7.85449 8.11218L7.92676 8.0946C7.98545 8.07982 8.03293 8.0577 8.07129 8.0321H8.04297C8.01489 8.0321 7.99126 8.01741 7.9707 7.99109L7.92969 8.04089L7.5 7.63757L8.10352 7.83972ZM7.92676 7.98621L7.94922 7.95789C7.94549 7.95058 7.94191 7.94278 7.93848 7.93445L7.94043 7.93347L7.92285 7.91394L7.99609 7.84949L8.00586 7.85144C8.01536 7.85311 8.02497 7.85607 8.03516 7.85828L8.03809 7.85632L7.65137 7.72742L7.92676 7.98621ZM8.64844 7.48425L8.62012 7.51062C8.6343 7.51571 8.64975 7.52014 8.66504 7.52625C8.6809 7.53262 8.69196 7.54243 8.7002 7.55359C8.70522 7.52066 8.69973 7.48325 8.68066 7.44031L8.63379 7.33484L8.71289 7.4198C8.8384 7.55576 8.8723 7.66355 8.80664 7.73914C8.7425 7.81287 8.62164 7.81798 8.44727 7.75867L8.37598 7.73425L8.4502 7.72253C8.51032 7.71287 8.56002 7.6951 8.60059 7.67273L8.57129 7.67078C8.54342 7.66834 8.52109 7.65172 8.50293 7.6239L8.45801 7.6698L8.06445 7.23035L8.64844 7.48425ZM9.23242 7.18445L9.2002 7.20593C9.21256 7.21302 9.22609 7.21927 9.23926 7.22742C9.25402 7.23656 9.26334 7.248 9.26953 7.26062C9.28044 7.22884 9.28202 7.19052 9.27051 7.14441L9.24219 7.03308L9.30566 7.13074C9.40554 7.28625 9.42027 7.39775 9.34277 7.46082C9.2668 7.52238 9.14687 7.5066 8.98535 7.41785L8.91992 7.38171L8.99512 7.38269C9.05588 7.38357 9.10761 7.3752 9.15137 7.36023L9.12207 7.35242C9.09602 7.34532 9.07744 7.32661 9.06445 7.29773L9.0127 7.33484L8.70117 6.83386L9.23242 7.18445Z" fill="#E7E7E7"/>
<path fill-rule="evenodd" clip-rule="evenodd" d="M10.1035 12.1592L10.7295 11.0426L11.6077 11.2791L10.9757 12.2982H10.7295V12.4093L10.1035 12.1592Z" fill="#925229"/>
<path fill-rule="evenodd" clip-rule="evenodd" d="M9.83515 7.86609L9.42079 8.29672L9.27002 11.1424L10.7631 11.36C10.7631 11.36 10.1125 10.7888 10.0166 10.4362C9.92067 10.0837 9.89008 8.76755 10.0715 8.56745L10.2132 8.65018L10.3272 8.31159" fill="#FFE000"/>
<path fill-rule="evenodd" clip-rule="evenodd" d="M8.39191 8.05981C8.39191 8.05981 8.23145 10.2818 8.23145 10.672C8.23145 11.0623 8.56276 11.9915 9.318 11.9915C10.0732 11.9915 11.1096 11.5758 11.1096 11.4062C11.1096 11.2366 10.8002 11.1152 10.8002 11.1152C10.8002 11.1152 9.41125 11.2101 9.41125 10.672C9.41125 10.134 9.50561 8.54117 9.58806 8.35336C9.67051 8.16556 9.9563 7.88235 9.9563 7.88235L9.41125 7.47729L9.318 7.88235L8.96851 7.76344L8.86189 8.35336L8.39191 8.05981Z" fill="#D52C1E"/>
<path fill-rule="evenodd" clip-rule="evenodd" d="M10.3323 8.3064L10.2319 8.62067L10.0291 8.53508C10.0291 8.53508 9.72581 9.95721 10.0291 10.553C10.3323 11.1487 11.0961 11.1919 11.0961 11.1919L10.7734 8.62067L10.3323 8.3064Z" fill="#027934"/>
<path fill-rule="evenodd" clip-rule="evenodd" d="M10.2876 10.2284L9.55977 10.804C9.55977 10.804 9.36015 11.0901 9.55977 11.3067C9.75938 11.5233 10.3129 11.7442 10.4434 11.4827C10.574 11.2212 10.9619 10.915 10.9619 10.915L10.2876 10.2284Z" fill="#E8A30C"/>
<path fill-rule="evenodd" clip-rule="evenodd" d="M10.8589 8.05644C11.036 7.90249 11.1248 7.71465 11.0572 7.63688C10.9896 7.55912 10.7912 7.62088 10.6141 7.77483C10.437 7.92879 10.3483 8.11663 10.4159 8.19439C10.4835 8.27216 10.6818 8.21039 10.8589 8.05644Z" fill="#E1E5E8"/>
<path fill-rule="evenodd" clip-rule="evenodd" d="M10.4125 6.97681C10.4125 6.97681 10.3412 6.96221 10.309 6.95733C10.0787 6.92243 9.96362 6.96938 9.96362 7.09817C9.96362 7.31842 10.1104 7.55625 10.1104 7.72262C10.1104 7.88898 10.1175 8.1479 10.1881 8.01844C10.2586 7.88898 10.6176 7.49982 10.6176 7.49982L10.4125 7.16226C10.4125 7.16226 10.9216 7.21952 10.6981 7.09817" fill="#D52C1E"/>
<path fill-rule="evenodd" clip-rule="evenodd" d="M11.9778 11.5339L11.596 11.5301C11.3125 11.8104 11.2864 12.1875 11.5096 12.643C11.5096 12.643 11.5828 12.7489 11.6085 12.739C11.6444 12.7252 11.6943 12.5718 11.6943 12.5718C11.6772 12.127 11.9608 11.8324 11.9778 11.5339Z" fill="#D52C1E"/>
<path fill-rule="evenodd" clip-rule="evenodd" d="M11.4941 11.5451L11.6314 11.4813C11.7667 11.7624 11.6989 12.0535 11.4378 12.3426L11.3242 12.2436C11.4378 11.912 11.4378 11.7746 11.4941 11.5451Z" fill="#FFE000"/>
<path d="M11.3189 11.5359L11.4621 11.494C11.531 11.7294 11.4966 11.9723 11.3613 12.2188L11.2305 12.147C11.3474 11.9339 11.3761 11.7315 11.3189 11.5359Z" fill="#027934"/>
<path d="M14.6655 7.4687L14.6383 7.44226L9.22354 12.6508L9.2508 12.6773L14.6655 7.4687Z" fill="#864C26"/>
<path d="M8.83402 12.3127L8.8574 12.3424L15.1567 7.71525L15.1334 7.68555L8.83402 12.3127Z" fill="#864C26"/>
<path d="M8.70137 11.8509L8.72033 11.8834L15.7275 8.06925L15.7086 8.03674L8.70137 11.8509Z" fill="#A05A2C"/>
<path fill-rule="evenodd" clip-rule="evenodd" d="M15.8965 7.83972L15.9219 7.86804C15.9073 7.87186 15.8917 7.87503 15.876 7.87976C15.8596 7.88471 15.848 7.89381 15.8389 7.90417C15.8368 7.87094 15.8454 7.83395 15.8682 7.79285L15.9248 7.69226L15.8379 7.77039C15.7011 7.89483 15.658 7.99897 15.7168 8.07996C15.7743 8.15906 15.8943 8.17465 16.0732 8.13074L16.1455 8.11218L16.0732 8.0946C16.0146 8.07982 15.9671 8.0577 15.9287 8.0321H15.957C15.9851 8.0321 16.0087 8.01741 16.0293 7.99109L16.0703 8.04089L16.5 7.63757L15.8965 7.83972ZM16.0732 7.98621L16.0508 7.95789C16.0545 7.95058 16.0581 7.94278 16.0615 7.93445L16.0596 7.93347L16.0781 7.91394L16.0039 7.84949L15.9941 7.85144C15.9846 7.85311 15.975 7.85607 15.9648 7.85828L15.9619 7.85632L16.3486 7.72742L16.0732 7.98621ZM15.3516 7.48425L15.3799 7.51062C15.3657 7.51571 15.3503 7.52014 15.335 7.52625C15.3191 7.53262 15.308 7.54243 15.2998 7.55359C15.2948 7.52066 15.3003 7.48325 15.3193 7.44031L15.3662 7.33484L15.2871 7.4198C15.1616 7.55576 15.1277 7.66355 15.1934 7.73914C15.2575 7.81287 15.3784 7.81798 15.5527 7.75867L15.624 7.73425L15.5498 7.72253C15.4897 7.71287 15.44 7.6951 15.3994 7.67273L15.4287 7.67078C15.4566 7.66834 15.4789 7.65172 15.4971 7.6239L15.542 7.6698L15.9346 7.23035L15.3516 7.48425ZM14.7676 7.18445L14.7998 7.20593C14.7874 7.21302 14.7739 7.21927 14.7607 7.22742C14.746 7.23656 14.7367 7.248 14.7305 7.26062C14.7196 7.22884 14.718 7.19052 14.7295 7.14441L14.7578 7.03308L14.6943 7.13074C14.5945 7.28625 14.5797 7.39775 14.6572 7.46082C14.7332 7.52238 14.8531 7.5066 15.0146 7.41785L15.0801 7.38171L15.0049 7.38269C14.9441 7.38357 14.8924 7.3752 14.8486 7.36023L14.8779 7.35242C14.904 7.34532 14.9226 7.32661 14.9355 7.29773L14.9873 7.33484L15.2988 6.83386L14.7676 7.18445Z" fill="#E7E7E7"/>
<path fill-rule="evenodd" clip-rule="evenodd" d="M13.8965 12.1593L13.2705 11.0427L12.3923 11.2792L13.0243 12.2983H13.2705V12.4094L13.8965 12.1593Z" fill="#925229"/>
<path fill-rule="evenodd" clip-rule="evenodd" d="M14.1649 7.86584L14.5793 8.29647L14.73 11.1421L13.2369 11.3598C13.2369 11.3598 13.8876 10.7885 13.9835 10.436C14.0794 10.0834 14.11 8.76731 13.9286 8.5672L13.7868 8.64994L13.6728 8.31134" fill="#FFE000"/>
<path fill-rule="evenodd" clip-rule="evenodd" d="M15.6081 8.05993C15.6081 8.05993 15.7686 10.2819 15.7686 10.6722C15.7686 11.0624 15.4372 11.9917 14.682 11.9917C13.9268 11.9917 12.8904 11.5759 12.8904 11.4063C12.8904 11.2368 13.1998 11.1153 13.1998 11.1153C13.1998 11.1153 14.5887 11.2103 14.5887 10.6722C14.5887 10.1341 14.4944 8.54129 14.4119 8.35349C14.3295 8.16568 14.0437 7.88247 14.0437 7.88247L14.5887 7.47742L14.682 7.88247L15.0315 7.76357L15.1381 8.35349L15.6081 8.05993Z" fill="#D52C1E"/>
<path fill-rule="evenodd" clip-rule="evenodd" d="M13.6676 8.30652L13.768 8.62079L13.9709 8.5352C13.9709 8.5352 14.2741 9.95734 13.9709 10.5531C13.6676 11.1488 12.9038 11.1921 12.9038 11.1921L13.2265 8.62079L13.6676 8.30652Z" fill="#027934"/>
<path fill-rule="evenodd" clip-rule="evenodd" d="M13.7124 10.2284L14.4402 10.804C14.4402 10.804 14.6398 11.0901 14.4402 11.3067C14.2406 11.5233 13.6871 11.7442 13.5566 11.4827C13.426 11.2212 13.0381 10.915 13.0381 10.915L13.7124 10.2284Z" fill="#E8A30C"/>
<path fill-rule="evenodd" clip-rule="evenodd" d="M13.1409 8.05632C12.9638 7.90237 12.875 7.71453 12.9426 7.63676C13.0102 7.559 13.2086 7.62076 13.3857 7.77471C13.5628 7.92866 13.6516 8.11651 13.584 8.19427C13.5164 8.27203 13.318 8.21027 13.1409 8.05632Z" fill="#E1E5E8"/>
<path fill-rule="evenodd" clip-rule="evenodd" d="M12.0222 11.5339L12.404 11.5301C12.6875 11.8104 12.7136 12.1875 12.4904 12.643C12.4904 12.643 12.4172 12.7489 12.3915 12.739C12.3556 12.7252 12.3057 12.5718 12.3057 12.5718C12.3228 12.127 12.0392 11.8324 12.0222 11.5339Z" fill="#D52C1E"/>
<path fill-rule="evenodd" clip-rule="evenodd" d="M12.5059 11.5451L12.3686 11.4813C12.2333 11.7624 12.3011 12.0535 12.5622 12.3426L12.6758 12.2436C12.5622 11.912 12.5622 11.7746 12.5059 11.5451Z" fill="#FFE000"/>
<path d="M12.6811 11.5359L12.5379 11.494C12.469 11.7294 12.5034 11.9723 12.6387 12.2188L12.7695 12.147C12.6526 11.9339 12.6239 11.7315 12.6811 11.5359Z" fill="#027934"/>
<path fill-rule="evenodd" clip-rule="evenodd" d="M11.9807 7.6377C12.9991 7.6377 13.796 8.5359 13.7961 9.61523C13.7961 10.6946 12.9991 11.5928 11.9807 11.5928C10.9622 11.5928 10.1652 10.6946 10.1652 9.61523C10.1653 8.53591 10.9623 7.63771 11.9807 7.6377ZM11.9807 8.04785C11.2127 8.04785 10.59 8.74971 10.59 9.61523C10.5901 10.4807 11.2127 11.1826 11.9807 11.1826C12.7485 11.1826 13.3712 10.4806 13.3713 9.61523C13.3713 8.74974 12.7486 8.04789 11.9807 8.04785Z" fill="#00A6DE"/>
<path fill-rule="evenodd" clip-rule="evenodd" d="M11.9806 11.1822C12.7486 11.1822 13.3711 10.4805 13.3711 9.61502C13.3711 8.74949 12.7486 8.04785 11.9806 8.04785C11.2126 8.04785 10.59 8.74949 10.59 9.61502C10.59 10.4805 11.2126 11.1822 11.9806 11.1822Z" fill="#FFC036"/>
<mask id="mask2_395_54134" style="mask-type:luminance" maskUnits="userSpaceOnUse" x="10" y="8" width="4" height="4">
<path fill-rule="evenodd" clip-rule="evenodd" d="M11.9806 11.1822C12.7486 11.1822 13.3711 10.4805 13.3711 9.61502C13.3711 8.74949 12.7486 8.04785 11.9806 8.04785C11.2126 8.04785 10.59 8.74949 10.59 9.61502C10.59 10.4805 11.2126 11.1822 11.9806 11.1822Z" fill="white"/>
</mask>
<g mask="url(#mask2_395_54134)">
<path fill-rule="evenodd" clip-rule="evenodd" d="M11.9808 9.33553L11.8003 9.70767L11.8048 9.29673L11.475 9.55637L11.6637 9.18802L11.2499 9.28372L11.5854 9.03092L11.1696 8.94374L11.5854 8.85656L11.2499 8.60375L11.6637 8.69946L11.475 8.33111L11.8048 8.59075L11.8003 8.1798L11.9808 8.55195L12.1613 8.1798L12.1567 8.59075L12.4865 8.33111L12.2979 8.69946L12.7116 8.60375L12.3762 8.85656L12.7919 8.94374L12.3762 9.03092L12.7116 9.28372L12.2979 9.18802L12.4865 9.55637L12.1567 9.29673L12.1613 9.70767L11.9808 9.33553Z" fill="#D52C1E"/>
<path fill-rule="evenodd" clip-rule="evenodd" d="M10.5308 9.70516C10.5308 9.70516 11.6183 8.93945 11.8854 8.93945C12.1526 8.93945 13.2922 9.70935 13.5253 9.81408C13.7585 9.91881 13.5253 11.9725 13.5253 11.9725H10.4407L10.5308 9.70516Z" fill="#027934"/>
</g>
<path fill-rule="evenodd" clip-rule="evenodd" d="M12.0114 11.3203L12.1628 11.3232L12.0417 11.4121L12.0856 11.5527L11.9616 11.4688L11.8366 11.5527L11.8806 11.4121L11.7595 11.3232L11.9108 11.3203L11.9616 11.1816L12.0114 11.3203ZM11.3542 11.1338L11.5065 11.1367L11.3854 11.2256L11.4294 11.3662L11.3044 11.2822L11.1794 11.3662L11.2233 11.2256L11.1022 11.1367L11.2546 11.1338L11.3044 10.9951L11.3542 11.1338ZM12.7067 11.1338L12.8581 11.1367L12.737 11.2256L12.7809 11.3662L12.6559 11.2822L12.5319 11.3662L12.5759 11.2256L12.4548 11.1367L12.6061 11.1338L12.6559 10.9951L12.7067 11.1338ZM10.8913 10.7607L11.0427 10.7637L10.9216 10.8525L10.9655 10.9932L10.8415 10.9092L10.7165 10.9932L10.7604 10.8525L10.6393 10.7637L10.7907 10.7607L10.8415 10.6221L10.8913 10.7607ZM13.1706 10.7607L13.322 10.7637L13.2009 10.8525L13.2448 10.9932L13.1198 10.9092L12.9958 10.9932L13.0397 10.8525L12.9186 10.7637L13.07 10.7607L13.1198 10.6221L13.1706 10.7607ZM10.5817 10.3135L10.7341 10.3164L10.613 10.4053L10.6569 10.5459L10.5319 10.4619L10.4069 10.5459L10.4509 10.4053L10.3298 10.3164L10.4821 10.3135L10.5319 10.1748L10.5817 10.3135ZM13.4792 10.3135L13.6315 10.3164L13.5095 10.4053L13.5544 10.5459L13.4294 10.4619L13.3044 10.5459L13.3483 10.4053L13.2272 10.3164L13.3786 10.3135L13.4294 10.1748L13.4792 10.3135ZM10.4274 9.75391L10.5798 9.75684L10.4587 9.8457L10.5026 9.98633L10.3776 9.90234L10.2526 9.98633L10.2966 9.8457L10.1755 9.75684L10.3278 9.75391L10.3776 9.61523L10.4274 9.75391ZM13.6335 9.75391L13.7858 9.75684L13.6647 9.8457L13.7087 9.98633L13.5837 9.90234L13.4587 9.98633L13.5026 9.8457L13.3815 9.75684L13.5339 9.75391L13.5837 9.61523L13.6335 9.75391ZM11.9929 7.83105C12.6618 7.86821 13.1632 8.23358 13.4929 8.92188L13.4225 8.95312C13.1043 8.28867 12.6276 7.9407 11.9909 7.90527C11.4223 7.9053 10.9559 8.21271 10.5895 8.83105L10.5231 8.79395C10.9023 8.154 11.392 7.83111 11.9929 7.83105Z" fill="#FFC036"/>
<path d="M11.0125 5.25488L11.1616 5.36335C10.7795 5.70616 10.7077 6.08845 10.7808 6.41688C10.857 6.75903 11.1958 7.12401 11.8118 7.49881L11.5853 7.8461C10.882 7.41813 10.4769 7.02211 10.3719 6.55049C10.2638 6.06515 10.5292 5.68854 11.0125 5.25488Z" fill="#036A2D"/>
<path d="M13.0399 5.25488L12.8909 5.36335C13.273 5.70616 13.3448 6.08845 13.2716 6.41688C13.1954 6.75903 12.8566 7.12401 12.2406 7.49881L12.4671 7.8461C13.1704 7.41813 13.5755 7.02211 13.6806 6.55049C13.7887 6.06515 13.5233 5.68854 13.0399 5.25488Z" fill="#036A2D"/>
<path fill-rule="evenodd" clip-rule="evenodd" d="M9.5813 6.64607C9.5813 6.64607 10.2334 6.19522 10.5428 6.19522C10.8522 6.19522 11.2651 6.09195 11.3299 6.32915C11.3946 6.56635 11.517 6.49766 11.7566 6.49766C11.9963 6.49766 12.4672 6.49766 12.4672 6.49766C12.4672 6.49766 12.3266 6.19522 12.5872 6.19522C12.8479 6.19522 13.9364 6.34924 14.265 6.49766C14.5936 6.64607 14.6101 6.7338 14.6101 6.7338C14.6101 6.7338 14.306 6.55833 13.9696 6.64607C13.6332 6.7338 13.0231 7.1201 12.7451 7.1201C12.4672 7.1201 12.2448 7.4187 12.2448 7.4187C12.2448 7.4187 12.2631 7.26564 12.0099 7.34217C11.7566 7.4187 11.7626 7.77921 11.5462 7.71302C11.3299 7.64684 11.6086 7.1201 11.5462 7.1201C11.4839 7.1201 11.0422 6.94697 11.0422 6.94697C11.0422 6.94697 10.6136 6.55833 9.97709 6.64607C9.34061 6.7338 9.5813 6.64607 9.5813 6.64607Z" fill="#452C24"/>
<path fill-rule="evenodd" clip-rule="evenodd" d="M11.9034 6.96611C12.0314 6.96611 12.1352 6.87423 12.1352 6.76089C12.1352 6.64755 12.0314 6.55566 11.9034 6.55566C11.7754 6.55566 11.6716 6.64755 11.6716 6.76089C11.6716 6.87423 11.7754 6.96611 11.9034 6.96611Z" fill="#E7E7E7"/>
<path fill-rule="evenodd" clip-rule="evenodd" d="M11.4028 6.755C11.4028 6.755 11.4777 6.61328 11.6262 6.61328C11.7748 6.61328 12.0533 6.61328 12.0533 6.68414C12.0533 6.755 12.0757 6.84756 11.8509 6.84756C11.6262 6.84756 11.7702 6.755 11.6262 6.755C11.4823 6.755 11.4028 6.755 11.4028 6.755Z" fill="#E8A30C"/>
<path fill-rule="evenodd" clip-rule="evenodd" d="M14.0524 7.71249C14.1387 7.62207 14.187 7.40277 14.187 7.40277C14.187 7.40277 13.8014 7.4645 13.7116 7.40277C13.6218 7.34105 13.5753 7.16016 13.5753 7.16016C13.5753 7.16016 13.2278 7.31891 13.3603 7.31891C13.4928 7.31891 13.5753 7.43632 13.5753 7.43632L13.8449 7.53565C13.8449 7.53565 13.6659 7.71249 13.7554 7.71249C13.8449 7.71249 13.966 7.80292 14.0524 7.71249Z" fill="#E1E5E8"/>
<path d="M13.3733 7.78704L13.3247 7.72903L13.6635 7.46387L13.712 7.52187L13.3733 7.78704Z" fill="#925229"/>
</g>
</g>
</svg>
