<svg width="24" height="18" viewBox="0 0 24 18" fill="none" xmlns="http://www.w3.org/2000/svg">
<mask id="mask0_395_53028" style="mask-type:luminance" maskUnits="userSpaceOnUse" x="0" y="0" width="24" height="18">
<rect width="24" height="18" fill="white"/>
</mask>
<g mask="url(#mask0_395_53028)">
<path fill-rule="evenodd" clip-rule="evenodd" d="M0 0V18H24V0H0Z" fill="#0168B4"/>
<mask id="mask1_395_53028" style="mask-type:luminance" maskUnits="userSpaceOnUse" x="0" y="0" width="24" height="18">
<path fill-rule="evenodd" clip-rule="evenodd" d="M0 0V18H24V0H0Z" fill="white"/>
</mask>
<g mask="url(#mask1_395_53028)">
<path fill-rule="evenodd" clip-rule="evenodd" d="M0 0V2.25H24V0H0Z" fill="#E93C43"/>
<path fill-rule="evenodd" clip-rule="evenodd" d="M0 15.75V18H24V15.75H0Z" fill="#E93C43"/>
<path d="M12 13.5C9.51472 13.5 7.5 11.4853 7.5 9C7.5 6.51472 9.51472 4.5 12 4.5C14.4853 4.5 16.5 6.51472 16.5 9C16.5 11.4853 14.4853 13.5 12 13.5Z" fill="#F7FCFF"/>
<path d="M12 15C8.68629 15 6 12.3137 6 9C6 5.68629 8.68629 3 12 3C15.3137 3 18 5.68629 18 9C18 12.3137 15.3137 15 12 15Z" fill="white"/>
<path fill-rule="evenodd" clip-rule="evenodd" d="M12 14.25C14.8995 14.25 17.25 11.8995 17.25 9C17.25 6.10051 14.8995 3.75 12 3.75C9.10051 3.75 6.75 6.10051 6.75 9C6.75 11.8995 9.10051 14.25 12 14.25Z" stroke="#9C4C17" stroke-width="0.5"/>
<path fill-rule="evenodd" clip-rule="evenodd" d="M12.3911 13.8555C12.2013 13.9546 12.1265 14.0626 12.1265 14.2041C12.1265 14.3471 12.1991 14.5832 12.3911 14.6875L12.2749 14.9385C11.9124 14.7416 11.5641 14.5685 11.564 14.2041C11.564 13.8381 11.9101 13.7862 12.2749 13.5957L12.3911 13.8555ZM11.0044 13.7715C10.7948 13.8145 10.6928 13.8973 10.6538 14.0332C10.6144 14.1707 10.6191 14.4181 10.7749 14.5713L10.5942 14.7803C10.3 14.4911 10.0123 14.2284 10.1128 13.8779C10.2138 13.5263 10.5612 13.5718 10.9644 13.4893L11.0044 13.7715ZM13.7456 13.5439C13.5904 13.6916 13.5474 13.8161 13.5864 13.9521C13.626 14.0896 13.761 14.2964 13.9741 14.3438L13.9321 14.6172C13.5293 14.5279 13.1459 14.4569 13.0454 14.1064C12.9449 13.7549 13.264 13.6098 13.562 13.3262L13.7456 13.5439ZM8.81787 13.1523C9.01716 12.8455 9.33508 12.9903 9.74463 13.0293L9.70166 13.3105C9.48869 13.2903 9.36665 13.3396 9.28955 13.458C9.21166 13.5779 9.14429 13.8157 9.24854 14.0078L9.01416 14.1553C8.81732 13.7927 8.61936 13.4581 8.81787 13.1523ZM14.9468 12.8604C14.8418 13.0467 14.8376 13.1783 14.9146 13.2969C14.9924 13.4167 15.1822 13.5745 15.3999 13.5576L15.4399 13.832C15.0287 13.8644 14.6415 13.9091 14.4429 13.6035C14.2435 13.2966 14.5063 13.0645 14.7085 12.7061L14.9468 12.8604ZM7.77295 12.0957C8.0492 11.8556 8.31559 12.0831 8.69873 12.2334L8.57959 12.4912C8.38021 12.413 8.24891 12.4276 8.14209 12.5205C8.03423 12.6144 7.9045 12.8239 7.95166 13.0371L7.68506 13.1143C7.59581 12.7115 7.49803 12.3349 7.77295 12.0957ZM15.9175 11.8662C15.8678 12.0745 15.9005 12.2021 16.0073 12.2949C16.1152 12.3887 16.3407 12.4885 16.5454 12.4121L16.6587 12.665C16.2723 12.8095 15.9133 12.9588 15.6382 12.7197C15.362 12.4796 15.5495 12.1844 15.645 11.7842L15.9175 11.8662ZM7.06885 10.7861C7.4005 10.6315 7.59371 10.9238 7.92041 11.1738L7.73486 11.3887C7.56501 11.2587 7.43525 11.2363 7.30713 11.2959C7.1776 11.3563 6.99455 11.5223 6.98096 11.7402L6.70361 11.7412C6.72882 11.3294 6.73853 10.9402 7.06885 10.7861ZM16.5698 10.6387C16.5794 10.8524 16.6449 10.9665 16.7729 11.0264C16.9026 11.0868 17.148 11.1212 17.3237 10.9912L17.5015 11.2021C17.1698 11.4475 16.866 11.6902 16.5356 11.5361C16.204 11.3814 16.3032 11.0459 16.2847 10.6348L16.5698 10.6387ZM6.76904 9.33105C7.13152 9.28011 7.23075 9.61641 7.47021 9.95117L7.22998 10.1025C7.10537 9.92834 6.98733 9.86897 6.84717 9.88867C6.70557 9.90874 6.48232 10.0134 6.40576 10.2178L6.14111 10.1377C6.28558 9.75136 6.40825 9.38192 6.76904 9.33105ZM16.8394 9.2832C16.9111 9.48475 17.008 9.57399 17.1479 9.59375C17.2896 9.61365 17.5335 9.57414 17.6636 9.39844L17.896 9.54883C17.6506 9.88044 17.4308 10.2011 17.0698 10.1504C16.7076 10.0994 16.7047 9.7499 16.5669 9.3623L16.8394 9.2832ZM6.88428 7.85059C7.24669 7.90152 7.25035 8.25096 7.38818 8.63867L7.11475 8.71777C7.04299 8.5162 6.94624 8.42692 6.80615 8.40723C6.6645 8.38737 6.42051 8.4269 6.29053 8.60254L6.05811 8.45215C6.30349 8.12057 6.52341 7.80004 6.88428 7.85059ZM17.814 7.86328C17.6694 8.24974 17.5461 8.61918 17.1851 8.66992C16.8226 8.72082 16.7233 8.38455 16.4839 8.0498L16.7251 7.89844C16.8497 8.07263 16.9668 8.132 17.1069 8.1123C17.2485 8.09234 17.4717 7.98767 17.5483 7.7832L17.814 7.86328ZM6.45264 6.79883C6.78422 6.5535 7.08816 6.31102 7.41846 6.46484C7.75018 6.61953 7.65095 6.95508 7.66943 7.36621L7.38525 7.3623C7.37563 7.14839 7.30938 7.03444 7.18115 6.97461C7.05156 6.91418 6.80706 6.88083 6.63135 7.01074L6.45264 6.79883ZM17.2505 6.25977C17.2253 6.67157 17.2156 7.06075 16.8853 7.21484C16.5536 7.36952 16.3605 7.07725 16.0337 6.82715L16.2192 6.6123C16.3891 6.74232 16.5188 6.76466 16.647 6.70508C16.7765 6.64467 16.9596 6.47876 16.9731 6.26074L17.2505 6.25977ZM7.29541 5.33496C7.68176 5.19053 8.04084 5.04123 8.31592 5.28027C8.59211 5.52037 8.40465 5.81561 8.30908 6.21582L8.03662 6.13379C8.08634 5.92547 8.05359 5.79794 7.94678 5.70508C7.83888 5.61129 7.61337 5.51153 7.40869 5.58789L7.29541 5.33496ZM16.269 4.88672C16.3583 5.28952 16.4562 5.6661 16.1812 5.90527C15.9049 6.14542 15.6385 5.91791 15.2554 5.76758L15.3755 5.50977C15.5746 5.5878 15.7053 5.57326 15.812 5.48047C15.9199 5.38664 16.0505 5.17709 16.0034 4.96387L16.269 4.88672ZM8.51514 4.16895C8.92633 4.13661 9.31268 4.09191 9.51123 4.39746C9.71056 4.7044 9.44877 4.93652 9.24658 5.29492L9.00732 5.14062C9.11248 4.95415 9.11657 4.82277 9.03955 4.7041C8.96167 4.58418 8.77205 4.42533 8.5542 4.44238L8.51514 4.16895ZM14.9409 3.84473C15.1377 4.20721 15.3355 4.54199 15.1372 4.84766C14.9378 5.15465 14.6192 5.0096 14.2095 4.9707L14.2534 4.68945C14.4665 4.70966 14.5884 4.66054 14.6655 4.54199C14.7434 4.4221 14.8106 4.18425 14.7065 3.99219L14.9409 3.84473ZM10.0229 3.38379C10.4255 3.47306 10.8081 3.54348 10.9087 3.89355C11.0096 4.24539 10.6912 4.39113 10.3931 4.6748L10.2095 4.45703C10.3645 4.30946 10.4067 4.18484 10.3677 4.04883C10.3282 3.91135 10.1933 3.70454 9.97998 3.65723L10.0229 3.38379ZM13.3608 3.21973C13.655 3.50884 13.9418 3.77173 13.8413 4.12207C13.7403 4.47343 13.3937 4.42827 12.9907 4.51074L12.9497 4.22852C13.1594 4.18556 13.2612 4.10271 13.3003 3.9668C13.3397 3.82932 13.3351 3.58193 13.1792 3.42871L13.3608 3.21973ZM11.6802 3.0625C12.0426 3.25931 12.391 3.43253 12.3911 3.79688C12.3911 4.16283 12.0449 4.21484 11.6802 4.40527L11.564 4.14551C11.7535 4.04643 11.8286 3.9383 11.8286 3.79688C11.8285 3.65391 11.7557 3.41782 11.564 3.31348L11.6802 3.0625Z" fill="#5B8C39"/>
<path fill-rule="evenodd" clip-rule="evenodd" d="M9.20919 10.4897C9.20919 10.4897 8.38434 10.4717 8.38434 10.8506C8.38434 11.2296 8.38434 11.6494 8.79676 11.4395C9.20919 11.2296 9.71342 11.1467 9.98013 11.2931C10.2468 11.4395 10.8683 11.737 11.7443 11.737C12.6204 11.737 12.562 11.4395 13.3688 11.4395C14.1755 11.4395 15.616 11.3753 15.2824 11.113C14.9488 10.8506 14.5562 10.6846 14.2564 10.6846C13.9567 10.6846 13.7268 10.6846 13.0966 10.3757C12.4663 10.0668 11.7627 10.0389 11.0537 10.1385C10.3447 10.2381 10.2511 10.4897 9.83184 10.4897C9.41256 10.4897 9.20919 10.4897 9.20919 10.4897Z" fill="#247805"/>
<path d="M13.8444 7.77454V9.89368C13.8443 10.6967 13.4032 11.2231 12.985 11.5382C12.7764 11.6955 12.5693 11.804 12.4147 11.8732C12.3372 11.9078 12.272 11.9335 12.2253 11.9503C12.202 11.9587 12.1831 11.9655 12.1696 11.9698C12.1629 11.972 12.157 11.9735 12.153 11.9747C12.1511 11.9753 12.1494 11.9753 12.1481 11.9757L12.1472 11.9767H12.1462L12.0749 11.7374L12.1452 11.9767L12.072 11.9982L11.9987 11.9747H11.9977L11.9958 11.9738C11.9946 11.9734 11.9927 11.9734 11.9909 11.9728C11.987 11.9715 11.9818 11.9692 11.9753 11.9669C11.9619 11.9622 11.9428 11.9554 11.9196 11.9464C11.8732 11.9285 11.8082 11.9016 11.7311 11.8654C11.5772 11.793 11.3705 11.681 11.1628 11.5216C10.7482 11.2035 10.3055 10.6774 10.3054 9.89368V7.77454H13.8444Z" fill="white" stroke="#565656" stroke-width="0.5"/>
<mask id="mask2_395_53028" style="mask-type:luminance" maskUnits="userSpaceOnUse" x="10" y="7" width="5" height="6">
<path d="M13.8444 7.77454V9.89368C13.8443 10.6967 13.4032 11.2231 12.985 11.5382C12.7764 11.6955 12.5693 11.804 12.4147 11.8732C12.3372 11.9078 12.272 11.9335 12.2253 11.9503C12.202 11.9587 12.1831 11.9655 12.1696 11.9698C12.1629 11.972 12.157 11.9735 12.153 11.9747C12.1511 11.9753 12.1494 11.9753 12.1481 11.9757L12.1472 11.9767H12.1462L12.0749 11.7374L12.1452 11.9767L12.072 11.9982L11.9987 11.9747H11.9977L11.9958 11.9738C11.9946 11.9734 11.9927 11.9734 11.9909 11.9728C11.987 11.9715 11.9818 11.9692 11.9753 11.9669C11.9619 11.9622 11.9428 11.9554 11.9196 11.9464C11.8732 11.9285 11.8082 11.9016 11.7311 11.8654C11.5772 11.793 11.3705 11.681 11.1628 11.5216C10.7482 11.2035 10.3055 10.6774 10.3054 9.89368V7.77454H13.8444Z" fill="white" stroke="white" stroke-width="0.5"/>
</mask>
<g mask="url(#mask2_395_53028)">
<path opacity="0.4" fill-rule="evenodd" clip-rule="evenodd" d="M10.6476 10.4315L12.0977 9.3634L13.6223 10.5526V12.2452H10.6476V10.4315Z" fill="#84CEFF"/>
<path fill-rule="evenodd" clip-rule="evenodd" d="M10.6935 10.8089H13.3876V11.1839H10.6935V10.8089Z" fill="#006AC9"/>
<path fill-rule="evenodd" clip-rule="evenodd" d="M10.8317 11.1798H13.3186V11.3786H10.8317V11.1798Z" fill="#59C800"/>
<path fill-rule="evenodd" clip-rule="evenodd" d="M10.8317 11.4277H13.3185V11.8027H10.8317V11.4277Z" fill="#FFD800"/>
<path fill-rule="evenodd" clip-rule="evenodd" d="M14.0449 10.8828L12.1022 9.39929L12.1022 7.39661H14.0449V10.8828Z" fill="#F7D85D"/>
<path fill-rule="evenodd" clip-rule="evenodd" d="M11.6606 10.0664C11.6606 10.0664 11.722 10.3851 11.769 10.3851C11.816 10.3851 11.9009 10.0664 11.9009 10.0664C11.9009 10.0664 11.911 10.3851 11.9582 10.3851C12.0055 10.3851 11.9997 10.118 12.0751 10.0664C12.1025 10.0477 12.137 10.3835 12.1789 10.3851C12.2142 10.3864 12.3004 10.0664 12.3004 10.0664C12.3004 10.0664 12.3265 10.3851 12.3673 10.3851C12.408 10.3851 12.4896 10.0664 12.4896 10.0664V10.8708H11.6606V10.0664Z" fill="#F5F6F6"/>
<path fill-rule="evenodd" clip-rule="evenodd" d="M12.0751 11.1295C12.4948 11.1295 12.835 11.0577 12.835 10.9692C12.835 10.8807 12.4948 10.8089 12.0751 10.8089C11.6555 10.8089 11.3152 10.8807 11.3152 10.9692C11.3152 11.0577 11.6555 11.1295 12.0751 11.1295Z" fill="#892E2E"/>
<path d="M10.717 8.32717L10.8732 8.2052L11.9238 9.28482L11.7676 9.40679L10.717 8.32717Z" fill="#A46031"/>
<path d="M10.8861 9.57504L10.7202 9.46384L11.7419 8.24054L11.9078 8.35173L10.8861 9.57504Z" fill="#892E2E"/>
<path d="M12.3058 8.48857L12.4621 8.39172L13.5127 9.24897L13.3565 9.34581L12.3058 8.48857Z" fill="#A46031"/>
<path d="M12.5256 9.36373L12.3312 9.23167L13.3305 8.4259L13.5436 8.6014L12.5256 9.36373Z" fill="#F5F6F6"/>
</g>
<path fill-rule="evenodd" clip-rule="evenodd" d="M10.9254 12.4014L11.4132 12.5543V12.9753H10.9254V12.4014Z" fill="#6699FF"/>
<path fill-rule="evenodd" clip-rule="evenodd" d="M10.5768 11.5401L10.8512 11.6929V12.114H10.5768V11.5401Z" fill="#6699FF"/>
<path fill-rule="evenodd" clip-rule="evenodd" d="M13.155 12.4014L12.6672 12.5543V12.9753H13.155V12.4014Z" fill="#6699FF"/>
<path fill-rule="evenodd" clip-rule="evenodd" d="M13.5037 11.5401L13.2292 11.6929V12.114H13.5037V11.5401Z" fill="#6699FF"/>
<path d="M10.3109 12.432C10.2216 12.432 10.1473 12.434 10.0623 12.4381C9.85633 12.448 9.8434 12.4477 9.78655 12.4244C9.75238 12.4103 9.71829 12.3877 9.66923 12.3474C9.55292 12.2519 9.42756 12.0325 9.2915 11.6883L9.29191 11.6739C9.45985 11.3108 9.80519 11.2658 10.3188 11.535C10.4541 11.6059 10.8486 11.8203 10.8454 11.8185C11.0248 11.9146 11.1506 11.9761 11.2743 12.0258C11.5306 12.1291 11.7724 12.1759 12.0824 12.1759C12.2685 12.1759 12.4842 12.123 12.7358 12.0231C12.8811 11.9654 13.0324 11.8949 13.2169 11.8012C13.2412 11.7889 13.6272 11.5881 13.7227 11.5422C13.8897 11.4618 13.9999 11.4228 14.0758 11.4228C14.0965 11.4228 14.1126 11.4227 14.1526 11.4225C14.2221 11.4221 14.255 11.422 14.2951 11.4225C14.6653 11.4271 14.8481 11.4887 14.8481 11.6816C14.8481 11.8638 14.7296 12.111 14.4933 12.425L14.4818 12.4318C14.0144 12.4948 13.7434 12.4948 13.66 12.4282C13.6373 12.41 13.5749 12.4183 13.4604 12.455C13.4085 12.4716 13.1307 12.571 13.0448 12.5995C12.6874 12.7179 12.3811 12.7816 12.0691 12.7816C11.5941 12.7816 11.0741 12.5973 10.5092 12.2292C10.6116 12.3593 10.5468 12.432 10.3109 12.432Z" fill="white"/>
<path fill-rule="evenodd" clip-rule="evenodd" d="M9.2915 11.6739C9.45944 11.3107 9.8052 11.266 10.3188 11.5352C10.452 11.6049 10.8355 11.8131 10.8452 11.8184C11.0244 11.9143 11.1504 11.9757 11.2739 12.0254C11.5303 12.1286 11.7725 12.1758 12.0825 12.1758C12.2686 12.1758 12.4844 12.1233 12.7358 12.0235C12.8812 11.9657 13.0328 11.8945 13.2173 11.8008C13.2459 11.7862 13.6283 11.5877 13.7231 11.542C13.8898 11.4618 13.9998 11.4229 14.0757 11.4229H14.2954C14.6654 11.4274 14.8481 11.4889 14.8481 11.6817C14.8481 11.8638 14.7297 12.111 14.4937 12.4248L14.4819 12.4317C14.0146 12.4947 13.743 12.4944 13.6597 12.4278C13.6366 12.41 13.5743 12.4186 13.4604 12.4551C13.4086 12.4717 13.1303 12.5712 13.0444 12.5996C12.6872 12.718 12.3807 12.7813 12.0688 12.7813C11.5939 12.7812 11.074 12.5975 10.5093 12.2295C10.6114 12.3595 10.5467 12.4316 10.311 12.4317C10.2217 12.4317 10.147 12.4344 10.062 12.4385C9.85659 12.4483 9.84326 12.4481 9.78662 12.4248C9.7525 12.4108 9.71835 12.3878 9.66943 12.3477C9.55314 12.2522 9.42754 12.0326 9.2915 11.6885V11.6739ZM10.3032 11.5674C9.80844 11.3081 9.48573 11.3478 9.32666 11.6826C9.45938 12.017 9.58148 12.2294 9.69092 12.3194C9.7375 12.3576 9.76897 12.3791 9.79932 12.3916C9.8492 12.4121 9.86233 12.4119 10.061 12.4024C10.1464 12.3983 10.2213 12.3965 10.311 12.3965C10.5931 12.3965 10.5927 12.3065 10.3003 12.0869L10.3208 12.0576C10.9613 12.5168 11.544 12.746 12.0688 12.7461C12.3765 12.7461 12.6795 12.6828 13.0337 12.5655C13.1189 12.5372 13.3967 12.4379 13.4497 12.4209C13.577 12.3801 13.645 12.3716 13.6812 12.4004C13.7531 12.4579 14.0191 12.4579 14.4702 12.3975C14.6991 12.0921 14.813 11.8527 14.813 11.6817C14.8127 11.5197 14.6449 11.4633 14.2944 11.459H14.0757C14.0067 11.4591 13.8999 11.4972 13.7378 11.5752C13.6429 11.6209 13.2567 11.8215 13.2319 11.834C13.0469 11.9279 12.8948 11.9986 12.7485 12.0567C12.4934 12.158 12.2737 12.2119 12.0825 12.2119C11.7682 12.2119 11.5216 12.1644 11.2612 12.0596C11.1363 12.0093 11.0098 11.9471 10.8296 11.8506C10.8296 11.8506 10.4379 11.638 10.3032 11.5674Z" fill="#666666"/>
<path d="M9.77107 11.8558L9.7207 11.8062C9.83434 11.6839 9.98489 11.6531 10.1662 11.713C10.2367 11.7363 10.6961 12.0019 10.8188 12.0642C11.2673 12.2918 11.6941 12.4189 12.1475 12.4189C12.7993 12.4189 13.4289 12.2132 14.0346 11.8029C14.2635 11.6173 14.4067 11.6173 14.4067 11.831H14.337C14.337 11.7035 14.2697 11.7035 14.0753 11.861C13.4561 12.2806 12.8133 12.4907 12.1475 12.4907C11.6819 12.4907 11.2452 12.3606 10.788 12.1285C10.6594 12.0632 10.2075 11.802 10.1449 11.7813C9.98777 11.7294 9.86521 11.7545 9.77107 11.8558Z" fill="#565757"/>
<path fill-rule="evenodd" clip-rule="evenodd" d="M12.3678 5.20703C12.3713 5.80113 12.2332 6.19007 11.944 6.37012C11.9151 6.38808 11.8766 6.40825 11.8375 6.43066C11.8578 6.49928 11.8678 6.54856 11.8678 6.59961V6.63867C11.9295 6.76477 11.9664 6.9305 11.9791 7.13574C12.0191 7.08633 12.0638 7.04333 12.1158 7.00977C12.3227 6.8763 12.4386 6.75405 12.4664 6.64746L12.5983 6.67676C12.561 6.81917 12.4253 6.96307 12.194 7.1123C12.0988 7.17368 12.0267 7.27325 11.9791 7.41211C11.9742 7.57387 11.9619 7.75367 11.9352 7.95117L11.9108 7.94824C11.9109 7.96136 11.9104 7.97488 11.9108 7.98828L11.775 7.99121C11.7747 7.97952 11.7752 7.96755 11.775 7.95605H11.7321V7.95215L11.7096 7.95898C11.7084 7.95572 11.7068 7.95247 11.7057 7.94922L11.6637 7.96387C11.5839 7.7583 11.5167 7.60418 11.4615 7.50293C11.4351 7.45442 11.4112 7.41859 11.3922 7.39648C11.3855 7.38864 11.3796 7.3829 11.3756 7.37988C11.3766 7.38006 11.3813 7.38184 11.3883 7.38184V7.25684C11.4307 7.25693 11.4722 7.28493 11.5172 7.34375C11.4594 7.12231 11.4293 6.94565 11.4293 6.8125C11.4293 6.60168 11.439 6.54095 11.5074 6.48242C11.4736 6.47304 11.4377 6.46781 11.399 6.46777C10.9269 6.46777 10.5856 6.33835 10.3834 6.07812L10.4938 6.00586C10.6676 6.22963 10.9673 6.34277 11.399 6.34277C11.4913 6.34283 11.5721 6.36113 11.6422 6.39648C11.6535 6.3901 11.6654 6.38371 11.6774 6.37695C11.6542 6.31231 11.6243 6.23005 11.5807 6.12305C11.5746 6.10816 11.5741 6.10769 11.568 6.09277C11.3916 5.65863 11.357 5.47917 11.5201 5.38281L11.5934 5.4873C11.5194 5.53101 11.5518 5.69509 11.6959 6.0498C11.7018 6.06424 11.7017 6.06446 11.7076 6.0791C11.7456 6.17208 11.7716 6.24792 11.7946 6.30957C11.8221 6.29364 11.8479 6.27997 11.8678 6.26758C12.1106 6.11652 12.2353 5.76473 12.2321 5.20801L12.3678 5.20703ZM11.6158 6.55957C11.5706 6.59246 11.5651 6.61754 11.5651 6.8125C11.5651 6.98626 11.6211 7.24971 11.7321 7.60156V6.66895C11.7042 6.6194 11.6709 6.58002 11.6334 6.54883C11.6248 6.55387 11.6187 6.55756 11.6158 6.55957Z" fill="#984800"/>
<path fill-rule="evenodd" clip-rule="evenodd" d="M11.9044 7.16779C11.9469 6.98351 12.2477 6.89564 12.5762 6.9715C12.9047 7.04739 13.1363 7.25798 13.0938 7.4422C13.0513 7.62649 12.7505 7.71435 12.422 7.63849C12.0935 7.56263 11.8619 7.35203 11.9044 7.16779ZM10.9747 6.79279C11.3462 6.74727 11.6644 6.8489 11.6856 7.01935C11.7066 7.19001 11.4218 7.36529 11.0499 7.41095C10.6784 7.45649 10.3604 7.35572 10.3389 7.18537C10.318 7.01471 10.6028 6.83845 10.9747 6.79279ZM11.878 6.42853C11.9141 6.24287 12.3463 6.1699 12.8428 6.26642C13.3393 6.36296 13.7119 6.59251 13.6759 6.77814C13.6391 6.9634 13.208 7.03567 12.712 6.93927C12.2158 6.84282 11.8425 6.61412 11.878 6.42853ZM10.7852 5.73224C11.1969 5.73951 11.5283 5.89885 11.5255 6.08771C11.5222 6.27681 11.1846 6.42498 10.7725 6.41779C10.3608 6.4105 10.0293 6.25126 10.0323 6.06232C10.0356 5.87322 10.3731 5.72505 10.7852 5.73224ZM12.4512 4.77521C12.7473 4.8221 12.9676 4.98468 12.9434 5.13752C12.9386 5.16725 12.9226 5.19245 12.9014 5.21662C13.0478 5.17219 13.2516 5.18003 13.46 5.25177C13.8143 5.37374 14.0466 5.63092 13.9796 5.82599C13.9124 6.02104 13.5711 6.08071 13.2169 5.9588C13.1733 5.94381 13.1314 5.92673 13.0919 5.90802C12.9962 6.05613 12.7304 6.13563 12.4337 6.08869C12.0821 6.033 11.8233 5.82275 11.8555 5.61896C11.8878 5.41529 12.1985 5.29491 12.5499 5.35041C12.6007 5.35846 12.65 5.37054 12.6964 5.38459H12.6973C12.7067 5.35729 12.7219 5.3332 12.7413 5.31134C12.6381 5.34246 12.505 5.35135 12.3634 5.32892C12.2071 5.30414 12.0727 5.24623 11.9835 5.1756C11.9898 5.19413 11.9936 5.21285 11.9932 5.23224C11.9902 5.40409 11.715 5.53882 11.378 5.53302C11.0408 5.52714 10.7695 5.38267 10.7725 5.21076C10.7757 5.03891 11.0517 4.90409 11.3887 4.90998C11.5938 4.91358 11.7736 4.96959 11.8829 5.0506C11.8721 5.02295 11.8668 4.9954 11.8712 4.96759C11.8954 4.81475 12.1552 4.72832 12.4512 4.77521ZM10.0948 5.25568C10.3567 5.11055 10.6299 5.1021 10.7052 5.23712C10.7802 5.37247 10.6285 5.60059 10.3663 5.74591C10.1041 5.89123 9.83095 5.89883 9.75594 5.76349C9.68107 5.62814 9.8327 5.40096 10.0948 5.25568Z" fill="#247805"/>
<path fill-rule="evenodd" clip-rule="evenodd" d="M9.18388 8.20422C9.18388 8.20422 8.94922 10.4318 8.94922 10.7337C8.94922 11.0356 9.38107 10.7337 9.38107 10.7337C9.38107 10.7337 9.44449 9.66994 9.59156 9.27475C9.73864 8.87955 9.80805 9.31373 9.80805 9.54446C9.80805 9.77519 9.80805 10.8545 9.80805 10.8545C9.80805 10.8545 10.3455 10.9277 10.3455 10.7337C10.3455 10.5398 10.1219 8.20422 10.1219 8.20422H9.30899H9.18388Z" fill="white"/>
<path fill-rule="evenodd" clip-rule="evenodd" d="M10.1543 8.20129C10.1547 8.20585 10.1552 8.20602 10.1572 8.22766C10.1601 8.25733 10.1598 8.25751 10.1641 8.30188C10.1717 8.38218 10.1803 8.47234 10.1895 8.56946C10.2157 8.84697 10.2421 9.12759 10.2666 9.39368C10.2702 9.43313 10.2698 9.43321 10.2734 9.47278C10.3392 10.1909 10.3778 10.6496 10.3779 10.7335C10.3779 10.8921 10.1797 10.9372 9.80273 10.8859L9.77441 10.882V9.54407C9.77437 9.41534 9.75419 9.26211 9.72363 9.18665C9.69741 9.12209 9.68034 9.12871 9.62207 9.28528C9.5254 9.54518 9.45617 10.0293 9.41406 10.7355L9.41309 10.7501L9.40039 10.7589C9.09483 10.9725 8.91602 10.9724 8.91602 10.7335C8.91609 10.5301 8.99384 9.68745 9.15039 8.20129L9.1543 8.17297H10.1523L10.1543 8.20129ZM9.21387 8.23547C9.05968 9.70039 8.9825 10.5346 8.98242 10.7335C8.98242 10.8947 9.08753 10.8971 9.34863 10.7169C9.39116 10.0133 9.46191 9.52998 9.56055 9.26477C9.6352 9.06418 9.72872 9.02523 9.78516 9.16418C9.81923 9.24828 9.84077 9.40831 9.84082 9.54407V10.8273C10.161 10.8677 10.3125 10.8307 10.3125 10.7335C10.3124 10.6525 10.2733 10.1912 10.208 9.47864C10.2044 9.43905 10.2038 9.4381 10.2002 9.39856C10.1758 9.13277 10.1502 8.85251 10.124 8.57532C10.1149 8.47821 10.1063 8.38803 10.0986 8.30774C10.0945 8.26427 10.0944 8.263 10.0918 8.23547H9.21387Z" fill="#979797"/>
<path fill-rule="evenodd" clip-rule="evenodd" d="M8.40527 7.43744C8.40527 7.43744 8.58957 8.10084 8.67115 8.10084C8.75273 8.10084 9.24794 7.69376 9.24794 7.69376V8.2463H10.1706V8.00157L10.289 8.2463L10.4503 8.17085L10.7295 7.84187H10.4503C10.4503 7.84187 10.3692 7.31356 10.3692 7.23002C10.3692 7.14647 10.3725 6.98119 10.1706 6.92137C9.96871 6.86155 9.86967 6.75563 9.86967 6.75563C9.86967 6.75563 10.3044 6.13293 9.97337 6.13293C9.6423 6.13293 9.49243 6.21276 9.49243 6.21276C9.49243 6.21276 9.49243 6.58249 9.49243 6.66906C9.49243 6.75563 9.01748 6.65312 9.01748 6.92137C9.01748 7.18962 8.796 7.43744 8.796 7.43744L8.73963 7.25779L8.40527 7.43744Z" fill="#FF863B"/>
<path fill-rule="evenodd" clip-rule="evenodd" d="M9.80023 6.28672C9.98269 6.28672 10.1306 6.21404 10.1306 6.12438C10.1306 6.03472 9.98269 5.96204 9.80023 5.96204C9.61776 5.96204 9.46985 6.03472 9.46985 6.12438C9.46985 6.21404 9.61776 6.28672 9.80023 6.28672Z" fill="black"/>
<path d="M8.13544 7.69448L7.98633 7.57062C8.27362 7.25959 8.59328 7.03331 8.94499 6.89284C9.27803 6.75982 9.71328 6.54753 10.2499 6.25616L10.3484 6.41929C9.8054 6.71412 9.36353 6.92964 9.02193 7.06607C8.69899 7.19505 8.4036 7.40416 8.13544 7.69448Z" fill="#740000"/>
<path fill-rule="evenodd" clip-rule="evenodd" d="M10.2435 6.32439L10.3687 6.91253L10.9246 6.61846L10.4868 6.13184L10.2435 6.32439Z" fill="#F9FCFF" stroke="#6C6C6C" stroke-width="0.5"/>
<path fill-rule="evenodd" clip-rule="evenodd" d="M14.8947 8.47937C14.8947 8.47937 15.1275 10.8043 15.1275 11.1194C15.1275 11.4345 14.6991 11.1194 14.6991 11.1194C14.6991 11.1194 14.6362 10.0091 14.4904 9.59667C14.3445 9.18421 14.2756 9.63736 14.2756 9.87817C14.2756 10.119 14.2756 11.2455 14.2756 11.2455C14.2756 11.2455 13.7425 11.3219 13.7425 11.1194C13.7425 10.917 13.9643 8.47937 13.9643 8.47937H14.7706H14.8947Z" fill="white"/>
<path fill-rule="evenodd" clip-rule="evenodd" d="M13.9316 8.47644C13.9311 8.48121 13.9307 8.48209 13.9286 8.50476C13.9259 8.53531 13.926 8.53559 13.9218 8.58191C13.9142 8.66573 13.9055 8.75983 13.8964 8.86121C13.8704 9.15075 13.8445 9.44393 13.8203 9.72156C13.8167 9.76232 13.817 9.76255 13.8134 9.80359C13.7481 10.554 13.7099 11.0332 13.7099 11.12C13.71 11.2854 13.9064 11.3318 14.2802 11.2782L14.3085 11.2743V9.87878C14.3085 9.74429 14.328 9.58359 14.3583 9.50476C14.3843 9.43739 14.4011 9.44486 14.4589 9.60828C14.5548 9.87953 14.6242 10.3848 14.666 11.1219L14.6669 11.1376L14.6796 11.1464C14.9826 11.3692 15.16 11.3691 15.1601 11.12C15.1601 10.9083 15.0821 10.0284 14.9267 8.47644L14.9238 8.44714H13.9345L13.9316 8.47644ZM14.8652 8.51257C15.0182 10.0422 15.0947 10.9129 15.0947 11.12C15.0946 11.2881 14.9893 11.2905 14.7304 11.1024C14.6882 10.3678 14.6193 9.86258 14.5214 9.58582C14.4474 9.37671 14.3537 9.33636 14.2978 9.48132C14.2639 9.56914 14.2431 9.73687 14.2431 9.87878V11.2177C13.9256 11.2598 13.7754 11.2214 13.7753 11.12C13.7753 11.0363 13.814 10.5543 13.8788 9.80945C13.8824 9.76813 13.8821 9.76771 13.8857 9.72644C13.9099 9.44897 13.9359 9.15644 13.9619 8.86707L13.9941 8.51257H14.8652Z" fill="#979797"/>
<path fill-rule="evenodd" clip-rule="evenodd" d="M15.6833 7.63306C15.6833 7.63306 15.5005 8.32544 15.4196 8.32544C15.3386 8.32544 14.8474 7.90058 14.8474 7.90058V8.47726H13.9322V8.22184L13.8148 8.47726L13.6548 8.39851L13.3779 8.05516H13.6548C13.6548 8.05516 13.7352 7.50377 13.7352 7.41657C13.7352 7.32937 13.7319 7.15687 13.9322 7.09444C14.1325 7.032 14.2307 6.92145 14.2307 6.92145C14.2307 6.92145 13.7995 6.27155 14.1279 6.27155C14.4563 6.27155 14.6049 6.35486 14.6049 6.35486C14.6049 6.35486 14.6049 6.74074 14.6049 6.8311C14.6049 6.92145 15.076 6.81447 15.076 7.09444C15.076 7.3744 15.2957 7.63306 15.2957 7.63306L15.3516 7.44556L15.6833 7.63306Z" fill="#824028"/>
<path fill-rule="evenodd" clip-rule="evenodd" d="M14.2994 6.43177C14.1184 6.43177 13.9717 6.35591 13.9717 6.26233C13.9717 6.16875 14.1184 6.0929 14.2994 6.0929C14.4804 6.0929 14.6271 6.16875 14.6271 6.26233C14.6271 6.35591 14.4804 6.43177 14.2994 6.43177Z" fill="black"/>
<path d="M16.1441 7.75877L14.1396 6.714C14.1396 6.714 14.1025 6.36302 13.7153 6.25735C13.3282 6.15168 13.0194 5.98816 13.0194 5.98816L12.8432 6.25735C12.8432 6.25735 12.5292 6.17449 13.7153 6.714C14.9015 7.2535 13.6707 6.42157 14.0078 6.714L16.1441 7.75877Z" fill="#BA611F"/>
</g>
</g>
</svg>
