<svg width="24" height="18" viewBox="0 0 24 18" fill="none" xmlns="http://www.w3.org/2000/svg">
<mask id="mask0_395_50793" style="mask-type:luminance" maskUnits="userSpaceOnUse" x="0" y="0" width="24" height="18">
<rect width="24" height="18" fill="white"/>
</mask>
<g mask="url(#mask0_395_50793)">
<path fill-rule="evenodd" clip-rule="evenodd" d="M0 0H24V18H0V0Z" fill="#5EAA22"/>
<path fill-rule="evenodd" clip-rule="evenodd" d="M18 5.25L17.25 5.79904L17.3505 4.875L16.5 4.5L17.3505 4.125L17.25 3.20096L18 3.75L18.75 3.20096L18.6495 4.125L19.5 4.5L18.6495 4.875L18.75 5.79904L18 5.25Z" fill="#FECA00"/>
<path fill-rule="evenodd" clip-rule="evenodd" d="M17.222 10.259L16.472 10.808L16.5725 9.884L15.722 9.509L16.5725 9.134L16.472 8.20996L17.222 8.759L17.972 8.20996L17.8716 9.134L18.722 9.509L17.8716 9.884L17.972 10.808L17.222 10.259Z" fill="#FECA00"/>
<path fill-rule="evenodd" clip-rule="evenodd" d="M19.5 14.25L18.75 14.799L18.8505 13.875L18 13.5L18.8505 13.125L18.75 12.201L19.5 12.75L20.25 12.201L20.1495 13.125L21 13.5L20.1495 13.875L20.25 14.799L19.5 14.25Z" fill="#FECA00"/>
<path fill-rule="evenodd" clip-rule="evenodd" d="M20.25 7.125L19.875 7.39952L19.9252 6.9375L19.5 6.75L19.9252 6.5625L19.875 6.10048L20.25 6.375L20.625 6.10048L20.5748 6.5625L21 6.75L20.5748 6.9375L20.625 7.39952L20.25 7.125Z" fill="#FECA00"/>
<path fill-rule="evenodd" clip-rule="evenodd" d="M5.25 10.5C7.32107 10.5 9 8.82107 9 6.75C9 4.67893 7.32107 3 5.25 3C3.17893 3 1.5 4.67893 1.5 6.75C1.5 8.82107 3.17893 10.5 5.25 10.5Z" fill="#FECA00"/>
<path fill-rule="evenodd" clip-rule="evenodd" d="M12.5947 6.75C13.7936 6.75 14.7486 7.17017 15.1875 8.3125C14.8401 7.96852 14.3036 7.73179 13.5 7.76172C12.2576 7.76183 11.4494 8.72929 11.4492 9.55762C11.4492 10.386 12.2575 11.5126 13.5 11.5127C14.1238 11.5034 14.5835 11.3862 14.9199 11.207C14.4263 12.054 13.6447 12.4404 12.5947 12.4404C11.0236 12.4402 9.75 11.1659 9.75 9.59473C9.75025 8.02374 11.0237 6.75025 12.5947 6.75Z" fill="#FECA00"/>
<path d="M5.6869 6.52029C5.6869 6.52029 4.95367 9.20599 4.65091 9.46013C4.5169 9.51923 5.8649 9.46013 5.8649 9.46013C5.8649 9.46013 5.35958 9.23903 5.53758 8.94476C5.71558 8.65049 5.94812 6.75717 5.8649 6.11227C5.78169 5.46737 5.6869 6.52029 5.6869 6.52029Z" fill="#915E2B"/>
<path fill-rule="evenodd" clip-rule="evenodd" d="M5.8429 6.62002C5.8429 6.62002 6.62914 6.85613 6.62914 7.25791C6.62914 7.65969 7.28323 8.2244 7.28323 7.68961C7.28323 7.15481 7.16087 6.62002 6.89501 6.62002C6.62914 6.62002 7.02504 6.26047 7.2524 6.55906C7.47976 6.85764 8.27699 6.53098 8.11506 6.32144C7.95314 6.11189 7.37834 5.85077 7.28323 5.85077C7.18812 5.85077 7.93731 5.34036 7.28323 5.34036C6.62914 5.34036 7.00426 5.77634 6.561 5.31346C6.11773 4.85058 6.74971 5.53941 6.74971 4.7621C6.74971 3.98479 6.57039 3.66719 5.97832 4.10351C5.38624 4.53982 5.49976 4.26309 5.28903 4.09858C5.0783 3.93406 4.89336 4.70089 5.12527 4.85742C5.35718 5.01396 5.61426 5.40193 5.38235 5.40193C5.15044 5.40193 4.98671 5.17805 4.98671 5.01774C4.98671 4.85742 4.35568 4.57428 3.75675 4.57428C3.15782 4.57428 3.54534 5.01774 3.75675 5.01774C3.96816 5.01774 4.91492 5.34036 4.44154 5.34036C3.96816 5.34036 4.47811 5.10166 3.88143 5.10166C3.28474 5.10166 2.59114 4.82994 2.59114 5.34036C2.59114 5.85077 3.18735 6.07689 3.37361 5.85077C3.55986 5.62466 3.77519 5.24346 3.77519 5.62403C3.77519 6.0046 3.30062 5.84922 2.59114 6.08533C1.88166 6.32144 2.08525 6.9439 2.93162 6.79188C3.77798 6.63986 3.6864 6.64814 4.0262 6.41204C4.366 6.17593 4.78654 6.24176 4.44154 6.62002C4.09655 6.99828 3.75155 7.68961 4.09655 7.68961C4.44154 7.68961 4.66394 7.78368 4.66394 7.41822C4.66394 7.05277 4.86421 6.34128 4.86421 6.79188C4.86421 7.24248 5.12527 7.58213 5.35718 7.41822C5.58909 7.25432 5.30317 6.74146 5.56791 6.74146C5.83265 6.74146 5.8429 6.62002 5.8429 6.62002Z" fill="#5EAA22"/>
</g>
</svg>
