<svg width="24" height="18" viewBox="0 0 24 18" fill="none" xmlns="http://www.w3.org/2000/svg">
<mask id="mask0_395_50755" style="mask-type:luminance" maskUnits="userSpaceOnUse" x="0" y="0" width="24" height="18">
<rect width="24" height="18" fill="white"/>
</mask>
<g mask="url(#mask0_395_50755)">
<path fill-rule="evenodd" clip-rule="evenodd" d="M0 0H24V18H0V0Z" fill="#5EAA22"/>
<path fill-rule="evenodd" clip-rule="evenodd" d="M0 0L24 18H0V0Z" fill="#4141DB"/>
<path fill-rule="evenodd" clip-rule="evenodd" d="M4.5 6.75L3.75 7.29904L3.85048 6.375L3 6L3.85048 5.625L3.75 4.70096L4.5 5.25L5.25 4.70096L5.14952 5.625L6 6L5.14952 6.375L5.25 7.29904L4.5 6.75Z" fill="white"/>
<path fill-rule="evenodd" clip-rule="evenodd" d="M3 11.25L2.25 11.799L2.35048 10.875L1.5 10.5L2.35048 10.125L2.25 9.20096L3 9.75L3.75 9.20096L3.64952 10.125L4.5 10.5L3.64952 10.875L3.75 11.799L3 11.25Z" fill="white"/>
<path fill-rule="evenodd" clip-rule="evenodd" d="M6 15.75L5.25 16.299L5.35048 15.375L4.5 15L5.35048 14.625L5.25 13.701L6 14.25L6.75 13.701L6.64952 14.625L7.5 15L6.64952 15.375L6.75 16.299L6 15.75Z" fill="white"/>
<path fill-rule="evenodd" clip-rule="evenodd" d="M6.75 8.625L6.375 8.89952L6.42524 8.4375L6 8.25L6.42524 8.0625L6.375 7.60048L6.75 7.875L7.125 7.60048L7.07476 8.0625L7.5 8.25L7.07476 8.4375L7.125 8.89952L6.75 8.625Z" fill="white"/>
<path fill-rule="evenodd" clip-rule="evenodd" d="M16.1708 9.16795C15.8905 8.87547 18.4135 8.18824 18.675 7.30209C19.0216 6.53057 18.7901 5.90541 17.4805 5.35637C16.1708 4.80733 14.8473 3.74573 16.3692 3.74573C17.8912 3.74573 17.8912 3.96273 18.3001 4.60285C18.7089 5.24298 19.5926 5.3801 19.6114 4.60285C19.6114 3.2785 19.7364 3.10038 18.6673 1.94901C17.5982 0.797629 21.3481 2.42183 21.0382 4.39567C20.7283 6.36952 20.3551 5.7326 20.592 6.06395C20.8288 6.39529 22.2542 5.36674 22.0762 6.73685C21.5776 7.52483 20.5886 8.69727 16.1708 9.16795Z" fill="#FECA00"/>
<path fill-rule="evenodd" clip-rule="evenodd" d="M12 12.75C14.0711 12.75 15.75 11.0711 15.75 9C15.75 6.92893 14.0711 5.25 12 5.25C9.92893 5.25 8.25 6.92893 8.25 9C8.25 11.0711 9.92893 12.75 12 12.75Z" fill="#FECA00"/>
<path fill-rule="evenodd" clip-rule="evenodd" d="M9.71492 7.62199C10.1403 7.52715 10.7219 8.66617 11.7717 8.23897C12.8215 7.81177 13.0407 6.99616 13.5395 7.29467C14.0383 7.59317 14.1038 8.31189 13.7715 8.67312C13.4393 9.03435 12.8754 9.1198 12.8754 9.57637C12.8754 10.0329 12.7648 11.6611 12.5494 11.1892C11.9032 10.665 12.2974 9.82987 11.5015 9.57637C10.7055 9.32286 10.2221 9.33135 9.63495 9.43833C9.0478 9.5453 10.0294 9.14447 10.2376 8.76391C10.6614 8.35613 9.52042 7.75758 9.71492 7.62199Z" fill="#548650"/>
</g>
</svg>
