<svg width="24" height="18" viewBox="0 0 24 18" fill="none" xmlns="http://www.w3.org/2000/svg">
<mask id="mask0_395_52604" style="mask-type:luminance" maskUnits="userSpaceOnUse" x="0" y="0" width="24" height="18">
<rect width="24" height="18" fill="white"/>
</mask>
<g mask="url(#mask0_395_52604)">
<path fill-rule="evenodd" clip-rule="evenodd" d="M0 0V18H24V0H0Z" fill="#F7FCFF"/>
<mask id="mask1_395_52604" style="mask-type:luminance" maskUnits="userSpaceOnUse" x="0" y="0" width="24" height="18">
<path fill-rule="evenodd" clip-rule="evenodd" d="M0 0V18H24V0H0Z" fill="white"/>
</mask>
<g mask="url(#mask1_395_52604)">
<path fill-rule="evenodd" clip-rule="evenodd" d="M11.9609 13.543C11.9235 13.5559 11.8775 13.5837 11.8261 13.6192C12.0098 13.6912 12.226 13.7848 12.4345 13.9053L12.0995 14.1837C12.0961 14.1801 11.8676 13.9461 11.6484 13.7598C11.4276 13.9475 11.1982 14.1837 11.1982 14.1837L10.8642 13.9053C11.0723 13.7851 11.2873 13.6911 11.4706 13.6192C11.4196 13.584 11.3741 13.5558 11.3368 13.543V13.4522C11.3368 13.4522 11.4614 13.486 11.6484 13.5518C11.8359 13.4858 11.9609 13.4522 11.9609 13.4522V13.543ZM10.3398 13.2354C10.5207 13.2058 10.9521 13.4464 10.9521 13.4464C10.9431 13.4524 10.6334 13.6594 10.3036 13.7266C9.97338 13.7939 9.71183 13.4134 9.70501 13.4034C9.71717 13.3997 10.1613 13.2647 10.3398 13.2354ZM12.9579 13.2354C13.1362 13.2646 13.5797 13.3994 13.5927 13.4034C13.5856 13.4138 13.3241 13.7939 12.9941 13.7266C12.664 13.6593 12.354 13.4519 12.3456 13.4464C12.3456 13.4464 12.7771 13.2058 12.9579 13.2354ZM9.36224 13.3956C9.41565 13.4178 9.47032 13.5344 9.47161 13.5372C9.46681 13.537 9.3375 13.5312 9.23626 13.4932C9.13593 13.4551 9.15619 13.3355 9.15716 13.3301C9.15716 13.3301 9.30812 13.3731 9.36224 13.3956ZM14.1406 13.3301C14.1415 13.3354 14.1619 13.4551 14.0615 13.4932C13.9599 13.5314 13.8302 13.537 13.8261 13.5372C13.8272 13.5349 13.882 13.4178 13.9355 13.3956C13.9896 13.3731 14.1406 13.3301 14.1406 13.3301ZM10.0917 12.5255C10.0978 12.5279 10.5332 12.7048 10.6913 12.795C10.8505 12.8863 11.0341 13.3438 11.0341 13.3438C11.0293 13.3434 10.6545 13.31 10.3534 13.1534C10.0507 12.9956 10.0917 12.5255 10.0917 12.5255ZM13.206 12.5255C13.206 12.5255 13.2471 12.9957 12.9443 13.1534C12.642 13.3106 12.2655 13.3436 12.2636 13.3438C12.2636 13.3438 12.4481 12.8858 12.6074 12.795C12.7655 12.7049 13.1985 12.5285 13.206 12.5255ZM9.15618 12.8292C9.16789 12.8293 9.58145 12.8325 9.74017 12.8546C9.90093 12.877 10.1874 13.1876 10.1874 13.1876C10.1874 13.1876 9.85722 13.2815 9.5556 13.251C9.25968 13.2208 9.15964 12.8426 9.15618 12.8292ZM14.1415 12.8292C14.138 12.8427 14.038 13.2209 13.7421 13.251C13.4405 13.2815 13.1103 13.1876 13.1103 13.1876C13.1103 13.1876 13.3968 12.877 13.5576 12.8546C13.7161 12.8325 14.1289 12.8293 14.1415 12.8292ZM8.46478 12.8165C8.62707 12.8135 8.95794 13.0753 8.95794 13.0753C8.94619 13.0807 8.64143 13.2196 8.34466 13.2364C8.04546 13.2531 7.88716 12.8899 7.88372 12.8819C7.88998 12.881 8.30354 12.8195 8.46478 12.8165ZM14.8329 12.8165C14.993 12.8195 15.4026 12.8802 15.414 12.8819C15.4098 12.8915 15.2516 13.2533 14.9531 13.2364C14.6549 13.2195 14.3489 13.0795 14.3398 13.0753C14.3398 13.0753 14.6707 12.8135 14.8329 12.8165ZM7.84075 12.6085C7.89475 12.6311 7.95013 12.7501 7.95013 12.7501C7.95013 12.7501 7.81795 12.7449 7.71478 12.7061C7.61438 12.6682 7.63462 12.5489 7.63568 12.543C7.6371 12.5434 7.78695 12.5861 7.84075 12.6085ZM9.7431 12.6085C9.79705 12.6313 9.85247 12.7501 9.85247 12.7501C9.85247 12.7501 9.72029 12.7449 9.61712 12.7061C9.51638 12.6682 9.53703 12.5485 9.53802 12.543C9.54363 12.5446 9.69008 12.5864 9.7431 12.6085ZM13.7597 12.543C13.7607 12.5484 13.7814 12.6682 13.6806 12.7061C13.5774 12.7449 13.4452 12.7501 13.4452 12.7501C13.4452 12.7501 13.5007 12.6313 13.5546 12.6085C13.6075 12.5865 13.7535 12.5448 13.7597 12.543ZM15.662 12.543C15.6631 12.5488 15.6834 12.6682 15.5829 12.7061C15.4798 12.7449 15.3476 12.7501 15.3476 12.7501C15.3476 12.7501 15.403 12.6312 15.457 12.6085C15.5105 12.5862 15.659 12.5439 15.662 12.543ZM7.82708 12.1719C7.84089 12.1745 8.24527 12.2498 8.39739 12.2989C8.55183 12.3489 8.78021 12.7042 8.78021 12.7042C8.78021 12.7042 8.43915 12.7396 8.14739 12.6573C7.85752 12.5755 7.82746 12.177 7.82708 12.1719ZM15.4716 12.1719C15.4716 12.1719 15.4421 12.575 15.1503 12.6573C14.8646 12.7379 14.5321 12.7055 14.5185 12.7042C14.5261 12.6924 14.7485 12.348 14.9003 12.2989C15.055 12.2489 15.4716 12.1719 15.4716 12.1719ZM8.53997 11.92C8.53997 11.92 8.93503 12.0748 9.07708 12.1534C9.21828 12.232 9.37233 12.62 9.37396 12.6241C9.3616 12.6229 9.02824 12.591 8.76263 12.4571C8.49757 12.3234 8.53815 11.936 8.53997 11.92ZM14.7577 11.92C14.7595 11.9357 14.8003 12.3234 14.5351 12.4571C14.268 12.5917 13.9326 12.6233 13.9238 12.6241C13.9238 12.6241 14.0796 12.2319 14.2216 12.1534C14.3629 12.0754 14.7523 11.9221 14.7577 11.92ZM7.08001 12.0098C7.24817 12.0056 7.68515 12.2764 7.69622 12.2833C7.6901 12.2867 7.41806 12.4398 7.10833 12.46C6.79492 12.4804 6.49017 12.084 6.49017 12.084C6.49017 12.084 6.90955 12.0142 7.08001 12.0098ZM16.2177 12.0098C16.3881 12.0142 16.8076 12.084 16.8076 12.084C16.8076 12.084 16.5028 12.4804 16.1894 12.46C15.8791 12.4398 15.6066 12.2862 15.6015 12.2833C15.6118 12.2769 16.0494 12.0056 16.2177 12.0098ZM8.29681 11.9639C8.34972 11.9859 8.4039 12.1007 8.40618 12.1055C8.39787 12.1052 8.27153 12.099 8.17181 12.0616C8.07002 12.0234 8.0921 11.9018 8.09271 11.8985C8.10108 11.9009 8.24408 11.9421 8.29681 11.9639ZM15.206 11.8985C15.207 11.9042 15.2266 12.0238 15.1259 12.0616C15.0254 12.0992 14.898 12.1053 14.8915 12.1055C14.8933 12.1018 14.9477 11.986 15.0009 11.9639C15.0551 11.9414 15.206 11.8985 15.206 11.8985ZM5.59466 11.1378C5.59466 11.1378 5.96734 11.1363 6.11517 11.1563C6.23148 11.1722 6.46623 11.3644 6.56048 11.4444C6.54307 11.3031 6.57981 11.1757 6.58099 11.1719C6.58099 11.1719 6.98389 11.3866 7.12493 11.4864C7.26424 11.585 7.36466 11.9882 7.36712 11.9981C7.3543 11.9952 6.99654 11.9113 6.7304 11.7374C6.63129 11.6725 6.58548 11.5794 6.56634 11.4874C6.48618 11.512 6.27921 11.5685 6.06536 11.5479C5.79215 11.5213 5.59466 11.1378 5.59466 11.1378ZM17.7031 11.1378C17.7031 11.1378 17.5056 11.5213 17.2324 11.5479C17.0177 11.5685 16.8099 11.5119 16.7304 11.4874C16.7112 11.5794 16.6664 11.6726 16.5673 11.7374C16.2998 11.9122 15.94 11.996 15.9306 11.9981C15.9328 11.9894 16.0333 11.5853 16.1728 11.4864C16.3138 11.3866 16.7167 11.1719 16.7167 11.1719C16.7175 11.1744 16.7547 11.3024 16.7372 11.4444C16.8315 11.3645 17.0662 11.1722 17.1826 11.1563C17.3303 11.1363 17.7031 11.1378 17.7031 11.1378ZM6.5556 11.754C6.64639 11.7498 6.87884 11.8917 6.87884 11.8917C6.87884 11.8917 6.73009 11.9789 6.56341 11.9942C6.39985 12.009 6.24667 11.8091 6.24114 11.8018C6.24867 11.8004 6.46668 11.7586 6.5556 11.754ZM17.0566 11.8018C17.0508 11.8094 16.8977 12.009 16.7343 11.9942C16.5676 11.9789 16.4189 11.8917 16.4189 11.8917C16.4189 11.8917 16.6513 11.7498 16.7421 11.754C16.8309 11.7586 17.0483 11.8002 17.0566 11.8018ZM7.23724 10.9893C7.23724 10.9893 7.52999 11.2169 7.63763 11.3272C7.7434 11.4357 7.88501 11.9237 7.88958 11.9395C7.87956 11.9367 7.64075 11.8684 7.44134 11.6788C7.23884 11.4861 7.23725 10.9948 7.23724 10.9893ZM16.0605 10.9893C16.0605 10.9948 16.0589 11.4861 15.8564 11.6788C15.6567 11.8686 15.4176 11.9369 15.4081 11.9395C15.4126 11.9239 15.5543 11.4357 15.6601 11.3272C15.7674 11.2173 16.0586 10.9908 16.0605 10.9893ZM5.52337 10.0274C5.53394 10.0334 6.00172 10.2996 6.16693 10.4239C6.33299 10.5488 6.45257 11.0621 6.45404 11.0684C6.43884 11.0647 6.01538 10.9593 5.70013 10.7403C5.37905 10.5171 5.52337 10.0274 5.52337 10.0274ZM17.7743 10.0274C17.7743 10.0274 17.9187 10.5171 17.5976 10.7403C17.2821 10.9595 16.8582 11.0649 16.8437 11.0684C16.845 11.0626 16.9647 10.5489 17.1308 10.4239C17.2958 10.2997 17.763 10.0339 17.7743 10.0274ZM6.80462 10.6915C6.82495 10.7798 6.72454 11.0342 6.72454 11.0342C6.72454 11.0342 6.61324 10.9028 6.56927 10.7413C6.52654 10.5833 6.69489 10.3985 6.70208 10.3907C6.70386 10.3953 6.7845 10.6041 6.80462 10.6915ZM16.5956 10.3907C16.6025 10.3982 16.7712 10.5831 16.7284 10.7413C16.6845 10.9028 16.5732 11.0342 16.5732 11.0342C16.5732 11.0342 16.4737 10.7798 16.4941 10.6915C16.5143 10.6041 16.5937 10.3957 16.5956 10.3907Z" fill="#006B49"/>
<path fill-rule="evenodd" clip-rule="evenodd" d="M20.8545 2.26276C20.8545 2.26276 21.1141 2.5964 20.8545 2.5964C20.5949 2.5964 19.9347 2.9574 19.9347 2.9574C19.9347 2.9574 19.6207 3.42609 19.2403 3.53213C18.86 3.63816 18.7317 4.03194 18.175 4.19606C17.6182 4.36018 17.5613 4.40499 17.5613 4.57109C17.5613 4.73719 17.6562 5.0185 17.276 5.0185C16.8958 5.0185 16.6272 4.48619 16.4214 5.0185C16.2157 5.55081 16.0073 5.70685 16.2922 6.03249C16.5772 6.35813 16.9548 6.66995 17.1154 6.85801C17.276 7.04607 18.3474 7.59644 17.5613 7.59644C16.7752 7.59644 17.1704 7.09827 16.5652 7.28024C15.96 7.46222 16.3075 7.73066 15.845 7.59644C15.3824 7.46222 15.0741 7.33976 14.9306 7.40099C14.7871 7.46222 14.5565 7.06078 14.5565 7.59644C14.5565 8.1321 14.9881 7.91496 14.0627 8.50665C13.1372 9.09834 13.321 8.93484 12.8962 8.93484C12.4714 8.93484 12.3222 9.20267 12.0389 9.20267C11.7557 9.20267 11.7902 9.20267 11.4712 9.20267C11.1522 9.20267 11.494 8.86383 10.95 9.20267C10.406 9.54151 10.2111 9.60896 10.2111 9.73915C10.2111 9.86934 10.2111 10.2145 10.2111 10.2145C10.2111 10.2145 9.71269 10.4997 9.71269 10.2145C9.71269 9.9294 9.55907 9.85641 9.35241 9.73915C9.14575 9.62189 8.73281 9.70631 8.2918 9.73915C7.85079 9.77199 7.35221 9.29434 6.96937 9.29434C6.58653 9.29434 6.51531 8.93484 6.41058 8.93484C6.30586 8.93484 6.51984 8.6276 6.07407 8.35191C5.62831 8.07621 5.47228 8.04193 5.47228 7.59644C5.47228 7.15095 5.26758 7.02911 5.26758 6.7584C5.26758 6.4877 5.48571 6.85801 5.94815 6.85801C6.41058 6.85801 6.44091 6.57153 6.96937 6.30201C7.49783 6.03249 7.67718 5.885 8.11781 6.03249C8.55844 6.17999 8.99214 6.7296 9.35241 6.20208C9.71269 5.67456 9.71269 5.07131 9.71269 4.76675C9.71269 4.46218 9.49962 4.37543 10.0748 4.57109C10.6499 4.76675 10.9846 4.76675 11.9404 4.76675C12.8962 4.76675 14.039 5.07932 14.3912 4.76675C14.7435 4.45417 15.12 4.19606 16.0337 4.19606C16.9475 4.19606 17.2461 3.74694 17.8606 3.53213C18.475 3.31732 17.5689 3.77143 18.9472 3.18391C20.3255 2.5964 20.8545 2.26276 20.8545 2.26276Z" fill="#F57A01"/>
</g>
</g>
</svg>
