<svg width="24" height="18" viewBox="0 0 24 18" fill="none" xmlns="http://www.w3.org/2000/svg">
<mask id="mask0_395_53765" style="mask-type:luminance" maskUnits="userSpaceOnUse" x="0" y="0" width="24" height="18">
<rect width="24" height="18" fill="white"/>
</mask>
<g mask="url(#mask0_395_53765)">
<path fill-rule="evenodd" clip-rule="evenodd" d="M0 0V18H24V0H0Z" fill="#C51918"/>
<mask id="mask1_395_53765" style="mask-type:luminance" maskUnits="userSpaceOnUse" x="0" y="0" width="24" height="18">
<path fill-rule="evenodd" clip-rule="evenodd" d="M0 0V18H24V0H0Z" fill="white"/>
</mask>
<g mask="url(#mask1_395_53765)">
<rect width="10.5" height="7.5" fill="#4257BF"/>
<rect x="13.5" y="10.5" width="10.5" height="7.5" fill="#4257BF"/>
<path fill-rule="evenodd" clip-rule="evenodd" d="M9.75 0H14.25V6.75H24V11.25H14.25V18H9.75V11.25H0V6.75H9.75V0Z" fill="#F7FCFF"/>
<path fill-rule="evenodd" clip-rule="evenodd" d="M10.4014 7.89551C10.4288 7.85782 10.4558 7.81712 10.4863 7.77637L10.5703 7.84863C10.4972 7.94627 10.4346 8.03586 10.3799 8.11523C10.473 8.08705 10.563 8.06088 10.5703 8.05859C10.4761 8.19694 10.3678 8.26472 10.2529 8.30664C10.217 8.36583 10.1892 8.41661 10.1699 8.45898C10.1546 8.49255 10.141 8.52625 10.1279 8.55957C10.233 8.49551 10.3682 8.41211 10.3682 8.41211C10.3006 8.60566 10.1858 8.70351 10.0566 8.77832C10.0461 8.81962 10.0365 8.86054 10.0293 8.90137C10.1345 8.83726 10.2705 8.75391 10.2705 8.75391C10.212 8.92177 10.1168 9.01637 10.0088 9.08789C10.0065 9.13054 10.0065 9.17282 10.0078 9.21484C10.1003 9.13409 10.231 9.01564 10.2363 9.01074C10.2065 9.19459 10.1247 9.30712 10.0244 9.39844C10.0324 9.44908 10.0425 9.49929 10.0557 9.54883C10.0593 9.56263 10.0636 9.5762 10.0674 9.58984C10.127 9.48113 10.2056 9.33386 10.2061 9.33301C10.2429 9.52678 10.1976 9.66551 10.1279 9.79102C10.1366 9.81752 10.1463 9.84336 10.1553 9.86914C10.187 9.77254 10.2188 9.67969 10.2188 9.67969C10.2789 9.83836 10.2709 9.96744 10.2383 10.0869C10.274 10.1715 10.3124 10.2504 10.3516 10.3242C10.3485 10.2072 10.344 10.069 10.3438 10.0635C10.479 10.2203 10.5072 10.3697 10.5068 10.5205L10.4473 10.4873C10.5131 10.5898 10.5821 10.6767 10.6533 10.7471C10.6502 10.6327 10.6467 10.5028 10.6465 10.4971C10.7556 10.6236 10.7928 10.7456 10.8037 10.8672C10.8198 10.8773 10.8344 10.8892 10.8506 10.8975C10.9019 10.9236 10.9614 10.9482 11.0303 10.9727C11.0498 10.8545 11.0788 10.6414 11.0801 10.6318C11.164 10.773 11.1802 10.8978 11.1709 11.0176C11.1847 11.0217 11.1985 11.0271 11.2129 11.0312C11.2648 11.0463 11.3181 11.0607 11.3877 11.0791C11.4136 11.0859 11.5261 11.1153 11.5547 11.123C11.6786 11.1567 11.7482 11.1804 11.791 11.2061C11.8091 11.217 11.8239 11.2293 11.834 11.2441L11.7461 11.3115C11.7452 11.311 11.7425 11.3092 11.7383 11.3066C11.7071 11.2879 11.6422 11.2663 11.5283 11.2354C11.5016 11.2281 11.3962 11.1995 11.3652 11.1914C11.2934 11.1724 11.2381 11.1581 11.1846 11.1426C11.1819 11.1418 11.1794 11.1404 11.1768 11.1396C11.0632 11.1772 10.9379 11.1907 10.7812 11.1436C10.7812 11.1436 10.8693 11.1061 10.9619 11.0684C10.9032 11.0463 10.8505 11.0249 10.8037 11.001C10.8006 10.9994 10.798 10.9967 10.7949 10.9951C10.6793 11.0348 10.5519 11.0503 10.3916 11.002C10.3916 11.002 10.5371 10.9427 10.6504 10.8955C10.5524 10.814 10.4588 10.7053 10.3711 10.5723C10.2375 10.5301 10.1123 10.4608 10.0068 10.2998C10.0074 10.3 10.1421 10.343 10.2559 10.3789C10.2258 10.3223 10.1969 10.2626 10.1689 10.2002C10.0313 10.1584 9.90227 10.09 9.79395 9.9248C9.80276 9.92775 9.97685 9.98467 10.0938 10.0205C10.0674 9.95186 10.0423 9.88054 10.0186 9.80664C9.91052 9.74327 9.81386 9.65572 9.74609 9.49805C9.75145 9.50095 9.86084 9.55748 9.95996 9.60938C9.95729 9.59957 9.9538 9.58996 9.95117 9.58008C9.93589 9.52259 9.92575 9.4641 9.91699 9.40527C9.82896 9.30495 9.76033 9.18593 9.75 9.00293C9.75 9.00293 9.8255 9.08476 9.89844 9.16504C9.89855 9.13777 9.90084 9.1105 9.90234 9.08301C9.83218 8.9868 9.80274 8.87422 9.79297 8.70117C9.79665 8.70533 9.86266 8.77662 9.92969 8.85059C9.9404 8.79561 9.95342 8.74019 9.96973 8.68457C9.88072 8.57762 9.83004 8.42977 9.81934 8.24023C9.82462 8.24633 9.9589 8.40004 10.04 8.48633C10.0507 8.46042 10.0614 8.43421 10.0732 8.4082C10.0738 8.40689 10.0746 8.40563 10.0752 8.4043C9.99031 8.29085 10.0316 8.08264 10.0205 7.88672C10.0205 7.88672 10.117 8.08659 10.1934 8.19434C10.2177 8.15597 10.2465 8.11609 10.2764 8.07227C10.2474 7.93131 10.2676 7.77397 10.3389 7.60059C10.3389 7.60059 10.373 7.76387 10.4014 7.89551Z" fill="#5AB92D"/>
<path fill-rule="evenodd" clip-rule="evenodd" d="M13.4326 7.89453C13.4054 7.85707 13.378 7.81684 13.3477 7.77637L13.2627 7.84863C13.3358 7.94624 13.3984 8.03592 13.4531 8.11523C13.3603 8.08714 13.2709 8.06088 13.2637 8.05859C13.3577 8.19659 13.4655 8.26469 13.5801 8.30664C13.616 8.36583 13.6438 8.41658 13.6631 8.45898C13.6782 8.49223 13.6921 8.52559 13.7051 8.55859C13.6002 8.49462 13.4658 8.41211 13.4658 8.41211C13.5332 8.60529 13.6475 8.70356 13.7764 8.77832C13.787 8.81968 13.7974 8.86048 13.8047 8.90137C13.6995 8.83726 13.5635 8.75391 13.5635 8.75391C13.622 8.92177 13.7172 9.01637 13.8252 9.08789C13.8276 9.13054 13.8274 9.17282 13.8262 9.21484C13.7337 9.13409 13.603 9.01564 13.5977 9.01074C13.6275 9.19459 13.7093 9.30712 13.8096 9.39844C13.8016 9.44907 13.7915 9.49929 13.7783 9.54883C13.7746 9.56263 13.7704 9.5762 13.7666 9.58984C13.707 9.48113 13.6284 9.33386 13.6279 9.33301C13.591 9.52738 13.637 9.66619 13.707 9.79199C13.6983 9.81859 13.6878 9.84425 13.6787 9.87012C13.6469 9.7732 13.6152 9.67969 13.6152 9.67969C13.5551 9.83836 13.5631 9.96744 13.5957 10.0869C13.56 10.1715 13.5216 10.2504 13.4824 10.3242C13.4855 10.2072 13.49 10.069 13.4902 10.0635C13.355 10.2203 13.3268 10.3697 13.3271 10.5205L13.3877 10.4863C13.3216 10.5893 13.2522 10.6764 13.1807 10.7471C13.1838 10.6327 13.1873 10.5028 13.1875 10.4971C13.0784 10.6236 13.0412 10.7456 13.0303 10.8672C13.0142 10.8772 12.9995 10.8892 12.9834 10.8975C12.9323 10.9236 12.8725 10.9473 12.8037 10.9717C12.7842 10.8534 12.7552 10.6414 12.7539 10.6318C12.6702 10.7726 12.6539 10.8972 12.6631 11.0166C12.649 11.0208 12.6348 11.027 12.6201 11.0312C12.5684 11.0463 12.5148 11.0607 12.4453 11.0791C12.4177 11.0864 12.3061 11.1155 12.2783 11.123C12.1545 11.1567 12.0847 11.1804 12.042 11.2061C12.0241 11.2169 12.01 11.2294 12 11.2441L12.0869 11.3115C12.087 11.3117 12.09 11.3095 12.0947 11.3066C12.1259 11.2879 12.1918 11.2663 12.3057 11.2354C12.3326 11.228 12.4378 11.1995 12.4688 11.1914C12.5405 11.1725 12.5959 11.1581 12.6494 11.1426C12.652 11.1418 12.6547 11.1404 12.6572 11.1396C12.7708 11.1772 12.8961 11.1907 13.0527 11.1436C13.0527 11.1436 12.9647 11.1061 12.8721 11.0684C12.9304 11.0463 12.9827 11.0247 13.0293 11.001C13.0327 10.9992 13.0357 10.9959 13.0391 10.9941C13.1548 11.0339 13.2819 11.0503 13.4424 11.002C13.4424 11.002 13.2969 10.9427 13.1836 10.8955C13.2814 10.814 13.3743 10.7051 13.4619 10.5723C13.5958 10.5301 13.7214 10.4611 13.8271 10.2998C13.8266 10.3 13.6911 10.343 13.5771 10.3789C13.6072 10.3223 13.6361 10.2626 13.6641 10.2002C13.802 10.1584 13.9315 10.0904 14.04 9.9248C14.0312 9.92776 13.8562 9.9847 13.7393 10.0205C13.7655 9.95213 13.7908 9.88121 13.8145 9.80762C13.923 9.74421 14.0199 9.65628 14.0879 9.49805C14.0825 9.50096 13.9725 9.55831 13.873 9.61035C13.8758 9.60025 13.8791 9.59026 13.8818 9.58008C13.8971 9.52256 13.9082 9.46413 13.917 9.40527C14.005 9.30495 14.0737 9.18593 14.084 9.00293C14.084 9.00293 14.0078 9.08542 13.9346 9.16602C13.9345 9.13875 13.9331 9.11147 13.9316 9.08398C14.0022 8.98765 14.0312 8.87461 14.041 8.70117C14.0373 8.70532 13.9721 8.77678 13.9053 8.85059C13.8946 8.79553 13.8805 8.74027 13.8643 8.68457C13.9533 8.57762 14.0039 8.42977 14.0146 8.24023C14.0094 8.24633 13.8751 8.40004 13.7939 8.48633C13.7833 8.46045 13.7726 8.43418 13.7607 8.4082C13.7601 8.40689 13.7594 8.40563 13.7588 8.4043C13.8437 8.29085 13.8024 8.08264 13.8135 7.88672C13.8135 7.88672 13.7169 8.08545 13.6406 8.19336C13.6164 8.15513 13.5883 8.11492 13.5586 8.07129C13.5872 7.93063 13.5662 7.7735 13.4951 7.60059C13.4951 7.60059 13.461 7.76306 13.4326 7.89453Z" fill="#5AB92D"/>
<path d="M9.93884 6.98712C10.2386 6.77636 10.7881 6.5944 11.0708 6.5944C11.0723 6.5944 11.0753 6.59373 11.0832 6.59044C11.1067 6.58072 11.2616 6.48481 11.2713 6.47926C11.4711 6.36488 11.6802 6.30469 11.965 6.30469V6.80469C11.7605 6.80469 11.6269 6.84316 11.4929 6.91984C11.5162 6.90649 11.3164 7.03028 11.2527 7.05661C11.1935 7.08113 11.1339 7.0944 11.0708 7.0944C10.8815 7.0944 10.4213 7.24677 10.1968 7.40458C10.1162 7.4613 10.1236 7.44399 10.1261 7.4778C10.1351 7.60075 10.1258 7.67591 10.0502 7.7719C10.0404 7.78439 10.0247 7.85317 10.0234 7.97376L9.55469 7.96786C9.55686 7.77098 9.58674 7.61564 9.65765 7.49888C9.64734 7.297 9.71829 7.14219 9.93884 6.98712Z" fill="#003994"/>
<path d="M10.1894 7.17387L10.1377 7.09048C10.3783 6.92066 10.6027 6.83498 10.8109 6.83498C10.8799 6.83498 10.9585 6.81664 11.05 6.78131C11.1113 6.75764 11.174 6.72839 11.2583 6.68554C11.5636 6.53032 11.5724 6.52637 11.653 6.52637H11.9294V6.62637H11.653C11.5947 6.62637 11.5758 6.63493 11.2986 6.77581C11.2118 6.81994 11.1466 6.85033 11.0819 6.87534C10.9811 6.91428 10.8923 6.93498 10.8109 6.93498C10.623 6.93498 10.4158 7.0141 10.1894 7.17387Z" fill="#EBCA5E"/>
<path d="M13.8741 6.98712C13.5743 6.77636 13.0248 6.5944 12.7421 6.5944C12.7406 6.5944 12.7376 6.59373 12.7296 6.59044C12.7062 6.58072 12.5513 6.48481 12.5416 6.47926C12.3418 6.36488 12.1327 6.30469 11.8479 6.30469V6.80469C12.0524 6.80469 12.186 6.84316 12.32 6.91984C12.2967 6.90649 12.4965 7.03028 12.5602 7.05661C12.6194 7.08113 12.679 7.0944 12.7421 7.0944C12.9314 7.0944 13.3916 7.24677 13.6161 7.40458C13.6967 7.4613 13.6893 7.44399 13.6868 7.4778C13.6778 7.60075 13.6871 7.67591 13.7627 7.7719C13.7725 7.78439 13.7882 7.85317 13.7895 7.97376L14.2582 7.96786C14.256 7.77098 14.2262 7.61564 14.1553 7.49888C14.1656 7.297 14.0946 7.14219 13.8741 6.98712Z" fill="#003994"/>
<path d="M13.5859 7.17387L13.6376 7.09048C13.397 6.92066 13.1726 6.83498 12.9644 6.83498C12.8954 6.83498 12.8168 6.81664 12.7253 6.78131C12.664 6.75764 12.6013 6.72839 12.517 6.68554C12.2117 6.53032 12.2029 6.52637 12.1223 6.52637H11.8459V6.62637H12.1223C12.1806 6.62637 12.1995 6.63493 12.4767 6.77581C12.5635 6.81994 12.6287 6.85033 12.6934 6.87534C12.7942 6.91428 12.883 6.93498 12.9644 6.93498C13.1523 6.93498 13.3595 7.0141 13.5859 7.17387Z" fill="#EBCA5E"/>
<path d="M10.3668 7.51477L10.6114 7.78073V8.8853H10.8583V8.95561L11.2197 9.12939C11.2197 9.12939 11.2743 8.39866 11.1043 8.20612C10.9344 8.01357 11.2197 7.96623 11.2197 7.96623L11.6536 8.40063V7.51477H10.3668Z" fill="#003994"/>
<path d="M13.3036 7.51477L13.059 7.78073V8.8853H12.8121V8.95561L12.4506 9.12939C12.4506 9.12939 12.396 8.39866 12.566 8.20612C12.736 8.01357 12.4506 7.96623 12.4506 7.96623L12.0168 8.40063V7.51477H13.3036Z" fill="#D62818"/>
<path d="M11.1577 7.94727L11.1208 7.99261L11.8421 8.65937L11.8809 8.65741L12.4774 7.99065L12.4368 7.94923L11.8587 8.5953L11.1577 7.94727Z" fill="#FFC300"/>
<path d="M11.0555 8.22772L11.0085 8.27307L11.9292 8.93982L11.9787 8.93786L12.7401 8.27111L12.6882 8.22968L11.9504 8.87576L11.0555 8.22772Z" fill="#FFC300"/>
<path d="M10.6328 9.31641H10.9495L11.1655 9.38238C11.1655 9.38238 11.235 9.87816 11.5821 9.87816L11.639 10.5129L11.37 10.3676C11.37 10.3676 11.1951 10.4448 11.1655 10.4448C11.1359 10.4448 10.8866 10.5846 10.8866 10.4448C10.8866 10.305 10.6328 10.0787 10.6328 10.0787V9.31641Z" fill="#D62818"/>
<path d="M13.1387 9.31641H12.822L12.606 9.38238C12.606 9.38238 12.5365 9.87816 12.1894 9.87816L12.1325 10.5129L12.4015 10.3676C12.4015 10.3676 12.5764 10.4448 12.606 10.4448C12.6356 10.4448 12.8849 10.5846 12.8849 10.4448C12.8849 10.305 13.1387 10.0787 13.1387 10.0787V9.31641Z" fill="#003994"/>
<path d="M12.4604 9.37695L12.8354 9.37711C12.8353 9.65761 12.7363 9.88494 12.5413 10.0388L12.3184 9.71712C12.4139 9.64174 12.4604 9.53513 12.4604 9.37695Z" fill="#D62818"/>
<path d="M11.4782 8.60529V9.13126H11.9142C11.9142 9.13126 11.8732 9.52567 11.8732 9.77446C11.8732 10.0233 11.9142 10.3461 11.9142 10.3461C11.9142 10.3461 12.0209 10.2929 12.0209 9.95639C12.0209 9.61991 12.0209 9.0948 12.0209 9.0948L12.3654 9.13126L12.329 8.65692H12.1837C12.1837 8.65692 12.4071 8.95252 12.1837 8.95252C11.9603 8.95252 11.7036 9.01025 11.6549 9.01025C11.6062 9.01025 11.4782 8.60529 11.4782 8.60529Z" fill="#D62818"/>
<path d="M11.8573 9.24121C11.8573 9.24121 11.6123 9.38547 11.6123 9.62017C11.6123 9.85487 11.7348 10.1225 11.7348 10.1225C11.7348 10.1225 11.6767 9.59392 11.767 9.45334C11.8573 9.31276 11.8573 9.24121 11.8573 9.24121Z" fill="#003994"/>
<path d="M11.4587 9.41504C11.4587 9.41504 11.4449 9.58488 11.5455 9.58488C11.6462 9.58488 11.4587 9.41504 11.4587 9.41504Z" fill="#003994"/>
<path d="M12.3208 8.95786L12.3593 9.0917L11.7184 9.30155L11.5747 8.70474L11.7018 8.66992L11.8113 9.12468L12.3208 8.95786Z" fill="#373737"/>
<path fill-rule="evenodd" clip-rule="evenodd" d="M9.95837 11.5618C10.1667 11.5936 10.3636 11.6204 10.3705 11.6213C10.3656 11.6264 10.3007 11.6897 10.1088 11.7463C9.90864 11.8054 9.63123 11.5618 9.63123 11.5618C9.63377 11.5611 9.74892 11.5299 9.95837 11.5618ZM11.851 11.135C11.6442 11.1352 10.8454 11.2446 10.7113 11.3206C10.6696 11.3443 10.6631 11.3432 10.684 11.3723C10.6903 11.3717 10.6947 11.3732 10.6967 11.3713L10.8304 11.512C10.7754 11.5711 10.6531 11.5802 10.5277 11.5559L10.4711 11.6047C10.4523 11.5796 10.4366 11.5538 10.4232 11.5286C10.3666 11.509 10.313 11.4834 10.2689 11.4524C10.2081 11.4096 10.1452 11.4096 10.0658 11.4563L9.97498 11.2815C10.1132 11.2 10.2508 11.1999 10.3724 11.2854C10.3736 11.2862 10.3751 11.2865 10.3763 11.2874C10.3935 11.1889 10.4586 11.1016 10.5697 11.0383C10.7608 10.9295 11.5964 10.8148 11.851 10.8147V11.135Z" fill="#D62818"/>
<path fill-rule="evenodd" clip-rule="evenodd" d="M10.7494 11.1595C10.8188 11.1447 10.8909 11.1313 10.9643 11.1185C10.8726 11.1345 10.7837 11.1523 10.6996 11.1712C10.51 11.2138 10.4835 11.2581 10.5824 11.3372L10.5492 11.3851C10.3999 11.2656 10.4592 11.1629 10.6879 11.1116C10.7046 11.1079 10.7216 11.1045 10.7387 11.1009L10.7494 11.1595ZM10.9975 11.1126C11.0863 11.0976 11.1771 11.085 11.268 11.0735C11.1769 11.085 11.086 11.0976 10.9975 11.1126ZM11.31 11.0677C11.3816 11.0591 11.4533 11.0531 11.5239 11.0472C11.4532 11.0531 11.3815 11.0591 11.31 11.0677ZM11.017 11.0491C11.0423 11.045 11.0677 11.0413 11.0932 11.0374C11.0677 11.0413 11.0422 11.045 11.017 11.0491ZM11.3256 11.0052C11.3448 11.003 11.3641 11.0014 11.3832 10.9993C11.3641 11.0014 11.3448 11.003 11.3256 11.0052Z" fill="#EBCA5E"/>
<path fill-rule="evenodd" clip-rule="evenodd" d="M13.6671 11.5618C13.4587 11.5936 13.2618 11.6204 13.2549 11.6213C13.2599 11.6264 13.3248 11.6897 13.5167 11.7463C13.7168 11.8054 13.9942 11.5618 13.9942 11.5618C13.9917 11.5611 13.8765 11.5299 13.6671 11.5618ZM11.7745 11.135C11.9812 11.1352 12.78 11.2446 12.9141 11.3206C12.9558 11.3443 12.9624 11.3432 12.9415 11.3723C12.9352 11.3717 12.9307 11.3732 12.9288 11.3713L12.795 11.512C12.8501 11.5711 12.9723 11.5802 13.0977 11.5559L13.1544 11.6047C13.1731 11.5796 13.1888 11.5538 13.2022 11.5286C13.2588 11.509 13.3125 11.4834 13.3565 11.4524C13.4173 11.4096 13.4803 11.4096 13.5596 11.4563L13.6505 11.2815C13.5122 11.2 13.3746 11.1999 13.253 11.2854C13.2518 11.2862 13.2503 11.2865 13.2491 11.2874C13.232 11.1889 13.1668 11.1016 13.0557 11.0383C12.8646 10.9295 12.0291 10.8148 11.7745 10.8147V11.135Z" fill="#D62818"/>
<path fill-rule="evenodd" clip-rule="evenodd" d="M12.876 11.1595C12.8066 11.1447 12.7346 11.1313 12.6611 11.1185C12.7528 11.1345 12.8417 11.1523 12.9258 11.1712C13.1154 11.2138 13.1419 11.2581 13.043 11.3372L13.0762 11.3851C13.2256 11.2656 13.1662 11.1629 12.9375 11.1116C12.9208 11.1079 12.9038 11.1045 12.8867 11.1009L12.876 11.1595ZM12.6279 11.1126C12.5391 11.0976 12.4483 11.085 12.3574 11.0735C12.4485 11.085 12.5394 11.0976 12.6279 11.1126ZM12.3154 11.0677C12.2438 11.0591 12.1721 11.0531 12.1016 11.0472C12.1722 11.0531 12.2439 11.0591 12.3154 11.0677ZM12.6084 11.0491C12.5832 11.045 12.5577 11.0413 12.5322 11.0374C12.5577 11.0413 12.5832 11.045 12.6084 11.0491ZM12.2998 11.0052C12.2806 11.003 12.2614 11.0014 12.2422 10.9993C12.2614 11.0014 12.2806 11.003 12.2998 11.0052Z" fill="#EBCA5E"/>
<path d="M11.5244 11.6332L11.3786 11.3766C11.5114 11.2908 11.6818 11.2499 11.8887 11.2499C12.0966 11.2499 12.2651 11.2912 12.3932 11.3786L12.2416 11.6313C12.1645 11.5786 12.0472 11.5499 11.8887 11.5499C11.7293 11.5499 11.6083 11.579 11.5244 11.6332Z" fill="#D62818"/>
</g>
</g>
</svg>
