<svg width="24" height="18" viewBox="0 0 24 18" fill="none" xmlns="http://www.w3.org/2000/svg">
<mask id="mask0_395_54251" style="mask-type:luminance" maskUnits="userSpaceOnUse" x="0" y="0" width="24" height="18">
<rect width="24" height="18" fill="white"/>
</mask>
<g mask="url(#mask0_395_54251)">
<path fill-rule="evenodd" clip-rule="evenodd" d="M0 0V18H24V0H0Z" fill="#2E42A5"/>
<mask id="mask1_395_54251" style="mask-type:luminance" maskUnits="userSpaceOnUse" x="0" y="0" width="24" height="18">
<path fill-rule="evenodd" clip-rule="evenodd" d="M0 0V18H24V0H0Z" fill="white"/>
</mask>
<g mask="url(#mask1_395_54251)">
<path fill-rule="evenodd" clip-rule="evenodd" d="M0 0V9H24V0H0Z" fill="#FECA00"/>
<path fill-rule="evenodd" clip-rule="evenodd" d="M0 13.5V18H24V13.5H0Z" fill="#E31D1C"/>
<path fill-rule="evenodd" clip-rule="evenodd" d="M7.28796 4.28604C7.28796 4.28604 10.4051 2.87783 10.6885 3.0378C10.9718 3.19778 11.0401 3.65376 11.2848 3.65376C11.5294 3.65376 12.0218 3.50968 12.2274 3.50968C12.433 3.50968 12.6362 3.65376 12.6362 3.65376H13.5142V3.16552L17.4953 4.28604C17.4953 4.28604 15.1734 4.5894 14.9983 4.5894C14.8233 4.5894 14.9983 4.83961 14.9983 4.83961C14.9983 4.83961 14.6672 4.5894 14.163 4.5894C13.6587 4.5894 12.6362 5.11032 12.6362 5.11032L13.0079 5.90994L12.6362 6.14507L12.2274 5.90994C12.2274 5.90994 12.2539 5.25237 12.0778 5.25237C11.9017 5.25237 11.7733 5.67481 11.7733 5.90994C11.7733 6.14507 11.2848 6.14507 11.2848 6.14507L11.503 5.70489C11.503 5.70489 11.7199 4.97511 11.2848 4.97511C10.8496 4.97511 8.86615 4.5894 8.86615 4.5894L8.35895 4.83961L8.54029 4.28604H7.28796Z" fill="#7B2900"/>
<path fill-rule="evenodd" clip-rule="evenodd" d="M11.9414 13.5421C11.9417 13.5601 11.9745 15.9334 11.7823 16.1378C11.5892 16.3424 11.3544 16.1378 11.0498 16.1378C10.7459 16.1375 11.6563 14.1131 11.6592 14.1066L11.9414 13.5421ZM9.57131 8.81165C9.45919 9.37707 9.44221 10.4449 9.79592 11.3185C10.1476 12.187 11.4707 12.8729 11.4864 12.881C11.4864 12.881 12.1613 13.0314 11.1367 13.1398C10.1116 13.2482 9.11253 12.9246 8.626 11.8312C8.13953 10.7377 8.626 8.31555 8.626 8.31555L9.57131 8.81165Z" fill="#E31D1C"/>
<path fill-rule="evenodd" clip-rule="evenodd" d="M11.7559 13.92C11.7559 13.92 11.2179 16.2306 10.8428 16.2306C10.4687 16.2303 10.8424 15.9139 10.8428 15.714C10.8428 15.514 10.4668 15.9142 10.4668 15.9142L10.8428 14.5695L11.374 13.92H11.7559ZM8.6133 8.08118C8.51932 8.92538 8.51925 11.1089 9.06056 12.0548C9.60189 13.0007 11.9766 13.3976 11.9766 13.3976C11.9766 13.3976 11.5073 13.7445 10.6485 13.9064C9.78944 14.0678 8.15266 13.1062 7.74513 11.4738C7.33764 9.84104 7.97365 7.62415 7.97365 7.62415L8.6133 8.08118Z" fill="#2E42A5"/>
<path fill-rule="evenodd" clip-rule="evenodd" d="M11.2957 14.0392C11.2916 14.0494 10.9945 14.7775 10.6287 14.7775C10.2611 14.7773 10.6287 14.5616 10.2645 14.5616C9.90188 14.5613 10.4204 14.0424 10.4237 14.0392H11.2957ZM7.96564 7.44739C7.67639 8.26076 7.76596 10.5953 7.96564 11.754C8.16427 12.9048 10.0294 13.6021 10.0545 13.6115C10.0369 13.6243 9.56975 13.9605 8.72736 14.1193C7.86878 14.2807 7.32613 13.159 7.12385 11.754C6.92158 10.3487 7.326 6.99036 7.326 6.99036L7.96564 7.44739Z" fill="#FECA00"/>
<path fill-rule="evenodd" clip-rule="evenodd" d="M11.9588 13.5421C11.9585 13.5602 11.9257 15.933 12.1179 16.1378C12.311 16.3424 12.5458 16.1378 12.8504 16.1378C13.155 16.1378 12.241 14.1066 12.241 14.1066L11.9588 13.5421ZM14.3289 8.81165C14.441 9.377 14.4588 10.445 14.1052 11.3185C13.7525 12.1895 12.4219 12.8768 12.4138 12.881C12.4138 12.881 11.7393 13.0314 12.7644 13.1398C13.7894 13.248 14.7877 12.9244 15.2742 11.8312C15.7607 10.7378 15.2742 8.31555 15.2742 8.31555L14.3289 8.81165Z" fill="#E31D1C"/>
<path fill-rule="evenodd" clip-rule="evenodd" d="M12.1446 13.92C12.1446 13.92 12.6816 16.2292 13.0567 16.2306C13.4316 16.2306 13.0571 15.914 13.0567 15.714C13.0567 15.514 13.4336 15.9142 13.4336 15.9142L13.0567 14.5695L12.5264 13.92H12.1446ZM15.2872 8.08118C15.3811 8.92536 15.3812 11.1088 14.8399 12.0548C14.2986 13.0007 11.9239 13.3976 11.9239 13.3976C11.9239 13.3976 12.3923 13.7445 13.251 13.9064C14.1099 14.0682 15.7477 13.1065 16.1553 11.4738C16.5624 9.84249 15.9279 7.62806 15.9268 7.62415L15.2872 8.08118Z" fill="#2E42A5"/>
<path fill-rule="evenodd" clip-rule="evenodd" d="M12.6047 14.0392C12.6094 14.0509 12.9054 14.7769 13.2707 14.7775C13.6391 14.7775 13.2715 14.5616 13.6359 14.5616C13.9971 14.5612 13.4834 14.0459 13.4767 14.0392H12.6047ZM15.9347 7.44739C16.224 8.26076 16.1344 10.5953 15.9347 11.754C15.7348 12.9126 13.8449 13.6115 13.8449 13.6115C13.8449 13.6115 14.3142 13.9574 15.173 14.1193C16.0316 14.2806 16.5743 13.159 16.7765 11.754C16.9788 10.3487 16.5744 6.99036 16.5744 6.99036L15.9347 7.44739Z" fill="#FECA00"/>
<path d="M7.65234 7.83526L7.72102 7.42098L8.92171 7.49871L8.01096 6.55527L8.31782 6.26338L9.54957 7.53936L8.4965 5.55936L8.86055 5.34284L9.8193 6.75312L9.36199 5.28725L9.75521 5.13086L11.2294 8.07088L10.6639 8.03427L10.7193 8.21187L11.2008 8.33954L11.0911 8.74712L10.8678 8.68792L11.0764 9.3564L10.7141 8.82352L11.3449 10.0089L9.7951 8.40346L7.65234 7.83526Z" fill="#6FAE21"/>
<path d="M16.4449 7.83526L16.3762 7.42098L15.1755 7.49871L16.0863 6.55527L15.7794 6.26338L14.5477 7.53936L15.6007 5.55936L15.2367 5.34284L14.2779 6.75312L14.7352 5.28725L14.342 5.13086L12.8678 8.07088L13.4333 8.03427L13.3779 8.21187L12.8965 8.33954L13.0061 8.74712L13.2294 8.68792L13.0208 9.3564L13.3831 8.82352L12.7523 10.0089L14.3021 8.40346L16.4449 7.83526Z" fill="#6FAE21"/>
<path d="M8.3002 15.9837L7.99097 15.6943L17.1337 6.06824L17.443 6.35764L8.3002 15.9837Z" fill="#171401"/>
<path fill-rule="evenodd" clip-rule="evenodd" d="M16.9015 6.14238L17.3703 6.58446L17.6345 5.85364L16.9015 6.14238Z" fill="#CECECC"/>
<path fill-rule="evenodd" clip-rule="evenodd" d="M8.53222 15.9813L7.9938 15.6274L7.81937 16.353L8.53222 15.9813Z" fill="#CECECC"/>
<path d="M7.61996 14.549L7.31073 14.2596L16.4535 4.63354L16.7627 4.92295L7.61996 14.549Z" fill="#171401"/>
<path fill-rule="evenodd" clip-rule="evenodd" d="M16.2213 4.70769L16.69 5.14976L16.9542 4.41895L16.2213 4.70769Z" fill="#CECECC"/>
<path fill-rule="evenodd" clip-rule="evenodd" d="M7.85198 14.5466L7.31357 14.1927L7.13914 14.9183L7.85198 14.5466Z" fill="#CECECC"/>
<path d="M15.9401 15.9837L16.2493 15.6943L7.10655 6.06824L6.79732 6.35764L15.9401 15.9837Z" fill="#171401"/>
<path fill-rule="evenodd" clip-rule="evenodd" d="M7.33881 6.14238L6.87003 6.58446L6.60582 5.85364L7.33881 6.14238Z" fill="#CECECC"/>
<path fill-rule="evenodd" clip-rule="evenodd" d="M15.7081 15.9813L16.2465 15.6274L16.4209 16.353L15.7081 15.9813Z" fill="#CECECC"/>
<path d="M16.7901 14.8869L17.0993 14.5975L7.95653 4.97144L7.64729 5.26084L16.7901 14.8869Z" fill="#171401"/>
<path fill-rule="evenodd" clip-rule="evenodd" d="M8.18878 5.04558L7.72001 5.48765L7.4558 4.75684L8.18878 5.04558Z" fill="#CECECC"/>
<path fill-rule="evenodd" clip-rule="evenodd" d="M16.558 14.8845L17.0965 14.5306L17.2709 15.2562L16.558 14.8845Z" fill="#CECECC"/>
<rect x="10.25" y="12.2812" width="3.4" height="1.6875" fill="#B74E01"/>
<path d="M11.9609 5.77832C12.6641 5.77832 13.2635 6.23059 13.6748 6.88379C14.0882 7.54029 14.3359 8.43164 14.3359 9.40332C14.3359 10.375 14.0882 11.2664 13.6748 11.9229C13.2635 12.5761 12.6641 13.0283 11.9609 13.0283C11.2577 13.0283 10.6584 12.5761 10.2471 11.9229C9.83372 11.2664 9.58594 10.375 9.58594 9.40332C9.58594 8.43164 9.83372 7.54029 10.2471 6.88379C10.6584 6.23059 11.2577 5.77832 11.9609 5.77832Z" fill="#7DB8FF" stroke="#FECA00" stroke-width="0.5"/>
<mask id="mask2_395_54251" style="mask-type:luminance" maskUnits="userSpaceOnUse" x="9" y="5" width="6" height="9">
<path d="M11.9609 5.77832C12.6641 5.77832 13.2635 6.23059 13.6748 6.88379C14.0882 7.54029 14.3359 8.43164 14.3359 9.40332C14.3359 10.375 14.0882 11.2664 13.6748 11.9229C13.2635 12.5761 12.6641 13.0283 11.9609 13.0283C11.2577 13.0283 10.6584 12.5761 10.2471 11.9229C9.83372 11.2664 9.58594 10.375 9.58594 9.40332C9.58594 8.43164 9.83372 7.54029 10.2471 6.88379C10.6584 6.23059 11.2577 5.77832 11.9609 5.77832Z" fill="white" stroke="white" stroke-width="0.5"/>
</mask>
<g mask="url(#mask2_395_54251)">
<path fill-rule="evenodd" clip-rule="evenodd" d="M9.6598 9.45768H10.869C10.869 9.45768 11.7003 9.64186 11.2846 9.78675C10.869 9.93164 10.869 9.97956 10.869 10.1862C10.869 10.3929 10.869 11.1491 10.869 11.3106C10.869 11.4721 11.1647 11.8179 10.5415 11.8179C9.91828 11.8179 9.38135 9.25586 9.38135 9.25586L9.6598 9.45768Z" fill="#6FAE21"/>
<path fill-rule="evenodd" clip-rule="evenodd" d="M14.3843 9.59766C14.3843 9.59766 13.261 9.81955 12.4915 9.74558C11.722 9.67162 11.3843 9.59766 11.3843 9.59766C11.3843 9.59766 11.9206 9.87662 12.1112 10.1104C12.3018 10.3442 12.6921 10.7484 13.09 10.7484C13.4878 10.7484 14.0977 11.1258 14.0977 11.1258L14.3843 9.59766Z" fill="#6FAE21"/>
<path fill-rule="evenodd" clip-rule="evenodd" d="M9.98921 7.60242C9.98921 7.60242 10.9152 7.78137 11.1382 8.04933C11.3612 8.31729 10.8436 8.58526 12.1928 8.31729C13.5421 8.04933 14.6131 7.58192 14.6131 8.31729C14.6131 9.05267 14.4952 9.73007 13.9146 9.73007C13.334 9.73007 13.1024 9.73007 11.3317 9.73007C9.56097 9.73007 8.5957 10.2717 8.71968 9.40024C8.84366 8.5288 9.98921 7.60242 9.98921 7.60242Z" fill="#F7FCFF"/>
</g>
</g>
</g>
</svg>
