<svg width="24" height="18" viewBox="0 0 24 18" fill="none" xmlns="http://www.w3.org/2000/svg">
<mask id="mask0_395_55403" style="mask-type:luminance" maskUnits="userSpaceOnUse" x="0" y="0" width="24" height="18">
<rect width="24" height="18" fill="white"/>
</mask>
<g mask="url(#mask0_395_55403)">
<path fill-rule="evenodd" clip-rule="evenodd" d="M0 0V18H24V0H0Z" fill="#F7FCFF"/>
<mask id="mask1_395_55403" style="mask-type:luminance" maskUnits="userSpaceOnUse" x="0" y="0" width="24" height="18">
<path fill-rule="evenodd" clip-rule="evenodd" d="M0 0V18H24V0H0Z" fill="white"/>
</mask>
<g mask="url(#mask1_395_55403)">
<path fill-rule="evenodd" clip-rule="evenodd" d="M0 0V6H24V0H0Z" fill="#BF2714"/>
<path fill-rule="evenodd" clip-rule="evenodd" d="M0 12V18H24V12H0Z" fill="#272727"/>
<path d="M9.19539 7.66504L9.9446 7.69939L9.75654 11.8017L9.00732 11.7674L9.19539 7.66504Z" fill="#C09302"/>
<path d="M9.9781 7.91992L10.7269 7.96226L10.5388 11.2887L9.79004 11.2464L9.9781 7.91992Z" fill="#C09302"/>
<path d="M10.7615 8.16879L11.509 8.23013L11.3209 10.5221L10.5734 10.4608L10.7615 8.16879Z" fill="#C09302"/>
<path d="M14.8051 7.66504L14.0559 7.69939L14.244 11.8017L14.9932 11.7674L14.8051 7.66504Z" fill="#C09302"/>
<path d="M14.0224 7.91992L13.2736 7.96226L13.4616 11.2887L14.2104 11.2464L14.0224 7.91992Z" fill="#C09302"/>
<path d="M13.239 8.16879L12.4915 8.23013L12.6796 10.5221L13.4271 10.4608L13.239 8.16879Z" fill="#C09302"/>
<path d="M11.9801 11.4946L11.2491 11.3271L11.5585 9.97659L12.2896 10.1441L11.9801 11.4946Z" fill="#C09302"/>
<path d="M12.5398 11.4946L13.2708 11.3271L12.9614 9.97659L12.2303 10.1441L12.5398 11.4946Z" fill="#C09302"/>
<path d="M12.3542 11.4823H11.6042V10.1563H12.3542V11.4823Z" fill="#C09302"/>
<path d="M10.9762 8.18454L11.726 8.20293L11.6821 9.98861L10.9324 9.97022L10.9762 8.18454Z" fill="#C09302"/>
<path d="M12.2805 8.18454L13.0303 8.20293L12.9865 9.98861L12.2367 9.97022L12.2805 8.18454Z" fill="#C09302"/>
<path d="M10.0034 11.942L10.1982 11.2178C10.994 11.4318 11.605 11.5376 12.0217 11.5376C12.4383 11.5376 13.0494 11.4318 13.8452 11.2178L14.0399 11.942C13.1861 12.1717 12.5166 12.2876 12.0217 12.2876C11.5268 12.2876 10.8572 12.1717 10.0034 11.942Z" fill="#C09302"/>
<path d="M9.21187 7.66662C9.16187 7.17117 9.45185 6.83579 9.9433 6.87856C10.1049 6.89263 10.2864 6.94043 10.5281 7.02245C10.5987 7.04668 10.5987 7.04668 10.6674 7.07098C10.9997 7.18918 11.0899 7.21956 11.1087 7.22356C11.035 7.20688 11.2519 6.8148 11.3017 6.74872C11.3075 6.79069 11.2826 6.78471 11.2226 6.77271L10.5461 6.63732L11.0277 6.14325C11.196 5.97056 11.4202 5.88492 11.676 5.88492C11.7025 5.88492 11.7273 5.88369 11.8085 5.87869C11.8686 5.87503 11.8686 5.87503 11.9362 5.87224C12.4042 5.85707 12.7398 5.9894 12.7398 6.47064C12.7398 6.64281 12.7615 6.91967 12.7974 7.12971C12.8095 7.20037 12.8328 7.2665 12.764 7.29555C12.7669 7.27048 12.9308 7.2058 13.1857 7.09921L13.2163 7.08642C13.9568 6.77731 14.0434 6.74863 14.2821 6.89372C14.4412 6.9904 14.5927 7.1643 14.7624 7.42359L14.1349 7.83436C14.0254 7.66712 13.9382 7.56565 13.8967 7.5373C13.9911 7.60285 13.6733 7.70838 13.5052 7.77855L13.475 7.79113C12.8985 8.03227 12.8224 8.06104 12.6576 8.06104C12.2089 8.06104 12.0478 7.60147 12.0037 6.9433C11.8653 7.39898 11.4523 7.97405 11.112 7.97405C10.963 7.97405 11.0346 7.99762 10.4161 7.77761C10.3513 7.75467 10.3513 7.75467 10.2872 7.73269C10.0998 7.66911 9.96457 7.63344 9.87928 7.62583C9.88281 7.62181 9.89537 7.6083 9.90946 7.59623L9.21187 7.66662Z" fill="#C09302"/>
</g>
</g>
</svg>
