<svg width="25" height="18" viewBox="0 0 25 18" fill="none" xmlns="http://www.w3.org/2000/svg">
<mask id="mask0_395_55502" style="mask-type:luminance" maskUnits="userSpaceOnUse" x="0" y="0" width="26" height="18">
<rect width="25.5" height="18" fill="white"/>
</mask>
<g mask="url(#mask0_395_55502)">
<path fill-rule="evenodd" clip-rule="evenodd" d="M0 0V9H24V0H0Z" fill="#42B864"/>
<path fill-rule="evenodd" clip-rule="evenodd" d="M0 9V18H24V9H0Z" fill="#B4D7F4"/>
<path fill-rule="evenodd" clip-rule="evenodd" d="M0 0L24.75 9L0 18V0Z" fill="#BD0026"/>
<path fill-rule="evenodd" clip-rule="evenodd" d="M6.96958 4.5C7.5528 4.64364 8.07711 4.82189 8.54282 5.03125C8.46231 4.9074 8.37613 4.77208 8.30357 4.64551C8.05429 4.21053 8.83241 4.88577 9.14048 5.33301C9.14256 5.33603 9.14518 5.33873 9.14732 5.3418C9.64573 5.63208 10.0574 5.96899 10.3807 6.35547V5.47168C10.6713 5.57183 10.8347 6.51088 10.9217 7.21875C10.9865 7.36376 11.0403 7.51408 11.0868 7.66895C11.1992 7.36457 11.4134 7.03595 11.6073 7.31543C11.8353 7.64477 11.4333 9.50757 11.2831 10.1621C11.2765 10.232 11.2673 10.3012 11.2586 10.3701C11.9198 9.94988 11.9891 8.5056 11.9891 9.58691C11.9889 10.2333 11.4847 10.8714 11.0721 11.2881C11.0129 11.4937 10.9423 11.6937 10.8612 11.8887C11.644 11.6416 12.1196 10.8818 11.9891 11.7617C11.8984 12.3729 11.0113 12.596 10.454 12.6777C10.413 12.7434 10.3728 12.8098 10.329 12.874L10.3045 12.9023C10.2177 12.9902 10.1286 13.0726 10.0399 13.1523C10.3286 13.0299 10.5602 12.8916 10.8729 12.8916C11.2031 12.8916 9.82765 13.2674 9.57505 13.54C9.3491 13.7841 9.42954 13.8445 9.05161 13.8545C8.61896 14.0842 8.16841 14.2279 7.70005 14.2871C7.73042 14.3589 7.744 14.4062 7.744 14.4062H5.77036C5.77036 14.4062 5.78577 14.3487 5.8231 14.2646C5.41189 14.1949 5.01484 14.0579 4.63169 13.8545C4.62194 13.8547 4.61188 13.8564 4.60142 13.8564C4.04762 13.8564 4.17708 13.8126 3.92466 13.54C3.67167 13.2675 2.29781 12.8918 2.62681 12.8916C2.95706 12.8916 3.19644 13.0481 3.50864 13.1748C3.57988 13.2037 3.67599 13.237 3.7811 13.2734C3.64515 13.1588 3.51055 13.0357 3.37876 12.9023L3.35532 12.874C3.31696 12.8178 3.28011 12.7604 3.244 12.7031C2.72774 12.6467 1.62314 12.4476 1.52134 11.7617C1.38828 10.8644 1.88536 11.6751 2.69614 11.9053C2.75108 11.9209 2.80048 11.931 2.8436 11.9414C2.78505 11.8048 2.7321 11.6654 2.68442 11.5234C2.26319 11.1457 1.5216 10.3716 1.52134 9.58691C1.52134 8.49 1.59197 9.99415 2.28013 10.3896C2.27521 10.3695 1.6266 7.71481 1.90317 7.31543C2.18079 6.91477 2.50376 7.76092 2.50376 7.99902C2.50384 8.23546 2.63644 5.64097 3.13071 5.47168C3.13071 5.47168 3.13071 6.13304 3.13071 6.44043C3.13071 6.48677 3.15126 6.5016 3.18833 6.49609C3.45663 6.14257 3.7963 5.82944 4.20298 5.55176C4.26839 5.47134 4.32669 5.39726 4.37095 5.33301C4.67902 4.88577 5.45714 4.21053 5.20786 4.64551C5.11129 4.81399 4.98859 4.99676 4.89048 5.14941C5.41593 4.88744 6.0236 4.66997 6.71372 4.5L6.81431 4.89844C6.21131 5.04695 5.67733 5.22946 5.21275 5.44727C5.48505 5.48834 5.79179 5.59273 5.95689 5.59277C6.21721 5.59277 5.4649 5.93341 5.08384 5.93359C4.7032 5.93359 4.39345 6.09348 4.20786 6.09375C4.02239 6.09375 4.90251 6.3643 4.55552 6.62207C4.26859 6.83477 3.82613 6.58907 3.44614 6.84766C3.31114 7.04078 3.19947 7.24563 3.10923 7.46191C3.20121 7.57947 3.55328 7.44255 3.63462 7.31543C3.75507 7.12761 4.46014 7.31266 3.92271 7.85156C3.57316 8.20192 3.09072 8.41749 2.84067 8.57227C2.83216 8.64434 2.82578 8.71604 2.81919 8.78711C2.88818 8.71149 2.94957 8.53636 3.13071 8.63477C3.40087 8.7814 3.21475 8.41682 3.2147 9.08984C3.2147 9.33113 3.15601 9.56473 3.08677 9.75293C3.23734 9.60668 3.40122 9.55356 3.40122 9.83203C3.4011 10.299 3.21478 10.4335 3.2147 10.9043C3.2147 11.375 3.40081 12.0459 3.40122 11.9053C3.40122 11.7626 3.62776 10.8462 3.75571 11.2598C3.88358 11.6734 3.89042 12.4268 4.13071 12.7256C4.30585 12.9433 4.92985 13.4515 5.327 13.7119C5.57187 13.7984 5.82142 13.8575 6.077 13.8867C6.17065 13.7925 6.28985 13.7093 6.43931 13.6582C6.44821 13.1803 6.44222 12.6588 6.41294 12.1631C6.37345 12.1034 6.30579 12.0527 6.1854 12.0527C5.8854 12.0526 5.22739 11.7956 5.22739 11.4268C5.23018 11.428 5.71841 11.6485 5.85532 11.5381C5.99244 11.4271 4.96827 10.7687 5.09751 10.4521C5.09751 10.4521 5.5796 10.8789 5.68247 10.8789C5.78527 10.8789 5.50968 10.2162 5.68247 10.334C5.85557 10.4523 6.33669 11.2684 6.33677 11.5381C6.33677 11.684 6.375 11.9132 6.41001 12.0928V12.0898C6.39009 11.7794 6.36131 11.5004 6.3231 11.2617C6.10682 9.91082 6.09892 8.52601 6.40025 7.79004C6.25091 7.69737 6.14074 7.58111 6.14048 7.44629C6.14726 7.44904 6.63323 7.64503 6.76939 7.5459C6.90574 7.44581 5.88265 6.85406 6.01157 6.56934C6.02372 6.57899 6.49337 6.95232 6.59556 6.95312C6.69836 6.95312 6.42279 6.35697 6.59556 6.46289C6.76867 6.56929 7.24985 7.30334 7.24985 7.5459C7.24986 7.54751 7.24984 7.54914 7.24985 7.55078C7.43609 7.31999 7.65328 7.10474 7.76743 7.05078C7.99243 6.9445 7.63372 7.54102 7.76743 7.54102C7.89978 7.54091 8.5135 7.16561 8.5272 7.15723C8.69517 7.44185 7.36525 8.03349 7.54185 8.13379C7.718 8.23241 8.34415 8.03887 8.35923 8.03418C8.35873 8.36588 7.50303 8.59663 7.11314 8.59668C6.9682 8.59668 6.87996 8.63431 6.827 8.68262C6.80109 8.91233 6.79151 9.17247 6.79282 9.45117C6.98742 9.20101 7.22947 8.95556 7.35239 8.89746C7.5774 8.79118 7.21868 9.3877 7.35239 9.3877C7.48474 9.38759 8.09845 9.01229 8.11216 9.00391C8.28013 9.28853 6.95022 9.88017 7.12681 9.98047C7.30296 10.0791 7.9291 9.88555 7.94419 9.88086C7.94375 10.1752 7.26981 10.389 6.84556 10.4336C6.86923 10.6759 6.89842 10.9218 6.93735 11.165C6.97894 11.4248 7.01003 11.7225 7.0311 12.0508C7.03996 12.1889 7.04622 12.3292 7.05161 12.4697C7.06959 12.3534 7.08482 12.2391 7.08482 12.1533C7.08502 11.8835 7.56604 11.0675 7.73911 10.9492C7.91168 10.8318 7.63633 11.4941 7.73911 11.4941C7.84031 11.4938 8.30623 11.0833 8.3231 11.0684C8.45175 11.385 7.42918 12.0424 7.56626 12.1533C7.70173 12.2626 8.18137 12.0487 8.19419 12.043C8.19365 12.4115 7.53611 12.6677 7.23618 12.668C7.15672 12.668 7.09943 12.6897 7.05845 12.7217C7.06633 13.0383 7.06773 13.3538 7.06235 13.6533C7.22443 13.7061 7.35105 13.7975 7.44907 13.8994C7.64126 13.8863 7.83027 13.8583 8.01646 13.8135C8.37472 13.6178 9.17816 12.9774 9.38071 12.7256C9.62081 12.4265 9.62784 11.6732 9.75571 11.2598C9.88367 10.8462 10.1102 11.7626 10.1102 11.9053C10.1106 12.0459 10.2967 11.375 10.2967 10.9043C10.2966 10.4335 10.1103 10.299 10.1102 9.83203C10.1102 9.55369 10.2732 9.60682 10.4237 9.75293C10.3545 9.56475 10.2967 9.33108 10.2967 9.08984C10.2967 8.41666 10.1103 8.78168 10.3807 8.63477C10.6509 8.48829 10.65 8.95341 10.8143 8.78125C10.9786 8.60904 10.1256 8.39069 9.58775 7.85156C9.05084 7.31297 9.75508 7.12792 9.87583 7.31543C9.99609 7.50337 10.7126 7.71501 10.2967 7.08984C9.88012 6.4641 9.30373 6.87979 8.95591 6.62207C8.60817 6.36429 9.48858 6.09387 9.30357 6.09375C9.11808 6.09375 8.80842 5.93367 8.42759 5.93359C8.04677 5.93359 7.294 5.59302 7.55357 5.59277C7.7472 5.59277 8.13608 5.44823 8.4354 5.43164C7.97919 5.22103 7.4577 5.04321 6.86997 4.89844L6.96958 4.5ZM10.4217 11.8613C10.3819 11.9007 10.3537 11.941 10.3758 11.9629C10.3918 11.9294 10.4065 11.8952 10.4217 11.8613ZM6.91099 8.21973C6.88644 8.31136 6.86535 8.41336 6.84849 8.52441C6.87492 8.4212 6.90063 8.31185 6.91099 8.21973Z" fill="#F3E295"/>
</g>
</svg>
