<svg width="24" height="18" viewBox="0 0 24 18" fill="none" xmlns="http://www.w3.org/2000/svg">
<mask id="mask0_395_51751" style="mask-type:luminance" maskUnits="userSpaceOnUse" x="0" y="0" width="24" height="18">
<rect width="24" height="18" fill="white"/>
</mask>
<g mask="url(#mask0_395_51751)">
<path fill-rule="evenodd" clip-rule="evenodd" d="M0 0V18H24V0H0Z" fill="#FFB400"/>
<mask id="mask1_395_51751" style="mask-type:luminance" maskUnits="userSpaceOnUse" x="0" y="0" width="24" height="18">
<path fill-rule="evenodd" clip-rule="evenodd" d="M0 0V18H24V0H0Z" fill="white"/>
</mask>
<g mask="url(#mask1_395_51751)">
<path fill-rule="evenodd" clip-rule="evenodd" d="M0 0V4.5H24V0H0Z" fill="#C51918"/>
<path fill-rule="evenodd" clip-rule="evenodd" d="M0 13.5V18H24V13.5H0Z" fill="#C51918"/>
<rect x="3.75574" y="7.70367" width="0.84" height="4.368" fill="#F1F9FF"/>
<path fill-rule="evenodd" clip-rule="evenodd" d="M4.9317 7.36792H4.67975V7.70386H3.67194V7.36792H3.41998V6.948H4.9317V7.36792Z" fill="#C88A02"/>
<path fill-rule="evenodd" clip-rule="evenodd" d="M4.67998 12.324H4.93198V12.744H3.41998V12.324H3.67198V11.988H4.67998V12.324Z" fill="#C88A02"/>
<path fill-rule="evenodd" clip-rule="evenodd" d="M4.17595 7.03197C4.35875 7.03197 4.37733 6.96314 4.48518 6.86033C4.56892 6.78051 4.76395 6.6815 4.76395 6.56997C4.76395 6.31482 4.5007 6.10797 4.17595 6.10797C3.85121 6.10797 3.58795 6.31482 3.58795 6.56997C3.58795 6.69422 3.72226 6.7773 3.82381 6.86033C3.93081 6.94781 4.00935 7.03197 4.17595 7.03197Z" fill="#AD1619"/>
<path fill-rule="evenodd" clip-rule="evenodd" d="M3.4198 12.7437H4.9318V13.4157C4.9318 13.4157 4.7428 13.3317 4.5538 13.3317C4.3648 13.3317 4.1758 13.4157 4.1758 13.4157C4.1758 13.4157 3.9868 13.3317 3.7978 13.3317C3.6088 13.3317 3.4198 13.4157 3.4198 13.4157V12.7437Z" fill="#005BBF"/>
<mask id="mask2_395_51751" style="mask-type:luminance" maskUnits="userSpaceOnUse" x="3" y="12" width="2" height="2">
<path fill-rule="evenodd" clip-rule="evenodd" d="M3.4198 12.7437H4.9318V13.4157C4.9318 13.4157 4.7428 13.3317 4.5538 13.3317C4.3648 13.3317 4.1758 13.4157 4.1758 13.4157C4.1758 13.4157 3.9868 13.3317 3.7978 13.3317C3.6088 13.3317 3.4198 13.4157 3.4198 13.4157V12.7437Z" fill="white"/>
</mask>
<g mask="url(#mask2_395_51751)">
<path d="M3.40593 13.2834L3.37292 13.2029C3.50911 13.1423 3.64578 13.1119 3.78265 13.1119C3.87108 13.1119 3.91726 13.1242 3.99577 13.1591C4.06472 13.1898 4.10047 13.1994 4.17588 13.1994C4.25129 13.1994 4.28704 13.1898 4.35599 13.1591C4.4345 13.1242 4.48068 13.1119 4.56911 13.1119C4.70598 13.1119 4.84265 13.1423 4.97884 13.2029L4.94583 13.2834C4.81987 13.2273 4.69438 13.1994 4.56911 13.1994C4.49369 13.1994 4.45795 13.2089 4.38899 13.2396C4.31049 13.2745 4.26431 13.2869 4.17588 13.2869C4.08745 13.2869 4.04127 13.2745 3.96277 13.2396C3.89381 13.2089 3.85807 13.1994 3.78265 13.1994C3.65738 13.1994 3.53189 13.2273 3.40593 13.2834Z" fill="white"/>
<path d="M3.40593 13.0314L3.37292 12.9509C3.50911 12.8903 3.64578 12.8599 3.78265 12.8599C3.87108 12.8599 3.91726 12.8723 3.99577 12.9072C4.06472 12.9379 4.10047 12.9474 4.17588 12.9474C4.25129 12.9474 4.28704 12.9379 4.35599 12.9072C4.4345 12.8723 4.48068 12.8599 4.56911 12.8599C4.70598 12.8599 4.84265 12.8903 4.97884 12.9509L4.94583 13.0314C4.81987 12.9753 4.69438 12.9474 4.56911 12.9474C4.49369 12.9474 4.45795 12.957 4.38899 12.9877C4.31049 13.0226 4.26431 13.0349 4.17588 13.0349C4.08745 13.0349 4.04127 13.0226 3.96277 12.9877C3.89381 12.957 3.85807 12.9474 3.78265 12.9474C3.65738 12.9474 3.53189 12.9753 3.40593 13.0314Z" fill="white"/>
</g>
<rect x="11.9882" y="7.70367" width="0.84" height="4.368" fill="#F1F9FF"/>
<path fill-rule="evenodd" clip-rule="evenodd" d="M13.1637 7.36792H12.9117V7.70386H11.9039V7.36792H11.652V6.948H13.1637V7.36792Z" fill="#C88A02"/>
<path fill-rule="evenodd" clip-rule="evenodd" d="M12.912 12.324H13.164V12.744H11.652V12.324H11.904V11.988H12.912V12.324Z" fill="#C88A02"/>
<path fill-rule="evenodd" clip-rule="evenodd" d="M12.408 7.03197C12.5908 7.03197 12.6094 6.96314 12.7172 6.86033C12.801 6.78051 12.996 6.6815 12.996 6.56997C12.996 6.31482 12.7328 6.10797 12.408 6.10797C12.0833 6.10797 11.82 6.31482 11.82 6.56997C11.82 6.69422 11.9543 6.7773 12.0559 6.86033C12.1629 6.94781 12.2414 7.03197 12.408 7.03197Z" fill="#AD1619"/>
<path fill-rule="evenodd" clip-rule="evenodd" d="M11.6517 12.7437H13.1637V13.4157C13.1637 13.4157 12.9747 13.3317 12.7857 13.3317C12.5967 13.3317 12.4077 13.4157 12.4077 13.4157C12.4077 13.4157 12.2187 13.3317 12.0297 13.3317C11.8407 13.3317 11.6517 13.4157 11.6517 13.4157V12.7437Z" fill="#005BBF"/>
<mask id="mask3_395_51751" style="mask-type:luminance" maskUnits="userSpaceOnUse" x="11" y="12" width="3" height="2">
<path fill-rule="evenodd" clip-rule="evenodd" d="M11.6517 12.7437H13.1637V13.4157C13.1637 13.4157 12.9747 13.3317 12.7857 13.3317C12.5967 13.3317 12.4077 13.4157 12.4077 13.4157C12.4077 13.4157 12.2187 13.3317 12.0297 13.3317C11.8407 13.3317 11.6517 13.4157 11.6517 13.4157V12.7437Z" fill="white"/>
</mask>
<g mask="url(#mask3_395_51751)">
<path d="M11.6379 13.2834L11.6049 13.2029C11.741 13.1423 11.8777 13.1119 12.0146 13.1119C12.103 13.1119 12.1492 13.1242 12.2277 13.1591C12.2967 13.1898 12.3324 13.1994 12.4078 13.1994C12.4832 13.1994 12.519 13.1898 12.5879 13.1591C12.6664 13.1242 12.7126 13.1119 12.801 13.1119C12.9379 13.1119 13.0746 13.1423 13.2108 13.2029L13.1778 13.2834C13.0518 13.2273 12.9263 13.1994 12.801 13.1994C12.7256 13.1994 12.6899 13.2089 12.6209 13.2396C12.5424 13.2745 12.4962 13.2869 12.4078 13.2869C12.3194 13.2869 12.2732 13.2745 12.1947 13.2396C12.1257 13.2089 12.09 13.1994 12.0146 13.1994C11.8893 13.1994 11.7638 13.2273 11.6379 13.2834Z" fill="white"/>
<path d="M11.6379 13.0314L11.6049 12.9509C11.741 12.8903 11.8777 12.8599 12.0146 12.8599C12.103 12.8599 12.1492 12.8723 12.2277 12.9072C12.2967 12.9379 12.3324 12.9474 12.4078 12.9474C12.4832 12.9474 12.519 12.9379 12.5879 12.9072C12.6664 12.8723 12.7126 12.8599 12.801 12.8599C12.9379 12.8599 13.0746 12.8903 13.2108 12.9509L13.1778 13.0314C13.0518 12.9753 12.9263 12.9474 12.801 12.9474C12.7256 12.9474 12.6899 12.957 12.6209 12.9877C12.5424 13.0226 12.4962 13.0349 12.4078 13.0349C12.3194 13.0349 12.2732 13.0226 12.1947 12.9877C12.1257 12.957 12.09 12.9474 12.0146 12.9474C11.8893 12.9474 11.7638 12.9753 11.6379 13.0314Z" fill="white"/>
</g>
<path fill-rule="evenodd" clip-rule="evenodd" d="M3.29137 8.90376C3.85411 8.51646 5.35989 8.48151 6.02087 8.82271L5.71227 9.42036C5.38785 9.25293 4.65052 9.22116 4.13415 9.30708C4.21268 9.3208 4.30106 9.33455 4.39977 9.35005C4.46112 9.35968 4.67697 9.39319 4.69469 9.39595C4.90096 9.42802 5.04159 9.46948 5.14587 9.54048C5.35859 9.6854 5.39048 9.94654 5.23864 10.1391C5.17453 10.2203 5.09002 10.2804 4.96325 10.354C4.92268 10.3775 4.87921 10.4018 4.82067 10.4331C4.80869 10.4394 4.70653 10.4939 4.67614 10.5102C4.55505 10.5752 4.47468 10.6224 4.4154 10.6655C4.32265 10.7329 4.22746 10.7875 4.1195 10.8393C4.06182 10.867 3.8967 10.9391 3.89489 10.9399C3.8916 10.9414 3.88818 10.9434 3.88512 10.9448C3.94343 11.0237 3.97692 11.1201 3.97692 11.2319C3.97691 11.4093 3.89202 11.5766 3.74059 11.7602L3.22497 11.3344L3.17614 11.3198L3.1488 11.104C3.09825 10.7071 3.26795 10.4875 3.61755 10.3286C3.62858 10.3236 3.78472 10.2553 3.82946 10.2338C3.90316 10.1985 3.96412 10.1628 4.02087 10.1215C4.07678 10.0809 4.13698 10.0424 4.20934 10.0004C3.77671 9.93093 3.54302 9.87945 3.36364 9.8022C2.9343 9.61722 2.87873 9.18794 3.29137 8.90376ZM10.4857 8.82271C11.1467 8.48152 12.6525 8.51645 13.2152 8.90376C13.6279 9.18794 13.5723 9.61722 13.1429 9.8022C12.9636 9.87945 12.7299 9.93093 12.2972 10.0004C12.3696 10.0424 12.4298 10.0809 12.4857 10.1215C12.5425 10.1628 12.6034 10.1985 12.6771 10.2338C12.7219 10.2553 12.8783 10.3237 12.889 10.3286C13.2386 10.4875 13.4083 10.7071 13.3578 11.104L13.3304 11.3198L13.2816 11.3344L12.766 11.7602C12.6145 11.5766 12.5297 11.4093 12.5297 11.2319C12.5297 11.12 12.5631 11.0237 12.6215 10.9448C12.6184 10.9434 12.615 10.9414 12.6117 10.9399C12.6117 10.9399 12.4451 10.8671 12.3871 10.8393C12.279 10.7875 12.1831 10.733 12.0902 10.6655C12.0309 10.6224 11.9513 10.5751 11.8304 10.5102C11.8001 10.4939 11.6979 10.4394 11.6859 10.4331C11.6276 10.4019 11.5838 10.3784 11.5433 10.3549C11.4165 10.2814 11.332 10.2203 11.2679 10.1391C11.1161 9.94653 11.1479 9.6854 11.3607 9.54048C11.465 9.46948 11.6056 9.42802 11.8119 9.39595C11.8299 9.39314 12.0454 9.36067 12.1068 9.35103C12.2055 9.33553 12.2939 9.3208 12.3724 9.30708C11.8561 9.22116 11.1187 9.25295 10.7943 9.42036L10.4857 8.82271Z" fill="#AD1619"/>
<path d="M4.44225 9.30035L4.69019 9.35165V9.7212C4.42612 9.9319 3.75574 10.287 3.75574 10.287V9.30035H4.44225Z" fill="#F1F9FF"/>
<path d="M12.2357 9.30035L11.9878 9.35165V9.7212C12.2519 9.9319 12.9222 10.287 12.9222 10.287V9.30035H12.2357Z" fill="#F1F9FF"/>
<path fill-rule="evenodd" clip-rule="evenodd" d="M8.34692 4.58131C8.81168 4.53619 9.27117 4.61492 9.72485 4.81568C10.1977 4.8157 10.6502 4.97144 11.0823 5.2815V5.40455L10.2346 6.25513C10.0653 6.72443 9.7637 6.74924 9.52856 6.8274C9.45087 6.85324 8.34497 6.88404 8.34497 6.88404C8.34497 6.88404 8.34497 6.88313 8.34497 6.88209C6.67482 7.07458 6.43677 6.25513 6.43677 6.25513L5.58911 5.40455V5.2815C5.59596 5.2766 6.24103 4.81666 6.94653 4.81666C6.94653 4.81666 7.64984 4.51221 8.3479 4.58033L8.34692 4.58131Z" fill="#AD1619"/>
<path fill-rule="evenodd" clip-rule="evenodd" d="M9.65259 5.62579C9.6712 5.8345 9.72753 5.93306 9.81177 5.94708C9.92675 5.96579 10.0145 5.95662 10.0754 5.92365L10.1995 5.85626V5.97052C10.2384 5.97466 10.3054 5.96791 10.3967 5.94806L10.4231 6.06915L11.0432 5.48712L11.1008 5.54865L10.3303 6.27325C10.2179 6.48027 10.1604 6.61688 10.1604 6.67365C10.1603 6.76019 9.93564 6.81131 9.49634 6.86407C9.15188 6.90543 8.74488 6.93219 8.41235 6.93634V6.93829C8.39824 6.93829 8.38382 6.93741 8.36938 6.93732C8.35556 6.9374 8.34189 6.93829 8.32837 6.93829V6.93634C7.99575 6.93221 7.58901 6.90545 7.24438 6.86407C6.80476 6.81129 6.5794 6.76022 6.57935 6.67365C6.57935 6.66092 6.57526 6.64449 6.56958 6.62384C6.53299 6.57335 6.50608 6.49938 6.48657 6.42755C6.4643 6.38192 6.44091 6.32945 6.4104 6.27325L6.2395 6.11212C6.23826 6.11185 6.23684 6.11239 6.2356 6.11212V6.10919L5.63989 5.54865L5.69751 5.48712L6.2561 6.01251L6.27075 5.94806C6.36197 5.96789 6.42898 5.97458 6.46802 5.97052V5.85626L6.59204 5.92365C6.65301 5.95664 6.74071 5.96579 6.85571 5.94708C6.9402 5.93334 6.99723 5.83487 7.01587 5.62579L7.05396 5.20392L7.17993 5.60822C7.23705 5.79126 7.32444 5.87189 7.44849 5.87189C7.5693 5.87177 7.61792 5.82745 7.62329 5.71564L7.63892 5.39825L7.78247 5.68146C7.8342 5.78363 7.90564 5.83087 8.00708 5.83087C8.15191 5.83062 8.24829 5.70893 8.24829 5.51935H8.41919C8.41919 5.70913 8.51629 5.83087 8.66138 5.83087C8.76281 5.83087 8.83426 5.78363 8.88599 5.68146L9.02954 5.39825L9.04517 5.71564C9.05054 5.8276 9.09881 5.87189 9.21997 5.87189C9.34402 5.87189 9.43141 5.79126 9.48853 5.60822L9.6145 5.20392L9.65259 5.62579ZM8.32349 6.49493C8.1026 6.509 6.89306 6.58988 6.70923 6.6756C6.70654 6.67686 6.70308 6.67652 6.70044 6.67755C6.72746 6.68747 6.76392 6.6993 6.80981 6.70978C6.91782 6.73442 7.07198 6.75919 7.25415 6.78107C7.6102 6.82382 8.03384 6.85114 8.37036 6.85333C8.70673 6.85112 9.12977 6.82378 9.4856 6.78107C9.66787 6.75918 9.82188 6.73443 9.92993 6.70978C9.98488 6.69724 10.0273 6.68527 10.0549 6.67365C10.0648 6.66948 10.0725 6.66515 10.0774 6.66193C10.0784 6.64686 10.0822 6.62976 10.0872 6.61017C10.0488 6.66972 10.0024 6.70493 9.9397 6.6756C9.75561 6.58963 8.5394 6.50866 8.32349 6.49493ZM9.5354 5.88458C9.46846 5.96986 9.38315 6.01868 9.28052 6.03302C9.82415 6.10935 10.2063 6.21759 10.2063 6.21759C10.2063 6.21759 10.1916 6.31455 10.1633 6.42072C10.1899 6.3646 10.2198 6.29935 10.259 6.22736L10.2678 6.21661L10.3655 6.12384C10.2272 6.14843 10.1273 6.14736 10.0745 6.10431C9.99213 6.1282 9.8956 6.13101 9.7854 6.1131C9.66747 6.09391 9.58482 6.01471 9.5354 5.88458ZM7.13208 5.88458C7.0827 6.01461 7.00084 6.09383 6.88306 6.1131C6.77264 6.13107 6.67547 6.1283 6.59302 6.10431C6.55163 6.13799 6.48177 6.14514 6.38696 6.13556L6.46704 6.21075C6.55971 6.18585 6.90859 6.09716 7.37524 6.03204C7.27802 6.01544 7.19635 5.96647 7.13208 5.88458ZM8.927 5.90216C8.88484 5.93934 8.83625 5.9646 8.78247 5.98029C8.8706 5.98692 8.95682 5.99357 9.04028 6.00275C8.99274 5.97949 8.95432 5.9461 8.927 5.90216ZM7.74048 5.90216C7.71392 5.94481 7.67676 5.97666 7.6311 5.99982C7.71187 5.99118 7.79512 5.98457 7.88013 5.97833C7.82847 5.96243 7.78124 5.93816 7.74048 5.90216ZM8.33325 5.81818C8.29149 5.88293 8.23664 5.93321 8.16821 5.96368C8.20868 5.96244 8.24937 5.96122 8.29028 5.96075V5.95978H8.35767V5.96075C8.40583 5.96129 8.45369 5.96304 8.50122 5.96466C8.43185 5.93416 8.37537 5.88375 8.33325 5.81818Z" fill="#C88A02"/>
<path fill-rule="evenodd" clip-rule="evenodd" d="M8.33428 4.01065C8.47345 4.01065 8.58628 3.89783 8.58628 3.75865C8.58628 3.61948 8.47345 3.50665 8.33428 3.50665C8.1951 3.50665 8.08228 3.61948 8.08228 3.75865C8.08228 3.89783 8.1951 4.01065 8.33428 4.01065Z" fill="#005BBF"/>
<path fill-rule="evenodd" clip-rule="evenodd" d="M5.83877 5.44946C5.90531 5.42911 5.9865 5.50261 6.02041 5.61352C6.029 5.64164 6.03389 5.66934 6.03505 5.69555C6.05802 5.66865 6.0876 5.64222 6.1249 5.62231C6.2273 5.56786 6.33735 5.57356 6.37002 5.635C6.40218 5.69636 6.34594 5.78962 6.24404 5.84399C6.14163 5.89844 6.03159 5.89273 5.99892 5.83129C5.99817 5.82985 5.9986 5.82788 5.99795 5.82641C5.98762 5.83774 5.97596 5.84648 5.96181 5.85082C5.89527 5.87117 5.81408 5.79767 5.78017 5.68676C5.74637 5.57603 5.77243 5.46998 5.83877 5.44946ZM10.7694 5.42309C10.8359 5.44342 10.8628 5.54956 10.829 5.66039C10.7951 5.77119 10.7139 5.84459 10.6474 5.82446C10.6332 5.82014 10.6215 5.81132 10.6112 5.80004C10.6106 5.80151 10.611 5.80349 10.6102 5.80492C10.5776 5.86637 10.4675 5.87207 10.3651 5.81762C10.263 5.76324 10.2068 5.67004 10.2392 5.60864C10.2718 5.54719 10.3809 5.54149 10.4833 5.59594C10.5204 5.61567 10.5501 5.64152 10.5731 5.66821C10.5744 5.64233 10.5793 5.61487 10.5878 5.58715C10.6216 5.47645 10.703 5.40314 10.7694 5.42309ZM6.99404 5.1018C7.06226 5.08881 7.13503 5.17073 7.15712 5.28442C7.16511 5.32575 7.16248 5.36497 7.15615 5.39965C7.18236 5.39259 7.21149 5.38891 7.24209 5.38891C7.35802 5.38894 7.45205 5.44532 7.45205 5.51489C7.45171 5.58428 7.35781 5.64083 7.24209 5.64086C7.12631 5.64086 7.03246 5.5843 7.03212 5.51489C7.03212 5.51337 7.03204 5.5115 7.03212 5.51L7.03115 5.50903C7.03128 5.51086 7.03212 5.51303 7.03212 5.51489C7.03179 5.58428 6.93789 5.64083 6.82216 5.64086C6.70639 5.64086 6.61254 5.5843 6.6122 5.51489C6.6122 5.4453 6.70618 5.38891 6.82216 5.38891C6.86417 5.38892 6.90263 5.39764 6.93545 5.41039C6.92442 5.387 6.91559 5.36065 6.91005 5.33227C6.88792 5.21842 6.92573 5.11508 6.99404 5.1018ZM9.58486 5.07055C9.65426 5.06691 9.71537 5.15807 9.72158 5.27367C9.72377 5.31557 9.71596 5.35452 9.70498 5.38793C9.7317 5.38469 9.76091 5.38567 9.79091 5.38989C9.90546 5.40602 9.99061 5.47446 9.98134 5.54321C9.97166 5.61212 9.87061 5.65505 9.75576 5.63891C9.64114 5.62279 9.55603 5.55436 9.56533 5.48559C9.56554 5.48407 9.566 5.4822 9.5663 5.48071L9.56435 5.47973C9.56423 5.48132 9.56555 5.48302 9.56533 5.48461C9.55565 5.5535 9.45455 5.59642 9.33974 5.58031C9.22489 5.56417 9.13963 5.49493 9.14931 5.42602C9.1593 5.35732 9.26025 5.31518 9.3749 5.33129C9.41676 5.33721 9.45346 5.35199 9.48427 5.36938C9.47645 5.34442 9.47214 5.31661 9.4706 5.28735C9.46454 5.17161 9.51544 5.07432 9.58486 5.07055ZM8.2538 5.01782C8.32209 5.0046 8.39574 5.08662 8.41787 5.20043C8.42582 5.24166 8.4232 5.28106 8.41689 5.31567C8.44288 5.30875 8.4716 5.30493 8.50185 5.30492C8.61783 5.30492 8.71181 5.36131 8.71181 5.4309C8.71169 5.50042 8.61775 5.55688 8.50185 5.55688C8.38596 5.55687 8.29202 5.50042 8.29189 5.4309C8.29189 5.42932 8.29179 5.42759 8.29189 5.42602L8.29091 5.42504C8.29106 5.42696 8.29189 5.42896 8.29189 5.4309C8.29177 5.50042 8.19781 5.55686 8.08193 5.55688C7.96603 5.55688 7.87209 5.50042 7.87197 5.4309C7.87197 5.36131 7.96595 5.30492 8.08193 5.30492C8.12441 5.30493 8.16314 5.31437 8.19619 5.32739C8.18491 5.30372 8.17544 5.27712 8.16982 5.24828C8.14769 5.13443 8.1855 5.03109 8.2538 5.01782Z" fill="#C88A02"/>
<path fill-rule="evenodd" clip-rule="evenodd" d="M8.41498 3.16779H8.52924V3.34259H8.41498V3.69318H8.52924V3.86798H8.12396V3.69318H8.24017V3.34259H8.12396V3.16779H8.24017V3.05743H8.41498V3.16779Z" fill="#C88A02"/>
<rect x="8.20776" y="4.00763" width="0.336" height="1.092" fill="#C88A02"/>
<path d="M6.85538 4.1904L6.85392 4.27439C6.10909 4.26138 5.68185 4.37008 5.5734 4.58672C5.46127 4.81069 5.48212 5.08295 5.63923 5.40637L5.56367 5.44308C5.39605 5.098 5.37315 4.79906 5.49828 4.54911C5.62708 4.29183 6.07905 4.17685 6.85538 4.1904Z" fill="white"/>
<path d="M6.99952 4.93528L6.95646 5.00741C6.79426 4.91056 6.71307 4.74527 6.71307 4.5175C6.71307 4.19014 6.88171 3.99817 7.25472 3.8668C7.49279 3.78296 7.81799 3.81734 8.23126 3.96717L8.20263 4.04614C7.8059 3.9023 7.49893 3.86985 7.28262 3.94603C6.94048 4.06653 6.79707 4.22978 6.79707 4.5175C6.79707 4.71738 6.8645 4.85467 6.99952 4.93528Z" fill="white"/>
<path d="M5.74511 5.27733L5.5866 5.333C5.42214 4.86474 5.4691 4.54673 5.75012 4.40955C5.99775 4.28867 6.35864 4.23948 6.83458 4.25877L6.82778 4.42663C6.37715 4.40837 6.0419 4.45406 5.82382 4.56052C5.63913 4.65067 5.60535 4.87941 5.74511 5.27733Z" fill="#C88A02"/>
<path d="M7.59694 4.07895C7.21283 4.07895 7.0551 4.1725 6.96499 4.44872C6.90756 4.62474 6.96325 4.77498 7.14385 4.91522L7.04081 5.04791C6.807 4.86635 6.72457 4.64398 6.80527 4.39661C6.92011 4.0446 7.14545 3.91095 7.59694 3.91095C7.89285 3.91095 8.12337 3.98869 8.28388 4.14691L8.30891 4.17159V4.98156H8.14091V4.24339C8.01555 4.13451 7.83549 4.07895 7.59694 4.07895Z" fill="#C88A02"/>
<path d="M9.78671 4.27445L9.78817 4.35843C10.533 4.34543 10.9602 4.45413 11.0687 4.67076C11.1808 4.89473 11.16 5.167 11.0029 5.49042L11.0784 5.52712C11.246 5.18205 11.2689 4.88311 11.1438 4.63316C11.015 4.37588 10.563 4.26089 9.78671 4.27445Z" fill="white"/>
<path d="M9.52367 4.95274L9.56673 5.02486C9.72894 4.92801 9.81012 4.76273 9.81012 4.53495C9.81012 4.20759 9.64149 4.01563 9.26847 3.88426C9.03041 3.80042 8.7052 3.83479 8.29194 3.98463L8.32057 4.0636C8.71729 3.91976 9.02426 3.88731 9.24057 3.96349C9.58271 4.08398 9.72612 4.24724 9.72612 4.53495C9.72612 4.73484 9.65869 4.87212 9.52367 4.95274Z" fill="white"/>
<path d="M10.9492 5.36131L11.1077 5.41698C11.2722 4.94872 11.2252 4.63071 10.9442 4.49353C10.6966 4.37265 10.3357 4.32346 9.85975 4.34275L9.86656 4.51061C10.3172 4.49235 10.6524 4.53805 10.8705 4.6445C11.0552 4.73466 11.089 4.9634 10.9492 5.36131Z" fill="#C88A02"/>
<path d="M9.08793 4.09152C9.47204 4.09152 9.62978 4.18507 9.71989 4.46129C9.77732 4.63731 9.72162 4.78755 9.54103 4.92779L9.64407 5.06048C9.87787 4.87892 9.96031 4.65656 9.87961 4.40918C9.76476 4.05717 9.53942 3.92352 9.08793 3.92352C8.79202 3.92352 8.56151 4.00127 8.401 4.15949L8.37597 4.18416V4.99413H8.54397V4.25597C8.66932 4.14708 8.84939 4.09152 9.08793 4.09152Z" fill="#C88A02"/>
<path opacity="0.3" fill-rule="evenodd" clip-rule="evenodd" d="M5.60394 6.948H11.0639V11.8536C11.0639 11.8536 10.6584 13.5 8.33394 13.5C6.00952 13.5 5.60394 11.8102 5.60394 11.8102V6.948Z" fill="#E1E5E8"/>
<mask id="mask4_395_51751" style="mask-type:luminance" maskUnits="userSpaceOnUse" x="5" y="6" width="7" height="8">
<path fill-rule="evenodd" clip-rule="evenodd" d="M5.60394 6.948H11.0639V11.8536C11.0639 11.8536 10.6584 13.5 8.33394 13.5C6.00952 13.5 5.60394 11.8102 5.60394 11.8102V6.948Z" fill="white"/>
</mask>
<g mask="url(#mask4_395_51751)">
<rect x="5.60394" y="9.97241" width="2.772" height="3.276" fill="#FFC034"/>
<rect x="5.93988" y="10.1404" width="0.336" height="3.108" fill="#AD1619"/>
<rect x="7.11615" y="10.1404" width="0.336" height="3.108" fill="#AD1619"/>
<rect x="6.52777" y="10.1404" width="0.336" height="3.108" fill="#AD1619"/>
<rect x="7.70404" y="10.1404" width="0.336" height="3.108" fill="#AD1619"/>
<rect x="5.60394" y="6.86401" width="2.772" height="3.192" fill="#AD1619"/>
<rect x="8.29193" y="9.88843" width="2.772" height="3.192" fill="#AD1619"/>
<rect x="8.29193" y="6.948" width="2.94" height="3.108" fill="#F1F9FF"/>
<path fill-rule="evenodd" clip-rule="evenodd" d="M7.0318 7.89728H7.19977V7.54865H7.45172V7.89728H7.70367V8.33282H7.45172V9.11603H7.70367V9.55157H6.19196V9.11603H6.44391V8.33282H6.19196V7.89728H6.35992V7.54865H6.61188V7.89728H6.77985V7.20001H7.0318V7.89728Z" fill="#C88A02"/>
<path fill-rule="evenodd" clip-rule="evenodd" d="M9.46994 7.3538C9.66978 7.27409 9.9021 7.35785 10.0998 7.63993C10.2125 7.80081 10.2126 7.97788 10.1028 8.11844C10.0473 8.18926 9.97111 8.24263 9.87814 8.28641C9.94875 8.38617 9.99127 8.44174 10.0637 8.52372C10.098 8.56259 10.1263 8.60147 10.1535 8.63602C10.1799 8.62084 10.2135 8.60753 10.2551 8.59501C10.2616 8.59306 10.2695 8.59111 10.2766 8.58915C10.3021 8.58208 10.321 8.57666 10.3362 8.57157C10.3879 8.55423 10.4003 8.5538 10.4026 8.47001V8.32157C10.4025 8.27127 10.4008 8.22846 10.3967 8.13016C10.3965 8.12539 10.3969 8.12432 10.3967 8.11942C10.3816 7.7567 10.395 7.61746 10.5061 7.51786L10.6184 7.64286C10.5643 7.69128 10.5524 7.81647 10.5647 8.11258C10.5649 8.11734 10.5645 8.11795 10.5647 8.12235C10.5689 8.22337 10.5705 8.26805 10.5705 8.32157C10.5705 8.3378 10.5705 8.33849 10.5705 8.3538C10.5709 8.62106 10.5505 8.67673 10.3899 8.73075C10.3713 8.73699 10.3498 8.7434 10.3215 8.75126C10.3156 8.75288 10.3092 8.75457 10.3039 8.75614C10.2806 8.76315 10.2638 8.76779 10.2522 8.77274C10.2677 8.79906 10.2806 8.82362 10.2903 8.84696C10.3355 8.95639 10.3211 9.06058 10.2375 9.11942C10.2378 9.12082 10.2382 9.12208 10.2385 9.12333C10.2391 9.12632 10.2401 9.12913 10.2424 9.13798C10.2522 9.17768 10.2498 9.21827 10.2317 9.37919C10.2215 9.46934 10.2221 9.52846 10.2278 9.5452C10.2221 9.53004 10.2018 9.51543 10.174 9.51493L10.1672 9.50809C10.1657 9.50976 10.1637 9.51151 10.1623 9.51297H10.1633C10.1667 9.51274 10.1709 9.51489 10.174 9.51493L10.1789 9.51883C10.176 9.5193 10.1727 9.52018 10.1701 9.52079L10.1613 9.51297C10.1544 9.52028 10.1492 9.52675 10.1457 9.52958L10.1477 9.5286C10.1525 9.5258 10.1603 9.52305 10.1701 9.52079L10.2805 9.62137C10.2099 9.69901 10.1092 9.71239 10.0695 9.60282C10.052 9.55394 10.0515 9.47627 10.0647 9.35965C10.0801 9.22232 10.0823 9.18996 10.0793 9.17801C10.0777 9.17182 10.0759 9.16533 10.0744 9.15848C10.0684 9.1297 10.0661 9.09097 10.0656 9.02665L9.99826 9.17411C9.92349 9.13952 9.88488 9.10786 9.87521 9.05301C9.87181 9.03357 9.8731 9.01542 9.87814 8.99735C9.88048 8.98904 9.88421 8.98065 9.88791 8.97098C9.89663 8.94696 9.89471 8.93211 9.85666 8.88016C9.84747 8.86761 9.83922 8.85335 9.82932 8.83915C9.8257 8.83807 9.82208 8.83725 9.81857 8.83622C9.77902 8.82462 9.74453 8.81627 9.71701 8.81083C9.72605 8.83453 9.73733 8.86061 9.75021 8.88993C9.75399 8.89829 9.79628 8.99317 9.80685 9.01883C9.82921 9.07312 9.84163 9.11328 9.84396 9.1536C9.85388 9.3257 9.71462 9.3675 9.54123 9.31669C9.41193 9.2787 9.34573 9.26343 9.32736 9.26395C9.38451 9.26233 9.4158 9.19964 9.41232 9.17606L9.1633 9.21512C9.1465 9.10799 9.19282 9.01562 9.32053 9.012C9.36886 9.01064 9.4309 9.02283 9.54807 9.05594C9.54006 9.03774 9.52992 9.0159 9.51877 8.99051C9.49108 8.92746 9.47181 8.87667 9.45627 8.82548C9.41258 8.68129 9.4856 8.56746 9.62521 8.55301C9.63194 8.55233 9.63878 8.55231 9.64572 8.55204C9.61574 8.50181 9.58449 8.44728 9.55099 8.38895C9.53242 8.39255 9.51531 8.39824 9.49924 8.40067L9.48849 8.33524C9.41861 8.41315 9.34882 8.48569 9.27951 8.54032C9.11232 8.67207 8.95719 8.7163 8.84006 8.58524L9.02756 8.41727C9.02129 8.41042 9.01187 8.4082 9.01779 8.40653C9.04257 8.39943 9.07947 8.37751 9.12326 8.34305C9.17078 8.30561 9.22112 8.2547 9.27267 8.1995C9.20214 8.15251 9.13265 8.08856 9.06564 8.00712C9.01505 7.94563 8.97059 7.90498 8.92892 7.87626C8.90812 7.86194 8.84584 7.8284 8.83713 7.82255C8.73327 7.75272 8.73908 7.68593 8.80197 7.52762L9.03635 7.62137C9.03345 7.62868 9.03086 7.63584 9.02853 7.64188C9.04349 7.65073 9.05935 7.65989 9.0715 7.66825C9.13299 7.71056 9.19465 7.76759 9.25998 7.84696C9.32445 7.92532 9.38433 7.97727 9.43967 8.00712L9.43674 7.98465C9.44794 7.98295 9.47108 7.97877 9.50119 7.97196C9.55173 7.9605 9.6023 7.94608 9.64767 7.92899C9.69472 7.91125 9.73126 7.89192 9.75314 7.87626C9.69684 7.79687 9.65151 7.75863 9.62033 7.74735C9.61583 7.74573 9.61959 7.74567 9.62521 7.74344C9.63113 7.74108 9.63829 7.73668 9.64767 7.72977L9.39865 7.39188C9.4166 7.37864 9.44057 7.36553 9.46994 7.3538ZM10.0598 8.95926C10.0591 8.97719 10.0562 8.9952 10.051 9.01298C10.055 9.01501 10.0597 9.0165 10.0647 9.01883C10.0647 9.01634 10.0647 9.01359 10.0647 9.01102C10.0647 8.99037 10.0636 8.97134 10.0627 8.9495C10.062 8.94763 10.0589 8.94625 10.0578 8.94364L10.0598 8.95926Z" fill="#C37C9C"/>
<path d="M9.73383 7.34602L9.90585 7.16187L10.267 7.49923L10.095 7.68339L9.73383 7.34602Z" fill="#C88A02"/>
<path fill-rule="evenodd" clip-rule="evenodd" d="M10.7695 12.1052L10.7665 12.1199C10.6598 12.563 10.2975 12.7859 9.71967 12.7859C9.14144 12.7858 8.77908 12.5572 8.67279 12.1042L8.66986 12.0896V10.2664H10.7695V12.1052ZM8.92181 12.0603C9.00236 12.378 9.25576 12.5339 9.71967 12.5339C10.1838 12.5339 10.4371 12.3822 10.5175 12.075V10.5183H8.92181V12.0603Z" fill="#FFC034"/>
<path fill-rule="evenodd" clip-rule="evenodd" d="M9.8064 11.1648L10.4158 10.5027L10.5398 10.616L9.91479 11.2957H10.614V11.5476H9.90308L10.5398 12.24L10.4158 12.3542L9.8064 11.6912V12.5789H9.63159V11.6033L8.94214 12.3542L8.81812 12.24L9.45386 11.5476H8.87671V11.2957H9.44312L8.81812 10.616L8.94214 10.5027L9.63159 11.2517V10.4197H9.8064V11.1648Z" fill="#FFC034"/>
<path fill-rule="evenodd" clip-rule="evenodd" d="M10.1118 13.0816C10.1118 13.0816 8.33266 13.2214 8.33266 12.074C8.33266 12.074 8.3157 13.0816 6.45795 13.0816V13.9874H10.1118V13.0816Z" fill="#F1F9FF"/>
<path fill-rule="evenodd" clip-rule="evenodd" d="M8.33404 10.6436C8.68198 10.6436 8.96404 10.3427 8.96404 9.97156C8.96404 9.60043 8.68198 9.29956 8.33404 9.29956C7.9861 9.29956 7.70404 9.60043 7.70404 9.97156C7.70404 10.3427 7.9861 10.6436 8.33404 10.6436Z" fill="#005BBF" stroke="#AD1619" stroke-width="1.16667"/>
</g>
</g>
</g>
</svg>
