<svg width="24" height="18" viewBox="0 0 24 18" fill="none" xmlns="http://www.w3.org/2000/svg">
<mask id="mask0_395_54617" style="mask-type:luminance" maskUnits="userSpaceOnUse" x="0" y="0" width="24" height="18">
<rect width="24" height="18" fill="white"/>
</mask>
<g mask="url(#mask0_395_54617)">
<path fill-rule="evenodd" clip-rule="evenodd" d="M0 0V18H24V0H0Z" fill="#67BFE5"/>
<mask id="mask1_395_54617" style="mask-type:luminance" maskUnits="userSpaceOnUse" x="0" y="0" width="24" height="18">
<path fill-rule="evenodd" clip-rule="evenodd" d="M0 0V18H24V0H0Z" fill="white"/>
</mask>
<g mask="url(#mask1_395_54617)">
<path fill-rule="evenodd" clip-rule="evenodd" d="M15 7.5H22.2414V13.75C22.2414 13.75 21.6341 16.5 18.6207 16.5C15.6072 16.5 15 13.75 15 13.75V7.5Z" fill="#F7FCFF"/>
<mask id="mask2_395_54617" style="mask-type:luminance" maskUnits="userSpaceOnUse" x="15" y="7" width="8" height="10">
<path fill-rule="evenodd" clip-rule="evenodd" d="M15 7.5H22.2414V13.75C22.2414 13.75 21.6341 16.5 18.6207 16.5C15.6072 16.5 15 13.75 15 13.75V7.5Z" fill="white"/>
</mask>
<g mask="url(#mask2_395_54617)">
<rect x="15" y="7.5" width="7.24138" height="2.25" fill="#C3352C"/>
<rect x="18.1034" y="9.5" width="1.03448" height="7" fill="#C3352C"/>
<rect x="15" y="12.25" width="7.24138" height="1" fill="#C3352C"/>
<path fill-rule="evenodd" clip-rule="evenodd" d="M17.5424 13.9346C17.5696 13.9427 17.6131 13.9524 17.6723 13.9619C17.7021 13.9666 17.7027 13.9669 17.7339 13.9717C17.9336 14.0025 17.9973 14.0192 18.0678 14.1045C18.2022 14.267 18.1107 14.4146 17.9057 14.5713C17.6795 14.7442 17.6446 14.8079 17.6499 14.8545C17.6637 14.8885 17.6614 14.9794 17.5913 15.0479C17.5884 15.0506 17.5853 15.0541 17.5825 15.0566C17.6412 15.1573 17.7446 15.3014 17.8901 15.4863C18.1408 15.5364 18.1227 15.7912 17.9467 16.0459C17.6959 16.4086 17.3411 16.1682 16.9057 15.5527C16.7018 15.2811 16.515 15.1189 16.354 15.0586L16.2172 15.0195C15.8561 14.8958 15.2815 14.3602 15.3862 14.0596C15.4596 13.849 15.5733 13.8475 16.0258 13.9043L16.0561 13.9082C16.2133 13.9282 16.2704 13.9336 16.3227 13.9336C16.3674 13.9336 16.1699 14.0127 16.6372 13.8154C16.8856 13.7106 17.1131 13.6591 17.4038 13.668L17.5424 13.9346ZM17.1704 14.0518C17.0373 14.0681 16.9155 14.1051 16.7827 14.1611C16.121 14.4405 16.4511 14.3086 16.3227 14.3086C16.2476 14.3086 16.1858 14.3027 16.0092 14.2803L15.979 14.2764C15.9099 14.2677 15.8402 14.2628 15.7934 14.25C15.7764 14.2323 15.7613 14.2188 15.7524 14.207L15.7456 14.2266C15.7551 14.2376 15.772 14.2442 15.7934 14.25C15.9184 14.3797 16.2344 14.6454 16.3598 14.6709C16.6438 14.7281 16.922 14.9503 17.2085 15.332C17.4992 15.7429 17.6358 15.8359 17.6381 15.833C17.6945 15.7515 17.6946 15.8525 17.7924 15.8525L17.646 15.7822C17.442 15.5269 17.3045 15.3335 17.2319 15.1973C17.128 15.002 17.1123 14.8068 17.2856 14.752C17.3162 14.6225 17.4131 14.4897 17.6059 14.3311C17.4508 14.3058 17.3606 14.2797 17.2807 14.2178C17.2212 14.1716 17.1851 14.1146 17.1704 14.0518ZM17.5102 15.083C17.4867 15.0989 17.4516 15.1113 17.3979 15.1113C17.4401 15.1113 17.4727 15.1102 17.5014 15.1025L17.5102 15.083ZM17.3833 14.7363L17.3881 14.7373C17.3912 14.7368 17.3948 14.7363 17.3979 14.7363C17.393 14.7363 17.388 14.7362 17.3833 14.7363ZM15.7407 14.1826C15.7343 14.2009 15.7365 14.2148 15.7456 14.2256L15.7524 14.2061C15.7436 14.1944 15.7394 14.1864 15.7407 14.1826Z" fill="#979797"/>
<path d="M16.2414 12.0827C16.2414 12.0827 15.8835 11.5877 15.8835 11.4113" stroke="#964C36"/>
<path d="M16.0191 11.6571C16.0191 11.6571 15.5616 11.4618 15.5616 11.6571" stroke="#2A8E51"/>
<path d="M16.0117 11.4512C16.0117 11.4512 15.6899 11.0419 15.448 11.0419C15.206 11.0419 15.2118 11.2466 15.2118 11.2466" stroke="#2A8E51"/>
<path d="M15.828 11.0415C15.828 11.0415 15.6844 10.3719 15.4545 10.3719C15.2245 10.3719 15.2245 10.7067 15.2245 10.7067" stroke="#2A8E51"/>
<path d="M15.8861 11.0405C15.8861 11.0405 15.8221 10.4667 16.1182 10.4667" stroke="#2A8E51"/>
<path d="M16.6959 11.9858C16.6959 11.9858 16.529 11.3982 16.5894 11.2324" stroke="#964C36"/>
<path d="M16.6328 11.51C16.6328 11.51 16.2697 11.1699 16.2029 11.3535" stroke="#2A8E51"/>
<path d="M16.6957 11.3145C16.6957 11.3145 16.5334 10.8198 16.306 10.7371C16.0787 10.6543 16.0141 10.8486 16.0141 10.8486" stroke="#2A8E51"/>
<path d="M16.6638 10.8659C16.6638 10.8659 16.7579 10.1876 16.5418 10.1089C16.3257 10.0303 16.2112 10.3449 16.2112 10.3449" stroke="#2A8E51"/>
<path d="M16.7187 10.8849C16.7187 10.8849 16.8548 10.3238 17.1331 10.4251" stroke="#2A8E51"/>
<path d="M17.0641 12.1957C17.0641 12.1957 17.3014 11.6329 17.2617 11.4609" stroke="#964C36" stroke-width="0.7"/>
<path d="M17.1851 11.7303C17.1851 11.7303 17.5869 11.437 17.6309 11.6274" stroke="#2A8E51" stroke-width="0.7"/>
<path d="M17.146 11.5289C17.146 11.5289 17.3674 11.0576 17.6031 11.0032C17.8389 10.9488 17.8793 11.1495 17.8793 11.1495" stroke="#2A8E51" stroke-width="0.7"/>
<path d="M17.2327 11.088C17.2327 11.088 17.222 10.4033 17.4461 10.3515C17.6702 10.2998 17.7455 10.626 17.7455 10.626" stroke="#2A8E51" stroke-width="0.7"/>
<path d="M17.1757 11.0998C17.1757 11.0998 17.1091 10.5262 16.8205 10.5928" stroke="#2A8E51" stroke-width="0.7"/>
<path d="M20.0234 11.8507C20.0234 11.8507 20.2049 11.0156 20.7214 11.0156C21.2379 11.0156 21.469 11.8979 21.469 11.8979" stroke="#2A8E51" stroke-width="0.7"/>
<path d="M19.5972 11.2812C19.5972 11.2812 19.8753 10.7879 20.7932 10.8282C21.7111 10.8686 21.8783 11.2812 21.8783 11.2812" stroke="#2A8E51" stroke-width="0.7"/>
<path d="M19.4116 10.6537C19.4116 10.6537 19.9158 10.0292 20.6225 10.5585L20.8619 10.6537C20.8619 10.6537 21.1019 9.94593 22.2616 10.6537" stroke="#2A8E51" stroke-width="0.7"/>
<path d="M20.8039 12.0277C20.8039 12.0277 20.8407 11.2483 20.9644 11.0342" stroke="#964C36"/>
<path d="M21.8241 13.7358C21.8241 13.7358 21.3604 13.5178 21.2217 13.7358C21.083 13.9539 19.4121 15.9572 19.4121 15.9572" stroke="#964C36"/>
<path fill-rule="evenodd" clip-rule="evenodd" d="M20.2233 13.9469L21.2589 14.6708C21.2589 14.6708 21.7355 14.3308 21.4972 14.1388C21.2589 13.9469 20.6095 13.6084 20.6095 13.6084L20.2233 13.9469Z" fill="#FFF203"/>
<path fill-rule="evenodd" clip-rule="evenodd" d="M20.1873 13.9834C20.1873 13.9834 19.9473 14.2346 19.9473 14.4265C19.9473 14.6185 19.7241 15.1331 19.7241 15.1331C19.7241 15.1331 20.3484 15.5174 20.4781 15.2726C20.6077 15.0278 21.4496 15.1744 21.3011 14.8004C21.1526 14.4265 20.1873 13.9834 20.1873 13.9834Z" fill="#00A651"/>
<path fill-rule="evenodd" clip-rule="evenodd" d="M15.7923 8.38711C15.7923 8.38711 16.3453 8.10336 16.619 8.38711C16.8928 8.67087 17.117 8.3636 17.117 8.19244C17.117 8.02127 17.5517 7.43367 17.5517 7.91039C17.5517 8.38711 17.4164 8.65628 17.7984 8.65628C18.1804 8.65628 19.9008 7.99776 20.3133 8.19244C20.7258 8.38711 21.0415 8.3387 20.9366 8.05937C20.8318 7.78004 20.5622 7.60546 20.0433 7.75792C19.5243 7.91039 19.6468 8.05937 19.1983 8.05937C18.7497 8.05937 18.2505 7.91039 18.2505 7.91039C18.2505 7.91039 18.3908 7.65989 18.9028 7.83808C19.4149 8.01626 20.1212 7.61741 20.3133 7.61741C20.5054 7.61741 21.0341 7.60546 21.0865 7.75792C21.1389 7.91039 21.4581 8.0503 21.2148 8.19244C20.9714 8.33457 20.5702 8.42361 20.8463 8.60572C21.1223 8.78783 21.7572 8.75273 21.7878 8.94216C21.8183 9.13159 22.1192 9.41446 21.9985 9.41446C21.8777 9.41446 21.6595 9.68124 21.4563 9.60001C21.2531 9.51878 21.2292 9.44745 21.424 9.38165C21.6189 9.31584 21.617 9.03911 21.4563 9.03911C21.2956 9.03911 21.374 9.13607 21.008 9.03911C20.6421 8.94216 20.1578 8.83437 20.1869 9.03911C20.216 9.24385 20.4543 9.55812 20.0147 9.60001C19.5751 9.64189 19.3694 9.81005 19.2838 9.67463C19.1983 9.53921 18.8925 9.35877 19.1329 9.3009C19.3734 9.24304 19.6032 9.49758 19.6898 9.45602C19.7764 9.41446 19.9727 9.39132 19.8083 9.21522C19.6439 9.03911 19.3728 8.93543 19.6241 8.80362C19.8754 8.67181 19.6771 8.6691 19.1983 8.94216C18.7194 9.21522 18.4531 9.44727 18.0327 9.41446C17.6123 9.38165 17.4549 9.42591 17.3198 9.38165C17.1846 9.33738 16.5266 9.87071 16.3371 9.73536C16.1476 9.60001 15.5358 9.54808 15.646 9.38165C15.7561 9.21522 15.904 9.12953 16.0686 9.21522C16.2333 9.3009 16.3969 9.38659 16.508 9.3009C16.619 9.21522 16.9397 8.92119 16.8591 8.86241C16.7784 8.80362 16.8564 8.60572 16.3997 8.60572C15.943 8.60572 15.7824 8.82628 15.674 8.68731C15.5655 8.54834 15.7923 8.38711 15.7923 8.38711Z" fill="#FFD100"/>
</g>
<rect width="13.5" height="10.5" fill="#2B409A"/>
<mask id="mask3_395_54617" style="mask-type:luminance" maskUnits="userSpaceOnUse" x="0" y="0" width="14" height="11">
<rect width="13.5" height="10.5" fill="white"/>
</mask>
<g mask="url(#mask3_395_54617)">
<path d="M-1.50317 9.74983L1.46754 11.0527L13.5674 1.41653L15.1344 -0.519623L11.9577 -0.955091L7.02241 3.19743L3.05003 5.99525L-1.50317 9.74983Z" fill="#F7FCFF"/>
<path d="M-1.09644 10.6627L0.417006 11.4188L14.5718 -0.699463H12.4467L-1.09644 10.6627Z" fill="#F50100"/>
<path d="M15.0033 9.74983L12.0326 11.0527L-0.0673141 1.41653L-1.6343 -0.519623L1.54245 -0.955091L6.47771 3.19743L10.4501 5.99525L15.0033 9.74983Z" fill="#F7FCFF"/>
<path d="M14.902 10.405L13.3885 11.1611L7.36129 5.97266L5.57434 5.39297L-1.78503 -0.51293H0.340017L7.69525 5.25279L9.64897 5.9479L14.902 10.405Z" fill="#F50100"/>
<mask id="path-39-outside-1_395_54617" maskUnits="userSpaceOnUse" x="-2" y="-2" width="17" height="14" fill="black">
<rect fill="white" x="-2" y="-2" width="17" height="14"/>
<path fill-rule="evenodd" clip-rule="evenodd" d="M7.48838 0H5.98838V4.5H0V6H5.98838V10.5H7.48838V6H13.5V4.5H7.48838V0Z"/>
</mask>
<path fill-rule="evenodd" clip-rule="evenodd" d="M7.48838 0H5.98838V4.5H0V6H5.98838V10.5H7.48838V6H13.5V4.5H7.48838V0Z" fill="#F50100"/>
<path d="M5.98838 0V-1.5H4.48838V0H5.98838ZM7.48838 0H8.98838V-1.5H7.48838V0ZM5.98838 4.5V6H7.48838V4.5H5.98838ZM0 4.5V3H-1.5V4.5H0ZM0 6H-1.5V7.5H0V6ZM5.98838 6H7.48838V4.5H5.98838V6ZM5.98838 10.5H4.48838V12H5.98838V10.5ZM7.48838 10.5V12H8.98838V10.5H7.48838ZM7.48838 6V4.5H5.98838V6H7.48838ZM13.5 6V7.5H15V6H13.5ZM13.5 4.5H15V3H13.5V4.5ZM7.48838 4.5H5.98838V6H7.48838V4.5ZM5.98838 0V1.5H7.48838V0V-1.5H5.98838V0ZM5.98838 4.5H7.48838V0H5.98838H4.48838V4.5H5.98838ZM0 4.5V6H5.98838V4.5V3H0V4.5ZM0 6H1.5V4.5H0H-1.5V6H0ZM5.98838 6V4.5H0V6V7.5H5.98838V6ZM5.98838 10.5H7.48838V6H5.98838H4.48838V10.5H5.98838ZM7.48838 10.5V9H5.98838V10.5V12H7.48838V10.5ZM7.48838 6H5.98838V10.5H7.48838H8.98838V6H7.48838ZM13.5 6V4.5H7.48838V6V7.5H13.5V6ZM13.5 4.5H12V6H13.5H15V4.5H13.5ZM7.48838 4.5V6H13.5V4.5V3H7.48838V4.5ZM7.48838 0H5.98838V4.5H7.48838H8.98838V0H7.48838Z" fill="#F7FCFF" mask="url(#path-39-outside-1_395_54617)"/>
</g>
</g>
</g>
</svg>
