<svg width="24" height="18" viewBox="0 0 24 18" fill="none" xmlns="http://www.w3.org/2000/svg">
<mask id="mask0_395_53280" style="mask-type:luminance" maskUnits="userSpaceOnUse" x="0" y="0" width="24" height="18">
<rect width="24" height="18" fill="white"/>
</mask>
<g mask="url(#mask0_395_53280)">
<path fill-rule="evenodd" clip-rule="evenodd" d="M0 0H24V18H0V0Z" fill="#C51918"/>
<path fill-rule="evenodd" clip-rule="evenodd" d="M4.5 4.5H19.5V13.5H4.5V4.5Z" fill="#FECA00"/>
<mask id="mask1_395_53280" style="mask-type:luminance" maskUnits="userSpaceOnUse" x="4" y="4" width="16" height="10">
<path fill-rule="evenodd" clip-rule="evenodd" d="M4.5 4.5H19.5V13.5H4.5V4.5Z" fill="white"/>
</mask>
<g mask="url(#mask1_395_53280)">
<path fill-rule="evenodd" clip-rule="evenodd" d="M4.5 4.5L12 9L4.5 13.5V4.5Z" fill="#23875F"/>
<path fill-rule="evenodd" clip-rule="evenodd" d="M19.5 4.5L12 9L19.5 13.5V4.5Z" fill="#23875F"/>
<mask id="mask2_395_53280" style="mask-type:luminance" maskUnits="userSpaceOnUse" x="12" y="4" width="8" height="10">
<path fill-rule="evenodd" clip-rule="evenodd" d="M19.5 4.5L12 9L19.5 13.5V4.5Z" fill="white"/>
</mask>
<g mask="url(#mask2_395_53280)">
</g>
<path fill-rule="evenodd" clip-rule="evenodd" d="M12 12C13.6569 12 15 10.6569 15 9C15 7.34315 13.6569 6 12 6C10.3431 6 9 7.34315 9 9C9 10.6569 10.3431 12 12 12Z" fill="#C51918"/>
<path fill-rule="evenodd" clip-rule="evenodd" d="M11.9471 9.98534L10.3939 11.0627L10.8902 9.21747L9.75 8.03875L11.2939 7.97502L11.9471 6.15039L12.6003 7.97502H14.1416L13.004 9.21747L13.5737 10.9538L11.9471 9.98534Z" fill="#FECA00"/>
</g>
<path fill-rule="evenodd" clip-rule="evenodd" d="M7.7876 15.1171H8.63037L8.0083 15.7235L8.31982 16.5721L7.43115 16.0995L6.58154 16.6249L6.85303 15.7235L6.22998 15.1483L7.07373 15.1171L7.43115 14.2255L7.7876 15.1171ZM12.2876 15.1171H13.1304L12.5083 15.7235L12.8198 16.5721L11.9312 16.0995L11.0815 16.6249L11.353 15.7235L10.73 15.1483L11.5737 15.1171L11.9312 14.2255L12.2876 15.1171ZM16.7876 15.1171H17.6304L17.0083 15.7235L17.3198 16.5721L16.4312 16.0995L15.5815 16.6249L15.853 15.7235L15.23 15.1483L16.0737 15.1171L16.4312 14.2255L16.7876 15.1171ZM7.78857 1.82312H8.63037L8.00928 2.42957L8.3208 3.2782L7.43115 2.80554L6.58252 3.33191L6.854 2.42957L6.23096 1.85437L7.07471 1.82312L7.43115 0.931519L7.78857 1.82312ZM12.2886 1.82312H13.1304L12.5093 2.42957L12.8208 3.2782L11.9312 2.80554L11.0825 3.33191L11.354 2.42957L10.731 1.85437L11.5747 1.82312L11.9312 0.931519L12.2886 1.82312ZM16.7886 1.82312H17.6304L17.0093 2.42957L17.3208 3.2782L16.4312 2.80554L15.5825 3.33191L15.854 2.42957L15.231 1.85437L16.0747 1.82312L16.4312 0.931519L16.7886 1.82312Z" fill="#FECA00"/>
<path fill-rule="evenodd" clip-rule="evenodd" d="M6.47603 9.57903C6.47603 9.57903 6.87995 9.93861 7.09994 10.061C7.17579 9.77354 7.00655 9.12222 7.00655 9.12222C6.95906 8.96652 6.43819 8.68738 6.43819 8.68738C6.43819 8.68738 6.29189 9.1789 6.47603 9.57903Z" fill="#C51918"/>
<path fill-rule="evenodd" clip-rule="evenodd" d="M6.89685 10.4476C6.89685 10.4476 5.85942 9.96308 5.754 9.27774C5.64857 8.59239 5.87215 7.49982 5.87215 7.49982C5.87215 7.49982 7.5568 7.88319 7.67142 8.7046C7.78604 9.526 7.40553 10.042 7.40553 10.042C7.40553 10.042 7.01587 9.04071 6.64816 8.92964C6.64816 8.92964 6.64816 9.92201 6.89685 10.4476Z" fill="#FECA00"/>
</g>
</svg>
