<svg width="24" height="18" viewBox="0 0 24 18" fill="none" xmlns="http://www.w3.org/2000/svg">
<mask id="mask0_395_55330" style="mask-type:luminance" maskUnits="userSpaceOnUse" x="0" y="0" width="24" height="18">
<rect width="24" height="18" fill="white"/>
</mask>
<g mask="url(#mask0_395_55330)">
<path fill-rule="evenodd" clip-rule="evenodd" d="M0 0V18H24V0H0Z" fill="#F7FCFF"/>
<mask id="mask1_395_55330" style="mask-type:luminance" maskUnits="userSpaceOnUse" x="0" y="0" width="24" height="18">
<path fill-rule="evenodd" clip-rule="evenodd" d="M0 0V18H24V0H0Z" fill="white"/>
</mask>
<g mask="url(#mask1_395_55330)">
<path fill-rule="evenodd" clip-rule="evenodd" d="M0 0V6H24V0H0Z" fill="#009D00"/>
<path fill-rule="evenodd" clip-rule="evenodd" d="M0 6V12H24V6H0Z" fill="white"/>
<path fill-rule="evenodd" clip-rule="evenodd" d="M0 12V18H24V12H0Z" fill="#F80000"/>
</g>
<path fill-rule="evenodd" clip-rule="evenodd" d="M0 0V18L6 9.11397L0 0Z" fill="#0075D5"/>
<mask id="mask2_395_55330" style="mask-type:luminance" maskUnits="userSpaceOnUse" x="0" y="0" width="6" height="18">
<path fill-rule="evenodd" clip-rule="evenodd" d="M0 0V18L6 9.11397L0 0Z" fill="white"/>
</mask>
<g mask="url(#mask2_395_55330)">
</g>
<path d="M10.9233 6.98308L10.932 6.97327L10.9448 6.97467L11.1408 6.99787L11.0408 6.82753L11.0337 6.81651L11.0391 6.80381L11.1214 6.62469L10.9288 6.66811L10.916 6.67074L10.9062 6.66205L10.7602 6.52788L10.7429 6.72444L10.7412 6.73815L10.7295 6.74412L10.5569 6.84141L10.7391 6.91957L10.7509 6.92475L10.7535 6.93758L10.7922 7.13295L10.9233 6.98308Z" fill="#FFD500" stroke="black" stroke-width="0.05"/>
<path d="M11.6733 6.98308L11.682 6.97327L11.6948 6.97467L11.8908 6.99787L11.7908 6.82753L11.7837 6.81651L11.7891 6.80381L11.8714 6.62469L11.6788 6.66811L11.666 6.67074L11.6562 6.66205L11.5102 6.52788L11.4929 6.72444L11.4912 6.73815L11.4795 6.74412L11.3069 6.84141L11.4891 6.91957L11.5009 6.92475L11.5035 6.93758L11.5422 7.13295L11.6733 6.98308Z" fill="#FFD500" stroke="black" stroke-width="0.05"/>
<path d="M12.4233 6.98308L12.432 6.97327L12.4448 6.97467L12.6408 6.99787L12.5408 6.82753L12.5337 6.81651L12.5391 6.80381L12.6214 6.62469L12.4288 6.66811L12.416 6.67074L12.4062 6.66205L12.2602 6.52788L12.2429 6.72444L12.2412 6.73815L12.2295 6.74412L12.0569 6.84141L12.2391 6.91957L12.2509 6.92475L12.2535 6.93758L12.2922 7.13295L12.4233 6.98308Z" fill="#FFD500" stroke="black" stroke-width="0.05"/>
<path d="M13.1733 6.98308L13.182 6.97327L13.1948 6.97467L13.3908 6.99787L13.2908 6.82753L13.2837 6.81651L13.2891 6.80381L13.3714 6.62469L13.1788 6.66811L13.166 6.67074L13.1562 6.66205L13.0102 6.52788L12.9929 6.72444L12.9912 6.73815L12.9795 6.74412L12.8069 6.84141L12.9891 6.91957L13.0009 6.92475L13.0035 6.93758L13.0422 7.13295L13.1733 6.98308Z" fill="#FFD500" stroke="black" stroke-width="0.05"/>
<path d="M13.9233 6.98308L13.932 6.97327L13.9448 6.97467L14.1408 6.99787L14.0408 6.82753L14.0337 6.81651L14.0391 6.80381L14.1214 6.62469L13.9288 6.66811L13.916 6.67074L13.9062 6.66205L13.7602 6.52788L13.7429 6.72444L13.7412 6.73815L13.7295 6.74412L13.5569 6.84141L13.7391 6.91957L13.7509 6.92475L13.7535 6.93758L13.7922 7.13295L13.9233 6.98308Z" fill="#FFD500" stroke="black" stroke-width="0.05"/>
<path d="M14.6733 6.98308L14.682 6.97327L14.6948 6.97467L14.8908 6.99787L14.7908 6.82753L14.7837 6.81651L14.7891 6.80381L14.8714 6.62469L14.6788 6.66811L14.666 6.67074L14.6562 6.66205L14.5102 6.52788L14.4929 6.72444L14.4912 6.73815L14.4795 6.74412L14.3069 6.84141L14.4891 6.91957L14.5009 6.92475L14.5035 6.93758L14.5422 7.13295L14.6733 6.98308Z" fill="#FFD500" stroke="black" stroke-width="0.05"/>
<path d="M14.2002 7.5498V9.75C14.2002 10.5508 13.5508 11.2002 12.75 11.2002C11.9492 11.2002 11.2998 10.5508 11.2998 9.75V7.5498H14.2002Z" stroke="#373737" stroke-width="0.1"/>
<path fill-rule="evenodd" clip-rule="evenodd" d="M12.5449 8.96948C12.5449 8.96948 12.3936 10.7434 12.2426 10.8509C12.0916 10.9585 12.9663 11.0121 13.0499 10.9315C13.1334 10.8509 12.6684 9.40539 12.8284 8.96948C12.9884 8.53357 13.246 8.49824 13.246 8.49824C13.246 8.49824 12.9212 8.42959 12.8284 8.56039C12.7356 8.69119 12.4587 8.49824 12.4587 8.49824L12.5449 8.96948Z" fill="#6F3E1D"/>
<path fill-rule="evenodd" clip-rule="evenodd" d="M12.5117 8.86964H12.3953C12.3953 8.86964 12.3165 9.1777 12.1358 9.02367C11.955 8.86964 11.7 8.92394 11.7 8.92394C11.7 8.92394 11.7229 8.73959 12.0004 8.66631C12.2779 8.59303 12.3953 7.99795 12.3953 7.99795C12.3953 7.99795 12.788 7.85177 13.027 8.15134C13.2659 8.45091 13.6025 8.3231 13.6025 8.3231C13.6025 8.3231 13.8485 8.46298 13.7255 8.66631C13.6025 8.86964 13.3926 9.01839 13.2098 8.86964C13.027 8.7209 12.5117 8.86964 12.5117 8.86964Z" fill="#009D29"/>
</g>
</svg>
