<svg width="24" height="18" viewBox="0 0 24 18" fill="none" xmlns="http://www.w3.org/2000/svg">
<mask id="mask0_395_52270" style="mask-type:luminance" maskUnits="userSpaceOnUse" x="0" y="0" width="24" height="18">
<rect width="24" height="18" fill="white"/>
</mask>
<g mask="url(#mask0_395_52270)">
<path fill-rule="evenodd" clip-rule="evenodd" d="M0 0H24V18H0V0Z" fill="#F7FCFF"/>
<path fill-rule="evenodd" clip-rule="evenodd" d="M24 14.1748H0V11.957H24V14.1748ZM24 10.3291H0V8.11133H24V10.3291ZM24 6.34277H0V4.125H24V6.34277Z" fill="#4564F9"/>
<path fill-rule="evenodd" clip-rule="evenodd" d="M0 0H24V2.25H0V0Z" fill="#4564F9"/>
<rect y="15.75" width="24" height="2.25" fill="#4564F9"/>
<path fill-rule="evenodd" clip-rule="evenodd" d="M0 0H11.25V10.35H0V0Z" fill="#4564F9"/>
<path fill-rule="evenodd" clip-rule="evenodd" d="M4.5 0H6.75V4.1279H11.25V6.329H6.75V10.875H4.5V6.329H0V4.1279H4.5V0Z" fill="#F7FCFF"/>
</g>
</svg>
