<svg width="24" height="18" viewBox="0 0 24 18" fill="none" xmlns="http://www.w3.org/2000/svg">
<mask id="mask0_395_54480" style="mask-type:luminance" maskUnits="userSpaceOnUse" x="0" y="0" width="24" height="18">
<rect width="24" height="18" fill="white"/>
</mask>
<g mask="url(#mask0_395_54480)">
<path fill-rule="evenodd" clip-rule="evenodd" d="M0 0.0749512H24V18.075H0V0.0749512Z" fill="#2B409A"/>
</g>
<rect width="13.5" height="10.5" fill="#2B409A"/>
<mask id="mask1_395_54480" style="mask-type:luminance" maskUnits="userSpaceOnUse" x="0" y="0" width="14" height="11">
<rect width="13.5" height="10.5" fill="white"/>
</mask>
<g mask="url(#mask1_395_54480)">
<path d="M-1.50317 9.74983L1.46754 11.0527L13.5674 1.41653L15.1344 -0.519623L11.9577 -0.955091L7.02241 3.19743L3.05003 5.99525L-1.50317 9.74983Z" fill="#F7FCFF"/>
<path d="M-1.0965 10.6627L0.416945 11.4188L14.5717 -0.699463H12.4467L-1.0965 10.6627Z" fill="#F50100"/>
<path d="M15.0032 9.74983L12.0325 11.0527L-0.0674362 1.41653L-1.63442 -0.519623L1.54233 -0.955091L6.47759 3.19743L10.45 5.99525L15.0032 9.74983Z" fill="#F7FCFF"/>
<path d="M14.9018 10.405L13.3884 11.1611L7.36111 5.97266L5.57416 5.39297L-1.78521 -0.51293H0.339834L7.69507 5.25279L9.64879 5.9479L14.9018 10.405Z" fill="#F50100"/>
<mask id="path-9-outside-1_395_54480" maskUnits="userSpaceOnUse" x="-2" y="-2" width="17" height="14" fill="black">
<rect fill="white" x="-2" y="-2" width="17" height="14"/>
<path fill-rule="evenodd" clip-rule="evenodd" d="M7.48838 0H5.98838V4.5H0V6H5.98838V10.5H7.48838V6H13.5V4.5H7.48838V0Z"/>
</mask>
<path fill-rule="evenodd" clip-rule="evenodd" d="M7.48838 0H5.98838V4.5H0V6H5.98838V10.5H7.48838V6H13.5V4.5H7.48838V0Z" fill="#F50100"/>
<path d="M5.98838 0V-1.5H4.48838V0H5.98838ZM7.48838 0H8.98838V-1.5H7.48838V0ZM5.98838 4.5V6H7.48838V4.5H5.98838ZM0 4.5V3H-1.5V4.5H0ZM0 6H-1.5V7.5H0V6ZM5.98838 6H7.48838V4.5H5.98838V6ZM5.98838 10.5H4.48838V12H5.98838V10.5ZM7.48838 10.5V12H8.98838V10.5H7.48838ZM7.48838 6V4.5H5.98838V6H7.48838ZM13.5 6V7.5H15V6H13.5ZM13.5 4.5H15V3H13.5V4.5ZM7.48838 4.5H5.98838V6H7.48838V4.5ZM5.98838 0V1.5H7.48838V0V-1.5H5.98838V0ZM5.98838 4.5H7.48838V0H5.98838H4.48838V4.5H5.98838ZM0 4.5V6H5.98838V4.5V3H0V4.5ZM0 6H1.5V4.5H0H-1.5V6H0ZM5.98838 6V4.5H0V6V7.5H5.98838V6ZM5.98838 10.5H7.48838V6H5.98838H4.48838V10.5H5.98838ZM7.48838 10.5V9H5.98838V10.5V12H7.48838V10.5ZM7.48838 6H5.98838V10.5H7.48838H8.98838V6H7.48838ZM13.5 6V4.5H7.48838V6V7.5H13.5V6ZM13.5 4.5H12V6H13.5H15V4.5H13.5ZM7.48838 4.5V6H13.5V4.5V3H7.48838V4.5ZM7.48838 0H5.98838V4.5H7.48838H8.98838V0H7.48838Z" fill="#F7FCFF" mask="url(#path-9-outside-1_395_54480)"/>
</g>
<path d="M18.2387 13.9131C18.1926 13.9131 18.0253 13.823 18.0253 13.823C18.0253 13.823 17.9042 14.0147 17.8407 14.0258C17.7773 14.0371 17.4486 13.9076 17.4486 13.9076C17.4486 13.9076 17.2179 14.0878 17.166 14.0765C17.1141 14.0654 16.5836 13.9527 16.5836 13.9527L16.2952 13.7723C16.2952 13.7723 16.1338 14.0315 16.128 14.0258C16.1222 14.0201 15.6436 13.93 15.6436 13.93C15.6436 13.93 15.7877 13.7329 15.7877 13.7272C15.7877 13.7216 15.7185 13.6989 15.7185 13.6989L15.6147 13.7836L15.188 13.823L15.2918 13.5299L15.459 13.282L17.5063 11.3376L18.5155 13.158L18.3656 13.7046C18.3656 13.7046 18.2848 13.9131 18.2387 13.9131Z" fill="#6A4C2D"/>
<path d="M16.2829 13.5457C16.3541 13.6319 17.2935 14.5921 17.4458 15.0464C17.5981 15.5007 16.2105 14.9204 16.2105 14.9204C16.2105 14.9204 17.9577 13.7855 18.8305 13.7855C19.7033 13.7855 21.4187 14.9204 21.4187 14.9204C21.4187 14.9204 20.2676 15.731 20.2794 15.2199C20.2912 14.7087 20.8197 13.7018 21.4504 13.5457" stroke="#FFBB00" stroke-width="0.5" stroke-linecap="round" stroke-linejoin="round"/>
<path d="M22.1564 13.62L21.8694 13.5132L21.6153 13.1766L20.5632 13.0993L19.6039 12.8375L19.1995 13.1073L19.4172 13.3917L19.9495 13.5875L22.1564 13.62Z" fill="#F7FCFF"/>
<path d="M17.9541 7.39956C17.9639 7.42413 18.1784 7.38056 18.224 7.50908C18.455 7.16808 18.726 7.49328 18.726 7.49328L18.954 7.22327L19.2115 7.46711L19.4478 7.44871L19.6946 8.02813L17.7465 7.99158C17.7465 7.99158 17.9444 7.37499 17.9541 7.39956Z" fill="#656263"/>
<path d="M19.9737 9.86576C19.958 9.68229 19.7954 9.66083 19.7046 9.66696C19.6137 9.67309 19.5323 9.7495 19.5323 9.7495L19.2319 9.56296C19.2319 9.56296 19.3822 8.63618 19.5417 8.57817C19.6933 8.47134 19.7201 8.42512 19.7201 8.40083C19.7201 8.3763 19.6639 8.27701 19.6639 8.27701L18.6841 8.16382L17.7577 8.27088C17.7577 8.27088 17.6857 8.41592 17.6952 8.45884C17.7046 8.50152 17.7077 8.54751 17.8735 8.67297C18.0571 8.81092 18.1833 9.60282 18.1833 9.60282C18.1833 9.60282 17.9237 9.72804 17.908 9.71271C17.8923 9.69762 17.8141 9.68229 17.7733 9.68842C17.7328 9.69455 17.5981 9.76176 17.5981 9.93603C17.5981 10.1105 17.7328 10.2115 17.7328 10.2115C17.7328 10.2115 18.6185 10.8605 18.75 11.099C18.8784 10.8115 19.7201 10.1624 19.8202 10.1134C19.861 10.0891 19.9894 10.0492 19.9737 9.86576Z" fill="#656263"/>
<path d="M20.8576 9.00106C20.9312 8.95318 21.4213 8.92913 21.539 9.00106C21.6566 9.07298 21.7007 9.42742 21.7007 9.42742C21.7007 9.42742 21.7743 9.55194 21.7792 9.64297C21.784 9.73399 21.7939 9.79625 21.7939 9.79625C21.7939 9.79625 22.186 10.2945 22.1909 10.7447C22.235 11.0513 22.2251 11.8703 22.1028 12.1816C22.0977 12.5698 21.9312 12.8235 21.9312 12.8235C21.9312 12.8235 21.9703 12.8905 21.9655 12.9624C21.9604 13.0343 21.9213 13.1013 21.9213 13.1013L21.5538 13.2593L21.1469 13.1923L20.686 11.8463L20.7938 9.57104L20.8233 9.45619L20.7743 9.14963C20.7743 9.14963 20.7842 9.04893 20.8576 9.00106Z" fill="black"/>
<path d="M18.1966 10.1959C18.1966 10.1959 18.6925 10.1959 18.746 10.3532C18.8399 10.1436 19.2687 10.1568 19.2687 10.1568C19.5279 10.1481 19.7871 10.1393 20.046 10.1306C20.0506 10.7419 20.055 11.3531 20.0596 11.9644C19.9078 12.6759 19.3805 13.1782 18.7996 13.392C18.107 13.1737 17.6693 12.6018 17.5264 11.9512C17.4994 11.3706 17.4726 10.7897 17.4458 10.2091C17.6961 10.2047 17.9463 10.2004 18.1966 10.1959Z" fill="#F7FCFF"/>
<path d="M17.7134 10.2024L18.8068 13.0497L19.7945 10.1404C19.4881 10.1597 18.8307 10.0932 18.7491 10.3663C18.6227 10.122 17.9311 10.2206 17.7134 10.2024V10.2024Z" fill="#006B00"/>
<path fill-rule="evenodd" clip-rule="evenodd" d="M18.9807 10.6488C18.9807 10.6488 19.0801 10.9083 18.9807 11.0367C18.8812 11.1651 18.9889 11.2703 19.0489 11.2703C19.1089 11.2703 19.3148 11.4743 19.1477 11.4743C18.9807 11.4743 18.8864 11.4108 18.8864 11.59C18.8864 11.7693 19.1171 12.5764 19.0489 12.77C18.9807 12.9635 18.9977 13.1116 19.0955 13.0624C19.1934 13.0132 19.2546 12.8868 19.2012 12.6433C19.1477 12.3998 19.0955 12.4573 19.0955 12.2468C19.0955 12.0364 19.1477 11.8022 19.1477 11.8022C19.1477 11.8022 19.2355 11.868 19.1731 12.1082C19.1106 12.3485 19.2504 12.6798 19.2504 12.77C19.2504 12.8601 19.2546 13.1081 19.2012 13.1327C19.1477 13.1573 19.0987 13.3071 19.0489 13.1929C18.9991 13.0788 18.9679 12.8905 18.9041 13.02C18.8403 13.1496 18.8526 13.4474 18.7862 13.4618C18.7198 13.4761 18.6207 13.6173 18.6207 13.5606C18.6207 13.504 18.5272 13.4016 18.5557 13.3062C18.5841 13.2109 18.6091 13.1997 18.6322 13.2911C18.6552 13.3825 18.7522 13.3816 18.7522 13.3062C18.7522 13.2308 18.7182 13.2676 18.7522 13.0959C18.7862 12.9242 18.824 12.697 18.7522 12.7107C18.6805 12.7243 18.5703 12.8361 18.5557 12.6299C18.541 12.4236 18.482 12.3271 18.5295 12.287C18.577 12.2468 18.6402 12.1033 18.6605 12.2162C18.6807 12.329 18.5915 12.4368 18.6061 12.4774C18.6207 12.5181 18.6288 12.6102 18.6905 12.533C18.7522 12.4559 18.7885 12.3287 18.8347 12.4466C18.8809 12.5645 18.8819 12.4715 18.7862 12.2468C18.6905 12.0222 18.6092 11.8972 18.6207 11.7C18.6322 11.5027 18.6167 11.4289 18.6322 11.3655C18.6477 11.3021 18.4608 10.9933 18.5082 10.9044C18.5557 10.8155 18.5738 10.5285 18.6322 10.5801C18.6905 10.6318 18.7205 10.7012 18.6905 10.7785C18.6605 10.8557 18.6304 10.9325 18.6605 10.9846C18.6905 11.0367 18.7935 11.1872 18.8141 11.1493C18.8347 11.1115 18.9041 11.1481 18.9041 10.9338C18.9041 10.7195 18.8268 10.6442 18.8755 10.5933C18.9242 10.5424 18.9807 10.6488 18.9807 10.6488Z" fill="#FFD100"/>
<path d="M19.8007 10.14L19.9482 10.1365L19.6849 10.4624L20.0008 10.8227L19.3794 11.5877L19.9658 12.2773C19.9014 12.4317 19.8266 12.5723 19.7269 12.6994L19.39 12.3355L20.0008 11.5913L19.4988 11.0354L19.8007 10.14Z" fill="#1E5AA6"/>
<path d="M17.5362 10.2084L17.8311 10.5204L17.5188 10.9012L18.1682 11.591L17.631 12.2942C17.6954 12.4487 17.7879 12.6201 17.8873 12.747L18.2068 12.3525L17.5504 11.6389L18.0314 11.042L17.6942 10.2048L17.5362 10.2084Z" fill="#1E5AA6"/>
<path d="M18.4245 12.0574L18.1929 12.3592L19.0213 13.2959C19.1676 13.2238 19.2824 13.1415 19.4077 13.0422L18.9757 12.555L19.1514 12.0505L19.4041 12.3352L18.6142 13.32C18.482 13.265 18.3357 13.1792 18.2035 13.0728L18.6212 12.555L18.4245 12.0574Z" fill="#1E5AA6"/>
<path d="M21.289 9.63825C21.289 9.68613 21.3412 12.5123 21.3984 12.4853C21.5406 12.4181 21.5733 12.5648 21.5733 12.5648C21.5733 12.5648 21.6223 13.0296 21.4997 13.0919C21.2791 13.2067 21.1827 13.2321 21.1827 13.2321L20.9705 13.0775C20.9705 13.0775 20.7547 12.7756 20.7058 12.6415C20.6568 12.5075 20.5979 11.9088 20.6174 11.7793C20.637 11.6501 20.6517 10.8931 20.642 10.8549C20.6322 10.8164 20.5931 10.1842 20.6174 10.0884C20.642 9.9927 20.7938 9.57104 20.789 9.57104C20.789 9.57104 21.289 9.59038 21.289 9.63825Z" fill="url(#paint0_linear_395_54480)"/>
<path d="M20.799 9.15466C20.9018 9.15466 20.9802 9.24097 21.0049 9.31762C21.0097 9.3511 20.995 9.37516 20.9998 9.43741C21.0049 9.49967 20.2548 9.45156 20.25 9.44685C20.25 9.44685 20.598 9.11646 20.799 9.15466Z" fill="#FF7000"/>
<path d="M21.6223 13.25C21.6223 13.25 21.8576 13.1972 21.9213 13.1158C21.9606 13.087 22.1665 13.4177 21.6223 13.25Z" fill="white" stroke="black" stroke-width="0.5" stroke-linejoin="round"/>
<path d="M21.2317 9.34487C21.2317 9.36558 21.2149 9.38237 21.1942 9.38237C21.1735 9.38237 21.1567 9.36558 21.1567 9.34487C21.1567 9.32416 21.1735 9.30737 21.1942 9.30737C21.2149 9.30737 21.2317 9.32416 21.2317 9.34487Z" fill="black"/>
<path d="M19.3655 8.93152C19.3655 8.93152 19.7559 9.34444 20.0086 9.33996C20.0544 9.46118 19.8937 9.5739 19.8295 9.62767C19.7009 9.58734 19.5846 9.63498 19.2861 9.27606C19.3047 9.04707 19.3701 8.94048 19.3655 8.93152Z" fill="#F7FCFF"/>
<path d="M20.9179 6.85352C20.9546 7.11834 20.9157 7.17984 20.8984 7.29104C20.8812 7.40225 21.5768 7.44331 21.7558 7.22329C21.7375 7.3221 21.5287 7.72417 20.5825 7.71969C20.9408 8.05197 20.4678 8.3168 20.2656 8.23591C20.6377 7.95764 20.1602 7.79162 19.8937 7.97108C19.9442 7.8185 20.3163 7.05114 20.9179 6.85352Z" fill="#F7FCFF"/>
<path fill-rule="evenodd" clip-rule="evenodd" d="M19.9075 7.96268C19.9133 7.95902 20.135 7.82049 20.3391 7.95779C20.1823 8.08593 20.2173 8.42098 20.2883 8.71268C20.3257 8.60336 20.4923 8.18542 20.8714 8.17752C20.8839 8.74633 20.4689 9.02033 20.385 9.0701C20.3217 9.72285 19.8329 9.62938 19.8245 9.62771C19.8107 9.6322 20.0538 9.46595 20.0217 9.35818C19.9436 8.92347 19.6322 9.0034 19.6087 9.08865C19.5649 9.04728 19.3203 8.51535 19.9075 8.66775C19.6596 8.21941 19.8933 7.99438 19.9075 7.96268Z" fill="#0000FF"/>
<path d="M18.0657 9.04858C18.0657 9.04858 17.6846 9.37166 17.4686 9.26837C17.3079 9.3627 17.1196 9.19668 17.1196 9.19668C17.1196 9.19668 17.34 9.99093 18.1301 9.41647C18.1163 9.24149 18.0748 9.06203 18.0657 9.04858Z" fill="#F7FCFF"/>
<path d="M17.4641 9.25497C17.4961 9.08895 17.6294 9.00806 17.7351 9.16512C17.8774 9.19224 18.0198 8.62226 17.5145 8.71635C17.6569 7.97139 17.2299 7.69312 17.2299 7.69312C17.2299 7.69312 17.0783 8.51897 17.1472 8.67154C17.2161 8.82412 17.0462 8.38879 16.4996 8.26758C16.4904 8.89157 17.1104 9.18328 17.1104 9.18328C17.1104 9.18328 17.285 9.34034 17.4641 9.25497Z" fill="#0000FF"/>
<path d="M16.9475 8.35378C16.7867 8.40306 16.3958 8.1674 16.6438 7.86201C15.8309 7.84408 15.3883 7.1573 15.6593 7.28826C15.9302 7.41922 16.1238 7.14016 16.3259 7.28826C16.0779 7.06399 16.4124 6.88452 16.4124 6.88452C16.4124 6.88452 17.106 7.08662 17.2299 7.68797C17.1886 7.8047 17.1702 8.01105 17.161 8.00209C17.161 7.99761 16.7316 7.99462 16.9475 8.35378Z" fill="#F7FCFF"/>
<path d="M18.2452 5.57339C18.2489 5.5528 18.7684 5.37434 18.8034 5.07934C18.8384 4.78433 18.7964 4.98326 18.7964 4.98326C18.7964 4.98326 18.9405 4.84948 18.8879 4.77741C18.835 4.70538 18.8526 4.87007 18.7684 4.86663C18.6842 4.86318 18.7298 4.68823 18.7298 4.68823C18.7298 4.68823 18.7228 4.66764 18.6982 4.65735C18.663 4.66078 18.5824 4.5853 18.5824 4.5853C18.5824 4.5853 18.5297 4.51668 18.4839 4.73283C18.5085 4.9627 18.6596 4.91808 18.6596 5.06906C18.6596 5.22001 18.5261 5.33665 18.4875 5.34009C18.4489 5.34351 18.4629 5.21315 18.4629 5.21315C18.4629 5.21315 18.4419 5.15139 18.4279 5.15139C18.4139 5.15139 18.5051 5.13766 18.4911 4.96612C18.4595 4.76027 18.4349 5.01416 18.3787 5.00386C18.3225 4.99357 18.3647 4.81517 18.3857 4.79459C18.4067 4.774 18.3611 4.68823 18.2382 4.90781C18.2276 5.01416 18.2136 4.88036 18.189 4.88722C18.147 4.97299 18.154 5.03475 18.2136 5.11366C18.3015 5.19256 18.3577 5.27147 18.3541 5.31264C18.3507 5.35382 18.3048 5.44645 18.2419 5.44645C18.1786 5.44645 18.2452 5.33323 18.2419 5.29547C18.2382 5.25774 18.133 5.12052 18.133 5.12052C18.133 5.12052 18.0592 5.00386 18.0662 5.00044C18.0732 4.99699 17.8977 5.16853 18.0029 5.25774C17.9223 5.24746 17.9153 5.27833 17.9153 5.27833C17.9153 5.31951 18.0242 5.33665 18.0382 5.40869C18.0522 5.48076 17.9257 5.52191 17.9257 5.52191C17.9257 5.52191 17.9786 5.59396 18.1258 5.45331C18.1294 5.5425 18.0698 5.60426 18.0698 5.60426C18.1188 5.62598 18.1574 5.62369 18.1644 5.67975C18.1644 5.67974 18.2419 5.59395 18.2452 5.57339Z" fill="#CDAD56"/>
<path d="M17.6827 5.67979C17.6827 5.67979 17.6171 5.58459 17.6142 5.56584C17.611 5.54711 17.2913 5.58952 17.14 5.20838C17.0416 5.02731 17.14 5.13346 17.14 5.13346L17.146 5.04604C17.146 5.04604 17.0413 4.92086 17.086 4.8553C17.1307 4.78975 17.1123 4.93959 17.1698 4.93989C17.2413 4.93678 17.2026 4.77755 17.2026 4.77755C17.2026 4.77755 17.2086 4.75883 17.2295 4.74947C17.2592 4.75258 17.2715 4.84651 17.2983 4.85276C17.3251 4.85901 17.3806 4.74223 17.398 4.71821C17.4226 4.71478 17.4216 4.62147 17.4605 4.81814C17.4397 5.02731 17.2623 4.98673 17.2623 5.1241C17.2623 5.26144 17.3755 5.36758 17.4083 5.37072C17.4412 5.37383 17.4293 5.25521 17.4293 5.25521C17.4293 5.25521 17.4472 5.19902 17.459 5.19902C17.4711 5.19902 17.3548 5.22083 17.3668 5.06474C17.3936 4.9186 17.453 5.07415 17.5008 5.06476C17.5485 5.0554 17.4952 4.91023 17.509 4.88806C17.5121 4.86589 17.5823 4.77069 17.6096 4.98079C17.6185 5.07757 17.6726 4.89749 17.6933 4.90374C17.7293 4.98178 17.6776 5.08601 17.627 5.15782C17.5524 5.2296 17.5186 5.30827 17.5218 5.34575C17.5246 5.38319 17.5423 5.42975 17.5961 5.42975C17.6497 5.42975 17.6142 5.36447 17.6171 5.33013C17.62 5.2958 17.7095 5.18463 17.7095 5.18463C17.7271 5.15721 17.7124 5.10594 17.731 5.08224C17.7602 5.08254 17.7722 5.04293 17.8019 5.15218C17.8319 5.26144 17.8676 5.08037 17.8676 5.08037C17.8676 5.08037 17.9093 5.21463 17.8198 5.2958C17.8883 5.28644 17.8944 5.31452 17.8944 5.31452C17.8944 5.35199 17.8618 5.36758 17.8497 5.43314C17.8376 5.4987 17.8854 5.53617 17.8854 5.53617C17.8854 5.53617 17.8408 5.60173 17.7155 5.47373C17.7124 5.5549 17.7633 5.61109 17.7633 5.61109C17.7213 5.63088 17.6887 5.62878 17.6827 5.67979Z" fill="#CDAD56"/>
<path d="M18.5066 5.60579C18.4298 5.82999 18.153 5.74493 18.153 5.74493C18.153 5.74493 18.1622 5.85713 18.1347 5.91097C18.1574 5.92767 18.321 6.05355 18.4928 6.08602C18.7399 6.13271 19.246 6.00497 19.4159 6.19372C19.5858 6.38247 19.5768 6.53481 19.5768 6.53481C19.5768 6.53481 19.3558 6.56006 19.4172 6.63791C19.4571 6.68846 19.5671 6.72602 19.5768 6.77827C19.6078 6.94457 19.4731 7.24378 19.5216 7.35619C19.4451 7.36302 19.439 7.44132 19.439 7.44132C19.4347 7.53022 19.2139 7.4774 19.2139 7.4774C19.2139 7.4774 19.3517 7.13168 19.3609 7.05103C19.37 6.97014 19.2643 6.82653 19.1818 6.82653C19.099 6.82653 19.0394 7.08239 19.0394 7.08239C19.0394 7.08239 18.9981 7.2753 19.0119 7.29322C19.0257 7.31114 18.9566 7.23049 18.9566 7.23049C18.9566 7.23049 18.935 7.30885 18.8994 7.35619C18.8594 7.40943 18.8051 7.43236 18.8051 7.43236C18.8051 7.43236 18.7638 7.31562 18.7776 7.27082C18.7913 7.22601 19.0027 7.05103 18.9844 6.92534C18.9762 6.86986 18.9689 6.77304 18.8994 6.74091C18.8114 6.70024 18.6501 6.72991 18.5527 6.70984C18.4991 6.80106 18.4745 7.30218 18.5112 7.33378C18.5481 7.36515 18.4195 7.43236 18.4195 7.43236L18.2679 7.43684C18.2655 7.36892 18.3572 7.18333 18.3572 7.02627C18.3572 6.86921 18.3688 6.70088 18.3688 6.70088C18.3688 6.70088 18.2669 6.72652 18.2126 6.82653C18.1671 6.91038 18.1672 7.06888 18.1714 7.09136C18.1805 7.14064 18.2264 7.27978 18.2126 7.32034C18.1989 7.36067 17.9602 7.41443 17.9602 7.41443L17.9508 7.28426C17.9508 7.28426 18.0519 7.22153 18.0519 7.06447C18.0519 6.90741 18.0611 6.68291 18.0565 6.66947C18.0538 6.66139 17.9738 6.31769 17.8686 6.08602C17.7984 5.93151 17.6901 5.86071 17.6846 5.84815C17.6709 5.81673 17.6709 5.78082 17.6709 5.78082C17.6709 5.78082 17.5191 5.88854 17.34 5.65965C17.5041 5.5228 17.68 5.62374 17.68 5.62374C17.68 5.62374 17.7259 5.49807 17.9371 5.50705C18.1485 5.51604 18.1897 5.63272 18.1805 5.61926C18.1805 5.61926 18.3367 5.4846 18.5066 5.60579Z" fill="#923F00"/>
<path d="M19.3358 7.94116C19.3394 7.94116 19.7258 7.95248 19.7296 8.15435C19.7335 8.35597 19.6111 8.30386 19.6073 8.30386C19.6034 8.30386 19.3242 8.27013 19.3242 8.27013L19.3358 7.94116Z" fill="#0000FF"/>
<path d="M18.961 7.88477C18.961 7.88477 19.4429 7.88123 19.4161 8.08663C19.3893 8.29227 19.267 8.25124 19.267 8.25124L19.0336 8.23237L18.961 7.88477Z" fill="#F7FCFF"/>
<path d="M18.6894 7.86206L18.9686 7.88446C18.9686 7.88446 19.1368 7.90687 19.1293 8.06392C19.1216 8.22098 18.957 8.22476 18.957 8.22476L18.6855 8.20966L18.6894 7.86206Z" fill="#0000FF"/>
<path d="M18.0358 7.94116C18.0319 7.94116 17.6455 7.95248 17.6417 8.15435C17.6381 8.35597 17.7604 8.30386 17.7643 8.30386C17.7681 8.30386 18.0473 8.27013 18.0473 8.27013L18.0358 7.94116Z" fill="#F7FCFF"/>
<path d="M18.4103 7.88477C18.4103 7.88477 17.9284 7.88123 17.9552 8.08663C17.982 8.29227 18.1043 8.25124 18.1043 8.25124L18.3377 8.23237L18.4103 7.88477Z" fill="#0000FF"/>
<path d="M18.6819 7.86206L18.4027 7.88446C18.4027 7.88446 18.2342 7.90687 18.242 8.06392C18.2497 8.22098 18.414 8.22476 18.414 8.22476L18.6855 8.20966L18.6819 7.86206Z" fill="#F7FCFF"/>
<path d="M19.7151 9.87345C19.789 9.8975 19.7328 10.1213 19.6975 10.142L19.4297 10.1317C19.4297 10.1317 19.6304 9.84255 19.7151 9.87345Z" fill="#5E0043"/>
<path d="M18.0534 10.1833C17.9901 10.0972 17.8984 9.85972 17.814 9.92504C17.7399 9.94909 17.7964 10.1729 17.8316 10.1936L18.0534 10.1833Z" fill="#5E0043"/>
<path d="M17.7208 8.52266L18.6871 9.14052L19.5573 8.56865C19.5573 8.56865 19.7388 8.47078 19.7231 8.40051C19.7076 8.32999 19.6449 8.35759 19.6135 8.36985C19.5824 8.38211 18.7028 8.99077 18.7028 8.99077L17.7669 8.41253C17.7669 8.41253 17.6982 8.39131 17.6856 8.43399C17.6731 8.47691 17.7114 8.5012 17.7208 8.52266Z" fill="#B4B6B9"/>
<path d="M20.9601 13.0705C20.9601 13.0705 20.5378 13.198 20.6555 13.2016C20.7426 13.2043 21.1621 13.2016 21.1621 13.2016L20.9601 13.0705Z" fill="#FF7000"/>
<path d="M21.131 13.2106L20.756 13.2212C20.756 13.2212 20.6617 13.3049 20.6556 13.3249C20.6498 13.3452 20.7176 13.3509 20.7176 13.3509C20.7176 13.3509 21.1045 13.4492 21.3972 13.3855C21.5449 13.3351 21.5707 13.2745 21.4672 13.2377C21.3639 13.2009 21.1339 13.212 21.131 13.2106Z" fill="#FF7000"/>
<path d="M16.793 9.74232C16.793 9.74232 16.7442 9.8923 16.793 9.9673C16.8418 10.0423 17.1488 10.6491 17.1488 10.6491C17.1488 10.6491 17.3582 10.3967 17.4349 10.3899C17.5116 10.3833 17.4766 11.0445 17.4766 11.0445C17.4766 11.0445 17.3512 11.1603 17.2744 11.1535C17.1976 11.1466 17.4626 11.4127 17.4556 11.6376C17.4487 11.8626 17.1069 12.9806 16.9814 13.0009C16.8558 13.0214 16.7474 12.7904 16.7474 12.5907C16.7474 12.391 16.8767 12.0739 16.8697 11.9852C16.8628 11.8966 16.2457 12.9355 16.2084 13.0977C16.2013 13.1284 16.2419 13.2396 16.2419 13.2396C16.2419 13.2396 16.0001 13.2594 16.0535 13.5669C15.3419 13.3214 14.9931 12.8988 15.0001 12.4694C15.0028 12.3048 14.8458 11.9175 15.0001 11.4899C15.2485 10.8015 15.8539 10.0158 15.8582 9.94018C15.8652 9.81731 15.914 9.76284 15.921 9.69469C15.9279 9.62653 15.9 9.27869 15.9698 9.21738C16.0396 9.15607 16.4023 9.00608 16.493 9.01292C16.5837 9.01976 16.6604 9.08107 16.6604 9.08107C16.6604 9.08107 17.0023 9.08107 17.0232 9.21054C17.0441 9.34024 16.9535 9.38788 16.9535 9.38788C16.9535 9.38788 17.0023 9.57206 16.793 9.74232Z" fill="#8A9396"/>
<path d="M16.9965 13.6091C17.1118 13.6888 17.378 13.7359 17.378 13.7359C17.378 13.7359 16.724 13.9121 16.0596 13.5702C15.9988 13.3039 16.2021 13.2445 16.2524 13.2424C16.3698 13.2117 16.8812 13.5291 16.9965 13.6091Z" fill="#2B2B2B"/>
<path d="M17.7971 13.5812C18.5127 13.9594 18.5892 13.7048 19.0822 13.3453C19.1164 13.3203 19.2791 13.9227 19.97 13.5812C20.9476 13.098 19.1319 12.2926 18.8752 12.31C18.6186 12.328 17.0816 13.203 17.7971 13.5812Z" fill="#00713D"/>
<defs>
<linearGradient id="paint0_linear_395_54480" x1="21.2065" y1="11.7052" x2="21.7634" y2="11.6991" gradientUnits="userSpaceOnUse">
<stop stop-color="#D5DFFF"/>
<stop offset="1" stop-color="white"/>
</linearGradient>
</defs>
</svg>
