<svg width="24" height="18" viewBox="0 0 24 18" fill="none" xmlns="http://www.w3.org/2000/svg">
<mask id="mask0_395_54712" style="mask-type:luminance" maskUnits="userSpaceOnUse" x="0" y="0" width="24" height="18">
<rect width="24" height="18" fill="white"/>
</mask>
<g mask="url(#mask0_395_54712)">
<path fill-rule="evenodd" clip-rule="evenodd" d="M0 0H24V18H0V0Z" fill="#C51918"/>
<path fill-rule="evenodd" clip-rule="evenodd" d="M3 3H21V15H3V3Z" fill="#4564F9"/>
<path d="M20 4V14H4V4H20Z" stroke="#CBDAFF" stroke-opacity="0.1" stroke-width="2"/>
<mask id="mask1_395_54712" style="mask-type:luminance" maskUnits="userSpaceOnUse" x="3" y="3" width="18" height="12">
<path fill-rule="evenodd" clip-rule="evenodd" d="M3 3H21V15H3V3Z" fill="white"/>
<path d="M20 4V14H4V4H20Z" stroke="white" stroke-width="2"/>
</mask>
<g mask="url(#mask1_395_54712)">
<path d="M12.375 14.25L11.6553 15.5088L12.3613 15.9131L13.0742 15.5205L12.375 14.25ZM12.375 14.25L13.0752 15.5195H13.0762L13.0781 15.5186L13.0977 15.5068C13.1095 15.5001 13.1261 15.4916 13.1455 15.4805C13.1842 15.4582 13.2371 15.4264 13.3027 15.3867C13.4343 15.3071 13.6175 15.1927 13.834 15.0459C14.2642 14.7541 14.843 14.3245 15.4277 13.7783C16.5393 12.7399 17.9502 11.0181 17.9502 8.81445C17.9501 6.58214 16.5092 4.94647 15.373 3.9873C14.7784 3.48528 14.1906 3.10311 13.7549 2.84668C13.5355 2.71757 13.3506 2.61778 13.2168 2.54883C13.1499 2.51432 13.0954 2.48711 13.0557 2.46777C13.0358 2.4581 13.0192 2.45018 13.0068 2.44434C13.0007 2.44145 12.9954 2.43944 12.9912 2.4375L12.9834 2.43359H12.9824C12.9804 2.4368 12.95 2.50167 12.375 3.75L12.9814 2.43262L12.3613 2.14746L11.7451 2.44434L12.1699 3.3252C11.7449 2.44405 11.7445 2.44416 11.7441 2.44434H11.7432L11.7412 2.44531C11.7398 2.44601 11.7382 2.44732 11.7363 2.44824C11.7322 2.45024 11.7268 2.45306 11.7207 2.45605C11.7086 2.46203 11.6924 2.46957 11.6729 2.47949C11.6336 2.49939 11.58 2.52795 11.5137 2.56348C11.381 2.63454 11.1967 2.73684 10.9785 2.86914C10.5454 3.13185 9.96124 3.52192 9.37012 4.02734C8.2494 4.98564 6.79993 6.62107 6.7998 8.81445C6.7998 10.9786 8.21834 12.7017 9.31641 13.7393C9.89811 14.2889 10.4745 14.7255 10.9023 15.0234C11.1173 15.1731 11.2983 15.2905 11.4287 15.3721C11.4941 15.4129 11.5476 15.4449 11.5859 15.4678C11.6049 15.4791 11.6202 15.4883 11.6318 15.4951L11.6514 15.5068L11.6533 15.5078H11.6543C11.6571 15.5037 11.6986 15.4324 12.375 14.25Z" stroke="#C1C9F1" stroke-opacity="0.1182" stroke-width="2.9"/>
<path d="M12.3 13.4387L11.4954 14.6448L12.2844 15.1711L13.0833 14.6584L12.3 13.4387ZM12.3 4.52759C11.5984 3.28062 11.5887 3.26389 11.5881 3.26392L11.5872 3.26489L11.5852 3.26587C11.5838 3.26668 11.5821 3.26778 11.5803 3.2688C11.5767 3.27089 11.5718 3.27366 11.5667 3.27661C11.5565 3.28248 11.5432 3.28986 11.5276 3.29907C11.4961 3.31769 11.4539 3.34316 11.4026 3.37524C11.2998 3.43945 11.1592 3.53134 10.9934 3.64868C10.6643 3.88158 10.2223 4.22547 9.77563 4.67114C8.9157 5.52911 7.84996 6.95435 7.84985 8.82544C7.84985 10.672 8.8924 12.1663 9.72583 13.0852C10.1622 13.5663 10.5948 13.9483 10.9172 14.2102C11.0794 14.3419 11.2168 14.4459 11.3167 14.5188C11.3666 14.5552 11.4076 14.5837 11.4377 14.6047C11.4529 14.6153 11.4652 14.6245 11.4749 14.6311C11.4796 14.6343 11.4842 14.6367 11.4875 14.6389C11.489 14.6399 11.4903 14.641 11.4915 14.6418L11.4934 14.6428L11.4944 14.6438L12.3 13.4387L13.0842 14.6575H13.0852L13.0872 14.6555C13.0885 14.6546 13.0903 14.6537 13.092 14.6526C13.0955 14.6503 13.0999 14.648 13.1047 14.6448C13.1146 14.6383 13.1274 14.6297 13.1428 14.6194C13.1736 14.5987 13.2153 14.5701 13.2659 14.5344C13.3669 14.463 13.5058 14.362 13.6692 14.2327C13.9942 13.9754 14.429 13.5983 14.8684 13.1194C15.7138 12.198 16.7502 10.7047 16.7502 8.82544C16.7501 6.92267 15.6913 5.49771 14.8176 4.63696C14.3673 4.19338 13.9221 3.85426 13.5901 3.62622C13.4228 3.51131 13.2801 3.42219 13.176 3.35962C13.124 3.32833 13.0811 3.30358 13.0491 3.2854C13.0331 3.27631 13.0195 3.26873 13.009 3.26294C13.0039 3.26009 12.9991 3.25717 12.9954 3.25513C12.9936 3.25418 12.9919 3.25297 12.9905 3.2522L12.9885 3.25122H12.9875C12.9853 3.25435 12.9504 3.31774 12.3 4.52759ZM12.3 4.52759L12.9866 3.25024L12.2844 2.87231L11.5891 3.26392L12.3 4.52759Z" fill="#CCE0E5"/>
<path d="M12.3 13.4387L11.4954 14.6448L12.2844 15.1711L13.0833 14.6584L12.3 13.4387ZM12.3 4.52759C11.5984 3.28062 11.5887 3.26389 11.5881 3.26392L11.5872 3.26489L11.5852 3.26587C11.5838 3.26668 11.5821 3.26778 11.5803 3.2688C11.5767 3.27089 11.5718 3.27366 11.5667 3.27661C11.5565 3.28248 11.5432 3.28986 11.5276 3.29907C11.4961 3.31769 11.4539 3.34316 11.4026 3.37524C11.2998 3.43945 11.1592 3.53134 10.9934 3.64868C10.6643 3.88158 10.2223 4.22547 9.77563 4.67114C8.9157 5.52911 7.84996 6.95435 7.84985 8.82544C7.84985 10.672 8.8924 12.1663 9.72583 13.0852C10.1622 13.5663 10.5948 13.9483 10.9172 14.2102C11.0794 14.3419 11.2168 14.4459 11.3167 14.5188C11.3666 14.5552 11.4076 14.5837 11.4377 14.6047C11.4529 14.6153 11.4652 14.6245 11.4749 14.6311C11.4796 14.6343 11.4842 14.6367 11.4875 14.6389C11.489 14.6399 11.4903 14.641 11.4915 14.6418L11.4934 14.6428L11.4944 14.6438L12.3 13.4387L13.0842 14.6575H13.0852L13.0872 14.6555C13.0885 14.6546 13.0903 14.6537 13.092 14.6526C13.0955 14.6503 13.0999 14.648 13.1047 14.6448C13.1146 14.6383 13.1274 14.6297 13.1428 14.6194C13.1736 14.5987 13.2153 14.5701 13.2659 14.5344C13.3669 14.463 13.5058 14.362 13.6692 14.2327C13.9942 13.9754 14.429 13.5983 14.8684 13.1194C15.7138 12.198 16.7502 10.7047 16.7502 8.82544C16.7501 6.92267 15.6913 5.49771 14.8176 4.63696C14.3673 4.19338 13.9221 3.85426 13.5901 3.62622C13.4228 3.51131 13.2801 3.42219 13.176 3.35962C13.124 3.32833 13.0811 3.30358 13.0491 3.2854C13.0331 3.27631 13.0195 3.26873 13.009 3.26294C13.0039 3.26009 12.9991 3.25717 12.9954 3.25513C12.9936 3.25418 12.9919 3.25297 12.9905 3.2522L12.9885 3.25122H12.9875C12.9853 3.25435 12.9504 3.31774 12.3 4.52759ZM12.3 4.52759L12.9866 3.25024L12.2844 2.87231L11.5891 3.26392L12.3 4.52759Z" stroke="#C1C9F1" stroke-opacity="0.748217" stroke-width="2.9"/>
<path d="M12.3 13.4387L11.4954 14.6448L12.2844 15.1711L13.0833 14.6584L12.3 13.4387ZM12.3 4.52759C11.5984 3.28062 11.5887 3.26389 11.5881 3.26392L11.5872 3.26489L11.5852 3.26587C11.5838 3.26668 11.5821 3.26778 11.5803 3.2688C11.5767 3.27089 11.5718 3.27366 11.5667 3.27661C11.5565 3.28248 11.5432 3.28986 11.5276 3.29907C11.4961 3.31769 11.4539 3.34316 11.4026 3.37524C11.2998 3.43945 11.1592 3.53134 10.9934 3.64868C10.6643 3.88158 10.2223 4.22547 9.77563 4.67114C8.9157 5.52911 7.84996 6.95435 7.84985 8.82544C7.84985 10.672 8.8924 12.1663 9.72583 13.0852C10.1622 13.5663 10.5948 13.9483 10.9172 14.2102C11.0794 14.3419 11.2168 14.4459 11.3167 14.5188C11.3666 14.5552 11.4076 14.5837 11.4377 14.6047C11.4529 14.6153 11.4652 14.6245 11.4749 14.6311C11.4796 14.6343 11.4842 14.6367 11.4875 14.6389C11.489 14.6399 11.4903 14.641 11.4915 14.6418L11.4934 14.6428L11.4944 14.6438L12.3 13.4387L13.0842 14.6575H13.0852L13.0872 14.6555C13.0885 14.6546 13.0903 14.6537 13.092 14.6526C13.0955 14.6503 13.0999 14.648 13.1047 14.6448C13.1146 14.6383 13.1274 14.6297 13.1428 14.6194C13.1736 14.5987 13.2153 14.5701 13.2659 14.5344C13.3669 14.463 13.5058 14.362 13.6692 14.2327C13.9942 13.9754 14.429 13.5983 14.8684 13.1194C15.7138 12.198 16.7502 10.7047 16.7502 8.82544C16.7501 6.92267 15.6913 5.49771 14.8176 4.63696C14.3673 4.19338 13.9221 3.85426 13.5901 3.62622C13.4228 3.51131 13.2801 3.42219 13.176 3.35962C13.124 3.32833 13.0811 3.30358 13.0491 3.2854C13.0331 3.27631 13.0195 3.26873 13.009 3.26294C13.0039 3.26009 12.9991 3.25717 12.9954 3.25513C12.9936 3.25418 12.9919 3.25297 12.9905 3.2522L12.9885 3.25122H12.9875C12.9853 3.25435 12.9504 3.31774 12.3 4.52759ZM12.3 4.52759L12.9866 3.25024L12.2844 2.87231L11.5891 3.26392L12.3 4.52759Z" stroke="#C51918" stroke-width="2.9"/>
<mask id="mask2_395_54712" style="mask-type:luminance" maskUnits="userSpaceOnUse" x="9" y="4" width="7" height="10">
<path d="M13.1086 12.2346H13.1077C13.107 12.2342 13.106 12.2336 13.1047 12.2327H13.1067L13.1086 12.2346ZM12.3118 6.28638C12.4621 6.40617 12.623 6.54533 12.7825 6.70239C13.4086 7.31922 13.8497 8.04302 13.8499 8.82544C13.8499 9.63168 13.3862 10.445 12.7317 11.1584C12.5898 11.3131 12.4456 11.4529 12.3098 11.5784C12.1694 11.4468 12.0213 11.299 11.8743 11.137C11.2077 10.4021 10.7502 9.58895 10.7502 8.82544C10.7504 8.08675 11.1846 7.36329 11.8245 6.72485C11.9899 6.55982 12.1563 6.41247 12.3118 6.28638ZM13.0139 5.78931L13.012 5.79126L13.011 5.79028C13.0133 5.78895 13.0152 5.7887 13.0159 5.78833L13.0139 5.78931Z" fill="white"/>
<path d="M13.1086 12.2346H13.1077C13.107 12.2342 13.106 12.2336 13.1047 12.2327H13.1067L13.1086 12.2346ZM12.3118 6.28638C12.4621 6.40617 12.623 6.54533 12.7825 6.70239C13.4086 7.31922 13.8497 8.04302 13.8499 8.82544C13.8499 9.63168 13.3862 10.445 12.7317 11.1584C12.5898 11.3131 12.4456 11.4529 12.3098 11.5784C12.1694 11.4468 12.0213 11.299 11.8743 11.137C11.2077 10.4021 10.7502 9.58895 10.7502 8.82544C10.7504 8.08675 11.1846 7.36329 11.8245 6.72485C11.9899 6.55982 12.1563 6.41247 12.3118 6.28638ZM13.0139 5.78931L13.012 5.79126L13.011 5.79028C13.0133 5.78895 13.0152 5.7887 13.0159 5.78833L13.0139 5.78931Z" stroke="white" stroke-width="2.9"/>
</mask>
<g mask="url(#mask2_395_54712)">
<rect x="9.70007" y="10.5" width="5.6" height="1.125" fill="#91CBCB"/>
<path fill-rule="evenodd" clip-rule="evenodd" d="M10.2013 11.3985C10.2013 11.3985 14.1718 11.3999 14.5368 11.2629C14.9017 11.1258 13.8517 13.8935 12.51 13.8935C11.1684 13.8935 10.2013 11.3985 10.2013 11.3985Z" fill="#FDF9A1"/>
<path d="M13.9452 11.0663L13.2319 11.6152C12.1078 10.1543 11.6362 8.643 11.8375 7.10059L12.7299 7.21704C12.5613 8.50893 12.9597 9.78561 13.9452 11.0663Z" fill="#A68861"/>
<path fill-rule="evenodd" clip-rule="evenodd" d="M12.2951 7.22714L11.6481 7.98524C11.6141 8.02514 11.5494 7.99238 11.5614 7.94133L11.7836 6.99739H10.7788C10.7246 6.99739 10.7091 6.92334 10.7587 6.9016L11.6137 6.52677L10.9948 5.71089C10.9643 5.67069 11.0058 5.61577 11.0528 5.63409L12.0268 6.01378L12.2464 5.13014C12.259 5.07952 12.331 5.07956 12.3435 5.13019L12.5619 6.01378L13.5237 5.6393C13.5717 5.62062 13.6132 5.67794 13.5805 5.71769L12.9137 6.52677L13.8177 6.9012C13.8682 6.92213 13.8533 6.99739 13.7986 6.99739H12.9137L13.0519 7.97191C13.0589 8.02147 12.9969 8.04946 12.9644 8.01139L12.2951 7.22714Z" fill="#239E46"/>
<path fill-rule="evenodd" clip-rule="evenodd" d="M11.7001 9.75H15.3001V10.5375H11.7001V9.75Z" fill="#239E46"/>
<path fill-rule="evenodd" clip-rule="evenodd" d="M11.154 9.29437H11.1504C11.14 9.33296 11.1146 9.36505 11.0742 9.39064C11.0338 9.41624 10.9816 9.42903 10.9176 9.42903C10.8664 9.42903 10.8194 9.41978 10.7766 9.40127C10.7338 9.38277 10.6972 9.3556 10.6668 9.31977C10.6364 9.28394 10.6126 9.23944 10.5954 9.18629C10.5782 9.13313 10.5696 9.0719 10.5696 9.0026C10.5696 8.93409 10.578 8.87326 10.5948 8.8201C10.6116 8.76694 10.6356 8.72245 10.6668 8.68662C10.698 8.65079 10.7356 8.62342 10.7796 8.60452C10.8236 8.58562 10.8724 8.57617 10.926 8.57617C11.0012 8.57617 11.064 8.59271 11.1144 8.62578C11.1648 8.65886 11.2036 8.70257 11.2308 8.7569L11.148 8.80652C11.1288 8.76242 11.1002 8.72777 11.0622 8.70257C11.0242 8.67737 10.9788 8.66477 10.926 8.66477C10.8892 8.66477 10.8556 8.67126 10.8252 8.68426C10.7948 8.69725 10.7686 8.71556 10.7466 8.73918C10.7246 8.76281 10.7076 8.79116 10.6956 8.82423C10.6836 8.85731 10.6776 8.89432 10.6776 8.93527V9.06875C10.6776 9.1097 10.6836 9.14691 10.6956 9.18038C10.7076 9.21385 10.7246 9.2424 10.7466 9.26602C10.7686 9.28965 10.7956 9.30796 10.8276 9.32095C10.8596 9.33394 10.8956 9.34044 10.9356 9.34044C10.9644 9.34044 10.9918 9.3367 11.0178 9.32922C11.0438 9.32174 11.0666 9.31052 11.0862 9.29555C11.1058 9.28059 11.1212 9.26189 11.1324 9.23944C11.1436 9.217 11.1492 9.19042 11.1492 9.15971V9.0782H10.9644V8.99079H11.2476V9.41486H11.154V9.29437ZM11.7802 8.59082V9.10112C11.7802 9.17987 11.795 9.23952 11.8246 9.28008C11.8542 9.32064 11.9062 9.34091 11.9806 9.34091C12.055 9.34091 12.107 9.32064 12.1366 9.28008C12.1662 9.23952 12.181 9.17987 12.181 9.10112V8.59082H12.2818V9.0775C12.2818 9.13735 12.2764 9.18932 12.2656 9.23342C12.2548 9.27752 12.2374 9.31414 12.2134 9.34328C12.1894 9.37241 12.158 9.39407 12.1192 9.40825C12.0804 9.42242 12.033 9.42951 11.977 9.42951C11.921 9.42951 11.874 9.42242 11.836 9.40825C11.798 9.39407 11.7674 9.37241 11.7442 9.34328C11.721 9.31414 11.7044 9.27752 11.6944 9.23342C11.6844 9.18932 11.6794 9.13735 11.6794 9.0775V8.59082H11.7802ZM13.2478 9.41533L13.1638 9.172H12.8254L12.7414 9.41533H12.6394L12.9322 8.59082H13.0606L13.3534 9.41533H13.2478ZM12.9972 8.68248H12.9912L12.8496 9.08411H13.1388L12.9972 8.68248ZM14.3855 8.72076H14.3795L14.3087 8.85896L14.1083 9.21806L13.9079 8.85896L13.8371 8.72076H13.8311V9.41533H13.7327V8.59082H13.8671L14.1071 9.03497H14.1131L14.3543 8.59082H14.4839V9.41533H14.3855V8.72076Z" fill="#C51918"/>
</g>
</g>
</g>
</svg>
