<svg width="24" height="18" viewBox="0 0 24 18" fill="none" xmlns="http://www.w3.org/2000/svg">
<mask id="mask0_395_50031" style="mask-type:luminance" maskUnits="userSpaceOnUse" x="0" y="0" width="24" height="18">
<rect width="24" height="18" fill="white"/>
</mask>
<g mask="url(#mask0_395_50031)">
<path fill-rule="evenodd" clip-rule="evenodd" d="M0 0V18H24V0H0Z" fill="#EA1A1A"/>
<mask id="mask1_395_50031" style="mask-type:luminance" maskUnits="userSpaceOnUse" x="0" y="0" width="24" height="18">
<path fill-rule="evenodd" clip-rule="evenodd" d="M0 0V18H24V0H0Z" fill="white"/>
</mask>
<g mask="url(#mask1_395_50031)">
<path fill-rule="evenodd" clip-rule="evenodd" d="M13.6781 8.8707C13.6781 8.8707 19.2521 10.5392 15.514 14.7779C15.4852 14.7657 13.4464 13.8945 13.6781 11.7408C13.9119 9.57154 14.3455 9.10425 13.6781 8.8707ZM12.2133 10.1715C12.2192 10.2059 13.1962 15.8986 7.75038 14.4547C7.75038 14.4547 7.60201 12.2155 9.64686 11.4547C11.6914 10.6939 12.3027 10.8726 12.2133 10.1715ZM5.49354 5.90097C5.49354 5.90097 7.65478 5.29646 8.81874 7.14218C9.98232 8.98738 9.93298 9.62258 10.601 9.3912C10.601 9.3912 5.19556 11.5442 5.49354 5.90097ZM12.9555 8.33847C12.981 8.29084 15.7082 3.22613 19.1088 7.70663C19.0933 7.72928 17.8365 9.55931 15.7689 8.90585C13.6889 8.24847 13.3162 7.73078 12.9555 8.33847ZM12.7416 2.55234C12.7506 2.56228 14.2446 4.22089 13.1176 6.08163C11.9871 7.94727 11.3962 8.18712 11.9017 8.68124C11.8753 8.65762 7.57584 4.8017 12.7416 2.55234Z" fill="white"/>
<path d="M7.46268 7.75662L7.77919 7.55551C8.47394 8.64892 9.37564 9.18694 10.5009 9.18694V9.56194C9.24198 9.56194 8.22373 8.95437 7.46268 7.75662Z" fill="#EA1A1A"/>
<path fill-rule="evenodd" clip-rule="evenodd" d="M16.3125 8.0625C16.6232 8.0625 16.875 7.81066 16.875 7.5C16.875 7.18934 16.6232 6.9375 16.3125 6.9375C16.0018 6.9375 15.75 7.18934 15.75 7.5C15.75 7.81066 16.0018 8.0625 16.3125 8.0625Z" fill="#EA1A1A"/>
<path fill-rule="evenodd" clip-rule="evenodd" d="M14.9689 11.7961C15.2796 11.7961 15.5314 11.5442 15.5314 11.2336C15.5314 10.9229 15.2796 10.6711 14.9689 10.6711C14.6582 10.6711 14.4064 10.9229 14.4064 11.2336C14.4064 11.5442 14.6582 11.7961 14.9689 11.7961Z" fill="#EA1A1A"/>
<path fill-rule="evenodd" clip-rule="evenodd" d="M10.4689 13.2961C10.7796 13.2961 11.0314 13.0442 11.0314 12.7336C11.0314 12.4229 10.7796 12.1711 10.4689 12.1711C10.1582 12.1711 9.9064 12.4229 9.9064 12.7336C9.9064 13.0442 10.1582 13.2961 10.4689 13.2961Z" fill="#EA1A1A"/>
<path fill-rule="evenodd" clip-rule="evenodd" d="M7.4689 8.04605C7.77956 8.04605 8.0314 7.79421 8.0314 7.48355C8.0314 7.17289 7.77956 6.92105 7.4689 6.92105C7.15824 6.92105 6.9064 7.17289 6.9064 7.48355C6.9064 7.79421 7.15824 8.04605 7.4689 8.04605Z" fill="#EA1A1A"/>
<path fill-rule="evenodd" clip-rule="evenodd" d="M11.9689 5.79605C12.2796 5.79605 12.5314 5.54421 12.5314 5.23355C12.5314 4.92289 12.2796 4.67105 11.9689 4.67105C11.6582 4.67105 11.4064 4.92289 11.4064 5.23355C11.4064 5.54421 11.6582 5.79605 11.9689 5.79605Z" fill="#EA1A1A"/>
<path d="M11.7259 5.28956L12.0556 5.46827C11.4312 6.62026 11.3871 7.68281 11.9159 8.67734L11.5848 8.85339C10.9943 7.74289 11.0439 6.54781 11.7259 5.28956Z" fill="#EA1A1A"/>
<path d="M16.5112 7.26438L16.455 7.63514C14.9882 7.41277 13.8902 7.72224 13.1384 8.55721L12.8597 8.30629C13.7031 7.36954 14.9279 7.02435 16.5112 7.26438Z" fill="#EA1A1A"/>
<path d="M15.2634 11.5237L14.8958 11.5977C14.6031 10.1432 13.9367 9.21729 12.895 8.7964L13.0354 8.4487C14.2042 8.9209 14.9474 9.95372 15.2634 11.5237Z" fill="#EA1A1A"/>
<path d="M10.4299 12.8625L10.2346 12.5424C11.5012 11.7698 12.1434 10.827 12.1826 9.70412L12.5574 9.71721C12.5134 10.977 11.7971 12.0286 10.4299 12.8625Z" fill="#EA1A1A"/>
</g>
</g>
</svg>
