<svg width="24" height="18" viewBox="0 0 24 18" fill="none" xmlns="http://www.w3.org/2000/svg">
<mask id="mask0_395_51961" style="mask-type:luminance" maskUnits="userSpaceOnUse" x="0" y="0" width="24" height="18">
<rect width="24" height="18" fill="white"/>
</mask>
<g mask="url(#mask0_395_51961)">
<path fill-rule="evenodd" clip-rule="evenodd" d="M0 0V18H24V0H0Z" fill="#F7FCFF"/>
<mask id="mask1_395_51961" style="mask-type:luminance" maskUnits="userSpaceOnUse" x="0" y="0" width="24" height="18">
<path fill-rule="evenodd" clip-rule="evenodd" d="M0 0V18H24V0H0Z" fill="white"/>
</mask>
<g mask="url(#mask1_395_51961)">
<path fill-rule="evenodd" clip-rule="evenodd" d="M0 0V6H24V0H0Z" fill="#E31D1C"/>
<path fill-rule="evenodd" clip-rule="evenodd" d="M0 12V18H24V12H0Z" fill="#3D58DB"/>
<rect x="7.55762" y="4.79785" width="8.55" height="3" fill="#E31D1C"/>
<path d="M15.4473 6.86035C15.4578 7.44685 15.462 8.37219 15.4619 9.27051C15.4619 9.89573 15.4606 10.4986 15.459 10.9443C15.4582 11.167 15.4567 11.3506 15.4561 11.4785C15.4557 11.5425 15.4553 11.5929 15.4551 11.627C15.4551 11.6307 15.4551 11.6343 15.4551 11.6377C15.4519 11.656 15.4473 11.682 15.4404 11.7148C15.424 11.7934 15.3962 11.91 15.3516 12.0518C15.2617 12.3372 15.107 12.7155 14.8506 13.0898C14.3531 13.816 13.4485 14.5703 11.7373 14.5703C10.0293 14.5702 9.17212 13.8175 8.7168 13.1016C8.4808 12.7304 8.34551 12.3551 8.26953 12.0703C8.23179 11.9288 8.20894 11.8119 8.19629 11.7334C8.19 11.6943 8.18672 11.6646 8.18457 11.6465C8.18418 11.6432 8.18388 11.6402 8.18359 11.6377C8.18352 11.6315 8.18369 11.6243 8.18359 11.6162C8.18318 11.5824 8.18241 11.5323 8.18164 11.4688C8.1801 11.3416 8.17841 11.1589 8.17578 10.9375C8.17051 10.4944 8.16328 9.89473 8.15625 9.27148C8.14632 8.39071 8.13778 7.46477 8.13281 6.86035H15.4473Z" fill="#F7FCFF" stroke="#E31D1C" stroke-width="1.125"/>
<mask id="mask2_395_51961" style="mask-type:luminance" maskUnits="userSpaceOnUse" x="7" y="6" width="10" height="10">
<path d="M15.4473 6.86035C15.4578 7.44685 15.462 8.37219 15.4619 9.27051C15.4619 9.89573 15.4606 10.4986 15.459 10.9443C15.4582 11.167 15.4567 11.3506 15.4561 11.4785C15.4557 11.5425 15.4553 11.5929 15.4551 11.627C15.4551 11.6307 15.4551 11.6343 15.4551 11.6377C15.4519 11.656 15.4473 11.682 15.4404 11.7148C15.424 11.7934 15.3962 11.91 15.3516 12.0518C15.2617 12.3372 15.107 12.7155 14.8506 13.0898C14.3531 13.816 13.4485 14.5703 11.7373 14.5703C10.0293 14.5702 9.17212 13.8175 8.7168 13.1016C8.4808 12.7304 8.34551 12.3551 8.26953 12.0703C8.23179 11.9288 8.20894 11.8119 8.19629 11.7334C8.19 11.6943 8.18672 11.6646 8.18457 11.6465C8.18418 11.6432 8.18388 11.6402 8.18359 11.6377C8.18352 11.6315 8.18369 11.6243 8.18359 11.6162C8.18318 11.5824 8.18241 11.5323 8.18164 11.4688C8.1801 11.3416 8.17841 11.1589 8.17578 10.9375C8.17051 10.4944 8.16328 9.89473 8.15625 9.27148C8.14632 8.39071 8.13778 7.46477 8.13281 6.86035H15.4473Z" fill="white" stroke="white" stroke-width="1.125"/>
</mask>
<g mask="url(#mask2_395_51961)">
<path fill-rule="evenodd" clip-rule="evenodd" d="M9.45605 14.8115H7.87402V13.2051H9.45605V14.8115ZM12.6201 14.8115H11.0381V13.2051H12.6201V14.8115ZM15.7842 14.8115H14.2021V13.2051H15.7842V14.8115ZM11.0381 13.2051H9.45605V11.5986H11.0381V13.2051ZM14.2021 13.2051H12.6201V11.5986H14.2021V13.2051ZM9.45605 11.5986H7.87402V9.99219H9.45605V11.5986ZM12.6201 11.5986H11.0381V9.99219H12.6201V11.5986ZM15.7842 11.5986H14.2021V9.99219H15.7842V11.5986ZM11.0381 9.99219H9.45605V8.38574H11.0381V9.99219ZM14.2021 9.99219H12.6201V8.38574H14.2021V9.99219ZM9.45605 8.38574H7.87402V6.7793H9.45605V8.38574ZM12.6201 8.38574H11.0381V6.7793H12.6201V8.38574ZM15.7842 8.38574H14.2021V6.7793H15.7842V8.38574Z" fill="#F50100"/>
</g>
<path fill-rule="evenodd" clip-rule="evenodd" d="M7.83998 6.12179C7.83998 6.12179 8.32931 5.86042 8.74667 5.72572C9.16403 5.59102 9.49391 5.51743 9.49391 5.51743L8.87296 3.22835L7.62922 2.76367L6.9248 3.92475L7.83998 6.12179Z" fill="#56C6F5" stroke="white" stroke-width="0.5"/>
<path d="M7.63599 4.8679L7.7789 4.79901C7.92649 5.1147 8.12103 5.21221 8.38768 5.11269C8.66006 5.01104 8.77111 4.81882 8.73192 4.51409L8.8888 4.49329C8.93744 4.87156 8.7849 5.1356 8.44226 5.26347C8.0939 5.39348 7.81675 5.25457 7.63599 4.8679Z" fill="white"/>
<path fill-rule="evenodd" clip-rule="evenodd" d="M7.97447 4.15623L7.86412 4.22307C7.82381 4.24749 7.77369 4.2124 7.78285 4.16616L7.80792 4.03962L7.69486 3.97748C7.65356 3.95478 7.65889 3.89382 7.70351 3.87864L7.82564 3.83708L7.82293 3.7081C7.82193 3.66098 7.87739 3.63512 7.91285 3.66617L8.00991 3.75115L8.12025 3.68431C8.16056 3.65989 8.21068 3.69499 8.20152 3.74122L8.17645 3.86777L8.28951 3.92991C8.33081 3.95261 8.32548 4.01356 8.28086 4.02875L8.15873 4.07031L8.16144 4.19929C8.16244 4.24641 8.10698 4.27227 8.07152 4.24122L7.97447 4.15623Z" fill="#FECA00"/>
<path fill-rule="evenodd" clip-rule="evenodd" d="M10.9059 5.30715C10.9059 5.30715 11.3232 5.26991 11.7616 5.27843C12.2001 5.28695 12.571 5.29006 12.571 5.29006L12.7852 3.03295L11.846 2.18441L10.8019 3.0529L10.9059 5.30715Z" fill="#56C6F5" stroke="white" stroke-width="0.5"/>
<path fill-rule="evenodd" clip-rule="evenodd" d="M11.8131 4.93847C12.1748 4.93847 12.2095 4.54775 12.2095 4.28159C12.117 4.13396 12.1356 4.02832 11.8391 4.02832C11.5426 4.02832 11.5088 4.11792 11.4222 4.28159C11.4222 4.54775 11.4513 4.93847 11.8131 4.93847Z" fill="#FECA00"/>
<path fill-rule="evenodd" clip-rule="evenodd" d="M12.2199 3.83495C12.5817 3.83495 12.6163 3.44423 12.6163 3.17807C12.5238 3.03045 12.5425 2.9248 12.246 2.9248C11.9495 2.9248 11.9156 3.0144 11.8291 3.17807C11.8291 3.44423 11.8582 3.83495 12.2199 3.83495Z" fill="#FECA00"/>
<path fill-rule="evenodd" clip-rule="evenodd" d="M11.4289 3.83495C11.7907 3.83495 11.8253 3.44423 11.8253 3.17807C11.7328 3.03045 11.7515 2.9248 11.455 2.9248C11.1584 2.9248 11.1246 3.0144 11.0381 3.17807C11.0381 3.44423 11.0672 3.83495 11.4289 3.83495Z" fill="#FECA00"/>
<path d="M9.88281 2.09265L10.9053 2.81921L11 2.88562L11.0098 3.00085L11.1992 5.19421L11.2217 5.45496L10.96 5.4657C10.9593 5.46573 10.9573 5.46564 10.9561 5.4657C10.9531 5.46583 10.9482 5.46641 10.9424 5.46667C10.9307 5.46721 10.9132 5.46752 10.8916 5.46863C10.8485 5.47084 10.788 5.47479 10.7188 5.47937C10.5781 5.48867 10.4062 5.50238 10.2695 5.52136C10.1413 5.53919 9.96106 5.58379 9.80469 5.62683C9.72821 5.64789 9.65992 5.66791 9.61133 5.6825C9.58719 5.68974 9.56787 5.696 9.55469 5.70007C9.54842 5.70201 9.54337 5.70294 9.54004 5.70398C9.53841 5.70449 9.53693 5.70568 9.53613 5.70593H9.53516L9.29199 5.78308L9.21973 5.53796L8.56934 3.32996L8.52832 3.19031L8.62988 3.08582L9.55859 2.12292L9.70801 1.96863L9.88281 2.09265Z" fill="#2E42A5" stroke="white" stroke-width="0.5"/>
<mask id="mask3_395_51961" style="mask-type:luminance" maskUnits="userSpaceOnUse" x="8" y="1" width="4" height="6">
<path d="M9.88281 2.09265L10.9053 2.81921L11 2.88562L11.0098 3.00085L11.1992 5.19421L11.2217 5.45496L10.96 5.4657C10.9593 5.46573 10.9573 5.46564 10.9561 5.4657C10.9531 5.46583 10.9482 5.46641 10.9424 5.46667C10.9307 5.46721 10.9132 5.46752 10.8916 5.46863C10.8485 5.47084 10.788 5.47479 10.7188 5.47937C10.5781 5.48867 10.4062 5.50238 10.2695 5.52136C10.1413 5.53919 9.96106 5.58379 9.80469 5.62683C9.72821 5.64789 9.65992 5.66791 9.61133 5.6825C9.58719 5.68974 9.56787 5.696 9.55469 5.70007C9.54842 5.70201 9.54337 5.70294 9.54004 5.70398C9.53841 5.70449 9.53693 5.70568 9.53613 5.70593H9.53516L9.29199 5.78308L9.21973 5.53796L8.56934 3.32996L8.52832 3.19031L8.62988 3.08582L9.55859 2.12292L9.70801 1.96863L9.88281 2.09265Z" fill="white" stroke="white" stroke-width="0.5"/>
</mask>
<g mask="url(#mask3_395_51961)">
<path d="M9.32753 4.97867L9.13965 4.53611C9.54315 4.35949 10.2248 4.25111 10.9421 4.20874L10.9696 4.68985C10.3028 4.72925 9.67207 4.82786 9.32753 4.97867Z" fill="#C51918"/>
<path d="M9.01051 3.90818L8.82263 3.46562C9.22614 3.289 10.0934 3.14601 10.8107 3.10364L10.8383 3.58475C10.1715 3.62414 9.35505 3.75737 9.01051 3.90818Z" fill="#C51918"/>
</g>
<path d="M13.6729 2.09265L12.6504 2.81921L12.5566 2.88562L12.5469 3.00085L12.3574 5.19421L12.335 5.45496L12.5957 5.4657H12.6006C12.6035 5.46582 12.6078 5.46642 12.6133 5.46667C12.625 5.46721 12.6425 5.46753 12.6641 5.46863C12.7073 5.47084 12.7683 5.47477 12.8379 5.47937C12.9784 5.48867 13.1496 5.5024 13.2861 5.52136C13.4145 5.5392 13.5955 5.58375 13.752 5.62683C13.8283 5.64785 13.8958 5.66793 13.9443 5.6825C13.9685 5.68974 13.9878 5.69599 14.001 5.70007C14.0076 5.70212 14.0132 5.70293 14.0166 5.70398L14.0205 5.70593L14.2695 5.78503L14.3379 5.53308L14.9346 3.32117L14.9707 3.18835L14.8779 3.08777L14.002 2.12781L13.8535 1.96472L13.6729 2.09265Z" fill="#2E42A5" stroke="white" stroke-width="0.5"/>
<mask id="mask4_395_51961" style="mask-type:luminance" maskUnits="userSpaceOnUse" x="12" y="1" width="4" height="6">
<path d="M13.6729 2.09265L12.6504 2.81921L12.5566 2.88562L12.5469 3.00085L12.3574 5.19421L12.335 5.45496L12.5957 5.4657H12.6006C12.6035 5.46582 12.6078 5.46642 12.6133 5.46667C12.625 5.46721 12.6425 5.46753 12.6641 5.46863C12.7073 5.47084 12.7683 5.47477 12.8379 5.47937C12.9784 5.48867 13.1496 5.5024 13.2861 5.52136C13.4145 5.5392 13.5955 5.58375 13.752 5.62683C13.8283 5.64785 13.8958 5.66793 13.9443 5.6825C13.9685 5.68974 13.9878 5.69599 14.001 5.70007C14.0076 5.70212 14.0132 5.70293 14.0166 5.70398L14.0205 5.70593L14.2695 5.78503L14.3379 5.53308L14.9346 3.32117L14.9707 3.18835L14.8779 3.08777L14.002 2.12781L13.8535 1.96472L13.6729 2.09265Z" fill="white" stroke="white" stroke-width="0.5"/>
</mask>
<g mask="url(#mask4_395_51961)">
<path fill-rule="evenodd" clip-rule="evenodd" d="M13.7985 4.85019C13.7985 4.85019 14.019 4.72748 14.0508 4.52056C14.0826 4.31365 14.4236 4.05881 14.2531 4.08914C14.0826 4.11947 14.1801 4.14316 13.9332 4.08914C13.6862 4.03511 13.3667 3.99938 13.3667 3.84759C13.3667 3.6958 13.5255 3.57532 13.3957 3.57532C13.2658 3.57532 12.9888 3.43166 13.0444 3.54147C13.1001 3.65128 12.9164 3.52711 13.0082 3.75509C13.1001 3.98306 12.9888 4.21272 13.0444 4.27316C13.1001 4.33359 13.0082 4.62998 13.0082 4.62998C13.0082 4.62998 13.042 4.74007 13.101 4.57518C13.1599 4.4103 13.289 4.29472 13.2245 4.43495C13.1599 4.57518 13.0776 4.90873 13.151 4.85019C13.2245 4.79166 13.2975 4.6298 13.2975 4.57518C13.2975 4.52056 13.4828 4.30617 13.4828 4.46807C13.4828 4.62998 13.3085 4.75749 13.3957 4.75749C13.4828 4.75749 13.5317 4.79189 13.5865 4.62998C13.6413 4.46807 13.7744 4.36097 13.829 4.46807C13.8836 4.57518 13.8716 4.56946 13.7985 4.70983C13.7255 4.85019 13.7985 4.85019 13.7985 4.85019Z" fill="#FECA00"/>
<path fill-rule="evenodd" clip-rule="evenodd" d="M13.7275 4.8187C13.7741 4.8187 13.8115 4.85666 13.8115 4.90269C13.8114 4.94858 13.774 4.9857 13.7275 4.9857C13.6811 4.98565 13.6437 4.94855 13.6436 4.90269C13.6436 4.85669 13.681 4.81875 13.7275 4.8187ZM13.1787 4.69175C13.2251 4.69175 13.2634 4.72896 13.2637 4.77476C13.2637 4.82078 13.2253 4.85874 13.1787 4.85874C13.1323 4.85854 13.0947 4.82065 13.0947 4.77476C13.095 4.72909 13.1325 4.69196 13.1787 4.69175ZM13.4629 4.68491C13.5095 4.68491 13.5479 4.72288 13.5479 4.7689C13.5477 4.81478 13.5094 4.85191 13.4629 4.85191C13.4166 4.8517 13.3791 4.81465 13.3789 4.7689C13.3789 4.723 13.4165 4.68512 13.4629 4.68491ZM13.0205 4.53062C13.0671 4.53062 13.1055 4.56858 13.1055 4.6146C13.1053 4.66048 13.067 4.69761 13.0205 4.69761C12.9742 4.6974 12.9367 4.66035 12.9365 4.6146C12.9365 4.56871 12.9741 4.53082 13.0205 4.53062ZM13.5996 3.44859C13.6536 3.4716 13.6947 3.49802 13.8008 3.57261C13.8075 3.57732 13.8076 3.57758 13.8145 3.58238C13.9248 3.65974 13.9836 3.69077 14.0195 3.69077V3.85191C13.9372 3.85191 13.8658 3.8132 13.7246 3.71421C13.7177 3.70935 13.7176 3.70915 13.7109 3.70445C13.6159 3.63759 13.5784 3.61387 13.5391 3.59702C13.4734 3.56903 13.3881 3.58334 13.2803 3.64976L13.1982 3.51304C13.3455 3.42232 13.4809 3.39809 13.5996 3.44859Z" fill="#C51918"/>
</g>
<path d="M15.9791 2.5293L14.735 2.99414L14.6168 3.03809L14.5826 3.16016L13.9479 5.3916L13.8756 5.64648L14.1344 5.7041C14.1349 5.70421 14.1362 5.70483 14.1373 5.70508C14.1395 5.70558 14.1428 5.70605 14.1471 5.70703C14.1563 5.70915 14.1701 5.71247 14.1881 5.7168C14.2241 5.72545 14.2769 5.73871 14.3424 5.75586C14.4736 5.79021 14.6559 5.84068 14.859 5.90625C15.0527 5.96876 15.2682 6.06307 15.4391 6.14355C15.5235 6.1833 15.5955 6.21845 15.6461 6.24414C15.6712 6.2569 15.6913 6.2674 15.7047 6.27441C15.7114 6.27792 15.717 6.28046 15.7203 6.28223C15.7216 6.28292 15.7225 6.28378 15.7233 6.28418L15.7242 6.28516L15.9635 6.41309L16.0719 6.16406L17.0006 4.02441L17.0524 3.90527L16.985 3.79492L16.2809 2.63379L16.1735 2.45703L15.9791 2.5293Z" fill="#56C6F5" stroke="white" stroke-width="0.5"/>
<mask id="mask5_395_51961" style="mask-type:luminance" maskUnits="userSpaceOnUse" x="13" y="2" width="5" height="5">
<path d="M15.9791 2.5293L14.735 2.99414L14.6168 3.03809L14.5826 3.16016L13.9479 5.3916L13.8756 5.64648L14.1344 5.7041C14.1349 5.70421 14.1362 5.70483 14.1373 5.70508C14.1395 5.70558 14.1428 5.70605 14.1471 5.70703C14.1563 5.70915 14.1701 5.71247 14.1881 5.7168C14.2241 5.72545 14.2769 5.73871 14.3424 5.75586C14.4736 5.79021 14.6559 5.84068 14.859 5.90625C15.0527 5.96876 15.2682 6.06307 15.4391 6.14355C15.5235 6.1833 15.5955 6.21845 15.6461 6.24414C15.6712 6.2569 15.6913 6.2674 15.7047 6.27441C15.7114 6.27792 15.717 6.28046 15.7203 6.28223C15.7216 6.28292 15.7225 6.28378 15.7233 6.28418L15.7242 6.28516L15.9635 6.41309L16.0719 6.16406L17.0006 4.02441L17.0524 3.90527L16.985 3.79492L16.2809 2.63379L16.1735 2.45703L15.9791 2.5293Z" fill="white" stroke="white" stroke-width="0.5"/>
</mask>
<g mask="url(#mask5_395_51961)">
<path fill-rule="evenodd" clip-rule="evenodd" d="M15.8456 3.8163L15.7596 3.91249C15.7282 3.94762 15.67 3.92872 15.6653 3.88183L15.6523 3.75348L15.526 3.72711C15.4798 3.71748 15.4671 3.65763 15.5053 3.63006L15.61 3.55461L15.5697 3.43206C15.5549 3.38729 15.6004 3.34634 15.6434 3.36567L15.7611 3.41856L15.847 3.32238C15.8785 3.28724 15.9367 3.30615 15.9414 3.35304L15.9544 3.48139L16.0807 3.50776C16.1269 3.51739 16.1396 3.57724 16.1013 3.60481L15.9967 3.68026L16.037 3.80281C16.0517 3.84758 16.0063 3.88852 15.9633 3.8692L15.8456 3.8163Z" fill="#FECA00"/>
<path d="M14.2466 4.86601L14.4059 4.24414C15.1115 4.43051 15.847 4.66938 16.3866 4.90036L16.1407 5.49247C15.631 5.27426 14.9241 5.04498 14.2466 4.86601Z" fill="#E31D1C"/>
<path d="M14.4624 4.29082L14.5 4.13477C15.1764 4.30263 15.8954 4.57047 16.4178 4.81994L16.3505 4.96531C15.8381 4.72064 15.129 4.45625 14.4624 4.29082Z" fill="white"/>
<path d="M14.2618 4.93223L14.2994 4.77618C14.9758 4.94405 15.601 5.17182 16.1235 5.42129L16.0562 5.56666C15.5438 5.32198 14.9285 5.09766 14.2618 4.93223Z" fill="white"/>
<path d="M14.5671 4.63108L14.712 4.56567C14.773 4.70841 14.8483 4.73985 14.9742 4.67868C15.2716 4.53418 16.0093 4.73611 16.0093 5.00838C16.0093 5.1146 15.9477 5.179 15.8537 5.17527C15.8007 5.17317 15.744 5.1522 15.661 5.11114C15.6509 5.10615 15.6443 5.10282 15.6279 5.09451C15.5361 5.04766 15.5291 5.04424 15.5047 5.03543L15.557 4.88195C15.5909 4.89415 15.5962 4.89677 15.6982 4.9488C15.714 4.9568 15.7201 4.9599 15.7295 4.96455C15.7932 4.99603 15.8358 5.01179 15.8598 5.01274C15.8621 5.01283 15.8511 5.02431 15.8511 5.00838C15.8511 4.88858 15.2507 4.72424 15.0418 4.82573C14.8335 4.92695 14.6632 4.85584 14.5671 4.63108Z" fill="#272727"/>
</g>
</g>
</g>
</svg>
