<svg width="24" height="18" viewBox="0 0 24 18" fill="none" xmlns="http://www.w3.org/2000/svg">
<mask id="mask0_395_51523" style="mask-type:luminance" maskUnits="userSpaceOnUse" x="0" y="0" width="24" height="18">
<rect width="24" height="18" fill="white"/>
</mask>
<g mask="url(#mask0_395_51523)">
<path fill-rule="evenodd" clip-rule="evenodd" d="M0 0V18H24V0H0Z" fill="#E31D1C"/>
<mask id="mask1_395_51523" style="mask-type:luminance" maskUnits="userSpaceOnUse" x="0" y="0" width="24" height="18">
<path fill-rule="evenodd" clip-rule="evenodd" d="M0 0V18H24V0H0Z" fill="white"/>
</mask>
<g mask="url(#mask1_395_51523)">
<path fill-rule="evenodd" clip-rule="evenodd" d="M4.57645 3.17267C4.56691 3.08032 4.67713 3.03545 4.7402 3.10357C5.10613 3.49876 5.94339 4.34051 6.43641 4.34051C7.08067 4.34051 9.61086 2.20853 10.3587 2.55583C11.1066 2.90313 12.6208 6.53436 12.6208 6.53436L11.634 7.77206L10.3587 7.07634L10.1177 4.34051C10.1177 4.34051 7.6629 5.60312 6.43641 5.14482L5.74695 5.72417C5.74695 5.72417 5.08299 4.40941 4.82152 4.00728C4.66392 3.7649 4.60132 3.41356 4.57645 3.17267Z" fill="#F7FCFF"/>
<path fill-rule="evenodd" clip-rule="evenodd" d="M6.19646 6.09297L5.77662 6.34735L5.8568 5.80857L5.51714 5.42701L5.98654 5.34841L6.19646 4.85822L6.40639 5.34841L6.87579 5.42701L6.53613 5.80857L6.61631 6.34735L6.19646 6.09297Z" fill="#FECA00"/>
<path fill-rule="evenodd" clip-rule="evenodd" d="M9.75977 2.84332C9.75977 2.69308 9.88156 2.57129 10.0318 2.57129C10.182 2.57129 10.3038 2.69308 10.3038 2.84332V4.12852C10.3038 4.27876 10.182 4.40056 10.0318 4.40056C9.88156 4.40056 9.75977 4.27876 9.75977 4.12852L9.75977 2.84332Z" fill="#FECA00"/>
<path fill-rule="evenodd" clip-rule="evenodd" d="M18.8548 3.79645C18.9382 3.83731 18.9179 3.95455 18.8267 3.97194C18.2976 4.07284 17.1401 4.33683 16.8788 4.75493C16.5374 5.30129 17.0046 8.5768 16.3138 9.02698C15.623 9.47716 11.7411 8.837 11.7411 8.837L11.2144 7.34433L12.4802 6.63148L14.928 7.87684C14.928 7.87684 15.1581 5.12598 16.1967 4.32871L16.0708 3.43701C16.0708 3.43701 17.5376 3.57065 18.0172 3.56201C18.3062 3.55681 18.6374 3.68989 18.8548 3.79645Z" fill="#F7FCFF"/>
<path fill-rule="evenodd" clip-rule="evenodd" d="M15.5197 3.62233L15.5264 3.13148L15.9408 3.48498L16.4444 3.39913L16.2623 3.83886L16.5668 4.27665L16.0399 4.19491L15.7244 4.55133L15.5809 4.06108L15.0815 3.84358L15.5197 3.62233Z" fill="#FECA00"/>
<path fill-rule="evenodd" clip-rule="evenodd" d="M16.4357 8.40279C16.5704 8.48634 16.6146 8.66168 16.5356 8.7991C16.4508 8.94651 16.259 8.99142 16.1175 8.89697L14.9561 8.12126C14.8519 8.05165 14.8092 7.91955 14.8529 7.8021C14.9125 7.64206 15.1037 7.57665 15.2488 7.66666L16.4357 8.40279Z" fill="#FECA00"/>
<path fill-rule="evenodd" clip-rule="evenodd" d="M11.2029 15.7012C11.1258 15.753 11.0344 15.6768 11.065 15.5891C11.2421 15.0805 11.5923 13.946 11.3608 13.5107C11.0583 12.9419 7.98806 11.7088 7.9436 10.8854C7.89915 10.062 10.3945 7.02031 10.3945 7.02031L11.9505 7.31047L11.935 8.76313L9.63254 10.2603C9.63254 10.2603 11.8998 11.835 12.071 13.1331L12.9062 13.4699C12.9062 13.4699 12.057 14.6734 11.8247 15.093C11.6847 15.346 11.4039 15.5662 11.2029 15.7012Z" fill="#F7FCFF"/>
<path fill-rule="evenodd" clip-rule="evenodd" d="M13.0208 12.8998L13.4425 13.1511L12.9292 13.3332L12.7517 13.8123L12.462 13.4347L11.9306 13.4795L12.2649 13.064L12.1139 12.6126L12.6102 12.7334L13.0483 12.4097L13.0208 12.8998Z" fill="#FECA00"/>
<path fill-rule="evenodd" clip-rule="evenodd" d="M8.32701 11.2188C8.1597 11.2827 7.97365 11.1893 7.92493 11.0169C7.88223 10.8659 7.96122 10.7071 8.10747 10.65L9.35868 10.1617C9.4977 10.1075 9.65565 10.16 9.73445 10.2868C9.83732 10.4522 9.76381 10.6704 9.58181 10.7399L8.32701 11.2188Z" fill="#FECA00"/>
<path d="M10.2469 7.32348C10.1536 7.29087 10.1037 7.18691 10.1356 7.0913C10.1674 6.99568 10.317 6.83596 10.4103 6.86858L11.7122 7.32348C11.7793 7.34695 11.8265 7.40894 11.8325 7.48139L11.9489 8.90928C11.9571 9.00996 11.8104 9.0914 11.7122 9.09981C11.6139 9.10822 11.5275 9.03342 11.5193 8.93274L11.4115 7.7048L10.2469 7.32348Z" fill="#FECA00"/>
<path d="M12.5104 6.57522C12.5882 6.51315 12.7272 6.58509 12.7878 6.6648C12.8484 6.74451 12.8344 6.85945 12.7566 6.92152L11.8548 7.84583C11.777 7.9079 11.602 7.78683 11.5414 7.70712C11.4808 7.62741 11.4635 7.41026 11.5414 7.34819L12.5104 6.57522Z" fill="#FECA00"/>
</g>
</g>
</svg>
