<svg width="24" height="18" viewBox="0 0 24 18" fill="none" xmlns="http://www.w3.org/2000/svg">
<mask id="mask0_395_50363" style="mask-type:luminance" maskUnits="userSpaceOnUse" x="0" y="0" width="24" height="18">
<rect width="24" height="18" fill="white"/>
</mask>
<g mask="url(#mask0_395_50363)">
<path fill-rule="evenodd" clip-rule="evenodd" d="M0 0V18H24V0H0Z" fill="#F7FCFF"/>
<mask id="mask1_395_50363" style="mask-type:luminance" maskUnits="userSpaceOnUse" x="0" y="0" width="24" height="18">
<path fill-rule="evenodd" clip-rule="evenodd" d="M0 0V18H24V0H0Z" fill="white"/>
</mask>
<g mask="url(#mask1_395_50363)">
<path fill-rule="evenodd" clip-rule="evenodd" d="M21.8854 15.7568C23.0894 15.8258 24.2547 16.4101 25.3746 17.4688L24.2594 18.5312C23.3386 17.6609 22.4698 17.2502 21.6442 17.25C21.2452 17.25 21.0749 17.3464 20.6149 17.7812C19.885 18.4712 19.3935 18.7499 18.4703 18.75C17.547 18.75 17.0557 18.4712 16.3258 17.7812C15.8656 17.3463 15.6955 17.25 15.2965 17.25C14.8975 17.25 14.7274 17.3462 14.2672 17.7812C13.5373 18.4712 13.046 18.75 12.1227 18.75C11.1995 18.75 10.708 18.4712 9.97815 17.7812C9.51811 17.3464 9.34782 17.25 8.94885 17.25C8.55019 17.2501 8.38035 17.3466 7.92053 17.7812C7.19071 18.4712 6.69908 18.7499 5.776 18.75C4.85273 18.75 4.36134 18.4712 3.63147 17.7812C3.22876 17.4006 3.04802 17.2793 2.74182 17.2549L2.60217 17.25C1.7763 17.25 0.906981 17.6606 -0.0140381 18.5312L-1.12927 17.4688C0.0654488 16.3394 1.31231 15.75 2.60217 15.75L2.92932 15.7637C3.65186 15.8264 4.10803 16.115 4.7467 16.7188C5.20675 17.1536 5.37703 17.25 5.776 17.25C6.17467 17.2499 6.34451 17.1534 6.80432 16.7188C7.53414 16.0289 8.02579 15.7501 8.94885 15.75C9.87212 15.75 10.3635 16.0288 11.0934 16.7188C11.5535 17.1537 11.7238 17.25 12.1227 17.25C12.5217 17.25 12.6918 17.1537 13.152 16.7188C13.8819 16.0288 14.3732 15.75 15.2965 15.75L15.6237 15.7637C16.3463 15.8264 16.8023 16.115 17.441 16.7188C17.9011 17.1537 18.0714 17.25 18.4703 17.25C18.8692 17.25 19.0396 17.1537 19.4996 16.7188C20.2295 16.0289 20.7209 15.75 21.6442 15.75L21.8854 15.7568ZM21.8854 12.7568C23.0894 12.8258 24.2547 13.4101 25.3746 14.4688L24.2594 15.5312C23.3386 14.6609 22.4698 14.2502 21.6442 14.25C21.2452 14.25 21.0749 14.3464 20.6149 14.7812C19.885 15.4712 19.3935 15.7499 18.4703 15.75C17.547 15.75 17.0557 15.4712 16.3258 14.7812C15.8656 14.3463 15.6955 14.25 15.2965 14.25C14.8975 14.25 14.7274 14.3462 14.2672 14.7812C13.5373 15.4712 13.046 15.75 12.1227 15.75C11.1995 15.75 10.708 15.4712 9.97815 14.7812C9.51811 14.3464 9.34782 14.25 8.94885 14.25C8.55019 14.2501 8.38035 14.3466 7.92053 14.7812C7.19071 15.4712 6.69908 15.7499 5.776 15.75C4.85273 15.75 4.36134 15.4712 3.63147 14.7812C3.22876 14.4006 3.04802 14.2793 2.74182 14.2549L2.60217 14.25C1.7763 14.25 0.906981 14.6606 -0.0140381 15.5312L-1.12927 14.4688C0.0654488 13.3394 1.31231 12.75 2.60217 12.75L2.92932 12.7637C3.65186 12.8264 4.10803 13.115 4.7467 13.7188C5.20675 14.1536 5.37703 14.25 5.776 14.25C6.17467 14.2499 6.34451 14.1534 6.80432 13.7188C7.53414 13.0289 8.02579 12.7501 8.94885 12.75C9.87212 12.75 10.3635 13.0288 11.0934 13.7188C11.5535 14.1537 11.7238 14.25 12.1227 14.25C12.5217 14.25 12.6918 14.1537 13.152 13.7188C13.8819 13.0288 14.3732 12.75 15.2965 12.75L15.6237 12.7637C16.3463 12.8264 16.8023 13.115 17.441 13.7188C17.9011 14.1537 18.0714 14.25 18.4703 14.25C18.8692 14.25 19.0396 14.1537 19.4996 13.7188C20.2295 13.0289 20.7209 12.75 21.6442 12.75L21.8854 12.7568ZM21.8854 9.75684C23.0894 9.8258 24.2547 10.4101 25.3746 11.4688L24.2594 12.5312C23.3386 11.6609 22.4698 11.2502 21.6442 11.25C21.2452 11.25 21.0749 11.3464 20.6149 11.7812C19.885 12.4712 19.3935 12.7499 18.4703 12.75C17.547 12.75 17.0557 12.4712 16.3258 11.7812C15.8656 11.3463 15.6955 11.25 15.2965 11.25C14.8975 11.25 14.7274 11.3462 14.2672 11.7812C13.5373 12.4712 13.046 12.75 12.1227 12.75C11.1995 12.75 10.708 12.4712 9.97815 11.7812C9.51811 11.3464 9.34782 11.25 8.94885 11.25C8.55019 11.2501 8.38035 11.3466 7.92053 11.7812C7.19071 12.4712 6.69908 12.7499 5.776 12.75C4.85273 12.75 4.36134 12.4712 3.63147 11.7812C3.22876 11.4006 3.04802 11.2793 2.74182 11.2549L2.60217 11.25C1.7763 11.25 0.906981 11.6606 -0.0140381 12.5312L-1.12927 11.4688C0.0654488 10.3394 1.31231 9.75 2.60217 9.75L2.92932 9.76367C3.65186 9.82644 4.10803 10.115 4.7467 10.7188C5.20675 11.1536 5.37703 11.25 5.776 11.25C6.17467 11.2499 6.34451 11.1534 6.80432 10.7188C7.53414 10.0289 8.02579 9.75008 8.94885 9.75C9.87212 9.75 10.3635 10.0288 11.0934 10.7188C11.5535 11.1537 11.7238 11.25 12.1227 11.25C12.5217 11.25 12.6918 11.1537 13.152 10.7188C13.8819 10.0288 14.3732 9.75 15.2965 9.75C16.2198 9.75001 16.7111 10.0288 17.441 10.7188C17.9011 11.1537 18.0714 11.25 18.4703 11.25C18.8692 11.25 19.0396 11.1537 19.4996 10.7188C20.2295 10.0289 20.7209 9.75 21.6442 9.75L21.8854 9.75684ZM21.6442 6.75C22.9338 6.75015 24.1801 7.3396 25.3746 8.46875L24.2594 9.53125C23.3386 8.6609 22.4698 8.25016 21.6442 8.25C21.2452 8.25 21.0749 8.34643 20.6149 8.78125C19.885 9.47118 19.3935 9.74995 18.4703 9.75C17.547 9.75 17.0557 9.47121 16.3258 8.78125C15.8656 8.34626 15.6955 8.25001 15.2965 8.25C14.8975 8.25 14.7274 8.34624 14.2672 8.78125C13.5373 9.47124 13.046 9.75 12.1227 9.75C11.1995 9.74997 10.708 9.4712 9.97815 8.78125C9.51811 8.34639 9.34782 8.25 8.94885 8.25C8.55019 8.25006 8.38035 8.34662 7.92053 8.78125C7.19071 9.47115 6.69908 9.74993 5.776 9.75C4.85273 9.75 4.36134 9.47117 3.63147 8.78125C3.22876 8.40057 3.04802 8.27926 2.74182 8.25488L2.60217 8.25C1.7763 8.25 0.906981 8.66062 -0.0140381 9.53125L-1.12927 8.46875C0.0654488 7.33939 1.31231 6.75 2.60217 6.75L2.92932 6.76367C3.65186 6.82644 4.10803 7.11501 4.7467 7.71875C5.20675 8.15362 5.37703 8.25 5.776 8.25C6.17467 8.24994 6.34451 8.15338 6.80432 7.71875C7.53414 7.02885 8.02579 6.75008 8.94885 6.75C9.87212 6.75 10.3635 7.02883 11.0934 7.71875C11.5535 8.15369 11.7238 8.24997 12.1227 8.25C12.5217 8.25 12.6918 8.1537 13.152 7.71875C13.8819 7.02876 14.3732 6.75 15.2965 6.75C16.2198 6.75001 16.7111 7.02877 17.441 7.71875C17.9011 8.15366 18.0714 8.25 18.4703 8.25C18.8692 8.24996 19.0396 8.15366 19.4996 7.71875C20.2295 7.02887 20.7209 6.75 21.6442 6.75ZM21.6442 3.75C22.9338 3.75015 24.1801 4.3396 25.3746 5.46875L24.2594 6.53125C23.3386 5.6609 22.4698 5.25016 21.6442 5.25C21.2452 5.25 21.0749 5.34643 20.6149 5.78125C19.885 6.47118 19.3935 6.74995 18.4703 6.75C17.547 6.75 17.0557 6.47121 16.3258 5.78125C15.8656 5.34626 15.6955 5.25001 15.2965 5.25C14.8975 5.25 14.7274 5.34624 14.2672 5.78125C13.5373 6.47124 13.046 6.75 12.1227 6.75C11.1995 6.74997 10.708 6.4712 9.97815 5.78125C9.51811 5.34639 9.34782 5.25 8.94885 5.25C8.55019 5.25006 8.38035 5.34662 7.92053 5.78125C7.19071 6.47115 6.69908 6.74993 5.776 6.75C4.85273 6.75 4.36134 6.47117 3.63147 5.78125C3.22876 5.40057 3.04802 5.27926 2.74182 5.25488L2.60217 5.25C1.7763 5.25 0.906981 5.66062 -0.0140381 6.53125L-1.12927 5.46875C0.0654488 4.33939 1.31231 3.75 2.60217 3.75L2.92932 3.76367C3.65186 3.82644 4.10803 4.11501 4.7467 4.71875C5.20675 5.15362 5.37703 5.25 5.776 5.25C6.17467 5.24994 6.34451 5.15338 6.80432 4.71875C7.53414 4.02885 8.02579 3.75008 8.94885 3.75C9.87212 3.75 10.3635 4.02883 11.0934 4.71875C11.5535 5.15369 11.7238 5.24997 12.1227 5.25C12.5217 5.25 12.6918 5.1537 13.152 4.71875C13.8819 4.02876 14.3732 3.75 15.2965 3.75C16.2198 3.75001 16.7111 4.02877 17.441 4.71875C17.9011 5.15366 18.0714 5.25 18.4703 5.25C18.8692 5.24996 19.0396 5.15366 19.4996 4.71875C20.2295 4.02887 20.7209 3.75 21.6442 3.75ZM21.8854 0.756836C23.0894 0.825798 24.2547 1.41014 25.3746 2.46875L24.2594 3.53125C23.3386 2.6609 22.4698 2.25016 21.6442 2.25C21.2452 2.25 21.0749 2.34643 20.6149 2.78125C19.885 3.47118 19.3935 3.74995 18.4703 3.75C17.547 3.75 17.0557 3.47121 16.3258 2.78125C15.8656 2.34626 15.6955 2.25001 15.2965 2.25C14.8975 2.25 14.7274 2.34624 14.2672 2.78125C13.5373 3.47124 13.046 3.75 12.1227 3.75C11.1995 3.74997 10.708 3.4712 9.97815 2.78125C9.51811 2.34639 9.34782 2.25 8.94885 2.25C8.55019 2.25006 8.38035 2.34662 7.92053 2.78125C7.19071 3.47115 6.69908 3.74993 5.776 3.75C4.85273 3.75 4.36134 3.47117 3.63147 2.78125C3.17135 2.3463 3.00108 2.25002 2.60217 2.25C1.7763 2.25 0.906981 2.66062 -0.0140381 3.53125L-1.12927 2.46875C0.0654488 1.33939 1.31231 0.75 2.60217 0.75L2.92932 0.763672C3.65186 0.826441 4.10803 1.11501 4.7467 1.71875C5.20675 2.15362 5.37703 2.25 5.776 2.25C6.17467 2.24994 6.34451 2.15338 6.80432 1.71875C7.53414 1.02885 8.02579 0.750078 8.94885 0.75C9.87212 0.75 10.3635 1.02883 11.0934 1.71875C11.5535 2.15369 11.7238 2.24997 12.1227 2.25C12.5217 2.25 12.6918 2.1537 13.152 1.71875C13.8819 1.02876 14.3732 0.75 15.2965 0.75C16.2198 0.750009 16.7111 1.02877 17.441 1.71875C17.9011 2.15366 18.0714 2.25 18.4703 2.25C18.8692 2.24996 19.0396 2.15366 19.4996 1.71875C20.2295 1.02887 20.7209 0.75 21.6442 0.75L21.8854 0.756836Z" fill="#2E42A5"/>
<mask id="mask2_395_50363" style="mask-type:luminance" maskUnits="userSpaceOnUse" x="0" y="0" width="11" height="8">
<rect width="10.5" height="7.5" fill="white"/>
</mask>
<g mask="url(#mask2_395_50363)">
<rect width="10.5" height="9" fill="#2E42A5"/>
<path d="M-1.61832 8.49983L1.12388 9.65796L12.293 1.09244L13.7395 -0.628581L10.8071 -1.01566L6.25145 2.67546L2.58464 5.16242L-1.61832 8.49983Z" fill="white"/>
<path d="M-1.24292 9.31125L0.154103 9.98334L13.22 -0.788473H11.2585L-1.24292 9.31125Z" fill="#F50100"/>
<path d="M13.6183 8.49983L10.8762 9.65796L-0.292985 1.09244L-1.73943 -0.628581L1.19295 -1.01566L5.74858 2.67546L9.41539 5.16242L13.6183 8.49983Z" fill="white"/>
<path d="M13.5246 9.08182L12.1276 9.75391L6.56396 5.14193L4.91447 4.62665L-1.87879 -0.623037H0.0827885L6.87224 4.50204L8.67567 5.11993L13.5246 9.08182Z" fill="#F50100"/>
<mask id="path-11-outside-1_395_50363" maskUnits="userSpaceOnUse" x="-0.988373" y="-1" width="13" height="10" fill="black">
<rect fill="white" x="-0.988373" y="-1" width="13" height="10"/>
<path fill-rule="evenodd" clip-rule="evenodd" d="M6.00001 0H4.50001V3H0.0116272V4.5H4.50001V7.5H6.00001V4.5H10.5116V3H6.00001V0Z"/>
</mask>
<path fill-rule="evenodd" clip-rule="evenodd" d="M6.00001 0H4.50001V3H0.0116272V4.5H4.50001V7.5H6.00001V4.5H10.5116V3H6.00001V0Z" fill="#F50100"/>
<path d="M4.50001 0V-1H3.50001V0H4.50001ZM6.00001 0H7.00001V-1H6.00001V0ZM4.50001 3V4H5.50001V3H4.50001ZM0.0116272 3V2H-0.988373V3H0.0116272ZM0.0116272 4.5H-0.988373V5.5H0.0116272V4.5ZM4.50001 4.5H5.50001V3.5H4.50001V4.5ZM4.50001 7.5H3.50001V8.5H4.50001V7.5ZM6.00001 7.5V8.5H7.00001V7.5H6.00001ZM6.00001 4.5V3.5H5.00001V4.5H6.00001ZM10.5116 4.5V5.5H11.5116V4.5H10.5116ZM10.5116 3H11.5116V2H10.5116V3ZM6.00001 3H5.00001V4H6.00001V3ZM4.50001 0V1H6.00001V0V-1H4.50001V0ZM4.50001 3H5.50001V0H4.50001H3.50001V3H4.50001ZM0.0116272 3V4H4.50001V3V2H0.0116272V3ZM0.0116272 4.5H1.01163V3H0.0116272H-0.988373V4.5H0.0116272ZM4.50001 4.5V3.5H0.0116272V4.5V5.5H4.50001V4.5ZM4.50001 7.5H5.50001V4.5H4.50001H3.50001V7.5H4.50001ZM6.00001 7.5V6.5H4.50001V7.5V8.5H6.00001V7.5ZM6.00001 4.5H5.00001V7.5H6.00001H7.00001V4.5H6.00001ZM10.5116 4.5V3.5H6.00001V4.5V5.5H10.5116V4.5ZM10.5116 3H9.51163V4.5H10.5116H11.5116V3H10.5116ZM6.00001 3V4H10.5116V3V2H6.00001V3ZM6.00001 0H5.00001V3H6.00001H7.00001V0H6.00001Z" fill="#F7FCFF" mask="url(#path-11-outside-1_395_50363)"/>
</g>
<rect x="15.2999" y="7.03436" width="0.75" height="9.46602" rx="0.375" fill="#D86D00"/>
<mask id="path-14-outside-2_395_50363" maskUnits="userSpaceOnUse" x="10.6344" y="-0.456848" width="10" height="10" fill="black">
<rect fill="white" x="10.6344" y="-0.456848" width="10" height="10"/>
<path fill-rule="evenodd" clip-rule="evenodd" d="M15.3032 1.54315C15.9237 2.39401 16.1781 3.39951 16.2009 4.4225C16.9013 3.47329 18.0697 2.69785 18.6161 2.36626C18.1148 2.71683 17.8544 3.23657 17.5614 3.8214L17.5614 3.8214C17.4176 4.10863 17.2658 4.41156 17.0738 4.71786C18.2675 4.289 19.4533 4.17889 19.4533 4.17889C18.6578 4.40461 17.924 4.86544 17.211 5.31323L17.211 5.31324L17.211 5.31325C16.951 5.47653 16.6938 5.63808 16.4373 5.78585C18.7409 6.65358 19.0953 7.90836 19.0953 7.90836C18.8129 7.65905 18.2036 7.39227 17.053 6.88849L17.053 6.88848C16.8325 6.79195 16.5921 6.68671 16.3304 6.57123C16.5022 7.20402 16.7107 7.69902 16.9097 8.1716L16.9688 8.31238C16.9688 8.31238 15.3749 7.882 15.0719 6.64627C14.1776 7.36446 13.2112 7.77326 12.7579 7.93524C12.7579 7.93524 13.8376 6.7632 14.6304 5.98556C13.5895 5.8682 11.6344 5.77212 11.6344 5.77212L11.7733 5.73907C12.5591 5.55185 13.7748 5.26221 14.889 5.27722C13.6943 4.60764 12.9597 3.70149 12.7339 3.39692C12.9242 3.56506 13.4539 3.77558 14.1768 4.06283L14.1769 4.06285C14.482 4.18409 14.8215 4.31901 15.1844 4.47018C15.2535 3.20717 15.3032 1.54315 15.3032 1.54315ZM12.6593 3.29218C12.6668 3.3253 12.6922 3.36009 12.7339 3.39692C12.6843 3.33005 12.6593 3.29218 12.6593 3.29218ZM18.9148 2.19257C18.8062 2.24446 18.7072 2.30257 18.6161 2.36626C18.8011 2.25396 18.9148 2.19257 18.9148 2.19257ZM15.5171 5.26272C15.5635 5.2421 15.6149 5.23065 15.669 5.23065C15.6975 5.23065 15.7252 5.23382 15.7518 5.23982C15.7597 5.21749 15.7679 5.19521 15.7765 5.17298L15.5279 5.1901L15.5171 5.26272Z"/>
</mask>
<path fill-rule="evenodd" clip-rule="evenodd" d="M15.3032 1.54315C15.9237 2.39401 16.1781 3.39951 16.2009 4.4225C16.9013 3.47329 18.0697 2.69785 18.6161 2.36626C18.1148 2.71683 17.8544 3.23657 17.5614 3.8214L17.5614 3.8214C17.4176 4.10863 17.2658 4.41156 17.0738 4.71786C18.2675 4.289 19.4533 4.17889 19.4533 4.17889C18.6578 4.40461 17.924 4.86544 17.211 5.31323L17.211 5.31324L17.211 5.31325C16.951 5.47653 16.6938 5.63808 16.4373 5.78585C18.7409 6.65358 19.0953 7.90836 19.0953 7.90836C18.8129 7.65905 18.2036 7.39227 17.053 6.88849L17.053 6.88848C16.8325 6.79195 16.5921 6.68671 16.3304 6.57123C16.5022 7.20402 16.7107 7.69902 16.9097 8.1716L16.9688 8.31238C16.9688 8.31238 15.3749 7.882 15.0719 6.64627C14.1776 7.36446 13.2112 7.77326 12.7579 7.93524C12.7579 7.93524 13.8376 6.7632 14.6304 5.98556C13.5895 5.8682 11.6344 5.77212 11.6344 5.77212L11.7733 5.73907C12.5591 5.55185 13.7748 5.26221 14.889 5.27722C13.6943 4.60764 12.9597 3.70149 12.7339 3.39692C12.9242 3.56506 13.4539 3.77558 14.1768 4.06283L14.1769 4.06285C14.482 4.18409 14.8215 4.31901 15.1844 4.47018C15.2535 3.20717 15.3032 1.54315 15.3032 1.54315ZM12.6593 3.29218C12.6668 3.3253 12.6922 3.36009 12.7339 3.39692C12.6843 3.33005 12.6593 3.29218 12.6593 3.29218ZM18.9148 2.19257C18.8062 2.24446 18.7072 2.30257 18.6161 2.36626C18.8011 2.25396 18.9148 2.19257 18.9148 2.19257ZM15.5171 5.26272C15.5635 5.2421 15.6149 5.23065 15.669 5.23065C15.6975 5.23065 15.7252 5.23382 15.7518 5.23982C15.7597 5.21749 15.7679 5.19521 15.7765 5.17298L15.5279 5.1901L15.5171 5.26272Z" fill="#449A01"/>
<path d="M16.2009 4.4225L15.851 4.43032L15.8739 5.4552L16.4826 4.63031L16.2009 4.4225ZM15.3032 1.54315L15.586 1.33694L14.9839 0.511194L14.9534 1.5327L15.3032 1.54315ZM17.5614 3.8214L17.8527 4.01554L17.8647 3.99752L17.8744 3.97816L17.5614 3.8214ZM17.5614 3.8214L17.2702 3.62725L17.2582 3.64527L17.2485 3.66464L17.5614 3.8214ZM17.0738 4.71786L16.7772 4.53195L16.2397 5.38943L17.1921 5.04725L17.0738 4.71786ZM19.4533 4.17889L19.5488 4.5156L19.4209 3.83039L19.4533 4.17889ZM17.211 5.31323L17.0249 5.01684L17.0126 5.02454L17.001 5.03323L17.211 5.31323ZM17.211 5.31324L17.3989 5.60852L17.4103 5.6013L17.421 5.59324L17.211 5.31324ZM17.211 5.31325L17.3972 5.60965L17.3989 5.60853L17.211 5.31325ZM16.4373 5.78585L16.2626 5.4826L15.621 5.85234L16.314 6.11339L16.4373 5.78585ZM19.0953 7.90836L18.8636 8.17075L19.7554 8.95796L19.4321 7.81323L19.0953 7.90836ZM17.053 6.88849L16.8964 7.20154L16.9044 7.20552L16.9126 7.2091L17.053 6.88849ZM17.053 6.88848L17.2095 6.57543L17.2015 6.57144L17.1933 6.56787L17.053 6.88848ZM16.3304 6.57123L16.4717 6.25102L15.8004 5.9548L15.9926 6.66295L16.3304 6.57123ZM16.9097 8.1716L17.2323 8.03596L17.2322 8.03577L16.9097 8.1716ZM16.9688 8.31238L16.8776 8.65028L17.5691 8.83697L17.2915 8.17674L16.9688 8.31238ZM15.0719 6.64627L15.4118 6.56292L15.281 6.02944L14.8527 6.37337L15.0719 6.64627ZM12.7579 7.93524L12.5005 7.69811L12.8757 8.26483L12.7579 7.93524ZM14.6304 5.98556L14.8754 6.23542L15.4007 5.72019L14.6696 5.63776L14.6304 5.98556ZM11.6344 5.77212L11.5534 5.43162L11.6172 6.1217L11.6344 5.77212ZM11.7733 5.73907L11.8543 6.07958L11.8545 6.07954L11.7733 5.73907ZM14.889 5.27722L14.8843 5.62719L15.0601 4.97191L14.889 5.27722ZM14.1768 4.06283L14.0476 4.3881L14.0481 4.38832L14.1768 4.06283ZM14.1769 4.06285L14.3061 3.73759L14.3055 3.73736L14.1769 4.06285ZM15.1844 4.47018L15.0498 4.79327L15.5068 4.98364L15.5339 4.4893L15.1844 4.47018ZM12.6593 3.29218L12.9512 3.09911L12.318 3.37006L12.6593 3.29218ZM18.9148 2.19257L19.0811 2.50053L18.7639 1.87676L18.9148 2.19257ZM15.5171 5.26272L15.1709 5.21104L15.0769 5.84098L15.659 5.58263L15.5171 5.26272ZM15.7518 5.23982L15.6749 5.58126L15.9787 5.64969L16.082 5.35595L15.7518 5.23982ZM15.7765 5.17298L16.103 5.29891L16.3008 4.78605L15.7524 4.82381L15.7765 5.17298ZM15.5279 5.1901L15.5039 4.84093L15.2233 4.86025L15.1818 5.13843L15.5279 5.1901ZM16.2009 4.4225L16.5508 4.41469C16.5268 3.3399 16.2588 2.2596 15.586 1.33694L15.3032 1.54315L15.0204 1.74936C15.5885 2.52843 15.8293 3.45912 15.851 4.43032L16.2009 4.4225ZM18.6161 2.36626L18.4345 2.06705C17.8835 2.40146 16.6633 3.20639 15.9193 4.2147L16.2009 4.4225L16.4826 4.63031C17.1393 3.74019 18.2559 2.99425 18.7977 2.66546L18.6161 2.36626ZM17.5614 3.8214L17.8744 3.97816C18.1748 3.37842 18.4001 2.94442 18.8167 2.65308L18.6161 2.36626L18.4155 2.07943C17.8295 2.48925 17.534 3.09472 17.2485 3.66463L17.5614 3.8214ZM17.5614 3.8214L17.8527 4.01554L17.8527 4.01554L17.5614 3.8214L17.2702 3.62725L17.2702 3.62725L17.5614 3.8214ZM17.0738 4.71786L17.3703 4.90377C17.5725 4.58123 17.7313 4.26381 17.8744 3.97816L17.5614 3.8214L17.2485 3.66464C17.1038 3.95344 16.9591 4.24189 16.7772 4.53195L17.0738 4.71786ZM19.4533 4.17889C19.4209 3.83039 19.4208 3.8304 19.4208 3.8304C19.4208 3.83041 19.4207 3.83041 19.4207 3.83042C19.4206 3.83042 19.4205 3.83044 19.4203 3.83045C19.4201 3.83047 19.4197 3.8305 19.4193 3.83054C19.4185 3.83062 19.4174 3.83073 19.416 3.83086C19.4132 3.83113 19.4093 3.83152 19.4043 3.83202C19.3943 3.83304 19.3799 3.83454 19.3615 3.83659C19.3245 3.84068 19.2712 3.84693 19.2038 3.85577C19.0691 3.87343 18.8778 3.90146 18.6485 3.94321C18.1912 4.02646 17.5763 4.16543 16.9554 4.38847L17.0738 4.71786L17.1921 5.04725C17.765 4.84143 18.3398 4.71091 18.7738 4.63189C18.9902 4.59251 19.1699 4.56621 19.2948 4.54983C19.3573 4.54164 19.4059 4.53594 19.4385 4.53234C19.4548 4.53053 19.467 4.52925 19.475 4.52845C19.479 4.52804 19.4819 4.52776 19.4837 4.52758C19.4845 4.5275 19.4852 4.52744 19.4855 4.52741C19.4857 4.52739 19.4857 4.52738 19.4858 4.52738C19.4858 4.52738 19.4858 4.52738 19.4857 4.52738C19.4857 4.52738 19.4857 4.52739 19.4857 4.52739C19.4857 4.52739 19.4856 4.52739 19.4533 4.17889ZM17.211 5.31323L17.3972 5.60963C18.1188 5.1564 18.8101 4.72523 19.5488 4.5156L19.4533 4.17889L19.3577 3.84219C18.5056 4.08399 17.7292 4.57449 17.0249 5.01684L17.211 5.31323ZM17.211 5.31324L17.421 5.59324L17.421 5.59323L17.211 5.31323L17.001 5.03323L17.001 5.03324L17.211 5.31324ZM17.211 5.31325L17.3989 5.60853L17.3989 5.60852L17.211 5.31324L17.0231 5.01795L17.0231 5.01796L17.211 5.31325ZM16.4373 5.78585L16.6121 6.08911C16.8753 5.93743 17.1382 5.77226 17.3972 5.60964L17.211 5.31325L17.0249 5.01685C16.7638 5.1808 16.5123 5.33872 16.2626 5.4826L16.4373 5.78585ZM19.0953 7.90836C19.4321 7.81323 19.432 7.81297 19.432 7.81271C19.4319 7.81262 19.4319 7.81236 19.4318 7.81217C19.4317 7.8118 19.4316 7.81141 19.4315 7.811C19.4312 7.81017 19.431 7.80927 19.4307 7.8083C19.4301 7.80634 19.4294 7.80408 19.4286 7.80152C19.427 7.79641 19.425 7.79008 19.4225 7.78261C19.4175 7.76767 19.4105 7.74814 19.4012 7.72442C19.3825 7.67698 19.3543 7.61286 19.3135 7.53542C19.2317 7.38036 19.0994 7.17279 18.8913 6.93953C18.4739 6.47155 17.7606 5.91033 16.5607 5.45832L16.4373 5.78585L16.314 6.11339C17.4176 6.52911 18.0333 7.02914 18.3689 7.40548C18.5374 7.59438 18.6377 7.75474 18.6944 7.86206C18.7227 7.91582 18.7402 7.95651 18.7499 7.98108C18.7548 7.99337 18.7577 8.00163 18.7589 8.0055C18.7596 8.00743 18.7599 8.00826 18.7598 8.00794C18.7597 8.00778 18.7596 8.00734 18.7593 8.0066C18.7592 8.00623 18.7591 8.00578 18.759 8.00527C18.7589 8.00501 18.7588 8.00473 18.7587 8.00443C18.7587 8.00429 18.7586 8.00405 18.7586 8.00398C18.7585 8.00374 18.7585 8.00349 19.0953 7.90836ZM17.053 6.88849L16.9126 7.2091C17.4905 7.46216 17.9231 7.65161 18.2469 7.80874C18.5767 7.96877 18.7613 8.08042 18.8636 8.17075L19.0953 7.90836L19.3269 7.64597C19.1468 7.48699 18.8856 7.34059 18.5525 7.17896C18.2134 7.01444 17.766 6.8186 17.1933 6.56787L17.053 6.88849ZM17.053 6.88848L16.8964 7.20153L16.8964 7.20154L17.053 6.88849L17.2095 6.57544L17.2095 6.57543L17.053 6.88848ZM16.3304 6.57123L16.1891 6.89145C16.4514 7.00716 16.6921 7.11258 16.9126 7.2091L17.053 6.88848L17.1933 6.56787C16.9728 6.47132 16.7329 6.36627 16.4717 6.25102L16.3304 6.57123ZM16.9097 8.1716L17.2322 8.03577C17.0332 7.56311 16.8332 7.08736 16.6682 6.47952L16.3304 6.57123L15.9926 6.66295C16.1712 7.32068 16.3881 7.83493 16.5871 8.30742L16.9097 8.1716ZM16.9688 8.31238L17.2915 8.17674L17.2323 8.03596L16.9097 8.1716L16.587 8.30724L16.6462 8.44802L16.9688 8.31238ZM15.0719 6.64627L14.7319 6.72962C14.9159 7.47972 15.4837 7.96045 15.9538 8.24277C16.1933 8.38664 16.4211 8.48737 16.5887 8.55224C16.6729 8.58481 16.7429 8.6087 16.7928 8.62472C16.8178 8.63274 16.8378 8.63881 16.8522 8.64304C16.8593 8.64515 16.8651 8.6468 16.8694 8.648C16.8715 8.6486 16.8733 8.64909 16.8746 8.64947C16.8753 8.64966 16.8759 8.64982 16.8764 8.64996C16.8767 8.65003 16.8769 8.65009 16.8771 8.65014C16.8772 8.65017 16.8773 8.6502 16.8774 8.65021C16.8775 8.65025 16.8776 8.65028 16.9688 8.31238C17.0601 7.97448 17.0602 7.97451 17.0603 7.97454C17.0603 7.97454 17.0604 7.97457 17.0605 7.97458C17.0606 7.97461 17.0606 7.97463 17.0607 7.97464C17.0608 7.97467 17.0608 7.97468 17.0607 7.97466C17.0606 7.97461 17.06 7.97447 17.0591 7.97422C17.0574 7.97371 17.0542 7.9728 17.0496 7.97146C17.0404 7.96877 17.0259 7.96439 17.0067 7.95822C16.9683 7.94588 16.9114 7.9265 16.8414 7.89941C16.7007 7.84497 16.511 7.76087 16.3142 7.64267C15.9115 7.40087 15.5309 7.04855 15.4118 6.56292L15.0719 6.64627ZM12.7579 7.93524L12.8757 8.26483C13.35 8.09537 14.3555 7.67042 15.291 6.91916L15.0719 6.64627L14.8527 6.37337C13.9996 7.05851 13.0725 7.45116 12.6401 7.60565L12.7579 7.93524ZM14.6304 5.98556L14.3853 5.73569C13.9841 6.12923 13.5123 6.62048 13.1425 7.01153C12.9573 7.20744 12.7969 7.37893 12.6828 7.50147C12.6258 7.56275 12.5803 7.61182 12.549 7.64561C12.5333 7.66251 12.5213 7.67558 12.5131 7.68446C12.509 7.6889 12.5058 7.69229 12.5037 7.69458C12.5027 7.69572 12.5019 7.69659 12.5013 7.69718C12.5011 7.69748 12.5009 7.6977 12.5007 7.69786C12.5006 7.69794 12.5006 7.69799 12.5005 7.69804C12.5005 7.69806 12.5005 7.69808 12.5005 7.69809C12.5005 7.6981 12.5005 7.69811 12.7579 7.93524C13.0153 8.17237 13.0153 8.17237 13.0153 8.17237C13.0153 8.17236 13.0153 8.17235 13.0154 8.17234C13.0154 8.17231 13.0154 8.17226 13.0155 8.1722C13.0156 8.17207 13.0158 8.17186 13.016 8.17159C13.0165 8.17105 13.0173 8.17023 13.0183 8.16913C13.0203 8.16694 13.0234 8.16365 13.0274 8.15932C13.0354 8.15065 13.0473 8.13778 13.0627 8.12111C13.0936 8.08777 13.1386 8.03919 13.1952 7.97845C13.3083 7.85693 13.4674 7.68681 13.6511 7.4925C14.0194 7.10311 14.4838 6.61953 14.8754 6.23542L14.6304 5.98556ZM11.6344 5.77212C11.6172 6.1217 11.6172 6.1217 11.6172 6.1217C11.6172 6.1217 11.6172 6.1217 11.6173 6.1217C11.6173 6.1217 11.6174 6.12171 11.6175 6.12171C11.6177 6.12172 11.6181 6.12174 11.6185 6.12176C11.6194 6.12181 11.6208 6.12188 11.6226 6.12197C11.6263 6.12215 11.6318 6.12242 11.639 6.12279C11.6535 6.12351 11.6748 6.12459 11.7024 6.12602C11.7576 6.12886 11.8377 6.13305 11.9371 6.13845C12.136 6.14926 12.4119 6.16488 12.7202 6.18415C13.339 6.22283 14.0802 6.27575 14.5911 6.33335L14.6304 5.98556L14.6696 5.63776C14.1396 5.57801 13.3829 5.52421 12.7639 5.48551C12.4533 5.46609 12.1754 5.45036 11.9751 5.43948C11.875 5.43404 11.7942 5.42981 11.7384 5.42694C11.7105 5.42551 11.6889 5.42441 11.6741 5.42367C11.6668 5.4233 11.6612 5.42302 11.6574 5.42283C11.6555 5.42274 11.654 5.42267 11.6531 5.42262C11.6526 5.42259 11.6522 5.42257 11.652 5.42256C11.6518 5.42256 11.6517 5.42255 11.6517 5.42255C11.6516 5.42255 11.6516 5.42254 11.6516 5.42254C11.6516 5.42254 11.6515 5.42254 11.6344 5.77212ZM11.7733 5.73907L11.6924 5.39857L11.5534 5.43162L11.6344 5.77212L11.7153 6.11263L11.8543 6.07958L11.7733 5.73907ZM14.889 5.27722L14.8937 4.92725C13.7288 4.91156 12.471 5.21305 11.6922 5.3986L11.7733 5.73907L11.8545 6.07954C12.6473 5.89065 13.8207 5.61286 14.8843 5.62719L14.889 5.27722ZM12.7339 3.39692L12.4527 3.60535C12.6937 3.9304 13.4632 4.87934 14.7178 5.58254L14.889 5.27722L15.0601 4.97191C13.9254 4.33595 13.2257 3.47258 13.0151 3.18848L12.7339 3.39692ZM14.1768 4.06283L14.3061 3.73757C13.9423 3.59301 13.6365 3.47144 13.3977 3.36535C13.1459 3.25347 13.0146 3.17793 12.9657 3.13465L12.7339 3.39692L12.5021 3.65918C12.6434 3.78404 12.8722 3.89784 13.1135 4.00506C13.3679 4.11808 13.6885 4.2454 14.0476 4.38809L14.1768 4.06283ZM14.1769 4.06285L14.3055 3.73736L14.3055 3.73735L14.1768 4.06283L14.0481 4.38832L14.0482 4.38833L14.1769 4.06285ZM15.1844 4.47018L15.319 4.14709C14.953 3.99466 14.611 3.85874 14.3061 3.73759L14.1769 4.06285L14.0476 4.38811C14.3529 4.50944 14.6899 4.64336 15.0498 4.79327L15.1844 4.47018ZM15.3032 1.54315C14.9534 1.5327 14.9534 1.5327 14.9534 1.53271C14.9534 1.53272 14.9534 1.53274 14.9534 1.53276C14.9534 1.53281 14.9534 1.53288 14.9534 1.53297C14.9534 1.53317 14.9534 1.53346 14.9533 1.53385C14.9533 1.53464 14.9533 1.53583 14.9532 1.5374C14.9531 1.54055 14.953 1.54527 14.9528 1.55148C14.9524 1.5639 14.9519 1.58231 14.9511 1.60622C14.9496 1.65402 14.9474 1.72378 14.9446 1.81146C14.9388 1.98683 14.9305 2.23382 14.92 2.5202C14.8989 3.09337 14.8693 3.82269 14.8349 4.45107L15.1844 4.47018L15.5339 4.4893C15.5686 3.85467 15.5984 3.12046 15.6195 2.54588C15.63 2.25838 15.6384 2.01043 15.6442 1.83432C15.6471 1.74626 15.6493 1.67615 15.6508 1.62802C15.6515 1.60396 15.6521 1.58539 15.6525 1.57282C15.6527 1.56653 15.6528 1.56175 15.6529 1.55852C15.653 1.55691 15.653 1.55569 15.653 1.55487C15.653 1.55446 15.653 1.55415 15.6531 1.55394C15.6531 1.55383 15.6531 1.55375 15.6531 1.5537C15.6531 1.55367 15.6531 1.55365 15.6531 1.55363C15.6531 1.55362 15.6531 1.55361 15.3032 1.54315ZM12.6593 3.29218L12.318 3.37006C12.35 3.51018 12.4414 3.60552 12.5021 3.65918L12.7339 3.39692L12.9657 3.13465C12.9584 3.12821 12.9613 3.12955 12.9683 3.13927C12.9752 3.14894 12.9913 3.17422 13.0005 3.21429L12.6593 3.29218ZM12.7339 3.39692L13.0151 3.18848C12.9923 3.15778 12.9755 3.13425 12.9649 3.11898C12.9595 3.11135 12.9557 3.10578 12.9534 3.10243C12.9523 3.10075 12.9515 3.09962 12.9512 3.09906C12.951 3.09878 12.9509 3.09865 12.9509 3.09865C12.9509 3.09866 12.9509 3.0987 12.951 3.09877C12.951 3.09881 12.951 3.09886 12.9511 3.09892C12.9511 3.09894 12.9511 3.09897 12.9511 3.09901C12.9511 3.09902 12.9512 3.09904 12.9512 3.09906C12.9512 3.09907 12.9512 3.09908 12.9512 3.09908C12.9512 3.0991 12.9512 3.09911 12.6593 3.29218C12.3673 3.48524 12.3673 3.48525 12.3674 3.48527C12.3674 3.48527 12.3674 3.48529 12.3674 3.4853C12.3674 3.48532 12.3674 3.48534 12.3674 3.48536C12.3674 3.4854 12.3675 3.48544 12.3675 3.48549C12.3676 3.48558 12.3676 3.48569 12.3677 3.4858C12.3679 3.48602 12.368 3.48628 12.3682 3.48658C12.3686 3.48718 12.3691 3.48792 12.3697 3.48881C12.3709 3.49058 12.3725 3.49293 12.3745 3.49585C12.3784 3.50168 12.384 3.50976 12.3911 3.51996C12.4053 3.54034 12.4259 3.56918 12.4527 3.60535L12.7339 3.39692ZM18.9148 2.19257L18.7639 1.87676C18.6381 1.93687 18.5224 2.00465 18.4155 2.07943L18.6161 2.36626L18.8167 2.65308C18.8919 2.60049 18.9743 2.55205 19.0657 2.50837L18.9148 2.19257ZM18.6161 2.36626L18.7977 2.66546C18.8872 2.61112 18.9591 2.56932 19.0082 2.54137C19.0327 2.52739 19.0514 2.51689 19.0638 2.51003C19.07 2.5066 19.0746 2.50408 19.0775 2.50249C19.079 2.50169 19.08 2.50113 19.0806 2.5008C19.0809 2.50064 19.0811 2.50053 19.0812 2.50049C19.0812 2.50046 19.0812 2.50046 19.0812 2.50046C19.0812 2.50047 19.0812 2.50047 19.0812 2.50048C19.0812 2.50049 19.0812 2.5005 19.0812 2.5005C19.0811 2.50051 19.0811 2.50051 19.0811 2.50052C19.0811 2.50052 19.0811 2.50053 18.9148 2.19257C18.7485 1.8846 18.7485 1.88461 18.7485 1.88462C18.7485 1.88462 18.7484 1.88463 18.7484 1.88463C18.7484 1.88464 18.7484 1.88466 18.7484 1.88467C18.7483 1.8847 18.7483 1.88473 18.7482 1.88476C18.7481 1.88483 18.7479 1.88491 18.7478 1.885C18.7474 1.8852 18.7469 1.88545 18.7463 1.88576C18.7452 1.88639 18.7436 1.88726 18.7416 1.88836C18.7376 1.89057 18.7318 1.89372 18.7245 1.8978C18.7097 1.90595 18.6885 1.91782 18.6615 1.93323C18.6074 1.96405 18.53 2.0091 18.4345 2.06705L18.6161 2.36626ZM15.669 5.23065V4.88065C15.5651 4.88065 15.4654 4.90274 15.3751 4.9428L15.5171 5.26272L15.659 5.58263C15.6617 5.58147 15.6648 5.58065 15.669 5.58065V5.23065ZM15.7518 5.23982L15.8287 4.89837C15.777 4.88673 15.7235 4.88065 15.669 4.88065V5.23065V5.58065C15.6714 5.58065 15.6733 5.58091 15.6749 5.58126L15.7518 5.23982ZM15.7518 5.23982L16.082 5.35595C16.0887 5.33697 16.0957 5.31796 16.103 5.29891L15.7765 5.17298L15.4499 5.04706C15.4401 5.07247 15.4307 5.09801 15.4216 5.12368L15.7518 5.23982ZM15.7765 5.17298L15.7524 4.82381L15.5039 4.84093L15.5279 5.1901L15.552 5.53927L15.8005 5.52216L15.7765 5.17298ZM15.5279 5.1901L15.1818 5.13843L15.1709 5.21104L15.5171 5.26272L15.8632 5.31439L15.8741 5.24177L15.5279 5.1901Z" fill="white" mask="url(#path-14-outside-2_395_50363)"/>
<path fill-rule="evenodd" clip-rule="evenodd" d="M14.4332 11.2163C14.4495 11.2079 15.0844 10.8835 15.7144 10.9575C15.7144 10.9579 15.7135 10.9585 15.7135 10.9595C16.1384 10.9099 16.5584 10.9964 16.9732 11.2173C17.4055 11.2173 17.8195 11.3879 18.2144 11.729V11.8638L17.44 12.8003C17.2852 13.317 17.0086 13.3441 16.7935 13.4302C16.7225 13.4586 15.7115 13.4917 15.7115 13.4917V13.4888C14.195 13.6992 13.9694 12.8125 13.9664 12.8003L13.192 11.8638V11.729C13.192 11.729 13.7847 11.2163 14.4332 11.2163Z" fill="#F50100"/>
<path fill-rule="evenodd" clip-rule="evenodd" d="M15.028 10.2209C15.2585 10.2209 15.4455 10.2832 15.5866 10.4094V10.3273H15.8932V10.3752C16.0258 10.2817 16.1926 10.2355 16.3913 10.2355C16.7838 10.2356 16.9869 10.3695 17.0964 10.716V10.6974C17.5315 10.6762 17.8622 10.7295 18.0886 10.8625C18.3455 11.0134 18.3883 11.3639 18.238 11.8791L18.0925 11.8176C18.2201 11.3801 18.1897 11.1288 18.0212 11.0295C17.827 10.9154 17.5311 10.8651 17.1354 10.881C17.1638 11.1089 17.0834 11.3143 16.8991 11.4865L16.8054 11.341C16.9705 11.1867 17.0209 11.021 16.9684 10.8273C16.8861 10.5235 16.7421 10.4202 16.3913 10.4201C16.1732 10.4201 16.0079 10.4819 15.8932 10.6017V11.5285H15.7468C15.7716 11.5571 15.7928 11.5944 15.8014 11.6389C15.8102 11.684 15.8036 11.7267 15.7907 11.7629C15.8109 11.7577 15.8325 11.7541 15.8552 11.7541C15.9612 11.7541 16.0475 11.8162 16.0475 11.8928C16.0474 11.9693 15.9611 12.0314 15.8552 12.0314C15.8289 12.0314 15.8038 12.0276 15.7809 12.0207C15.7889 12.2124 15.8745 12.3331 16.0007 12.3332C16.0933 12.3332 16.1585 12.2822 16.2057 12.1701L16.3376 11.8576L16.3513 12.2072C16.3562 12.3302 16.4008 12.3791 16.5114 12.3791C16.6248 12.3791 16.7043 12.2903 16.7565 12.0891L16.7731 12.0236C16.7338 12.0506 16.6785 12.0663 16.6179 12.0578C16.5131 12.0431 16.4366 11.9694 16.447 11.8937C16.4576 11.8179 16.5519 11.7677 16.6569 11.7824C16.6839 11.7862 16.7089 11.7943 16.7311 11.8049C16.7237 11.7833 16.7188 11.7596 16.7175 11.7346C16.712 11.6288 16.769 11.5394 16.8454 11.5353C16.9218 11.5313 16.9882 11.6142 16.9938 11.7199C16.9964 11.7685 16.9842 11.8129 16.9645 11.8478C16.9874 11.8445 17.0117 11.8443 17.0368 11.8478C17.1416 11.8626 17.218 11.9353 17.2077 12.0109C17.1971 12.0866 17.1035 12.1368 16.9987 12.1223C16.963 12.1172 16.9318 12.1025 16.905 12.0861L16.9069 12.1086C16.924 12.3384 16.9762 12.446 17.0534 12.4611C17.1584 12.4816 17.2379 12.472 17.2936 12.4357L17.4069 12.3625V12.4875C17.4426 12.492 17.5039 12.484 17.5876 12.4621L17.611 12.5969L17.8893 12.2814C17.865 12.2912 17.8403 12.2967 17.8161 12.2892C17.8051 12.2859 17.7959 12.2793 17.7868 12.2726C17.7851 12.2774 17.7843 12.2827 17.7819 12.2873C17.7459 12.3547 17.6411 12.3692 17.5475 12.3195C17.454 12.2697 17.4071 12.1742 17.443 12.1066C17.4791 12.0392 17.5848 12.0247 17.6784 12.0744C17.6988 12.0853 17.7165 12.099 17.7321 12.1135C17.7338 12.0975 17.7349 12.0809 17.7399 12.0646C17.7709 11.9634 17.8553 11.8999 17.9284 11.9221C18.0016 11.9444 18.0364 12.0444 18.0055 12.1457C18.0044 12.1495 18.001 12.1527 17.9997 12.1564L18.1784 11.9553L18.2302 12.0226L17.5261 12.8205C17.4234 13.0481 17.3718 13.1985 17.3718 13.2609C17.3716 13.3561 17.1652 13.4128 16.7634 13.4709C16.4485 13.5164 16.077 13.5454 15.7731 13.55V13.5519C15.7603 13.5519 15.7472 13.5511 15.7341 13.551C15.7212 13.5511 15.7085 13.5519 15.696 13.5519V13.55C15.3921 13.5454 15.0206 13.5164 14.7057 13.4709C14.3039 13.4128 14.0975 13.3561 14.0973 13.2609C14.0973 13.247 14.0937 13.2288 14.0886 13.2062C14.0553 13.151 14.0302 13.0701 14.0124 12.9914C13.9919 12.9409 13.9712 12.8829 13.943 12.8205L13.7858 12.6428H13.7829V12.6398L13.5007 12.3205C13.4363 12.3193 13.37 12.2609 13.3434 12.174C13.3395 12.1611 13.3395 12.1477 13.3376 12.1349L13.238 12.0226L13.2907 11.9553L13.3493 12.0217C13.364 11.9869 13.3875 11.9605 13.4206 11.9504C13.4938 11.9281 13.5781 11.9917 13.6091 12.093C13.614 12.1092 13.6142 12.1259 13.6159 12.1418C13.6317 12.127 13.6507 12.1138 13.6716 12.1027C13.765 12.0532 13.8699 12.0677 13.9059 12.1349C13.9419 12.2026 13.8951 12.2981 13.8014 12.3478C13.7547 12.3727 13.7052 12.3819 13.6628 12.3762L13.8014 12.5334L13.8151 12.4621C13.8988 12.484 13.9601 12.492 13.9958 12.4875V12.3625L14.1091 12.4357C14.1648 12.472 14.2451 12.4817 14.3503 12.4611C14.4273 12.4457 14.4797 12.338 14.4968 12.1086L14.5026 12.0226C14.4799 12.0809 14.407 12.1242 14.319 12.1242C14.213 12.1242 14.1267 12.0621 14.1266 11.9855C14.1266 11.909 14.213 11.8469 14.319 11.8469C14.3522 11.8469 14.3826 11.8547 14.4098 11.8654C14.3954 11.8416 14.3826 11.8142 14.3766 11.7834C14.3565 11.6794 14.4012 11.5832 14.4763 11.5685C14.5514 11.5539 14.6289 11.6266 14.6491 11.7307C14.6579 11.7761 14.6524 11.8193 14.6393 11.8557C14.6594 11.8505 14.6813 11.8469 14.7038 11.8469C14.8096 11.847 14.8952 11.9091 14.8952 11.9855C14.8952 12.062 14.8096 12.124 14.7038 12.1242C14.6869 12.1242 14.6706 12.1194 14.655 12.1164C14.7072 12.2981 14.7833 12.379 14.8913 12.3791C15.002 12.3791 15.0465 12.3302 15.0514 12.2072L15.0661 11.8576L15.197 12.1701C15.2442 12.2822 15.3095 12.3331 15.402 12.3332C15.5346 12.3332 15.6237 12.2001 15.6237 11.9914H15.7214C15.6857 11.9663 15.6628 11.9316 15.6628 11.8928C15.6628 11.8793 15.6656 11.866 15.6706 11.8537C15.6643 11.853 15.6582 11.8516 15.652 11.8498C15.6583 11.8635 15.6628 11.8776 15.6628 11.8928C15.6627 11.9692 15.5772 12.0314 15.4714 12.0314C15.3654 12.0314 15.2791 11.9693 15.279 11.8928C15.279 11.8162 15.3653 11.7541 15.4714 11.7541C15.5034 11.7541 15.5327 11.7617 15.5593 11.7717C15.5455 11.7484 15.5348 11.7214 15.529 11.6916C15.5129 11.6087 15.5378 11.531 15.5866 11.4953V11.3986H15.5251V10.5871C15.4105 10.4673 15.246 10.4055 15.028 10.4055C14.6768 10.4055 14.5323 10.5088 14.4499 10.8127C14.3974 11.0063 14.4489 11.1721 14.6139 11.3264L14.5192 11.4719C14.3141 11.2802 14.2373 11.0473 14.2966 10.7883C13.8987 10.7718 13.6018 10.8223 13.4069 10.9367C13.2381 11.0359 13.207 11.2871 13.3346 11.7248L13.1901 11.7863C13.0398 11.2711 13.0826 10.9216 13.3395 10.7707C13.5659 10.6377 13.8956 10.5835 14.3307 10.6047L14.3278 10.6818C14.4388 10.3496 14.6426 10.2209 15.028 10.2209ZM15.6921 13.0637C15.4908 13.0791 14.3831 13.1685 14.2155 13.2629C14.2129 13.2644 14.2093 13.2636 14.2067 13.2648C14.2316 13.276 14.2654 13.2892 14.3083 13.301C14.4071 13.3281 14.5479 13.355 14.7145 13.3791C15.0398 13.4261 15.4265 13.4557 15.7341 13.4582C16.0418 13.4558 16.429 13.4261 16.7546 13.3791C16.9212 13.355 17.0621 13.3281 17.1608 13.301C17.211 13.2872 17.2498 13.2737 17.2751 13.2609C17.2841 13.2564 17.2911 13.2518 17.2956 13.2482C17.2965 13.2318 17.2999 13.213 17.3044 13.1916C17.2693 13.257 17.2269 13.2951 17.1696 13.2629C17.0016 13.1683 15.8898 13.0788 15.6921 13.0637ZM16.8005 12.3928C16.7396 12.4861 16.6613 12.5398 16.568 12.5558C17.0557 12.6383 17.4007 12.7548 17.4128 12.759C17.4123 12.7638 17.3993 12.8661 17.3747 12.9787C17.3987 12.9177 17.4264 12.8476 17.4616 12.7697L17.4694 12.758L17.5583 12.6555C17.4321 12.6824 17.341 12.6823 17.2927 12.6349C17.2174 12.6612 17.1287 12.6635 17.028 12.6437C16.9204 12.6225 16.8456 12.5358 16.8005 12.3928ZM14.6022 12.3928C14.5571 12.5359 14.4825 12.6226 14.3747 12.6437C14.2739 12.6635 14.1854 12.6613 14.11 12.6349C14.0722 12.6719 14.0081 12.6796 13.9216 12.6691L13.9938 12.7512C14.0777 12.724 14.3973 12.6267 14.8249 12.5549C14.7361 12.5366 14.6609 12.4828 14.6022 12.3928ZM16.2438 12.4123C16.2057 12.4527 16.1615 12.4799 16.113 12.4973C16.1927 12.5045 16.2708 12.5117 16.3464 12.5217C16.3035 12.4961 16.2686 12.4601 16.2438 12.4123ZM15.1589 12.4123C15.1348 12.4588 15.1006 12.4933 15.0593 12.5187C15.1324 12.5093 15.2079 12.5031 15.2848 12.4963C15.2383 12.4787 15.1957 12.4514 15.1589 12.4123ZM15.7009 12.3205C15.663 12.3911 15.6133 12.4461 15.5514 12.4797C15.588 12.4783 15.6248 12.4772 15.6618 12.4767V12.4748C15.6718 12.4748 15.6821 12.4757 15.6921 12.4758C15.7025 12.4757 15.7129 12.4748 15.7233 12.4748V12.4767C15.7669 12.4773 15.8102 12.4789 15.8532 12.4807C15.7904 12.4471 15.7391 12.392 15.7009 12.3205ZM14.5075 11.9572V11.9435C14.5049 11.943 14.5023 11.9424 14.4997 11.9416C14.5022 11.9469 14.5059 11.9516 14.5075 11.9572Z" fill="#FECA00"/>
<path d="M14.3498 10.5285L14.3484 10.6209C13.6674 10.6066 13.2768 10.7262 13.1777 10.9646C13.0751 11.211 13.0942 11.5106 13.2379 11.8665L13.1688 11.9069C13.0155 11.5272 12.9946 11.1982 13.109 10.9232C13.2267 10.6401 13.64 10.5136 14.3498 10.5285Z" fill="white"/>
<path d="M14.4815 11.3481L14.4422 11.4275C14.2939 11.3209 14.2196 11.139 14.2196 10.8884C14.2196 10.5282 14.3738 10.317 14.7149 10.1724C14.9325 10.0802 15.2298 10.118 15.6077 10.2829L15.5815 10.3698C15.2188 10.2115 14.9381 10.1758 14.7404 10.2596C14.4276 10.3922 14.2964 10.5718 14.2964 10.8884C14.2964 11.1084 14.3581 11.2594 14.4815 11.3481Z" fill="white"/>
<path d="M17.0298 10.6205L17.0312 10.7129C17.7121 10.6986 18.1028 10.8182 18.2019 11.0566C18.3044 11.303 18.2854 11.6026 18.1417 11.9585L18.2108 11.9989C18.3641 11.6192 18.385 11.2902 18.2706 11.0152C18.1528 10.7321 17.7396 10.6056 17.0298 10.6205Z" fill="white"/>
<path d="M16.7895 11.3676L16.8288 11.447C16.9771 11.3404 17.0514 11.1586 17.0514 10.9079C17.0514 10.5477 16.8972 10.3365 16.5561 10.192C16.3385 10.0997 16.0411 10.1375 15.6633 10.3024L15.6895 10.3893C16.0522 10.231 16.3329 10.1953 16.5306 10.2791C16.8434 10.4117 16.9746 10.5914 16.9746 10.9079C16.9746 11.1279 16.9129 11.2789 16.7895 11.3676Z" fill="white"/>
</g>
</g>
</svg>
