<svg width="24" height="18" viewBox="0 0 24 18" fill="none" xmlns="http://www.w3.org/2000/svg">
<mask id="mask0_395_50935" style="mask-type:luminance" maskUnits="userSpaceOnUse" x="0" y="0" width="24" height="18">
<rect width="24" height="18" fill="white"/>
</mask>
<g mask="url(#mask0_395_50935)">
<path fill-rule="evenodd" clip-rule="evenodd" d="M0 0V18H24V0H0Z" fill="#F7FCFF"/>
<mask id="mask1_395_50935" style="mask-type:luminance" maskUnits="userSpaceOnUse" x="0" y="0" width="24" height="18">
<path fill-rule="evenodd" clip-rule="evenodd" d="M0 0V18H24V0H0Z" fill="white"/>
</mask>
<g mask="url(#mask1_395_50935)">
<path fill-rule="evenodd" clip-rule="evenodd" d="M0 0V6H24V0H0Z" fill="#BF2714"/>
<path fill-rule="evenodd" clip-rule="evenodd" d="M0 12V18H24V12H0Z" fill="#272727"/>
<path fill-rule="evenodd" clip-rule="evenodd" d="M10.0264 7.14062L7.75098 9.14941H10.1025C10.106 9.13183 10.2452 8.45605 10.833 8.45605C11.4203 8.45632 11.5646 9.13129 11.5684 9.14941V10.5938H4.87988C4.56694 11.2495 3.75 11.25 3.75 11.25C3.75 11.25 4.68485 10.5873 4.00293 9.6084L4.56738 9.17676C4.56831 9.19213 4.59673 9.6084 4.96875 9.6084C5.34778 9.60847 5.94727 9.77148 5.94727 9.77148V9.17676L6.43652 8.95801V9.77148H10.96V9.17676C10.96 9.17676 11.0003 9.01487 10.833 9.01465C10.6653 9.01465 10.6445 9.17676 10.6445 9.17676V9.45508H7.05566V8.98145L9.58398 6.75L10.0264 7.14062ZM5.61914 10.8496C5.73625 10.8498 5.83103 10.9337 5.83105 11.0371C5.83105 11.1406 5.73627 11.2244 5.61914 11.2246C5.50181 11.2246 5.40625 11.1407 5.40625 11.0371C5.40628 10.9336 5.50183 10.8496 5.61914 10.8496ZM12.6074 7.1084V9.66406H13.085L13.4512 10.5781H11.9922V6.91113L12.6074 7.1084ZM19.4062 7.1084V9.66406H19.8828L20.25 10.5781H18.79V6.91113L19.4062 7.1084ZM18.0723 10.5469H14.8242C14.8242 9.24396 15.7344 9.16483 15.7568 9.16309V8.86133L16.2422 8.54883V9.66113H16.6709V8.05957L17.3086 7.69141V9.66113H17.6963V7.20605L18.0762 6.94824L18.0723 10.5469ZM17.1904 7.06641C17.0438 7.35259 16.4355 7.23047 16.4355 7.23047C16.3119 7.39343 16.0002 7.31269 15.8516 7.26172L17.1904 7.06641Z" fill="#009C4E"/>
</g>
</g>
</svg>
