<svg width="24" height="18" viewBox="0 0 24 18" fill="none" xmlns="http://www.w3.org/2000/svg">
<mask id="mask0_395_50951" style="mask-type:luminance" maskUnits="userSpaceOnUse" x="0" y="0" width="24" height="18">
<rect width="24" height="18" fill="white"/>
</mask>
<g mask="url(#mask0_395_50951)">
<path fill-rule="evenodd" clip-rule="evenodd" d="M0 0V18H24V0H0Z" fill="#F7FCFF"/>
<mask id="mask1_395_50951" style="mask-type:luminance" maskUnits="userSpaceOnUse" x="0" y="0" width="24" height="18">
<path fill-rule="evenodd" clip-rule="evenodd" d="M0 0V18H24V0H0Z" fill="white"/>
</mask>
<g mask="url(#mask1_395_50951)">
<path fill-rule="evenodd" clip-rule="evenodd" d="M0 0V6H24V0H0Z" fill="#5EAA22"/>
<path fill-rule="evenodd" clip-rule="evenodd" d="M0 12V18H24V12H0Z" fill="#E31D1C"/>
<path fill-rule="evenodd" clip-rule="evenodd" d="M0.878906 13.4883H0.885742V12.5156H1.15527V13.4941H1.19727V12.5879H1.46582V13.9688H1.04492V13.9639H0.610352V13.2979H0.269531V13.4883H0.423828V13.9639H0V12.8232H0.610352V12.5156H0.878906V13.4883ZM2.3877 13.4932H2.69434V13.2842H2.53027V12.8086H2.96289V13.9688H2.11914V13.2832H1.81934V13.7549H1.5498V12.8076H2.3877V13.4932ZM3.87891 13.4883H3.88574V12.5156H4.15527V13.4941H4.19629V12.5879H4.46582V13.9688H4.04492V13.9639H3.61035V13.2979H3.26855V13.4883H3.42383V13.9639H3V12.8232H3.61035V12.5156H3.87891V13.4883ZM5.3877 13.4932H5.69336V13.2842H5.53027V12.8086H5.96289V13.9688H5.11914V13.2832H4.81836V13.7549H4.5498V12.8076H5.3877V13.4932ZM6.93262 13.4883H6.93945V12.5156H7.20801V13.4941H7.25V12.5879H7.51855V13.9688H7.09766V13.9639H6.66309V13.2979H6.32227V13.4883H6.47754V13.9639H6.05273V12.8232H6.66309V12.5156H6.93262V13.4883ZM8.44141 13.4932H8.74707V13.2842H8.58301V12.8086H9.0166V13.9688H8.17188V13.2832H7.87207V13.7549H7.60352V12.8076H8.44141V13.4932ZM9.93262 13.4883H9.93945V12.5156H10.208V13.4941H10.25V12.5879H10.5186V13.9688H10.0977V13.9639H9.66309V13.2979H9.32227V13.4883H9.47754V13.9639H9.05273V12.8232H9.66309V12.5156H9.93262V13.4883ZM11.4414 13.4932H11.7471V13.2842H11.583V12.8086H12.0156V13.9688H11.1719V13.2832H10.8721V13.7549H10.6025V12.8076H11.4414V13.4932ZM12.9316 13.4883H12.9395V12.5156H13.208V13.4941H13.25V12.5879H13.5186V13.9688H13.0977V13.9639H12.6631V13.2979H12.3223V13.4883H12.4775V13.9639H12.0527V12.8232H12.6631V12.5156H12.9316V13.4883ZM14.4404 13.4932H14.7471V13.2842H14.583V12.8086H15.0156V13.9688H14.1719V13.2832H13.8721V13.7549H13.6025V12.8076H14.4404V13.4932ZM15.9854 13.4883H15.9922V12.5156H16.2617V13.4941H16.3027V12.5879H16.5723V13.9688H16.1504V13.9639H15.7158V13.2979H15.375V13.4883H15.5303V13.9639H15.1064V12.8232H15.7158V12.5156H15.9854V13.4883ZM17.4941 13.4932H17.7998V13.2842H17.6367V12.8086H18.0693V13.9688H17.2256V13.2832H16.9248V13.7549H16.6562V12.8076H17.4941V13.4932ZM19.0391 13.4883H19.0459V12.5156H19.3145V13.4941H19.3564V12.5879H19.625V13.9688H19.2041V13.9639H18.7695V13.2979H18.4287V13.4883H18.584V13.9639H18.1592V12.8232H18.7695V12.5156H19.0391V13.4883ZM20.5479 13.4932H20.8535V13.2842H20.6895V12.8086H21.123V13.9688H20.2783V13.2832H19.9785V13.7549H19.71V12.8076H20.5479V13.4932ZM22.0918 13.4883H22.0996V12.5156H22.3682V13.4941H22.4102V12.5879H22.6787V13.9688H22.2578V13.9639H21.8232V13.2979H21.4824V13.4883H21.6377V13.9639H21.2129V12.8232H21.8232V12.5156H22.0918V13.4883ZM23.6006 13.4932H23.9072V13.2842H23.7432V12.8086H24.1758V13.9688H23.332V13.2832H23.0322V13.7549H22.7627V12.8076H23.6006V13.4932ZM25.0918 13.4883H25.0986V12.5156H25.3682V13.4941H25.4092V12.5879H25.6787V13.9688H25.2568V13.9639H24.8232V13.2979H24.4814V13.4883H24.6367V13.9639H24.2129V12.8232H24.8232V12.5156H25.0918V13.4883ZM26.6006 13.4932H26.9072V13.2842H26.7432V12.8086H27.1758V13.9688H26.332V13.2832H26.0322V13.7549H25.7627V12.8076H26.6006V13.4932ZM28.2529 13.4883H28.2598V12.5156H28.5283V13.4941H28.5703V12.5879H28.8389V13.9688H28.418V13.9639H27.9834V13.2979H27.6426V13.4883H27.7979V13.9639H27.373V12.8232H27.9834V12.5156H28.2529V13.4883ZM29.7617 13.4932H30.0674V13.2842H29.9033V12.8086H30.3359V13.9688H29.4922V13.2832H29.1924V13.7549H28.9229V12.8076H29.7617V13.4932ZM3.4502 12.7695H1.70215V12.2939H3.4502V12.7695ZM6.4502 12.7695H4.70215V12.2939H6.4502V12.7695ZM9.50391 12.7695H7.75586V12.2939H9.50391V12.7695ZM12.5039 12.7695H10.7559V12.2939H12.5039V12.7695ZM15.5029 12.7695H13.7549V12.2939H15.5029V12.7695ZM18.5566 12.7695H16.8086V12.2939H18.5566V12.7695ZM21.6104 12.7695H19.8623V12.2939H21.6104V12.7695ZM24.6631 12.7695H22.915V12.2939H24.6631V12.7695ZM27.6631 12.7695H25.915V12.2939H27.6631V12.7695ZM30.8242 12.7695H29.0762V12.2939H30.8242V12.7695Z" fill="#F7FCFF"/>
<path fill-rule="evenodd" clip-rule="evenodd" d="M-2.20813 5.23828H-2.20129V4.26562H-1.93176V5.24414H-1.88977V4.33789H-1.62122V5.71875H-2.04211V5.71387H-2.47668V5.04785H-2.8175V5.23828H-2.66321V5.71387H-3.08704V4.57324H-2.47668V4.26562H-2.20813V5.23828ZM-0.699341 5.24316H-0.3927V5.03418H-0.556763V4.55859H-0.124146V5.71875H-0.967896V5.0332H-1.2677V5.50488H-1.53723V4.55762H-0.699341V5.24316ZM0.79187 5.23828H0.798706V4.26562H1.06824V5.24414H1.10925V4.33789H1.37878V5.71875H0.957886V5.71387H0.523315V5.04785H0.181519V5.23828H0.336792V5.71387H-0.0870361V4.57324H0.523315V4.26562H0.79187V5.23828ZM2.30066 5.24316H2.60632V5.03418H2.44324V4.55859H2.87585V5.71875H2.0321V5.0332H1.73132V5.50488H1.46277V4.55762H2.30066V5.24316ZM3.84558 5.23828H3.85242V4.26562H4.12097V5.24414H4.16296V4.33789H4.43152V5.71875H4.01062V5.71387H3.57605V5.04785H3.23523V5.23828H3.3905V5.71387H2.9657V4.57324H3.57605V4.26562H3.84558V5.23828ZM5.35437 5.24316H5.66003V5.03418H5.49597V4.55859H5.92957V5.71875H5.08484V5.0332H4.78503V5.50488H4.51648V4.55762H5.35437V5.24316ZM6.84558 5.23828H6.85242V4.26562H7.12097V5.24414H7.16296V4.33789H7.43152V5.71875H7.01062V5.71387H6.57605V5.04785H6.23523V5.23828H6.3905V5.71387H5.9657V4.57324H6.57605V4.26562H6.84558V5.23828ZM8.35437 5.24316H8.66003V5.03418H8.49597V4.55859H8.92859V5.71875H8.08484V5.0332H7.78503V5.50488H7.5155V4.55762H8.35437V5.24316ZM9.8446 5.23828H9.85242V4.26562H10.121V5.24414H10.163V4.33789H10.4315V5.71875H10.0106V5.71387H9.57605V5.04785H9.23523V5.23828H9.3905V5.71387H8.9657V4.57324H9.57605V4.26562H9.8446V5.23828ZM11.3534 5.24316H11.66V5.03418H11.496V4.55859H11.9286V5.71875H11.0848V5.0332H10.785V5.50488H10.5155V4.55762H11.3534V5.24316ZM12.8983 5.23828H12.9052V4.26562H13.1747V5.24414H13.2157V4.33789H13.4852V5.71875H13.0643V5.71387H12.6288V5.04785H12.288V5.23828H12.4432V5.71387H12.0194V4.57324H12.6288V4.26562H12.8983V5.23828ZM14.4071 5.24316H14.7128V5.03418H14.5497V4.55859H14.9823V5.71875H14.1385V5.0332H13.8378V5.50488H13.5692V4.55762H14.4071V5.24316ZM15.952 5.23828H15.9589V4.26562H16.2274V5.24414H16.2694V4.33789H16.538V5.71875H16.1171V5.71387H15.6825V5.04785H15.3417V5.23828H15.4969V5.71387H15.0721V4.57324H15.6825V4.26562H15.952V5.23828ZM17.4608 5.24316H17.7665V5.03418H17.6024V4.55859H18.036V5.71875H17.1913V5.0332H16.8915V5.50488H16.6229V4.55762H17.4608V5.24316ZM19.0048 5.23828H19.0126V4.26562H19.2811V5.24414H19.3231V4.33789H19.5917V5.71875H19.1708V5.71387H18.7362V5.04785H18.3954V5.23828H18.5507V5.71387H18.1259V4.57324H18.7362V4.26562H19.0048V5.23828ZM20.5135 5.24316H20.8202V5.03418H20.6561V4.55859H21.0887V5.71875H20.245V5.0332H19.9452V5.50488H19.6757V4.55762H20.5135V5.24316ZM22.0048 5.23828H22.0116V4.26562H22.2811V5.24414H22.3221V4.33789H22.5917V5.71875H22.1698V5.71387H21.7362V5.04785H21.3944V5.23828H21.5497V5.71387H21.1259V4.57324H21.7362V4.26562H22.0048V5.23828ZM23.5135 5.24316H23.8202V5.03418H23.6561V4.55859H24.0887V5.71875H23.245V5.0332H22.9452V5.50488H22.6757V4.55762H23.5135V5.24316ZM25.1659 5.23828H25.1727V4.26562H25.4413V5.24414H25.4833V4.33789H25.7518V5.71875H25.3309V5.71387H24.8964V5.04785H24.5555V5.23828H24.7108V5.71387H24.286V4.57324H24.8964V4.26562H25.1659V5.23828ZM26.6747 5.24316H26.9803V5.03418H26.8163V4.55859H27.2489V5.71875H26.4052V5.0332H26.1053V5.50488H25.8358V4.55762H26.6747V5.24316ZM0.363159 4.51953H-1.38489V4.04395H0.363159V4.51953ZM3.36316 4.51953H1.61511V4.04395H3.36316V4.51953ZM6.41687 4.51953H4.66882V4.04395H6.41687V4.51953ZM9.41687 4.51953H7.66882V4.04395H9.41687V4.51953ZM12.4159 4.51953H10.6678V4.04395H12.4159V4.51953ZM15.4696 4.51953H13.7216V4.04395H15.4696V4.51953ZM18.5233 4.51953H16.7753V4.04395H18.5233V4.51953ZM21.576 4.51953H19.828V4.04395H21.576V4.51953ZM24.576 4.51953H22.828V4.04395H24.576V4.51953ZM27.7372 4.51953H25.9891V4.04395H27.7372V4.51953Z" fill="#F7FCFF"/>
<path fill-rule="evenodd" clip-rule="evenodd" d="M12.4019 6.60742C12.4019 6.60742 13.5095 7.80129 13.4399 9.13281C13.3983 9.92647 12.7844 10.7638 12.2974 11.3125C12.5343 11.3654 12.8524 11.4301 13.2905 11.5166C13.3101 11.6182 12.8571 11.4973 12.0298 11.6025C11.8366 11.8003 11.7022 11.92 11.6968 11.9248C11.6942 11.9213 11.672 11.8949 11.6411 11.8574C11.6099 11.8952 11.5877 11.9218 11.5854 11.9248C11.5784 11.9187 11.4438 11.7995 11.2515 11.6025C10.4249 11.4976 9.9721 11.6182 9.9917 11.5166C10.4293 11.4302 10.747 11.3654 10.9839 11.3125C10.497 10.7638 9.88386 9.92619 9.84229 9.13281C9.77273 7.8013 10.8804 6.60742 10.8804 6.60742C10.8804 6.60742 10.4773 7.15632 10.5601 8.73633C10.5885 9.2784 10.8029 10.0844 11.0718 10.5605V6.69336H12.1968V10.5938C12.4659 10.149 12.6738 9.39255 12.7026 8.84277C12.7854 7.26265 12.4019 6.60742 12.4019 6.60742ZM10.4233 6.6377C10.3995 6.6507 9.36475 7.22296 9.36475 8.78711C9.36476 10.3571 9.90604 11.044 9.91455 11.0547C9.89815 11.0437 8.59229 10.1679 8.59229 8.84277C8.59245 7.52123 10.3913 6.65303 10.4233 6.6377ZM12.9409 6.6377C12.9628 6.64729 14.771 7.4441 14.771 8.76953C14.7709 10.1029 13.4497 11.0547 13.4497 11.0547C13.4497 11.0547 13.9995 10.3695 13.9995 8.78711C13.9995 7.2173 12.9575 6.64669 12.9409 6.6377ZM12.2612 6.41211C12.2612 6.41211 11.9007 6.58105 11.5815 6.58105C11.2625 6.58094 10.9546 6.41211 10.9546 6.41211V6.1875C10.9546 6.1875 11.2751 6.35638 11.603 6.35645C11.9282 6.35645 12.2556 6.19035 12.2612 6.1875V6.41211Z" fill="#E31D1C"/>
</g>
</g>
</svg>
