<svg width="24" height="18" viewBox="0 0 24 18" fill="none" xmlns="http://www.w3.org/2000/svg">
<mask id="mask0_395_55738" style="mask-type:luminance" maskUnits="userSpaceOnUse" x="0" y="0" width="24" height="18">
<rect width="24" height="18" fill="white"/>
</mask>
<g mask="url(#mask0_395_55738)">
<path fill-rule="evenodd" clip-rule="evenodd" d="M0 0V6H24V0H0Z" fill="#262626"/>
<path fill-rule="evenodd" clip-rule="evenodd" d="M0 12V18H24V12H0Z" fill="#4D8B1D"/>
<path d="M25 5V13H-1V5H25Z" fill="#E31C1C" stroke="#F5FBFF" stroke-width="2"/>
</g>
<path d="M14.2646 2.94672C14.4074 2.65408 14.7911 2.33451 15.4158 1.98802C15.4373 1.97611 15.4632 1.97543 15.4853 1.98619C15.5226 2.0044 15.5382 2.04944 15.5197 2.08668L9.04628 15.3592L8.70923 15.1949L14.4155 3.49519C14.1571 3.4531 14.1068 3.27027 14.2646 2.94672Z" fill="white"/>
<path d="M9.72843 2.94672C9.88623 3.27027 9.83594 3.4531 9.57754 3.49519L15.2838 15.1949L14.9468 15.3592L8.47333 2.08668C8.45492 2.04944 8.47043 2.0044 8.50777 1.98619C8.52983 1.97543 8.55576 1.97611 8.57723 1.98802C9.20196 2.33451 9.58569 2.65408 9.72843 2.94672Z" fill="white"/>
<path fill-rule="evenodd" clip-rule="evenodd" d="M12 15C12.7475 15 15.75 12.3137 15.75 9C15.75 5.68629 12.7475 3 12 3C11.2525 3 8.25 5.68629 8.25 9C8.25 12.3137 11.2525 15 12 15Z" fill="#E31C1C"/>
<mask id="mask1_395_55738" style="mask-type:luminance" maskUnits="userSpaceOnUse" x="8" y="3" width="8" height="12">
<path fill-rule="evenodd" clip-rule="evenodd" d="M12 15C12.7475 15 15.75 12.3137 15.75 9C15.75 5.68629 12.7475 3 12 3C11.2525 3 8.25 5.68629 8.25 9C8.25 12.3137 11.2525 15 12 15Z" fill="white"/>
</mask>
<g mask="url(#mask1_395_55738)">
<path d="M4.875 14.25C7.7745 14.25 10.125 11.8995 10.125 9C10.125 6.10051 7.7745 3.75 4.875 3.75C1.97551 3.75 -0.375 6.10051 -0.375 9C-0.375 11.8995 1.97551 14.25 4.875 14.25Z" fill="#262626"/>
<path d="M19.125 14.25C22.0245 14.25 24.375 11.8995 24.375 9C24.375 6.10051 22.0245 3.75 19.125 3.75C16.2255 3.75 13.875 6.10051 13.875 9C13.875 11.8995 16.2255 14.25 19.125 14.25Z" fill="#262626"/>
<path d="M12.1504 9.8028C12.4926 10.0463 12.75 11.1055 12.75 12.3751C12.75 13.6444 12.4925 14.7035 12.1504 14.9473V9.8028ZM11.7754 14.879C11.4713 14.544 11.25 13.5499 11.25 12.3751C11.25 11.1994 11.471 10.2043 11.7754 9.87018V14.879ZM12.1504 3.0528C12.4926 3.29635 12.75 4.35553 12.75 5.62506C12.75 6.89443 12.4925 7.95347 12.1504 8.19733V3.0528ZM11.7754 8.12897C11.4713 7.79405 11.25 6.79993 11.25 5.62506C11.25 4.44937 11.471 3.45431 11.7754 3.12018V8.12897Z" fill="#F5FBFF"/>
<path d="M12 8.25C12.4142 8.25 12.75 8.58579 12.75 9C12.75 9.41421 12.4142 9.75 12 9.75C11.5858 9.75 11.25 9.41421 11.25 9C11.25 8.58579 11.5858 8.25 12 8.25Z" fill="#F5FBFF"/>
</g>
</svg>
