<svg width="24" height="18" viewBox="0 0 24 18" fill="none" xmlns="http://www.w3.org/2000/svg">
<mask id="mask0_395_51095" style="mask-type:luminance" maskUnits="userSpaceOnUse" x="0" y="0" width="24" height="18">
<rect width="24" height="18" fill="white"/>
</mask>
<g mask="url(#mask0_395_51095)">
<path fill-rule="evenodd" clip-rule="evenodd" d="M0 0V18H24V0H0Z" fill="#F7FCFF"/>
<mask id="mask1_395_51095" style="mask-type:luminance" maskUnits="userSpaceOnUse" x="0" y="0" width="24" height="18">
<path fill-rule="evenodd" clip-rule="evenodd" d="M0 0V18H24V0H0Z" fill="white"/>
</mask>
<g mask="url(#mask1_395_51095)">
<path fill-rule="evenodd" clip-rule="evenodd" d="M12.0002 13.6646C14.4022 13.6646 16.3494 11.5966 16.3494 9.04566C16.3494 6.49471 14.4022 4.42676 12.0002 4.42676C9.59812 4.42676 7.65088 6.49471 7.65088 9.04566C7.65088 11.5966 9.59812 13.6646 12.0002 13.6646Z" fill="#3D58DB"/>
<mask id="mask2_395_51095" style="mask-type:luminance" maskUnits="userSpaceOnUse" x="7" y="4" width="10" height="10">
<path fill-rule="evenodd" clip-rule="evenodd" d="M12.0002 13.6646C14.4022 13.6646 16.3494 11.5966 16.3494 9.04566C16.3494 6.49471 14.4022 4.42676 12.0002 4.42676C9.59812 4.42676 7.65088 6.49471 7.65088 9.04566C7.65088 11.5966 9.59812 13.6646 12.0002 13.6646Z" fill="white"/>
</mask>
<g mask="url(#mask2_395_51095)">
<path fill-rule="evenodd" clip-rule="evenodd" d="M16.5014 9.39914C16.5014 9.39914 16.2573 7.22117 14.4493 7.10294C12.6413 6.98471 12.1538 8.70013 12.0495 9.15461C11.9451 9.60909 11.6811 10.8215 9.77747 10.8215C7.87386 10.8215 7.70215 7.73864 7.70215 7.73864V4.10352H16.5014V9.39914Z" fill="#E31D1C"/>
</g>
<path fill-rule="evenodd" clip-rule="evenodd" d="M8.41943 4.18164L5.34424 7.86914L4.65869 7.24805L7.73291 3.56055L8.41943 4.18164ZM7.29248 3.16406L4.22607 6.82422L3.54053 6.20312L6.60596 2.54297L7.29248 3.16406ZM6.16064 2.16016L2.98096 5.87402L2.29443 5.25293L5.4751 1.53906L6.16064 2.16016Z" fill="#272727"/>
<path fill-rule="evenodd" clip-rule="evenodd" d="M18.1871 6.47949L19.3776 7.87695L20.0641 7.25879L18.8737 5.86133L18.1871 6.47949ZM17.2467 2.87402L20.5612 6.91016L21.2477 6.29199L17.9332 2.25586L17.2467 2.87402ZM20.4528 4.46777L21.6432 5.86523L22.3297 5.24707L21.1393 3.84961L20.4528 4.46777ZM16.0709 3.91016L17.2614 5.30762L17.9479 4.68945L16.7574 3.29199L16.0709 3.91016ZM18.3365 1.89746L19.527 3.29492L20.2135 2.67676L19.0231 1.2793L18.3365 1.89746Z" fill="#272727"/>
<path fill-rule="evenodd" clip-rule="evenodd" d="M19.8076 15.1709L18.6064 16.5732L17.9141 15.9521L19.1152 14.5498L19.8076 15.1709ZM18.667 14.1045L17.4141 15.6016L16.7217 14.9814L17.9746 13.4834L18.667 14.1045ZM17.5225 13.1504L16.3223 14.5527L15.6299 13.9316L16.8301 12.5293L17.5225 13.1504ZM21.7266 12.6455L20.5264 14.0479L19.834 13.4268L21.0352 12.0244L21.7266 12.6455ZM20.7236 11.6094L19.4697 13.1064L18.7783 12.4863L20.0312 10.9883L20.7236 11.6094ZM19.541 10.6826L18.3408 12.085L17.6484 11.4639L18.8486 10.0615L19.541 10.6826Z" fill="#272727"/>
<path fill-rule="evenodd" clip-rule="evenodd" d="M2.54614 13.1377L5.62524 16.6953L6.31177 16.0762L3.23267 12.5186L2.54614 13.1377ZM5.51978 14.2383L6.81372 15.6602L7.50024 15.041L6.2063 13.6191L5.51978 14.2383ZM4.80493 11.168L7.86841 14.6777L8.55493 14.0596L5.49146 10.5488L4.80493 11.168ZM3.71997 12.1143L4.84204 13.4297L5.52856 12.8105L4.40649 11.4951L3.71997 12.1143Z" fill="#272727"/>
</g>
</g>
</svg>
