<svg width="24" height="18" viewBox="0 0 24 18" fill="none" xmlns="http://www.w3.org/2000/svg">
<mask id="mask0_395_53633" style="mask-type:luminance" maskUnits="userSpaceOnUse" x="0" y="0" width="24" height="18">
<rect width="24" height="18" fill="white"/>
</mask>
<g mask="url(#mask0_395_53633)">
</g>
<g clip-path="url(#clip0_395_53633)">
<path fill-rule="evenodd" clip-rule="evenodd" d="M0 0V18H24V0H0Z" fill="#2E42A5"/>
<mask id="mask1_395_53633" style="mask-type:luminance" maskUnits="userSpaceOnUse" x="0" y="0" width="24" height="18">
<path fill-rule="evenodd" clip-rule="evenodd" d="M0 0V18H24V0H0Z" fill="white"/>
</mask>
<g mask="url(#mask1_395_53633)">
<rect width="13.5" height="10.5" fill="#2B409A"/>
<mask id="mask2_395_53633" style="mask-type:luminance" maskUnits="userSpaceOnUse" x="0" y="0" width="14" height="11">
<rect width="13.5" height="10.5" fill="white"/>
</mask>
<g mask="url(#mask2_395_53633)">
<path d="M-1.50317 9.74983L1.46754 11.0527L13.5674 1.41653L15.1344 -0.519623L11.9577 -0.955091L7.02241 3.19743L3.05003 5.99525L-1.50317 9.74983Z" fill="#F7FCFF"/>
<path d="M-1.09644 10.6627L0.417006 11.4188L14.5718 -0.699524H12.4467L-1.09644 10.6627Z" fill="#F50100"/>
<path d="M15.0033 9.74983L12.0326 11.0527L-0.0673141 1.41653L-1.6343 -0.519623L1.54245 -0.955091L6.47771 3.19743L10.4501 5.99525L15.0033 9.74983Z" fill="#F7FCFF"/>
<path d="M14.902 10.405L13.3885 11.1611L7.36129 5.9726L5.57434 5.39291L-1.78503 -0.512991H0.340017L7.69525 5.25273L9.64897 5.94784L14.902 10.405Z" fill="#F50100"/>
<mask id="path-10-outside-1_395_53633" maskUnits="userSpaceOnUse" x="-2" y="-2" width="17" height="14" fill="black">
<rect fill="white" x="-2" y="-2" width="17" height="14"/>
<path fill-rule="evenodd" clip-rule="evenodd" d="M7.48838 0H5.98838V4.5H0V6H5.98838V10.5H7.48838V6H13.5V4.5H7.48838V0Z"/>
</mask>
<path fill-rule="evenodd" clip-rule="evenodd" d="M7.48838 0H5.98838V4.5H0V6H5.98838V10.5H7.48838V6H13.5V4.5H7.48838V0Z" fill="#F50100"/>
<path d="M5.98838 0V-1.5H4.48838V0H5.98838ZM7.48838 0H8.98838V-1.5H7.48838V0ZM5.98838 4.5V6H7.48838V4.5H5.98838ZM0 4.5V3H-1.5V4.5H0ZM0 6H-1.5V7.5H0V6ZM5.98838 6H7.48838V4.5H5.98838V6ZM5.98838 10.5H4.48838V12H5.98838V10.5ZM7.48838 10.5V12H8.98838V10.5H7.48838ZM7.48838 6V4.5H5.98838V6H7.48838ZM13.5 6V7.5H15V6H13.5ZM13.5 4.5H15V3H13.5V4.5ZM7.48838 4.5H5.98838V6H7.48838V4.5ZM5.98838 0V1.5H7.48838V0V-1.5H5.98838V0ZM5.98838 4.5H7.48838V0H5.98838H4.48838V4.5H5.98838ZM0 4.5V6H5.98838V4.5V3H0V4.5ZM0 6H1.5V4.5H0H-1.5V6H0ZM5.98838 6V4.5H0V6V7.5H5.98838V6ZM5.98838 10.5H7.48838V6H5.98838H4.48838V10.5H5.98838ZM7.48838 10.5V9H5.98838V10.5V12H7.48838V10.5ZM7.48838 6H5.98838V10.5H7.48838H8.98838V6H7.48838ZM13.5 6V4.5H7.48838V6V7.5H13.5V6ZM13.5 4.5H12V6H13.5H15V4.5H13.5ZM7.48838 4.5V6H13.5V4.5V3H7.48838V4.5ZM7.48838 0H5.98838V4.5H7.48838H8.98838V0H7.48838Z" fill="#F7FCFF" mask="url(#path-10-outside-1_395_53633)"/>
</g>
<g clip-path="url(#clip1_395_53633)">
<path d="M24.8601 8.0498V11.7217C24.8601 14.0736 23.9511 15.6318 23.0251 16.6016C22.5618 17.0868 22.0931 17.4247 21.7322 17.6416C21.5518 17.75 21.3983 17.8283 21.2859 17.8789C21.2299 17.9041 21.1845 17.9227 21.1511 17.9346C21.1344 17.9405 21.1207 17.9446 21.1111 17.9473C21.0998 17.9503 21.0977 17.9502 21.1003 17.9502C21.1027 17.9502 21.1001 17.9503 21.0886 17.9473C21.0785 17.9446 21.0643 17.9406 21.0466 17.9346C21.0113 17.9226 20.963 17.9033 20.9031 17.8779C20.7833 17.8272 20.619 17.7491 20.4255 17.6406C20.0383 17.4235 19.5349 17.085 19.0359 16.5996C18.0384 15.6294 17.0574 14.0723 17.0574 11.7217V8.0498H24.8601Z" fill="white"/>
<path d="M24.8601 8.0498V11.7217C24.8601 14.0736 23.9511 15.6318 23.0251 16.6016C22.5618 17.0868 22.0931 17.4247 21.7322 17.6416C21.5518 17.75 21.3983 17.8283 21.2859 17.8789C21.2299 17.9041 21.1845 17.9227 21.1511 17.9346C21.1344 17.9405 21.1207 17.9446 21.1111 17.9473C21.0998 17.9503 21.0977 17.9502 21.1003 17.9502C21.1027 17.9502 21.1001 17.9503 21.0886 17.9473C21.0785 17.9446 21.0643 17.9406 21.0466 17.9346C21.0113 17.9226 20.963 17.9033 20.9031 17.8779C20.7833 17.8272 20.619 17.7491 20.4255 17.6406C20.0383 17.4235 19.5349 17.085 19.0359 16.5996C18.0384 15.6294 17.0574 14.0723 17.0574 11.7217V8.0498H24.8601Z" stroke="#0B50A0" stroke-width="0.1"/>
<path d="M24.8601 8.0498V11.7217C24.8601 14.0736 23.9511 15.6318 23.0251 16.6016C22.5618 17.0868 22.0931 17.4247 21.7322 17.6416C21.5518 17.75 21.3983 17.8283 21.2859 17.8789C21.2299 17.9041 21.1845 17.9227 21.1511 17.9346C21.1344 17.9405 21.1207 17.9446 21.1111 17.9473C21.0998 17.9503 21.0977 17.9502 21.1003 17.9502C21.1027 17.9502 21.1001 17.9503 21.0886 17.9473C21.0785 17.9446 21.0643 17.9406 21.0466 17.9346C21.0113 17.9226 20.963 17.9033 20.9031 17.8779C20.7833 17.8272 20.619 17.7491 20.4255 17.6406C20.0383 17.4235 19.5349 17.085 19.0359 16.5996C18.0384 15.6294 17.0574 14.0723 17.0574 11.7217V8.0498H24.8601Z" stroke="#F7FCFF" stroke-width="0.1"/>
<mask id="mask3_395_53633" style="mask-type:luminance" maskUnits="userSpaceOnUse" x="17" y="8" width="8" height="10">
<path d="M24.8601 8.0498V11.7217C24.8601 14.0736 23.9511 15.6318 23.0251 16.6016C22.5618 17.0868 22.0931 17.4247 21.7322 17.6416C21.5518 17.75 21.3983 17.8283 21.2859 17.8789C21.2299 17.9041 21.1845 17.9227 21.1511 17.9346C21.1344 17.9405 21.1207 17.9446 21.1111 17.9473C21.0998 17.9503 21.0977 17.9502 21.1003 17.9502C21.1027 17.9502 21.1001 17.9503 21.0886 17.9473C21.0785 17.9446 21.0643 17.9406 21.0466 17.9346C21.0113 17.9226 20.963 17.9033 20.9031 17.8779C20.7833 17.8272 20.619 17.7491 20.4255 17.6406C20.0383 17.4235 19.5349 17.085 19.0359 16.5996C18.0384 15.6294 17.0574 14.0723 17.0574 11.7217V8.0498H24.8601Z" fill="white"/>
<path d="M24.8601 8.0498V11.7217C24.8601 14.0736 23.9511 15.6318 23.0251 16.6016C22.5618 17.0868 22.0931 17.4247 21.7322 17.6416C21.5518 17.75 21.3983 17.8283 21.2859 17.8789C21.2299 17.9041 21.1845 17.9227 21.1511 17.9346C21.1344 17.9405 21.1207 17.9446 21.1111 17.9473C21.0998 17.9503 21.0977 17.9502 21.1003 17.9502C21.1027 17.9502 21.1001 17.9503 21.0886 17.9473C21.0785 17.9446 21.0643 17.9406 21.0466 17.9346C21.0113 17.9226 20.963 17.9033 20.9031 17.8779C20.7833 17.8272 20.619 17.7491 20.4255 17.6406C20.0383 17.4235 19.5349 17.085 19.0359 16.5996C18.0384 15.6294 17.0574 14.0723 17.0574 11.7217V8.0498H24.8601Z" stroke="white" stroke-width="0.1"/>
</mask>
<g mask="url(#mask3_395_53633)">
<rect x="16.5" y="7.5" width="9" height="3.4" fill="#F50100"/>
<path d="M20.512 11.5996C20.8 11.5996 21.376 11.2862 21.52 11.2138C22.048 10.9004 22.432 11.1897 22.744 11.3344C23.08 11.479 23.704 11.6478 24.088 11.3344C24.472 11.0209 24.688 11.045 24.952 11.045C25 10.6833 25 10.3217 25 9.91175V9.62241C24.664 9.55007 24.496 9.64652 24.136 9.95998C23.776 10.2734 23.368 10.2011 22.84 10.0082C22.336 9.79119 21.832 9.4054 21.328 10.0082C21.184 10.177 20.848 10.4181 20.512 10.4181C20.152 10.4181 19.84 10.177 19.696 10.0082C19.168 9.4054 18.688 9.79119 18.184 10.0082C17.656 10.2011 17.224 10.2734 16.864 9.95998C16.528 9.64652 16.36 9.55007 16 9.62241V9.91175C16 10.3217 16.024 10.6833 16.072 11.045C16.336 11.045 16.528 11.0209 16.912 11.3344C17.296 11.6478 17.944 11.479 18.256 11.3344C18.592 11.1897 18.976 10.9004 19.504 11.2138C19.648 11.2862 20.2 11.5996 20.512 11.5996H20.512Z" fill="#F50100"/>
<path fill-rule="evenodd" clip-rule="evenodd" d="M18.0837 9.04889C18.0837 9.04889 18.3006 9.05894 18.5574 9.3241C18.8143 9.58926 19.7595 9.42049 19.7595 9.26054C19.7595 9.10059 19.1859 9.00504 19.4063 8.73154C19.6267 8.45804 20 8.45755 20.3 8.60002C20.386 8.60002 20.3765 9.53559 20.5728 9.48423C21.1947 9.32159 22.1978 8.99932 22.492 9.13758C22.879 9.3195 23.1753 9.27426 23.0769 9.01323C22.9785 8.7522 22.7256 8.58906 22.2386 8.73154C21.7516 8.87401 21.8665 9.01323 21.4457 9.01323C21.0248 9.01323 20.3026 9.24092 20.6234 8.73154C20.9107 8.27508 21.2535 8.26615 21.3843 8.45804C21.4513 8.55621 20.9053 8.77299 20.9053 8.87401C20.9053 9.01323 22.3117 8.60023 22.492 8.60023C22.6722 8.60023 23.1683 8.58906 23.2175 8.73154C23.2666 8.87401 23.5662 9.00476 23.3379 9.13758C23.1095 9.2704 22.733 9.3536 22.9921 9.52378C23.2511 9.69396 23.9076 9.77134 23.9363 9.94836C23.965 10.1254 24.2473 10.3897 24.134 10.3897C24.0207 10.3897 23.8159 10.639 23.6252 10.5631C23.4345 10.4872 23.4121 10.4205 23.5949 10.3591C23.7778 10.2976 23.776 10.039 23.6252 10.039C23.4744 10.039 23.4873 10.0194 23.1439 9.92878C22.8005 9.83817 22.346 9.73745 22.3734 9.92878C22.4007 10.1201 22.6332 10.5307 22.2207 10.5699C21.8082 10.609 21.6152 10.7662 21.5349 10.6396C21.4546 10.5131 21.1676 10.3444 21.3933 10.2904C21.6189 10.2363 21.8346 10.4742 21.9158 10.4353C21.9971 10.3965 22.1724 10.2579 22.0181 10.0933C21.8638 9.92878 21.5641 9.9232 21.8 9.80002C22.0358 9.67685 21.895 9.58301 21.4457 9.83817C20.9963 10.0933 20.7464 10.3102 20.3519 10.2795C19.9575 10.2489 19.7805 10.3892 19.6537 10.3478C19.5269 10.3065 18.9094 10.8048 18.7316 10.6783C18.5538 10.5519 17.9797 10.5033 18.0831 10.3478C18.1864 10.1923 18.3251 10.1122 18.4797 10.1923C18.6342 10.2724 18.7877 10.3524 18.892 10.2724C18.9962 10.1923 19.3263 9.81858 19.2506 9.76365C19.175 9.70871 18.9083 9.61465 18.4797 9.61465C18.0511 9.61465 18.0412 9.32989 17.9394 9.20002C17.8377 9.07016 18.0837 9.04889 18.0837 9.04889Z" fill="#FFD100"/>
<path d="M20.512 14C20.8 14 21.376 13.6865 21.52 13.6142C22.048 13.3007 22.432 13.5901 22.744 13.7348C23.08 13.8794 23.704 14.0482 24.088 13.7348C24.472 13.4213 24.688 13.4454 24.952 13.4454C25 13.0837 25 12.7221 25 12.3121V12.0228C24.664 11.9505 24.496 12.0469 24.136 12.3604C23.776 12.6738 23.368 12.6015 22.84 12.4086C22.336 12.1916 21.832 11.8058 21.328 12.4086C21.184 12.5774 20.848 12.8185 20.512 12.8185C20.152 12.8185 19.84 12.5774 19.696 12.4086C19.168 11.8058 18.688 12.1916 18.184 12.4086C17.656 12.6015 17.224 12.6738 16.864 12.3604C16.528 12.0469 16.36 11.9505 16 12.0228V12.3121C16 12.7221 16.024 13.0837 16.072 13.4454C16.336 13.4454 16.528 13.4213 16.912 13.7348C17.296 14.0482 17.944 13.8794 18.256 13.7348C18.592 13.5901 18.976 13.3007 19.504 13.6142C19.648 13.6865 20.2 14 20.512 14H20.512Z" fill="#0B50A0"/>
<path d="M20.512 16.3C20.8 16.3 21.376 15.9865 21.52 15.9142C22.048 15.6007 22.432 15.8901 22.744 16.0348C23.08 16.1794 23.704 16.3482 24.088 16.0348C24.472 15.7213 24.688 15.7454 24.952 15.7454C25 15.3837 25 15.022 25 14.6121V14.3228C24.664 14.2504 24.496 14.3469 24.136 14.6604C23.776 14.9738 23.368 14.9015 22.84 14.7086C22.336 14.4916 21.832 14.1058 21.328 14.7086C21.184 14.8774 20.848 15.1185 20.512 15.1185C20.152 15.1185 19.84 14.8774 19.696 14.7086C19.168 14.1058 18.688 14.4916 18.184 14.7086C17.656 14.9015 17.224 14.9738 16.864 14.6604C16.528 14.3469 16.36 14.2504 16 14.3228V14.6121C16 15.022 16.024 15.3837 16.072 15.7454C16.336 15.7454 16.528 15.7213 16.912 16.0348C17.296 16.3482 17.944 16.1794 18.256 16.0348C18.592 15.8901 18.976 15.6007 19.504 15.9142C19.648 15.9865 20.2 16.3 20.512 16.3H20.512Z" fill="#0B50A0"/>
<path d="M20.512 18.5996C20.8 18.5996 21.376 18.2862 21.52 18.2138C22.048 17.9004 22.432 18.1897 22.744 18.3344C23.08 18.479 23.704 18.6478 24.088 18.3344C24.472 18.0209 24.688 18.045 24.952 18.045C25 17.6833 25 17.3217 25 16.9118V16.6224C24.664 16.5501 24.496 16.6465 24.136 16.96C23.776 17.2734 23.368 17.2011 22.84 17.0082C22.336 16.7912 21.832 16.4054 21.328 17.0082C21.184 17.177 20.848 17.4181 20.512 17.4181C20.152 17.4181 19.84 17.177 19.696 17.0082C19.168 16.4054 18.688 16.7912 18.184 17.0082C17.656 17.2011 17.224 17.2734 16.864 16.96C16.528 16.6465 16.36 16.5501 16 16.6224V16.9118C16 17.3217 16.024 17.6833 16.072 18.045C16.336 18.045 16.528 18.0209 16.912 18.3344C17.296 18.6478 17.944 18.479 18.256 18.3344C18.592 18.1897 18.976 17.9004 19.504 18.2138C19.648 18.2862 20.2 18.5996 20.512 18.5996H20.512Z" fill="#0B50A0"/>
<path d="M21.248 14.7451L21.2734 14.8057H21.7676L21.4082 15.1855L21.3672 15.2285L21.3857 15.2861L21.5557 15.7939L21.082 15.5449L21.0332 15.5186L20.9844 15.5469L20.5674 15.793L20.6904 15.2773L20.7041 15.2207L20.6611 15.1807L20.2549 14.8057H20.8447L20.8691 14.7402L21.042 14.2686L21.248 14.7451Z" fill="#059334" stroke="#FFD100" stroke-width="0.2"/>
<path d="M19.248 12.7451L19.2734 12.8057H19.7676L19.4082 13.1855L19.3672 13.2285L19.3857 13.2861L19.5557 13.7939L19.082 13.5449L19.0332 13.5186L18.9844 13.5469L18.5674 13.793L18.6904 13.2773L18.7041 13.2207L18.6611 13.1807L18.2549 12.8057H18.8447L18.8691 12.7402L19.042 12.2686L19.248 12.7451Z" fill="#059334" stroke="#FFD100" stroke-width="0.2"/>
<path d="M23.248 12.7451L23.2734 12.8057H23.7676L23.4082 13.1855L23.3672 13.2285L23.3857 13.2861L23.5557 13.7939L23.082 13.5449L23.0332 13.5186L22.9844 13.5469L22.5674 13.793L22.6904 13.2773L22.7041 13.2207L22.6611 13.1807L22.2549 12.8057H22.8447L22.8691 12.7402L23.042 12.2686L23.248 12.7451Z" fill="#059334" stroke="#FFD100" stroke-width="0.2"/>
</g>
</g>
<path d="M16.3367 17.6343C16.4286 17.8309 17.087 18.089 17.8525 17.7572C18.3731 17.5237 18.7099 17.192 19.0315 16.6021C19.1233 16.4547 19.1693 16.2704 18.9549 16.1598C18.7865 16.0615 18.5109 15.9509 18.3884 15.8526C18.3271 15.8034 18.2659 15.7665 18.22 15.7297C18.2506 15.7543 18.2812 15.7788 18.3118 15.8157C18.6181 16.1106 18.2965 16.5407 17.9597 16.7987C17.7147 16.9831 17.2707 17.4377 16.6276 17.0076C16.4898 16.9093 16.1683 17.3148 16.3367 17.6343L16.3367 17.6343Z" fill="#FFD100"/>
<path d="M25.646 17.6343C25.5388 17.8309 24.8804 18.089 24.1302 17.7572C23.6096 17.5237 23.2728 17.192 22.9359 16.6021C22.8594 16.4547 22.8134 16.2704 23.0278 16.1598C23.1962 16.0615 23.4718 15.9509 23.5943 15.8526C23.6555 15.8034 23.7015 15.7665 23.7627 15.7297C23.7321 15.7543 23.7015 15.7788 23.6709 15.8157C23.3646 16.1106 23.6862 16.5407 24.0077 16.7987C24.2527 16.9831 24.712 17.4377 25.3551 17.0076C25.4929 16.9093 25.7991 17.3148 25.646 17.6343L25.646 17.6343Z" fill="#FFD100"/>
<path d="M20.9913 18.6916C22.2162 18.6916 24.0995 18.2492 25.11 16.7009C25.2784 16.4428 25.11 16.3077 24.9109 16.2216C24.6966 16.1479 24.4363 15.9759 24.2985 15.8653C24.5435 16.0619 24.4975 16.1971 24.3291 16.4183C23.5482 17.4627 22.4765 17.9911 20.9913 17.9911C19.5061 17.9911 18.4344 17.4627 17.6535 16.4183C17.4851 16.1971 17.4392 16.0619 17.6688 15.8653C17.5463 15.9759 17.2707 16.1479 17.0564 16.2216C16.8573 16.3077 16.6889 16.4428 16.8573 16.7009C17.8679 18.2492 19.7664 18.6916 20.9913 18.6916H20.9913Z" fill="#FFD100"/>
<path d="M18.1587 16.6149C18.1281 16.492 17.9291 16.5411 17.8678 16.6886C17.7913 16.6026 17.7147 16.5165 17.6535 16.4182C17.4697 16.1971 17.4391 16.0496 17.6994 15.8407C17.8219 15.7424 18.0669 15.6318 18.2353 15.7547C18.5874 15.9882 18.4037 16.3691 18.1587 16.6148L18.1587 16.6149Z" fill="#F50100"/>
<path d="M23.8085 16.6149C23.8391 16.492 24.0535 16.5411 24.1147 16.6886C24.1913 16.6026 24.2679 16.5165 24.3291 16.4182C24.5128 16.1971 24.5435 16.0496 24.2679 15.8407C24.1607 15.7424 23.9157 15.6318 23.732 15.7547C23.3951 15.9882 23.5636 16.3691 23.8085 16.6148L23.8085 16.6149Z" fill="#F50100"/>
<path fill-rule="evenodd" clip-rule="evenodd" d="M23.417 3.29221C23.4365 3.34728 22.5915 3.96614 22.3281 4.66135C22.3293 4.66388 22.3299 4.66663 22.3311 4.66917C23.1422 3.99421 23.9873 3.72664 23.9873 3.81858C23.9838 3.91814 23.0464 4.38043 22.4854 5.25999C22.4908 5.31035 22.4951 5.3614 22.4971 5.41331C22.8452 5.09168 23.1854 4.9639 23.1875 5.00999C23.1867 5.06645 22.7198 5.33948 22.4688 5.86253C22.3608 6.51606 21.9691 7.0012 21.5 7.0012C21.0417 7.0012 20.6563 6.53822 20.5381 5.90745C20.2929 5.35544 19.8006 5.06802 19.7998 5.00999C19.802 4.96335 20.1495 5.09583 20.502 5.426C20.5036 5.37516 20.5068 5.325 20.5117 5.27561C19.9519 4.38598 19.0035 3.9187 19 3.81858C19 3.72635 19.8505 3.99627 20.6641 4.676C20.4072 3.97534 19.5517 3.34823 19.5703 3.29221C19.5881 3.24331 20.3099 3.67647 20.8916 4.31174C20.9887 4.19977 21.0992 4.11348 21.2197 4.06077L20.7998 3.5012H22.2998L21.8516 4.09788C21.942 4.14896 22.0258 4.2189 22.1016 4.30491C22.6822 3.67319 23.3993 3.24348 23.417 3.29221Z" fill="#FFD100"/>
<path d="M19.4238 6.36477C19.3035 6.20049 18.9769 6.12748 18.8394 6.27351C18.7878 6.31001 18.7191 6.31001 18.6675 6.32827C18.5816 6.32827 18.4718 6.37423 18.5062 6.55676C18.5988 6.55676 18.5988 6.60207 18.6503 6.60207C18.6847 6.58381 18.7741 6.91864 18.946 6.90039C19.135 6.90039 19.3035 6.98539 19.3378 7.02189C19.3894 7.07665 19.4582 7.22268 19.3722 7.29569C19.2519 7.40521 19.166 7.66076 19.3722 7.86155C19.5957 8.04408 20.1629 8.31788 20.7988 7.78853C21.4176 7.27744 22.3801 7.56949 22.4489 7.75203C22.5348 7.93456 22.5692 8.04408 22.5864 8.13535C22.6036 8.20836 23.0677 8.31788 23.1364 8.37264C23.2224 8.4274 23.3427 8.40915 23.3083 8.24487C23.2396 7.73377 22.9474 7.66076 22.913 7.42347C23.0849 7.44172 23.2052 7.44172 23.2739 7.36871C23.3255 7.29569 23.3942 7.16792 23.463 7.13141C23.5146 7.09491 23.5146 7.0584 23.4458 7.07665C23.3599 7.09491 23.3083 7.13141 23.1536 7.11316C22.7877 7.07092 22.8782 5.68629 21.6679 5.41694C20.92 5.25049 19.9874 6.39191 19.7317 6.50491C19.7261 6.50737 19.7209 6.50934 19.716 6.5108C19.5957 6.5108 19.4925 6.45604 19.4238 6.36477Z" fill="#059334"/>
</g>
</g>
<defs>
<clipPath id="clip0_395_53633">
<rect width="24" height="18" fill="white"/>
</clipPath>
<clipPath id="clip1_395_53633">
<rect width="8" height="10" fill="white" transform="translate(17 8)"/>
</clipPath>
</defs>
</svg>
