<svg width="24" height="18" viewBox="0 0 24 18" fill="none" xmlns="http://www.w3.org/2000/svg">
<mask id="mask0_395_50454" style="mask-type:luminance" maskUnits="userSpaceOnUse" x="0" y="0" width="24" height="18">
<rect width="24" height="18" fill="white"/>
</mask>
<g mask="url(#mask0_395_50454)">
<path fill-rule="evenodd" clip-rule="evenodd" d="M24 18H0V13.5H24V18ZM24 4.5H0V0H24V4.5Z" fill="#F50101"/>
<path fill-rule="evenodd" clip-rule="evenodd" d="M0 4.5H24V13.5H0V4.5Z" fill="#F7FCFF"/>
<path fill-rule="evenodd" clip-rule="evenodd" d="M16.1361 9.3849C16.192 10.0354 13.7914 9.11501 13.7914 9.37547C13.7914 9.63593 16.3631 10.0932 16.3588 10.6763C16.3545 11.2594 13.3095 10.51 13.9923 10.7721C14.6751 11.0343 16.1412 11.6621 15.9746 12.0531C15.6187 12.8883 13.2551 11.4737 13.0585 11.7526C12.7412 12.2024 14.8027 13.2516 14.7853 13.3519C14.7517 13.5441 13.3773 13.0497 13.0585 13.4489C12.8004 13.3761 12.6811 13.0286 12.6009 12.9825L12.0937 6.43993C12.0937 6.43993 12.5491 12.6 11.9672 12.7772C11.3852 12.9543 9.76864 13.493 9.7216 13.2239C9.70409 13.1237 11.6681 12.2024 11.3508 11.7526C11.1171 11.4211 8.74701 12.5966 8.59578 11.9159C7.92216 11.4303 10.7773 11.0101 10.7773 10.5136C10.7773 10.0169 8.16539 11.1013 8.47786 10.41C8.79033 9.71873 10.8814 9.47122 10.9204 9.37547C10.9917 9.20038 8.59578 9.64805 8.59578 9.37547C8.59578 8.8597 10.0299 8.75821 10.9204 8.29406C10.973 7.7644 8.76016 8.8155 8.59578 8.39091C8.4314 7.96632 11.4241 6.86634 11.3508 6.78065C11.235 6.64532 8.82306 7.25595 9.22082 6.93529C9.99281 6.31294 11.4997 5.46665 11.8464 5.24091C11.8464 5.24091 11.8881 5.15574 11.9328 5.18465C11.9775 5.15574 12.0267 5.12408 12.0267 5.12408C12.0267 5.12408 12.0267 5.65661 12.0193 5.24091C12.0119 4.82522 15.5515 6.64416 15.5917 7.10527C15.6384 7.64395 13.4046 6.69917 13.4571 7.22883C13.9112 7.51017 15.2028 8.05464 15.7364 8.29406C15.9784 8.40264 13.9531 8.06421 13.9958 8.23038C14.1049 8.65387 16.0778 8.70645 16.1361 9.3849Z" fill="#52AB0B"/>
</g>
</svg>
