<svg width="24" height="18" viewBox="0 0 24 18" fill="none" xmlns="http://www.w3.org/2000/svg">
<mask id="mask0_395_50176" style="mask-type:luminance" maskUnits="userSpaceOnUse" x="0" y="0" width="24" height="18">
<rect width="24" height="18" fill="white"/>
</mask>
<g mask="url(#mask0_395_50176)">
<path fill-rule="evenodd" clip-rule="evenodd" d="M0 0H24V18H0V0Z" fill="#FECA00"/>
<rect x="1.5" y="1.5" width="4.5" height="15" fill="#1F8A6E"/>
<rect x="6" y="1.5" width="4.5" height="15" fill="#F56800"/>
<rect x="10.5" y="1.5" width="12" height="15" fill="#B01D00"/>
<rect x="9" y="1.5" width="1.5" height="15" fill="#E8AA00"/>
<path fill-rule="evenodd" clip-rule="evenodd" d="M12.8252 4.62988C12.8252 4.62988 12.7636 5.00451 12.6445 5.57031C12.5259 6.13413 12.5108 8.71101 12.5107 8.72949C12.5107 8.72949 12.9223 8.88457 12.9229 9.09277C12.9229 9.30117 12.7637 9.42578 12.7637 9.42578L13.4297 10.1553C13.4247 10.1504 13.3062 10.0232 13.5332 9.25391C13.765 8.46844 14.4013 8.48737 14.6621 8.23242C14.9227 7.97757 14.5306 8.30825 14.3135 8.30859C14.0964 8.30859 14.3128 8.21676 14.1719 8.11328C14.0316 8.01003 14.3127 8.00933 13.998 8.11328C13.6828 8.21736 13.9222 8.00929 13.8594 7.89941C13.7962 7.78958 13.6559 8.00915 13.4297 8.11328C13.2039 8.21715 13.4396 8.00921 13.5332 7.89941C13.6268 7.7896 13.4396 7.89939 13.2256 7.89941C13.0115 7.89941 13.2259 7.52158 13.3018 7.30762C13.3773 7.09427 13.2257 7.24092 13.2256 6.93262C13.2256 6.62382 13.6562 6.93208 13.5332 6.83594C13.4102 6.73955 13.2256 6.29042 13.2256 6.13281C13.2256 5.97515 13.3906 5.80176 13.5332 5.80176C13.6758 5.80176 13.8594 6.02539 13.8594 6.02539C13.8701 6.02537 14.1025 6.02402 14.4014 5.98535C14.7075 5.94573 14.6621 5.80199 14.6621 5.57031C14.6622 5.33895 14.8273 5.57009 15.0869 5.57031C15.3443 5.57031 15.5786 5.68437 15.583 5.68652C15.583 5.68652 15.5831 5.42303 15.7705 5.42285C15.9581 5.42285 16.0654 5.68652 16.0654 5.68652L16.3477 5.42285C16.3546 5.42694 16.7919 5.68652 16.9502 5.68652C17.1096 5.68601 17.2803 5.42285 17.2803 5.42285V5.80176C17.2887 5.79119 17.6476 5.34577 18.6533 5.22949C19.6715 5.11189 20.6482 6.24121 21.0098 6.37109C21.3707 6.50071 21.1426 6.37109 21.1426 6.37109C21.1426 6.37109 21.0094 6.17877 21.2432 6.17871C21.4771 6.17871 21.5889 6.37109 21.5889 6.37109C21.5896 6.38332 21.6073 6.7637 21.1426 6.83594C20.6703 6.90908 20.1709 6.29004 20.1709 6.29004C20.1709 6.29004 20.4115 6.64271 20.1709 6.50391C19.9359 6.36835 19.7776 6.37092 19.7705 6.37109C19.7705 6.37109 19.815 5.96275 19.6904 6.29004C19.5658 6.6178 19.1475 6.64258 19.1475 6.64258C19.1475 6.64258 19.3 6.38382 19.3701 6.17871C19.4083 6.06679 19.2712 5.99829 19.1504 5.94141C19.1159 5.80548 19.0383 5.73047 18.9932 5.80176C18.9601 5.85431 19.0497 5.89402 19.1504 5.94141C19.1716 6.02481 19.1762 6.13149 19.1475 6.24121C19.0715 6.52952 18.6533 6.50391 18.6533 6.50391C18.6484 6.49914 18.549 6.39782 18.7168 6.13281C18.8869 5.86431 18.2941 5.69055 18.2803 5.68652C18.2809 5.69061 18.2995 5.82169 18.2803 5.98535C18.2607 6.1517 18.0176 6.02539 18.0176 6.02539C18.0176 6.02539 17.8046 5.82399 17.6357 6.02539C17.4695 6.22384 17.7297 6.49599 17.7373 6.50391C17.7373 6.50391 17.7799 6.37036 18.0176 6.29004C18.2552 6.20972 18.3965 6.37109 18.3965 6.37109C18.3941 6.37362 18.3213 6.45052 18.1641 6.64258C18.0067 6.83492 18.2324 6.92981 18.2393 6.93262C18.2393 6.93262 18.5399 6.56404 18.54 6.7627C18.54 6.96166 18.6542 6.93258 19.0664 7.05273C19.4789 7.17255 20.4121 6.93262 20.4121 6.93262C20.4338 6.93421 21.3516 7.00481 21.3516 7.5957C21.3515 8.18572 20.9414 8.47968 20.9307 8.4873C20.9307 8.4873 21.2432 9.09338 21.2432 9.62305C21.2431 10.1526 21.0096 10.5464 20.9307 11.2109C20.8518 11.8753 21.0999 11.8285 21.2432 11.9951C21.3861 12.1617 21.1002 12.3581 20.9307 12.5449C20.7611 12.7319 20.9152 12.8138 21.0098 13.0068C21.1042 13.1997 21.1568 13.4205 21.0098 13.4209C20.8622 13.4209 20.6475 13.2988 20.6475 13.2988C20.6416 13.3068 20.5555 13.4207 20.4121 13.4209C20.2663 13.4209 20.1746 13.3036 20.1709 13.2988C20.1704 13.3068 20.1609 13.4209 19.9951 13.4209C19.8295 13.4208 19.7742 13.3069 19.7705 13.2988C19.7705 13.2988 19.4312 13.4207 19.2656 13.4209C19.1065 13.4209 19.069 13.3075 19.0664 13.2988C19.0663 13.3066 19.0608 13.4207 18.8799 13.4209C18.6973 13.4209 18.6554 13.3051 18.6533 13.2988C18.6459 13.3066 18.5348 13.4208 18.3965 13.4209C18.2565 13.4209 18.168 13.3042 18.1641 13.2988C18.1641 13.3067 18.1619 13.4209 18.0176 13.4209C17.8682 13.4208 17.8555 13.3264 17.8555 13.1104C17.8555 12.8969 18.6343 12.8154 18.6533 12.8135C18.6575 12.8016 18.8953 12.1257 18.54 11.8281C18.1813 11.528 18.1433 10.8066 18.0176 10.8066C17.8916 10.8067 17.3852 10.9183 17.0801 11.0283C16.7765 11.1378 16.0731 11.4787 16.0654 11.4824C16.0622 11.4849 15.8184 11.6682 15.7705 11.9531C15.7224 12.2402 16.1895 12.2471 16.1895 12.2471C16.0657 12.6662 15.583 12.7363 15.583 12.7363C15.7283 12.8531 15.5777 13.3746 15.3779 13.4209C15.178 13.4667 15.0869 13.3262 15.0869 13.3262C15.0826 13.3291 14.9478 13.4209 14.8271 13.4209C14.7072 13.4207 14.5375 13.3038 14.5303 13.2988C14.5273 13.3059 14.4764 13.4207 14.3135 13.4209C14.1512 13.4209 14.1702 13.3071 14.1719 13.2988C14.1676 13.3039 14.1203 13.3552 13.9219 13.4209C13.7132 13.4897 13.8313 13.1469 13.8594 13.0068C13.8875 12.8667 14.2551 12.7633 14.4814 12.8135C14.7077 12.8637 14.9004 12.6831 14.9502 12.3584C14.9995 12.036 14.6674 11.568 14.6621 11.5605L14.2012 11.3018C14.1915 11.3127 13.8767 11.666 13.6562 11.666C13.4349 11.666 12.9347 11.2215 12.9229 11.2109C12.9219 11.2118 12.8247 11.3018 12.7637 11.3018C12.7023 11.3017 12.589 11.1815 12.6445 10.918C12.6784 10.7568 12.6191 10.6194 12.5693 10.5361C12.5639 10.5261 12.5575 10.5162 12.5508 10.5059C12.5277 10.4716 12.5107 10.4512 12.5107 10.4512C12.5264 10.4693 12.5393 10.4883 12.5508 10.5059C12.5569 10.5149 12.5628 10.5251 12.5693 10.5361C12.6514 10.6888 12.5815 10.8066 12.4707 10.8066C12.3402 10.8066 12.3692 10.8905 12.3145 11.0283C12.2598 11.1662 12.4346 11.4824 12.4346 11.4824C12.4346 11.4824 12.7217 11.482 12.7217 11.625C12.7216 11.7678 12.5693 11.7775 12.5107 11.8281C12.4528 11.8785 12.4843 11.9229 12.5107 11.9531C12.5368 11.9829 12.7563 12.1232 12.7637 12.1279H12.3145L12.0977 12.5449L11.8701 12.1279H11.415C11.4155 12.1238 11.4246 12.0807 11.6016 11.9951C11.7874 11.9052 11.6904 11.8633 11.6904 11.8633C11.6861 11.862 11.5215 11.8124 11.5215 11.625C11.5215 11.4365 11.6877 11.4817 11.6904 11.4824C11.6904 11.4824 11.8701 11.3512 11.8701 11.0283C11.8701 10.7055 11.8696 10.8066 11.6904 10.8066C11.5115 10.8064 11.691 10.4512 11.8701 10.4512C12.0488 10.4501 11.8695 9.62305 11.6904 9.62305C11.5114 9.62289 11.415 9.37517 11.415 9.09277C11.4155 8.8106 11.8701 8.72949 11.8701 8.72949V6.29004C11.8703 4.62711 12.8252 4.62988 12.8252 4.62988ZM19.5908 11.5537C19.5908 11.5537 19.2756 11.8628 19.4756 11.9307C19.6756 11.9985 20.018 11.9674 19.8467 12.1348C19.6754 12.3022 19.5303 12.5285 19.5303 12.7344C19.5303 12.9403 19.5357 13.1142 19.5908 13.0273C19.6459 12.9405 20.0126 12.8459 20.1816 12.7344C20.3504 12.6228 20.3184 12.5005 20.3184 12.248C20.3184 11.9976 19.6036 11.5615 19.5908 11.5537ZM17.2246 6.63867C17.2245 6.65145 17.2192 7.35917 17.1465 7.41699C17.0734 7.47526 17.0337 7.57429 17.0898 7.64453C17.1465 7.7149 17.1727 7.89648 17.0898 7.89648C17.0069 7.89686 16.8802 7.99779 16.9854 8.15234C17.0907 8.30711 17.0875 8.38477 17.2822 8.38477C17.4781 8.38481 18.5559 8.41284 18.8711 8.30078C19.1865 8.18869 19.4888 8.30231 19.9238 8.24512C20.3589 8.1879 20.9624 7.87237 20.8828 7.64453C20.8032 7.41671 20.7006 7.12761 19.9238 7.32031C19.147 7.51303 18.8592 7.61899 18.5654 7.46973C18.2717 7.32056 17.8814 7.23145 17.8291 7.23145C17.7773 7.23359 17.7948 7.60844 17.6445 7.5127C17.4939 7.41672 17.3108 7.31756 17.3711 7.15137C17.432 6.98496 17.4824 6.94926 17.4824 6.83691C17.4824 6.72442 17.2246 6.63867 17.2246 6.63867Z" fill="#FECA00"/>
<path fill-rule="evenodd" clip-rule="evenodd" d="M11.612 15.1264C11.7049 14.9557 11.612 15.4988 11.612 15.7641C11.6119 16.0297 11.3139 16.5465 11.1032 16.4008C10.8974 16.2586 10.6404 16.3944 10.6286 16.4008V16.1303C10.6286 15.9912 10.378 15.6411 10.7946 15.5609C11.2113 15.4808 11.5187 15.2984 11.612 15.1264ZM21.3932 15.1264C21.4866 15.2984 21.794 15.4808 22.2106 15.5609C22.6267 15.6413 22.3766 15.9913 22.3766 16.1303V16.4008C22.3698 16.397 22.109 16.2569 21.9011 16.4008C21.6904 16.5461 21.3934 16.0296 21.3932 15.7641C21.3932 15.4987 21.3002 14.9552 21.3932 15.1264ZM11.1032 1.59219C11.3139 1.44646 11.6118 1.96329 11.612 2.22891C11.612 2.49427 11.705 3.03755 11.612 2.86661C11.5187 2.6946 11.2113 2.51221 10.7946 2.43204C10.378 2.35185 10.6286 2.00174 10.6286 1.8627V1.59219C10.6397 1.59819 10.8971 1.73462 11.1032 1.59219ZM21.3932 2.22891C21.3935 1.96339 21.6904 1.447 21.9011 1.59219C22.1096 1.73647 22.3712 1.59516 22.3766 1.59219V1.8627C22.3766 2.0017 22.6267 2.35172 22.2106 2.43204C21.794 2.51221 21.4866 2.6946 21.3932 2.86661C21.3001 3.03803 21.3932 2.49435 21.3932 2.22891Z" fill="#FECA00"/>
</g>
</svg>
