<svg width="24" height="18" viewBox="0 0 24 18" fill="none" xmlns="http://www.w3.org/2000/svg">
<mask id="mask0_395_51473" style="mask-type:luminance" maskUnits="userSpaceOnUse" x="0" y="0" width="24" height="18">
<rect width="24" height="18" fill="white"/>
</mask>
<g mask="url(#mask0_395_51473)">
<path fill-rule="evenodd" clip-rule="evenodd" d="M0 0H24V18H0V0Z" fill="#E8AA00"/>
<path fill-rule="evenodd" clip-rule="evenodd" d="M3 3H21V15H3V3Z" fill="#C51918"/>
<mask id="mask1_395_51473" style="mask-type:luminance" maskUnits="userSpaceOnUse" x="3" y="3" width="18" height="12">
<path fill-rule="evenodd" clip-rule="evenodd" d="M3 3H21V15H3V3Z" fill="white"/>
</mask>
<g mask="url(#mask1_395_51473)">
<path fill-rule="evenodd" clip-rule="evenodd" d="M15.173 11.8129C15.4789 11.8129 15.7268 11.5588 15.7268 11.2453C15.7268 10.9318 15.4789 10.6777 15.173 10.6777C14.8671 10.6777 14.6191 10.9318 14.6191 11.2453C14.6191 11.5588 14.8671 11.8129 15.173 11.8129Z" fill="#1E5E91"/>
<path d="M8.60008 4.62988C8.60008 4.62988 6.51771 7.56027 7.97064 9.24885C9.42357 10.9374 10.4907 10.4283 10.4907 10.4283L9.895 10.9625L10.0637 11.1084H9.5673L9.74981 11.2305L9.47322 11.3516C9.47322 11.3516 9.85666 11.6336 9.47322 11.6336C9.41268 11.6336 9.34854 11.6318 9.28253 11.63C9.08588 11.6245 8.8727 11.6186 8.68893 11.658L8.66844 11.6221C8.66844 11.6221 7.81031 9.64349 7.81031 9.40327C7.81031 9.16306 7.46486 8.45169 7.46486 8.65818V9.40327L8.49533 11.7247C8.4316 11.7578 8.37579 11.8014 8.3311 11.8589C8.10017 12.1557 8.15808 12.3978 8.3311 12.3978C8.37964 12.3978 8.44755 12.4218 8.52621 12.4497C8.62429 12.4845 8.73909 12.5252 8.8539 12.5325L8.91271 12.665V12.922H9.10769L9.32478 12.7727L9.14133 12.4511C9.16086 12.4359 9.17986 12.4182 9.19822 12.3978C9.47322 12.092 9.895 11.6336 9.895 11.6336V11.8589L10.3948 11.3516L10.4907 11.6336L11.1632 10.8612L11.3449 10.9625C11.3449 10.9625 10.7259 12.6707 10.3948 12.6826C10.2302 12.6885 10.4801 12.8482 10.811 13.0597C11.1461 13.2738 11.5643 13.5411 11.7198 13.7557C11.7661 13.8196 11.8019 13.7222 11.8293 13.5104C11.8566 13.7222 11.8924 13.8196 11.9387 13.7557C12.0943 13.5411 12.5125 13.2738 12.8475 13.0597C13.1785 12.8482 13.4283 12.6885 13.2638 12.6826C12.9327 12.6707 12.3137 10.9625 12.3137 10.9625L12.4953 10.8612L13.1678 11.6336L13.2638 11.3516L13.7636 11.8589V11.6336C13.7636 11.6336 14.1853 12.092 14.4603 12.3978C14.6582 12.6178 14.9306 12.5212 15.1323 12.4497C15.211 12.4218 15.2789 12.3978 15.3275 12.3978C15.4364 12.3978 15.4346 12.3561 15.4276 12.1953C15.4254 12.1452 15.4227 12.0835 15.4227 12.0079C15.9327 11.6149 15.8636 11.5317 15.8208 11.4801C15.8194 11.4785 15.818 11.4768 15.8167 11.4752C15.8158 11.4741 15.8148 11.4729 15.8139 11.4718C15.8038 11.4587 15.6712 11.5448 15.545 11.6266C15.4249 11.7046 15.3107 11.7787 15.3139 11.7597C15.3174 11.7388 15.3229 11.7168 15.3285 11.6945C15.3502 11.6078 15.373 11.5167 15.2838 11.4718C15.2628 11.4611 15.1793 11.4901 15.0899 11.5212C14.9841 11.5579 14.87 11.5975 14.8408 11.578C14.7954 11.5476 14.7301 11.4688 14.6649 11.3902C14.5832 11.2915 14.5018 11.1932 14.4603 11.1914C14.4407 11.1906 14.4842 11.2978 14.5282 11.406C14.5727 11.5155 14.6175 11.6261 14.5975 11.626C14.5229 11.6259 14.4484 11.628 14.376 11.63C14.31 11.6318 14.2459 11.6336 14.1853 11.6336C13.8019 11.6336 14.1853 11.3516 14.1853 11.3516L13.9087 11.2305L14.0912 11.1084H13.5949L13.7636 10.9625L13.1678 10.4283C13.1678 10.4283 14.235 10.9374 15.6879 9.24885C17.1408 7.56027 15.0585 4.62988 15.0585 4.62988C15.0585 4.62988 14.7472 6.38005 13.5949 7.55774C13.5949 7.64136 13.7037 7.76475 13.8139 7.88967C13.8908 7.97691 13.9684 8.06489 14.01 8.14061C14.1113 8.32475 13.7636 8.4297 13.5949 8.4297C13.5192 8.4297 13.4774 8.53949 13.4396 8.63858C13.3932 8.76026 13.353 8.8658 13.2638 8.73209C13.1019 8.4895 13.4257 7.95647 13.4257 7.95647L12.913 7.41572L12.7397 7.06616H12.913V6.70628L13.0345 6.80604C13.0345 6.80604 13.1678 6.48426 13.4257 6.48426C13.6836 6.48426 13.7636 6.33711 13.7636 6.33711H13.4257C13.2565 6.33711 13.4527 6.11294 13.5949 5.99617C13.6586 5.94383 13.7553 5.96188 13.8425 5.97817C13.9499 5.99822 14.0431 6.01562 14.0431 5.89582C14.0431 5.76452 13.9409 5.74712 13.8227 5.72702C13.7455 5.71389 13.6616 5.69959 13.5949 5.65159C13.4846 5.5722 13.336 5.59661 13.1751 5.62303C13.0899 5.63703 13.0013 5.65159 12.913 5.65159H12.4953C12.3445 5.65159 12.7397 5.89582 12.7397 5.89582L12.4953 6.11294L12.132 6.48426L12.3137 6.59211L11.9387 6.95571C11.9387 6.95571 12.066 7.16265 11.9387 7.16265C11.8863 7.16265 11.8517 7.20564 11.8293 7.25619C11.8068 7.20564 11.7723 7.16265 11.7198 7.16265C11.5926 7.16265 11.7198 6.95571 11.7198 6.95571L11.3449 6.59211L11.5266 6.48426L11.1632 6.11294L10.9189 5.89582C10.9189 5.89582 11.3141 5.65159 11.1632 5.65159H10.7455C10.6573 5.65159 10.5686 5.63703 10.4834 5.62303C10.3225 5.59661 10.1739 5.5722 10.0637 5.65159C9.997 5.69959 9.91301 5.71389 9.83581 5.72702C9.71769 5.74712 9.61545 5.76452 9.61545 5.89582C9.61545 6.01562 9.70863 5.99822 9.81604 5.97817C9.9033 5.96188 9.99995 5.94383 10.0637 5.99617C10.2058 6.11294 10.402 6.33711 10.2328 6.33711H9.895C9.895 6.33711 9.97495 6.48426 10.2328 6.48426C10.4907 6.48426 10.624 6.80604 10.624 6.80604L10.7455 6.70628V7.06616H10.9189L10.7455 7.41572L10.2328 7.95647C10.2328 7.95647 10.5567 8.4895 10.3948 8.73209C10.3055 8.8658 10.2653 8.76026 10.219 8.63858C10.1812 8.53949 10.1394 8.4297 10.0637 8.4297C9.895 8.4297 9.5472 8.32475 9.64851 8.14061C9.69017 8.06489 9.76776 7.97691 9.84469 7.88967C9.95486 7.76475 10.0637 7.64136 10.0637 7.55774C8.9114 6.38005 8.60008 4.62988 8.60008 4.62988Z" fill="#F6C540"/>
<path fill-rule="evenodd" clip-rule="evenodd" d="M15.561 10.7285L15.438 11.1201L15.9009 11.2598L15.8013 11.5918L15.3354 11.4512L15.2388 11.7617L14.9087 11.6533L15.0024 11.3506L14.5815 11.2236L14.6812 10.8926L15.106 11.0195L15.231 10.6201L15.561 10.7285Z" fill="#F6C540"/>
<path fill-rule="evenodd" clip-rule="evenodd" d="M15.5381 10.2832L15.5088 10.3975L15.6357 10.4287L15.6191 10.499L15.4912 10.4668L15.459 10.5957L15.3877 10.5801L15.4199 10.4492L15.292 10.418L15.3076 10.3486L15.4375 10.3799L15.4668 10.2666L15.5381 10.2832Z" fill="#F6C540"/>
<path fill-rule="evenodd" clip-rule="evenodd" d="M11.7709 3.91602L11.8066 4.04037H11.9149L11.9505 3.91602C12.0406 3.94314 12.1224 3.974 12.1957 4.00845L12.1982 3.98122C12.7771 4.03409 13.0774 4.2764 13.0452 4.70243C13.0186 5.05508 12.8401 5.23983 12.5424 5.2351V5.49851C12.5424 5.49851 12.0578 5.68454 11.8155 5.68454C11.5732 5.68454 11.0886 5.49851 11.0886 5.49851V5.23064C10.8435 5.20034 10.6972 5.01906 10.6732 4.70243C10.641 4.2764 10.9414 4.03409 11.5203 3.98122L11.523 4.0098C11.597 3.97481 11.6797 3.94349 11.7709 3.91602ZM11.1581 4.99922C11.1255 5.00836 11.1025 5.0151 11.0932 5.01786C10.9603 4.99293 10.8955 4.88674 10.8804 4.68726C10.8652 4.48558 10.9599 4.34527 11.1833 4.26435C11.0309 4.45943 11.0197 4.70759 11.1581 4.99922ZM11.3645 4.94547C11.4866 4.91612 11.6279 4.88694 11.7411 4.87692V4.14892C11.2763 4.31207 11.1646 4.56164 11.3645 4.94547ZM11.9488 4.88346C12.1046 4.90389 12.2938 4.95068 12.416 4.9836L12.3548 4.94979C12.5622 4.55497 12.4419 4.30164 11.9488 4.13817V4.88346ZM12.5394 4.26588C12.6949 4.46615 12.7019 4.72217 12.5515 5.02359C12.7347 5.02634 12.8205 4.92064 12.8381 4.68726C12.8532 4.48685 12.7598 4.34703 12.5394 4.26588Z" fill="#F6C540"/>
<path fill-rule="evenodd" clip-rule="evenodd" d="M11.8155 4.13891C11.9494 4.13891 12.0579 4.03043 12.0579 3.8966C12.0579 3.76278 11.9494 3.6543 11.8155 3.6543C11.6817 3.6543 11.5732 3.76278 11.5732 3.8966C11.5732 4.03043 11.6817 4.13891 11.8155 4.13891Z" fill="#3D58DB"/>
<path fill-rule="evenodd" clip-rule="evenodd" d="M11.8495 3.37302L11.8487 3.49097L11.9794 3.49058L11.9801 3.56187L11.8484 3.5625L11.8483 3.69537L11.7754 3.69746L11.775 3.56269L11.6433 3.56331L11.6417 3.49226L11.7752 3.49116L11.7763 3.37415L11.8495 3.37302Z" fill="#F6C540"/>
<path fill-rule="evenodd" clip-rule="evenodd" d="M10.4651 7.76942C10.4651 7.76942 11.3184 7.6084 11.7805 7.6084C12.1953 7.6084 13.0959 7.76942 13.0959 7.76942C13.0959 8.78946 13.3829 9.41395 13.0959 10.1106C12.8089 10.8073 12.1074 10.4724 11.7899 11.1391C11.3841 10.5068 10.8361 10.8548 10.4651 9.95437C10.0941 9.0539 10.6907 8.63916 10.4651 7.76942Z" fill="#1E5E91"/>
<mask id="mask2_395_51473" style="mask-type:luminance" maskUnits="userSpaceOnUse" x="10" y="7" width="4" height="5">
<path fill-rule="evenodd" clip-rule="evenodd" d="M10.4651 7.76942C10.4651 7.76942 11.3184 7.6084 11.7805 7.6084C12.1953 7.6084 13.0959 7.76942 13.0959 7.76942C13.0959 8.78946 13.3829 9.41395 13.0959 10.1106C12.8089 10.8073 12.1074 10.4724 11.7899 11.1391C11.3841 10.5068 10.8361 10.8548 10.4651 9.95437C10.0941 9.0539 10.6907 8.63916 10.4651 7.76942Z" fill="white"/>
</mask>
<g mask="url(#mask2_395_51473)">
<rect x="10.4653" y="9.89746" width="2.63077" height="1.27703" fill="#5EAA22"/>
<path d="M11.2431 8.2717C11.1426 8.05806 11.7714 8.0332 11.7714 8.0332C11.7714 8.0332 11.907 8.2717 11.7714 8.61106C11.6728 8.85787 11.8372 8.83586 12.0641 8.80549C12.1492 8.79411 12.2431 8.78154 12.3352 8.78154C12.4762 8.78154 12.5505 8.7712 12.6121 8.79437C12.698 8.82665 12.7595 8.92401 12.9433 9.20515C13.0272 9.33352 13.0236 9.41805 12.9729 9.4686C12.9773 9.59919 12.8351 9.70744 12.5725 9.77674L12.538 9.63933C12.6769 9.60267 12.762 9.56761 12.8015 9.52888C12.6035 9.54094 12.3352 9.44308 12.3352 9.31736C12.3352 9.15096 11.8275 9.16486 11.4475 9.1865C11.409 9.5219 11.2356 9.73657 10.9318 9.81742L10.897 9.68009C11.1349 9.61676 11.2703 9.45894 11.307 9.19496C11.2157 9.2006 11.14 9.20515 11.0925 9.20515C10.8707 9.20515 11.0407 8.93409 11.1955 8.68743C11.2117 8.66159 11.2277 8.63602 11.2431 8.61106C11.3226 8.48228 11.3484 8.44941 11.3422 8.42442C11.3358 8.39833 11.2945 8.38084 11.2431 8.2717Z" fill="#F6C540"/>
<path d="M12.1585 8.44922C12.1585 8.23667 12.3716 8.17833 12.7515 8.23863L12.7303 8.37885C12.426 8.33055 12.297 8.36586 12.297 8.44922C12.297 8.54084 12.4329 8.5985 12.7403 8.59595L12.7509 8.59587L12.761 8.59901C12.9971 8.67247 12.9971 8.8221 12.7639 8.90618L12.7179 8.77234C12.7377 8.76519 12.7546 8.75826 12.7684 8.75172C12.7576 8.74723 12.745 8.7426 12.7306 8.73791C12.3607 8.73926 12.1585 8.65153 12.1585 8.44922Z" fill="#F6C540"/>
</g>
</g>
</g>
</svg>
