<svg width="24" height="18" viewBox="0 0 24 18" fill="none" xmlns="http://www.w3.org/2000/svg">
<mask id="mask0_395_55111" style="mask-type:luminance" maskUnits="userSpaceOnUse" x="0" y="0" width="24" height="18">
<rect width="24" height="18" fill="white"/>
</mask>
<g mask="url(#mask0_395_55111)">
<path fill-rule="evenodd" clip-rule="evenodd" d="M0 0H25.5V18H0V0Z" fill="#2993EC"/>
<path fill-rule="evenodd" clip-rule="evenodd" d="M12.0004 1.5C16.0542 1.50021 19.3402 4.71808 19.3402 8.6875C19.3402 12.6569 16.0542 15.8748 12.0004 15.875C7.94636 15.875 4.65955 12.657 4.65955 8.6875C4.65955 4.71795 7.94636 1.5 12.0004 1.5ZM12.0004 3.0625C8.82767 3.0625 6.25525 5.5809 6.25525 8.6875C6.25525 11.7941 8.82767 14.3125 12.0004 14.3125C15.1729 14.3123 17.7445 11.794 17.7445 8.6875C17.7445 5.58103 15.1729 3.06271 12.0004 3.0625Z" fill="#F1F9FF"/>
<path fill-rule="evenodd" clip-rule="evenodd" d="M12 2.125C15.7015 2.12501 18.7021 5.06314 18.7021 8.6875C18.7021 12.3119 15.7015 15.25 12 15.25C8.29852 15.25 5.29785 12.3119 5.29785 8.6875C5.29785 5.06313 8.29852 2.125 12 2.125ZM12 2.4375C8.47478 2.4375 5.61719 5.23572 5.61719 8.6875C5.61719 12.1393 8.47478 14.9375 12 14.9375C15.5252 14.9375 18.3828 12.1393 18.3828 8.6875C18.3828 5.23573 15.5252 2.43751 12 2.4375Z" fill="#E31D1C"/>
<path fill-rule="evenodd" clip-rule="evenodd" d="M4.56299 7.32715C4.71334 7.43578 4.93991 7.51689 5.24268 7.57031C5.5456 7.62373 5.82815 7.79491 6.09033 8.08301C5.7486 8.06765 5.44162 8.0353 5.16943 7.9873C4.89718 7.93925 4.69499 7.71938 4.56299 7.32715ZM18.1909 7.45117C18.4632 7.40322 18.7286 7.54083 18.9868 7.86426C18.8083 7.81358 18.5671 7.81474 18.2642 7.86816C17.9613 7.92153 17.6373 7.8578 17.2925 7.67676C17.619 7.57425 17.9186 7.49919 18.1909 7.45117ZM5.10791 5.75C5.23003 5.88973 5.43313 6.02042 5.71631 6.14062C5.99919 6.26085 6.23574 6.49067 6.42627 6.83008C6.09673 6.73823 5.80472 6.63827 5.55029 6.53027C5.29579 6.42222 5.1483 6.1619 5.10791 5.75ZM17.6919 6.02832C17.9464 5.92029 18.2357 5.99486 18.5601 6.25195C18.3747 6.24275 18.1401 6.29779 17.8569 6.41797C17.5739 6.53803 17.2443 6.54894 16.8677 6.4502C17.1627 6.27693 17.4374 6.13633 17.6919 6.02832ZM6.02002 4.33008C6.1047 4.4952 6.27043 4.67033 6.51611 4.85547C6.76175 5.04061 6.93578 5.32153 7.03857 5.69727C6.74108 5.52846 6.48197 5.36065 6.26123 5.19434C6.0404 5.02793 5.95955 4.73954 6.02002 4.33008ZM16.8657 4.75879C17.0865 4.59242 17.3854 4.59476 17.7622 4.76562C17.5802 4.80159 17.3661 4.91167 17.1206 5.09668C16.875 5.28174 16.5578 5.37188 16.1685 5.36719C16.4126 5.12785 16.6451 4.92507 16.8657 4.75879ZM7.229 3.16211C7.27437 3.34205 7.3965 3.55048 7.59424 3.78613C7.79164 4.02164 7.89788 4.33386 7.91357 4.72266C7.66168 4.49124 7.44669 4.26933 7.26904 4.05762C7.09157 3.84582 7.07806 3.54727 7.229 3.16211ZM15.7681 3.70801C15.9458 3.49646 16.2376 3.43192 16.6431 3.51367C16.4738 3.58961 16.2899 3.74493 16.0923 3.98047C15.8946 4.21611 15.6057 4.37598 15.2251 4.45898C15.4093 4.17056 15.5903 3.91982 15.7681 3.70801ZM8.6792 2.29883C8.68293 2.48434 8.75539 2.71422 8.89502 2.98828C9.03464 3.26229 9.06785 3.59098 8.99561 3.97363C8.80217 3.69142 8.64259 3.42697 8.51709 3.18066C8.39171 2.93434 8.44543 2.64024 8.6792 2.29883ZM15.2612 2.5459C15.1133 2.65797 14.9693 2.85188 14.8296 3.12598C14.69 3.39978 14.4441 3.61974 14.0923 3.78613C14.2069 3.46388 14.3272 3.17983 14.4526 2.93359C14.5782 2.68723 14.8475 2.55745 15.2612 2.5459ZM10.3091 1.78711C10.2678 1.96803 10.2819 2.20904 10.3511 2.50879C10.4202 2.80846 10.3732 3.13541 10.2104 3.48926C10.091 3.16853 10.0002 2.87293 9.93799 2.60352C9.87598 2.33421 9.9997 2.06179 10.3091 1.78711ZM13.6772 1.91016C13.5609 2.05468 13.4681 2.27657 13.3989 2.57617C13.3297 2.87592 13.1438 3.14875 12.8423 3.39551C12.8755 3.05501 12.9237 2.7498 12.9858 2.48047C13.0482 2.21122 13.2788 2.02142 13.6772 1.91016ZM11.9995 1.65625C11.9187 1.82324 11.8784 2.06067 11.8784 2.36816C11.8784 2.67579 11.7592 2.98374 11.521 3.29199C11.4768 2.95264 11.4546 2.64465 11.4546 2.36816C11.4546 2.09177 11.6364 1.85433 11.9995 1.65625Z" fill="#FDDA33"/>
<path fill-rule="evenodd" clip-rule="evenodd" d="M13.0418 4.3125C13.4084 4.31274 13.6808 4.65162 13.6024 5.00977L13.3758 6.04883C13.3381 6.22072 13.2246 6.35921 13.076 6.43555C13.2161 6.52553 13.3158 6.67453 13.3368 6.85059L14.3524 15.3711C14.3777 15.5846 14.281 15.7947 14.0926 15.8984C13.674 16.1291 12.877 16.4999 12.0799 16.5C11.2827 16.5 10.4849 16.1291 10.0663 15.8984C9.87799 15.7946 9.78214 15.5846 9.80747 15.3711L10.8221 6.85059C10.8431 6.6745 10.9427 6.52455 11.0829 6.43457C10.9348 6.35815 10.8217 6.22036 10.784 6.04883L10.5565 5.00977C10.4781 4.65152 10.7513 4.3125 11.118 4.3125H13.0418Z" fill="#A7A7A7"/>
<path d="M4.8894 9.00961C4.92808 8.88583 5.06191 8.81619 5.18832 8.85407C5.31473 8.89195 5.38585 9.02299 5.34717 9.14677C5.28025 9.36092 5.28025 9.67724 5.35408 10.0911C5.3824 10.2498 5.41607 10.3724 5.45748 10.4806C5.47397 10.5238 5.49103 10.5633 5.51382 10.6122C5.50368 10.5904 5.55931 10.7086 5.57284 10.7392C5.64438 10.9011 5.67602 11.043 5.67602 11.2509C5.67602 11.3804 5.56885 11.4853 5.43666 11.4853C5.30446 11.4853 5.19729 11.3804 5.19729 11.2509C5.19729 11.1089 5.17971 11.03 5.13347 10.9253C5.12257 10.9007 5.07061 10.7903 5.07818 10.8066C5.05117 10.7485 5.03001 10.6996 5.00916 10.645C4.9572 10.5092 4.91583 10.3586 4.88249 10.1717C4.79684 9.69162 4.79684 9.30579 4.8894 9.00961Z" fill="#73BE4A"/>
<path fill-rule="evenodd" clip-rule="evenodd" d="M12.1595 12.1344L9.07367 14.237L10.1623 10.7135L7.1665 8.48958L10.9252 8.41458L12.1595 4.9375L13.3939 8.41458L17.1526 8.48958L14.1568 10.7135L15.2454 14.237L12.1595 12.1344Z" fill="#F7FCFF"/>
<path d="M19.1696 9.32211C19.1309 9.19833 18.997 9.12869 18.8706 9.16657C18.7442 9.20445 18.6731 9.33549 18.7118 9.45927C18.7787 9.67342 18.7787 9.98974 18.7049 10.4036C18.6766 10.5623 18.6429 10.6849 18.6015 10.7931C18.585 10.8363 18.5679 10.8758 18.5451 10.9247C18.5553 10.9029 18.4997 11.0211 18.4861 11.0517C18.4146 11.2136 18.3829 11.3555 18.3829 11.5634C18.3829 11.6929 18.4901 11.7978 18.6223 11.7978C18.7545 11.7978 18.8617 11.6929 18.8617 11.5634C18.8617 11.4214 18.8793 11.3425 18.9255 11.2378C18.9364 11.2132 18.9884 11.1028 18.9808 11.1191C19.0078 11.061 19.0289 11.0121 19.0498 10.9575C19.1018 10.8217 19.1431 10.6711 19.1765 10.4842C19.2621 10.0041 19.2621 9.61829 19.1696 9.32211Z" fill="#73BE4A"/>
<path d="M12.0454 2.36035C12.0454 2.36035 12.9187 2.7494 12.5415 3.36197" stroke="#73BE4A" stroke-linecap="round" stroke-linejoin="round"/>
<path d="M12.6841 2.36035C12.6841 2.36035 13.5574 2.7494 13.1802 3.36197" stroke="#73BE4A" stroke-linecap="round" stroke-linejoin="round"/>
<path d="M6.94464 4.76788C7.00795 4.65829 7.14094 4.62529 7.24167 4.69418C7.3424 4.76306 7.37273 4.90774 7.30941 5.01733C7.18794 5.2276 7.1247 5.51608 7.1247 5.88598C7.1247 6.01542 7.02825 6.12036 6.90927 6.12036C6.7903 6.12036 6.69385 6.01542 6.69385 5.88598C6.69385 5.43392 6.77578 5.06016 6.94464 4.76788Z" fill="#73BE4A"/>
<path d="M6.60639 6.90943C6.60639 7.03888 6.50994 7.14381 6.39096 7.14381C6.27199 7.14381 6.17554 7.03888 6.17554 6.90943V6.24181C6.17554 5.76941 6.24964 5.39738 6.40588 5.12571C6.46899 5.01598 6.60191 4.98269 6.70277 5.05135C6.80363 5.12001 6.83423 5.26462 6.77113 5.37435C6.66398 5.56065 6.60639 5.84981 6.60639 6.24181V6.90943Z" fill="#73BE4A"/>
<path d="M17.6131 6.59693C17.6131 6.72638 17.7095 6.83131 17.8285 6.83131C17.9475 6.83131 18.0439 6.72638 18.0439 6.59693V5.92931C18.0439 5.45691 17.9698 5.08488 17.8136 4.81321C17.7505 4.70348 17.6176 4.67019 17.5167 4.73885C17.4159 4.80751 17.3852 4.95212 17.4484 5.06185C17.5555 5.24815 17.6131 5.53731 17.6131 5.92931V6.59693Z" fill="#73BE4A"/>
<path d="M18.2514 7.69068C18.2514 7.82013 18.3478 7.92506 18.4668 7.92506C18.5858 7.92506 18.6823 7.82013 18.6823 7.69068V7.02306C18.6823 6.55066 18.6082 6.17863 18.4519 5.90696C18.3888 5.79723 18.2559 5.76394 18.155 5.8326C18.0542 5.90126 18.0236 6.04587 18.0867 6.1556C18.1938 6.3419 18.2514 6.63106 18.2514 7.02306V7.69068Z" fill="#73BE4A"/>
</g>
</svg>
