<svg width="24" height="18" viewBox="0 0 24 18" fill="none" xmlns="http://www.w3.org/2000/svg">
<mask id="mask0_395_53460" style="mask-type:luminance" maskUnits="userSpaceOnUse" x="0" y="0" width="24" height="18">
<rect width="24" height="18" fill="white"/>
</mask>
<g mask="url(#mask0_395_53460)">
<path fill-rule="evenodd" clip-rule="evenodd" d="M0 0V18H24V0H0Z" fill="#2E42A5"/>
<mask id="mask1_395_53460" style="mask-type:luminance" maskUnits="userSpaceOnUse" x="0" y="0" width="24" height="18">
<path fill-rule="evenodd" clip-rule="evenodd" d="M0 0V18H24V0H0Z" fill="white"/>
</mask>
<g mask="url(#mask1_395_53460)">
<path d="M22.944 7.77454C23.0669 9.93616 23.1094 12.0354 22.6715 13.6095C22.446 14.4201 22.0988 15.0692 21.5895 15.5157C21.0845 15.9584 20.3967 16.2227 19.4469 16.2228C18.4846 16.2228 17.8168 16.0038 17.3434 15.6251C16.869 15.2456 16.5577 14.6802 16.358 13.924C16.1578 13.1655 16.0752 12.2361 16.0446 11.1534C16.0158 10.1387 16.0316 9.00908 16.0338 7.77454H22.944Z" fill="#6DC2FF" stroke="#F7FCFF" stroke-width="0.5"/>
<mask id="mask2_395_53460" style="mask-type:luminance" maskUnits="userSpaceOnUse" x="15" y="7" width="9" height="10">
<path d="M22.944 7.77454C23.0669 9.93616 23.1094 12.0354 22.6715 13.6095C22.446 14.4201 22.0988 15.0692 21.5895 15.5157C21.0845 15.9584 20.3967 16.2227 19.4469 16.2228C18.4846 16.2228 17.8168 16.0038 17.3434 15.6251C16.869 15.2456 16.5577 14.6802 16.358 13.924C16.1578 13.1655 16.0752 12.2361 16.0446 11.1534C16.0158 10.1387 16.0316 9.00908 16.0338 7.77454H22.944Z" fill="white" stroke="white" stroke-width="0.5"/>
</mask>
<g mask="url(#mask2_395_53460)">
<rect x="15.6993" y="7.5" width="7.5525" height="5.98378" fill="#2EBED7"/>
<rect x="15.6" y="13.4355" width="7.95" height="3.06486" fill="#A95601"/>
<path d="M20.0593 10.0979C20.0593 10.0979 18.659 10.4155 18.7944 10.0979C18.9298 9.78025 19.2919 8.63495 19.2919 8.63495" stroke="#FFC6B5"/>
<path fill-rule="evenodd" clip-rule="evenodd" d="M20.4803 10.3247C20.4803 10.3247 20.2248 10.1682 20.2248 9.88307C20.2248 9.59797 19.6018 9.4913 20.0411 9.04586C20.4803 8.60041 20.6699 8.79658 20.6699 9.04586C20.6699 9.29513 21.0229 9.88307 21.0229 9.88307L20.4803 10.3247Z" fill="#FFC6B5"/>
<path fill-rule="evenodd" clip-rule="evenodd" d="M19.7738 8.42389H21.1654V9.10455H19.7738V15.0401H19.0785V9.10455H17.6869V8.42389H19.0785V7.74323H19.7738V8.42389Z" fill="#272727"/>
<path fill-rule="evenodd" clip-rule="evenodd" d="M21.2716 15.2409C21.2716 15.2409 21.0185 14.0697 21.0185 13.2681C21.0185 12.4664 20.5945 11.893 20.7156 11.469C20.8368 11.0451 21.1286 10.5763 20.9827 10.2861C20.8368 9.99596 21.1251 9.85467 20.7156 9.99596C20.3062 10.1372 20.1961 9.85467 19.8008 9.99596C19.4055 10.1372 19.3555 10.8043 19.3555 10.9946C19.3555 11.1849 19.5312 12.4679 19.5312 12.868C19.5312 13.2681 19.3864 15.7283 19.8008 15.7283C20.2152 15.7283 20.6671 15.088 20.8249 15.088C20.9827 15.088 21.2716 15.2409 21.2716 15.2409Z" fill="#0C7C38"/>
<path fill-rule="evenodd" clip-rule="evenodd" d="M18.7723 12.1055C18.5197 12.1055 18.7521 12.6923 18.1093 12.9496C17.4665 13.2069 17.3403 13.5692 17.5428 13.5692C17.7453 13.5692 19.3463 15.3681 19.3463 15.3681L19.7389 14.7612V12.8445C19.7389 12.8445 19.0249 12.1055 18.7723 12.1055Z" stroke="#FF9A06"/>
<path d="M20.6573 15.1183C20.6573 15.1183 20.9573 15.762 20.6573 15.762" stroke="#979797"/>
<path d="M20.5608 10.3427C20.5608 10.3427 20.429 11.0648 20.178 11.216C19.9271 11.3672 18.8962 11.6598 18.8962 11.9097C18.8962 12.1597 18.7939 12.249 18.7939 12.249" stroke="#FFC6B5"/>
<path fill-rule="evenodd" clip-rule="evenodd" d="M20.061 8.85162C20.061 8.85162 20.3133 9.1514 20.4545 9.64556C20.5957 10.1397 21.0049 10.308 21.0049 10.0767C21.0049 9.84546 21.3073 8.85162 21.0049 8.85162C20.7024 8.85162 20.061 8.85162 20.061 8.85162Z" fill="#FF9A06"/>
</g>
<rect width="13.5" height="10.5" fill="#2B409A"/>
<mask id="mask3_395_53460" style="mask-type:luminance" maskUnits="userSpaceOnUse" x="0" y="0" width="14" height="11">
<rect width="13.5" height="10.5" fill="white"/>
</mask>
<g mask="url(#mask3_395_53460)">
<path d="M-1.50317 9.74983L1.46754 11.0527L13.5674 1.41653L15.1344 -0.519623L11.9577 -0.955091L7.02241 3.19743L3.05003 5.99525L-1.50317 9.74983Z" fill="#F7FCFF"/>
<path d="M-1.09644 10.6627L0.417006 11.4188L14.5718 -0.699524H12.4467L-1.09644 10.6627Z" fill="#F50100"/>
<path d="M15.0033 9.74983L12.0326 11.0527L-0.0673141 1.41653L-1.6343 -0.519623L1.54245 -0.955091L6.47771 3.19743L10.4501 5.99525L15.0033 9.74983Z" fill="#F7FCFF"/>
<path d="M14.902 10.405L13.3885 11.1611L7.36129 5.9726L5.57434 5.39291L-1.78503 -0.512991H0.340017L7.69525 5.25273L9.64897 5.94784L14.902 10.405Z" fill="#F50100"/>
<mask id="path-22-outside-1_395_53460" maskUnits="userSpaceOnUse" x="-2" y="-2" width="17" height="14" fill="black">
<rect fill="white" x="-2" y="-2" width="17" height="14"/>
<path fill-rule="evenodd" clip-rule="evenodd" d="M7.48838 0H5.98838V4.5H0V6H5.98838V10.5H7.48838V6H13.5V4.5H7.48838V0Z"/>
</mask>
<path fill-rule="evenodd" clip-rule="evenodd" d="M7.48838 0H5.98838V4.5H0V6H5.98838V10.5H7.48838V6H13.5V4.5H7.48838V0Z" fill="#F50100"/>
<path d="M5.98838 0V-1.5H4.48838V0H5.98838ZM7.48838 0H8.98838V-1.5H7.48838V0ZM5.98838 4.5V6H7.48838V4.5H5.98838ZM0 4.5V3H-1.5V4.5H0ZM0 6H-1.5V7.5H0V6ZM5.98838 6H7.48838V4.5H5.98838V6ZM5.98838 10.5H4.48838V12H5.98838V10.5ZM7.48838 10.5V12H8.98838V10.5H7.48838ZM7.48838 6V4.5H5.98838V6H7.48838ZM13.5 6V7.5H15V6H13.5ZM13.5 4.5H15V3H13.5V4.5ZM7.48838 4.5H5.98838V6H7.48838V4.5ZM5.98838 0V1.5H7.48838V0V-1.5H5.98838V0ZM5.98838 4.5H7.48838V0H5.98838H4.48838V4.5H5.98838ZM0 4.5V6H5.98838V4.5V3H0V4.5ZM0 6H1.5V4.5H0H-1.5V6H0ZM5.98838 6V4.5H0V6V7.5H5.98838V6ZM5.98838 10.5H7.48838V6H5.98838H4.48838V10.5H5.98838ZM7.48838 10.5V9H5.98838V10.5V12H7.48838V10.5ZM7.48838 6H5.98838V10.5H7.48838H8.98838V6H7.48838ZM13.5 6V4.5H7.48838V6V7.5H13.5V6ZM13.5 4.5H12V6H13.5H15V4.5H13.5ZM7.48838 4.5V6H13.5V4.5V3H7.48838V4.5ZM7.48838 0H5.98838V4.5H7.48838H8.98838V0H7.48838Z" fill="#F7FCFF" mask="url(#path-22-outside-1_395_53460)"/>
</g>
</g>
</g>
</svg>
