<svg width="24" height="18" viewBox="0 0 24 18" fill="none" xmlns="http://www.w3.org/2000/svg">
<rect width="24" height="18" fill="#F7FCFF"/>
<mask id="mask0_395_52341" style="mask-type:luminance" maskUnits="userSpaceOnUse" x="0" y="0" width="24" height="18">
<rect width="24" height="18" fill="white"/>
</mask>
<g mask="url(#mask0_395_52341)">
<mask id="path-3-inside-1_395_52341" fill="white">
<path fill-rule="evenodd" clip-rule="evenodd" d="M7.5 5.23633C7.8539 5.29651 8.12402 5.60356 8.12402 5.97461C8.12402 5.98311 8.12333 5.99157 8.12305 6H10.5V9H8.0459C7.94202 9.21372 7.74186 9.36995 7.5 9.41113V12H4.5V9.40039C4.27931 9.34779 4.09791 9.1996 4.00098 9H1.5V6H3.9248C3.92452 5.99156 3.92383 5.98311 3.92383 5.97461C3.92383 5.62041 4.16986 5.32566 4.5 5.24707V3H7.5V5.23633Z"/>
</mask>
<path fill-rule="evenodd" clip-rule="evenodd" d="M7.5 5.23633C7.8539 5.29651 8.12402 5.60356 8.12402 5.97461C8.12402 5.98311 8.12333 5.99157 8.12305 6H10.5V9H8.0459C7.94202 9.21372 7.74186 9.36995 7.5 9.41113V12H4.5V9.40039C4.27931 9.34779 4.09791 9.1996 4.00098 9H1.5V6H3.9248C3.92452 5.99156 3.92383 5.98311 3.92383 5.97461C3.92383 5.62041 4.16986 5.32566 4.5 5.24707V3H7.5V5.23633Z" fill="#A0A0A0"/>
<path d="M7.5 5.23633H6.5V6.08062L7.33234 6.22217L7.5 5.23633ZM8.12305 6L7.1236 5.96675L7.08922 7H8.12305V6ZM10.5 6H11.5V5H10.5V6ZM10.5 9V10H11.5V9H10.5ZM8.0459 9V8H7.42006L7.1465 8.56288L8.0459 9ZM7.5 9.41113L7.33213 8.42532L6.5 8.56703V9.41113H7.5ZM7.5 12V13H8.5V12H7.5ZM4.5 12H3.5V13H4.5V12ZM4.5 9.40039H5.5V8.61074L4.73186 8.42764L4.5 9.40039ZM4.00098 9L4.9005 8.56313L4.62701 8H4.00098V9ZM1.5 9H0.5V10H1.5V9ZM1.5 6V5H0.5V6H1.5ZM3.9248 6V7H4.95865L4.92425 5.96673L3.9248 6ZM4.5 5.24707L4.73157 6.21989L5.5 6.03697V5.24707H4.5ZM4.5 3V2H3.5V3H4.5ZM7.5 3H8.5V2H7.5V3ZM7.5 5.23633L7.33234 6.22217C7.21667 6.2025 7.12402 6.10233 7.12402 5.97461H8.12402H9.12402C9.12402 5.10479 8.49114 4.39053 7.66766 4.25048L7.5 5.23633ZM8.12402 5.97461H7.12402C7.12402 5.96324 7.12425 5.95409 7.12445 5.94815C7.12464 5.94237 7.12484 5.93832 7.12486 5.93798C7.12487 5.93781 7.12487 5.93783 7.1248 5.93902C7.12476 5.93987 7.12465 5.94194 7.12454 5.94415C7.12432 5.94858 7.12393 5.95681 7.1236 5.96675L8.12305 6L9.12249 6.03325C9.1223 6.03897 9.1221 6.04298 9.12209 6.04319C9.12209 6.0433 9.12209 6.04325 9.12215 6.04198C9.1222 6.04106 9.12231 6.03897 9.12242 6.03668C9.12282 6.02866 9.12402 6.00439 9.12402 5.97461H8.12402ZM8.12305 6V7H10.5V6V5H8.12305V6ZM10.5 6H9.5V9H10.5H11.5V6H10.5ZM10.5 9V8H8.0459V9V10H10.5V9ZM8.0459 9L7.1465 8.56288C7.17929 8.4954 7.24617 8.43996 7.33213 8.42532L7.5 9.41113L7.66787 10.3969C8.23755 10.2999 8.70476 9.93205 8.9453 9.43712L8.0459 9ZM7.5 9.41113H6.5V12H7.5H8.5V9.41113H7.5ZM7.5 12V11H4.5V12V13H7.5V12ZM4.5 12H5.5V9.40039H4.5H3.5V12H4.5ZM4.5 9.40039L4.73186 8.42764C4.80594 8.4453 4.86789 8.49597 4.9005 8.56313L4.00098 9L3.10145 9.43687C3.32794 9.90323 3.75267 10.2503 4.26814 10.3731L4.5 9.40039ZM4.00098 9V8H1.5V9V10H4.00098V9ZM1.5 9H2.5V6H1.5H0.5V9H1.5ZM1.5 6V7H3.9248V6V5H1.5V6ZM3.9248 6L4.92425 5.96673C4.92392 5.9568 4.92353 5.94857 4.92331 5.94414C4.9232 5.94192 4.92309 5.93986 4.92305 5.93901C4.92298 5.93782 4.92298 5.9378 4.92299 5.93798C4.92301 5.93832 4.92321 5.94238 4.9234 5.94816C4.9236 5.95411 4.92383 5.96326 4.92383 5.97461H3.92383H2.92383C2.92383 6.00439 2.92503 6.02864 2.92543 6.03668C2.92554 6.03897 2.92565 6.04107 2.9257 6.04199C2.92576 6.04326 2.92577 6.04331 2.92576 6.0432C2.92575 6.04299 2.92555 6.03899 2.92536 6.03327L3.9248 6ZM3.92383 5.97461H4.92383C4.92383 6.09834 4.83732 6.19472 4.73157 6.21989L4.5 5.24707L4.26843 4.27425C3.5024 4.4566 2.92383 5.14249 2.92383 5.97461H3.92383ZM4.5 5.24707H5.5V3H4.5H3.5V5.24707H4.5ZM4.5 3V4H7.5V3V2H4.5V3ZM7.5 3H6.5V5.23633H7.5H8.5V3H7.5Z" fill="#FECA00" mask="url(#path-3-inside-1_395_52341)"/>
<path fill-rule="evenodd" clip-rule="evenodd" d="M12 0H24V18H12V0Z" fill="#E31D1C"/>
<mask id="mask1_395_52341" style="mask-type:luminance" maskUnits="userSpaceOnUse" x="12" y="0" width="12" height="18">
<path fill-rule="evenodd" clip-rule="evenodd" d="M12 0H24V18H12V0Z" fill="white"/>
</mask>
<g mask="url(#mask1_395_52341)">
</g>
</g>
</svg>
