<svg width="24" height="18" viewBox="0 0 24 18" fill="none" xmlns="http://www.w3.org/2000/svg">
<mask id="mask0_395_55175" style="mask-type:luminance" maskUnits="userSpaceOnUse" x="0" y="0" width="24" height="18">
<rect width="24" height="18" fill="white"/>
</mask>
<g mask="url(#mask0_395_55175)">
<path fill-rule="evenodd" clip-rule="evenodd" d="M0 0V18H24V0H0Z" fill="#E11C1B"/>
<mask id="mask1_395_55175" style="mask-type:luminance" maskUnits="userSpaceOnUse" x="0" y="0" width="24" height="18">
<path fill-rule="evenodd" clip-rule="evenodd" d="M0 0V18H24V0H0Z" fill="white"/>
</mask>
<g mask="url(#mask1_395_55175)">
<path fill-rule="evenodd" clip-rule="evenodd" d="M0 0V7.5H24V0H0Z" fill="#272727"/>
<path fill-rule="evenodd" clip-rule="evenodd" d="M0 12V18H24V12H0Z" fill="#5EAA22"/>
<path fill-rule="evenodd" clip-rule="evenodd" d="M3.00107 8.9588H2.99423L3.00107 8.95685V8.9588ZM21.2169 8.9588H21.211V8.95685L21.2169 8.9588ZM3.55283 6.09552H3.47372L3.43173 6.07697L3.55283 6.09552ZM12.4395 2.50763C12.6262 2.51532 12.8107 2.53061 12.9933 2.5506L13.7345 0.580872L13.6524 2.65118C13.8365 2.68698 14.0181 2.72724 14.1964 2.77521L15.3106 0.969543L14.8214 2.97247C14.9989 3.03677 15.1721 3.1082 15.3419 3.18439L16.7833 1.60236L15.9122 3.47052C16.0793 3.56366 16.2415 3.66271 16.3985 3.7674L18.1065 2.46075L16.8966 4.13165C17.047 4.25258 17.1915 4.37879 17.3292 4.51056L19.2364 3.51642L17.7403 4.94025C17.8679 5.08728 17.9867 5.24037 18.0987 5.39728L20.1378 4.73419L18.4083 5.87872C18.4494 5.95001 18.4877 6.02265 18.5255 6.09552H17.0538C16.0383 4.68787 14.183 3.745 12.0616 3.74493C9.94005 3.74493 8.08416 4.68777 7.06845 6.09552H5.67001C5.70922 6.01995 5.74936 5.94478 5.79208 5.87091L4.07431 4.73419L6.0997 5.39337C6.21301 5.23492 6.33382 5.08079 6.46298 4.93243L4.9747 3.51642L6.87119 4.50568C7.01035 4.37278 7.15658 4.24568 7.30869 4.12384L6.10458 2.46075L7.80576 3.76154C7.96374 3.65653 8.12683 3.55702 8.29501 3.46368L7.42783 1.60236L8.86435 3.1795C9.03529 3.10309 9.21001 3.03196 9.38876 2.96759L8.90048 0.969543L10.0118 2.7713C10.191 2.7234 10.3737 2.68387 10.5587 2.64825L10.4776 0.580872L11.2169 2.54962C11.3994 2.52994 11.584 2.51501 11.7706 2.50763L12.1056 0.450012L12.4395 2.50763ZM12.0919 4.46368C13.7902 4.46375 15.2998 5.1035 16.2618 6.09552H7.92197C8.88426 5.10365 10.3937 4.46368 12.0919 4.46368ZM20.7384 6.09552H20.6593L20.7804 6.07697L20.7384 6.09552Z" fill="#E11C1B"/>
</g>
</g>
</svg>
