<svg width="24" height="18" viewBox="0 0 24 18" fill="none" xmlns="http://www.w3.org/2000/svg">
<mask id="mask0_395_53439" style="mask-type:luminance" maskUnits="userSpaceOnUse" x="0" y="0" width="24" height="18">
<rect width="24" height="18" fill="white"/>
</mask>
<g mask="url(#mask0_395_53439)">
<path fill-rule="evenodd" clip-rule="evenodd" d="M16.5 0H24V18H16.5V0Z" fill="#D9071E"/>
<path fill-rule="evenodd" clip-rule="evenodd" d="M0 0H9V18H0V0Z" fill="#006923"/>
<path fill-rule="evenodd" clip-rule="evenodd" d="M7.5 0H16.5V18H7.5V0Z" fill="white"/>
<path fill-rule="evenodd" clip-rule="evenodd" d="M10.5118 5.95966C10.443 6.0743 10.3885 6.17439 10.3478 6.25653C10.4824 6.29653 10.5747 6.48756 10.6769 6.58173C10.9501 6.83346 10.9175 7.11415 10.5421 7.41864C10.4695 7.47754 10.6361 7.6321 10.5714 7.82489C10.7505 7.83487 10.8782 7.86257 10.9962 7.93231C11.3277 8.12839 11.2965 8.48623 11.0441 8.76239C10.8652 8.95792 10.6264 9.11667 10.4015 9.19794C10.0271 9.33319 9.6261 9.28077 9.6261 8.80145C9.62592 8.7826 9.61572 8.74587 9.79211 8.74188C9.50679 8.73784 9.38905 7.95399 9.38489 7.86493C9.38487 7.26925 9.1331 7.26923 9.13293 7.26923V6.94891H9.5675C9.81425 6.94891 9.7462 7.24638 9.82434 7.41864C9.84322 7.38473 9.87393 8.40259 9.97571 8.31805C10.0137 8.28611 10.3031 8.65066 10.3478 8.49091C10.3811 8.37092 10.1865 7.89952 10.1866 7.69891C10.1873 7.2324 10.3337 6.96754 10.3478 6.94891C10.2852 6.92726 10.1917 6.67966 10.1495 6.67841C9.76417 6.67841 9.71243 6.5978 9.79211 6.25653C9.83472 6.0741 9.68871 5.87462 9.86926 5.57391L10.5118 5.95966ZM10.4796 8.26825L10.4874 8.26044C10.4885 8.25862 10.4892 8.25681 10.4904 8.25555C10.4866 8.25962 10.4834 8.26423 10.4796 8.26825Z" fill="#A8AC71"/>
<path fill-rule="evenodd" clip-rule="evenodd" d="M10.7879 5.9353C10.7879 5.9353 10.2729 6.3348 10.3692 6.76071C10.4655 7.18662 11.4806 6.76071 11.3579 6.348C11.2352 5.9353 10.7879 5.9353 10.7879 5.9353Z" fill="#FCCA3D"/>
<path fill-rule="evenodd" clip-rule="evenodd" d="M14.4498 9.30214C14.4498 9.30214 15.1435 7.24613 14.0408 6.18185C12.938 5.11758 11.6637 5.18879 11.6637 5.18879C11.6637 5.18879 11.2967 5.46145 11.6637 5.66939C12.0306 5.87734 11.8769 6.07672 11.8769 6.07672C11.8769 6.07672 11.2623 5.45269 10.8543 5.81727C10.4463 6.18185 11.2352 6.12637 11.1517 6.40088C11.0682 6.6754 10.7144 7.89419 11.2313 8.50952C11.7483 9.12486 10.7426 8.99132 10.9471 8.99132C11.1517 8.99132 11.8769 9.13455 11.8769 8.99132C11.8769 8.84809 12.129 9.54818 12.3448 9.54818C12.5605 9.54818 12.7271 9.30214 12.7271 9.30214C12.7271 9.30214 13.0295 9.54818 13.2138 9.54818C13.3981 9.54818 14.0408 9.38716 14.0408 9.38716L12.8262 8.36377C12.8262 8.36377 12.8994 7.91237 12.7271 7.81467C12.5548 7.71697 14.1084 8.6805 14.2301 8.99132C14.3517 9.30214 14.4498 9.30214 14.4498 9.30214Z" fill="#8F4620"/>
<path d="M8.2998 8.79493C8.2998 8.79493 8.41242 8.43602 8.53298 8.4111C8.63744 8.38951 8.85708 8.5831 8.85708 8.5831C9.24726 10.7505 10.1907 11.597 11.7562 11.597C13.34 11.597 14.3 10.9538 14.8601 8.95484C14.8601 8.95484 15.1579 8.65071 15.263 8.68452C15.3774 8.72132 15.5208 9.12369 15.5208 9.12369C14.8781 11.4169 13.6639 12.4379 11.7562 12.4379C9.83 12.4379 8.74782 11.2836 8.2998 8.79493Z" fill="#9FAB2F"/>
<path fill-rule="evenodd" clip-rule="evenodd" d="M10.0005 10.2419C10.0005 10.2419 12.2538 10.72 13.1431 10.72C14.0325 10.72 12.3628 11.4458 11.7113 11.4458C11.4263 11.4458 11.0828 11.273 10.6808 10.9275C10.6087 10.8656 10.6785 10.727 10.459 10.7251C10.1529 10.7225 9.77268 10.6507 9.80907 10.6069C9.84366 10.5653 10.289 10.5527 10.2461 10.5073C10.1753 10.4322 10.0005 10.2419 10.0005 10.2419Z" fill="#2FC2DC"/>
<rect x="11" y="10.575" width="1.5" height="0.803571" rx="0.166667" fill="#F9AA51"/>
<path d="M9.13159 9.10192C9.13159 9.10192 9.13159 8.82062 9.32208 8.67117C9.54044 8.49985 9.74556 8.67117 9.74556 8.67117C10.5446 9.81014 11.7396 10.1848 13.4109 9.79376C13.4109 9.79376 13.9106 9.95706 13.9357 10.0643C13.9676 10.2005 13.5818 10.524 13.5818 10.524C11.6281 10.9812 10.1178 10.5077 9.13159 9.10192Z" fill="#259485"/>
<path fill-rule="evenodd" clip-rule="evenodd" d="M12.4434 9.2627C12.4434 9.2627 11.5332 9.74185 11.8366 9.74185C12.14 9.74185 13.3275 9.98143 13.0964 9.74185C12.8654 9.50227 12.4434 9.2627 12.4434 9.2627Z" fill="#FCCA3D"/>
<path fill-rule="evenodd" clip-rule="evenodd" d="M11.3673 8.69071C11.3673 8.69071 11.1943 8.19116 10.8344 8.19116C10.4745 8.19116 10.5761 8.60094 10.403 8.60094C10.2299 8.60094 10.5643 8.88931 10.7133 8.88931C10.8623 8.88931 11.3673 8.69071 11.3673 8.69071Z" fill="#FCCA3D"/>
</g>
</svg>
