<svg width="24" height="18" viewBox="0 0 24 18" fill="none" xmlns="http://www.w3.org/2000/svg">
<mask id="mask0_395_55958" style="mask-type:luminance" maskUnits="userSpaceOnUse" x="0" y="0" width="24" height="18">
<rect width="24" height="18" fill="white"/>
</mask>
<g mask="url(#mask0_395_55958)">
<path fill-rule="evenodd" clip-rule="evenodd" d="M0 0V18H24V0H0Z" fill="#009933"/>
<mask id="mask1_395_55958" style="mask-type:luminance" maskUnits="userSpaceOnUse" x="0" y="0" width="24" height="18">
<path fill-rule="evenodd" clip-rule="evenodd" d="M0 0V18H24V0H0Z" fill="white"/>
</mask>
<g mask="url(#mask1_395_55958)">
<path fill-rule="evenodd" clip-rule="evenodd" d="M0 0V18L24 0H0Z" fill="#2F94F9"/>
<path d="M25.1719 -2.02551L26.9277 1.75476L27.2861 2.52429L26.584 3.00281L0.459961 20.7841L-0.447266 21.4022L-0.978516 20.4413L-3.12793 16.5468L-3.57227 15.7421L-2.80664 15.2313L23.71 -2.43567L24.6807 -3.08215L25.1719 -2.02551Z" fill="#E31C1C" stroke="#F5FBFF" stroke-width="2"/>
<path fill-rule="evenodd" clip-rule="evenodd" d="M5.87842 2.43445L7.32373 1.87097L6.76123 3.31726L8.29443 3.55164L7.0835 4.52234L8.29443 5.49304L6.76123 5.72839L7.32373 7.17371L5.87842 6.61121L5.64307 8.14441L4.67236 6.93347L3.70166 8.14441L3.46729 6.61121L2.021 7.17371L2.58447 5.72839L1.05029 5.49304L2.26123 4.52234L1.05029 3.55164L2.58447 3.31726L2.021 1.87097L3.46729 2.43445L3.70166 0.900269L4.67236 2.11121L5.64307 0.900269L5.87842 2.43445ZM4.67236 2.64734C3.63695 2.64742 2.79745 3.48693 2.79736 4.52234C2.79736 5.55782 3.6369 6.39726 4.67236 6.39734C5.7079 6.39734 6.54736 5.55787 6.54736 4.52234C6.54728 3.48687 5.70785 2.64734 4.67236 2.64734ZM4.67236 3.02234C5.50074 3.02234 6.17228 3.69398 6.17236 4.52234C6.17236 5.35077 5.50079 6.02234 4.67236 6.02234C3.84401 6.02226 3.17236 5.35072 3.17236 4.52234C3.17245 3.69403 3.84406 3.02242 4.67236 3.02234Z" fill="#FFCC00"/>
</g>
</g>
</svg>
