<svg width="24" height="18" viewBox="0 0 24 18" fill="none" xmlns="http://www.w3.org/2000/svg">
<mask id="mask0_395_54947" style="mask-type:luminance" maskUnits="userSpaceOnUse" x="0" y="0" width="24" height="18">
<rect width="24" height="18" fill="white"/>
</mask>
<g mask="url(#mask0_395_54947)">
<path fill-rule="evenodd" clip-rule="evenodd" d="M16.5 0H24V18H16.5V0Z" fill="#409100"/>
<path fill-rule="evenodd" clip-rule="evenodd" d="M0 0H7.5V18H0V0Z" fill="#409100"/>
<path fill-rule="evenodd" clip-rule="evenodd" d="M7.5 0H16.5V18H7.5V0Z" fill="white"/>
<path fill-rule="evenodd" clip-rule="evenodd" d="M11.9941 1.34961C11.9969 1.36007 12.2432 2.29378 12.2432 2.41992V3.08398C12.2429 3.44004 11.6761 3.55367 12.2432 3.55371C12.8109 3.55371 12.787 3.73535 12.4414 3.73535C12.0959 3.73536 12.5407 3.96288 13.1611 3.96289C13.7816 3.96289 12.6405 4.23145 12.2432 4.23145C11.8465 4.23151 12.6409 4.35546 13.1611 4.35547C13.6813 4.35547 12.6412 4.62169 12.4414 4.72949C12.3358 4.78654 12.6045 4.78239 12.8809 4.7666C12.7333 4.80994 12.5848 4.85273 12.4736 4.88672C12.0826 5.00627 12.4736 4.88623 12.5176 5.0293C12.5558 5.15434 12.9543 4.90727 13.2656 4.7373C13.3323 4.73163 13.3756 4.72971 13.3779 4.72949C13.3779 4.72949 13.6348 5.02682 13.6348 5.20801C13.6345 5.31745 13.2716 5.34715 12.8965 5.38184C12.9214 5.35437 12.839 5.36973 12.7168 5.40039C12.5341 5.41943 12.3618 5.44193 12.2432 5.48047C12.1267 5.51835 12.1478 5.532 12.2441 5.53516C12.2344 5.53814 12.2249 5.54116 12.2158 5.54395C11.946 5.62643 12.2159 5.54431 12.2598 5.6875C12.2936 5.79814 12.504 5.64932 12.6963 5.51758C12.9552 5.50084 13.2398 5.48048 13.3779 5.48047C13.7128 5.48047 13.0433 5.64157 12.7871 5.6416C12.531 5.6416 13.6349 5.77792 13.8389 5.89844C14.0425 6.01896 13.0786 5.89846 12.7871 5.89844C12.4958 5.89844 12.4415 6.13655 12.6406 6.13672H13.3779C13.6568 6.13672 13.9472 6.56348 13.8389 6.56348C13.7305 6.56356 13.2138 6.80273 12.6406 6.80273C12.0682 6.80273 13.3765 6.80335 13.6348 6.80273C13.8918 6.80212 14.6252 6.80346 14.626 7.05664C14.626 7.3102 14.2671 7.24651 13.9473 7.41992C13.6279 7.5933 14.9043 7.75 14.9043 7.75C14.9043 7.75 14.3982 7.90723 14.1523 7.90723C13.9073 7.90748 14.2679 8.13965 14.9043 8.13965C15.5395 8.13985 15.1136 8.58573 15.1123 8.6875C15.1123 8.78838 14.6265 8.85863 14.2676 9.17188C13.9088 9.48504 14.7773 9.17212 15.1123 9.17188C15.4468 9.17188 15.5901 9.18557 15.4814 9.34766C15.3725 9.50996 14.3982 9.7666 14.1523 9.7666H15.4814C15.8487 9.76685 15.3779 10.0574 14.9043 10.0576C14.4303 10.0576 14.2667 10.3242 14.1523 10.3242H15.1123C15.2042 10.3242 15.3138 10.0475 15.3779 10.0576C15.812 10.1258 15.6173 10.6727 15.3779 10.6729C15.1031 10.6729 14.2669 10.857 14.3984 11.043C14.53 11.2287 14.815 10.8564 15.4814 10.8564C16.1471 10.8565 15.5453 11.0429 15.3779 11.043C15.2107 11.043 14.5036 11.1782 14.2676 11.2949C14.0317 11.4117 15.3781 11.2949 15.9268 11.2949C16.4745 11.2951 14.626 11.7617 13.9473 11.7617C13.2685 11.7617 14.3985 11.9404 14.626 11.9404C14.8534 11.9404 15.6384 12.0957 16.2256 12.0957C16.8122 12.0958 15.6377 12.4824 15.1123 12.4824C14.587 12.4824 14.1526 12.4551 14.3984 12.7627C14.6444 13.0703 16.006 12.6151 16.4443 12.8701C16.8821 13.1251 14.6025 13.0635 14.1523 13.0635C13.7031 13.0636 14.6033 13.2305 15.3779 13.2305C16.1523 13.2305 16.3318 13.2193 16.332 13.457C16.332 13.6952 14.1974 13.5772 13.9473 13.5771C13.6974 13.5771 13.6651 13.8896 13.3779 13.8896C13.091 13.8895 13.161 13.4591 12.8154 13.6982C12.4711 13.9383 13.1591 16.3425 13.1611 16.3496H11.2959V14.0771C11.2959 14.0771 10.6882 13.8873 9.52148 14.0771C8.37426 14.2638 7.99951 13.7166 7.9873 13.6982C7.98772 13.6979 7.99492 13.6912 8.13379 13.5771C8.28073 13.4565 8.94609 13.5771 9.32617 13.5771C9.70624 13.5771 10.206 13.457 10.6553 13.457C11.1043 13.457 9.32648 12.8702 8.94629 13.2305C8.56628 13.5908 7.50046 13.0635 7.5 12.7627C7.5 12.462 8.34257 12.7626 8.68457 12.7627C9.02634 12.7627 8.34334 12.0962 7.9873 12.0957C7.63144 12.0957 8.34261 11.9405 8.68457 11.9404C9.02644 11.9404 9.32599 12.0957 9.52148 12.0957C9.71697 12.0957 8.5398 11.5898 8.34277 11.5898C8.14596 11.5898 8.68495 11.5898 9.32617 11.5898C9.96731 11.5899 9.68604 11.7617 10.2061 11.7617C10.7258 11.7616 10.4414 11.4766 10.4414 11.4766C10.4414 11.4766 8.68488 11.2948 8.34277 11.043C8.00091 10.7911 9.52122 11.0429 10.04 11.043C10.5587 11.043 8.94578 10.6729 8.68457 10.6729C8.42398 10.6729 9.32578 10.6729 9.87305 10.6729C10.4203 10.6729 11.0806 11.0429 11.7471 11.043C12.4136 11.043 9.52195 10.3237 9.08594 10.0576C8.65017 9.79157 9.87365 10.3242 10.4414 10.3242C11.0084 10.324 9.68607 9.76674 9.32617 9.7666C8.96641 9.7666 8.62219 9.60475 8.94629 9.45508C9.27084 9.30586 10.4415 9.7666 10.791 9.7666C11.1404 9.76673 11.2955 10.0575 11.7471 10.0576C12.1989 10.0576 10.7911 9.45521 10.2061 9.45508C9.62132 9.45508 9.5216 9.17206 9.87305 9.17188C10.2249 9.17188 9.08594 8.6875 9.08594 8.6875C9.08041 8.67577 8.92789 8.34473 9.32617 8.34473H9.87305C10.0606 8.34473 9.6859 7.75014 9.32617 7.75C8.96648 7.75 9.2799 7.57038 9.87305 7.57031C10.4664 7.57031 10.6557 7.90736 11.2959 8.13965C11.935 8.37135 11.4537 7.75124 11.2959 7.75C11.1393 7.75 9.53519 7.24844 9.52148 7.24414C9.52148 7.24414 9.68576 7.05691 9.52148 6.80273C9.35752 6.54872 10.3169 6.80273 10.4414 6.80273C10.5664 6.80294 11.0815 6.95144 11.5615 7.05664C12.0405 7.16143 9.92914 6.28125 9.68555 6.28125C9.4427 6.28115 10.2061 6.13672 10.6553 6.13672C11.1045 6.13674 11.0812 6.28125 11.5615 6.28125C12.0405 6.28094 10.6555 5.76675 10.2061 5.7666C9.75671 5.7666 10.0224 5.32324 10.2061 5.32324C10.3902 5.32335 11.2953 5.48042 11.7471 5.48047C12.1989 5.48047 10.7909 5.20754 10.6553 4.98242C10.5611 4.82572 10.8052 4.88662 11.1875 4.93848C11.3815 5.04019 11.5427 5.10681 11.5664 5.0293C11.5741 5.00412 11.5941 4.98919 11.6172 4.97754C11.6599 4.9793 11.7032 4.98242 11.7471 4.98242C12.0168 4.98242 11.8895 4.94187 11.6279 4.89258C11.6223 4.89085 11.6164 4.88856 11.6104 4.88672C11.2192 4.76713 10.3734 4.51139 10.6895 4.66895C10.7515 4.69984 10.8213 4.73807 10.8936 4.77832C10.6804 4.75007 10.5013 4.72955 10.4414 4.72949C10.2274 4.72949 10.0127 4.56445 10.4414 4.56445H11.2959C11.0302 4.56445 10.6553 4.56417 10.6553 4.35547C10.6561 4.14744 11.296 4.35547 11.5615 4.35547C11.8268 4.35547 11.8926 4.35554 11.7471 4.23145C11.6012 4.10755 11.0809 4.11523 10.791 4.11523C10.5011 4.11523 11.4052 3.96296 11.7471 3.96289C12.0887 3.96289 11.2957 3.96349 10.791 3.73535C10.2865 3.50711 11.2951 3.73528 11.7471 3.73535C12.1988 3.73535 11.5613 3.43079 11.0811 3.43066C10.6007 3.43066 11.0042 3.26787 11.2959 3.08398C11.5875 2.9006 11.7471 3.55343 11.7471 3.26758C11.747 2.98174 11.561 2.9598 11.7471 3.08398C11.9333 3.20822 11.7471 2.75781 11.7471 2.75781C11.7409 2.75369 11.5644 2.63389 11.7471 2.63379C11.9331 2.63379 11.688 2.42042 11.5615 2.41992C11.4374 2.41992 11.8772 2.2227 11.8926 2.21582L11.9941 1.34961ZM11.8135 11.9004C11.468 11.9004 10.7213 11.9057 11.0156 12.0166C11.3104 12.1276 11.8135 12.4707 11.8135 12.1855C11.8135 11.9004 12.1591 11.9004 11.8135 11.9004ZM12.457 11.7129C12.1115 11.7129 12.457 11.7129 12.457 11.998C12.4572 12.2829 12.9601 11.9401 13.2549 11.8291C13.549 11.7182 12.8026 11.7129 12.457 11.7129ZM11.627 11.1484C11.2814 11.1484 10.5343 11.1537 10.8291 11.2646C11.1239 11.3757 11.627 11.7187 11.627 11.4336C11.627 11.1486 11.9717 11.1484 11.627 11.1484ZM12.457 11.1484C12.1115 11.1484 12.457 11.1484 12.457 11.4336C12.457 11.7188 12.9601 11.3756 13.2549 11.2646C13.5492 11.1537 12.8025 11.1484 12.457 11.1484ZM11.6553 10.585C11.3731 10.585 10.7632 10.5882 11.0039 10.6465C11.2447 10.7049 11.6553 10.8841 11.6553 10.7344C11.6558 10.5851 11.9365 10.585 11.6553 10.585ZM13.709 9.96777C13.9497 9.90948 12.7108 10.209 12.4287 10.209C12.1469 10.209 12.4285 10.2088 12.4287 10.3584C12.4287 10.5082 13.4683 10.0261 13.709 9.96777ZM13.4004 8.90918C12.8166 8.90918 12.7064 9.10059 12.5469 9.10059L12.3438 9.13867C12.2711 9.20758 12.1555 9.3457 12.3877 9.3457C12.6975 9.34569 13.9838 8.90925 13.4004 8.90918ZM13.3936 8.42773C13.7102 8.26997 12.8638 8.52592 12.4727 8.64551C12.0826 8.76475 12.4723 8.64544 12.5166 8.78809C12.5604 8.93126 13.0769 8.58559 13.3936 8.42773ZM11.6104 8.26953C11.2192 8.14995 10.373 7.89406 10.6895 8.05176C11.0061 8.20952 11.5226 8.55534 11.5664 8.41211C11.6106 8.26927 12.0013 8.38905 11.6104 8.26953ZM13.3936 7.67578C13.7102 7.51802 12.8638 7.77397 12.4727 7.89355C12.0827 8.01278 12.4721 7.89367 12.5166 8.03613C12.5604 8.17931 13.0769 7.83362 13.3936 7.67578ZM11.6104 7.51758C11.2192 7.398 10.3731 7.14217 10.6895 7.2998C11.0057 7.45737 11.5215 7.803 11.5664 7.66113C11.6102 7.5179 12.0015 7.63716 11.6104 7.51758ZM13.3945 6.92383C13.7106 6.76628 12.8648 7.02202 12.4736 7.1416C12.0826 7.26116 12.4736 7.14111 12.5176 7.28418C12.5614 7.42741 13.0779 7.08159 13.3945 6.92383ZM11.6104 6.57812C11.2192 6.45854 10.3728 6.20259 10.6895 6.36035C11.0061 6.51812 11.5226 6.86393 11.5664 6.7207C11.6103 6.57759 12.0014 6.69768 11.6104 6.57812ZM12.8564 6.35254C13.0688 6.22675 12.4857 6.40187 12.2158 6.48438C11.946 6.56686 12.2159 6.48474 12.2598 6.62793C12.3036 6.77116 12.6433 6.47865 12.8564 6.35254Z" fill="#409100"/>
</g>
</svg>
