<svg width="24" height="18" viewBox="0 0 24 18" fill="none" xmlns="http://www.w3.org/2000/svg">
<mask id="mask0_395_53863" style="mask-type:luminance" maskUnits="userSpaceOnUse" x="0" y="0" width="24" height="18">
<rect width="24" height="18" fill="white"/>
</mask>
<g mask="url(#mask0_395_53863)">
<path fill-rule="evenodd" clip-rule="evenodd" d="M0 0V18H24V0H0Z" fill="#F7FCFF"/>
<mask id="mask1_395_53863" style="mask-type:luminance" maskUnits="userSpaceOnUse" x="0" y="0" width="24" height="18">
<path fill-rule="evenodd" clip-rule="evenodd" d="M0 0V18H24V0H0Z" fill="white"/>
</mask>
<g mask="url(#mask1_395_53863)">
<path fill-rule="evenodd" clip-rule="evenodd" d="M0 0V6H24V0H0Z" fill="#0080EC"/>
<path fill-rule="evenodd" clip-rule="evenodd" d="M0 12V18H24V12H0Z" fill="#0080EC"/>
<path fill-rule="evenodd" clip-rule="evenodd" d="M10.3799 10.2217C10.7183 10.6697 11.2362 10.9718 11.8281 11.0215V11.9941C10.8116 11.9367 9.93346 11.3724 9.43555 10.5508L10.3799 10.2217ZM14.6338 10.4346C14.1585 11.3054 13.2651 11.9137 12.2227 11.9902V11.0176C12.7777 10.9571 13.264 10.6734 13.5928 10.2578L14.6338 10.4346ZM12.8643 6.12695C14.0997 6.49808 15 7.64365 15 9C15 9.04978 14.9985 9.09926 14.9961 9.14844L14.0283 9.06641C14.029 9.04433 14.0322 9.02225 14.0322 9C14.0322 8.08795 13.431 7.31558 12.6035 7.05859L12.8643 6.12695ZM11.165 7.14844C10.4641 7.46514 9.97475 8.1666 9.96875 8.98438L9.00391 9.12793C9.00213 9.08549 9 9.04288 9 9C9 7.72644 9.79442 6.64041 10.9141 6.20508L11.165 7.14844ZM12 6C12.1411 6 12.2801 6.00946 12.416 6.02832L12.2676 6.9873C12.18 6.97577 12.0908 6.96777 12 6.96777C11.8677 6.96778 11.7385 6.98075 11.6133 7.00488L11.5439 6.0332C11.6926 6.01054 11.845 6 12 6Z" fill="#D0AB00"/>
<path fill-rule="evenodd" clip-rule="evenodd" d="M11.9809 6.71191L9.92822 10.26H14.0658L11.9809 6.71191Z" fill="#7CDFFF"/>
<mask id="mask2_395_53863" style="mask-type:luminance" maskUnits="userSpaceOnUse" x="9" y="6" width="6" height="5">
<path fill-rule="evenodd" clip-rule="evenodd" d="M11.9809 6.71191L9.92822 10.26H14.0658L11.9809 6.71191Z" fill="white"/>
</mask>
<g mask="url(#mask2_395_53863)">
<path d="M11.9996 7.62689C13.0589 7.62689 13.9174 8.48558 13.9175 9.54486C13.9175 10.6042 13.059 11.4628 11.9996 11.4628C10.9403 11.4627 10.0816 10.6042 10.0816 9.54486C10.0817 8.48565 10.9404 7.62701 11.9996 7.62689Z" stroke="#E31D1C"/>
<path d="M11.9996 7.62689C13.0589 7.62689 13.9174 8.48558 13.9175 9.54486C13.9175 10.6042 13.059 11.4628 11.9996 11.4628C10.9403 11.4627 10.0816 10.6042 10.0816 9.54486C10.0817 8.48565 10.9404 7.62701 11.9996 7.62689Z" stroke="#FFD018"/>
<path d="M11.9996 7.62689C13.0589 7.62689 13.9174 8.48558 13.9175 9.54486C13.9175 10.6042 13.059 11.4628 11.9996 11.4628C10.9403 11.4627 10.0816 10.6042 10.0816 9.54486C10.0817 8.48565 10.9404 7.62701 11.9996 7.62689Z" stroke="#4EDD00"/>
<path d="M11.9996 7.62689C13.0589 7.62689 13.9174 8.48558 13.9175 9.54486C13.9175 10.6042 13.059 11.4628 11.9996 11.4628C10.9403 11.4627 10.0816 10.6042 10.0816 9.54486C10.0817 8.48565 10.9404 7.62701 11.9996 7.62689Z" stroke="#3D58DB"/>
<rect x="9.7634" y="9.16327" width="4.69091" height="1.36364" fill="#3D58DB"/>
<path fill-rule="evenodd" clip-rule="evenodd" d="M10.0775 9.74278L11.0124 8.81304L11.2993 9.27791L11.4998 8.711L11.7224 9.13595L11.9562 8.81304L12.2588 9.13595L12.5361 8.711L12.7732 9.13595L13.0453 8.81304L13.681 9.48856L13.7954 9.74278L10.0775 9.93137V9.74278Z" fill="#97C923"/>
</g>
</g>
</g>
</svg>
