<svg width="24" height="18" viewBox="0 0 24 18" fill="none" xmlns="http://www.w3.org/2000/svg">
<mask id="mask0_395_54974" style="mask-type:luminance" maskUnits="userSpaceOnUse" x="0" y="0" width="24" height="18">
<rect width="24" height="18" fill="white"/>
</mask>
<g mask="url(#mask0_395_54974)">
<path fill-rule="evenodd" clip-rule="evenodd" d="M0 0V18H24V0H0Z" fill="#F7FCFF"/>
<mask id="mask1_395_54974" style="mask-type:luminance" maskUnits="userSpaceOnUse" x="0" y="0" width="24" height="18">
<path fill-rule="evenodd" clip-rule="evenodd" d="M0 0V18H24V0H0Z" fill="white"/>
</mask>
<g mask="url(#mask1_395_54974)">
<path fill-rule="evenodd" clip-rule="evenodd" d="M0 0V4.5H24V0H0Z" fill="#BF2714"/>
<path fill-rule="evenodd" clip-rule="evenodd" d="M0 13.5V18H24V13.5H0Z" fill="#BF2714"/>
<mask id="mask2_395_54974" style="mask-type:luminance" maskUnits="userSpaceOnUse" x="7" y="4" width="10" height="10">
<path fill-rule="evenodd" clip-rule="evenodd" d="M12 13.5C14.4853 13.5 16.5 11.4853 16.5 9C16.5 6.51472 14.4853 4.5 12 4.5C9.51472 4.5 7.5 6.51472 7.5 9C7.5 11.4853 9.51472 13.5 12 13.5Z" fill="white"/>
</mask>
<g mask="url(#mask2_395_54974)">
<path fill-rule="evenodd" clip-rule="evenodd" d="M7.95035 10.4451C7.89561 10.2736 8.08081 10.1247 8.23649 10.2151L8.38418 10.3008C8.43992 10.3331 8.50797 10.3361 8.56634 10.3088L9.2087 10.008C9.27336 9.97776 9.34935 9.98489 9.40725 10.0267L10.1312 10.5491L11.1432 10.0042C11.1963 9.97567 11.2596 9.97301 11.3149 9.99703L12.0504 10.3166C12.1029 10.3393 12.1626 10.3382 12.2141 10.3134L12.8724 9.99651C12.922 9.9726 12.9795 9.97063 13.0307 9.99108L13.8538 10.3199C13.9057 10.3406 13.9639 10.3383 14.014 10.3135L14.6408 10.0034C14.6972 9.97549 14.7636 9.97625 14.8193 10.0054L15.387 10.3027C15.4462 10.3337 15.517 10.3325 15.5752 10.2996L15.7691 10.1897C15.9208 10.1038 16.101 10.243 16.0562 10.4114L16.0196 10.5491H7.98358L7.95035 10.4451Z" fill="#5277B9"/>
<path fill-rule="evenodd" clip-rule="evenodd" d="M7.94648 11.3354C7.89334 11.1629 8.08119 11.0159 8.23588 11.1089L8.35781 11.1822C8.4148 11.2165 8.48526 11.2197 8.54509 11.1906L9.15209 10.8961C9.21829 10.8639 9.29689 10.8714 9.35582 10.9155L10.0488 11.4339L11.0199 10.892C11.0743 10.8616 11.1398 10.8588 11.1966 10.8844L11.8951 11.1989C11.9489 11.2231 12.0108 11.2219 12.0637 11.1955L12.6885 10.8838C12.7394 10.8584 12.7989 10.8563 12.8516 10.878L13.6349 11.2024C13.6883 11.2245 13.7486 11.222 13.8 11.1957L14.3939 10.8911C14.4517 10.8615 14.5204 10.8623 14.5775 10.8933L15.1135 11.1842C15.1741 11.2171 15.2475 11.2159 15.307 11.1809L15.4737 11.083C15.6245 10.9945 15.8073 11.1321 15.7639 11.3015L15.7299 11.4339H7.97682L7.94648 11.3354Z" fill="#5277B9"/>
<path fill-rule="evenodd" clip-rule="evenodd" d="M8.09406 11.9261C8.04092 11.7536 8.22877 11.6066 8.38346 11.6996L8.50539 11.7729C8.56239 11.8072 8.63284 11.8104 8.69268 11.7813L9.29967 11.4868C9.36588 11.4546 9.44448 11.4621 9.5034 11.5062L10.1964 12.0246L11.1675 11.4827C11.2219 11.4523 11.2874 11.4495 11.3442 11.4751L12.0426 11.7896C12.0965 11.8138 12.1584 11.8126 12.2112 11.7862L12.8361 11.4745C12.887 11.4491 12.9465 11.447 12.9991 11.4687L13.7825 11.7931C13.8359 11.8152 13.8962 11.8127 13.9475 11.7864L14.5415 11.4818C14.5993 11.4522 14.668 11.453 14.7251 11.484L15.2611 11.7749C15.3217 11.8078 15.3951 11.8065 15.4546 11.7716L15.6213 11.6737C15.7721 11.5852 15.9549 11.7228 15.9114 11.8922L15.8775 12.0246H8.12441L8.09406 11.9261Z" fill="#5277B9"/>
<path fill-rule="evenodd" clip-rule="evenodd" d="M8.97931 12.5162C8.92617 12.3437 9.11402 12.1966 9.26871 12.2897L9.39065 12.363C9.44764 12.3973 9.5181 12.4005 9.57793 12.3714L10.1849 12.0768C10.2511 12.0447 10.3297 12.0522 10.3887 12.0963L11.0816 12.6147L12.0528 12.0728C12.1071 12.0424 12.1726 12.0396 12.2294 12.0652L12.9279 12.3797C12.9817 12.4039 13.0436 12.4027 13.0965 12.3763L13.7213 12.0646C13.7723 12.0391 13.8318 12.037 13.8844 12.0588L14.6678 12.3832C14.7211 12.4053 14.7814 12.4028 14.8328 12.3765L15.4268 12.0719C15.4846 12.0423 15.5533 12.0431 15.6104 12.0741L16.1464 12.365C16.207 12.3979 16.2803 12.3966 16.3398 12.3617L16.5065 12.2638C16.6574 12.1753 16.8401 12.3129 16.7967 12.4823L16.7628 12.6147H9.00966L8.97931 12.5162Z" fill="#5277B9"/>
<path fill-rule="evenodd" clip-rule="evenodd" d="M7.79901 13.2543C7.74588 13.0818 7.93372 12.9348 8.08841 13.0278L8.21035 13.1012C8.26734 13.1355 8.3378 13.1386 8.39763 13.1096L9.00463 12.815C9.07083 12.7829 9.14943 12.7904 9.20836 12.8345L9.90134 13.3529L10.8725 12.8109C10.9268 12.7806 10.9924 12.7778 11.0491 12.8033L11.7476 13.1178C11.8014 13.1421 11.8633 13.1408 11.9162 13.1145L12.541 12.8027C12.592 12.7773 12.6515 12.7752 12.7041 12.797L13.4875 13.1213C13.5408 13.1434 13.6011 13.141 13.6525 13.1146L14.2465 12.8101C14.3043 12.7804 14.373 12.7812 14.4301 12.8122L14.9661 13.1031C15.0267 13.136 15.1001 13.1348 15.1595 13.0999L15.3262 13.002C15.4771 12.9134 15.6598 13.051 15.6164 13.2205L15.5825 13.3529H7.82936L7.79901 13.2543Z" fill="#5277B9"/>
<path d="M10.817 10.6038V11.3538C10.1837 11.3538 9.73571 10.9649 9.51787 10.2745L9.50049 10.1616V7.08472H10.2505V10.1013C10.3754 10.4616 10.5512 10.6038 10.817 10.6038Z" fill="#FF0000"/>
<path d="M12.894 10.6038V11.3538C13.5272 11.3538 13.9752 10.9649 14.1931 10.2745L14.2104 10.1616V7.08472H13.4604V10.1013C13.3355 10.4616 13.1597 10.6038 12.894 10.6038Z" fill="#FF0000"/>
<path fill-rule="evenodd" clip-rule="evenodd" d="M12.5436 5.18186C12.5436 5.18186 11.2994 4.85652 11.2994 5.68148C11.2994 6.50644 11.2994 8.27809 11.2994 8.27809L12.7499 8.70885V6.58649C12.7499 6.58649 12.0247 6.14335 12.0247 5.7968C12.0247 5.45025 12.5436 5.18186 12.5436 5.18186Z" fill="#FF0000"/>
<path d="M10.4502 9.66805L10.9232 9.0636" stroke="black"/>
<path d="M10.8816 9.6481L10.4283 9.04004" stroke="black"/>
<path d="M11.1289 9.66805L11.6019 9.0636" stroke="black"/>
<path d="M11.5603 9.6481L11.1071 9.04004" stroke="black"/>
<path d="M11.7781 9.66805L12.2511 9.0636" stroke="black"/>
<path d="M12.2095 9.6481L11.7562 9.04004" stroke="black"/>
<path d="M12.4568 9.66805L12.9298 9.0636" stroke="black"/>
<path d="M12.8882 9.6481L12.4349 9.04004" stroke="black"/>
<path d="M13.1355 9.66805L13.6085 9.0636" stroke="black"/>
<path d="M13.5669 9.6481L13.1136 9.04004" stroke="black"/>
<path fill-rule="evenodd" clip-rule="evenodd" d="M9.42761 9.02551V9.86926H7.86316L7.67859 8.9386L9.42761 9.02551ZM16.2264 9.86926H14.661V9.02551L16.41 8.9386L16.2264 9.86926ZM9.45691 8.13782V8.79407L7.90515 8.63586V7.54114L9.45691 8.13782ZM16.1844 8.63586L14.6327 8.79407V8.13782L16.1844 7.54114V8.63586ZM10.9794 8.33997L10.9091 8.61731L10.326 8.33997V7.81458L10.9794 8.33997ZM13.7635 8.33997L13.1805 8.61731L13.1093 8.33997L13.7635 7.81458V8.33997ZM11.0009 7.5343V8.08704L10.3466 7.5343V6.8175H9.64148L8.99402 6.13196L9.64148 5.36145L11.0009 7.5343ZM15.0946 6.13196L14.4481 6.8175H13.7421V7.5343L13.0887 8.08704V7.5343L14.4481 5.36145L15.0946 6.13196ZM9.48914 7.03821L9.39636 7.91125L8.21765 7.34583L8.50671 6.19934L9.48914 7.03821ZM15.8719 7.34583L14.6923 7.91125L14.5995 7.03821L15.5819 6.19934L15.8719 7.34583ZM11.0985 5.32141L10.9882 7.07532L10.0907 5.32141L10.9882 4.97571L11.0985 5.32141ZM13.9979 5.32141L13.1005 7.07532L12.9901 5.32141L13.1005 4.97571L13.9979 5.32141Z" fill="#FA8F21"/>
</g>
</g>
</g>
</svg>
