<svg width="24" height="18" viewBox="0 0 24 18" fill="none" xmlns="http://www.w3.org/2000/svg">
<mask id="mask0_395_50820" style="mask-type:luminance" maskUnits="userSpaceOnUse" x="0" y="0" width="24" height="18">
<rect width="24" height="18" fill="white"/>
</mask>
<g mask="url(#mask0_395_50820)">
<path fill-rule="evenodd" clip-rule="evenodd" d="M0 0V18H24V0H0Z" fill="#BF2714"/>
<mask id="mask1_395_50820" style="mask-type:luminance" maskUnits="userSpaceOnUse" x="0" y="0" width="24" height="18">
<path fill-rule="evenodd" clip-rule="evenodd" d="M0 0V18H24V0H0Z" fill="white"/>
</mask>
<g mask="url(#mask1_395_50820)">
<path fill-rule="evenodd" clip-rule="evenodd" d="M0 -1.5V9H24V-1.5H0Z" fill="#3D58DB"/>
</g>
<path fill-rule="evenodd" clip-rule="evenodd" d="M0 0V18L13.5 9L0 0Z" fill="#F7FCFF"/>
<mask id="mask2_395_50820" style="mask-type:luminance" maskUnits="userSpaceOnUse" x="0" y="0" width="14" height="18">
<path fill-rule="evenodd" clip-rule="evenodd" d="M0 0V18L13.5 9L0 0Z" fill="white"/>
</mask>
<g mask="url(#mask2_395_50820)">
<path fill-rule="evenodd" clip-rule="evenodd" d="M10.2037 8.1901L11.1606 8.55912L11.73 7.88912L11.7451 8.7852L12.6258 9.07165L11.6988 9.38631L11.7599 10.2097L11.1493 9.57897L10.1896 9.76152L10.7562 9.03503L10.2037 8.1901Z" fill="#FECA00"/>
<path fill-rule="evenodd" clip-rule="evenodd" d="M1.20374 12.6901L2.08331 13.079L2.72998 12.3891L2.66774 13.3051L3.62578 13.5717L2.62144 13.9062L2.75986 14.7097L2.0606 14.1355L1.18959 14.2615L1.67887 13.5549L1.20374 12.6901Z" fill="#FECA00"/>
<path fill-rule="evenodd" clip-rule="evenodd" d="M1.20374 3.6901L2.17705 4.04877L2.72998 3.38912L2.76148 4.27484L3.62578 4.57165L2.71518 4.87596L2.75986 5.70973L2.15434 5.10533L1.18959 5.26152L1.77261 4.52468L1.20374 3.6901Z" fill="#FECA00"/>
<path fill-rule="evenodd" clip-rule="evenodd" d="M6.09106 10.8996C7.1266 10.8996 7.96606 10.0602 7.96606 9.02463C7.96606 7.98909 7.1266 7.14963 6.09106 7.14963C5.05553 7.14963 4.21606 7.98909 4.21606 9.02463C4.21606 10.0602 5.05553 10.8996 6.09106 10.8996Z" fill="#FECA00"/>
<path fill-rule="evenodd" clip-rule="evenodd" d="M6.20013 10.3334C6.27274 10.3456 6.32923 10.4032 6.33894 10.4762L6.41305 11.7403C6.43363 11.8969 6.32303 12.0402 6.16646 12.0608C6.15251 12.0626 6.13824 12.064 6.12417 12.0637C5.96645 12.0609 5.8404 11.9306 5.84299 11.7729C5.84323 11.7587 5.84462 11.7441 5.84696 11.7301L6.0065 10.4706C6.02182 10.3792 6.10874 10.3181 6.20013 10.3334ZM4.96159 9.91588C5.03699 9.86215 5.14097 9.87939 5.1948 9.9547C5.23764 10.0148 5.23653 10.0957 5.19162 10.1542L4.36557 11.1596C4.26939 11.2847 4.08971 11.3079 3.96447 11.2118C3.95341 11.2033 3.94281 11.1942 3.93311 11.1841C3.82341 11.0705 3.8263 10.8891 3.93988 10.7793C3.95007 10.7695 3.96158 10.7605 3.9731 10.7523L4.96159 9.91588ZM5.84734 10.4506C5.89686 10.464 5.92274 10.5103 5.91053 10.5549L5.7684 11.0756C5.75202 11.1355 5.69217 11.1729 5.63125 11.1609C5.62718 11.1601 5.62273 11.1584 5.61879 11.1571C5.56831 11.1399 5.54088 11.085 5.55787 11.0344L5.73208 10.517C5.74822 10.4689 5.79768 10.4402 5.84734 10.4506ZM6.47968 10.5076C6.53452 10.498 6.58279 10.5279 6.59723 10.5765L6.75344 11.1004C6.76857 11.1516 6.73929 11.2058 6.68822 11.2211C6.68424 11.2223 6.67938 11.2235 6.67528 11.2242C6.61409 11.2338 6.55589 11.1939 6.54163 11.1336L6.41686 10.6079C6.40637 10.563 6.43472 10.5182 6.47968 10.5076ZM7.17877 9.88981C7.23876 9.8471 7.31977 9.84825 7.37825 9.89299L8.34991 10.7392C8.47517 10.8353 8.4991 11.0151 8.40311 11.1404C8.3945 11.1516 8.38461 11.1628 8.37442 11.1726C8.26078 11.2819 8.08024 11.2784 7.97066 11.165C7.96088 11.1548 7.95172 11.1442 7.94354 11.1327L7.13988 10.124C7.08606 10.0485 7.10332 9.94363 7.17877 9.88981ZM5.27035 10.2742C5.316 10.3062 5.32921 10.3623 5.30513 10.4069L5.04438 10.8879C5.01877 10.9347 4.95942 10.9521 4.91245 10.9266C4.9089 10.9247 4.90542 10.9224 4.90214 10.92C4.8518 10.8837 4.83851 10.8141 4.87115 10.7612L5.15489 10.3014C5.17929 10.2623 5.23109 10.25 5.27035 10.2742ZM7.01165 10.2217C7.05612 10.1963 7.10714 10.2104 7.13005 10.2506L7.39779 10.7196C7.42848 10.7734 7.41261 10.842 7.36135 10.8766C7.3579 10.8789 7.35381 10.8818 7.35009 10.8837C7.30219 10.9074 7.24387 10.8872 7.22006 10.8393L6.97622 10.3504C6.95362 10.305 6.96917 10.2495 7.01165 10.2217ZM4.73508 9.7532C4.7805 9.7306 4.83609 9.74521 4.86385 9.78765C4.88936 9.83206 4.87503 9.88306 4.83501 9.90605L4.36598 10.1738C4.312 10.2046 4.24256 10.1889 4.20798 10.1373C4.20572 10.1339 4.20372 10.1297 4.20191 10.1261C4.1784 10.0782 4.19845 10.0198 4.24625 9.99606L4.73508 9.7532ZM7.63086 9.78046L8.11091 10.0411C8.15794 10.0666 8.1751 10.125 8.14972 10.1721C8.14775 10.1757 8.14549 10.18 8.14306 10.1834C8.10663 10.2334 8.03796 10.247 7.98524 10.2144L7.5254 9.93069C7.48603 9.90638 7.47391 9.8546 7.49823 9.81524C7.53022 9.76957 7.58626 9.75629 7.63086 9.78046ZM4.47855 9.1939C4.5235 9.18342 4.56828 9.21177 4.5789 9.25672C4.58837 9.31148 4.55851 9.35985 4.50999 9.37427L3.98616 9.52951C3.93483 9.54477 3.88067 9.51562 3.86542 9.46429C3.86428 9.46041 3.86299 9.45632 3.86234 9.45233C3.85256 9.39124 3.89186 9.33309 3.95197 9.3186L4.47855 9.1939ZM3.35929 8.65259L4.61403 8.78243C4.70542 8.79773 4.7675 8.88474 4.75222 8.97613C4.74004 9.04889 4.68154 9.10524 4.6084 9.11488L3.34907 9.21869C3.19249 9.23929 3.0492 9.12868 3.02857 8.9721C3.02675 8.95814 3.02541 8.94387 3.02566 8.9298C3.02855 8.77208 3.15877 8.64601 3.31649 8.64862C3.33064 8.64887 3.34533 8.65026 3.35929 8.65259ZM8.2986 9.31712C8.35845 9.33357 8.39504 9.39329 8.38299 9.4542C8.38218 9.45827 8.38148 9.46279 8.38015 9.46673C8.36297 9.51722 8.30806 9.54461 8.25744 9.52765L7.73904 9.35337C7.69111 9.33716 7.66237 9.28765 7.6727 9.23811C7.68607 9.18863 7.73239 9.16282 7.77697 9.17492L8.2986 9.31712ZM8.95225 8.64917C9.10885 8.62855 9.25309 8.73924 9.27372 8.89583C9.27556 8.90983 9.2759 8.92395 9.27566 8.93806C9.2729 9.09599 9.14275 9.222 8.98483 9.21924C8.97082 9.21899 8.95683 9.21764 8.94301 9.21534L7.69563 9.07819C7.60434 9.06291 7.54228 8.97674 7.55737 8.88546C7.56955 8.81269 7.62805 8.75635 7.70119 8.74671L8.95225 8.64917ZM4.05208 8.33491L4.56951 8.50912C4.61761 8.52527 4.64626 8.57472 4.63585 8.62438C4.62239 8.6738 4.57615 8.69977 4.53158 8.68758L4.01092 8.54544C3.95108 8.52908 3.91368 8.46915 3.92556 8.40829C3.92636 8.40422 3.92707 8.3997 3.92839 8.39577C3.94545 8.34503 4.00133 8.31788 4.05208 8.33491ZM8.32342 8.33208C8.37445 8.31717 8.42777 8.34637 8.44319 8.39723C8.44438 8.40121 8.44554 8.40607 8.4462 8.41017C8.45594 8.47139 8.41695 8.52962 8.35658 8.54389L7.83097 8.66866C7.78594 8.6793 7.74028 8.65081 7.72964 8.60578C7.72015 8.55116 7.7503 8.50284 7.79856 8.48823L8.32342 8.33208ZM4.32331 7.64806L4.78315 7.9318C4.82248 7.95613 4.83463 8.00791 4.81032 8.04726C4.7783 8.09279 4.72224 8.10617 4.67769 8.08204L4.19763 7.82135C4.15055 7.79584 4.13338 7.7365 4.15889 7.68942C4.16081 7.68592 4.16315 7.68235 4.16548 7.67911C4.20189 7.62892 4.27053 7.61545 4.32331 7.64806ZM3.83779 6.70956C3.9514 6.59984 4.13288 6.60272 4.2426 6.71633C4.25243 6.72651 4.26142 6.73802 4.26964 6.74955L5.16971 7.73759C5.22341 7.81303 5.20525 7.91792 5.12984 7.97171C5.06982 8.01427 4.98877 8.01334 4.93036 7.96853L3.86237 7.14201C3.73721 7.04583 3.71404 6.86616 3.81014 6.74091C3.81865 6.72985 3.82776 6.71926 3.83779 6.70956ZM7.94361 7.6878C7.99756 7.65717 8.06603 7.67364 8.10056 7.72521C8.10278 7.72852 8.10492 7.73187 8.1067 7.73543C8.13052 7.78331 8.11115 7.84162 8.06334 7.86553L7.57346 8.1093C7.52809 8.13167 7.47342 8.11632 7.44574 8.07393C7.42038 8.0295 7.43446 7.97843 7.47457 7.95554L7.94361 7.6878ZM7.95513 6.78112C8.05121 6.6559 8.231 6.63201 8.3563 6.72792C8.36753 6.73654 8.37873 6.74643 8.38856 6.75661C8.49795 6.87021 8.49429 7.05074 8.38088 7.16038C8.37079 7.17012 8.36005 7.17933 8.34864 7.18749L7.348 7.94571C7.27255 7.99952 7.16769 7.98129 7.11388 7.90584C7.0712 7.8458 7.07221 7.76482 7.11706 7.70636L7.95513 6.78112ZM4.95852 6.97784C5.00629 6.95408 5.06461 6.97365 5.08863 7.0212L5.33239 7.51108C5.35498 7.55648 5.34035 7.61208 5.29793 7.63985C5.25344 7.66541 5.2015 7.65114 5.17857 7.61095L4.91083 7.14191C4.88003 7.08793 4.89667 7.01856 4.9483 6.98398C4.9516 6.98178 4.95498 6.97962 4.95852 6.97784ZM7.39617 6.93489C7.39976 6.93684 7.40315 6.9391 7.40647 6.94148C7.45674 6.97774 7.47083 7.04656 7.43851 7.09938L7.15379 7.55915C7.12949 7.59848 7.07866 7.61061 7.0393 7.58639C6.99365 7.55443 6.98039 7.49932 7.00446 7.45473L7.26521 6.9737C7.29082 6.92687 7.3492 6.90944 7.39617 6.93489ZM6.15782 5.85662C6.31571 5.85942 6.44175 5.98955 6.439 6.14745C6.43875 6.16146 6.43739 6.17546 6.43509 6.18927L6.30219 7.38996C6.28689 7.48136 6.19989 7.54345 6.10848 7.52815C6.03579 7.51594 5.9794 7.45741 5.96974 7.38433L5.86893 6.18003C5.84831 6.02343 5.95899 5.87919 6.11559 5.85856C6.12955 5.85674 6.14374 5.85638 6.15782 5.85662ZM6.68982 6.70439C6.74047 6.72139 6.76754 6.77643 6.75075 6.8271L6.57744 7.34557C6.56129 7.39368 6.51087 7.42226 6.4612 7.41185C6.41193 7.39831 6.38584 7.35209 6.39801 7.30758L6.54014 6.78692C6.55654 6.72698 6.61731 6.68956 6.67827 6.70163C6.68214 6.70241 6.68607 6.70314 6.68982 6.70439ZM5.63326 6.63834C5.69452 6.62843 5.75357 6.66769 5.76796 6.72803L5.89169 7.25455C5.90215 7.29941 5.87464 7.34424 5.82984 7.35497C5.77491 7.36466 5.72578 7.33463 5.71132 7.28599L5.55608 6.76216C5.54082 6.71083 5.56997 6.65667 5.6213 6.64142C5.62524 6.64025 5.6292 6.639 5.63326 6.63834Z" fill="#FECA00"/>
</g>
</g>
</svg>
