<svg width="24" height="18" viewBox="0 0 24 18" fill="none" xmlns="http://www.w3.org/2000/svg">
<mask id="mask0_395_55031" style="mask-type:luminance" maskUnits="userSpaceOnUse" x="0" y="0" width="24" height="18">
<rect width="24" height="18" fill="white"/>
</mask>
<g mask="url(#mask0_395_55031)">
<path fill-rule="evenodd" clip-rule="evenodd" d="M0 0V18H24V0H0Z" fill="#2E42A5"/>
<mask id="mask1_395_55031" style="mask-type:luminance" maskUnits="userSpaceOnUse" x="0" y="0" width="24" height="18">
<path fill-rule="evenodd" clip-rule="evenodd" d="M0 0V18H24V0H0Z" fill="white"/>
</mask>
<g mask="url(#mask1_395_55031)">
<rect width="13.5" height="10.5" fill="#2B409A"/>
<mask id="mask2_395_55031" style="mask-type:luminance" maskUnits="userSpaceOnUse" x="0" y="0" width="14" height="11">
<rect width="13.5" height="10.5" fill="white"/>
</mask>
<g mask="url(#mask2_395_55031)">
<path d="M-1.50317 9.74983L1.46754 11.0527L13.5674 1.41653L15.1344 -0.519623L11.9577 -0.955091L7.02241 3.19743L3.05003 5.99525L-1.50317 9.74983Z" fill="#F7FCFF"/>
<path d="M-1.09644 10.6627L0.417006 11.4188L14.5718 -0.699463H12.4467L-1.09644 10.6627Z" fill="#F50100"/>
<path d="M15.0033 9.74983L12.0326 11.0527L-0.0673141 1.41653L-1.6343 -0.519623L1.54245 -0.955091L6.47771 3.19743L10.4501 5.99525L15.0033 9.74983Z" fill="#F7FCFF"/>
<path d="M14.902 10.405L13.3885 11.1611L7.36129 5.97266L5.57434 5.39297L-1.78503 -0.51293H0.340017L7.69525 5.25279L9.64897 5.9479L14.902 10.405Z" fill="#F50100"/>
<mask id="path-10-outside-1_395_55031" maskUnits="userSpaceOnUse" x="-2" y="-2" width="17" height="14" fill="black">
<rect fill="white" x="-2" y="-2" width="17" height="14"/>
<path fill-rule="evenodd" clip-rule="evenodd" d="M7.48838 0H5.98838V4.5H0V6H5.98838V10.5H7.48838V6H13.5V4.5H7.48838V0Z"/>
</mask>
<path fill-rule="evenodd" clip-rule="evenodd" d="M7.48838 0H5.98838V4.5H0V6H5.98838V10.5H7.48838V6H13.5V4.5H7.48838V0Z" fill="#F50100"/>
<path d="M5.98838 0V-1.5H4.48838V0H5.98838ZM7.48838 0H8.98838V-1.5H7.48838V0ZM5.98838 4.5V6H7.48838V4.5H5.98838ZM0 4.5V3H-1.5V4.5H0ZM0 6H-1.5V7.5H0V6ZM5.98838 6H7.48838V4.5H5.98838V6ZM5.98838 10.5H4.48838V12H5.98838V10.5ZM7.48838 10.5V12H8.98838V10.5H7.48838ZM7.48838 6V4.5H5.98838V6H7.48838ZM13.5 6V7.5H15V6H13.5ZM13.5 4.5H15V3H13.5V4.5ZM7.48838 4.5H5.98838V6H7.48838V4.5ZM5.98838 0V1.5H7.48838V0V-1.5H5.98838V0ZM5.98838 4.5H7.48838V0H5.98838H4.48838V4.5H5.98838ZM0 4.5V6H5.98838V4.5V3H0V4.5ZM0 6H1.5V4.5H0H-1.5V6H0ZM5.98838 6V4.5H0V6V7.5H5.98838V6ZM5.98838 10.5H7.48838V6H5.98838H4.48838V10.5H5.98838ZM7.48838 10.5V9H5.98838V10.5V12H7.48838V10.5ZM7.48838 6H5.98838V10.5H7.48838H8.98838V6H7.48838ZM13.5 6V4.5H7.48838V6V7.5H13.5V6ZM13.5 4.5H12V6H13.5H15V4.5H13.5ZM7.48838 4.5V6H13.5V4.5V3H7.48838V4.5ZM7.48838 0H5.98838V4.5H7.48838H8.98838V0H7.48838Z" fill="#F7FCFF" mask="url(#path-10-outside-1_395_55031)"/>
</g>
<path fill-rule="evenodd" clip-rule="evenodd" d="M15.4621 8.06815C15.4621 8.06815 15.5362 8.88917 15.3738 9.35439C15.2114 9.8196 15.1289 10.0897 15.1289 9.79229C15.1289 9.49492 15.0149 9.25925 14.9232 9.25925C14.8315 9.25925 14.9039 9.55415 14.8117 9.55415C14.7195 9.55415 14.402 9.60485 14.402 9.43205C14.402 9.25925 14.3602 9.8956 14.5663 9.95251C14.7723 10.0094 14.4662 10.186 14.3296 10.1313C14.3296 10.1313 14.8917 10.314 15.1121 10.4697C15.1121 10.4697 15.7728 11.2946 16.3909 11.194C16.3909 11.194 15.5493 10.9035 15.6976 10.3484C15.8459 9.79335 16.3909 9.71306 16.3909 9.71306C16.3909 9.71306 16.6466 9.7986 16.639 10.0226C16.6313 10.2467 16.826 9.95251 16.826 9.95251C16.826 9.95251 16.8573 9.66943 16.8228 9.60035C16.7882 9.53127 17.4085 9.39756 17.4477 9.10605C17.4477 9.10605 16.8138 9.13503 16.7703 9.06015C16.7268 8.98526 16.9665 8.86786 16.8915 8.72187C16.8165 8.57589 15.6976 9.55415 15.6976 9.55415C15.6976 9.55415 16.084 8.88831 16.084 8.53075C16.084 8.17318 15.9858 7.92883 15.6976 7.92883C15.4094 7.92883 15.4621 8.06815 15.4621 8.06815Z" fill="#5EAA22"/>
<path fill-rule="evenodd" clip-rule="evenodd" d="M21.2891 8.26073C21.2882 8.26235 21.2903 8.26379 21.2916 8.26248C21.3391 8.21628 21.5913 7.99032 21.8031 8.17417C22.038 8.37808 21.6847 8.57678 21.6847 8.57678C21.6847 8.57678 21.8498 8.73695 22.0387 8.73695C22.2275 8.73695 22.2738 8.57678 22.2738 8.57678C22.2738 8.57678 22.2883 8.93323 22.9042 9.06821C22.9042 9.06821 23.124 8.75268 22.9042 8.57995C22.9042 8.57995 23.1638 8.52608 23.145 8.31582C23.145 8.31582 22.9315 8.38853 22.7793 8.22144C22.6271 8.05435 22.3305 7.97729 22.1149 8.01582C21.5748 7.82104 21.3277 8.19486 21.2891 8.26073Z" fill="#5EAA22"/>
<path fill-rule="evenodd" clip-rule="evenodd" d="M17.5529 10.0616C17.5529 10.0616 18.1898 11.2597 17.7917 11.5079C17.3936 11.7561 19.6845 11.5795 19.9004 11.5079C20.1162 11.4362 19.8568 11.0585 19.6174 10.9537C19.378 10.8488 18.3939 10.4999 18.1321 10.2368C17.8703 9.97363 18.0301 9.88026 18.241 9.62051C18.4519 9.36076 19.2325 9.25689 19.2325 9.0141C19.2325 8.77132 19.7276 7.77003 20.0737 7.69449C20.4198 7.61895 20.2328 7.49998 20.1533 7.49998C20.0737 7.49998 19.5952 7.99312 19.4139 7.90415C19.2325 7.81517 19.2103 7.82144 19.4139 7.60637C19.6174 7.39131 19.7706 7.14378 19.5016 7.32188C19.2325 7.49998 18.7889 7.78185 18.5756 7.78185C18.3623 7.78185 17.6032 7.6857 17.6974 7.90415C17.7917 8.12259 17.8316 8.50177 18.241 8.75794C18.6504 9.0141 18.4725 9.20156 18.1321 9.4484C17.7917 9.69524 17.5529 10.0616 17.5529 10.0616Z" fill="#96877D"/>
<path d="M21.779 8.47742L20.5654 10.9114C20.5654 10.9114 20.53 11.599 21.3976 11.1408C22.2653 10.6827 22.2311 10.3577 22.4813 10.3577C22.7314 10.3577 22.8109 10.2188 22.8109 10.2188L22.6442 10.0878C22.6442 10.0878 22.625 9.84879 22.7305 9.79511C22.7305 9.79511 22.5235 9.68104 22.4939 9.77627C22.4643 9.87151 22.3183 9.57707 22.4009 9.57707C22.4009 9.57707 22.2183 9.87267 22.1798 9.988C22.1798 9.988 21.9156 9.8806 21.9283 9.38296C21.9409 8.88532 21.779 8.47742 21.779 8.47742Z" fill="#FFD018"/>
<path d="M16.0024 8.09231C16.0024 8.09231 15.3844 8.23617 15.4511 8.38589C15.5177 8.53561 15.6159 8.38185 15.3134 8.56228C15.3134 8.56228 14.7818 8.97326 14.666 8.92872C14.5501 8.88419 14.748 9.03224 14.748 8.56228C14.748 8.09231 14.4394 8.47487 14.748 8.16114C15.0567 7.8474 15.1649 8.09231 15.3134 7.91179C15.4618 7.73126 15.3284 7.82726 15.731 7.82726C16.1337 7.82726 16.0024 8.09231 16.0024 8.09231Z" fill="#FFD018"/>
<path d="M17.8881 10.5107C17.8881 10.5107 16.1578 11.8705 15.812 11.972C15.4661 12.0735 16.5232 11.9441 16.7815 11.7646C17.0397 11.585 17.8881 10.5107 17.8881 10.5107Z" fill="#FFD018"/>
<path fill-rule="evenodd" clip-rule="evenodd" d="M21.3186 12.8966C21.3186 12.8966 21.4847 13.968 21.0511 13.8625C20.6176 13.7571 20.4376 13.7025 20.4376 13.7025C20.4376 13.7025 20.5967 14.2016 20.8239 14.2016C20.8239 14.2016 21.2111 14.9561 21.0621 15.1943C21.0621 15.1943 21.729 14.6532 21.6212 14.2231C21.5134 13.7929 21.7936 14.2939 21.7936 14.2939C21.7936 14.2939 22.039 14.4124 22.2164 14.28C22.3938 14.1477 22.2142 14.2065 22.0368 13.9545C21.8594 13.7025 21.9032 12.9949 21.3635 12.6281C20.8239 12.2614 20.6983 12.2731 20.6983 12.2731C20.6983 12.2731 20.3009 11.6233 20.539 11.6663C20.539 11.6663 22.2453 12.2512 22.2897 12.4012C22.334 12.5511 22.7865 12.5236 22.5603 12.095C22.334 11.6663 21.1143 11.408 20.9691 11.2871C20.8239 11.1662 20.959 10.7077 20.6983 10.6078C20.4376 10.5079 19.7254 9.79916 19.7259 9.4576C19.7263 9.11605 19.3911 8.95527 19.0998 8.95527C18.8084 8.95527 18.2597 8.87109 18.0279 8.87109C17.7961 8.87109 17.58 9.25885 17.804 9.25885C18.0279 9.25885 17.8366 9.98483 17.4617 10.1435C17.0867 10.3022 16.7968 10.5302 16.3687 10.5302C15.9405 10.5302 16.9748 10.8994 17.1396 10.7536C17.3045 10.6078 17.2504 10.3906 17.804 10.1435C18.3576 9.89641 18.8859 9.75013 18.819 9.94681C18.7521 10.1435 18.9228 10.4725 19.1836 10.3534C19.4445 10.2343 19.5281 9.93358 19.5281 10.1435C19.5281 10.3534 19.928 11.4315 20.2335 11.8523C20.539 12.2731 21.3186 12.8966 21.3186 12.8966Z" fill="#5EAA22"/>
<path d="M17.6786 8.95996C17.6786 8.95996 17.4757 9.28319 17.6786 9.28319C17.8815 9.28319 18.2078 9.28319 18.009 9.12158C17.8102 8.95996 17.6786 8.95996 17.6786 8.95996Z" fill="#FFD018"/>
<path d="M18.3562 8.95177C18.3562 8.95177 18.3572 9.16668 18.4978 9.16668C18.6384 9.16668 18.7635 9.38158 18.7635 9.16668C18.7635 8.95177 18.9589 9.02304 18.6575 8.95177C18.3562 8.8805 18.3562 8.95177 18.3562 8.95177Z" fill="#FFD018"/>
<path d="M19.2222 9.00098C19.2222 9.00098 19.0867 9.10303 19.1545 9.28507C19.2222 9.4671 19.3755 9.82734 19.1545 9.82734C18.9334 9.82734 18.7515 9.95722 18.9242 9.95722C19.0969 9.95722 19.4041 10.0871 19.4041 9.95722C19.4041 9.82734 19.5291 10.1714 19.5291 9.95722C19.5291 9.74307 19.5291 9.64074 19.5291 9.51514C19.5291 9.38954 19.6541 9.35344 19.5291 9.17721C19.4041 9.00098 19.2222 9.00098 19.2222 9.00098Z" fill="#FFD018"/>
<path d="M19.5356 10.2539C19.5356 10.2539 19.8181 11.143 19.9718 11.2576C20.1254 11.3722 20.1943 12.3378 20.2617 12.4428C20.3291 12.5477 21.2477 13.0776 21.2477 13.3619C21.2477 13.6463 21.5305 13.1434 21.3891 12.8619C21.2477 12.5803 20.8024 11.9808 20.4822 11.8501C20.1619 11.7194 20.2025 11.4028 20.1352 11.1803C20.0679 10.9578 20.5337 11.3601 20.1352 10.8554C19.7368 10.3508 19.7474 10.6216 19.8596 10.6216C19.9718 10.6216 20.0839 10.5619 19.9718 10.4835C19.8596 10.4051 19.5356 10.2539 19.5356 10.2539Z" fill="#FFD018"/>
<path d="M16.5406 12.0878C16.5406 12.0878 15.623 13.7082 15.4593 13.792C15.2955 13.8757 15.1735 13.8927 15.0898 13.792C15.0061 13.6912 14.9976 14.0623 15.0898 14.1639C15.1821 14.2655 15.4593 14.2655 15.6131 14.0851C15.6131 14.0851 15.6375 14.541 15.8771 14.8846C16.1167 15.2283 16.2166 15.1334 16.2166 15.3278C16.2166 15.5222 16.2732 15.7795 16.3464 15.7795C16.4195 15.7795 16.4761 16.3912 16.3464 16.3912C16.2166 16.3912 16.6471 16.4414 16.8348 16.2884C17.0225 16.1354 17.1027 16.0189 17.0626 16.0189C17.0225 16.0189 16.5406 15.7652 16.5406 15.5858C16.5406 15.4063 16.2166 15.2658 16.2166 14.9994C16.2166 14.733 16.0482 14.4162 16.0482 14.2901C16.0482 14.1639 16.1922 14.3387 16.3464 14.2193C16.5005 14.0998 16.5406 13.792 16.5406 13.792C16.5406 13.792 16.2978 13.9549 16.2166 13.8734C16.1354 13.792 15.8799 13.6312 16.0482 13.3553C16.2166 13.0795 16.5406 12.0878 16.5406 12.0878Z" fill="#FFD018"/>
<path fill-rule="evenodd" clip-rule="evenodd" d="M18.1307 6.97754C18.1307 6.97754 17.8021 7.12367 17.9117 7.34081C18.0212 7.55794 18.0606 7.65408 18.1307 7.60601C18.2009 7.55794 18.6931 7.46705 18.5828 7.22229C18.4726 6.97754 18.2416 6.97754 18.2416 6.97754H18.1307Z" fill="#5EAA22"/>
<path d="M19.2704 6.85969C19.2704 6.85969 18.8365 6.66766 18.9811 6.85969C19.1258 7.05172 19.3108 7.15295 19.444 7.15295C19.5771 7.15295 19.8537 7.11326 19.7154 7.03579C19.5771 6.95831 19.2704 6.85969 19.2704 6.85969Z" fill="#FFD018"/>
<path fill-rule="evenodd" clip-rule="evenodd" d="M14.9836 11.864C14.9862 11.8483 14.9675 11.8375 14.9562 11.8485C14.8578 11.9445 14.6081 12.2213 14.7194 12.463C14.8566 12.7611 14.9938 12.8647 14.9938 12.8647C14.9938 12.8647 15.0774 13.3211 15.2501 13.4453C15.2501 13.4453 15.4821 13.4334 15.4936 13.0782C15.4936 13.0782 15.8876 12.9626 16.0034 13.2086C16.0034 13.2086 15.927 13.2363 15.927 13.4453C15.927 13.6544 16.1053 13.8808 16.1053 13.8808C16.1053 13.8808 16.187 13.1598 16.5538 12.6949C16.9207 12.2301 17.0257 12.1383 17.0257 12.1383V11.6152C17.0257 11.6152 16.2666 12.2338 16.1053 12.748C16.1053 12.748 15.723 12.7608 15.5677 12.6949C15.4124 12.6291 15.7617 12.5211 15.5677 12.287C15.3738 12.053 15.4627 12.6166 15.2501 12.463C14.9284 12.3735 14.9603 12.0005 14.9836 11.864Z" fill="#5EAA22"/>
<path fill-rule="evenodd" clip-rule="evenodd" d="M16.6401 11.3965L20.5286 11.3965V13.7722C20.5286 13.7722 20.2116 15.7134 18.5182 16.6698C18.5182 16.6698 16.8779 15.7003 16.6401 13.7722V11.3965Z" fill="#5EAA22"/>
<mask id="mask3_395_55031" style="mask-type:luminance" maskUnits="userSpaceOnUse" x="16" y="11" width="5" height="6">
<path fill-rule="evenodd" clip-rule="evenodd" d="M16.6401 11.3965L20.5286 11.3965V13.7722C20.5286 13.7722 20.2116 15.7134 18.5182 16.6698C18.5182 16.6698 16.8779 15.7003 16.6401 13.7722V11.3965Z" fill="white"/>
</mask>
<g mask="url(#mask3_395_55031)">
<path fill-rule="evenodd" clip-rule="evenodd" d="M18.4889 11.2686L16.79 14.7941L19.094 12.7018L20.6797 15.33V11.2686L19.094 12.5684L18.4889 11.2686Z" fill="#58A5FF"/>
<path d="M18.4354 13.8111C18.4354 13.7411 18.4922 13.6843 18.5622 13.6843C18.6322 13.6843 18.6889 13.7411 18.6889 13.8111V16.0748C18.6889 16.1448 18.6322 16.2016 18.5622 16.2016C18.4922 16.2016 18.4354 16.1448 18.4354 16.0748L18.4354 13.8111Z" fill="#FFD018"/>
<path d="M17.9945 14.3693C17.9258 14.3693 17.87 14.3136 17.87 14.2448C17.87 14.176 17.9258 14.1202 17.9945 14.1202H19.14C19.2087 14.1202 19.2645 14.176 19.2645 14.2448C19.2645 14.3136 19.2087 14.3693 19.14 14.3693H17.9945Z" fill="#FFD018"/>
<path d="M18.612 16.117L18.5138 16.1967C18.3692 16.021 18.2374 15.9366 18.1209 15.9366C17.9492 15.9366 17.8097 15.7934 17.6959 15.5219L17.8129 15.4735C17.9092 15.7032 18.0139 15.8106 18.1209 15.8106C18.2828 15.8106 18.4457 15.915 18.612 16.117Z" fill="#FFD018"/>
<path fill-rule="evenodd" clip-rule="evenodd" d="M17.5833 15.0904C17.5822 15.0894 17.5806 15.0902 17.5806 15.0916V15.7021C17.5806 15.7032 17.5817 15.704 17.5828 15.7036L18.042 15.5145C18.0431 15.5141 18.0433 15.5127 18.0425 15.5118L17.5833 15.0904Z" fill="#FFD018"/>
<path d="M18.5081 16.117L18.6063 16.1967C18.7509 16.021 18.8827 15.9366 18.9993 15.9366C19.1709 15.9366 19.3104 15.7934 19.4242 15.5219L19.3072 15.4735C19.2109 15.7032 19.1062 15.8106 18.9993 15.8106C18.8373 15.8106 18.6744 15.915 18.5081 16.117Z" fill="#FFD018"/>
<path fill-rule="evenodd" clip-rule="evenodd" d="M19.5368 15.0904C19.5379 15.0894 19.5396 15.0902 19.5396 15.0916V15.7021C19.5396 15.7032 19.5384 15.704 19.5373 15.7036L19.0781 15.5145C19.077 15.5141 19.0768 15.5127 19.0777 15.5118L19.5368 15.0904Z" fill="#FFD018"/>
<rect x="18.3065" y="12.7948" width="0.507042" height="0.755496" fill="white"/>
</g>
</g>
</g>
</svg>
