<svg width="24" height="18" viewBox="0 0 24 18" fill="none" xmlns="http://www.w3.org/2000/svg">
<mask id="mask0_395_52419" style="mask-type:luminance" maskUnits="userSpaceOnUse" x="0" y="0" width="24" height="18">
<rect width="24" height="18" fill="white"/>
</mask>
<g mask="url(#mask0_395_52419)">
<path fill-rule="evenodd" clip-rule="evenodd" d="M6 0H24V18H6V0Z" fill="#EF0000"/>
<path fill-rule="evenodd" clip-rule="evenodd" d="M0 0H9V18H0V0Z" fill="#2F8D00"/>
<mask id="mask1_395_52419" style="mask-type:luminance" maskUnits="userSpaceOnUse" x="3" y="3" width="12" height="12">
<path fill-rule="evenodd" clip-rule="evenodd" d="M8.92857 14.8554C5.73321 14.8554 3.14285 12.2339 3.14285 9.00001C3.14285 5.76615 5.73321 3.14459 8.92857 3.14459C12.1239 3.14459 14.7143 5.76615 14.7143 9.00001C14.7143 12.2339 12.1239 14.8554 8.92857 14.8554Z" fill="white"/>
</mask>
<g mask="url(#mask1_395_52419)">
<path fill-rule="evenodd" clip-rule="evenodd" d="M8.57141 3H9.32141V5.0241H8.57141V3Z" fill="#FFE017"/>
<path fill-rule="evenodd" clip-rule="evenodd" d="M8.57156 13.1202H9.32156V14.9997H8.57156V13.1202Z" fill="#FFE017"/>
<path d="M3.23584 9.30284L3.02615 8.76487C5.34004 7.84111 7.08646 7.24537 8.27146 6.97689C10.01 6.58299 11.9204 6.29155 14.0025 6.10236L14.0536 6.67835C11.9953 6.86537 10.1095 7.15308 8.39629 7.54124C7.24658 7.80173 5.52441 8.38918 3.23584 9.30284Z" fill="#FFE017"/>
<path d="M14.3555 5.74837L14.1854 6.30045C12.4366 5.74836 11.012 5.51105 9.917 5.58455L9.87918 5.00751C11.0549 4.92859 12.5452 5.17686 14.3555 5.74837Z" fill="#FFE017"/>
<path d="M14.9607 8.83487L14.6375 9.31175C13.746 8.6928 12.6476 8.3819 11.335 8.3819V7.80359C12.758 7.80359 13.9691 8.1464 14.9607 8.83487Z" fill="#FFE017"/>
<path d="M14.4765 9.00793L14.6243 9.56658C12.7023 10.0872 10.8978 10.3826 9.21073 10.4521C7.51201 10.5221 5.53212 10.2257 3.26935 9.56509L3.42774 9.00943C5.63551 9.65401 7.55599 9.94154 9.18747 9.87427C10.8306 9.80653 12.5937 9.51794 14.4765 9.00793Z" fill="#FFE017"/>
<path d="M14.2588 11.7269L13.3555 12.6529C11.639 10.938 10.1278 9.71178 8.83125 8.975C7.51252 8.22564 5.79277 7.46471 3.67468 6.69528L4.10904 5.47058C6.2896 6.2627 8.0726 7.05162 9.46072 7.84041C10.871 8.6418 12.4673 9.93705 14.2588 11.7269Z" fill="#FFE017"/>
<path d="M4.09373 12.2515L3.75183 11.7881C3.79958 11.752 3.88477 11.6918 4.00214 11.6156C4.19594 11.4897 4.41114 11.364 4.64269 11.2465C5.28042 10.923 5.92012 10.721 6.53026 10.7025C6.5601 10.7016 6.58981 10.7011 6.6194 10.7011V11.2794C6.59556 11.2794 6.57157 11.2798 6.54742 11.2805C6.03324 11.2962 5.46859 11.4744 4.89874 11.7635C4.68634 11.8713 4.48844 11.9869 4.31083 12.1022C4.24901 12.1424 4.19431 12.1795 4.14743 12.2127C4.12011 12.232 4.10197 12.2452 4.09373 12.2515Z" fill="#FFE017"/>
<path d="M4.35916 12.4516L4.50306 11.8919C6.40815 12.3936 7.87687 12.6437 8.90188 12.6437C9.92307 12.6437 11.443 12.3488 13.4518 11.7569L13.6116 12.3122C11.5552 12.918 9.98862 13.222 8.90188 13.222C7.81897 13.222 6.30717 12.9646 4.35916 12.4516Z" fill="#FFE017"/>
<path d="M3.61682 7.27081L4.52213 6.34686L5.84762 7.67709L4.94231 8.60104L3.61682 7.27081Z" fill="#FFE017"/>
<path d="M11.127 11.8858L11.8003 10.7773L13.9031 12.0857L13.2297 13.1942L11.127 11.8858Z" fill="#FFE017"/>
</g>
<path fill-rule="evenodd" clip-rule="evenodd" d="M8.92899 3.14459C12.1242 3.14482 14.7141 5.76634 14.7141 9.00006C14.7141 12.2338 12.1241 14.8553 8.92899 14.8555C5.73364 14.8555 3.14288 12.2339 3.14285 9.00006C3.14285 5.7662 5.73362 3.14459 8.92899 3.14459ZM8.9993 4.01178C6.2381 4.01205 3.9993 6.2778 3.9993 9.07233C3.99946 11.8667 6.2382 14.1316 8.9993 14.1319C11.7606 14.1319 13.9991 11.8669 13.9993 9.07233C13.9993 6.27763 11.7607 4.01178 8.9993 4.01178Z" fill="#F9E813"/>
<path d="M5.74249 5.38892V10.0844C6.05159 11.943 7.09294 12.8723 8.86653 12.8723C10.6401 12.8723 11.6815 11.943 11.9906 10.0844V5.38892H5.74249Z" fill="white"/>
<path d="M5.31393 4.9552H12.4192V10.1207L12.4132 10.1565C12.07 12.2202 10.8532 13.306 8.86655 13.306C6.87988 13.306 5.66311 12.2202 5.31988 10.1565L5.31393 10.1207V4.9552Z" fill="#C51918"/>
<path d="M6.93893 6.53333H10.7937V9.864C10.7937 9.864 10.5077 11.584 8.86633 11.584C7.22499 11.584 6.93893 9.864 6.93893 9.864V6.53333Z" fill="#F7FCFF"/>
<path fill-rule="evenodd" clip-rule="evenodd" d="M6.00003 5.3136H6.5422V5.67504H6.00003V5.3136Z" fill="#F9E813"/>
<path fill-rule="evenodd" clip-rule="evenodd" d="M5.71432 5.45819H6.71432V5.63891H5.71432V5.45819Z" fill="#060101"/>
<path fill-rule="evenodd" clip-rule="evenodd" d="M5.71432 5.60278H6.25649V5.78351H5.71432V5.60278Z" fill="#F9E813"/>
<path fill-rule="evenodd" clip-rule="evenodd" d="M6.28577 5.60278H6.82794V5.78351H6.28577V5.60278Z" fill="#F9E813"/>
<path fill-rule="evenodd" clip-rule="evenodd" d="M5.71432 6.0365H6.07577V6.57867H5.71432V6.0365Z" fill="#F9E813"/>
<path fill-rule="evenodd" clip-rule="evenodd" d="M6.42862 6.0365H6.79007V6.57867H6.42862V6.0365Z" fill="#F9E813"/>
<path fill-rule="evenodd" clip-rule="evenodd" d="M6.14288 6.0365H6.32361V6.57867H6.14288V6.0365Z" fill="#F9E813"/>
<path fill-rule="evenodd" clip-rule="evenodd" d="M5.71432 5.89191H6.71432V6.07263H5.71432V5.89191Z" fill="#060101"/>
<path fill-rule="evenodd" clip-rule="evenodd" d="M5.71432 6.32532H6.71432V6.50604H5.71432V6.32532Z" fill="#060101"/>
<path fill-rule="evenodd" clip-rule="evenodd" d="M5.85718 5.74731H6.0379V5.92804H5.85718V5.74731Z" fill="#F9E813"/>
<path fill-rule="evenodd" clip-rule="evenodd" d="M6.42862 5.74731H6.60934V5.92804H6.42862V5.74731Z" fill="#F9E813"/>
<path fill-rule="evenodd" clip-rule="evenodd" d="M6.14288 5.60278H6.32361V5.96423H6.14288V5.60278Z" fill="#F9E813"/>
<path fill-rule="evenodd" clip-rule="evenodd" d="M8.71432 5.3136H9.25649V5.67504H8.71432V5.3136Z" fill="#F9E813"/>
<path fill-rule="evenodd" clip-rule="evenodd" d="M8.42862 5.45819H9.42862V5.63891H8.42862V5.45819Z" fill="#060101"/>
<path fill-rule="evenodd" clip-rule="evenodd" d="M8.42862 5.60278H8.97079V5.78351H8.42862V5.60278Z" fill="#F9E813"/>
<path fill-rule="evenodd" clip-rule="evenodd" d="M9.00006 5.60278H9.54223V5.78351H9.00006V5.60278Z" fill="#F9E813"/>
<path fill-rule="evenodd" clip-rule="evenodd" d="M8.42862 6.0365H8.79007V6.57867H8.42862V6.0365Z" fill="#F9E813"/>
<path fill-rule="evenodd" clip-rule="evenodd" d="M9.14291 6.0365H9.50436V6.57867H9.14291V6.0365Z" fill="#F9E813"/>
<path fill-rule="evenodd" clip-rule="evenodd" d="M8.85718 6.0365H9.0379V6.57867H8.85718V6.0365Z" fill="#F9E813"/>
<path fill-rule="evenodd" clip-rule="evenodd" d="M8.42862 5.89191H9.42862V6.07263H8.42862V5.89191Z" fill="#060101"/>
<path fill-rule="evenodd" clip-rule="evenodd" d="M8.42862 6.32532H9.42862V6.50604H8.42862V6.32532Z" fill="#060101"/>
<path fill-rule="evenodd" clip-rule="evenodd" d="M8.57147 5.74731H8.7522V5.92804H8.57147V5.74731Z" fill="#F9E813"/>
<path fill-rule="evenodd" clip-rule="evenodd" d="M9.14291 5.74731H9.32364V5.92804H9.14291V5.74731Z" fill="#F9E813"/>
<path fill-rule="evenodd" clip-rule="evenodd" d="M8.85718 5.60278H9.0379V5.96423H8.85718V5.60278Z" fill="#F9E813"/>
<path fill-rule="evenodd" clip-rule="evenodd" d="M11.2857 5.3136H11.8279V5.67504H11.2857V5.3136Z" fill="#F9E813"/>
<path fill-rule="evenodd" clip-rule="evenodd" d="M11 5.45819H12V5.63891H11V5.45819Z" fill="#060101"/>
<path fill-rule="evenodd" clip-rule="evenodd" d="M11 5.60278H11.5422V5.78351H11V5.60278Z" fill="#F9E813"/>
<path fill-rule="evenodd" clip-rule="evenodd" d="M11.5715 5.60278H12.1136V5.78351H11.5715V5.60278Z" fill="#F9E813"/>
<path fill-rule="evenodd" clip-rule="evenodd" d="M11 6.0365H11.3615V6.57867H11V6.0365Z" fill="#F9E813"/>
<path fill-rule="evenodd" clip-rule="evenodd" d="M11.7143 6.0365H12.0758V6.57867H11.7143V6.0365Z" fill="#F9E813"/>
<path fill-rule="evenodd" clip-rule="evenodd" d="M11.4286 6.0365H11.6093V6.57867H11.4286V6.0365Z" fill="#F9E813"/>
<path fill-rule="evenodd" clip-rule="evenodd" d="M11 5.89191H12V6.07263H11V5.89191Z" fill="#060101"/>
<path fill-rule="evenodd" clip-rule="evenodd" d="M11 6.32532H12V6.50604H11V6.32532Z" fill="#060101"/>
<path fill-rule="evenodd" clip-rule="evenodd" d="M11.1429 5.74731H11.3236V5.92804H11.1429V5.74731Z" fill="#F9E813"/>
<path fill-rule="evenodd" clip-rule="evenodd" d="M11.7143 5.74731H11.895V5.92804H11.7143V5.74731Z" fill="#F9E813"/>
<path fill-rule="evenodd" clip-rule="evenodd" d="M11.4286 5.60278H11.6093V5.96423H11.4286V5.60278Z" fill="#F9E813"/>
<path fill-rule="evenodd" clip-rule="evenodd" d="M11.2857 7.91602H11.8279V8.27746H11.2857V7.91602Z" fill="#F9E813"/>
<path fill-rule="evenodd" clip-rule="evenodd" d="M11 8.06061H12V8.24133H11V8.06061Z" fill="#060101"/>
<path fill-rule="evenodd" clip-rule="evenodd" d="M11 8.2052H11.5422V8.38592H11V8.2052Z" fill="#F9E813"/>
<path fill-rule="evenodd" clip-rule="evenodd" d="M11.5715 8.2052H12.1136V8.38592H11.5715V8.2052Z" fill="#F9E813"/>
<path fill-rule="evenodd" clip-rule="evenodd" d="M11 8.63892H11.3615V9.18108H11V8.63892Z" fill="#F9E813"/>
<path fill-rule="evenodd" clip-rule="evenodd" d="M11.7143 8.63892H12.0758V9.18108H11.7143V8.63892Z" fill="#F9E813"/>
<path fill-rule="evenodd" clip-rule="evenodd" d="M11.4286 8.63892H11.6093V9.18108H11.4286V8.63892Z" fill="#F9E813"/>
<path fill-rule="evenodd" clip-rule="evenodd" d="M11 8.49432H12V8.67505H11V8.49432Z" fill="#060101"/>
<path fill-rule="evenodd" clip-rule="evenodd" d="M11 8.92773H12V9.10846H11V8.92773Z" fill="#060101"/>
<path fill-rule="evenodd" clip-rule="evenodd" d="M11.1429 8.34973H11.3236V8.53045H11.1429V8.34973Z" fill="#F9E813"/>
<path fill-rule="evenodd" clip-rule="evenodd" d="M11.7143 8.34973H11.895V8.53045H11.7143V8.34973Z" fill="#F9E813"/>
<path fill-rule="evenodd" clip-rule="evenodd" d="M11.4286 8.2052H11.6093V8.56665H11.4286V8.2052Z" fill="#F9E813"/>
<path fill-rule="evenodd" clip-rule="evenodd" d="M6.00003 7.91602H6.5422V8.27746H6.00003V7.91602Z" fill="#F9E813"/>
<path fill-rule="evenodd" clip-rule="evenodd" d="M5.71432 8.06061H6.71432V8.24133H5.71432V8.06061Z" fill="#060101"/>
<path fill-rule="evenodd" clip-rule="evenodd" d="M5.71432 8.2052H6.25649V8.38592H5.71432V8.2052Z" fill="#F9E813"/>
<path fill-rule="evenodd" clip-rule="evenodd" d="M6.28577 8.2052H6.82794V8.38592H6.28577V8.2052Z" fill="#F9E813"/>
<path fill-rule="evenodd" clip-rule="evenodd" d="M5.71432 8.63892H6.07577V9.18108H5.71432V8.63892Z" fill="#F9E813"/>
<path fill-rule="evenodd" clip-rule="evenodd" d="M6.42862 8.63892H6.79007V9.18108H6.42862V8.63892Z" fill="#F9E813"/>
<path fill-rule="evenodd" clip-rule="evenodd" d="M6.14288 8.63892H6.32361V9.18108H6.14288V8.63892Z" fill="#F9E813"/>
<path fill-rule="evenodd" clip-rule="evenodd" d="M5.71432 8.49432H6.71432V8.67505H5.71432V8.49432Z" fill="#060101"/>
<path fill-rule="evenodd" clip-rule="evenodd" d="M5.71432 8.92773H6.71432V9.10846H5.71432V8.92773Z" fill="#060101"/>
<path fill-rule="evenodd" clip-rule="evenodd" d="M5.85718 8.34973H6.0379V8.53045H5.85718V8.34973Z" fill="#F9E813"/>
<path fill-rule="evenodd" clip-rule="evenodd" d="M6.42862 8.34973H6.60934V8.53045H6.42862V8.34973Z" fill="#F9E813"/>
<path fill-rule="evenodd" clip-rule="evenodd" d="M6.14288 8.2052H6.32361V8.56665H6.14288V8.2052Z" fill="#F9E813"/>
<path fill-rule="evenodd" clip-rule="evenodd" d="M6.34781 11.179L6.69631 10.7637L6.97319 10.996L6.62469 11.4113L6.34781 11.179Z" fill="#F9E813"/>
<path fill-rule="evenodd" clip-rule="evenodd" d="M6.27554 11.4905L6.91833 10.7245L7.05677 10.8407L6.41399 11.6067L6.27554 11.4905Z" fill="#060101"/>
<path fill-rule="evenodd" clip-rule="evenodd" d="M6.38589 11.5833L6.73439 11.168L6.87284 11.2842L6.52434 11.6995L6.38589 11.5833Z" fill="#F9E813"/>
<path fill-rule="evenodd" clip-rule="evenodd" d="M6.75308 11.1458L7.10158 10.7305L7.24002 10.8467L6.89152 11.262L6.75308 11.1458Z" fill="#F9E813"/>
<path fill-rule="evenodd" clip-rule="evenodd" d="M6.71793 11.8626L6.95026 11.5857L7.36558 11.9342L7.13325 12.2111L6.71793 11.8626Z" fill="#F9E813"/>
<path fill-rule="evenodd" clip-rule="evenodd" d="M7.17691 11.3157L7.40924 11.0389L7.82457 11.3874L7.59224 11.6642L7.17691 11.3157Z" fill="#F9E813"/>
<path fill-rule="evenodd" clip-rule="evenodd" d="M6.99332 11.5345L7.10948 11.396L7.52481 11.7445L7.40864 11.883L6.99332 11.5345Z" fill="#F9E813"/>
<path fill-rule="evenodd" clip-rule="evenodd" d="M6.60709 11.7698L7.24987 11.0038L7.38832 11.12L6.74553 11.886L6.60709 11.7698Z" fill="#060101"/>
<path fill-rule="evenodd" clip-rule="evenodd" d="M6.94009 12.0482L7.58288 11.2821L7.72132 11.3983L7.07854 12.1643L6.94009 12.0482Z" fill="#060101"/>
<path fill-rule="evenodd" clip-rule="evenodd" d="M6.58853 11.5667L6.7047 11.4283L6.84314 11.5444L6.72697 11.6829L6.58853 11.5667Z" fill="#F9E813"/>
<path fill-rule="evenodd" clip-rule="evenodd" d="M6.95621 11.1292L7.07237 10.9908L7.21082 11.1069L7.09465 11.2454L6.95621 11.1292Z" fill="#F9E813"/>
<path fill-rule="evenodd" clip-rule="evenodd" d="M6.66177 11.2552L6.77794 11.1167L7.05482 11.3491L6.93866 11.4875L6.66177 11.2552Z" fill="#F9E813"/>
<path fill-rule="evenodd" clip-rule="evenodd" d="M11.2341 10.8495L11.5826 11.2649L11.3057 11.4972L10.9572 11.0819L11.2341 10.8495Z" fill="#F9E813"/>
<path fill-rule="evenodd" clip-rule="evenodd" d="M10.9396 10.7236L11.5824 11.4896L11.444 11.6058L10.8012 10.8397L10.9396 10.7236Z" fill="#060101"/>
<path fill-rule="evenodd" clip-rule="evenodd" d="M10.8288 10.8163L11.1773 11.2317L11.0389 11.3478L10.6904 10.9325L10.8288 10.8163Z" fill="#F9E813"/>
<path fill-rule="evenodd" clip-rule="evenodd" d="M11.1965 11.2548L11.545 11.6701L11.4065 11.7863L11.058 11.371L11.1965 11.2548Z" fill="#F9E813"/>
<path fill-rule="evenodd" clip-rule="evenodd" d="M10.4973 11.0956L10.7296 11.3725L10.3143 11.721L10.0819 11.4441L10.4973 11.0956Z" fill="#F9E813"/>
<path fill-rule="evenodd" clip-rule="evenodd" d="M10.9557 11.6425L11.1881 11.9194L10.7728 12.2679L10.5404 11.991L10.9557 11.6425Z" fill="#F9E813"/>
<path fill-rule="evenodd" clip-rule="evenodd" d="M10.7722 11.4238L10.8883 11.5622L10.473 11.9107L10.3568 11.7723L10.7722 11.4238Z" fill="#F9E813"/>
<path fill-rule="evenodd" clip-rule="evenodd" d="M10.6076 11.0029L11.2504 11.7689L11.112 11.8851L10.4692 11.119L10.6076 11.0029Z" fill="#060101"/>
<path fill-rule="evenodd" clip-rule="evenodd" d="M10.2751 11.2812L10.9179 12.0472L10.7794 12.1634L10.1366 11.3974L10.2751 11.2812Z" fill="#060101"/>
<path fill-rule="evenodd" clip-rule="evenodd" d="M10.8102 11.0195L10.9264 11.1579L10.788 11.2741L10.6718 11.1356L10.8102 11.0195Z" fill="#F9E813"/>
<path fill-rule="evenodd" clip-rule="evenodd" d="M11.1779 11.457L11.2941 11.5954L11.1556 11.7116L11.0395 11.5731L11.1779 11.457Z" fill="#F9E813"/>
<path fill-rule="evenodd" clip-rule="evenodd" d="M11.1047 11.1454L11.2208 11.2839L10.944 11.5162L10.8278 11.3778L11.1047 11.1454Z" fill="#F9E813"/>
<path fill-rule="evenodd" clip-rule="evenodd" d="M9.41879 7.62433C9.41879 7.62433 9.34532 7.99738 8.92368 7.99738C8.50204 7.99737 8.42856 7.62433 8.42856 7.62433V6.90363H9.41879V7.62433ZM8.71469 7.62628C8.63589 7.62628 8.57129 7.69109 8.57114 7.77081C8.57114 7.85066 8.63579 7.91534 8.71469 7.91534C8.7934 7.91512 8.85727 7.85052 8.85727 7.77081C8.85712 7.69124 8.7933 7.62651 8.71469 7.62628ZM9.14243 7.62628C9.06381 7.62651 9 7.69124 8.99985 7.77081C8.99985 7.85052 9.06372 7.91512 9.14243 7.91534C9.22132 7.91534 9.28598 7.85066 9.28598 7.77081C9.28583 7.69109 9.22123 7.62628 9.14243 7.62628ZM8.92856 7.33722C8.84972 7.33722 8.78608 7.40199 8.78598 7.48175C8.78598 7.5616 8.84966 7.62628 8.92856 7.62628C9.00746 7.62628 9.07114 7.5616 9.07114 7.48175C9.07104 7.40199 9.00739 7.33722 8.92856 7.33722ZM8.71469 7.04816C8.63582 7.04816 8.57119 7.11288 8.57114 7.19269C8.57114 7.27254 8.63579 7.33722 8.71469 7.33722C8.7934 7.33699 8.85727 7.2724 8.85727 7.19269C8.85722 7.11302 8.79337 7.04838 8.71469 7.04816ZM9.14243 7.04816C9.06375 7.04839 8.9999 7.11302 8.99985 7.19269C8.99985 7.27239 9.06372 7.33699 9.14243 7.33722C9.22132 7.33722 9.28598 7.27254 9.28598 7.19269C9.28593 7.11288 9.22129 7.04816 9.14243 7.04816Z" fill="#013399"/>
<path fill-rule="evenodd" clip-rule="evenodd" d="M9.41891 9.21497C9.41891 9.21497 9.34544 9.58801 8.9238 9.58801C8.50216 9.58801 8.42868 9.21497 8.42868 9.21497V8.49426H9.41891V9.21497ZM8.71481 9.21692C8.63601 9.21692 8.57141 9.28173 8.57126 9.36145C8.57126 9.4413 8.63592 9.50598 8.71481 9.50598C8.79352 9.50575 8.85739 9.44116 8.85739 9.36145C8.85724 9.28187 8.79343 9.21715 8.71481 9.21692ZM9.14255 9.21692C9.06393 9.21715 9.00012 9.28187 8.99997 9.36145C8.99997 9.44116 9.06384 9.50575 9.14255 9.50598C9.22145 9.50598 9.2861 9.4413 9.2861 9.36145C9.28595 9.28173 9.22135 9.21692 9.14255 9.21692ZM8.92868 8.92786C8.84984 8.92786 8.7862 8.99263 8.7861 9.07239C8.7861 9.15224 8.84978 9.21692 8.92868 9.21692C9.00758 9.21692 9.07126 9.15224 9.07126 9.07239C9.07116 8.99263 9.00752 8.92786 8.92868 8.92786ZM8.71481 8.63879C8.63595 8.63879 8.57131 8.70352 8.57126 8.78333C8.57126 8.86317 8.63592 8.92786 8.71481 8.92786C8.79352 8.92763 8.85739 8.86303 8.85739 8.78333C8.85734 8.70366 8.79349 8.63902 8.71481 8.63879ZM9.14255 8.63879C9.06387 8.63902 9.00002 8.70366 8.99997 8.78333C8.99997 8.86303 9.06384 8.92763 9.14255 8.92786C9.22145 8.92786 9.2861 8.86317 9.2861 8.78333C9.28605 8.70352 9.22141 8.63879 9.14255 8.63879Z" fill="#013399"/>
<path fill-rule="evenodd" clip-rule="evenodd" d="M10.7046 9.21497C10.7046 9.21497 10.6311 9.58801 10.2094 9.58801C9.78781 9.58801 9.71432 9.21497 9.71432 9.21497V8.49426H10.7046V9.21497ZM10.0005 9.21692C9.92165 9.21692 9.85705 9.28173 9.8569 9.36145C9.8569 9.4413 9.92156 9.50598 10.0005 9.50598C10.0792 9.50575 10.143 9.44116 10.143 9.36145C10.1429 9.28187 10.0791 9.21715 10.0005 9.21692ZM10.4282 9.21692C10.3496 9.21715 10.2858 9.28187 10.2856 9.36145C10.2856 9.44116 10.3495 9.50575 10.4282 9.50598C10.5071 9.50598 10.5717 9.4413 10.5717 9.36145C10.5716 9.28173 10.507 9.21692 10.4282 9.21692ZM10.2143 8.92786C10.1355 8.92786 10.0718 8.99263 10.0717 9.07239C10.0717 9.15224 10.1354 9.21692 10.2143 9.21692C10.2932 9.21692 10.3569 9.15224 10.3569 9.07239C10.3568 8.99263 10.2932 8.92786 10.2143 8.92786ZM10.0005 8.63879C9.92159 8.63879 9.85695 8.70352 9.8569 8.78333C9.8569 8.86317 9.92156 8.92786 10.0005 8.92786C10.0792 8.92763 10.143 8.86303 10.143 8.78333C10.143 8.70366 10.0791 8.63902 10.0005 8.63879ZM10.4282 8.63879C10.3495 8.63902 10.2857 8.70366 10.2856 8.78333C10.2856 8.86303 10.3495 8.92763 10.4282 8.92786C10.5071 8.92786 10.5717 8.86317 10.5717 8.78333C10.5717 8.70352 10.5071 8.63879 10.4282 8.63879Z" fill="#013399"/>
<path fill-rule="evenodd" clip-rule="evenodd" d="M8.13327 9.21497C8.13327 9.21497 8.05979 9.58801 7.63815 9.58801C7.21652 9.58801 7.14304 9.21497 7.14304 9.21497V8.49426H8.13327V9.21497ZM7.42917 9.21692C7.35036 9.21692 7.28576 9.28173 7.28561 9.36145C7.28561 9.4413 7.35027 9.50598 7.42917 9.50598C7.50787 9.50575 7.57175 9.44116 7.57175 9.36145C7.5716 9.28187 7.50778 9.21715 7.42917 9.21692ZM7.8569 9.21692C7.77829 9.21715 7.71448 9.28187 7.71432 9.36145C7.71432 9.44116 7.7782 9.50575 7.8569 9.50598C7.9358 9.50598 8.00046 9.4413 8.00046 9.36145C8.00031 9.28173 7.93571 9.21692 7.8569 9.21692ZM7.64304 8.92786C7.5642 8.92786 7.50056 8.99263 7.50046 9.07239C7.50046 9.15224 7.56414 9.21692 7.64304 9.21692C7.72193 9.21692 7.78561 9.15224 7.78561 9.07239C7.78551 8.99263 7.72187 8.92786 7.64304 8.92786ZM7.42917 8.63879C7.3503 8.63879 7.28566 8.70352 7.28561 8.78333C7.28561 8.86317 7.35027 8.92786 7.42917 8.92786C7.50787 8.92763 7.57175 8.86303 7.57175 8.78333C7.5717 8.70366 7.50784 8.63902 7.42917 8.63879ZM7.8569 8.63879C7.77823 8.63902 7.71438 8.70366 7.71432 8.78333C7.71432 8.86303 7.7782 8.92763 7.8569 8.92786C7.9358 8.92786 8.00046 8.86317 8.00046 8.78333C8.00041 8.70352 7.93577 8.63879 7.8569 8.63879Z" fill="#013399"/>
<path fill-rule="evenodd" clip-rule="evenodd" d="M9.41879 10.8051C9.41879 10.8051 9.34532 11.1781 8.92368 11.1781C8.50204 11.1781 8.42856 10.8051 8.42856 10.8051V10.0844H9.41879V10.8051ZM8.71469 10.807C8.63589 10.807 8.57129 10.8718 8.57114 10.9515C8.57114 11.0314 8.63579 11.0961 8.71469 11.0961C8.7934 11.0958 8.85727 11.0312 8.85727 10.9515C8.85712 10.872 8.7933 10.8072 8.71469 10.807ZM9.14243 10.807C9.06381 10.8072 9 10.872 8.99985 10.9515C8.99985 11.0312 9.06372 11.0958 9.14243 11.0961C9.22132 11.0961 9.28598 11.0314 9.28598 10.9515C9.28583 10.8718 9.22123 10.807 9.14243 10.807ZM8.92856 10.5179C8.84972 10.5179 8.78608 10.5827 8.78598 10.6625C8.78598 10.7423 8.84966 10.807 8.92856 10.807C9.00746 10.807 9.07114 10.7423 9.07114 10.6625C9.07104 10.5827 9.00739 10.5179 8.92856 10.5179ZM8.71469 10.2289C8.63582 10.2289 8.57119 10.2936 8.57114 10.3734C8.57114 10.4533 8.63579 10.5179 8.71469 10.5179C8.7934 10.5177 8.85727 10.4531 8.85727 10.3734C8.85722 10.2937 8.79337 10.2291 8.71469 10.2289ZM9.14243 10.2289C9.06375 10.2291 8.9999 10.2937 8.99985 10.3734C8.99985 10.4531 9.06372 10.5177 9.14243 10.5179C9.22132 10.5179 9.28598 10.4533 9.28598 10.3734C9.28593 10.2936 9.22129 10.2289 9.14243 10.2289Z" fill="#013399"/>
</g>
</svg>
