<svg width="24" height="18" viewBox="0 0 24 18" fill="none" xmlns="http://www.w3.org/2000/svg">
<mask id="mask0_395_54463" style="mask-type:luminance" maskUnits="userSpaceOnUse" x="0" y="0" width="24" height="18">
<rect width="24" height="18" fill="white"/>
</mask>
<g mask="url(#mask0_395_54463)">
<path fill-rule="evenodd" clip-rule="evenodd" d="M0 0V18H24V0H0Z" fill="#F7FCFF"/>
<mask id="mask1_395_54463" style="mask-type:luminance" maskUnits="userSpaceOnUse" x="0" y="0" width="24" height="18">
<path fill-rule="evenodd" clip-rule="evenodd" d="M0 0V18H24V0H0Z" fill="white"/>
</mask>
<g mask="url(#mask1_395_54463)">
<path d="M12 6.1748C13.5602 6.1748 14.8252 7.4398 14.8252 9C14.8252 10.5602 13.5602 11.8252 12 11.8252C10.4398 11.8252 9.1748 10.5602 9.1748 9C9.1748 7.4398 10.4398 6.1748 12 6.1748Z" stroke="#272727" stroke-width="0.35"/>
<path fill-rule="evenodd" clip-rule="evenodd" d="M12 6.75C12.5784 6.75 13.1063 6.96851 13.5049 7.32715C13.9624 7.739 14.25 8.33595 14.25 9C14.25 10.2426 13.2426 11.25 12 11.25C10.7574 11.25 9.75 10.2426 9.75 9C9.75 8.24394 10.1234 7.57496 10.6953 7.16699C11.0633 6.90458 11.5136 6.75 12 6.75ZM12 7.0127C11.5729 7.0127 11.1775 7.14767 10.8535 7.37695C10.3449 7.73691 10.0127 8.32946 10.0127 9C10.0127 10.0977 10.9023 10.9873 12 10.9873C13.0977 10.9873 13.9873 10.0977 13.9873 9C13.9873 8.43283 13.7502 7.9207 13.3691 7.55859C13.0127 7.21994 12.5305 7.0127 12 7.0127Z" fill="#272727"/>
<path fill-rule="evenodd" clip-rule="evenodd" d="M0 0V6H24V0H0Z" fill="#F05234"/>
<path fill-rule="evenodd" clip-rule="evenodd" d="M0 12V18H24V12H0Z" fill="#3D58DB"/>
<path d="M10.9622 7.50118L11.1757 7.80951C10.6808 8.15213 10.4568 8.5544 10.6397 9.23697C10.8208 9.91298 11.2458 10.2485 11.9531 10.2731L11.94 10.6479C11.0685 10.6176 10.4798 10.2604 10.2558 9.42463C10.0336 8.59537 10.331 7.93822 10.9622 7.50118Z" fill="#73BE4A"/>
<path fill-rule="evenodd" clip-rule="evenodd" d="M12 9.23664L11.3387 9.68553L11.5613 8.91792L10.9301 8.42775L11.7289 8.40223L12 7.65039L12.2711 8.40223L13.0699 8.42775L12.4387 8.91792L12.6613 9.68553L12 9.23664Z" fill="#FBCD17"/>
<path d="M12.8758 7.6315C12.8758 7.6315 13.7205 8.21625 13.4166 9.35011C13.1128 10.484 11.9286 10.5251 11.9286 10.5251" stroke="#73BE4A" stroke-width="0.5"/>
<path d="M10.9233 6.7832L11.2734 7.32187L10.9233 6.7832Z" fill="#F7FCFF"/>
</g>
</g>
</svg>
