<svg width="24" height="18" viewBox="0 0 24 18" fill="none" xmlns="http://www.w3.org/2000/svg">
<mask id="mask0_395_52056" style="mask-type:luminance" maskUnits="userSpaceOnUse" x="0" y="0" width="24" height="18">
<rect width="24" height="18" fill="white"/>
</mask>
<g mask="url(#mask0_395_52056)">
<path fill-rule="evenodd" clip-rule="evenodd" d="M0 0V18H24V0H0Z" fill="#4857A1"/>
<mask id="mask1_395_52056" style="mask-type:luminance" maskUnits="userSpaceOnUse" x="0" y="0" width="24" height="18">
<path fill-rule="evenodd" clip-rule="evenodd" d="M0 0V18H24V0H0Z" fill="white"/>
</mask>
<g mask="url(#mask1_395_52056)">
<path fill-rule="evenodd" clip-rule="evenodd" d="M0 0V6H24V0H0Z" fill="#C51918"/>
<path fill-rule="evenodd" clip-rule="evenodd" d="M0 12V18H24V12H0Z" fill="#F7FCFF"/>
<path fill-rule="evenodd" clip-rule="evenodd" d="M8.73959 2.57819V2.57721C9.72963 2.66701 11.2604 3.17939 11.5453 3.72369C11.6716 3.96543 11.5081 4.16664 11.3363 4.45807C11.0041 5.02165 10.8137 5.46944 10.4769 5.67291L10.4828 6.57526L6.06088 6.53717L6.05502 5.62506C5.7607 5.40396 5.57438 4.98025 5.26596 4.45709C5.09415 4.1657 4.93044 3.96448 5.05698 3.72272C5.27146 3.31338 6.24282 2.91553 7.13217 2.70514C7.30684 2.64305 7.48931 2.58493 7.67026 2.52936L7.75034 2.58698C7.82071 2.57736 7.88902 2.57046 7.95444 2.56451L8.05698 2.79205H8.41635C8.41635 2.79205 8.63413 3.43753 8.63413 3.79596C8.63411 4.15437 8.41635 4.45123 8.41635 4.45123V4.70026C8.45457 4.70344 8.49475 4.70649 8.53647 4.711C8.53671 4.68926 8.53721 4.6661 8.54135 4.64264C8.56223 4.52449 8.62777 4.43691 8.68686 4.44733C8.74572 4.45815 8.77602 4.56275 8.75522 4.68073C8.75173 4.70045 8.7453 4.7187 8.73959 4.73639C8.97322 4.7681 9.2355 4.81084 9.48373 4.85651C9.82171 4.20127 10.426 3.57491 10.1039 3.25104C10.0616 3.20864 9.9866 3.16965 9.88998 3.13287C9.54652 3.04671 9.17222 2.97747 8.80795 2.9444L8.79623 2.8858C8.7247 2.87418 8.65614 2.86263 8.59213 2.8526L8.50717 2.51276C8.57891 2.53478 8.65745 2.55495 8.73959 2.57819ZM10.6624 3.37994C10.9052 3.83495 10.3757 4.28474 9.97885 4.95514C10.0165 4.96272 10.0528 4.96956 10.0873 4.97662C10.086 4.94202 10.0891 4.90266 10.0999 4.86237C10.1311 4.74656 10.2031 4.6652 10.2611 4.68073C10.3189 4.69642 10.341 4.80315 10.3099 4.91901C10.3002 4.95505 10.2839 4.98624 10.2679 5.01373C10.3957 5.04063 10.474 5.05573 10.474 5.05573V5.18073C10.9112 4.84253 11.2224 4.09837 11.2503 3.85358C11.2669 3.70544 11.0315 3.53456 10.6624 3.37994ZM6.056 3.35846C5.62539 3.52511 5.33509 3.70611 5.3519 3.85358C5.37834 4.08533 5.65743 4.7661 6.05795 5.12506C6.08955 5.11626 6.2448 5.07619 6.46127 5.02057C6.44372 4.99385 6.42703 4.96258 6.41538 4.92682C6.37827 4.81263 6.39442 4.70514 6.45151 4.68658C6.50857 4.66837 6.58439 4.74544 6.62143 4.85944C6.63458 4.89991 6.6387 4.93952 6.63901 4.97467C6.66769 4.96753 6.69704 4.96049 6.7269 4.95319C6.3243 4.27416 5.78625 3.8199 6.056 3.35846ZM7.87924 2.90924C7.58428 2.94656 7.27315 3.00849 6.97299 3.08112C6.80248 3.13163 6.6676 3.18723 6.60483 3.25006C6.28562 3.57077 6.8735 4.18961 7.21323 4.83795C7.3734 4.80326 7.53465 4.77266 7.68491 4.74713C7.67828 4.72366 7.67362 4.69801 7.67123 4.67096C7.66078 4.5515 7.70042 4.44985 7.7601 4.4444C7.81985 4.43917 7.87749 4.53198 7.88803 4.65143C7.88997 4.67364 7.88742 4.69544 7.88608 4.71588C7.9302 4.70994 7.97259 4.70433 8.01303 4.70026V4.42389C8.01303 4.42389 7.82443 4.21356 7.79526 3.77545C7.77443 3.4617 7.8408 3.09326 7.87924 2.90924Z" fill="#F6C540"/>
<path fill-rule="evenodd" clip-rule="evenodd" d="M6.18469 5.95709C6.27472 5.95712 6.34778 6.03015 6.34778 6.12018C6.34776 6.21019 6.27471 6.28324 6.18469 6.28326C6.09466 6.28326 6.02163 6.21021 6.02161 6.12018C6.02161 6.03013 6.09465 5.95709 6.18469 5.95709ZM10.5323 5.95709C10.6224 5.95712 10.6954 6.03015 10.6954 6.12018C10.6954 6.21019 10.6224 6.28324 10.5323 6.28326C10.4423 6.28326 10.3693 6.21021 10.3693 6.12018C10.3693 6.03013 10.4423 5.95709 10.5323 5.95709ZM8.25012 5.73932C8.46011 5.7394 8.63 5.83708 8.63 5.95709C8.62968 6.07695 8.45991 6.17381 8.25012 6.17389C8.04021 6.17389 7.86958 6.077 7.86926 5.95709C7.86926 5.83703 8.04001 5.73932 8.25012 5.73932ZM8.25012 2.1524C8.52014 2.15254 8.73938 2.36642 8.73938 2.62994C8.73925 2.89336 8.52006 3.10735 8.25012 3.10748C7.98006 3.10748 7.76099 2.89344 7.76086 2.62994C7.76086 2.36634 7.97998 2.1524 8.25012 2.1524Z" fill="#2E42A5"/>
<path fill-rule="evenodd" clip-rule="evenodd" d="M7.16284 5.84772C7.31292 5.84772 7.4353 5.92076 7.4353 6.0108C7.43526 6.10083 7.3129 6.17389 7.16284 6.17389C7.01291 6.17381 6.8914 6.10078 6.89136 6.0108C6.89136 5.92081 7.01288 5.8478 7.16284 5.84772ZM9.44604 5.84772C9.59597 5.84783 9.71753 5.92082 9.71753 6.0108C9.71749 6.10076 9.59594 6.17378 9.44604 6.17389C9.29599 6.17389 9.17362 6.10083 9.17358 6.0108C9.17358 5.92076 9.29597 5.84772 9.44604 5.84772Z" fill="#C5363C"/>
<path fill-rule="evenodd" clip-rule="evenodd" d="M6.12512 4.79498C6.18218 4.77683 6.25801 4.85387 6.29504 4.96783C6.33214 5.08201 6.316 5.18952 6.25891 5.20807C6.20185 5.22653 6.12511 5.14929 6.08801 5.03522C6.05091 4.92103 6.06803 4.81353 6.12512 4.79498ZM10.3761 4.94537C10.4397 4.84356 10.5322 4.78661 10.5831 4.81842C10.6339 4.85029 10.6233 4.95884 10.5597 5.06061C10.4961 5.16217 10.4035 5.21835 10.3527 5.18658C10.302 5.1546 10.3126 5.04703 10.3761 4.94537ZM9.06458 4.43463C9.12461 4.43463 9.17395 4.53234 9.17395 4.6524C9.17385 4.77229 9.12454 4.8692 9.06458 4.8692C9.00474 4.8689 8.95628 4.77211 8.95618 4.6524C8.95618 4.53253 9.00467 4.43493 9.06458 4.43463ZM7.36731 4.44537C7.4244 4.42682 7.50111 4.50404 7.53821 4.61823C7.57516 4.7321 7.55884 4.83957 7.50208 4.85846C7.44503 4.877 7.36831 4.79965 7.33118 4.68561C7.2941 4.5715 7.31031 4.46404 7.36731 4.44537Z" fill="#F7FCFF"/>
<path fill-rule="evenodd" clip-rule="evenodd" d="M5.37134 4.35944C5.47181 4.36047 5.55283 4.44235 5.55298 4.54303C5.55298 4.64448 5.47084 4.72662 5.36938 4.72662C5.26794 4.72661 5.18579 4.64448 5.18579 4.54303C5.18588 4.48349 5.21603 4.43298 5.26001 4.39948L5.26099 4.40045C5.30333 4.40036 5.34031 4.38359 5.37134 4.35944ZM11.3459 4.35944C11.377 4.38356 11.4139 4.40043 11.4563 4.40045L11.4573 4.39948C11.5012 4.43299 11.5314 4.48355 11.5315 4.54303C11.5315 4.6444 11.4492 4.72649 11.3479 4.72662C11.2464 4.72662 11.1643 4.64448 11.1643 4.54303C11.1645 4.44227 11.2454 4.36036 11.3459 4.35944ZM5.36938 4.50983C5.35087 4.50984 5.33633 4.52455 5.33618 4.54303C5.33618 4.56163 5.35078 4.5772 5.36938 4.57721C5.38799 4.57721 5.40356 4.56164 5.40356 4.54303C5.40342 4.52454 5.38791 4.50983 5.36938 4.50983ZM11.3479 4.50983C11.3294 4.50983 11.3139 4.52454 11.3137 4.54303C11.3137 4.56164 11.3293 4.57721 11.3479 4.57721C11.3664 4.57708 11.3811 4.56156 11.3811 4.54303C11.381 4.52463 11.3663 4.50995 11.3479 4.50983ZM6.63013 4.04596C6.69939 4.07224 6.74923 4.13839 6.74927 4.21686C6.74927 4.31818 6.66695 4.40024 6.56567 4.40045C6.46422 4.40045 6.3811 4.31831 6.3811 4.21686C6.38111 4.20045 6.38585 4.18511 6.38989 4.16998C6.41062 4.17811 6.43269 4.18364 6.4563 4.18365C6.54157 4.18365 6.60942 4.12473 6.63013 4.04596ZM10.0852 4.04596C10.1058 4.12494 10.1756 4.18365 10.261 4.18365C10.2843 4.18361 10.3059 4.17793 10.3264 4.16998C10.3305 4.1852 10.3362 4.20035 10.3362 4.21686C10.3362 4.31818 10.2539 4.40024 10.1526 4.40045C10.0511 4.40045 9.96802 4.31831 9.96802 4.21686C9.96806 4.1391 10.0169 4.07273 10.0852 4.04596ZM5.32739 4.04596C5.39576 4.07268 5.44454 4.13904 5.44458 4.21686C5.44458 4.27582 5.41452 4.32582 5.37134 4.35944H5.36938C5.32759 4.35944 5.29088 4.37596 5.26001 4.39948C5.15883 4.39915 5.07642 4.31811 5.07642 4.21686C5.07642 4.20037 5.0821 4.18519 5.08618 4.16998C5.10682 4.17801 5.12911 4.18365 5.15259 4.18365C5.23782 4.18348 5.30684 4.12479 5.32739 4.04596ZM11.3909 4.04596C11.4115 4.12481 11.4803 4.18365 11.5657 4.18365C11.5886 4.18361 11.6099 4.17772 11.6301 4.16998C11.6342 4.18524 11.6399 4.2003 11.6399 4.21686C11.6399 4.31802 11.5583 4.399 11.4573 4.39948C11.4264 4.37594 11.3897 4.35949 11.3479 4.35944H11.3459C11.3027 4.32583 11.2727 4.2759 11.2727 4.21686C11.2727 4.13862 11.3219 4.0724 11.3909 4.04596ZM5.26099 4.18365C5.2425 4.18365 5.227 4.19841 5.22681 4.21686C5.22681 4.23547 5.24238 4.25104 5.26099 4.25104C5.27947 4.25089 5.29419 4.23537 5.29419 4.21686C5.294 4.19851 5.27935 4.1838 5.26099 4.18365ZM6.5647 4.18365C6.54637 4.18385 6.53168 4.19853 6.53149 4.21686C6.53149 4.23535 6.54625 4.25085 6.5647 4.25104C6.58331 4.25104 6.59888 4.23547 6.59888 4.21686C6.59869 4.19841 6.58319 4.18365 6.5647 4.18365ZM10.1516 4.18365C10.1333 4.18387 10.1186 4.19855 10.1184 4.21686C10.1184 4.23533 10.1332 4.25082 10.1516 4.25104C10.1702 4.25104 10.1858 4.23547 10.1858 4.21686C10.1856 4.19841 10.1701 4.18365 10.1516 4.18365ZM11.4563 4.18365C11.4378 4.18369 11.4233 4.19843 11.4231 4.21686C11.4231 4.23545 11.4377 4.25101 11.4563 4.25104C11.4749 4.25104 11.4905 4.23547 11.4905 4.21686C11.4903 4.19841 11.4748 4.18365 11.4563 4.18365ZM10.1946 3.82916C10.2155 3.90761 10.2843 3.96587 10.3694 3.96588C10.3923 3.96588 10.4136 3.9599 10.4338 3.95221C10.4381 3.96778 10.4446 3.98312 10.4446 4.00006C10.4446 4.0781 10.395 4.14336 10.3264 4.16998C10.3054 4.09184 10.2373 4.03344 10.1526 4.03326C10.1289 4.03326 10.106 4.03782 10.0852 4.04596C10.0813 4.03113 10.0764 4.0161 10.0764 4.00006C10.0765 3.92198 10.1259 3.85571 10.1946 3.82916ZM5.21802 3.82916C5.28683 3.85567 5.33614 3.92192 5.33618 4.00006C5.33618 4.01611 5.33126 4.03112 5.32739 4.04596C5.30679 4.03791 5.28443 4.03331 5.26099 4.03326C5.17606 4.03326 5.10721 4.0917 5.08618 4.16998C5.01764 4.14332 4.96802 4.07803 4.96802 4.00006C4.96803 3.98314 4.97447 3.96777 4.97876 3.95221C4.99902 3.95992 5.02025 3.96587 5.04321 3.96588C5.12825 3.96588 5.19709 3.9076 5.21802 3.82916ZM6.52075 3.82916C6.59024 3.85533 6.63985 3.92143 6.63989 4.00006C6.63989 4.01625 6.63406 4.03101 6.63013 4.04596C6.60999 4.03832 6.58847 4.03331 6.56567 4.03326C6.48066 4.03326 6.41084 4.09157 6.38989 4.16998C6.32158 4.14321 6.27271 4.07787 6.27271 4.00006C6.27271 3.98319 6.2782 3.96773 6.28247 3.95221C6.30292 3.96007 6.32469 3.96588 6.3479 3.96588C6.43268 3.96577 6.4997 3.90732 6.52075 3.82916ZM11.4993 3.82916C11.5202 3.90757 11.5891 3.96588 11.6741 3.96588C11.697 3.96584 11.7183 3.95994 11.7385 3.95221C11.7428 3.96778 11.7493 3.98312 11.7493 4.00006C11.7493 4.07842 11.6992 4.14359 11.6301 4.16998C11.609 4.09179 11.5412 4.03326 11.4563 4.03326C11.4332 4.03328 11.4113 4.03814 11.3909 4.04596C11.387 4.03106 11.3821 4.01618 11.3821 4.00006C11.3821 3.92198 11.4305 3.85571 11.4993 3.82916ZM5.15259 3.96588C5.13398 3.96588 5.11841 3.98145 5.11841 4.00006C5.11867 4.01845 5.13414 4.03326 5.15259 4.03326C5.17081 4.03301 5.18553 4.01829 5.18579 4.00006C5.18579 3.98161 5.17097 3.96614 5.15259 3.96588ZM6.4563 3.96588C6.43769 3.96588 6.42212 3.98145 6.42212 4.00006C6.42237 4.01845 6.43785 4.03326 6.4563 4.03326C6.47475 4.03326 6.49022 4.01845 6.49048 4.00006C6.49048 3.98145 6.47491 3.96588 6.4563 3.96588ZM10.261 3.96588C10.2424 3.96588 10.2268 3.98145 10.2268 4.00006C10.2271 4.01845 10.2425 4.03326 10.261 4.03326C10.2792 4.03301 10.2939 4.01829 10.2942 4.00006C10.2942 3.98161 10.2794 3.96614 10.261 3.96588ZM11.5657 3.96588C11.5471 3.96588 11.5315 3.98145 11.5315 4.00006C11.5318 4.01845 11.5472 4.03326 11.5657 4.03326C11.5839 4.03301 11.5986 4.01829 11.5989 4.00006C11.5989 3.98161 11.5841 3.96614 11.5657 3.96588ZM5.08618 3.60651C5.10216 3.6733 5.15131 3.72312 5.21802 3.73932C5.22147 3.75338 5.2268 3.76717 5.22681 3.78229C5.22681 3.79871 5.22206 3.81402 5.21802 3.82916C5.19765 3.82132 5.17571 3.81651 5.15259 3.81647C5.06809 3.81647 5.00019 3.87453 4.97876 3.95221C4.90955 3.92588 4.85962 3.86074 4.85962 3.78229C4.8597 3.68094 4.94186 3.59875 5.04321 3.59869C5.0582 3.59869 5.07224 3.60312 5.08618 3.60651ZM6.34888 3.59869C6.44972 3.59935 6.53142 3.68131 6.53149 3.78229C6.53149 3.79885 6.52486 3.81389 6.52075 3.82916C6.50062 3.82158 6.47908 3.81647 6.4563 3.81647C6.3718 3.81651 6.30385 3.87449 6.28247 3.95221C6.21356 3.92573 6.16431 3.86053 6.16431 3.78229C6.16435 3.72321 6.19321 3.6723 6.23657 3.63873L6.23853 3.63971C6.28081 3.63971 6.31783 3.6227 6.34888 3.59869ZM10.3665 3.59869C10.3976 3.62316 10.4351 3.63964 10.4778 3.63971L10.4788 3.63873C10.5228 3.67226 10.5529 3.72271 10.553 3.78229C10.553 3.86078 10.5031 3.92591 10.4338 3.95221C10.4124 3.87467 10.3453 3.81664 10.261 3.81647C10.2377 3.81647 10.2151 3.82123 10.1946 3.82916C10.1905 3.81403 10.1858 3.79869 10.1858 3.78229C10.1859 3.68189 10.2664 3.60027 10.3665 3.59869ZM11.6741 3.59869C11.7753 3.59887 11.8576 3.68101 11.8577 3.78229C11.8577 3.86067 11.8076 3.92583 11.7385 3.95221C11.7171 3.87467 11.65 3.81664 11.5657 3.81647C11.5423 3.81647 11.5198 3.82123 11.4993 3.82916C11.4952 3.814 11.4905 3.79873 11.4905 3.78229C11.4905 3.76723 11.4949 3.75332 11.4983 3.73932C11.5653 3.72332 11.614 3.67344 11.6301 3.60651C11.6443 3.60301 11.6588 3.59869 11.6741 3.59869ZM5.04321 3.74908C5.02461 3.74909 5.00903 3.76466 5.00903 3.78326C5.00929 3.80165 5.02476 3.81647 5.04321 3.81647C5.06166 3.81647 5.07714 3.80165 5.07739 3.78326C5.07739 3.76465 5.06182 3.74908 5.04321 3.74908ZM6.3479 3.74908C6.32929 3.74909 6.31372 3.76466 6.31372 3.78326C6.31398 3.80165 6.32945 3.81647 6.3479 3.81647C6.36635 3.81647 6.38182 3.80165 6.38208 3.78326C6.38208 3.76465 6.36651 3.74908 6.3479 3.74908ZM10.3694 3.74908C10.3508 3.74909 10.3362 3.76466 10.3362 3.78326C10.3364 3.80165 10.3509 3.81647 10.3694 3.81647C10.3878 3.81647 10.4033 3.80165 10.4036 3.78326C10.4036 3.76465 10.388 3.74908 10.3694 3.74908ZM11.6741 3.74908C11.6555 3.74908 11.6399 3.76465 11.6399 3.78326C11.6402 3.80165 11.6556 3.81647 11.6741 3.81647C11.6923 3.81621 11.707 3.80149 11.7073 3.78326C11.7073 3.76482 11.6925 3.74934 11.6741 3.74908ZM5.29517 3.38776C5.29558 3.47712 5.35976 3.54658 5.44458 3.56256V3.56451C5.44458 3.66584 5.36226 3.7479 5.26099 3.74811C5.246 3.74811 5.23197 3.74271 5.21802 3.73932C5.20172 3.67305 5.15252 3.62261 5.08618 3.60651C5.08289 3.59274 5.07642 3.57929 5.07642 3.56451C5.07647 3.46311 5.15957 3.38092 5.26099 3.38092C5.2729 3.38094 5.28388 3.38556 5.29517 3.38776ZM11.4563 3.38092C11.5577 3.38092 11.6398 3.46311 11.6399 3.56451C11.6399 3.57935 11.6334 3.59269 11.6301 3.60651C11.5641 3.62283 11.5145 3.67321 11.4983 3.73932C11.4845 3.7426 11.471 3.74811 11.4563 3.74811C11.3549 3.74805 11.2727 3.66593 11.2727 3.56451V3.56256C11.3574 3.54647 11.4217 3.47703 11.4221 3.38776C11.4334 3.38558 11.4444 3.38093 11.4563 3.38092ZM6.09399 3.34674C6.12746 3.39192 6.17896 3.42291 6.2395 3.42291C6.29934 3.42279 6.3496 3.39211 6.38306 3.34772C6.40624 3.37843 6.42305 3.41468 6.4231 3.45612C6.4231 3.51529 6.39232 3.5651 6.34888 3.59869H6.3479C6.30558 3.59869 6.26763 3.61469 6.23657 3.63873C6.13623 3.63744 6.05493 3.55676 6.05493 3.45612C6.05498 3.41459 6.07072 3.37748 6.09399 3.34674ZM10.6213 3.34674C10.645 3.37763 10.6613 3.41421 10.6614 3.45612C10.6614 3.55735 10.5799 3.63837 10.4788 3.63873C10.4479 3.6152 10.4112 3.59869 10.3694 3.59869H10.3665C10.3236 3.56506 10.2942 3.51479 10.2942 3.45612C10.2942 3.41485 10.3102 3.37836 10.3333 3.34772C10.3667 3.39237 10.4177 3.42288 10.4778 3.42291C10.538 3.42291 10.5878 3.39145 10.6213 3.34674ZM5.26099 3.53131C5.24238 3.53131 5.22681 3.54688 5.22681 3.56549C5.22705 3.58389 5.24253 3.59869 5.26099 3.59869C5.27932 3.59854 5.29395 3.5838 5.29419 3.56549C5.29419 3.54697 5.27947 3.53146 5.26099 3.53131ZM11.4563 3.53131C11.4377 3.53134 11.4231 3.5469 11.4231 3.56549C11.4233 3.58387 11.4379 3.59866 11.4563 3.59869C11.4748 3.59869 11.4902 3.5839 11.4905 3.56549C11.4905 3.54688 11.4749 3.53131 11.4563 3.53131ZM5.51685 3.211C5.51537 3.22036 5.51197 3.22954 5.51196 3.23932C5.51196 3.32663 5.57387 3.39544 5.65552 3.41412C5.6421 3.50236 5.56977 3.57037 5.47778 3.57037C5.46613 3.57037 5.45563 3.56464 5.44458 3.56256C5.44361 3.47408 5.37911 3.40407 5.29517 3.38776L5.29419 3.38678C5.29424 3.28541 5.37641 3.20324 5.47778 3.20319C5.49143 3.20319 5.50405 3.20818 5.51685 3.211ZM11.2395 3.20319C11.3407 3.20339 11.423 3.2855 11.4231 3.38678L11.4221 3.38776C11.338 3.40396 11.2737 3.47398 11.2727 3.56256C11.2617 3.56466 11.2512 3.57035 11.2395 3.57037C11.1474 3.57037 11.0731 3.50249 11.0598 3.41412C11.1423 3.39605 11.2053 3.32721 11.2053 3.23932C11.2053 3.22951 11.201 3.2204 11.1995 3.211C11.2125 3.20808 11.2256 3.20319 11.2395 3.20319ZM6.2395 3.42291C6.22089 3.42291 6.20532 3.43848 6.20532 3.45709C6.20558 3.47548 6.22105 3.4903 6.2395 3.4903C6.25773 3.49004 6.27245 3.47532 6.27271 3.45709C6.27271 3.43864 6.25789 3.42317 6.2395 3.42291ZM10.4788 3.42291C10.4602 3.42291 10.4446 3.43848 10.4446 3.45709C10.4448 3.47548 10.4603 3.4903 10.4788 3.4903C10.497 3.49004 10.5117 3.47532 10.512 3.45709C10.512 3.43864 10.4971 3.42317 10.4788 3.42291ZM5.69556 3.05573C5.72583 3.05573 5.75339 3.06521 5.77856 3.07819C5.77325 3.09534 5.76881 3.11299 5.7688 3.1319C5.7688 3.20228 5.80931 3.26121 5.86743 3.29205C5.84442 3.36724 5.77828 3.42291 5.69556 3.42291C5.68145 3.4229 5.66871 3.41714 5.65552 3.41412C5.6569 3.40504 5.66138 3.39625 5.66138 3.38678C5.66133 3.29902 5.59917 3.22915 5.51685 3.211C5.53068 3.12328 5.60396 3.05577 5.69556 3.05573ZM11.0217 3.05573C11.1132 3.05591 11.1856 3.12342 11.1995 3.211C11.1175 3.2294 11.055 3.29925 11.0549 3.38678C11.0549 3.39616 11.0585 3.40512 11.0598 3.41412C11.0472 3.41689 11.0352 3.42288 11.0217 3.42291C10.9388 3.42291 10.8708 3.36748 10.8479 3.29205C10.9068 3.26145 10.9485 3.20284 10.9485 3.1319C10.9485 3.11281 10.9422 3.09549 10.9368 3.07819C10.9623 3.06478 10.9909 3.05573 11.0217 3.05573ZM5.47778 3.35358C5.45932 3.35375 5.44458 3.36925 5.44458 3.38776C5.44481 3.40606 5.45946 3.42079 5.47778 3.42096C5.49625 3.42096 5.51174 3.40617 5.51196 3.38776C5.51196 3.36915 5.49639 3.35358 5.47778 3.35358ZM11.2385 3.35358C11.2201 3.35381 11.2053 3.36929 11.2053 3.38776C11.2055 3.40602 11.2203 3.42072 11.2385 3.42096C11.257 3.42096 11.2725 3.40617 11.2727 3.38776C11.2727 3.36915 11.2571 3.35358 11.2385 3.35358ZM6.13599 3.1319C6.13599 3.14343 6.13118 3.15416 6.12915 3.1651C6.15998 3.18872 6.19671 3.20504 6.23853 3.20514C6.29853 3.20514 6.34953 3.17444 6.38306 3.12994C6.40655 3.16079 6.42307 3.19756 6.4231 3.23932C6.4231 3.28078 6.40622 3.31698 6.38306 3.34772C6.34953 3.30331 6.29846 3.27252 6.23853 3.27252C6.17886 3.27266 6.12745 3.30256 6.09399 3.34674C6.07812 3.3253 6.06711 3.30164 6.06177 3.27448C6.09688 3.24742 6.12073 3.21042 6.12915 3.1651C6.11573 3.15482 6.10413 3.14348 6.09399 3.12994C6.10386 3.11689 6.11523 3.10577 6.12817 3.09576C6.13062 3.1077 6.13598 3.11924 6.13599 3.1319ZM10.5881 3.09576C10.601 3.10564 10.6115 3.11707 10.6213 3.12994C10.6113 3.14314 10.6003 3.15406 10.5872 3.16412C10.5953 3.20943 10.6187 3.24723 10.6536 3.27448C10.6481 3.30186 10.6375 3.32521 10.6213 3.34674C10.5878 3.30293 10.5372 3.27252 10.4778 3.27252C10.4178 3.27262 10.3667 3.30318 10.3333 3.34772C10.3102 3.31703 10.2942 3.28062 10.2942 3.23932C10.2942 3.19771 10.3099 3.16073 10.3333 3.12994C10.3667 3.17457 10.4177 3.20504 10.4778 3.20514C10.5198 3.20514 10.5562 3.18783 10.5872 3.16412C10.5853 3.15352 10.5813 3.14305 10.5813 3.1319C10.5813 3.1193 10.5857 3.10765 10.5881 3.09576ZM5.95239 2.9483C5.99371 2.94835 6.03013 2.9643 6.06079 2.98737C6.05865 2.99857 6.05493 3.00971 6.05493 3.02155C6.05493 3.0628 6.07103 3.09928 6.09399 3.12994C6.07076 3.16069 6.05593 3.19782 6.05591 3.23932C6.05591 3.25151 6.0595 3.26295 6.06177 3.27448C6.03082 3.29832 5.99447 3.31544 5.95239 3.31549C5.92133 3.31549 5.89309 3.30567 5.86743 3.29205C5.87264 3.27503 5.87915 3.25805 5.87915 3.23932C5.87911 3.16819 5.83773 3.10867 5.77856 3.07819C5.80176 3.0033 5.86988 2.9483 5.95239 2.9483ZM10.7649 2.9483C10.8472 2.94831 10.9134 3.00356 10.9368 3.07819C10.8783 3.10891 10.8382 3.16872 10.8381 3.23932C10.8381 3.25788 10.8428 3.27517 10.8479 3.29205C10.8226 3.30521 10.7954 3.31549 10.7649 3.31549C10.7222 3.31549 10.6847 3.29887 10.6536 3.27448C10.6559 3.26285 10.6614 3.25162 10.6614 3.23932C10.6614 3.19745 10.6449 3.16083 10.6213 3.12994C10.6447 3.09914 10.6614 3.06318 10.6614 3.02155C10.6614 3.00994 10.6566 2.99935 10.6545 2.98834C10.6855 2.96451 10.7228 2.9483 10.7649 2.9483ZM5.69556 3.20514C5.67695 3.20514 5.66138 3.22071 5.66138 3.23932C5.66157 3.25776 5.67707 3.27252 5.69556 3.27252C5.71401 3.27249 5.72856 3.25774 5.72876 3.23932C5.72876 3.22073 5.71414 3.20518 5.69556 3.20514ZM6.23853 3.20514C6.22012 3.20537 6.20532 3.22086 6.20532 3.23932C6.20552 3.25761 6.22024 3.27229 6.23853 3.27252C6.25701 3.27252 6.27251 3.25776 6.27271 3.23932C6.27271 3.22071 6.25713 3.20514 6.23853 3.20514ZM10.4778 3.20514C10.4593 3.20531 10.4446 3.22081 10.4446 3.23932C10.4448 3.25765 10.4594 3.27235 10.4778 3.27252C10.4963 3.27252 10.5118 3.25776 10.512 3.23932C10.512 3.22071 10.4964 3.20514 10.4778 3.20514ZM11.0217 3.20514C11.0031 3.20514 10.9875 3.22071 10.9875 3.23932C10.9877 3.25776 11.0032 3.27252 11.0217 3.27252C11.0401 3.27244 11.0547 3.25771 11.0549 3.23932C11.0549 3.22076 11.0403 3.20522 11.0217 3.20514ZM5.95239 3.09869C5.93378 3.0987 5.91821 3.11427 5.91821 3.13287C5.91847 3.15126 5.93394 3.16607 5.95239 3.16608C5.97084 3.16608 5.98632 3.15126 5.98657 3.13287C5.98657 3.11426 5.971 3.09869 5.95239 3.09869ZM10.7649 3.09869C10.7463 3.0987 10.7317 3.11427 10.7317 3.13287C10.732 3.15126 10.7464 3.16607 10.7649 3.16608C10.7833 3.16608 10.7988 3.15126 10.7991 3.13287C10.7991 3.11426 10.7835 3.09869 10.7649 3.09869ZM6.23853 2.83795C6.2998 2.83795 6.35164 2.86996 6.38501 2.91608C6.38431 2.92258 6.38111 2.92892 6.3811 2.93561C6.3811 2.97524 6.39687 3.01009 6.41821 3.0401C6.41472 3.07425 6.40265 3.10394 6.38306 3.12994C6.34957 3.08599 6.299 3.05585 6.2395 3.05573C6.19721 3.05573 6.15922 3.07175 6.12817 3.09576C6.11903 3.05111 6.09594 3.0138 6.06079 2.98737C6.07696 2.90261 6.14911 2.83816 6.23853 2.83795ZM10.4778 2.83795C10.5676 2.83795 10.6386 2.90313 10.6545 2.98834C10.6202 3.01477 10.5971 3.05172 10.5881 3.09576C10.5572 3.07196 10.5199 3.05573 10.4778 3.05573C10.418 3.05576 10.3668 3.08572 10.3333 3.12994C10.314 3.10424 10.3017 3.07471 10.2981 3.04108C10.32 3.01084 10.3362 2.97578 10.3362 2.93561C10.3362 2.92854 10.3321 2.92196 10.3313 2.9151C10.3646 2.86922 10.4168 2.83805 10.4778 2.83795ZM6.56567 2.75201C6.62724 2.75214 6.67892 2.78453 6.71216 2.83112C6.71648 2.85974 6.72748 2.8846 6.74341 2.90729C6.7449 2.91668 6.74926 2.92579 6.74927 2.93561C6.74927 3.03693 6.66695 3.11899 6.56567 3.1192C6.50385 3.1192 6.45151 3.08692 6.41821 3.0401C6.41885 3.03389 6.4231 3.02792 6.4231 3.02155C6.42309 2.98138 6.40688 2.94631 6.38501 2.91608C6.39492 2.82398 6.47094 2.75201 6.56567 2.75201ZM10.1526 2.75201C10.2468 2.75221 10.3209 2.82366 10.3313 2.9151C10.3093 2.94538 10.2942 2.98125 10.2942 3.02155C10.2942 3.02823 10.2974 3.03457 10.2981 3.04108C10.2648 3.0871 10.2137 3.11908 10.1526 3.1192C10.0511 3.1192 9.96802 3.03706 9.96802 2.93561C9.96802 2.92586 9.97143 2.91663 9.9729 2.90729C9.98855 2.88511 9.99861 2.86099 10.0032 2.83307C10.0363 2.78505 10.0898 2.75201 10.1526 2.75201ZM6.2395 2.98834C6.22089 2.98834 6.20532 3.00391 6.20532 3.02252C6.20558 3.04091 6.22105 3.05573 6.2395 3.05573C6.25773 3.05547 6.27245 3.04075 6.27271 3.02252C6.27271 3.00407 6.25789 2.9886 6.2395 2.98834ZM10.4788 2.98834C10.4602 2.98834 10.4446 3.00391 10.4446 3.02252C10.4448 3.04091 10.4603 3.05573 10.4788 3.05573C10.497 3.05547 10.5117 3.04075 10.512 3.02252C10.512 3.00407 10.4971 2.9886 10.4788 2.98834ZM6.89087 2.62018C6.93651 2.62018 6.97691 2.63853 7.00903 2.66608C6.99134 2.69428 6.9788 2.72604 6.97876 2.76178C6.97876 2.81702 7.00463 2.86482 7.04321 2.8985C7.01079 2.95056 6.95672 2.98737 6.89087 2.98737C6.82869 2.98733 6.77662 2.95459 6.74341 2.90729C6.73888 2.87868 6.72828 2.85372 6.71216 2.83112C6.7108 2.82209 6.70728 2.81318 6.70728 2.80377C6.70733 2.7024 6.7895 2.62023 6.89087 2.62018ZM9.82642 2.62018C9.92766 2.62039 10.01 2.7025 10.01 2.80377C10.01 2.81394 10.0048 2.82335 10.0032 2.83307C9.98791 2.85519 9.97725 2.8796 9.9729 2.90729C9.93972 2.95433 9.88833 2.98724 9.82642 2.98737C9.76074 2.98737 9.70557 2.95131 9.6731 2.89948C9.71222 2.86579 9.73853 2.81746 9.73853 2.76178C9.73848 2.7259 9.7251 2.69435 9.70728 2.66608C9.73946 2.63832 9.78058 2.62018 9.82642 2.62018ZM6.5647 2.9024C6.54641 2.90259 6.53175 2.91734 6.53149 2.93561C6.53149 2.9541 6.54625 2.9696 6.5647 2.96979C6.58331 2.96979 6.59888 2.95422 6.59888 2.93561C6.59863 2.91721 6.58315 2.9024 6.5647 2.9024ZM10.1516 2.9024C10.1333 2.90262 10.1187 2.91735 10.1184 2.93561C10.1184 2.95408 10.1332 2.96957 10.1516 2.96979C10.1702 2.96979 10.1858 2.95422 10.1858 2.93561C10.1855 2.91722 10.1701 2.9024 10.1516 2.9024ZM7.16235 2.57819C7.20316 2.57821 7.2393 2.59374 7.26978 2.61627C7.2582 2.64032 7.25124 2.6669 7.25122 2.69537C7.25122 2.75529 7.28203 2.8054 7.32642 2.83893C7.29711 2.90137 7.23588 2.94533 7.16235 2.94537C7.11614 2.94537 7.0755 2.92667 7.04321 2.8985C7.06075 2.87035 7.07446 2.83937 7.07446 2.80377C7.07443 2.748 7.04829 2.69975 7.00903 2.66608C7.04152 2.6143 7.09672 2.57819 7.16235 2.57819ZM9.55493 2.57819C9.62038 2.57822 9.67477 2.61452 9.70728 2.66608C9.66825 2.69974 9.64285 2.74819 9.64282 2.80377C9.64282 2.83954 9.65541 2.87124 9.6731 2.89948C9.64096 2.92715 9.60066 2.94535 9.55493 2.94537C9.48124 2.94537 9.41916 2.90156 9.38989 2.83893C9.43456 2.80542 9.46606 2.75551 9.46606 2.69537C9.46605 2.6671 9.45796 2.64117 9.44653 2.61725C9.47721 2.59426 9.51365 2.57819 9.55493 2.57819ZM7.43481 2.51178C7.53614 2.51189 7.61835 2.59403 7.61841 2.69537C7.61841 2.79676 7.53618 2.87886 7.43481 2.87897C7.39328 2.87897 7.35719 2.86218 7.32642 2.83893C7.33753 2.81526 7.34595 2.78966 7.34595 2.76178C7.34588 2.70126 7.31498 2.64969 7.26978 2.61627C7.29943 2.55467 7.36187 2.51178 7.43481 2.51178ZM9.28247 2.51178C9.3556 2.51179 9.41698 2.55538 9.44653 2.61725C9.40187 2.65072 9.37141 2.70169 9.37134 2.76178C9.37134 2.78954 9.37887 2.81534 9.38989 2.83893C9.35921 2.86195 9.32378 2.87896 9.28247 2.87897C9.18102 2.87897 9.09888 2.79683 9.09888 2.69537C9.09893 2.59397 9.18105 2.51178 9.28247 2.51178ZM6.89087 2.77057C6.87252 2.77071 6.85788 2.78544 6.85767 2.80377C6.85767 2.82229 6.87238 2.83781 6.89087 2.83795C6.90948 2.83795 6.92505 2.82238 6.92505 2.80377C6.92484 2.78535 6.90935 2.77057 6.89087 2.77057ZM9.82544 2.77057C9.80719 2.77083 9.79245 2.78551 9.79224 2.80377C9.79224 2.82222 9.80705 2.83769 9.82544 2.83795C9.84405 2.83795 9.85962 2.82238 9.85962 2.80377C9.85941 2.78535 9.84392 2.77057 9.82544 2.77057ZM7.16235 2.72858C7.14375 2.72858 7.12817 2.74415 7.12817 2.76276C7.12843 2.78114 7.14391 2.79596 7.16235 2.79596C7.1808 2.79596 7.19628 2.78115 7.19653 2.76276C7.19653 2.74415 7.18096 2.72858 7.16235 2.72858ZM9.55493 2.72858C9.53632 2.72858 9.52173 2.74415 9.52173 2.76276C9.52199 2.78114 9.53649 2.79596 9.55493 2.79596C9.57338 2.79596 9.58886 2.78115 9.58911 2.76276C9.58911 2.74415 9.57354 2.72858 9.55493 2.72858ZM7.43481 2.66217C7.41621 2.66217 7.40063 2.67774 7.40063 2.69635C7.40089 2.71474 7.41637 2.72955 7.43481 2.72955C7.45326 2.72955 7.46874 2.71474 7.46899 2.69635C7.46899 2.67774 7.45342 2.66217 7.43481 2.66217ZM9.28247 2.66217C9.26386 2.66217 9.24927 2.67774 9.24927 2.69635C9.24953 2.71473 9.26403 2.72955 9.28247 2.72955C9.30092 2.72955 9.31639 2.71474 9.31665 2.69635C9.31665 2.67774 9.30108 2.66217 9.28247 2.66217Z" fill="white"/>
<path fill-rule="evenodd" clip-rule="evenodd" d="M8.3263 1.61283L8.32589 1.88165L8.61579 1.88183L8.61948 2.04195L8.32555 2.04176L8.32655 2.34043L8.16525 2.34341L8.16544 2.04142L7.87174 2.04219L7.86782 1.88112L8.16554 1.88037L8.165 1.6158L8.3263 1.61283Z" fill="#F6C540"/>
<path fill-rule="evenodd" clip-rule="evenodd" d="M4.33838 6.55078H12.1384V13.1759C12.1384 13.1759 11.9025 16.476 8.23838 16.476C4.57426 16.476 4.33838 13.1759 4.33838 13.1759V6.55078Z" fill="#C51918"/>
<path fill-rule="evenodd" clip-rule="evenodd" d="M6.69278 6.7793C6.62125 6.7793 6.51115 6.83067 6.36521 6.88883C6.21926 6.947 6.066 7.07259 6.2156 7.19838C6.36521 7.32417 6.57938 7.60025 6.57938 7.49703C6.57938 7.3938 6.83522 7.29372 6.83522 7.34376C6.83522 7.3938 6.75601 7.49703 6.96378 7.49703C7.17156 7.49703 7.2786 7.55841 7.05691 7.55841C6.83522 7.55841 6.81113 7.65982 6.66705 7.65982C6.52298 7.65982 6.2156 7.55765 6.2156 7.49703C6.2156 7.4364 6.39361 7.79507 6.57938 7.79507C6.76514 7.79507 6.87066 7.96957 6.96378 7.88232C7.05691 7.79507 7.04589 7.79507 7.19634 7.79507C7.34679 7.79507 7.29188 7.44268 7.29188 7.44268C7.29188 7.44268 6.7643 6.7793 6.69278 6.7793Z" fill="#E8AA00"/>
<path fill-rule="evenodd" clip-rule="evenodd" d="M9.70285 6.7793C9.77438 6.7793 9.88448 6.83067 10.0304 6.88883C10.1764 6.947 10.3296 7.07259 10.18 7.19838C10.0304 7.32417 9.81625 7.60025 9.81625 7.49703C9.81625 7.3938 9.56041 7.29372 9.56041 7.34376C9.56041 7.3938 9.63962 7.49703 9.43185 7.49703C9.22407 7.49703 9.11703 7.55841 9.33872 7.55841C9.56041 7.55841 9.5845 7.65982 9.72858 7.65982C9.87265 7.65982 10.18 7.55765 10.18 7.49703C10.18 7.4364 10.002 7.79507 9.81625 7.79507C9.63049 7.79507 9.52497 7.96957 9.43185 7.88232C9.33872 7.79507 9.34974 7.79507 9.19929 7.79507C9.04884 7.79507 9.10375 7.44268 9.10375 7.44268C9.10375 7.44268 9.63133 6.7793 9.70285 6.7793Z" fill="#E8AA00"/>
<path fill-rule="evenodd" clip-rule="evenodd" d="M9.46387 6.76132C9.66241 6.76131 9.74337 6.74636 9.66211 6.85507C9.58031 6.96415 9.24071 7.27655 9.16406 7.4996C9.08752 7.72293 9.13863 7.68886 9.06348 7.87851C8.98829 8.06822 8.75637 8.26685 8.98828 8.51718C9.22018 8.76751 9.44331 9.14413 9.53418 9.14413H9.66211C9.66211 9.14413 10.8087 7.84829 10.6592 7.4996C10.5096 7.15101 10.1227 6.85513 10.3906 6.85507C10.6587 6.85507 11.7275 7.53223 11.7275 9.06015C11.7275 10.5881 11.6286 11.4572 11.3994 12.066C11.1706 12.6744 11.5845 13.2571 11.585 13.5289C11.585 13.8004 11.1645 13.5632 11.1641 13.3932C11.1641 13.223 10.9092 13.9427 10.9092 13.7359C10.909 13.5292 10.6953 13.3016 10.6953 13.1734C10.695 13.0456 10.3907 13.2189 10.3906 13.0123C10.3906 12.8055 10.1777 13.0366 10.1777 12.4742C10.1776 11.9769 9.98633 12.7735 9.91699 12.4742C9.90765 12.4383 9.71984 12.1381 9.67285 12.0162L9.69531 12.0953C9.78316 12.3732 9.94685 12.6482 10.0547 12.7857C10.1758 12.9403 10.3832 13.2719 10.3906 13.2838C10.3906 13.2838 10.1923 13.3944 10.0547 13.2838C9.91742 13.1738 10.0091 13.4469 9.91699 13.4469C9.87079 13.4469 9.82949 13.4607 9.7998 13.4605C9.77513 13.3981 9.75195 13.3553 9.75195 13.3932C9.75202 13.447 9.77039 13.4604 9.7998 13.4605C9.84598 13.5775 9.89074 13.7658 9.75195 13.6402C9.53921 13.4478 9.464 13.5015 9.46387 13.3932C9.46387 13.2845 9.38837 13.4469 9.29883 13.4469C9.2094 13.4467 9.23815 13.239 9.16406 13.0123C9.08994 12.7856 9.06332 12.6522 8.98828 12.9127C8.91325 13.1733 8.70344 13.2544 8.77246 13.4469C8.84173 13.6395 8.98828 13.9435 8.98828 14.1685C8.9883 14.3936 9.43363 14.7965 9.29883 14.9039C9.16447 15.0115 9.3275 15.3727 9.46387 15.5582C9.6002 15.7437 9.57756 15.9701 9.37109 15.9703C9.16437 15.9703 9.12976 16.107 8.98828 16.107C8.85169 16.1069 8.7772 16.042 8.77246 16.0377C8.77246 16.0377 8.68488 16.1693 8.54004 16.1695C8.39758 16.1695 8.36631 16.0423 8.36523 16.0377L8.03516 16.1695V15.5582L8.02637 16.1695L7.91895 16.0377C7.91798 16.0418 7.88687 16.1695 7.74414 16.1695C7.59923 16.1694 7.51172 16.0377 7.51172 16.0377C7.50759 16.0414 7.43239 16.107 7.29492 16.107C7.15383 16.1067 7.11959 15.9703 6.91309 15.9703C6.7065 15.9702 6.68391 15.7437 6.82031 15.5582C6.95666 15.3728 7.11959 15.0116 6.98535 14.9039C6.85055 14.7965 7.2949 14.3936 7.29492 14.1685C7.29492 13.9435 7.44245 13.6395 7.51172 13.4469C7.58071 13.2544 7.36995 13.1733 7.29492 12.9127C7.21993 12.6525 7.19422 12.7856 7.12012 13.0123C7.04604 13.2389 7.07465 13.4466 6.98535 13.4469C6.89581 13.4469 6.82031 13.2845 6.82031 13.3932C6.82018 13.5014 6.74492 13.4479 6.53223 13.6402C6.39342 13.7658 6.4382 13.5775 6.48438 13.4605C6.51372 13.4604 6.53216 13.447 6.53223 13.3932C6.53223 13.3553 6.50904 13.3981 6.48438 13.4605C6.45471 13.4607 6.4134 13.4469 6.36719 13.4469C6.27512 13.4469 6.36666 13.1739 6.22949 13.2838C6.09186 13.3944 5.89355 13.2838 5.89355 13.2838C5.90145 13.2711 6.10855 12.94 6.22949 12.7857C6.33733 12.6482 6.50102 12.3732 6.58887 12.0953L6.61133 12.0162C6.56437 12.1381 6.37662 12.4382 6.36719 12.4742C6.29785 12.7735 6.10656 11.9769 6.10645 12.4742C6.10645 13.0366 5.89355 12.8055 5.89355 13.0123C5.89348 13.2189 5.58915 13.0456 5.58887 13.1734C5.58887 13.3016 5.37516 13.5292 5.375 13.7359C5.375 13.9427 5.12012 13.223 5.12012 13.3932C5.11964 13.5632 4.69922 13.8004 4.69922 13.5289C4.69968 13.2571 5.11359 12.6744 4.88477 12.066C4.65563 11.4572 4.55664 10.5881 4.55664 9.06015C4.55665 7.53223 5.62548 6.85507 5.89355 6.85507C6.16121 6.85521 5.77454 7.15107 5.625 7.4996C5.47548 7.84829 6.62207 9.14413 6.62207 9.14413H6.75C6.84082 9.14413 7.06316 8.76751 7.29492 8.51718C7.52683 8.26685 7.29491 8.06822 7.21973 7.87851C7.14475 7.68919 7.19662 7.72282 7.12012 7.4996C7.0435 7.27658 6.70394 6.9642 6.62207 6.85507C6.54079 6.74634 6.62169 6.76132 6.82031 6.76132C7.01893 6.76132 7.39816 6.85476 7.51172 6.96347C7.62511 7.07217 7.74429 7.09529 7.91895 7.09531C8.09369 7.09531 7.98627 7.21308 7.82715 7.29257C7.99973 7.32575 8.07553 7.61568 8.11035 7.8707C8.17469 7.61561 8.28435 7.32566 8.45703 7.29257C8.29787 7.21308 8.19046 7.09531 8.36523 7.09531C8.53983 7.09528 8.65909 7.07215 8.77246 6.96347C8.88609 6.85478 9.26529 6.76132 9.46387 6.76132Z" fill="#F7FCFF"/>
<path fill-rule="evenodd" clip-rule="evenodd" d="M6.40977 15.5859L6.54747 14.1943C6.61822 14.2636 6.68962 14.3457 6.69005 14.3984C6.69005 14.5038 6.59434 14.6929 6.59434 14.752C6.59474 14.8092 6.68026 14.5178 6.82188 14.6348C6.96331 14.752 6.95373 14.9277 6.95372 15.0293C6.95372 15.1309 6.95347 14.9106 6.82188 14.9102C6.69269 14.9102 6.59822 15.0245 6.59434 15.0293V15.2334C6.59434 15.2334 6.6114 15.4016 6.69005 15.3174C6.76824 15.2343 6.78475 15.4213 6.69005 15.4219C6.5947 15.4219 6.49354 15.62 6.40587 15.6201L6.40782 15.6025C6.32187 15.5985 6.26774 15.4219 6.17345 15.4219C6.07857 15.4214 6.09516 15.2341 6.17345 15.3174C6.25209 15.4016 6.26915 15.2334 6.26915 15.2334V15.0293C6.26621 15.0257 6.17148 14.9102 6.04161 14.9102C5.90989 14.9104 5.9088 15.1309 5.9088 15.0293C5.90879 14.9277 5.9001 14.752 6.04161 14.6348C6.18324 14.5178 6.26875 14.8092 6.26915 14.752C6.26915 14.6929 6.14122 14.5068 6.14122 14.4014C6.14144 14.3487 6.20873 14.2616 6.27599 14.1875L6.40977 15.5859Z" fill="#E8AA00"/>
<path fill-rule="evenodd" clip-rule="evenodd" d="M9.9962 15.5859L10.1349 14.1943C10.2056 14.2636 10.277 14.3457 10.2774 14.3984C10.2774 14.5038 10.1817 14.6929 10.1817 14.752C10.1821 14.8092 10.2677 14.5178 10.4093 14.6348C10.5507 14.752 10.5411 14.9277 10.5411 15.0293C10.5411 15.1309 10.5409 14.9105 10.4093 14.9102C10.28 14.9102 10.1855 15.0247 10.1817 15.0293V15.2334C10.1817 15.2334 10.1988 15.4016 10.2774 15.3174C10.3557 15.2343 10.3722 15.4213 10.2774 15.4219C10.1821 15.4219 10.081 15.62 9.99327 15.6201L9.99425 15.6025C9.90887 15.5972 9.85478 15.4219 9.76085 15.4219C9.666 15.4214 9.68258 15.2341 9.76085 15.3174C9.83949 15.4016 9.85655 15.2334 9.85655 15.2334V15.0293C9.85347 15.0255 9.75878 14.9102 9.62901 14.9102C9.49731 14.9104 9.4962 15.1309 9.4962 15.0293C9.49619 14.9277 9.48751 14.752 9.62901 14.6348C9.77064 14.5178 9.85615 14.8092 9.85655 14.752C9.85655 14.6929 9.72862 14.5068 9.72862 14.4014C9.72884 14.3487 9.79613 14.2616 9.86339 14.1875L9.9962 15.5859Z" fill="#E8AA00"/>
<path fill-rule="evenodd" clip-rule="evenodd" d="M6.16139 13.3115C6.16201 13.3108 6.36346 13.1031 6.36354 13.2568C6.36354 13.4107 6.16221 13.64 6.22682 13.6406H6.55983C6.83413 13.6406 6.51203 13.7688 6.36354 13.8261C6.21522 13.8834 6.16177 13.8807 6.01491 13.9443C5.86788 14.008 5.80415 14.4278 5.87233 14.5625C5.94032 14.6968 5.80477 14.6401 5.74831 14.5625C5.69199 14.4847 5.66314 14.7393 5.55983 14.8652C5.45638 14.991 5.47388 14.8409 5.47389 14.5625C5.47389 14.2838 5.55986 14.4277 5.66335 14.3447C5.76664 14.2617 5.74868 14.2322 5.80495 14.0693C5.86131 13.9062 5.55903 14.164 5.47389 14.2861C5.38895 14.4077 5.34648 14.3519 5.19753 14.4277C5.04838 14.5037 5.19733 14.2252 5.19753 14.0693C5.19753 13.9135 5.34613 14.069 5.47389 14.0693C5.60173 14.0693 5.66496 14.0122 5.74831 13.9443C5.83143 13.8765 5.55888 13.9271 5.34596 13.9443C5.13359 13.9614 5.26151 13.9269 5.02956 13.8261C4.79851 13.7256 5.17867 13.7689 5.34596 13.8261C5.51306 13.8834 5.63224 13.7686 5.87233 13.7685C6.11269 13.7685 6.16139 13.3115 6.16139 13.3115ZM10.0432 13.2568C10.0433 13.1028 10.2454 13.3115 10.2454 13.3115C10.2454 13.3115 10.2935 13.768 10.5335 13.7685C10.7737 13.7685 10.8928 13.8832 11.0598 13.8261C11.227 13.7688 11.6083 13.7252 11.3762 13.8261C11.1445 13.9269 11.2727 13.9615 11.0598 13.9443C10.8469 13.9271 10.5752 13.8765 10.6585 13.9443C10.7417 14.0121 10.8044 14.0691 10.9319 14.0693C11.0597 14.0693 11.2092 13.9134 11.2092 14.0693C11.2094 14.2252 11.3584 14.5037 11.2092 14.4277C11.0601 14.3517 11.017 14.4082 10.9319 14.2861C10.8467 14.1639 10.5455 13.9062 10.6018 14.0693C10.6581 14.2322 10.64 14.2617 10.7434 14.3447C10.8469 14.4277 10.9319 14.2838 10.9319 14.5625C10.9319 14.8409 10.9504 14.991 10.8469 14.8652C10.7436 14.7393 10.7148 14.4847 10.6585 14.5625C10.6021 14.6401 10.4659 14.6965 10.5335 14.5625C10.6016 14.4278 10.5389 14.008 10.3919 13.9443C10.2449 13.8806 10.1916 13.8834 10.0432 13.8261C9.89479 13.7688 9.57256 13.6406 9.84694 13.6406H10.1799C10.2441 13.6396 10.0432 13.4106 10.0432 13.2568Z" fill="#E8AA00"/>
<path fill-rule="evenodd" clip-rule="evenodd" d="M6.78491 9.25568H9.69155V11.9064C9.69155 11.9064 9.37952 13.2268 8.23823 13.2268C7.09694 13.2268 6.78491 11.9064 6.78491 11.9064V9.25568Z" fill="#C51918"/>
<path fill-rule="evenodd" clip-rule="evenodd" d="M8.63013 10.7391H9.71704V11.283H8.63013V13.2391H7.86938V11.283H6.78247V10.7391H7.86938V9.21759H8.63013V10.7391Z" fill="#F7FCFF"/>
<path fill-rule="evenodd" clip-rule="evenodd" d="M7.28739 11.4998C7.55165 11.4998 7.68177 11.5335 7.68192 11.6589V11.9539C7.68179 11.97 7.67404 11.9854 7.66141 11.9968L7.65457 12.0027C7.67076 12.0139 7.68192 12.0317 7.68192 12.0515V12.3455C7.68192 12.3622 7.67387 12.3788 7.66043 12.3904C7.57296 12.4656 7.48453 12.5056 7.39578 12.5056C7.16578 12.5055 7.0074 12.4 7.00223 12.2498C7.005 12.1623 7.00837 12.1377 7.03446 12.1082C7.07005 12.0679 7.11572 12.0662 7.18094 12.0857C7.29143 12.0625 7.35851 12.1302 7.35575 12.2488C7.35493 12.2825 7.32375 12.3099 7.28641 12.3093C7.24907 12.3086 7.21946 12.2805 7.22 12.2468C7.22122 12.1967 7.22521 12.2003 7.20145 12.2078C7.18632 12.2125 7.16953 12.212 7.15457 12.2068C7.14939 12.205 7.14414 12.2032 7.13993 12.2019C7.13923 12.2125 7.13867 12.2286 7.13797 12.2498C7.14069 12.3217 7.23254 12.3825 7.39578 12.3826C7.43938 12.3826 7.48956 12.3624 7.5452 12.3191V12.113H7.50516C7.44464 12.113 7.41451 12.0472 7.45731 12.0085L7.5452 11.9285V11.6589C7.54451 11.6418 7.46953 11.6228 7.28739 11.6228C7.18734 11.6228 7.14414 11.6422 7.13602 11.6736C7.12758 11.7856 7.13793 11.8034 7.15555 11.7976C7.17005 11.7928 7.18585 11.7931 7.20047 11.7976C7.21671 11.8026 7.2309 11.8064 7.24246 11.8093C7.24493 11.8074 7.24842 11.8051 7.25125 11.8035C7.28276 11.7855 7.32482 11.7937 7.345 11.822C7.3835 11.8761 7.34848 11.9381 7.27567 11.9382C7.2517 11.9382 7.22014 11.9318 7.17801 11.9197C7.04209 11.9512 6.98695 11.8406 7.00223 11.655C7.02958 11.5462 7.13162 11.4998 7.28739 11.4998ZM9.24149 11.4998C9.39732 11.4998 9.49929 11.5462 9.52664 11.655C9.54194 11.8407 9.48692 11.9514 9.35086 11.9197C9.30874 11.9318 9.27717 11.9382 9.25321 11.9382C9.18051 11.938 9.14633 11.8761 9.18485 11.822C9.20522 11.7938 9.24715 11.7852 9.2786 11.8035C9.28139 11.8051 9.28397 11.8074 9.28641 11.8093C9.29798 11.8064 9.31214 11.8026 9.3284 11.7976C9.34297 11.7931 9.35885 11.7929 9.37332 11.7976C9.39094 11.8034 9.4013 11.7856 9.39285 11.6736C9.38473 11.6422 9.34163 11.6228 9.24149 11.6228C9.05938 11.6228 8.98434 11.6418 8.98368 11.6589V11.9285L9.07254 12.0085C9.1148 12.0472 9.08406 12.113 9.02371 12.113H8.98368V12.3191C9.03937 12.3624 9.08946 12.3826 9.13309 12.3826C9.29646 12.3825 9.38818 12.3217 9.3909 12.2498C9.3902 12.2286 9.38964 12.2125 9.38895 12.2019C9.38473 12.2032 9.37948 12.205 9.3743 12.2068C9.35955 12.2118 9.34334 12.2123 9.3284 12.2078C9.3044 12.2002 9.30863 12.1965 9.30985 12.2468C9.31038 12.2804 9.2806 12.3084 9.24344 12.3093C9.20593 12.3101 9.17492 12.2826 9.1741 12.2488C9.17133 12.1302 9.23744 12.0625 9.34793 12.0857C9.41316 12.0661 9.45882 12.0679 9.49442 12.1082C9.52057 12.1377 9.52387 12.1622 9.52664 12.2498C9.52147 12.4 9.3632 12.5055 9.13309 12.5056C9.04431 12.5056 8.95595 12.4657 8.86844 12.3904C8.855 12.3788 8.84793 12.3622 8.84793 12.3455V12.0515C8.84793 12.0317 8.85812 12.0139 8.8743 12.0027L8.86746 11.9968C8.85484 11.9854 8.84806 11.97 8.84793 11.9539V11.6589C8.84808 11.5335 8.97728 11.4998 9.24149 11.4998ZM7.28739 9.5437C7.55165 9.5437 7.68177 9.57741 7.68192 9.70288V9.9978C7.68179 10.0139 7.67404 10.0294 7.66141 10.0408L7.65457 10.0466C7.67076 10.0578 7.68192 10.0756 7.68192 10.0955V10.3894C7.68192 10.4062 7.67387 10.4228 7.66043 10.4343C7.57297 10.5096 7.48452 10.5496 7.39578 10.5496C7.16579 10.5494 7.0074 10.4439 7.00223 10.2937C7.005 10.2062 7.00838 10.1816 7.03446 10.1521C7.07004 10.1119 7.11574 10.1101 7.18094 10.1296C7.29143 10.1064 7.35851 10.1741 7.35575 10.2927C7.35493 10.3265 7.32376 10.3538 7.28641 10.3533C7.24907 10.3525 7.21946 10.3244 7.22 10.2908C7.22122 10.2406 7.22525 10.2442 7.20145 10.2517C7.18631 10.2565 7.16954 10.2559 7.15457 10.2507C7.14939 10.2489 7.14414 10.2471 7.13993 10.2458C7.13923 10.2564 7.13867 10.2726 7.13797 10.2937C7.14069 10.3656 7.23256 10.4264 7.39578 10.4265C7.4395 10.4265 7.49034 10.4066 7.54618 10.363V10.157H7.50516C7.44464 10.157 7.41451 10.0911 7.45731 10.0525L7.54618 9.97241V9.70288C7.54559 9.68572 7.46965 9.66675 7.28739 9.66675C7.18736 9.66677 7.14414 9.6862 7.13602 9.71753C7.12758 9.82953 7.13793 9.84738 7.15555 9.84155C7.17005 9.83679 7.18585 9.8371 7.20047 9.84155C7.21669 9.84652 7.23091 9.85037 7.24246 9.85327C7.24493 9.85133 7.24842 9.84906 7.25125 9.84741C7.28276 9.82945 7.32482 9.83762 7.345 9.86597C7.38352 9.9201 7.34851 9.98209 7.27567 9.98218C7.2517 9.98218 7.22014 9.97571 7.17801 9.96362C7.04211 9.99514 6.98695 9.88451 7.00223 9.69897C7.02958 9.59019 7.13164 9.54373 7.28739 9.5437ZM9.24149 9.5437C9.3972 9.54374 9.4993 9.5902 9.52664 9.69897C9.54193 9.88453 9.48677 9.99514 9.35086 9.96362C9.30916 9.97557 9.27802 9.9821 9.25418 9.98218C9.18122 9.98218 9.14626 9.92015 9.18485 9.86597C9.20515 9.83773 9.24714 9.8293 9.2786 9.84741C9.28135 9.84904 9.28401 9.85139 9.28641 9.85327C9.29788 9.8504 9.31233 9.84646 9.3284 9.84155C9.34304 9.83711 9.3598 9.83675 9.3743 9.84155C9.39168 9.847 9.40124 9.82875 9.39285 9.71753C9.38474 9.6862 9.34147 9.66678 9.24149 9.66675C9.05963 9.66678 8.98432 9.68574 8.98368 9.70288V9.97241L9.07254 10.0525C9.11486 10.0911 9.08486 10.1567 9.02469 10.157H8.98368V10.363C9.03934 10.4064 9.08948 10.4265 9.13309 10.4265C9.29648 10.4265 9.38917 10.3656 9.39188 10.2937C9.39118 10.2726 9.38964 10.2564 9.38895 10.2458C9.38487 10.2471 9.38026 10.249 9.37528 10.2507C9.36041 10.2559 9.34347 10.2564 9.3284 10.2517C9.3044 10.2442 9.30863 10.2405 9.30985 10.2908C9.31038 10.3243 9.28068 10.3524 9.24344 10.3533C9.20593 10.354 9.17493 10.3266 9.1741 10.2927C9.17134 10.1742 9.23762 10.1066 9.34793 10.1296C9.41296 10.1102 9.45888 10.1121 9.49442 10.1521C9.52049 10.1816 9.52485 10.2062 9.52762 10.2937C9.52246 10.444 9.36321 10.5495 9.13309 10.5496C9.04452 10.5495 8.95672 10.5093 8.86942 10.4343C8.85598 10.4228 8.84793 10.4062 8.84793 10.3894V10.0955C8.84793 10.0757 8.85817 10.0578 8.8743 10.0466L8.86746 10.0408C8.85495 10.0294 8.84806 10.0138 8.84793 9.9978V9.70288C8.84808 9.57749 8.97754 9.54374 9.24149 9.5437Z" fill="#F7FCFF"/>
</g>
</g>
</svg>
