<svg width="24" height="18" viewBox="0 0 24 18" fill="none" xmlns="http://www.w3.org/2000/svg">
<mask id="mask0_395_51883" style="mask-type:luminance" maskUnits="userSpaceOnUse" x="0" y="0" width="24" height="18">
<rect width="24" height="18" fill="white"/>
</mask>
<g mask="url(#mask0_395_51883)">
<path fill-rule="evenodd" clip-rule="evenodd" d="M0 0V18H24V0H0Z" fill="#2E42A5"/>
<mask id="mask1_395_51883" style="mask-type:luminance" maskUnits="userSpaceOnUse" x="0" y="0" width="24" height="18">
<path fill-rule="evenodd" clip-rule="evenodd" d="M0 0V18H24V0H0Z" fill="white"/>
</mask>
<g mask="url(#mask1_395_51883)">
<path fill-rule="evenodd" clip-rule="evenodd" d="M0 0V6H24V0H0Z" fill="#F7FCFF"/>
<path fill-rule="evenodd" clip-rule="evenodd" d="M0 12V18H24V12H0Z" fill="#C51918"/>
<path fill-rule="evenodd" clip-rule="evenodd" d="M10.3051 3.7767C10.3051 3.7767 8.72651 3.03125 6.76316 3.03125C4.79981 3.03125 3.22125 3.7767 3.22125 3.7767C3.22125 3.7767 3.39692 6.77274 3.67457 8.35989C3.79312 9.03755 4.36292 10.0259 4.87877 10.4937C5.46675 11.027 6.76316 11.6587 6.76316 11.6587C7.13831 11.4002 7.83976 11.2839 8.73634 10.4937C9.63291 9.70357 9.85576 8.35989 9.85576 8.35989L10.3051 3.7767Z" fill="#2E42A5"/>
<path d="M10.0963 3.67877L10.7537 4.00706L10.3025 8.52403C10.1444 9.48003 9.7489 10.2339 9.11644 10.7913C8.77335 11.0937 8.43846 11.3196 8.0794 11.5073C7.87674 11.6133 7.02898 12.05 7.03636 12.0464C6.95142 12.0874 6.88701 12.1232 6.83469 12.1593L6.7527 12.2158L6.66417 12.1726C5.7861 11.7448 4.96687 11.169 4.55976 10.7998C4.00403 10.2958 3.41806 9.2645 3.29314 8.55039C3.10635 7.48266 2.93884 6.01197 2.82129 4.00706L3.41184 3.69811C3.52851 5.68792 3.66935 7.2741 3.85276 8.32257C3.96128 8.94289 4.50162 9.89388 4.99454 10.3409C5.35884 10.6713 5.94574 11.0376 6.7527 11.436C6.80083 11.4078 6.85418 11.3799 6.9152 11.3505C6.91692 11.3496 7.46585 11.1059 7.65663 11.0061C7.99124 10.8312 8.30226 10.6214 8.62248 10.3391C9.18391 9.84434 9.53432 9.17798 9.67603 8.33146L10.0963 3.67877Z" fill="#C51918"/>
<path fill-rule="evenodd" clip-rule="evenodd" d="M7.6123 9.75098C7.67845 9.74534 7.74109 9.7593 7.81348 9.79883C8.01064 9.90646 8.23779 9.97134 8.44434 9.98145C8.39572 10.0442 8.34763 10.1044 8.29883 10.1592C7.73785 10.7888 6.75311 11.0903 6.73535 11.0957C6.72716 11.0925 5.8947 10.7693 5.2207 10.1123C5.20537 10.0974 5.19082 10.0809 5.17578 10.0654C5.35554 10.0709 5.48665 10.0254 5.57031 9.91797C5.6201 9.85421 5.7704 9.79121 5.94238 9.76465C6.02275 9.75226 6.09999 9.74949 6.1582 9.75586C6.18368 9.75865 6.20395 9.76254 6.2168 9.76758C6.36187 9.98633 6.73367 10.102 7.08398 9.95605L7.04102 9.96484C7.16149 9.92387 7.37582 9.82496 7.39551 9.81641C7.48951 9.77573 7.55382 9.75597 7.6123 9.75098ZM7.79688 9.22168C7.87852 9.21568 7.95556 9.23085 8.04297 9.27246C8.28163 9.3861 8.55909 9.45117 8.80371 9.45312C8.75141 9.53775 8.69671 9.62134 8.6416 9.70312C8.45118 9.74668 8.15788 9.69191 7.9209 9.5625C7.80994 9.50192 7.70424 9.47792 7.59375 9.4873C7.50632 9.49476 7.42118 9.52075 7.30664 9.57031C7.28372 9.58025 7.07096 9.67858 6.99805 9.70898L7.04102 9.7002C6.74379 9.81473 6.48346 9.73012 6.40918 9.60742C6.27659 9.38859 5.58273 9.49547 5.38672 9.74609C5.33452 9.81309 5.17709 9.8229 4.91699 9.75781C4.85684 9.67658 4.80056 9.59246 4.74707 9.50781C5.08308 9.56883 5.31141 9.53773 5.43848 9.39551C5.49871 9.32826 5.67706 9.26262 5.87988 9.23535C5.97439 9.22267 6.06524 9.21992 6.13477 9.22656C6.16662 9.22961 6.19267 9.23425 6.20996 9.24023C6.21581 9.24225 6.21446 9.24214 6.20703 9.23145C6.36161 9.45402 6.78445 9.57347 7.18262 9.42871L7.14453 9.43555C7.27137 9.39651 7.51722 9.2973 7.53906 9.28906C7.64941 9.24743 7.72594 9.22695 7.79688 9.22168ZM7.60449 7.57227L8.12793 7.00488L9.44434 8.26855C9.43759 8.28313 9.24068 8.70297 8.96875 9.17676C8.74195 9.21561 8.4095 9.15778 8.13965 9.0293C8.01696 8.9709 7.90102 8.94907 7.78027 8.95801C7.68386 8.96517 7.58877 8.99046 7.45996 9.03906C7.43339 9.04912 7.18949 9.14719 7.10547 9.17773L7.14453 9.1709C6.80273 9.28806 6.48973 9.1993 6.40039 9.07129C6.2562 8.86362 5.48356 8.96705 5.26562 9.20996C5.19048 9.29407 4.95304 9.29683 4.56445 9.19434C4.30547 8.71252 4.16134 8.28401 4.15625 8.26855L5.44922 7.00488L6.00781 7.57227L6.73535 6.33301L7.60449 7.57227Z" fill="white"/>
<path fill-rule="evenodd" clip-rule="evenodd" d="M5.35986 4.41447H4.83252L5.24152 4.03131L4.83252 3.62642H5.35986L5.58252 3.2334L5.80608 3.62642H6.33252L5.94396 4.00699L6.28898 4.41447H5.80608L5.58252 4.82922L5.35986 4.41447Z" fill="#FECA00"/>
<path fill-rule="evenodd" clip-rule="evenodd" d="M7.84521 4.41447H7.31787L7.72688 4.03131L7.31787 3.62642H7.84521L8.06787 3.2334L8.29143 3.62642H8.81787L8.42932 4.00699L8.77433 4.41447H8.29143L8.06787 4.82922L7.84521 4.41447Z" fill="#FECA00"/>
<path fill-rule="evenodd" clip-rule="evenodd" d="M6.44977 5.67515H5.92242L6.33143 5.29199L5.92242 4.8871H6.44977L6.67242 4.49408L6.89598 4.8871H7.42242L7.03387 5.26767L7.37888 5.67515H6.89598L6.67242 6.0899L6.44977 5.67515Z" fill="#FECA00"/>
</g>
</g>
</svg>
