<svg width="24" height="18" viewBox="0 0 24 18" fill="none" xmlns="http://www.w3.org/2000/svg">
<mask id="mask0_395_51874" style="mask-type:luminance" maskUnits="userSpaceOnUse" x="0" y="0" width="24" height="18">
<rect width="24" height="18" fill="white"/>
</mask>
<g mask="url(#mask0_395_51874)">
<path fill-rule="evenodd" clip-rule="evenodd" d="M0 0V18H24V0H0Z" fill="#E31D1C"/>
<mask id="mask1_395_51874" style="mask-type:luminance" maskUnits="userSpaceOnUse" x="0" y="0" width="24" height="18">
<path fill-rule="evenodd" clip-rule="evenodd" d="M0 0V18H24V0H0Z" fill="white"/>
</mask>
<g mask="url(#mask1_395_51874)">
<path fill-rule="evenodd" clip-rule="evenodd" d="M7.5 0H10.5V7.5H24V10.5H10.5V18H7.5V10.5H0V7.5H7.5V0Z" fill="#2E42A5"/>
<path fill-rule="evenodd" clip-rule="evenodd" d="M6 -1.5H12V6H25.5V12H12V19.5H6V12H-1.5V6H6V-1.5ZM7.5 7.5H0V10.5H7.5V18H10.5V10.5H24V7.5H10.5V0H7.5V7.5Z" fill="#F7FCFF"/>
</g>
</g>
</svg>
