<svg width="24" height="18" viewBox="0 0 24 18" fill="none" xmlns="http://www.w3.org/2000/svg">
<mask id="mask0_395_56030" style="mask-type:luminance" maskUnits="userSpaceOnUse" x="0" y="0" width="24" height="18">
<rect width="24" height="18" fill="white"/>
</mask>
<g mask="url(#mask0_395_56030)">
<path fill-rule="evenodd" clip-rule="evenodd" d="M0 0V18H24V0H0Z" fill="#FBCD17"/>
<path fill-rule="evenodd" clip-rule="evenodd" d="M0 0V6H24V0H0Z" fill="#73BE4A"/>
<path fill-rule="evenodd" clip-rule="evenodd" d="M0 12V18H24V12H0Z" fill="#73BE4A"/>
<path fill-rule="evenodd" clip-rule="evenodd" d="M0 0V18L7.5 9L0 0Z" fill="#C51918"/>
<path fill-rule="evenodd" clip-rule="evenodd" d="M12.7513 10.403L11.3483 11.25L11.6684 9.59718L10.5 8.36021L12.082 8.29332L12.7513 6.75L13.4207 8.29332H15L13.8343 9.59718L14.1853 11.25L12.7513 10.403Z" fill="#272727"/>
<path fill-rule="evenodd" clip-rule="evenodd" d="M18.7513 10.403L17.3483 11.25L17.6684 9.59718L16.5 8.36021L18.082 8.29332L18.7513 6.75L19.4207 8.29332H21L19.8343 9.59718L20.1853 11.25L18.7513 10.403Z" fill="#272727"/>
</g>
</svg>
