<svg width="24" height="18" viewBox="0 0 24 18" fill="none" xmlns="http://www.w3.org/2000/svg">
<mask id="mask0_395_53732" style="mask-type:luminance" maskUnits="userSpaceOnUse" x="0" y="0" width="24" height="18">
<rect width="24" height="18" fill="white"/>
</mask>
<g mask="url(#mask0_395_53732)">
<path fill-rule="evenodd" clip-rule="evenodd" d="M0 0V18H24V0H0Z" fill="#E31D1C"/>
<mask id="mask1_395_53732" style="mask-type:luminance" maskUnits="userSpaceOnUse" x="0" y="0" width="24" height="18">
<path fill-rule="evenodd" clip-rule="evenodd" d="M0 0V18H24V0H0Z" fill="white"/>
</mask>
<g mask="url(#mask1_395_53732)">
<path fill-rule="evenodd" clip-rule="evenodd" d="M0 9V18H24V9H0Z" fill="#2E42A5"/>
</g>
<path fill-rule="evenodd" clip-rule="evenodd" d="M0 -1.5V19.5L15 9L0 -1.5Z" fill="#F7FCFF"/>
<mask id="mask2_395_53732" style="mask-type:luminance" maskUnits="userSpaceOnUse" x="0" y="-2" width="15" height="22">
<path fill-rule="evenodd" clip-rule="evenodd" d="M0 -1.5V19.5L15 9L0 -1.5Z" fill="white"/>
</mask>
<g mask="url(#mask2_395_53732)">
<path fill-rule="evenodd" clip-rule="evenodd" d="M6.09439 7.64161C7.17192 7.64161 8.04544 6.93834 8.04544 6.0708C8.04544 5.20327 7.17192 4.5 6.09439 4.5C5.01686 4.5 4.14334 5.20327 4.14334 6.0708C4.14334 6.93834 5.01686 7.64161 6.09439 7.64161Z" fill="#FBCD17"/>
<path fill-rule="evenodd" clip-rule="evenodd" d="M6.93082 5.164H6.91324C6.87333 5.16507 6.8728 5.16554 6.80093 5.16888C6.68188 5.17524 6.56923 5.18601 6.47672 5.20209C6.48723 5.20998 6.49812 5.21813 6.50894 5.2265C7.08392 5.14078 7.35528 5.14064 7.64761 5.19427C7.68187 5.20063 7.68194 5.20131 7.71304 5.20697C7.78396 5.21958 7.83357 5.22452 7.89566 5.22455C7.95157 5.22448 7.95248 5.22437 7.98257 5.22455C7.98873 5.22465 7.98905 5.22487 8.00015 5.22552C8.00816 5.22561 8.00882 5.22507 8.07242 5.24506L8.16714 5.36029L8.07535 5.57806C8.07811 5.57682 8.07723 5.57765 8.0441 5.59174C7.99834 5.6013 7.99758 5.60142 7.98843 5.6015C7.90902 5.60733 7.82679 5.6137 7.72476 5.62299C7.44 5.6489 7.11979 5.68632 6.75992 5.7392C6.74912 5.75342 6.73606 5.76937 6.72086 5.78802C6.67672 5.82015 6.64837 5.82644 6.54312 5.84369C6.43475 5.86144 6.25832 5.88268 6.10269 5.8974C6.02338 5.9049 5.95432 5.91076 5.90347 5.91302C5.54526 5.929 5.65218 5.93311 5.62906 5.74408C5.61195 5.60454 5.55279 5.58585 5.67593 5.55267C5.63035 5.51706 5.58582 5.47773 5.54312 5.43451C5.47035 5.36079 5.4558 5.3521 5.46207 5.35052C5.45758 5.35137 5.44988 5.35368 5.39078 5.37592C5.24808 5.42725 5.10562 5.44043 4.90054 5.40131C4.6017 5.34426 4.25903 5.40227 3.87125 5.58197L3.71402 5.24213C4.16839 5.03157 4.5882 4.9601 4.97086 5.03314C5.10828 5.05936 5.18295 5.05245 5.26382 5.02338C5.31464 5.00302 5.3573 4.98767 5.40054 4.98041C5.54313 4.95649 5.65772 5.01687 5.80972 5.17084C5.98947 5.35289 6.06688 5.37275 6.07632 5.40521C6.0769 5.39669 6.07538 5.38133 6.07144 5.36322C6.00723 5.30035 5.97646 5.23152 5.97867 5.14935C5.97955 5.11753 5.9839 5.08897 5.99234 5.06342C5.99223 5.05807 5.99234 5.0519 5.99234 5.04584C5.99245 4.8916 6.10574 4.78911 6.2648 4.789H6.92886L6.93082 5.164ZM5.95425 5.87396C5.96518 5.87162 5.97745 5.86974 5.99039 5.86713L6.02554 5.85931C6.00762 5.86311 5.98412 5.86755 5.95425 5.87396Z" fill="#DA610A"/>
<path d="M6.08484 6.55865C6.8251 6.43729 7.29079 6.45588 7.5448 6.54108C7.84311 6.64113 8.16172 6.63368 8.48914 6.55182C8.39531 7.02248 8.34658 7.47161 8.34656 7.8985C8.34656 8.46006 8.45574 8.91366 8.55164 9.30084C8.64947 9.69586 8.72644 10.002 8.72644 10.3536C8.72638 10.6429 8.6335 10.771 8.52234 10.8497C8.37964 10.9506 8.1214 11.0274 7.70398 11.0274C7.10357 11.0274 6.54076 11.184 6.02136 11.4854L6.00476 11.4737L5.98718 11.4854C5.46795 11.1841 4.90573 11.0275 4.30554 11.0274C3.88782 11.0274 3.62891 10.9507 3.48621 10.8497C3.37508 10.771 3.28217 10.6429 3.2821 10.3536C3.2821 10.0019 3.36003 9.69593 3.45789 9.30084C3.55378 8.91366 3.66199 8.46006 3.66199 7.8985C3.66196 7.47154 3.6123 7.02257 3.51843 6.55182C3.84617 6.63394 4.16515 6.64117 4.46375 6.54108C4.71775 6.45588 5.18343 6.43729 5.92371 6.55865L6.00476 6.57233L6.08484 6.55865Z" fill="#56C6F5" stroke="#E31D1C"/>
<path fill-rule="evenodd" clip-rule="evenodd" d="M6.58873 7.96839L6.01016 7.4541L5.43159 7.96839H5.60301V8.26532L4.70297 8.826V10.1973H4.53159V10.4544H4.70297V10.4546H7.31726V10.4544H7.53159V10.1973H7.31726V8.826L6.37444 8.23868V7.96839H6.58873Z" fill="#F7FCFF"/>
<path d="M6.01016 7.4541L6.0932 7.36068L6.01016 7.28686L5.92711 7.36068L6.01016 7.4541ZM6.58873 7.96839V8.09339H6.9175L6.67177 7.87496L6.58873 7.96839ZM5.43159 7.96839L5.34854 7.87496L5.10281 8.09339H5.43159V7.96839ZM5.60301 7.96839H5.72801V7.84339H5.60301V7.96839ZM5.60301 8.26532L5.66911 8.37142L5.72801 8.33472V8.26532H5.60301ZM4.70297 8.826L4.63688 8.71991L4.57797 8.7566V8.826H4.70297ZM4.70297 10.1973V10.3223H4.82797V10.1973H4.70297ZM4.53159 10.1973V10.0723H4.40659V10.1973H4.53159ZM4.53159 10.4544H4.40659V10.5794H4.53159V10.4544ZM4.70297 10.4544H4.82797V10.3294H4.70297V10.4544ZM4.70297 10.4546H4.57797V10.5796H4.70297V10.4546ZM7.31726 10.4546V10.5796H7.44226V10.4546H7.31726ZM7.31726 10.4544V10.3294H7.19226V10.4544H7.31726ZM7.53159 10.4544V10.5794H7.65659V10.4544H7.53159ZM7.53159 10.1973H7.65659V10.0723H7.53159V10.1973ZM7.31726 10.1973H7.19226V10.3223H7.31726V10.1973ZM7.31726 8.826H7.44226V8.7566L7.38335 8.71991L7.31726 8.826ZM6.37444 8.23868H6.24944V8.30808L6.30835 8.34477L6.37444 8.23868ZM6.37444 7.96839V7.84339H6.24944V7.96839H6.37444ZM6.01016 7.4541L5.92711 7.54753L6.50568 8.06181L6.58873 7.96839L6.67177 7.87496L6.0932 7.36068L6.01016 7.4541ZM5.43159 7.96839L5.51463 8.06181L6.0932 7.54753L6.01016 7.4541L5.92711 7.36068L5.34854 7.87496L5.43159 7.96839ZM5.60301 7.96839V7.84339H5.43159V7.96839V8.09339H5.60301V7.96839ZM5.60301 7.96839H5.47801V8.26532H5.60301H5.72801V7.96839H5.60301ZM5.60301 8.26532L5.53692 8.15923L4.63688 8.71991L4.70297 8.826L4.76907 8.9321L5.66911 8.37142L5.60301 8.26532ZM4.70297 8.826H4.57797V10.1973H4.70297H4.82797V8.826H4.70297ZM4.70297 10.1973V10.0723H4.53159V10.1973V10.3223H4.70297V10.1973ZM4.53159 10.1973H4.40659V10.4544H4.53159H4.65659V10.1973H4.53159ZM4.53159 10.4544V10.5794H4.70297V10.4544V10.3294H4.53159V10.4544ZM4.70297 10.4544H4.57797V10.4546H4.70297H4.82797V10.4544H4.70297ZM4.70297 10.4546V10.5796H7.31726V10.4546V10.3296H4.70297V10.4546ZM7.31726 10.4546H7.44226V10.4544H7.31726H7.19226V10.4546H7.31726ZM7.31726 10.4544V10.5794H7.53159V10.4544V10.3294H7.31726V10.4544ZM7.53159 10.4544H7.65659V10.1973H7.53159H7.40659V10.4544H7.53159ZM7.53159 10.1973V10.0723H7.31726V10.1973V10.3223H7.53159V10.1973ZM7.31726 10.1973H7.44226V8.826H7.31726H7.19226V10.1973H7.31726ZM7.31726 8.826L7.38335 8.71991L6.44054 8.13258L6.37444 8.23868L6.30835 8.34477L7.25116 8.9321L7.31726 8.826ZM6.37444 8.23868H6.49944V7.96839H6.37444H6.24944V8.23868H6.37444ZM6.58873 7.96839V7.84339H6.37444V7.96839V8.09339H6.58873V7.96839Z" fill="#3B3B3B"/>
<path d="M5.9639 12.7648C6.75968 12.7648 7.30752 12.678 7.58962 12.5299C7.66357 12.4041 7.79328 12.3331 7.9313 12.3382C8.55114 12.3612 9.0312 12.1 9.40858 11.5261C9.81635 10.906 9.89828 10.0252 9.63252 8.86896L10.3072 8.71387C10.6117 10.0386 10.5123 11.1077 9.98704 11.9065C9.51636 12.6223 8.87461 13.0046 8.09141 13.0305C7.6914 13.3267 6.99038 13.4571 5.9639 13.4571C4.97086 13.4571 4.23457 13.2643 3.76235 12.8546C2.68993 12.6013 2.00844 12.1736 1.74047 11.5396C1.45482 10.8637 1.45482 9.92549 1.72128 8.71689L2.39735 8.86594C2.15894 9.94734 2.15894 10.7514 2.37816 11.27C2.53113 11.632 2.97562 11.9273 3.72864 12.1321L4.42825 12.2817L4.39467 12.4584C4.73597 12.6579 5.25758 12.7648 5.9639 12.7648Z" fill="#FBCD17"/>
<path fill-rule="evenodd" clip-rule="evenodd" d="M3.57466 6.88272C3.65196 6.69058 3.8708 6.59741 4.06294 6.67471L4.44673 6.82901C4.50278 6.85163 4.55009 6.88635 4.58736 6.92862C4.64313 6.91873 4.69886 6.92196 4.75044 6.93643L5.13716 6.81826C5.33518 6.75759 5.54524 6.86927 5.60591 7.06729C5.63668 7.16803 5.62264 7.27174 5.57564 7.35733C5.73165 7.62094 5.49271 8.01073 5.13911 7.9042L5.12154 7.89932L5.07857 8.07998C5.03297 8.2725 4.88202 8.36514 4.72798 8.36905C4.48669 8.56141 4.04967 8.37208 4.12642 7.99405L4.13521 7.95108C3.86994 7.96754 3.64544 7.68612 3.77681 7.41299L3.79439 7.3749L3.78267 7.37002C3.59079 7.29264 3.49753 7.07471 3.57466 6.88272ZM4.7397 7.78408L5.12154 7.89932L5.21333 7.51162L4.7397 7.78408Z" fill="#73BE4A"/>
<path fill-rule="evenodd" clip-rule="evenodd" d="M4.65414 7.85742C4.86125 7.85742 5.02914 7.68953 5.02914 7.48242C5.02914 7.27532 4.86125 7.10742 4.65414 7.10742C4.44704 7.10742 4.27914 7.27532 4.27914 7.48242C4.27914 7.68953 4.44704 7.85742 4.65414 7.85742Z" fill="#FBCD17"/>
<path fill-rule="evenodd" clip-rule="evenodd" d="M7.5184 6.72656C7.64654 6.72656 7.67345 7.30398 7.67953 7.55566C7.90836 7.62424 8.08286 7.82227 8.08286 7.82227H6.97934C6.97934 7.82227 7.14657 7.63304 7.36801 7.56055C7.37042 7.31161 7.38951 6.72683 7.5184 6.72656Z" fill="#F7FCFF"/>
<path d="M1.91278 9.42676L2.0975 9.45889C1.94797 10.3184 1.94797 10.9348 2.0924 11.3023C2.2605 11.7302 3.2522 12.3041 3.53274 12.3041V12.4916C3.17991 12.4916 2.11638 11.8761 1.91789 11.3709C1.75785 10.9636 1.75785 10.3174 1.91278 9.42676Z" fill="#73BE4A"/>
<path d="M10.0358 9.38159L9.85088 9.41262C9.98621 10.2191 9.95588 10.8483 9.76362 11.2995C9.53189 11.8433 8.63694 12.5361 8.40226 12.5361V12.7236C8.7182 12.7236 9.6768 11.9815 9.93611 11.373C10.1445 10.8839 10.1765 10.2203 10.0358 9.38159Z" fill="#73BE4A"/>
<path d="M4.7948 13.0679L4.83012 12.8838C5.42755 12.9984 5.83567 13.0556 6.04949 13.0556C6.26286 13.0556 6.64889 12.9985 7.203 12.884L7.24093 13.0677C6.67493 13.1846 6.27931 13.2431 6.04949 13.2431C5.82012 13.2431 5.40356 13.1847 4.7948 13.0679Z" fill="#73BE4A"/>
</g>
</g>
</svg>
