<svg width="24" height="18" viewBox="0 0 24 18" fill="none" xmlns="http://www.w3.org/2000/svg">
<mask id="mask0_395_55675" style="mask-type:luminance" maskUnits="userSpaceOnUse" x="0" y="0" width="24" height="18">
<rect width="24" height="18" fill="white"/>
</mask>
<g mask="url(#mask0_395_55675)">
<path fill-rule="evenodd" clip-rule="evenodd" d="M0 0H24V18H0V0Z" fill="#F5FBFF"/>
<path fill-rule="evenodd" clip-rule="evenodd" d="M6.7509 9.93534L5.81556 10.5L6.02891 9.39812L5.25 8.57347L6.30468 8.52888L6.7509 7.5L7.19711 8.52888H8.25L7.47289 9.39812L7.70685 10.5L6.7509 9.93534Z" fill="#3E8F00"/>
<path fill-rule="evenodd" clip-rule="evenodd" d="M17.2509 9.93534L16.3156 10.5L16.5289 9.39812L15.75 8.57347L16.8047 8.52888L17.2509 7.5L17.6971 8.52888H18.75L17.9729 9.39812L18.2068 10.5L17.2509 9.93534Z" fill="#3E8F00"/>
<path fill-rule="evenodd" clip-rule="evenodd" d="M0 0V6H24V0H0Z" fill="#E31C1C"/>
<path fill-rule="evenodd" clip-rule="evenodd" d="M0 12V18H24V12H0Z" fill="#262626"/>
</g>
</svg>
