<svg width="24" height="18" viewBox="0 0 24 18" fill="none" xmlns="http://www.w3.org/2000/svg">
<mask id="mask0_395_55839" style="mask-type:luminance" maskUnits="userSpaceOnUse" x="0" y="0" width="24" height="18">
<rect width="24" height="18" fill="white"/>
</mask>
<g mask="url(#mask0_395_55839)">
<path fill-rule="evenodd" clip-rule="evenodd" d="M0 0V18H24V0H0Z" fill="#FECA00"/>
<mask id="mask1_395_55839" style="mask-type:luminance" maskUnits="userSpaceOnUse" x="0" y="0" width="24" height="18">
<path fill-rule="evenodd" clip-rule="evenodd" d="M0 0V18H24V0H0Z" fill="white"/>
</mask>
<g mask="url(#mask1_395_55839)">
<rect width="24" height="3" fill="#272727"/>
<rect y="6" width="24" height="3" fill="#D74800"/>
<rect y="9" width="24" height="3" fill="#272727"/>
<rect y="15" width="24" height="3" fill="#D74800"/>
<path fill-rule="evenodd" clip-rule="evenodd" d="M12 13.5C14.4853 13.5 16.5 11.4853 16.5 9C16.5 6.51472 14.4853 4.5 12 4.5C9.51472 4.5 7.5 6.51472 7.5 9C7.5 11.4853 9.51472 13.5 12 13.5Z" fill="#F7FCFF"/>
<path fill-rule="evenodd" clip-rule="evenodd" d="M10.817 5.73157C11.3184 5.73161 11.6237 6.23025 11.6334 6.24622C11.6212 6.25505 10.9605 6.73857 10.9605 7.13391C10.9604 7.53284 10.7298 8.08423 11.6334 8.44055C12.5377 8.797 13.9898 8.79726 14.1764 9.44446C14.3626 10.0914 13.826 10.3302 13.0904 10.3302C12.3548 10.3302 11.7563 10.0214 12.0553 10.3302C12.3545 10.6392 13.1205 11.3719 12.5885 11.3722C12.4105 11.3722 11.7412 10.839 11.7154 11.2863C11.6993 11.5694 12.0182 12.3471 11.7154 12.6476C11.6453 12.7191 12.6134 12.8654 12.5377 12.9308C12.3437 13.0975 11.9678 12.9308 11.4605 12.9308C11.3956 12.9312 10.5423 13.4466 10.4557 13.4425C10.3733 13.4381 11.0343 12.9383 10.9605 12.9308C10.5259 12.8889 10.0244 12.973 10.0045 12.9308C9.97101 12.8563 11.1054 12.9513 11.3473 12.6476C11.7276 12.1682 11.2892 11.2399 11.2418 11.2355C10.6411 11.1798 10.0564 11.1693 9.91659 11.3722C9.65102 11.7578 9.0836 12.1449 9.08358 11.9513C9.08358 11.7576 8.77716 11.1622 10.1383 11.1622C11.4884 11.1622 11.2639 11.016 11.2603 11.0138V10.5079C11.2603 10.5079 9.2052 10.0248 9.20468 8.96008C9.20468 7.89573 10.1301 7.37904 10.2594 7.13391C10.3876 6.88897 10.2594 6.57434 10.2594 6.57434L9.46639 6.50696L10.2594 6.24622C10.2606 6.23398 10.3136 5.73157 10.817 5.73157ZM11.6461 10.9327C11.6607 10.9366 12.1793 11.0713 12.0709 10.8107C11.9623 10.5502 11.6559 10.5555 11.6461 10.5558V10.9327Z" fill="#272727"/>
<path fill-rule="evenodd" clip-rule="evenodd" d="M9.80771 5.03346L10.5679 5.93492L10.9616 5.84232L10.7728 4.93231L9.80771 5.03346Z" fill="#D74800"/>
<path fill-rule="evenodd" clip-rule="evenodd" d="M10.7946 4.81548L10.8436 6.17077L11.4927 6.01105L11.7691 5.12341L10.7946 4.81548Z" fill="#FFD018"/>
<path fill-rule="evenodd" clip-rule="evenodd" d="M10.1827 7.07919C10.3261 7.07919 10.4423 6.96586 10.4423 6.82606C10.4423 6.68626 10.3261 6.57294 10.1827 6.57294C10.0393 6.57294 9.9231 6.68626 9.9231 6.82606C9.9231 6.96586 10.0393 7.07919 10.1827 7.07919Z" fill="#D74800"/>
<path fill-rule="evenodd" clip-rule="evenodd" d="M11.8323 5.06938L11.0766 5.97454L11.2361 6.34616L12.0995 6.00221L11.8323 5.06938Z" fill="#D74800"/>
<path fill-rule="evenodd" clip-rule="evenodd" d="M13.589 11.9198C13.589 11.9198 14.9184 11.326 14.9184 10.4955C14.9184 9.66506 12.7598 8.76044 12.7598 8.76044C12.7598 8.76044 11.4902 9.05103 12.0625 9.43991C12.6347 9.82879 13.4015 9.97819 13.4015 10.4955C13.4015 11.0129 13.6116 11.5062 13.1857 11.5062C12.7598 11.5062 13.589 11.9198 13.589 11.9198Z" fill="#D74800"/>
<path fill-rule="evenodd" clip-rule="evenodd" d="M11.671 8.60831C11.671 8.60831 11.2009 8.69089 11.2232 8.76726C11.2849 8.97837 11.9277 9.25333 12.2079 9.44371C12.7802 9.83259 13.3228 9.7889 13.7265 9.53583C14.1301 9.28275 11.671 8.60831 11.671 8.60831Z" fill="#FFFDFF"/>
</g>
</g>
</svg>
