<svg width="24" height="18" viewBox="0 0 24 18" fill="none" xmlns="http://www.w3.org/2000/svg">
<mask id="mask0_395_51146" style="mask-type:luminance" maskUnits="userSpaceOnUse" x="0" y="0" width="24" height="18">
<rect width="24" height="18" fill="white"/>
</mask>
<g mask="url(#mask0_395_51146)">
<path fill-rule="evenodd" clip-rule="evenodd" d="M0 12H24V18H0V12Z" fill="#14DC5A"/>
<path fill-rule="evenodd" clip-rule="evenodd" d="M0 0H24V7.5H0V0Z" fill="#0099B5"/>
<path d="M26 7V12.5H-2V7H26Z" fill="#F7FCFF" stroke="#C51918"/>
<path fill-rule="evenodd" clip-rule="evenodd" d="M1.50091 3.8526C1.54199 1.67871 3.75221 1.29899 4.49994 1.58209C4.48062 1.58713 2.66979 2.06346 2.63568 3.87115C2.60156 5.68877 4.414 6.18073 4.414 6.18073C3.71727 6.45589 1.4601 6.0269 1.50091 3.8526ZM6.5683 4.51276H7.10638L6.68353 4.9317L6.88763 5.50104L6.32123 5.22076L5.81634 5.50104L5.9599 4.9317L5.4765 4.51276H6.10833L6.32025 3.97272L6.5683 4.51276ZM8.95208 4.51276H9.49115L9.06732 4.9317L9.27142 5.50104L8.70501 5.22076L8.20013 5.50104L8.34369 4.9317L7.86029 4.51276H8.49212L8.70404 3.97272L8.95208 4.51276ZM11.1874 4.51276H11.7255L11.3027 4.9317L11.5058 5.50104L10.9394 5.22076L10.4345 5.50104L10.579 4.9317L10.0956 4.51276H10.7275L10.9384 3.97272L11.1874 4.51276ZM13.4365 4.51276H13.9755L13.5517 4.9317L13.7558 5.50104L13.1894 5.22076L12.6845 5.50104L12.829 4.9317L12.3447 4.51276H12.9765L13.1884 3.97272L13.4365 4.51276ZM15.7099 4.51276H16.248L15.8251 4.9317L16.0283 5.50104L15.4619 5.22076L14.957 5.50104L15.1015 4.9317L14.6181 4.51276H15.249L15.4609 3.97272L15.7099 4.51276ZM8.95208 2.98444H9.49115L9.06732 3.4024L9.27142 3.97272L8.70501 3.69244L8.20013 3.97272L8.34369 3.4024L7.86029 2.98444H8.49212L8.70404 2.4444L8.95208 2.98444ZM11.1874 2.98444H11.7255L11.3027 3.4024L11.5058 3.97272L10.9394 3.69244L10.4345 3.97272L10.579 3.4024L10.0956 2.98444H10.7275L10.9384 2.4444L11.1874 2.98444ZM13.4365 2.98444H13.9755L13.5517 3.4024L13.7558 3.97272L13.1894 3.69244L12.6845 3.97272L12.829 3.4024L12.3447 2.98444H12.9765L13.1884 2.4444L13.4365 2.98444ZM15.7099 2.98444H16.248L15.8251 3.4024L16.0283 3.97272L15.4619 3.69244L14.957 3.97272L15.1015 3.4024L14.6181 2.98444H15.249L15.4609 2.4444L15.7099 2.98444ZM11.1533 1.54596H11.6923L11.2685 1.9649L11.4726 2.53522L10.9062 2.25494L10.4013 2.53522L10.5458 1.9649L10.0615 1.54596H10.6933L10.9052 1.0069L11.1533 1.54596ZM13.4033 1.54596H13.9413L13.5185 1.9649L13.7216 2.53522L13.1552 2.25494L12.6503 2.53522L12.7949 1.9649L12.3115 1.54596H12.9433L13.1552 1.0069L13.4033 1.54596ZM15.6757 1.54596H16.2138L15.791 1.9649L15.9941 2.53522L15.4286 2.25494L14.9238 2.53522L15.0673 1.9649L14.5839 1.54596H15.2158L15.4277 1.0069L15.6757 1.54596Z" fill="#F7FCFF"/>
</g>
</svg>
