<svg width="24" height="18" viewBox="0 0 24 18" fill="none" xmlns="http://www.w3.org/2000/svg">
<mask id="mask0_395_51632" style="mask-type:luminance" maskUnits="userSpaceOnUse" x="0" y="0" width="24" height="18">
<rect width="24" height="18" fill="white"/>
</mask>
<g mask="url(#mask0_395_51632)">
<path fill-rule="evenodd" clip-rule="evenodd" d="M0 0H24V18H0V0Z" fill="#F7FCFF"/>
<path fill-rule="evenodd" clip-rule="evenodd" d="M0 0H10.5V18H0V0Z" fill="#FFDC17"/>
<path d="M17.0861 9.5625L16.8272 9.57937C16.889 10.4687 17.0801 11.1557 17.4043 11.6405C17.9272 12.4223 18.6173 13.0268 19.079 13.0268C19.1839 13.0268 19.2083 13.0657 19.1737 13.1619C19.1245 13.2986 18.9689 13.4331 18.7688 13.4847C18.436 13.5705 17.679 13.615 16.5108 13.615V13.8661C17.7024 13.8661 18.4731 13.8209 18.8356 13.7274C19.1172 13.6548 19.3406 13.4617 19.4187 13.2445C19.509 12.9934 19.3727 12.7756 19.079 12.7756C18.7361 12.7756 18.0999 12.2183 17.6221 11.504C17.3252 11.06 17.1452 10.4128 17.0861 9.5625Z" fill="#AF0100"/>
<path d="M15.8602 9.5625L16.1191 9.57937C16.0573 10.4687 15.8662 11.1557 15.542 11.6405C15.0191 12.4223 14.329 13.0268 13.8673 13.0268C13.7624 13.0268 13.738 13.0657 13.7726 13.1619C13.8218 13.2986 13.9773 13.4331 14.1775 13.4847C14.5103 13.5705 15.2673 13.615 16.4355 13.615V13.8661C15.2439 13.8661 14.4732 13.8209 14.1107 13.7274C13.8291 13.6548 13.6057 13.4617 13.5276 13.2445C13.4372 12.9934 13.5736 12.7756 13.8673 12.7756C14.2102 12.7756 14.8464 12.2183 15.3242 11.504C15.6211 11.06 15.8011 10.4128 15.8602 9.5625Z" fill="#AF0100"/>
<path fill-rule="evenodd" clip-rule="evenodd" d="M21.5874 5.75586L20.9087 6.33008L21.061 6.4873L20.9712 6.56836L21.6255 7.07031L21.9224 6.8418L22.4478 7.48047L22.3032 7.59082L22.3188 7.60254L22.2163 7.6582L21.3071 8.35938L20.7817 7.7207L21.0317 7.52734L20.4351 7.05469L20.2466 7.22656L20.0688 7.04199L19.7349 7.3252L19.9575 7.55566L19.8765 7.62793L20.5659 8.10449L20.8198 7.90918L21.3452 8.54785L21.2788 8.59766L21.2827 8.60059L21.2642 8.60938L20.2046 9.42676L19.6792 8.78809L19.936 8.58887L19.3208 8.13281L19.1431 8.29492L18.895 8.03809L15.2114 11.166C15.3708 11.3979 15.4624 11.6656 15.4624 11.9541C15.4622 12.6583 14.918 13.2368 14.1655 13.4717C13.9846 13.4136 13.8453 13.2897 13.7993 13.1621C13.7647 13.066 13.7893 13.0264 13.894 13.0264C14.3558 13.0264 14.8895 12.1137 14.6519 12.335C14.6354 12.3502 14.6174 12.3633 14.6011 12.3779C14.6951 12.2483 14.7485 12.1036 14.7485 11.9531C14.7482 11.4535 14.1687 11.0117 13.4185 11.0117C12.6683 11.0118 12.0897 11.4536 12.0894 11.9531C12.0895 12.4528 12.6681 12.8955 13.4185 12.8955C13.4833 12.8955 13.5468 12.8911 13.6089 12.8848C13.527 12.972 13.5031 13.1018 13.5542 13.2441C13.5961 13.3606 13.6814 13.4689 13.7935 13.5566C13.6715 13.5747 13.5463 13.5859 13.4185 13.5859C12.3064 13.5858 11.3758 12.8759 11.3755 11.9541C11.3755 11.0321 12.3062 10.3214 13.4185 10.3213C13.6911 10.3213 13.953 10.3634 14.1929 10.4414L21.0503 5.09766L21.5874 5.75586Z" fill="#F4B300"/>
<path fill-rule="evenodd" clip-rule="evenodd" d="M11.894 13.0527C12.0911 13.0527 12.2505 13.1799 12.2505 13.3359C12.2502 13.4918 12.0909 13.6182 11.894 13.6182C11.6973 13.6181 11.5379 13.4917 11.5376 13.3359C11.5376 13.1799 11.6971 13.0528 11.894 13.0527ZM15.0728 13.0527C15.2697 13.0528 15.4292 13.1799 15.4292 13.3359C15.4289 13.4917 15.2695 13.6181 15.0728 13.6182C14.8759 13.6182 14.7166 13.4918 14.7163 13.3359C14.7163 13.1799 14.8757 13.0527 15.0728 13.0527ZM11.7642 10.4785C11.9611 10.4785 12.1214 10.6048 12.1216 10.7607C12.1216 10.9168 11.9612 11.0439 11.7642 11.0439C11.5673 11.0438 11.4077 10.9167 11.4077 10.7607C11.4079 10.6049 11.5674 10.4786 11.7642 10.4785Z" fill="#BFBFBF"/>
<path fill-rule="evenodd" clip-rule="evenodd" d="M11.4126 5.75586L12.1196 6.30176L11.939 6.48828L12.0288 6.56836L11.3745 7.07031L11.0776 6.8418L10.5522 7.48047L10.6968 7.59082L10.6812 7.60254L10.812 7.67969L11.6929 8.35938L12.2183 7.7207L11.9829 7.53809L12.5708 7.06152L12.7534 7.22754L12.9946 6.97754L13.3423 7.24609L13.0425 7.55566L13.1226 7.62793L12.4341 8.10352L12.1802 7.90918L11.6548 8.54785L11.7202 8.59766L11.7173 8.59961L11.7407 8.61328L12.7954 9.42676L13.3208 8.78809L13.0903 8.60938L13.6929 8.14551L13.8569 8.29492L14.1665 7.97363L14.0522 7.86816L14.0981 7.83301L18.0356 10.8838C17.7268 11.1676 17.5376 11.5392 17.5376 11.9541C17.5377 12.6584 18.082 13.2368 18.8345 13.4717C19.0154 13.4135 19.1548 13.2897 19.2007 13.1621C19.2353 13.066 19.2107 13.0274 19.106 13.0273C18.6442 13.0273 18.1105 12.1137 18.3481 12.335C18.3646 12.3502 18.3826 12.3633 18.3989 12.3779C18.3049 12.2483 18.2515 12.1036 18.2515 11.9531C18.2519 11.4536 18.8313 11.0117 19.5815 11.0117C20.3317 11.0118 20.9102 11.4536 20.9106 11.9531C20.9106 12.4529 20.332 12.8955 19.5815 12.8955C19.5167 12.8955 19.4532 12.8911 19.3911 12.8848C19.4731 12.972 19.4968 13.1018 19.4458 13.2441C19.4039 13.3606 19.3186 13.4689 19.2065 13.5566C19.3285 13.5746 19.4537 13.5859 19.5815 13.5859C20.6937 13.5858 21.6243 12.876 21.6245 11.9541C21.6245 11.0322 20.6937 10.3214 19.5815 10.3213C19.2566 10.3213 18.9477 10.3834 18.6724 10.4922L11.8579 5.2168L11.4126 5.75586Z" fill="#BFBFBF"/>
<path fill-rule="evenodd" clip-rule="evenodd" d="M21.1058 13.0526C20.9087 13.0526 20.7493 13.1797 20.7493 13.3358C20.7496 13.4916 20.9089 13.618 21.1058 13.618C21.3025 13.6179 21.4619 13.4916 21.4622 13.3358C21.4622 13.1797 21.3027 13.0526 21.1058 13.0526ZM17.9271 13.0526C17.7301 13.0526 17.5706 13.1797 17.5706 13.3358C17.5709 13.4916 17.7303 13.6179 17.9271 13.618C18.1239 13.618 18.2832 13.4916 18.2835 13.3358C18.2835 13.1797 18.1241 13.0526 17.9271 13.0526ZM21.2357 10.4783C21.0388 10.4783 20.8785 10.6047 20.8782 10.7606C20.8782 10.9166 21.0386 11.0438 21.2357 11.0438C21.4325 11.0436 21.5921 10.9165 21.5921 10.7606C21.5919 10.6047 21.4324 10.4785 21.2357 10.4783Z" fill="#F4B300"/>
<path fill-rule="evenodd" clip-rule="evenodd" d="M16.4678 8.8457C16.5393 8.84589 16.5967 8.90406 16.5967 8.97559V9.34766H17.1514C17.2032 9.34766 17.2459 9.38959 17.2461 9.44141C17.2461 9.49342 17.2034 9.53613 17.1514 9.53613H16.5967V14.8691C16.5967 14.9407 16.5393 14.9988 16.4678 14.999H16.3379C16.2662 14.999 16.208 14.9408 16.208 14.8691V9.53613H15.8477C15.7958 9.5359 15.7539 9.49328 15.7539 9.44141C15.7541 9.38973 15.796 9.34789 15.8477 9.34766H16.208V8.97559C16.208 8.90394 16.2662 8.8457 16.3379 8.8457H16.4678Z" fill="#AF0100"/>
<path fill-rule="evenodd" clip-rule="evenodd" d="M12.5659 5.69451C12.9937 5.11032 13.4487 4.97184 13.8881 5.31561C14.5696 5.84918 14.6276 7.12335 13.8784 7.57147C13.2162 7.96767 12.8863 8.72596 13.144 9.09491C13.3599 9.40384 13.9827 9.26377 14.6303 8.77459C14.747 8.6864 14.8562 8.58968 14.9614 8.49139L15.1147 8.60955C14.9992 8.71874 14.8793 8.8257 14.7504 8.92303C14.0242 9.47165 13.288 9.63707 12.9828 9.20037C12.6523 8.72712 13.0304 7.85741 13.7758 7.41131C14.4011 7.03735 14.3507 5.91988 13.7661 5.46209C13.4275 5.19709 13.0949 5.29882 12.725 5.80389L12.5659 5.69451ZM16.1059 6.92205C16.0434 7.31862 15.8522 7.71923 15.5766 8.091L15.4184 7.98162C15.6772 7.63262 15.856 7.25905 15.9135 6.89373L16.1059 6.92205Z" fill="#979797"/>
<path fill-rule="evenodd" clip-rule="evenodd" d="M20.4521 5.69532C20.0242 5.11102 19.5692 4.97173 19.1298 5.31544C18.4483 5.84901 18.3903 7.12318 19.1396 7.57129C19.8018 7.96746 20.1316 8.72575 19.874 9.09473C19.6581 9.4038 19.0354 9.2637 18.3876 8.77442C18.2709 8.6862 18.1617 8.58955 18.0566 8.49122L17.9033 8.61036C18.0186 8.71938 18.1389 8.82565 18.2675 8.92286C18.9938 9.47151 19.73 9.63701 20.0351 9.2002C20.3656 8.72691 19.9876 7.8572 19.2421 7.41114C18.6168 7.03718 18.6672 5.91971 19.2519 5.46192C19.5904 5.19705 19.9231 5.29882 20.2929 5.80372L20.4521 5.69532ZM16.912 6.92286C16.9746 7.31924 17.1659 7.71923 17.4413 8.09083L17.5995 7.98145C17.341 7.63265 17.162 7.25965 17.1044 6.89454L16.912 6.92286Z" fill="#979797"/>
<path fill-rule="evenodd" clip-rule="evenodd" d="M16.4029 15.0122C16.6178 15.0122 16.7921 14.9251 16.7921 14.8176C16.7921 14.7102 16.6178 14.623 16.4029 14.623C16.1879 14.623 16.0137 14.7102 16.0137 14.8176C16.0137 14.9251 16.1879 15.0122 16.4029 15.0122Z" fill="#AF0100"/>
<path fill-rule="evenodd" clip-rule="evenodd" d="M16.3378 6.91408C17.0901 6.91408 17.7 6.81243 17.7 6.68705C17.7 6.56167 17.0901 6.46002 16.3378 6.46002C15.5855 6.46002 14.9756 6.56167 14.9756 6.68705C14.9756 6.81243 15.5855 6.91408 16.3378 6.91408Z" fill="#AF0100"/>
<path fill-rule="evenodd" clip-rule="evenodd" d="M16.3751 6.27734C16.9589 6.27734 17.4352 6.36671 17.8028 6.54688L17.7051 6.6875C17.3703 6.52338 16.9268 6.44043 16.3751 6.44043C15.8217 6.44045 15.3474 6.52432 14.9512 6.69043L14.8643 6.54395C15.2891 6.36584 15.793 6.27736 16.3751 6.27734ZM16.3751 5.20996C16.9589 5.20996 17.4352 5.29933 17.8028 5.47949L17.7051 5.62012C17.3703 5.45599 16.9268 5.37305 16.3751 5.37305C15.8294 5.37307 15.3606 5.45468 14.9678 5.61621L15.1954 6.11426C15.2509 6.09826 15.3075 6.08376 15.3653 6.07031C15.3252 6.02501 15.2999 5.96298 15.2999 5.89453C15.3 5.75598 15.4021 5.64355 15.5274 5.64355C15.6525 5.6438 15.7538 5.75614 15.754 5.89453C15.754 5.93389 15.7441 5.97075 15.7296 6.00391C15.8844 5.9833 16.0462 5.97072 16.2149 5.96582V5.75293H15.9708V5.60156H16.2149V5.4209H16.4717V5.60156H16.7686V5.75293H16.4717V5.96484C16.6632 5.96817 16.8426 5.98147 17.0098 6.00488C16.9951 5.97162 16.9864 5.93405 16.9864 5.89453C16.9866 5.75598 17.0887 5.64355 17.2139 5.64355C17.339 5.64383 17.4403 5.75615 17.4405 5.89453C17.4405 5.96562 17.4131 6.0295 17.3702 6.0752C17.4429 6.09413 17.5122 6.11685 17.5792 6.14062L17.7667 5.73145L17.9444 5.80762L17.7589 6.21387C17.7735 6.2206 17.7885 6.22639 17.8028 6.2334L17.7051 6.37402C17.6997 6.37136 17.694 6.36884 17.6885 6.36621L17.6592 6.43262L17.4815 6.35645L17.5098 6.29297C17.226 6.19114 16.8802 6.13534 16.4717 6.12793V6.19531H16.2149V6.12988C15.7297 6.14463 15.3086 6.22709 14.9512 6.37695L14.8643 6.23047C14.9119 6.21054 14.9603 6.19152 15.0098 6.17383L14.7569 5.61914L14.9092 5.55273L14.8643 5.47656C15.2891 5.29846 15.793 5.20998 16.3751 5.20996ZM16.3751 4.14258C16.9589 4.14258 17.4352 4.23195 17.8028 4.41211L17.7051 4.55273C17.3703 4.38861 16.9268 4.30566 16.3751 4.30566C15.8294 4.30568 15.3606 4.38729 14.9678 4.54883L15.1944 5.0459C15.2499 5.0299 15.3066 5.0154 15.3643 5.00195C15.3247 4.95674 15.2999 4.8951 15.2999 4.82715C15.3 4.68857 15.4021 4.57617 15.5274 4.57617C15.6525 4.57642 15.7538 4.68873 15.754 4.82715C15.754 4.86653 15.7442 4.90335 15.7296 4.93652C15.8844 4.91592 16.0462 4.90334 16.2149 4.89844V4.68555H15.9708V4.53418H16.2149V4.35352H16.4717V4.53418H16.7686V4.68555H16.4717V4.89746C16.6632 4.90079 16.8426 4.91409 17.0098 4.9375C16.9951 4.90422 16.9864 4.86669 16.9864 4.82715C16.9865 4.68857 17.0886 4.57617 17.2139 4.57617C17.339 4.57644 17.4403 4.68874 17.4405 4.82715C17.4405 4.89826 17.4131 4.96212 17.3702 5.00781C17.4429 5.02674 17.5122 5.04947 17.5792 5.07324L17.7667 4.66406L17.9444 4.74023L17.7589 5.14648C17.7735 5.15322 17.7885 5.15901 17.8028 5.16602L17.7051 5.30664C17.6997 5.30398 17.694 5.30145 17.6885 5.29883L17.6592 5.36523L17.4815 5.28906L17.5098 5.22559C17.226 5.12376 16.8802 5.06796 16.4717 5.06055V5.12793H16.2149V5.0625C15.7297 5.07725 15.3086 5.15971 14.9512 5.30957L14.8643 5.16309C14.9119 5.14316 14.9603 5.12414 15.0098 5.10645L14.7569 4.55176L14.9092 4.48535L14.8643 4.40918C15.2891 4.23108 15.793 4.1426 16.3751 4.14258ZM16.4717 3.4668H16.7686V3.61816H16.4717V3.83008C16.6632 3.8334 16.8426 3.84671 17.0098 3.87012C16.9951 3.83683 16.9864 3.79933 16.9864 3.75977C16.9865 3.62116 17.0886 3.50879 17.2139 3.50879C17.339 3.50906 17.4404 3.62133 17.4405 3.75977C17.4405 3.83089 17.4131 3.89473 17.3702 3.94043C17.4429 3.95936 17.5122 3.98209 17.5792 4.00586L17.7667 3.59668L17.9444 3.67285L17.7589 4.0791C17.7735 4.08583 17.7885 4.09163 17.8028 4.09863L17.7051 4.23926C17.6997 4.2366 17.694 4.23406 17.6885 4.23145L17.6592 4.29785L17.4815 4.22168L17.5098 4.1582C17.226 4.05637 16.8803 4.00057 16.4717 3.99316V4.06055H16.2149V3.99512C15.7297 4.00986 15.3086 4.09232 14.9512 4.24219L14.8643 4.0957C14.9118 4.07577 14.9603 4.05675 15.0098 4.03906L14.7569 3.48438L14.9346 3.4082L15.1944 3.97852C15.2499 3.96251 15.3066 3.94802 15.3643 3.93457C15.3247 3.88935 15.2999 3.82773 15.2999 3.75977C15.3 3.62116 15.4021 3.50879 15.5274 3.50879C15.6525 3.50904 15.7538 3.62132 15.754 3.75977C15.754 3.79916 15.7442 3.83596 15.7296 3.86914C15.8844 3.84854 16.0462 3.83596 16.2149 3.83105V3.61816H15.9708V3.4668H16.2149V3.28613H16.4717V3.4668ZM16.4141 1.75293H16.6387V1.94141H16.4141V2.49121H16.2198V1.94141H16.0362V1.75293H16.2198V1.52832H16.4141V1.75293Z" fill="#F4B300"/>
</g>
</svg>
