<svg width="24" height="18" viewBox="0 0 24 18" fill="none" xmlns="http://www.w3.org/2000/svg">
<mask id="mask0_395_53525" style="mask-type:luminance" maskUnits="userSpaceOnUse" x="0" y="0" width="24" height="18">
<rect width="24" height="18" fill="white"/>
</mask>
<g mask="url(#mask0_395_53525)">
<path fill-rule="evenodd" clip-rule="evenodd" d="M0 0V18H24V0H0Z" fill="#2E42A5"/>
<mask id="mask1_395_53525" style="mask-type:luminance" maskUnits="userSpaceOnUse" x="0" y="0" width="24" height="18">
<path fill-rule="evenodd" clip-rule="evenodd" d="M0 0V18H24V0H0Z" fill="white"/>
</mask>
<g mask="url(#mask1_395_53525)">
<rect width="13.5" height="10.5" fill="#2B409A"/>
<mask id="mask2_395_53525" style="mask-type:luminance" maskUnits="userSpaceOnUse" x="0" y="0" width="14" height="11">
<rect width="13.5" height="10.5" fill="white"/>
</mask>
<g mask="url(#mask2_395_53525)">
<path d="M-1.50317 9.74983L1.46754 11.0527L13.5674 1.41653L15.1344 -0.519623L11.9577 -0.955091L7.02241 3.19743L3.05003 5.99525L-1.50317 9.74983Z" fill="#F7FCFF"/>
<path d="M-1.09644 10.6627L0.417006 11.4188L14.5718 -0.699524H12.4467L-1.09644 10.6627Z" fill="#F50100"/>
<path d="M15.0033 9.74983L12.0326 11.0527L-0.0673141 1.41653L-1.6343 -0.519623L1.54245 -0.955091L6.47771 3.19743L10.4501 5.99525L15.0033 9.74983Z" fill="#F7FCFF"/>
<path d="M14.902 10.405L13.3885 11.1611L7.36129 5.9726L5.57434 5.39291L-1.78503 -0.512991H0.340017L7.69525 5.25273L9.64897 5.94784L14.902 10.405Z" fill="#F50100"/>
<mask id="path-10-outside-1_395_53525" maskUnits="userSpaceOnUse" x="-2" y="-2" width="17" height="14" fill="black">
<rect fill="white" x="-2" y="-2" width="17" height="14"/>
<path fill-rule="evenodd" clip-rule="evenodd" d="M7.48838 0H5.98838V4.5H0V6H5.98838V10.5H7.48838V6H13.5V4.5H7.48838V0Z"/>
</mask>
<path fill-rule="evenodd" clip-rule="evenodd" d="M7.48838 0H5.98838V4.5H0V6H5.98838V10.5H7.48838V6H13.5V4.5H7.48838V0Z" fill="#F50100"/>
<path d="M5.98838 0V-1.5H4.48838V0H5.98838ZM7.48838 0H8.98838V-1.5H7.48838V0ZM5.98838 4.5V6H7.48838V4.5H5.98838ZM0 4.5V3H-1.5V4.5H0ZM0 6H-1.5V7.5H0V6ZM5.98838 6H7.48838V4.5H5.98838V6ZM5.98838 10.5H4.48838V12H5.98838V10.5ZM7.48838 10.5V12H8.98838V10.5H7.48838ZM7.48838 6V4.5H5.98838V6H7.48838ZM13.5 6V7.5H15V6H13.5ZM13.5 4.5H15V3H13.5V4.5ZM7.48838 4.5H5.98838V6H7.48838V4.5ZM5.98838 0V1.5H7.48838V0V-1.5H5.98838V0ZM5.98838 4.5H7.48838V0H5.98838H4.48838V4.5H5.98838ZM0 4.5V6H5.98838V4.5V3H0V4.5ZM0 6H1.5V4.5H0H-1.5V6H0ZM5.98838 6V4.5H0V6V7.5H5.98838V6ZM5.98838 10.5H7.48838V6H5.98838H4.48838V10.5H5.98838ZM7.48838 10.5V9H5.98838V10.5V12H7.48838V10.5ZM7.48838 6H5.98838V10.5H7.48838H8.98838V6H7.48838ZM13.5 6V4.5H7.48838V6V7.5H13.5V6ZM13.5 4.5H12V6H13.5H15V4.5H13.5ZM7.48838 4.5V6H13.5V4.5V3H7.48838V4.5ZM7.48838 0H5.98838V4.5H7.48838H8.98838V0H7.48838Z" fill="#F7FCFF" mask="url(#path-10-outside-1_395_53525)"/>
</g>
<path fill-rule="evenodd" clip-rule="evenodd" d="M15.185 7.52454V12.4214C15.185 12.4214 15.1124 16.473 18.8465 16.473C22.5805 16.473 22.5805 12.4214 22.5805 12.4214V7.52454H15.185Z" fill="#3B7E05" stroke="#F7FCFF" stroke-width="0.5"/>
<path fill-rule="evenodd" clip-rule="evenodd" d="M15.1778 14.9166L15.7727 14.3194C16.7024 15.4676 17.6802 16.0264 18.72 16.0264C19.7596 16.0264 20.7366 15.4677 21.6649 14.3196L22.0035 14.6591L22.0178 14.6378C22.2248 14.813 22.3613 14.977 22.4268 15.1669C22.5336 15.4763 22.4196 15.7736 22.1694 15.9309C22.1074 15.9699 22.0581 15.998 22.0143 16.0184C21.9128 16.0657 21.8314 16.0862 21.7106 16.0521C21.5876 16.0175 21.4842 15.9228 21.4307 15.7925C20.587 16.5388 19.6815 16.9183 18.72 16.9183C17.7667 16.9183 16.8681 16.5453 16.0298 15.8117C15.9738 15.9398 15.8693 16.0317 15.7464 16.064C15.625 16.096 15.544 16.074 15.4433 16.025C15.3999 16.0038 15.3511 15.9749 15.2898 15.9348C15.0424 15.7732 14.9336 15.4739 15.0457 15.1665C15.0762 15.0828 15.1252 15.0052 15.1885 14.9298C15.1849 14.9254 15.1814 14.921 15.1778 14.9166Z" fill="#FFD018"/>
<path d="M15.7727 14.3194L15.967 14.1621L15.7919 13.9459L15.5956 14.143L15.7727 14.3194ZM15.1778 14.9166L15.0007 14.7402L14.8422 14.8994L14.9835 15.0739L15.1778 14.9166ZM21.6649 14.3196L21.8419 14.1431L21.6454 13.9461L21.4705 14.1625L21.6649 14.3196ZM22.0035 14.6591L21.8265 14.8356L22.0408 15.0505L22.2107 14.799L22.0035 14.6591ZM22.0178 14.6378L22.1794 14.447L21.9666 14.2669L21.8106 14.4979L22.0178 14.6378ZM22.4268 15.1669L22.6632 15.0854L22.4268 15.1669ZM22.1694 15.9309L22.3025 16.1425L22.3025 16.1425L22.1694 15.9309ZM22.0143 16.0184L21.9088 15.7918L21.9088 15.7918L22.0143 16.0184ZM21.7106 16.0521L21.7784 15.8115V15.8115L21.7106 16.0521ZM21.4307 15.7925L21.6619 15.6976L21.5284 15.3724L21.265 15.6053L21.4307 15.7925ZM16.0298 15.8117L16.1944 15.6235L15.9375 15.3987L15.8007 15.7115L16.0298 15.8117ZM15.7464 16.064L15.6828 15.8223H15.6828L15.7464 16.064ZM15.4433 16.025L15.5528 15.8002L15.5528 15.8002L15.4433 16.025ZM15.2898 15.9348L15.153 16.1441L15.153 16.1441L15.2898 15.9348ZM15.0457 15.1665L15.2806 15.2521V15.2521L15.0457 15.1665ZM15.1885 14.9298L15.3799 15.0906L15.5128 14.9324L15.3825 14.7721L15.1885 14.9298ZM15.7727 14.3194L15.5956 14.143L15.0007 14.7402L15.1778 14.9166L15.3549 15.0931L15.9498 14.4958L15.7727 14.3194ZM18.72 16.0264V15.7764C17.7822 15.7764 16.8689 15.276 15.967 14.1621L15.7727 14.3194L15.5784 14.4767C16.5358 15.6592 17.5782 16.2764 18.72 16.2764V16.0264ZM21.6649 14.3196L21.4705 14.1625C20.57 15.2761 19.6576 15.7764 18.72 15.7764V16.0264V16.2764C19.8617 16.2764 20.9033 15.6592 21.8593 14.4768L21.6649 14.3196ZM22.0035 14.6591L22.1805 14.4825L21.8419 14.1431L21.6649 14.3196L21.4879 14.4962L21.8265 14.8356L22.0035 14.6591ZM22.0178 14.6378L21.8106 14.4979L21.7963 14.5192L22.0035 14.6591L22.2107 14.799L22.225 14.7777L22.0178 14.6378ZM22.4268 15.1669L22.6632 15.0854C22.5764 14.8339 22.401 14.6346 22.1794 14.447L22.0178 14.6378L21.8563 14.8286C22.0487 14.9914 22.1462 15.1201 22.1905 15.2485L22.4268 15.1669ZM22.1694 15.9309L22.3025 16.1425C22.6517 15.923 22.8075 15.5038 22.6632 15.0854L22.4268 15.1669L22.1905 15.2485C22.2596 15.4488 22.1874 15.6243 22.0363 15.7193L22.1694 15.9309ZM22.0143 16.0184L22.1198 16.245C22.1774 16.2182 22.2368 16.1838 22.3025 16.1425L22.1694 15.9309L22.0363 15.7193C21.9779 15.756 21.9388 15.7778 21.9088 15.7918L22.0143 16.0184ZM21.7106 16.0521L21.6427 16.2928C21.7319 16.3179 21.8177 16.3256 21.9046 16.3133C21.9882 16.3015 22.0598 16.273 22.1198 16.245L22.0143 16.0184L21.9088 15.7918C21.8673 15.8111 21.8474 15.8164 21.8348 15.8182C21.8254 15.8195 21.81 15.8204 21.7784 15.8115L21.7106 16.0521ZM21.4307 15.7925L21.1994 15.8875C21.2795 16.0825 21.4394 16.2354 21.6427 16.2928L21.7106 16.0521L21.7784 15.8115C21.7357 15.7995 21.6888 15.7631 21.6619 15.6976L21.4307 15.7925ZM18.72 16.9183V17.1683C19.7535 17.1683 20.7159 16.7585 21.5963 15.9798L21.4307 15.7925L21.265 15.6053C20.4581 16.3191 19.6094 16.6683 18.72 16.6683V16.9183ZM16.0298 15.8117L15.8652 15.9998C16.7402 16.7656 17.6953 17.1683 18.72 17.1683V16.9183V16.6683C17.838 16.6683 16.996 16.325 16.1944 15.6235L16.0298 15.8117ZM15.7464 16.064L15.8101 16.3058C16.0131 16.2524 16.175 16.1037 16.2589 15.9118L16.0298 15.8117L15.8007 15.7115C15.7726 15.7758 15.7254 15.811 15.6828 15.8223L15.7464 16.064ZM15.4433 16.025L15.3339 16.2498C15.3934 16.2788 15.4644 16.3085 15.5479 16.3218C15.6346 16.3356 15.7204 16.3294 15.8101 16.3058L15.7464 16.064L15.6828 15.8223C15.651 15.8306 15.6356 15.8295 15.6263 15.828C15.6137 15.826 15.5939 15.8202 15.5528 15.8002L15.4433 16.025ZM15.2898 15.9348L15.153 16.1441C15.218 16.1865 15.2767 16.2219 15.3339 16.2498L15.4433 16.025L15.5528 15.8002C15.523 15.7857 15.4843 15.7632 15.4265 15.7255L15.2898 15.9348ZM15.0457 15.1665L14.8108 15.0808C14.6592 15.4967 14.8077 15.9184 15.153 16.1441L15.2898 15.9348L15.4265 15.7255C15.2771 15.6279 15.208 15.4512 15.2806 15.2521L15.0457 15.1665ZM15.1885 14.9298L14.9971 14.769C14.9205 14.8602 14.8539 14.9627 14.8108 15.0808L15.0457 15.1665L15.2806 15.2521C15.2985 15.2029 15.3298 15.1503 15.3799 15.0906L15.1885 14.9298ZM15.1778 14.9166L14.9835 15.0739C14.9872 15.0785 14.9908 15.083 14.9945 15.0875L15.1885 14.9298L15.3825 14.7721C15.379 14.7679 15.3756 14.7636 15.3721 14.7593L15.1778 14.9166Z" fill="white"/>
<path fill-rule="evenodd" clip-rule="evenodd" d="M16.4414 13.554C16.3855 13.6683 16.4235 13.72 16.4414 13.7483C16.5204 13.8246 16.5094 13.9433 16.4414 14.0989L16.3574 14.0686C16.4073 13.9544 16.3925 13.8659 16.3574 13.8342L16.3535 13.8303L16.3505 13.8264C16.2902 13.7491 16.3248 13.6344 16.4023 13.4758L16.4414 13.554ZM20.0458 13.554C19.99 13.6683 20.028 13.72 20.0458 13.7483C20.1249 13.8246 20.1139 13.9433 20.0458 14.0989L19.9619 14.0686C20.0118 13.9544 19.997 13.8659 19.9619 13.8342L19.958 13.8303L19.955 13.8264C19.8947 13.7491 19.9293 13.6344 20.0068 13.4758L20.0458 13.554ZM20.0458 12.4592C19.99 12.5736 20.028 12.6253 20.0458 12.6536C20.1249 12.7298 20.1139 12.8485 20.0458 13.0042L19.9619 12.9739C20.0118 12.8597 19.997 12.7712 19.9619 12.7395L19.958 12.7356L19.955 12.7317C19.8947 12.6544 19.9293 12.5397 20.0068 12.3811L20.0458 12.4592ZM16.4414 12.4192C16.3855 12.5336 16.4235 12.5853 16.4414 12.6135C16.5204 12.6898 16.5094 12.8085 16.4414 12.9641L16.3574 12.9338C16.4073 12.8197 16.3925 12.7311 16.3574 12.6995L16.3535 12.6956L16.3505 12.6917C16.2902 12.6144 16.3248 12.4997 16.4023 12.3411L16.4414 12.4192ZM17.1328 11.4465C17.0769 11.5609 17.1149 11.6126 17.1328 11.6409C17.2121 11.7172 17.2009 11.8356 17.1328 11.9915L17.0498 11.9612C17.0995 11.8473 17.0847 11.7587 17.0498 11.7268L17.0458 11.7229L17.0429 11.719C16.9823 11.6417 17.017 11.5273 17.0947 11.3684L17.1328 11.4465ZM20.0458 11.3655C19.99 11.4798 20.028 11.5316 20.0458 11.5598C20.1249 11.6361 20.1139 11.7548 20.0458 11.9104L19.9619 11.8801C20.0118 11.766 19.997 11.6774 19.9619 11.6458L19.958 11.6418L19.955 11.6379C19.8947 11.5606 19.9293 11.446 20.0068 11.2874L20.0458 11.3655ZM20.0087 10.3118C19.9531 10.4259 19.9909 10.4769 20.0087 10.5051C20.0882 10.5814 20.0769 10.6998 20.0087 10.8557L19.9257 10.8254C19.9756 10.7114 19.9608 10.6228 19.9257 10.5911L19.9218 10.5881L19.9189 10.5842C19.8581 10.5069 19.893 10.3916 19.9707 10.2327L20.0087 10.3118ZM16.5498 10.2307C16.4943 10.3446 16.5319 10.3958 16.5498 10.4241C16.6292 10.5003 16.6179 10.6187 16.5498 10.7747L16.4667 10.7444C16.5167 10.6302 16.5019 10.5417 16.4667 10.51L16.4628 10.5071L16.4599 10.5032C16.3992 10.4259 16.434 10.3105 16.5117 10.1516L16.5498 10.2307ZM16.5507 9.21606C16.4948 9.33043 16.5329 9.38215 16.5507 9.4104C16.6297 9.48666 16.6187 9.60538 16.5507 9.76099L16.4667 9.73071C16.5167 9.61655 16.5019 9.528 16.4667 9.49634L16.4628 9.49243L16.4599 9.48853C16.3996 9.41124 16.4342 9.29654 16.5117 9.13794L16.5507 9.21606ZM20.0087 9.17603C19.9531 9.28983 19.9908 9.34105 20.0087 9.36938C20.0882 9.44566 20.0769 9.56501 20.0087 9.72095L19.9257 9.69067C19.9755 9.57682 19.9607 9.48817 19.9257 9.4563L19.9218 9.45239L19.9189 9.44849C19.8582 9.37119 19.893 9.25672 19.9707 9.0979L20.0087 9.17603ZM20.0087 8.12231C19.9528 8.23668 19.9909 8.2884 20.0087 8.31665C20.0881 8.39293 20.0769 8.51138 20.0087 8.66724L19.9257 8.63696C19.9755 8.52309 19.9607 8.43445 19.9257 8.40259L19.9218 8.39868L19.9189 8.39478C19.8583 8.31745 19.893 8.20304 19.9707 8.04419L20.0087 8.12231ZM16.5498 8.0813C16.4939 8.19567 16.5319 8.24738 16.5498 8.27563C16.6292 8.35191 16.6179 8.47028 16.5498 8.62622L16.4667 8.59595C16.5166 8.48187 16.5018 8.39329 16.4667 8.36157L16.4628 8.35767L16.4599 8.35376C16.3995 8.27646 16.4341 8.16186 16.5117 8.00317L16.5498 8.0813Z" fill="#F50100"/>
<path fill-rule="evenodd" clip-rule="evenodd" d="M16.8958 13.8285C16.937 13.8287 16.97 13.8649 16.97 13.9095C16.97 13.9309 16.962 13.9498 16.9495 13.9642L17.0481 14.0619H17.2659C17.2659 14.0619 17.5862 13.7709 17.5862 13.9164C17.5859 14.0618 17.4329 14.2142 17.4329 14.2142C17.428 14.2175 17.3411 14.2762 17.3411 14.2142C17.3411 14.1505 17.3197 14.3496 17.1409 14.351V14.4398H16.6213L16.6946 14.351C16.6946 14.351 16.566 14.2619 16.5159 14.2142C16.3565 14.1832 16.3021 14.0685 16.2991 14.0619H16.7805L16.8528 13.974C16.8338 13.9593 16.8206 13.9367 16.8206 13.9095C16.8206 13.8648 16.8543 13.8285 16.8958 13.8285ZM20.4993 13.8285C20.5407 13.8285 20.5745 13.8648 20.5745 13.9095C20.5745 13.9309 20.5664 13.9498 20.554 13.9642L20.6526 14.0619H20.8704C20.8704 14.0619 21.1907 13.7709 21.1907 13.9164C21.1904 14.0618 21.0374 14.2142 21.0374 14.2142C21.0325 14.2175 20.9456 14.2762 20.9456 14.2142C20.9456 14.1505 20.9242 14.3496 20.7454 14.351V14.4398H20.2258L20.2991 14.351C20.2991 14.351 20.1705 14.2619 20.1204 14.2142C19.961 14.1832 19.9066 14.0685 19.9036 14.0619H20.385L20.4573 13.974C20.4383 13.9593 20.4251 13.9367 20.425 13.9095C20.425 13.8649 20.4581 13.8288 20.4993 13.8285ZM16.8958 13.4633C16.9371 13.4634 16.9709 13.4996 16.9709 13.5443C16.9709 13.5583 16.966 13.5709 16.9602 13.5824L17.2629 14.0345L17.2336 14.059L16.9348 13.6117C16.9233 13.6196 16.9104 13.6253 16.8958 13.6254C16.8855 13.6254 16.8754 13.6235 16.8665 13.6195L16.5833 14.059L16.553 14.0355L16.8372 13.5941C16.8271 13.5803 16.8206 13.5633 16.8206 13.5443C16.8206 13.4995 16.8543 13.4633 16.8958 13.4633ZM20.4993 13.4633C20.5407 13.4633 20.5744 13.4995 20.5745 13.5443C20.5745 13.5584 20.5696 13.5708 20.5637 13.5824L20.8674 14.0345L20.8381 14.059L20.5383 13.6117C20.5268 13.6195 20.5139 13.6254 20.4993 13.6254C20.489 13.6253 20.4789 13.6236 20.47 13.6195L20.1868 14.059L20.1575 14.0355L20.4417 13.5941C20.4315 13.5803 20.425 13.5634 20.425 13.5443C20.4251 13.4996 20.458 13.4634 20.4993 13.4633ZM20.4993 12.7338C20.5407 12.7338 20.5744 12.7701 20.5745 12.8148C20.5745 12.8359 20.5661 12.8541 20.554 12.8685L20.6526 12.9662H20.8704C20.8815 12.9561 21.19 12.6788 21.1907 12.8207C21.1907 12.9662 21.0374 13.1195 21.0374 13.1195C21.0324 13.1229 20.9458 13.1811 20.9456 13.1195C20.9456 13.0557 20.9241 13.2538 20.7454 13.2552V13.3441H20.2258L20.2991 13.2552C20.2941 13.2518 20.1695 13.1662 20.1204 13.1195C19.9561 13.0876 19.9036 12.9662 19.9036 12.9662H20.385L20.4563 12.8793C20.4377 12.8645 20.425 12.8417 20.425 12.8148C20.4251 12.7703 20.4581 12.734 20.4993 12.7338ZM16.8958 12.6937C16.9371 12.6938 16.9709 12.7301 16.9709 12.7748C16.9709 12.7957 16.9625 12.8141 16.9504 12.8285L17.0481 12.9261H17.2659C17.2659 12.9261 17.5862 12.6352 17.5862 12.7806C17.5859 12.926 17.4329 13.0785 17.4329 13.0785C17.428 13.0818 17.3411 13.1404 17.3411 13.0785C17.3411 13.0147 17.3197 13.2139 17.1409 13.2152V13.3041H16.6213L16.6946 13.2152C16.6946 13.2152 16.566 13.1262 16.5159 13.0785C16.3565 13.0474 16.3021 12.9328 16.2991 12.9261H16.7805L16.8518 12.8392C16.8333 12.8245 16.8206 12.8016 16.8206 12.7748C16.8206 12.73 16.8543 12.6937 16.8958 12.6937ZM20.4993 12.3685C20.5407 12.3685 20.5744 12.4048 20.5745 12.4496C20.5745 12.4637 20.5696 12.4761 20.5637 12.4877L20.8674 12.9398L20.8381 12.9642L20.5383 12.517C20.5268 12.5248 20.5139 12.5306 20.4993 12.5306C20.489 12.5306 20.4789 12.5289 20.47 12.5248L20.1868 12.9642L20.1575 12.9398L20.4417 12.4994C20.4315 12.4856 20.425 12.4686 20.425 12.4496C20.4251 12.4049 20.458 12.3687 20.4993 12.3685ZM16.8958 12.3285C16.937 12.3287 16.97 12.3649 16.97 12.4095C16.97 12.4237 16.9651 12.4361 16.9592 12.4476L17.2629 12.8998L17.2336 12.9242L16.9338 12.476C16.9224 12.4838 16.9103 12.4905 16.8958 12.4906C16.8854 12.4906 16.8754 12.4879 16.8665 12.4838L16.5833 12.9232L16.553 12.8998L16.8372 12.4594C16.827 12.4455 16.8206 12.4285 16.8206 12.4095C16.8206 12.3648 16.8543 12.3285 16.8958 12.3285ZM17.5872 11.7201C17.6285 11.7201 17.6622 11.7565 17.6624 11.8011C17.6624 11.8223 17.6531 11.8404 17.6409 11.8549L17.7395 11.9535H17.9573C17.9573 11.9535 18.2786 11.6625 18.2786 11.808C18.2783 11.9509 18.1303 12.1007 18.1252 12.1058C18.1252 12.1058 18.0326 12.1695 18.0325 12.1058C18.0325 12.0421 18.0111 12.2412 17.8323 12.2426V12.3314H17.3127L17.386 12.2426C17.3822 12.24 17.2578 12.1528 17.2083 12.1058C17.0479 12.0747 16.993 11.9591 16.9905 11.9535H17.4729L17.5442 11.8666C17.5252 11.8519 17.512 11.8284 17.512 11.8011C17.5121 11.7565 17.5458 11.7201 17.5872 11.7201ZM20.4993 11.639C20.5406 11.639 20.5743 11.6754 20.5745 11.7201C20.5745 11.7414 20.5664 11.7603 20.554 11.7748L20.6526 11.8724H20.8704C20.8704 11.8724 21.1907 11.5814 21.1907 11.7269C21.1904 11.8723 21.0374 12.0248 21.0374 12.0248C21.0331 12.0277 20.9457 12.0868 20.9456 12.0248C20.9456 11.961 20.9241 12.1601 20.7454 12.1615V12.2504H20.2258L20.2991 12.1615C20.2991 12.1615 20.1705 12.0725 20.1204 12.0248C19.9617 11.9939 19.9071 11.8801 19.9036 11.8724H20.385L20.4573 11.7845C20.4383 11.7698 20.425 11.7472 20.425 11.7201C20.4252 11.6756 20.4581 11.6393 20.4993 11.639ZM17.5872 11.3558C17.6285 11.3559 17.6623 11.3922 17.6624 11.4369C17.6624 11.4509 17.6574 11.4635 17.6516 11.475L17.9543 11.9261L17.925 11.9506L17.6262 11.5043C17.6147 11.5122 17.6018 11.5179 17.5872 11.5179C17.5764 11.5179 17.5661 11.5155 17.5569 11.5111L17.2747 11.9506L17.2454 11.9261L17.5286 11.4857C17.5188 11.472 17.512 11.4555 17.512 11.4369C17.512 11.3921 17.5457 11.3558 17.5872 11.3558ZM20.4993 11.2748C20.5407 11.2748 20.5744 11.3111 20.5745 11.3558C20.5745 11.3694 20.5702 11.3817 20.5647 11.3929L20.8674 11.8451L20.8381 11.8695L20.5383 11.4232C20.5268 11.431 20.5139 11.4369 20.4993 11.4369C20.4885 11.4368 20.4782 11.4345 20.469 11.4301L20.1868 11.8695L20.1575 11.8451L20.4417 11.4047C20.4318 11.3909 20.425 11.3746 20.425 11.3558C20.4251 11.3112 20.458 11.275 20.4993 11.2748ZM20.4631 10.5853C20.5046 10.5853 20.5383 10.6216 20.5383 10.6664C20.5383 10.6877 20.5302 10.7066 20.5178 10.7211L20.6165 10.8187H20.8333C20.8333 10.8187 21.1545 10.5277 21.1545 10.6732C21.1543 10.8166 21.0052 10.967 21.0012 10.9711C21.0012 10.9711 20.9085 11.0348 20.9084 10.9711C20.9084 10.9073 20.8876 11.1061 20.7092 11.1078V11.1967H20.1897L20.2629 11.1078C20.2629 11.1078 20.1344 11.0188 20.0842 10.9711C19.926 10.9404 19.8713 10.827 19.8674 10.8187H20.3489L20.4211 10.7308C20.402 10.7162 20.388 10.6936 20.3879 10.6664C20.3879 10.6217 20.4218 10.5854 20.4631 10.5853ZM17.0042 10.5043C17.0456 10.5043 17.0793 10.5405 17.0793 10.5853C17.0793 10.6067 17.0713 10.6256 17.0588 10.64L17.1575 10.7377H17.3752C17.3752 10.7377 17.6956 10.4467 17.6956 10.5922C17.6953 10.7375 17.5422 10.89 17.5422 10.89C17.5374 10.8933 17.4505 10.952 17.4504 10.89C17.4504 10.8262 17.4291 11.0254 17.2502 11.0267V11.1156H16.7307L16.804 11.0267C16.804 11.0267 16.6754 10.9377 16.6252 10.89C16.4659 10.859 16.4115 10.7443 16.4084 10.7377H16.8899L16.9622 10.6498C16.9431 10.6351 16.93 10.6125 16.9299 10.5853C16.9299 10.5407 16.9629 10.5045 17.0042 10.5043ZM20.4631 10.2201C20.5045 10.2201 20.5382 10.2565 20.5383 10.3011C20.5383 10.3151 20.5334 10.3277 20.5276 10.3392L20.8303 10.7914L20.802 10.8158L20.5022 10.3685C20.4906 10.3764 20.4778 10.3822 20.4631 10.3822C20.4528 10.3822 20.4428 10.3805 20.4338 10.3763L20.1506 10.8158L20.1213 10.7914L20.4055 10.351C20.3954 10.3371 20.3879 10.3201 20.3879 10.3011C20.3881 10.2566 20.4219 10.2202 20.4631 10.2201ZM17.0042 10.139C17.0455 10.139 17.0792 10.1754 17.0793 10.2201C17.0793 10.2341 17.0744 10.2467 17.0686 10.2582L17.3723 10.7103L17.343 10.7347L17.0432 10.2875C17.0317 10.2953 17.0187 10.3011 17.0042 10.3011C16.9937 10.3011 16.9839 10.2986 16.9749 10.2943L16.6917 10.7347L16.6624 10.7103L16.9465 10.2699C16.9365 10.2561 16.9299 10.239 16.9299 10.2201C16.9301 10.1756 16.963 10.1393 17.0042 10.139ZM17.0042 9.4906C17.0456 9.4906 17.0793 9.52689 17.0793 9.57166C17.0793 9.59299 17.0713 9.61187 17.0588 9.62634L17.1575 9.724H17.3752C17.3752 9.724 17.6956 9.43301 17.6956 9.57849C17.6953 9.72387 17.5422 9.87634 17.5422 9.87634C17.5374 9.87964 17.4505 9.93828 17.4504 9.87634C17.4504 9.81256 17.4291 10.0117 17.2502 10.0131V10.1019H16.7307L16.804 10.0131C16.804 10.0131 16.6754 9.92402 16.6252 9.87634C16.4659 9.84529 16.4115 9.73061 16.4084 9.724H16.8899L16.9622 9.63611C16.9432 9.6214 16.9299 9.59885 16.9299 9.57166C16.9299 9.52705 16.9629 9.49086 17.0042 9.4906ZM20.4631 9.44958C20.5045 9.44958 20.5383 9.48587 20.5383 9.53064C20.5383 9.55194 20.5303 9.57086 20.5178 9.58533L20.6165 9.68298H20.8342C20.8427 9.67536 21.1545 9.39396 21.1545 9.53748C21.1544 9.68042 21.0063 9.83022 21.0012 9.83533C21.0012 9.83533 20.9084 9.89911 20.9084 9.83533C20.9084 9.77204 20.8875 9.97043 20.7092 9.97205V10.0609H20.1897L20.2629 9.97205C20.2629 9.97205 20.1344 9.88301 20.0842 9.83533C19.9246 9.80434 19.8704 9.6895 19.8674 9.68298H20.3489L20.4202 9.59607C20.4012 9.58136 20.3889 9.55781 20.3889 9.53064C20.3889 9.48598 20.4219 9.44976 20.4631 9.44958ZM17.0042 9.12537C17.0456 9.12537 17.0793 9.16165 17.0793 9.20642C17.0793 9.22052 17.0745 9.23296 17.0686 9.24451L17.3723 9.69666L17.343 9.72107L17.0432 9.2738C17.0317 9.2816 17.0187 9.28748 17.0042 9.28748C16.9938 9.28743 16.9838 9.28572 16.9749 9.28162L16.6917 9.72107L16.6624 9.69763L16.9465 9.25623C16.9364 9.24239 16.9299 9.22547 16.9299 9.20642C16.9299 9.16176 16.9629 9.12554 17.0042 9.12537ZM20.4631 9.08533C20.5046 9.08533 20.5383 9.1216 20.5383 9.16638C20.5383 9.18047 20.5334 9.19293 20.5276 9.20447L20.8313 9.65662L20.802 9.68103L20.5012 9.23376C20.4898 9.24128 20.4774 9.24744 20.4631 9.24744C20.4527 9.24741 20.4429 9.24479 20.4338 9.2406L20.1506 9.68103L20.1213 9.65662L20.4055 9.21619C20.3953 9.20235 20.388 9.18545 20.3879 9.16638C20.3879 9.12167 20.4218 9.08544 20.4631 9.08533ZM17.0042 8.35583C17.0456 8.35583 17.0793 8.39212 17.0793 8.43689C17.0793 8.45791 17.071 8.47619 17.0588 8.4906L17.1575 8.58826H17.3752C17.3752 8.58826 17.6956 8.29727 17.6956 8.44275C17.6953 8.58813 17.5422 8.7406 17.5422 8.7406C17.5374 8.7439 17.4505 8.80254 17.4504 8.7406C17.4504 8.67682 17.4291 8.87598 17.2502 8.87732V8.96619H16.7307L16.804 8.87732C16.804 8.87732 16.6754 8.78828 16.6252 8.7406C16.4659 8.70955 16.4115 8.59486 16.4084 8.58826H16.8899L16.9612 8.50134C16.9425 8.4866 16.9299 8.46383 16.9299 8.43689C16.9299 8.39223 16.9629 8.35601 17.0042 8.35583ZM17.0042 7.9906C17.0456 7.9906 17.0793 8.02689 17.0793 8.07166C17.0793 8.08578 17.0745 8.09818 17.0686 8.10974L17.3723 8.56189L17.343 8.5863L17.0432 8.13904C17.0317 8.14679 17.0187 8.15271 17.0042 8.15271C16.9937 8.15265 16.9839 8.15011 16.9749 8.14587L16.6917 8.58533L16.6624 8.56189L16.9465 8.12146C16.9364 8.10763 16.9299 8.09067 16.9299 8.07166C16.9299 8.02705 16.9629 7.99086 17.0042 7.9906Z" fill="#FFD018"/>
<path fill-rule="evenodd" clip-rule="evenodd" d="M18.4798 9.4397L18.2275 10.2598C18.2275 10.2598 17.8049 10.8066 17.727 11.0745C17.649 11.3424 17.6063 11.5205 17.6277 11.5205C17.649 11.5205 17.8217 11.4442 17.8217 11.2593C17.8217 11.0745 18.4798 10.4801 18.4798 10.4801L18.6763 9.4397H18.4798Z" fill="#FFC6B5"/>
<path fill-rule="evenodd" clip-rule="evenodd" d="M20.464 8.39673C20.5053 8.39684 20.5392 8.43309 20.5392 8.47778C20.5392 8.49869 20.5307 8.51712 20.5187 8.53149L20.6163 8.62915H20.8341C20.8341 8.62915 21.1544 8.33816 21.1544 8.48364C21.1542 8.62903 21.0011 8.78149 21.0011 8.78149C20.9963 8.78479 20.9093 8.84343 20.9093 8.78149C20.9093 8.71771 20.8879 8.91687 20.7091 8.91821V9.00708H20.1896L20.2628 8.91821C20.2628 8.91821 20.1342 8.82918 20.0841 8.78149C19.9248 8.75045 19.8703 8.63576 19.8673 8.62915H20.3488L20.42 8.54224C20.4015 8.52747 20.3888 8.50457 20.3888 8.47778C20.3888 8.43302 20.4226 8.39673 20.464 8.39673ZM20.464 8.03149C20.5052 8.03172 20.5382 8.06792 20.5382 8.11255C20.5382 8.1267 20.5334 8.13906 20.5275 8.15063L20.8312 8.60278L20.8019 8.6272L20.5021 8.17993C20.4907 8.18757 20.4783 8.19353 20.464 8.1936C20.4538 8.1936 20.4436 8.19173 20.4347 8.18774L20.1515 8.62622L20.1212 8.60278L20.4054 8.16235C20.3953 8.14854 20.3888 8.13153 20.3888 8.11255C20.3888 8.06778 20.4226 8.03149 20.464 8.03149Z" fill="#FFD018"/>
<path fill-rule="evenodd" clip-rule="evenodd" d="M19.3736 9.35157C19.4732 9.35335 19.6272 10.1583 19.6831 10.4815C19.7391 10.8049 19.628 10.717 19.3736 11.1377C19.1193 11.5583 19.3159 11.6876 19.2007 11.8486C19.0855 12.0097 19.0439 11.8339 18.9976 11.6875C18.9515 11.541 19.1958 11.0584 19.316 10.8018C19.4362 10.5451 19.4254 10.4552 19.3736 10.3477C19.3223 10.2409 19.2748 9.98585 19.274 9.98146L19.316 9.52052C19.316 9.52052 19.2739 9.35157 19.3736 9.35157ZM18.5982 8.36329C18.5983 8.14767 18.6919 8.31446 18.8648 8.31446C19.0372 8.31457 18.948 8.37925 19.0601 8.58009C19.1722 8.78085 19.0601 8.72492 19.0601 8.91212C19.0601 9.09942 19.107 9.10603 19.107 9.15333C19.1062 9.20063 18.9065 9.26954 18.7623 9.26954C18.6179 9.26945 18.6744 9.15262 18.7623 9.0879C18.85 9.02315 18.7551 8.91212 18.6744 8.91212C18.5938 8.91195 18.5982 8.79202 18.5982 8.70314V8.36329Z" fill="#FFC6B5"/>
<path fill-rule="evenodd" clip-rule="evenodd" d="M19.3146 14.3149C19.4249 14.3151 19.5146 14.4098 19.5148 14.5268C19.5148 14.644 19.4251 14.7395 19.3146 14.7397C19.204 14.7397 19.1144 14.6441 19.1144 14.5268C19.1147 14.4097 19.2042 14.3149 19.3146 14.3149ZM18.2853 14.3911C18.3751 14.3157 18.4852 14.2981 18.5304 14.352C18.5757 14.4059 18.5392 14.511 18.4494 14.5864C18.3597 14.6615 18.2506 14.679 18.2052 14.6254C18.1601 14.5716 18.1957 14.4664 18.2853 14.3911Z" fill="#FFD018"/>
<path fill-rule="evenodd" clip-rule="evenodd" d="M18.7133 8.08852C18.7133 8.08852 18.5051 8.13081 18.5745 8.23508C18.6439 8.33936 18.484 8.31239 18.7133 8.32587C18.9426 8.33936 19.0054 8.42282 18.974 8.48448C18.9426 8.54615 18.9179 8.69926 18.974 8.79152C19.03 8.88378 19.0478 9.04433 19.1467 8.96405C19.2457 8.88378 19.4358 8.77349 19.3776 8.62899C19.3194 8.48448 19.4011 8.31638 19.2739 8.23508C19.1467 8.15378 19.1183 8.2035 19.0456 8.08852C18.9728 7.97355 18.8656 7.9419 18.7894 8.01521C18.7133 8.08852 18.7133 8.08852 18.7133 8.08852Z" fill="#A95601"/>
<path fill-rule="evenodd" clip-rule="evenodd" d="M18.672 9.13318C18.672 9.13318 18.2535 9.63711 18.322 9.81467C18.3906 9.99222 18.493 10.0016 18.4418 10.254C18.3906 10.5064 18.4729 10.8967 18.322 11.3932C18.1711 11.8897 18.072 13.0546 18.1215 13.0546C18.1711 13.0546 18.24 13.6981 18.1808 13.9868C18.1215 14.2755 17.7084 14.517 18.1215 14.517C18.5347 14.517 18.5837 14.5742 18.7487 14.517C18.9138 14.4598 19.1481 14.6817 19.1481 14.517C19.1481 14.3523 19.1657 14.3186 19.2916 14.3186C19.4174 14.3186 19.411 14.3186 19.5224 14.3186C19.6339 14.3186 19.7799 14.4223 19.7799 14.1763C19.7799 13.9303 19.8071 13.4017 19.6647 12.9913C19.5224 12.5808 19.5708 12.8429 19.4312 12.294C19.3485 11.9689 19.2846 11.8399 19.2343 11.7263C19.1997 11.6481 19.1009 11.7853 19.0774 11.663C19.0695 11.6215 19.1371 11.378 19.1378 11.3468C19.1422 11.1519 19.2916 11.1187 19.2916 10.7835C19.2916 10.3945 19.1983 9.96712 19.2916 9.7533C19.3848 9.53947 19.6137 9.66804 19.5224 9.46007C19.4312 9.25211 19.4015 9.13318 19.2297 9.13318C19.0579 9.13318 18.672 9.13318 18.672 9.13318Z" fill="#F7FCFF"/>
<path d="M15.7399 15.1094L15.8099 15.0161C16.812 15.9494 17.7383 16.4145 18.5886 16.4145C19.4397 16.4145 20.4759 15.9209 21.6952 14.9309L21.7596 15.0292C20.5233 16.0329 19.467 16.5361 18.5886 16.5361C17.7093 16.5361 16.7599 16.0595 15.7399 15.1094Z" fill="#272727"/>
</g>
</g>
</svg>
