<svg width="24" height="18" viewBox="0 0 24 18" fill="none" xmlns="http://www.w3.org/2000/svg">
<mask id="mask0_395_54682" style="mask-type:luminance" maskUnits="userSpaceOnUse" x="0" y="0" width="24" height="18">
<rect width="24" height="18" fill="white"/>
</mask>
<g mask="url(#mask0_395_54682)">
<path fill-rule="evenodd" clip-rule="evenodd" d="M0 0H24V18H0V0Z" fill="#F7FCFF"/>
<path fill-rule="evenodd" clip-rule="evenodd" d="M0 0V6H24V0H0Z" fill="#C51918"/>
<path fill-rule="evenodd" clip-rule="evenodd" d="M0 12V18H24V12H0Z" fill="#5EAA22"/>
<path fill-rule="evenodd" clip-rule="evenodd" d="M0 -1.5L12.5022 9L0 19.5V-1.5Z" fill="#272727"/>
<mask id="path-6-outside-1_395_54682" maskUnits="userSpaceOnUse" x="-2" y="-7.5166" width="28" height="32" fill="black">
<rect fill="white" x="-2" y="-7.5166" width="28" height="32"/>
<path fill-rule="evenodd" clip-rule="evenodd" d="M0 -2.5166L13.0567 7.5H24V10.5H12.8765L0 20.1082V16.7548L10.5 8.99961L0 1.15049V-2.5166Z"/>
</mask>
<path fill-rule="evenodd" clip-rule="evenodd" d="M0 -2.5166L13.0567 7.5H24V10.5H12.8765L0 20.1082V16.7548L10.5 8.99961L0 1.15049V-2.5166Z" fill="#FFD018"/>
<path d="M13.0567 7.5L11.8394 9.08683L12.3779 9.5H13.0567V7.5ZM0 -2.5166L1.21736 -4.10344L-2 -6.57166V-2.5166H0ZM24 7.5H26V5.5H24V7.5ZM24 10.5V12.5H26V10.5H24ZM12.8765 10.5V8.5H12.2126L11.6804 8.89707L12.8765 10.5ZM0 20.1082H-2V24.096L1.19608 21.7112L0 20.1082ZM0 16.7548L-1.18821 15.146L-2 15.7456V16.7548H0ZM10.5 8.99961L11.6882 10.6084L13.8533 9.00928L11.6975 7.39772L10.5 8.99961ZM0 1.15049H-2V2.15246L-1.19747 2.75238L0 1.15049ZM13.0567 7.5L14.2741 5.91317L1.21736 -4.10344L0 -2.5166L-1.21736 -0.929767L11.8394 9.08683L13.0567 7.5ZM24 7.5V5.5H13.0567V7.5V9.5H24V7.5ZM24 10.5H26V7.5H24H22V10.5H24ZM12.8765 10.5V12.5H24V10.5V8.5H12.8765V10.5ZM0 20.1082L1.19608 21.7112L14.0726 12.1029L12.8765 10.5L11.6804 8.89707L-1.19608 18.5053L0 20.1082ZM0 16.7548H-2V20.1082H0H2V16.7548H0ZM10.5 8.99961L9.31179 7.39084L-1.18821 15.146L0 16.7548L1.18821 18.3635L11.6882 10.6084L10.5 8.99961ZM0 1.15049L-1.19747 2.75238L9.30253 10.6015L10.5 8.99961L11.6975 7.39772L1.19747 -0.451406L0 1.15049ZM0 -2.5166H-2V1.15049H0H2V-2.5166H0Z" fill="#272727" mask="url(#path-6-outside-1_395_54682)"/>
<path d="M3.65528 12.5764L3.65678 11.3911C4.71302 11.1581 5.41273 10.855 5.75332 10.4905C6.592 9.45687 6.03448 7.03521 4.31145 7.05104C3.45781 7.05104 2.57507 7.45783 2.57507 8.41523C2.57507 9.60432 2.81977 10.1126 3.65678 10.1126C4.48856 10.1126 4.79352 10.1571 5.34143 9.4103L5.93602 9.59402C5.34888 10.3943 4.55745 11.0264 3.65528 11.0264C2.16912 11.0264 1.36035 9.90588 1.36035 8.60994C1.36035 7.01011 2.65911 5.88965 4.22507 5.88965C5.3935 5.88965 7.24161 7.3208 7.24161 8.60994C7.24161 9.89907 7.24161 10.4905 6.22824 11.3911C5.82006 11.7539 4.80872 12.4017 3.65528 12.5764Z" fill="#FFD018"/>
<path fill-rule="evenodd" clip-rule="evenodd" d="M3.7434 7.40963C3.80056 7.42473 3.83458 7.48332 3.81957 7.54049L3.73656 7.8569C3.80898 7.95122 3.87737 8.04156 3.94262 8.1274L4.04711 7.89791C4.07151 7.84419 4.13493 7.82007 4.18871 7.8442C4.24247 7.86861 4.26661 7.93201 4.24242 7.9858L4.09008 8.32174C4.12757 8.37155 4.16374 8.41968 4.19848 8.46627L4.26195 8.32662C4.2864 8.27281 4.34972 8.24858 4.40356 8.27291C4.45743 8.29738 4.48174 8.36161 4.45727 8.41549L4.34301 8.66451C4.43317 8.78758 4.51391 8.89568 4.58129 8.99264L4.68969 8.75533C4.71416 8.70146 4.77839 8.67715 4.83227 8.70162C4.88599 8.72617 4.90944 8.7904 4.885 8.8442L4.7268 9.19283C4.72548 9.19573 4.7225 9.19789 4.72094 9.20065C4.83941 9.38422 4.89672 9.49883 4.89672 9.55319C4.8966 9.61219 4.84831 9.65953 4.7893 9.65963C4.7302 9.65963 4.68199 9.61226 4.68188 9.55319C4.68188 9.53182 4.63321 9.45142 4.54223 9.31588L4.32641 9.43307C4.27429 9.46099 4.20887 9.44123 4.1809 9.38912C4.15293 9.33699 4.17272 9.2716 4.22485 9.24362L4.42016 9.13815C4.35866 9.05078 4.28648 8.95071 4.20434 8.83834L3.8977 9.00436C3.8457 9.03195 3.78112 9.01226 3.75317 8.96041C3.72518 8.90828 3.74498 8.84289 3.79711 8.8149L4.07641 8.66451C4.02603 8.59653 3.97448 8.52365 3.9182 8.44869L3.68383 8.57467C3.63174 8.60264 3.56635 8.58375 3.53832 8.5317C3.51033 8.47957 3.53013 8.41418 3.58227 8.38619L3.78637 8.27584C3.72692 8.19733 3.66475 8.11557 3.59985 8.03073L3.49145 8.13131C3.44797 8.17129 3.38017 8.16789 3.34008 8.12448C3.30007 8.081 3.30251 8.01321 3.34594 7.97311L3.46899 7.85983C3.44485 7.82847 3.42054 7.79623 3.39574 7.76412C3.35979 7.7173 3.36852 7.64984 3.41527 7.61373C3.4621 7.57776 3.52955 7.58651 3.56567 7.63326C3.56778 7.636 3.5704 7.63835 3.5725 7.64108L3.61254 7.4858C3.62769 7.42878 3.68633 7.39472 3.7434 7.40963Z" fill="#FFD018"/>
<path fill-rule="evenodd" clip-rule="evenodd" d="M4.46395 7.40983C4.40705 7.42508 4.37286 7.48368 4.38778 7.54069L4.47274 7.8571C4.4002 7.9516 4.33107 8.04162 4.26571 8.1276L4.16024 7.89811C4.13577 7.84424 4.07252 7.81993 4.01864 7.8444C3.96493 7.86889 3.9416 7.93221 3.96591 7.986L4.11825 8.32096C4.08076 8.37077 4.04459 8.4189 4.00985 8.4655L3.94638 8.32682C3.92197 8.27308 3.85857 8.24893 3.80477 8.27311C3.7509 8.29758 3.72659 8.36181 3.75106 8.41569L3.86532 8.66471C3.77516 8.78778 3.69442 8.89588 3.62704 8.99284L3.51767 8.75553C3.4932 8.70166 3.42994 8.67735 3.37606 8.70182C3.3222 8.7263 3.29886 8.79053 3.32333 8.8444L3.48153 9.19303C3.48288 9.19599 3.4858 9.19804 3.48739 9.20085C3.36889 9.38446 3.31161 9.49902 3.31161 9.55339C3.31178 9.61242 3.35996 9.65983 3.41903 9.65983C3.47805 9.65978 3.52629 9.61238 3.52645 9.55339C3.52645 9.53202 3.57509 9.45166 3.6661 9.31608L3.88192 9.43327C3.93389 9.46092 3.99843 9.44109 4.02645 9.38932C4.0544 9.33727 4.03544 9.27187 3.98349 9.24382L3.78817 9.13835C3.84968 9.05098 3.92185 8.95091 4.00399 8.83854L4.30966 9.00456C4.36175 9.03252 4.42714 9.01265 4.45517 8.96061C4.48315 8.90848 4.46336 8.84309 4.41122 8.8151L4.13192 8.66471C4.18241 8.59659 4.2347 8.52402 4.2911 8.44889L4.5245 8.57487C4.57648 8.60277 4.6409 8.58368 4.66903 8.5319C4.69698 8.47984 4.67803 8.41445 4.62606 8.38639L4.42294 8.27604C4.48239 8.19753 4.54455 8.11577 4.60946 8.03093L4.71688 8.13053C4.76036 8.17068 4.82811 8.16815 4.86825 8.12468C4.90814 8.08121 4.90572 8.01339 4.86239 7.97331L4.74032 7.86003C4.76432 7.82885 4.78794 7.79624 4.81259 7.76432C4.84846 7.71751 4.83977 7.65002 4.79306 7.61393C4.74625 7.57779 4.67885 7.58671 4.64267 7.63346C4.6407 7.63601 4.63877 7.63873 4.63681 7.64128L4.59579 7.486C4.58068 7.42879 4.52117 7.39472 4.46395 7.40983Z" fill="#FFD018"/>
</g>
</svg>
