<svg width="24" height="18" viewBox="0 0 24 18" fill="none" xmlns="http://www.w3.org/2000/svg">
<rect width="24" height="18" fill="white"/>
<path d="M8.31778 15.9217C7.81837 16.0726 7.09888 16.3821 6.81108 16.5557C6.71797 16.616 6.72643 16.684 6.87033 16.9406C6.97191 17.1066 7.07348 17.25 7.09041 17.25C7.1158 17.25 7.39514 17.1368 7.70833 16.9934C8.02152 16.8575 8.42169 16.6783 8.60557 16.6462C8.7462 16.6217 8.87463 16.5985 8.95411 16.569C8.98613 16.6384 8.96645 16.5997 9.02477 16.7086C9.1086 16.865 9.05641 16.8615 9.20142 16.9043C9.3543 16.9495 9.73136 16.767 9.73136 16.767C10.1715 16.6311 10.417 16.616 11.9999 16.616C13.5828 16.616 13.8282 16.6311 14.2684 16.7745C14.2684 16.7745 14.6226 16.882 14.6681 16.895C14.7134 16.9079 14.7372 16.9181 14.785 16.9078C14.8286 16.8985 14.874 16.8391 14.8941 16.8032C14.8941 16.8032 14.9915 16.5946 15.0165 16.5215C15.1008 16.5576 15.2545 16.6047 15.4026 16.6462C15.5804 16.6991 15.9782 16.8575 16.2914 16.9934C16.6046 17.1368 16.8839 17.25 16.9093 17.25C16.9263 17.25 17.0278 17.1066 17.1294 16.9406C17.3326 16.5858 17.3495 16.616 16.6131 16.2764C15.6312 15.8236 14.6493 15.6198 14.5562 15.8387C14.5393 15.8802 14.5249 15.9045 14.5016 15.9583C14.4032 15.9381 14.1457 15.884 13.8875 15.8462C13.0918 15.7179 10.9079 15.7179 10.1123 15.8462C9.8541 15.884 9.67957 15.9469 9.5337 15.983C9.45112 15.8357 9.4684 15.8943 9.45147 15.8528C9.38376 15.7018 8.93569 15.7255 8.31777 15.9217H8.31778Z" fill="#DFDFDF"/>
<path d="M9.03691 6.59475C9.01986 6.84069 9.07102 7.01465 9.20461 7.14662C9.2643 7.2096 9.31546 7.28459 9.31546 7.28459C9.31546 7.28459 9.24724 7.35957 9.1904 7.41655C9.05681 7.54852 9.0028 7.71948 9.0028 7.89944C9.0028 8.08539 9.05681 8.21436 9.20177 8.38232C9.20177 8.38232 9.32413 8.44391 9.32114 8.52029C9.31816 8.59667 9.1904 8.67325 9.1904 8.67325C8.9289 8.97918 8.93743 9.3301 9.21029 9.62103L9.32683 9.75H12.0043H14.679L14.8097 9.60303C15.0627 9.3181 15.0627 9.00918 14.8126 8.68226C14.8126 8.68226 14.6867 8.59248 14.6847 8.51729C14.6826 8.44211 14.804 8.36733 14.804 8.36733C15.0655 8.03741 15.0599 7.73448 14.7898 7.41655C14.6676 7.27559 14.6648 7.24859 14.7614 7.18261C14.9177 7.07163 15.0144 6.69672 14.9433 6.46878C14.8382 6.12686 14.3862 5.89891 14.1105 6.04888C14.0594 6.07587 13.957 6.15085 13.8803 6.21384C13.8035 6.27982 13.7325 6.33081 13.7183 6.33081C13.7069 6.33081 13.6387 6.27682 13.5676 6.21084C13.2919 5.9619 12.9599 5.9319 12.6842 6.21384C12.6842 6.21384 12.6449 6.36466 12.587 6.3698C12.5291 6.37494 12.4477 6.23483 12.4477 6.23483C12.1663 5.9559 11.8139 5.9679 11.5268 6.26183C11.5268 6.26183 11.4866 6.38461 11.4217 6.3698C11.3567 6.35499 11.3034 6.21084 11.3034 6.21084C11.1357 6.04887 11.0294 6.05188 10.8361 6.04888C10.7249 6.04707 10.5233 6.07414 10.4016 6.16515C10.2798 6.25616 10.3013 6.36519 10.2733 6.3578C10.203 6.33925 10.1255 6.22583 10.1255 6.22583C9.85267 5.97989 9.63381 5.9379 9.36947 6.08487C9.16197 6.19884 9.05396 6.3668 9.03691 6.59475Z" fill="#171796"/>
<path d="M9.21346 10.8689C9.21346 10.8689 9.32242 10.922 9.31866 10.99C9.31489 11.058 9.19924 11.1258 9.19924 11.1258C9.13384 11.1996 9.06276 11.3059 9.04002 11.359C8.94903 11.5863 9.01727 11.8904 9.1964 12.0646C9.30444 12.1739 9.30728 12.2181 9.20493 12.3481C9.15943 12.4041 9.10541 12.4839 9.08551 12.5252C8.87227 12.9444 9.19071 13.4699 9.66269 13.4699C9.85034 13.4699 9.9925 13.4079 10.1204 13.2662C10.2228 13.154 10.2768 13.1511 10.3678 13.2515C10.5014 13.405 10.6777 13.4995 10.8256 13.4995C10.999 13.4995 11.1071 13.4434 11.2833 13.2692C11.2833 13.2692 11.3532 13.1326 11.417 13.1334C11.4807 13.1341 11.5392 13.2721 11.5392 13.2721C11.8036 13.5674 12.0709 13.5762 12.4263 13.2957C12.4263 13.2957 12.5044 13.1821 12.5713 13.1836C12.6382 13.185 12.6964 13.3017 12.6964 13.3017C12.8528 13.4434 12.9694 13.4995 13.1229 13.4995C13.2764 13.4995 13.3902 13.4375 13.5693 13.2544C13.5693 13.2544 13.6618 13.1155 13.7171 13.1068C13.7725 13.098 13.8309 13.2131 13.8309 13.2131C14.0498 13.4168 14.1692 13.4817 14.3284 13.4817C14.4934 13.4817 14.6099 13.4257 14.7748 13.2721C14.9284 13.1275 15.0108 12.9592 14.9909 12.8204C14.971 12.6699 14.8402 12.3953 14.7436 12.3008C14.7436 12.3008 14.6466 12.2924 14.6611 12.2181C14.6756 12.1439 14.789 12.0676 14.789 12.0676C15.0677 11.7281 15.0705 11.4653 14.7947 11.1287C14.7947 11.1287 14.6795 11.0622 14.681 10.987C14.6825 10.9118 14.8004 10.8365 14.8004 10.8365C15.0677 10.5088 15.0648 10.2047 14.7947 9.90647L14.6497 9.75L11.9885 9.75295L9.32719 9.75591L9.20777 9.89467C8.92913 10.2165 8.93197 10.5442 9.21346 10.8689Z" fill="#D42E12"/>
<path fill-rule="evenodd" clip-rule="evenodd" d="M13.3657 10.2158C13.4943 10.216 13.6012 10.3035 13.6235 10.4189L13.6284 10.4639V10.9238L14.1792 10.6318C14.3013 10.567 14.4534 10.6127 14.519 10.7334C14.5773 10.8407 14.5477 10.9717 14.4546 11.0449L14.4175 11.0693L13.9536 11.3145L14.4175 11.5605L14.4546 11.585C14.5476 11.6582 14.5772 11.7883 14.519 11.8955C14.4534 12.0162 14.3013 12.0619 14.1792 11.9971L13.6284 11.7041V12.2178C13.6284 12.3547 13.5106 12.4657 13.3657 12.4658C13.2369 12.4658 13.1293 12.3783 13.1069 12.2627L13.103 12.2178V11.7666L12.6694 11.9971C12.5473 12.0619 12.3952 12.0162 12.3296 11.8955C12.2715 11.7883 12.301 11.6582 12.394 11.585L12.4311 11.5605L12.8931 11.3145L12.4311 11.0693L12.394 11.0449C12.301 10.9717 12.2713 10.8407 12.3296 10.7334C12.3952 10.6127 12.5473 10.567 12.6694 10.6318L13.103 10.8613V10.4639C13.103 10.3269 13.2207 10.2158 13.3657 10.2158Z" fill="#E9D315"/>
<path fill-rule="evenodd" clip-rule="evenodd" d="M10.8163 10.2158C10.9449 10.216 11.0518 10.3035 11.0742 10.4189L11.079 10.4639V10.9238L11.6298 10.6318C11.7519 10.567 11.9041 10.6127 11.9697 10.7334C12.028 10.8407 11.9983 10.9717 11.9052 11.0449L11.8681 11.0693L11.4042 11.3145L11.8681 11.5605L11.9052 11.585C11.9982 11.6582 12.0278 11.7883 11.9697 11.8955C11.9041 12.0162 11.7519 12.0619 11.6298 11.9971L11.079 11.7041V12.2178C11.079 12.3547 10.9612 12.4657 10.8163 12.4658C10.6876 12.4658 10.5799 12.3783 10.5575 12.2627L10.5536 12.2178V11.7666L10.12 11.9971C9.99795 12.0619 9.8458 12.0162 9.78021 11.8955C9.72208 11.7883 9.75165 11.6582 9.84466 11.585L9.88177 11.5605L10.3437 11.3145L9.88177 11.0693L9.84466 11.0449C9.75159 10.9717 9.72192 10.8407 9.78021 10.7334C9.8458 10.6127 9.99795 10.567 10.12 10.6318L10.5536 10.8613V10.4639C10.5536 10.3269 10.6714 10.2158 10.8163 10.2158Z" fill="#E9D315"/>
<path d="M8.10156 9.64258V9.78125C8.10161 9.87037 8.10243 9.9993 8.10254 10.1562C8.10276 10.4701 8.10302 10.8983 8.10352 11.3555L8.1084 13.7686C8.10445 13.8704 8.13388 13.9502 8.19336 14.0166C8.21943 14.0457 8.2493 14.0695 8.27441 14.0889C8.30439 14.112 8.32291 14.125 8.35254 14.1484C8.42651 14.207 8.54882 14.2508 8.68164 14.2852C8.82205 14.3214 8.99904 14.353 9.20117 14.377C9.60276 14.4246 10.1135 14.4415 10.6553 14.3994V14.4004C10.8816 14.4021 11.0453 14.4452 11.1689 14.5049C11.2929 14.5648 11.3848 14.645 11.4629 14.7295C11.5023 14.7722 11.5374 14.8155 11.5732 14.8594C11.6079 14.9018 11.6455 14.9475 11.6836 14.9873C11.7601 15.0673 11.8644 15.1504 12.0137 15.1504C12.1639 15.1504 12.267 15.0666 12.3418 14.9854C12.3789 14.945 12.4142 14.8991 12.4473 14.8564C12.4816 14.8122 12.5154 14.7694 12.5527 14.7266C12.6263 14.6422 12.7117 14.563 12.8281 14.5039C12.944 14.4451 13.0987 14.4022 13.3154 14.4004C13.9296 14.4098 14.4538 14.3945 14.8486 14.3574C15.046 14.3389 15.215 14.3148 15.3477 14.2842C15.469 14.2561 15.5845 14.2164 15.6592 14.1543C15.66 14.1554 15.6602 14.1553 15.6602 14.1553L15.6611 14.1543L15.6631 14.1533C15.6645 14.1522 15.6658 14.1502 15.668 14.1484C15.6725 14.1447 15.6791 14.1393 15.6865 14.1328C15.7013 14.1199 15.7217 14.1013 15.7432 14.0791C15.782 14.039 15.8423 13.97 15.8701 13.8887C15.895 13.8158 15.9021 13.7493 15.9023 13.7012C15.9025 13.677 15.901 13.6565 15.8994 13.6416C15.8989 13.6368 15.898 13.6326 15.8975 13.6289V5.09961H8.10156V9.64258ZM8.10156 9.64258C8.10156 9.64256 8.16589 9.70435 8.25195 9.70703C8.25193 9.66734 8.25195 9.64494 8.25195 9.64258H8.10156Z" stroke="black" stroke-width="0.3"/>
<path d="M11.1514 7.39973C10.9501 7.77457 10.9415 7.94276 11.1088 8.24311C11.2393 8.47378 11.3924 8.62034 11.6022 8.71406C12.1494 8.96154 12.8498 8.77893 13.1248 8.3176C13.295 8.03407 13.2751 7.56072 13.088 7.35408L13.0369 7.29882L12.9887 7.46221C12.9207 7.69528 12.8526 7.81301 12.7165 7.93796C12.4613 8.17102 12.1097 8.22389 11.7468 8.07972C11.4661 7.96679 11.3527 7.81061 11.2478 7.3757L11.2223 7.26758L11.1514 7.39973L11.1514 7.39973Z" fill="white"/>
<path fill-rule="evenodd" clip-rule="evenodd" d="M13.8589 2.625C13.8589 3.27445 13.3913 3.75 12.7336 3.75C12.0758 3.75 11.6123 3.27445 11.6123 2.625C11.6123 1.972 12.0758 1.5 12.7336 1.5C13.3913 1.5 13.8589 1.972 13.8589 2.625ZM4.89226 3.71418V2.1988L5.56189 3.71418H5.85509L6.50887 2.1988V3.71418H6.90509V1.53516H6.44547L5.71245 3.21024L4.97151 1.53516H4.5V3.71418H4.89226ZM7.66994 3.71418L7.91957 3.11087H8.8507L9.10032 3.71418H9.52032L8.58523 1.53516H8.189L7.25391 3.71418H7.66994ZM8.38302 1.9862L8.05019 2.7918H8.71585L8.38302 1.9862ZM10.6891 3.71418V2.8447L11.5727 1.53516H11.1368L10.495 2.5111L9.8491 1.53516H9.40137L10.281 2.8447V3.71418H10.6891ZM12.7336 3.41995C12.3057 3.41995 12.0283 3.08636 12.0283 2.625C12.0283 2.16364 12.3057 1.83005 12.7336 1.83005C13.1615 1.83005 13.4428 2.16364 13.4428 2.625C13.4428 3.08636 13.1615 3.41995 12.7336 3.41995ZM15.1979 1.86165V3.71418H14.7858V1.86165H13.9775V1.53516H16.0062V1.86165H15.1979ZM17.4645 3.71418V1.86165H18.2728V1.53516H16.2441V1.86165H17.0524V3.71418H17.4645ZM20.25 3.38413V3.71418H18.6611V1.53516H20.25V1.86165H19.0653V2.43658H20.1391V2.75953H19.0653V3.38413H20.25Z" fill="#FF2500"/>
<path fill-rule="evenodd" clip-rule="evenodd" d="M20.0824 14.0998C20.0824 14.0998 19.8273 13.5975 20.4723 13.3496C21.1172 13.1017 21.4324 13.4251 21.7165 13.7254C22.0006 14.0256 21.9693 14.9318 21.9693 14.9318L21.2674 16.0545L19.114 16.4997L18.256 16.0545L17.25 14.0998L17.3252 12.1808C17.3252 12.1808 17.4269 11.4457 17.4269 11.2935C17.4269 11.1413 17.8943 9.9619 17.8943 9.9619L18.3369 9.52347L19.5886 8.85759L20.1779 8.56319L20.9098 7.63816L20.8288 6.90176L19.9948 7.96416H19.2883L18.5529 8.27222L18.256 8.5521L17.8943 8.56319L17.7526 8.27222L18.1475 7.63816L18.744 7.03764L18.4696 6.52979L18.8757 6.34479L18.7976 6.06485L19.2484 6.34479L19.5886 6.06485L19.6534 5.8074L18.8757 5.39065C18.8757 5.39065 19.6366 5.07139 19.9948 5.10471C20.353 5.13803 20.6909 5.55949 20.6909 5.55949L21.7165 5.39065C21.7165 5.39065 21.4419 6.06485 21.5306 6.06485C21.6194 6.06485 22.1764 6.06485 22.1764 6.06485L21.9693 6.90176H22.7635L22.1764 7.54649L22.6347 7.79783L21.9374 8.27222L22.6347 8.74145L21.9863 9.16736L22.3517 9.87366L22.9266 9.52347L23.25 9.9619L22.7635 11.0415L21.9693 11.6049L21.2128 11.7956L20.4723 11.988L20.1779 12.1808L19.9948 11.4421L18.744 12.2999L18.0942 13.645L18.2855 14.8672L18.744 15.493L19.5886 15.7954L20.6909 15.5883L21.2674 14.8869L21.405 14.1711C21.405 14.1711 21.071 13.685 20.8288 13.7254C20.5866 13.7657 20.0824 14.0998 20.0824 14.0998Z" fill="#DFDFDF" stroke="black" stroke-width="0.3"/>
<path d="M18.8116 9.16859L18.7839 9.46731C19.6496 9.54759 20.2224 9.50435 20.5216 9.31801L20.5815 9.27588L20.3948 9.04105C20.2127 9.18587 19.7378 9.23979 18.9892 9.18354L18.8116 9.16859Z" fill="black"/>
<path d="M17.8078 10.0338L17.7801 10.3325C18.6458 10.4128 19.2185 10.3695 19.5178 10.1832L19.5777 10.1411L19.391 9.90623C19.2088 10.051 18.7339 10.105 17.9854 10.0487L17.8078 10.0338Z" fill="black"/>
<path d="M17.5664 10.8405L17.5167 11.1363C18.0267 11.2221 18.3468 11.1827 18.4546 10.9596L18.4771 10.8999L18.1885 10.8178C18.1735 10.8707 18.0117 10.9022 17.6824 10.8581L17.5664 10.8405Z" fill="black"/>
<path fill-rule="evenodd" clip-rule="evenodd" d="M19.3125 7.125C19.2089 7.125 19.125 7.04105 19.125 6.9375C19.125 6.83395 19.2089 6.75 19.3125 6.75C19.4161 6.75 19.5 6.83395 19.5 6.9375C19.5 7.04105 19.4161 7.125 19.3125 7.125Z" fill="black"/>
<path fill-rule="evenodd" clip-rule="evenodd" d="M3.91765 14.0998C3.91765 14.0998 4.17268 13.5975 3.52775 13.3496C2.88281 13.1017 2.56759 13.4251 2.28352 13.7254C1.99944 14.0256 2.03065 14.9318 2.03065 14.9318L2.73261 16.0545L4.88596 16.4997L5.74399 16.0545L6.75 14.0998L6.67482 12.1808C6.67482 12.1808 6.57307 11.4457 6.57307 11.2935C6.57307 11.1413 6.1057 9.9619 6.1057 9.9619L5.66313 9.52347L4.41145 8.85759L3.82205 8.56319L3.09022 7.63816L3.17119 6.90176L4.00523 7.96416H4.7117L5.44707 8.27222L5.74399 8.5521L6.1057 8.56319L6.24742 8.27222L5.85252 7.63816L5.25605 7.03764L5.5304 6.52979L5.12428 6.34479L5.20241 6.06485L4.75163 6.34479L4.41145 6.06485L4.34664 5.8074L5.12428 5.39065C5.12428 5.39065 4.36342 5.07139 4.00523 5.10471C3.64704 5.13803 3.30911 5.55949 3.30911 5.55949L2.28352 5.39065C2.28352 5.39065 2.55809 6.06485 2.46935 6.06485C2.38062 6.06485 1.8236 6.06485 1.8236 6.06485L2.03065 6.90176H1.23647L1.8236 7.54649L1.36525 7.79783L2.06263 8.27222L1.36525 8.74145L2.01366 9.16736L1.64834 9.87366L1.07338 9.52347L0.75 9.9619L1.23647 11.0415L2.03065 11.6049L2.78724 11.7956L3.52775 11.988L3.82205 12.1808L4.00523 11.4421L5.25605 12.2999L5.90581 13.645L5.71453 14.8672L5.25605 15.493L4.41145 15.7954L3.30911 15.5883L2.73261 14.8869L2.59495 14.1711C2.59495 14.1711 2.92896 13.685 3.17119 13.7254C3.41341 13.7657 3.91765 14.0998 3.91765 14.0998Z" fill="#DFDFDF" stroke="black" stroke-width="0.3"/>
<path d="M5.18843 9.16859L5.21613 9.46731C4.35042 9.54759 3.77764 9.50435 3.47843 9.31801L3.4185 9.27588L3.60519 9.04105C3.78734 9.18587 4.26224 9.23979 5.01083 9.18354L5.18843 9.16859Z" fill="black"/>
<path d="M6.19224 10.0338L6.21995 10.3325C5.35424 10.4128 4.78146 10.3695 4.48225 10.1832L4.42231 10.1411L4.609 9.90623C4.79116 10.051 5.26606 10.105 6.01464 10.0487L6.19224 10.0338Z" fill="black"/>
<path d="M6.43356 10.8405L6.4833 11.1363C5.9733 11.2221 5.65323 11.1827 5.54542 10.9596L5.5229 10.8999L5.81145 10.8178C5.82649 10.8707 5.9883 10.9022 6.31757 10.8581L6.43356 10.8405Z" fill="black"/>
<path fill-rule="evenodd" clip-rule="evenodd" d="M4.6875 7.125C4.79105 7.125 4.875 7.04105 4.875 6.9375C4.875 6.83395 4.79105 6.75 4.6875 6.75C4.58395 6.75 4.5 6.83395 4.5 6.9375C4.5 7.04105 4.58395 7.125 4.6875 7.125Z" fill="black"/>
</svg>
