<svg width="24" height="18" viewBox="0 0 24 18" fill="none" xmlns="http://www.w3.org/2000/svg">
<mask id="mask0_395_55990" style="mask-type:luminance" maskUnits="userSpaceOnUse" x="0" y="0" width="24" height="18">
<rect width="24" height="18" fill="white"/>
</mask>
<g mask="url(#mask0_395_55990)">
<path fill-rule="evenodd" clip-rule="evenodd" d="M0 0V18H24V0H0Z" fill="#5DA923"/>
<mask id="mask1_395_55990" style="mask-type:luminance" maskUnits="userSpaceOnUse" x="0" y="0" width="24" height="18">
<path fill-rule="evenodd" clip-rule="evenodd" d="M0 0V18H24V0H0Z" fill="white"/>
</mask>
<g mask="url(#mask1_395_55990)">
<rect x="20.25" y="7.5" width="3.75" height="10.5" fill="#FF7F24"/>
<rect x="16.5" y="7.5" width="3.75" height="10.5" fill="#262626"/>
<rect x="12.75" y="7.5" width="3.75" height="10.5" fill="#C31818"/>
<path fill-rule="evenodd" clip-rule="evenodd" d="M18.4102 3.62826C18.7711 3.74021 18.4102 3.91158 18.4102 3.91158C18.4102 3.91158 18.3389 3.84171 18.3389 3.78336C18.3389 3.72501 18.0624 3.78336 17.9199 3.9951C17.7847 4.19576 18.0338 4.19518 18.2955 4.19457C18.31 4.19454 18.3245 4.19451 18.3389 4.19451C18.4868 4.19451 18.7182 4.18221 18.9333 4.17078C19.1204 4.16084 19.2952 4.15155 19.3923 4.15155C19.6012 4.15155 19.7001 4.15155 19.9757 3.9951C20.1548 3.89339 20.7472 3.7689 21.1877 3.67635C21.4248 3.62652 21.6178 3.58595 21.6787 3.56317C21.8525 3.49807 21.5048 3.84171 21.5048 3.84171C21.5048 3.84171 22.8462 3.38526 23.1149 3.22939C23.281 3.13309 23.2057 3.21528 23.0829 3.34948C23.0069 3.43249 22.9127 3.53539 22.8462 3.62826C22.7328 3.78649 22.9637 3.63564 23.2203 3.4681C23.3577 3.37833 23.5025 3.28377 23.6056 3.22939C23.9011 3.07352 23.5305 3.49631 23.3676 3.62826C23.2047 3.76021 23.7501 3.62826 23.9389 3.49631C24.0778 3.39922 23.9509 3.56893 23.8441 3.71181C23.8058 3.7631 23.77 3.81093 23.7501 3.84171L23.7469 3.84661C23.6738 3.95929 23.6506 3.9951 23.8256 3.9951C24.003 3.9951 23.3676 4.41194 23.3676 4.41194C23.3676 4.41194 23.5569 4.38659 23.3676 4.66414C23.256 4.82775 22.7126 4.99303 22.2714 5.12722C21.9641 5.22067 21.7064 5.29904 21.6787 5.35127C21.6289 5.44507 21.134 5.5537 20.9034 5.60432C20.8211 5.62238 20.7725 5.63305 20.7896 5.63305C20.8547 5.63305 20.9629 5.70255 20.8454 5.70255C20.7279 5.70255 20.5215 5.75861 20.5215 5.75861C20.5215 5.75861 20.6301 5.75861 20.5215 5.88921C20.4695 5.95177 20.3783 5.94187 20.3143 5.93492C20.2447 5.92736 20.2073 5.9233 20.2877 6.01982C20.3584 6.10463 20.3854 6.13689 20.3787 6.14694C20.3709 6.15884 20.3159 6.1396 20.2304 6.1396C20.1556 6.1396 20.0756 6.11257 19.9917 6.0842C19.8988 6.05283 19.8012 6.01982 19.7001 6.01982C19.5153 6.01982 19.7008 6.13018 19.8167 6.19913C19.8215 6.20201 19.8262 6.20482 19.8308 6.20754C19.9342 6.26926 19.8911 6.26914 19.7039 6.2686C19.685 6.26854 19.6647 6.26849 19.6429 6.26849C19.5268 6.26849 19.4644 6.2578 19.4308 6.25206C19.3956 6.24603 19.3923 6.24547 19.3923 6.26849C19.3923 6.29056 19.3048 6.25983 19.1995 6.22285C19.0905 6.18457 18.9625 6.1396 18.8927 6.1396C18.7555 6.1396 19.1834 6.37833 19.1834 6.37833C19.1834 6.37833 18.9606 6.31751 18.8399 6.26849C18.7713 6.24062 18.8584 6.37208 18.9371 6.49074C18.9969 6.58084 19.0518 6.66357 19.0298 6.66357C19.0132 6.66357 18.9765 6.6487 18.9346 6.63175C18.8487 6.59696 18.7412 6.55342 18.7412 6.61174C18.7412 6.69847 18.8399 6.76291 18.9606 6.76291C19.0812 6.76291 19.1011 6.89837 19.0298 6.89837C19.0051 6.89837 18.9747 6.88941 18.9455 6.8808C18.8905 6.86459 18.8399 6.84965 18.8399 6.89837C18.8399 6.9298 18.8613 6.95333 18.8861 6.98056C18.9202 7.01795 18.9606 7.0623 18.9606 7.14364C18.9606 7.28421 18.7809 7.30422 18.8399 7.21105C18.8988 7.11789 18.6354 6.89299 18.6354 7.00306V7.14364C18.6354 7.24303 18.6127 7.24938 18.5773 7.25929C18.5554 7.2654 18.5287 7.27286 18.4995 7.30422C18.456 7.35103 18.4494 7.37766 18.4458 7.39257C18.4421 7.40735 18.4413 7.41063 18.4102 7.41063C18.3855 7.41063 18.3649 7.37957 18.3373 7.33782C18.2948 7.27373 18.2357 7.18446 18.1194 7.14364C18.0088 7.10486 18.003 7.133 17.993 7.18163C17.9855 7.21755 17.9758 7.26464 17.9199 7.30422C17.8358 7.3637 17.8591 7.38837 17.8869 7.41786C17.9027 7.43457 17.9199 7.45282 17.9199 7.47983C17.9199 7.5545 17.7728 7.40515 17.7728 7.30422C17.7728 7.2033 17.6057 7.06902 17.6057 7.14364C17.6057 7.21825 17.6057 7.30422 17.5197 7.30422C17.4784 7.30422 17.4768 7.3291 17.4747 7.36252C17.4725 7.39852 17.4697 7.44443 17.4157 7.47983C17.3626 7.51469 17.3638 7.49611 17.3663 7.45528C17.3688 7.41619 17.3725 7.35672 17.3312 7.30422C17.2794 7.23853 17.3227 7.13686 17.3446 7.08515C17.3586 7.05236 17.364 7.03967 17.3312 7.06902C17.2477 7.14367 17.1413 7.14365 17.0692 7.14364H17.0664C17.0302 7.14364 16.9985 7.18254 16.9759 7.21021C16.9537 7.23752 16.9404 7.25387 16.9404 7.21105C16.9404 7.12485 17.047 6.89837 17.2477 6.89837C17.4023 6.89837 17.4801 6.84546 17.547 6.8C17.5669 6.78644 17.5859 6.77355 17.6057 6.76291C17.6916 6.71663 17.6057 6.65624 17.5197 6.61174C17.4807 6.59152 17.4949 6.52634 17.522 6.46811C17.5696 6.44223 17.6057 6.41028 17.6057 6.37833C17.6057 6.3383 17.5545 6.39819 17.522 6.46811C17.4602 6.50165 17.3789 6.52501 17.3312 6.52501C17.2853 6.52501 17.314 6.45504 17.3499 6.36751C17.3803 6.29355 17.4157 6.20703 17.4157 6.1396C17.4157 6.07537 17.4284 6.01954 17.4372 5.98093C17.4485 5.93102 17.4533 5.90989 17.4157 5.93662C17.3691 5.96981 17.1207 5.93331 16.9513 5.90842C16.8786 5.89775 16.8205 5.88921 16.7991 5.88921C16.7674 5.88921 16.7929 5.839 16.8183 5.78907C16.8502 5.72623 16.8819 5.66382 16.7991 5.70255C16.6693 5.76325 16.4053 5.76068 16.2384 5.75906C16.2142 5.75882 16.192 5.75861 16.1726 5.75861C16.0749 5.75861 16.1419 5.68597 16.1779 5.64702C16.1984 5.62477 16.2088 5.61352 16.1726 5.63305C16.073 5.6868 15.9739 5.70255 15.8619 5.70255C15.8114 5.70255 15.7969 5.67728 15.7811 5.64963C15.7619 5.61594 15.7406 5.57871 15.6496 5.57931C15.4839 5.58039 15.4467 5.57822 15.3555 5.5175C15.308 5.4859 15.3347 5.46732 15.3498 5.45677C15.3638 5.44705 15.3679 5.44414 15.2953 5.44414H14.8458C14.6218 5.44414 14.8465 5.297 14.9272 5.297C15.0079 5.297 15.1015 5.16458 14.9272 5.22403C14.8156 5.26209 14.6963 5.25143 14.5551 5.23883C14.4758 5.23174 14.3895 5.22403 14.2939 5.22403C14.0283 5.22403 13.9774 5.12047 14.1344 5.12047C14.2915 5.12047 14.3008 5.0446 14.0566 5.0446C13.9035 5.0446 13.7775 5.00952 13.6837 4.98337C13.6279 4.96784 13.5835 4.95546 13.5514 4.95546C13.4652 4.95546 13.3721 4.85335 13.5514 4.85335C13.7307 4.85335 13.9607 4.76823 13.7645 4.76823C13.6536 4.76823 13.4688 4.71846 13.3079 4.67516C13.1841 4.64182 13.0745 4.61231 13.0239 4.61231C12.985 4.61231 13.0458 4.6013 13.1267 4.58665C13.2881 4.55742 13.5298 4.51366 13.2216 4.51366C12.8924 4.51366 12.5476 4.28735 12.3094 4.13104C12.2127 4.06757 12.1336 4.01565 12.0803 3.9951C11.8955 3.92392 12.0803 3.78336 12.1335 3.84171C12.1867 3.90006 12.5593 3.98978 12.3979 3.91158C12.2365 3.83339 12.1335 3.70031 12.0803 3.62826C12.027 3.55621 12.068 3.50645 12.1335 3.56317C12.1989 3.61989 12.501 3.78336 12.501 3.78336C12.501 3.78336 12.3394 3.62826 12.2111 3.38526C12.0828 3.14225 12.3394 3.20144 12.5593 3.38526C12.7792 3.56907 12.9853 3.6177 13.0888 3.62826C13.1924 3.63882 12.9853 3.49586 12.7861 3.38526C12.5868 3.27465 12.6321 2.87868 12.7861 3.03679C12.8662 3.11904 13.2458 3.27579 13.6171 3.42911C13.9596 3.57049 14.2949 3.70895 14.3817 3.78336C14.532 3.91214 14.4111 3.72017 14.2801 3.51221C14.2533 3.46969 14.2261 3.42651 14.2007 3.38526C14.1138 3.24399 14.4632 3.4045 14.8608 3.58712C15.1471 3.71863 15.4584 3.8616 15.6496 3.91158C15.7813 3.94602 15.9386 4.00115 16.0958 4.05623C16.4836 4.19216 16.8706 4.3278 16.8706 4.15155C16.8706 3.90387 17.2253 3.51631 17.6057 3.38526C17.847 3.30208 17.9607 3.37727 18.1038 3.47193C18.1862 3.52642 18.2783 3.58736 18.4102 3.62826ZM18.0008 6.53483C18.0866 6.53483 18.0631 5.78223 18.0631 5.78223C18.0631 5.78223 18.3165 6.24374 18.3165 6.44344C18.3165 6.53431 18.3089 6.56141 18.3113 6.58762C18.314 6.61902 18.3311 6.64915 18.3925 6.78607C18.455 6.92529 18.4136 6.91022 18.3007 6.8691C18.2099 6.83602 18.0727 6.78607 17.9061 6.78607C17.5324 6.78607 17.9149 6.53483 18.0008 6.53483Z" fill="#FF7F24"/>
<path d="M18.4102 3.91158L18.3227 4.00083L18.385 4.06193L18.4638 4.0245L18.4102 3.91158ZM18.4102 3.62826L18.3731 3.74765H18.3731L18.4102 3.62826ZM17.9199 3.9951L18.0236 4.06492V4.06492L17.9199 3.9951ZM18.2955 4.19457L18.2958 4.31957V4.31957L18.2955 4.19457ZM18.9333 4.17078L18.94 4.2956V4.2956L18.9333 4.17078ZM19.9757 3.9951L20.0374 4.1038V4.1038L19.9757 3.9951ZM21.1877 3.67635L21.162 3.55402L21.1877 3.67635ZM21.6787 3.56317L21.6349 3.4461V3.4461L21.6787 3.56317ZM21.5048 3.84171L21.4169 3.7528L21.5451 3.96005L21.5048 3.84171ZM23.1149 3.22939L23.1776 3.33752L23.1776 3.33752L23.1149 3.22939ZM23.0829 3.34948L22.9907 3.26508V3.26508L23.0829 3.34948ZM22.8462 3.62826L22.9478 3.70108V3.70108L22.8462 3.62826ZM23.2203 3.4681L23.1519 3.36344V3.36344L23.2203 3.4681ZM23.6056 3.22939L23.5473 3.11883V3.11883L23.6056 3.22939ZM23.3676 3.62826L23.4463 3.72539V3.72539L23.3676 3.62826ZM23.9389 3.49631L23.8673 3.39385L23.8673 3.39385L23.9389 3.49631ZM23.8441 3.71181L23.9442 3.78666L23.9442 3.78666L23.8441 3.71181ZM23.7501 3.84171L23.855 3.9097L23.855 3.90969L23.7501 3.84171ZM23.7469 3.84661L23.8518 3.91461L23.8518 3.91461L23.7469 3.84661ZM23.3676 4.41194L23.299 4.30742L23.3842 4.53583L23.3676 4.41194ZM23.3676 4.66414L23.4709 4.73457V4.73457L23.3676 4.66414ZM22.2714 5.12722L22.3077 5.24681V5.24681L22.2714 5.12722ZM21.6787 5.35127L21.7891 5.40989V5.40989L21.6787 5.35127ZM20.9034 5.60432L20.8766 5.48223H20.8766L20.9034 5.60432ZM20.5215 5.75861L20.4887 5.63798L20.5215 5.88361V5.75861ZM20.5215 5.88921L20.4254 5.80929L20.4254 5.80929L20.5215 5.88921ZM20.3143 5.93492L20.3008 6.05919V6.05919L20.3143 5.93492ZM20.2877 6.01982L20.3838 5.93981V5.93981L20.2877 6.01982ZM20.3787 6.14694L20.483 6.21585L20.483 6.21584L20.3787 6.14694ZM19.9917 6.0842L19.9516 6.20262V6.20262L19.9917 6.0842ZM19.8167 6.19913L19.7527 6.30655L19.7527 6.30655L19.8167 6.19913ZM19.8308 6.20754L19.8948 6.1002L19.8948 6.1002L19.8308 6.20754ZM19.7039 6.2686L19.7043 6.1436H19.7043L19.7039 6.2686ZM19.4308 6.25206L19.4097 6.37527V6.37527L19.4308 6.25206ZM19.1995 6.22285L19.1581 6.34079V6.34079L19.1995 6.22285ZM19.1834 6.37833L19.1505 6.49892L19.2443 6.26917L19.1834 6.37833ZM18.8399 6.26849L18.7928 6.3843V6.3843L18.8399 6.26849ZM18.9371 6.49074L18.833 6.55983V6.55983L18.9371 6.49074ZM18.9346 6.63175L18.9815 6.51589L18.9815 6.51589L18.9346 6.63175ZM18.9455 6.8808L18.9809 6.7609L18.9809 6.7609L18.9455 6.8808ZM18.8861 6.98056L18.9785 6.89639V6.89639L18.8861 6.98056ZM18.9606 7.14364L19.0856 7.14364V7.14364H18.9606ZM18.8399 7.21105L18.7342 7.14425H18.7342L18.8399 7.21105ZM18.5773 7.25929L18.5436 7.13891L18.5436 7.13891L18.5773 7.25929ZM18.4995 7.30422L18.4081 7.21905L18.408 7.21905L18.4995 7.30422ZM18.4458 7.39257L18.5672 7.42239L18.5672 7.42239L18.4458 7.39257ZM18.3373 7.33782L18.233 7.40682L18.233 7.40682L18.3373 7.33782ZM18.1194 7.14364L18.078 7.26159V7.26159L18.1194 7.14364ZM17.993 7.18163L17.8705 7.15634L17.8705 7.15634L17.993 7.18163ZM17.9199 7.30422L17.9921 7.40626L17.9921 7.40626L17.9199 7.30422ZM17.8869 7.41786L17.9778 7.33209H17.9778L17.8869 7.41786ZM17.4747 7.36252L17.5995 7.37025L17.5995 7.37024L17.4747 7.36252ZM17.4157 7.47983L17.3472 7.37532V7.37532L17.4157 7.47983ZM17.3663 7.45528L17.4911 7.4631V7.4631L17.3663 7.45528ZM17.3312 7.30422L17.233 7.38158V7.38158L17.3312 7.30422ZM17.3446 7.08515L17.2296 7.03623L17.2296 7.03623L17.3446 7.08515ZM17.3312 7.06902L17.4145 7.1622L17.4145 7.1622L17.3312 7.06902ZM17.0692 7.14364L17.0693 7.01864H17.0692V7.14364ZM16.9759 7.21021L17.0729 7.28913L17.0729 7.28913L16.9759 7.21021ZM17.547 6.8L17.4767 6.69663L17.4767 6.69663L17.547 6.8ZM17.6057 6.76291L17.6649 6.87296L17.6649 6.87296L17.6057 6.76291ZM17.5197 6.61174L17.4622 6.72274H17.4622L17.5197 6.61174ZM17.3499 6.36751L17.2343 6.32008V6.32008L17.3499 6.36751ZM17.4372 5.98093L17.3153 5.95327V5.95327L17.4372 5.98093ZM17.4157 5.93662L17.3433 5.83479V5.83479L17.4157 5.93662ZM16.9513 5.90842L16.9331 6.03209V6.03209L16.9513 5.90842ZM16.8183 5.78907L16.9297 5.84568V5.84568L16.8183 5.78907ZM16.7991 5.70255L16.7461 5.58932L16.7461 5.58932L16.7991 5.70255ZM16.2384 5.75906L16.2372 5.88405H16.2372L16.2384 5.75906ZM16.1779 5.64702L16.2698 5.73177L16.2698 5.73177L16.1779 5.64702ZM16.1726 5.63305L16.1132 5.52304H16.1132L16.1726 5.63305ZM15.7811 5.64963L15.6726 5.71166L15.6726 5.71166L15.7811 5.64963ZM15.6496 5.57931L15.6504 5.7043H15.6504L15.6496 5.57931ZM15.3555 5.5175L15.4247 5.41344H15.4247L15.3555 5.5175ZM15.3498 5.45677L15.2783 5.35422L15.2783 5.35422L15.3498 5.45677ZM14.9272 5.22403L14.8868 5.10573H14.8868L14.9272 5.22403ZM14.5551 5.23883L14.5663 5.11432H14.5663L14.5551 5.23883ZM13.6837 4.98337L13.6501 5.10379V5.10379L13.6837 4.98337ZM13.3079 4.67516L13.2754 4.79586V4.79586L13.3079 4.67516ZM13.1267 4.58665L13.1044 4.46365H13.1044L13.1267 4.58665ZM12.3094 4.13104L12.2408 4.23554H12.2408L12.3094 4.13104ZM12.0803 3.9951L12.1252 3.87846H12.1252L12.0803 3.9951ZM12.1335 3.84171L12.2258 3.75748H12.2258L12.1335 3.84171ZM12.3979 3.91158L12.3434 4.02407V4.02407L12.3979 3.91158ZM12.0803 3.62826L11.9797 3.70252H11.9797L12.0803 3.62826ZM12.1335 3.56317L12.2153 3.4687L12.2153 3.4687L12.1335 3.56317ZM12.501 3.78336L12.4415 3.8933L12.5875 3.69318L12.501 3.78336ZM12.2111 3.38526L12.1005 3.44362H12.1005L12.2111 3.38526ZM13.0888 3.62826L13.0762 3.75262H13.0762L13.0888 3.62826ZM12.7861 3.38526L12.7254 3.49455V3.49455L12.7861 3.38526ZM12.7861 3.03679L12.8756 2.94956V2.94956L12.7861 3.03679ZM13.6171 3.42911L13.5694 3.54464V3.54464L13.6171 3.42911ZM14.3817 3.78336L14.463 3.68845V3.68845L14.3817 3.78336ZM14.2801 3.51221L14.3859 3.4456V3.4456L14.2801 3.51221ZM14.2007 3.38526L14.0943 3.45077V3.45077L14.2007 3.38526ZM14.8608 3.58712L14.8086 3.70071L14.8608 3.58712ZM15.6496 3.91158L15.618 4.03252V4.03252L15.6496 3.91158ZM16.0958 4.05623L16.0544 4.1742V4.1742L16.0958 4.05623ZM17.6057 3.38526L17.6464 3.50344V3.50344L17.6057 3.38526ZM18.1038 3.47193L18.0348 3.57618L18.0348 3.57618L18.1038 3.47193ZM18.0631 5.78223L18.1727 5.72207L17.9382 5.78613L18.0631 5.78223ZM18.3113 6.58762L18.4358 6.57656V6.57656L18.3113 6.58762ZM18.3925 6.78607L18.5066 6.73488V6.73488L18.3925 6.78607ZM18.3007 6.8691L18.258 6.98656L18.258 6.98656L18.3007 6.8691ZM18.4102 3.91158C18.4638 4.0245 18.4638 4.02448 18.4639 4.02447C18.4639 4.02446 18.4639 4.02444 18.4639 4.02443C18.464 4.0244 18.4641 4.02437 18.4641 4.02433C18.4643 4.02427 18.4644 4.02419 18.4646 4.0241C18.465 4.02392 18.4654 4.0237 18.466 4.02344C18.4671 4.02291 18.4685 4.02221 18.4702 4.02135C18.4736 4.01963 18.4783 4.01723 18.484 4.01421C18.4952 4.00822 18.5105 3.99958 18.5277 3.98873C18.5595 3.9686 18.6076 3.93469 18.6434 3.88962C18.6789 3.84495 18.7242 3.75765 18.6728 3.66106C18.631 3.58241 18.5423 3.53838 18.4472 3.50887L18.4102 3.62826L18.3731 3.74765C18.4119 3.75968 18.435 3.77073 18.4476 3.77862C18.4605 3.78665 18.4571 3.78798 18.4521 3.77846C18.4456 3.76622 18.4442 3.75126 18.4469 3.7394C18.4489 3.73058 18.4519 3.72883 18.4476 3.73419C18.4383 3.74595 18.4187 3.76188 18.3942 3.77738C18.3831 3.78435 18.3731 3.78998 18.366 3.79379C18.3625 3.79568 18.3597 3.79707 18.3581 3.79791C18.3572 3.79833 18.3567 3.79861 18.3564 3.79874C18.3563 3.7988 18.3562 3.79883 18.3562 3.79882C18.3562 3.79881 18.3563 3.7988 18.3563 3.79877C18.3564 3.79876 18.3564 3.79874 18.3564 3.79873C18.3564 3.79872 18.3565 3.7987 18.3565 3.7987C18.3565 3.79868 18.3566 3.79867 18.4102 3.91158ZM18.3389 3.78336H18.2139C18.2139 3.85505 18.2536 3.91522 18.2731 3.94235C18.2852 3.95925 18.2971 3.97332 18.3059 3.98313C18.3104 3.98811 18.3142 3.99217 18.317 3.99515C18.3185 3.99664 18.3197 3.99787 18.3206 3.99883C18.3211 3.9993 18.3215 3.99971 18.3219 4.00005C18.322 4.00021 18.3222 4.00036 18.3223 4.00049C18.3224 4.00056 18.3224 4.00062 18.3225 4.00068C18.3225 4.00071 18.3225 4.00073 18.3226 4.00076C18.3226 4.00077 18.3226 4.00079 18.3226 4.0008C18.3226 4.00082 18.3227 4.00083 18.4102 3.91158C18.4977 3.82233 18.4977 3.82235 18.4977 3.82237C18.4977 3.82237 18.4977 3.82239 18.4978 3.8224C18.4978 3.82242 18.4978 3.82244 18.4978 3.82246C18.4979 3.8225 18.4979 3.82254 18.4979 3.82257C18.498 3.82264 18.498 3.82268 18.4981 3.82272C18.4981 3.82279 18.4982 3.82279 18.4981 3.82274C18.498 3.82264 18.4977 3.82232 18.4972 3.82179C18.4961 3.82072 18.4944 3.81887 18.4922 3.81638C18.4876 3.81127 18.4817 3.80422 18.476 3.79635C18.4701 3.78818 18.4661 3.7813 18.4639 3.77646C18.4614 3.77079 18.4639 3.77374 18.4639 3.78336H18.3389ZM17.9199 3.9951L18.0236 4.06492C18.0776 3.98472 18.1593 3.93117 18.2281 3.90447C18.2631 3.89088 18.2872 3.88721 18.296 3.88703C18.3021 3.88691 18.2917 3.88844 18.2749 3.88075C18.2526 3.87059 18.2139 3.83911 18.2139 3.78336H18.3389H18.4639C18.4639 3.71302 18.4166 3.67061 18.3786 3.6533C18.3461 3.63846 18.3131 3.63663 18.2909 3.63708C18.2435 3.63805 18.1895 3.65126 18.1376 3.67143C18.0325 3.71224 17.9048 3.79374 17.8162 3.92528L17.9199 3.9951ZM18.2955 4.19457L18.2952 4.06957C18.229 4.06973 18.1679 4.06984 18.1139 4.06705C18.0583 4.06418 18.02 4.05859 17.9968 4.0512C17.9698 4.04262 17.9947 4.04253 18.0045 4.07513C18.0129 4.10305 17.995 4.10731 18.0236 4.06492L17.9199 3.9951L17.8162 3.92528C17.7772 3.98322 17.7398 4.06266 17.765 4.14689C17.7917 4.23579 17.8698 4.27315 17.921 4.28942C17.9759 4.3069 18.0405 4.31359 18.101 4.31671C18.163 4.31992 18.2312 4.31972 18.2958 4.31957L18.2955 4.19457ZM18.3389 4.19451V4.06951C18.3243 4.06951 18.3097 4.06954 18.2952 4.06957L18.2955 4.19457L18.2958 4.31957C18.3103 4.31954 18.3246 4.31951 18.3389 4.31951V4.19451ZM18.9333 4.17078L18.9267 4.04596C18.71 4.05747 18.4827 4.06951 18.3389 4.06951V4.19451V4.31951C18.491 4.31951 18.7263 4.30696 18.94 4.2956L18.9333 4.17078ZM19.3923 4.15155V4.02655C19.291 4.02655 19.1118 4.03612 18.9267 4.04596L18.9333 4.17078L18.94 4.2956C19.1289 4.28556 19.2994 4.27655 19.3923 4.27655V4.15155ZM19.9757 3.9951L19.914 3.88639C19.7811 3.96182 19.6995 3.99446 19.6311 4.01016C19.5618 4.02604 19.4991 4.02655 19.3923 4.02655V4.15155V4.27655C19.4945 4.27655 19.5856 4.27707 19.6869 4.25383C19.789 4.23042 19.8947 4.18483 20.0374 4.1038L19.9757 3.9951ZM21.1877 3.67635L21.162 3.55402C20.9422 3.6002 20.6819 3.6549 20.4539 3.7109C20.3399 3.7389 20.2325 3.76759 20.1414 3.79611C20.0525 3.82391 19.9711 3.85397 19.914 3.88639L19.9757 3.9951L20.0374 4.1038C20.0699 4.08537 20.1296 4.06174 20.216 4.0347C20.3001 4.00837 20.402 3.98109 20.5135 3.95368C20.7366 3.89887 20.9927 3.84505 21.2134 3.79867L21.1877 3.67635ZM21.6787 3.56317L21.6349 3.4461C21.6141 3.45386 21.5599 3.46788 21.4719 3.48766C21.3874 3.50664 21.2808 3.52904 21.162 3.55402L21.1877 3.67635L21.2134 3.79867C21.3316 3.77382 21.4401 3.75102 21.5267 3.73157C21.6097 3.71291 21.6824 3.69525 21.7225 3.68023L21.6787 3.56317ZM21.5048 3.84171C21.5927 3.93062 21.5927 3.93061 21.5927 3.93061C21.5927 3.9306 21.5927 3.93059 21.5927 3.93058C21.5927 3.93056 21.5928 3.93054 21.5928 3.93051C21.5929 3.93045 21.5929 3.93037 21.593 3.93027C21.5932 3.93006 21.5935 3.92978 21.5939 3.92942C21.5946 3.92869 21.5957 3.92765 21.597 3.92632C21.5997 3.92365 21.6035 3.91981 21.6083 3.91498C21.6178 3.90533 21.6312 3.89167 21.6467 3.8755C21.6774 3.84348 21.7176 3.80029 21.7527 3.75834C21.7703 3.73742 21.7877 3.71545 21.8024 3.69444C21.8156 3.67569 21.8327 3.64921 21.8427 3.62088C21.8474 3.60771 21.8557 3.58023 21.8509 3.547C21.8448 3.50442 21.8182 3.46279 21.7719 3.4422C21.7361 3.42635 21.7027 3.42955 21.6867 3.43197C21.6678 3.43482 21.65 3.44042 21.6349 3.4461L21.6787 3.56317L21.7225 3.68023C21.7291 3.67777 21.7289 3.67843 21.7241 3.67916C21.722 3.67947 21.699 3.68338 21.6704 3.67069C21.6312 3.65327 21.6084 3.61727 21.6035 3.5824C21.5998 3.55689 21.6064 3.53922 21.607 3.53758C21.6089 3.5323 21.6083 3.53579 21.5977 3.55095C21.5887 3.56385 21.5762 3.57976 21.5612 3.59772C21.5311 3.63354 21.4953 3.67219 21.4662 3.70257C21.4518 3.7176 21.4393 3.73028 21.4305 3.73917C21.4262 3.74361 21.4227 3.74708 21.4203 3.74942C21.4192 3.75059 21.4183 3.75147 21.4177 3.75204C21.4174 3.75232 21.4172 3.75253 21.4171 3.75266C21.417 3.75272 21.417 3.75277 21.417 3.75279C21.4169 3.7528 21.4169 3.75281 21.4169 3.75281C21.4169 3.75281 21.4169 3.75281 21.4169 3.75281C21.4169 3.75281 21.4169 3.7528 21.5048 3.84171ZM23.1149 3.22939L23.0522 3.12126C22.9944 3.15476 22.869 3.20928 22.704 3.27459C22.5421 3.33865 22.3505 3.40985 22.1665 3.47647C21.9827 3.54304 21.8072 3.60478 21.6775 3.6499C21.6127 3.67245 21.5594 3.69084 21.5223 3.70358C21.5038 3.70995 21.4893 3.71491 21.4795 3.71827C21.4746 3.71995 21.4708 3.72123 21.4683 3.72209C21.4671 3.72252 21.4661 3.72284 21.4655 3.72306C21.4652 3.72317 21.4649 3.72325 21.4648 3.7233C21.4647 3.72333 21.4646 3.72335 21.4646 3.72336C21.4646 3.72336 21.4646 3.72337 21.4646 3.72337C21.4645 3.72337 21.4645 3.72338 21.5048 3.84171C21.5451 3.96005 21.5451 3.96005 21.5451 3.96004C21.5451 3.96004 21.5451 3.96003 21.5452 3.96002C21.5452 3.96001 21.5453 3.95999 21.5453 3.95996C21.5455 3.9599 21.5458 3.95982 21.5461 3.9597C21.5468 3.95948 21.5477 3.95914 21.549 3.95871C21.5516 3.95783 21.5554 3.95653 21.5604 3.95483C21.5703 3.95142 21.5849 3.94642 21.6036 3.94001C21.6409 3.92718 21.6945 3.90868 21.7597 3.88601C21.89 3.84067 22.0665 3.77856 22.2516 3.71153C22.4366 3.64455 22.6308 3.57241 22.796 3.50705C22.958 3.44294 23.101 3.38195 23.1776 3.33752L23.1149 3.22939ZM23.0829 3.34948L23.1751 3.43387C23.2054 3.40076 23.2345 3.36906 23.2575 3.34243C23.2775 3.31938 23.3032 3.28892 23.3177 3.26155C23.3217 3.25394 23.3285 3.24002 23.3325 3.22225C23.3359 3.20716 23.3425 3.1658 23.3162 3.12359C23.2868 3.07626 23.2401 3.06501 23.2164 3.06299C23.1937 3.06106 23.175 3.06528 23.1658 3.06768C23.1321 3.07644 23.0911 3.09871 23.0522 3.12126L23.1149 3.22939L23.1776 3.33752C23.1971 3.32623 23.2114 3.31849 23.2216 3.3135C23.2333 3.3077 23.2342 3.30819 23.2287 3.30963C23.2267 3.31016 23.2136 3.31366 23.1952 3.31209C23.1758 3.31044 23.132 3.30063 23.104 3.25577C23.0793 3.21604 23.0862 3.17818 23.0886 3.16754C23.0915 3.15424 23.0961 3.14574 23.0968 3.14445C23.0979 3.14236 23.0921 3.15159 23.0686 3.17869C23.0482 3.2022 23.0218 3.2311 22.9907 3.26508L23.0829 3.34948ZM22.8462 3.62826L22.9478 3.70108C23.0091 3.61548 23.0978 3.51835 23.1751 3.43387L23.0829 3.34948L22.9907 3.26508C22.9161 3.34663 22.8164 3.45531 22.7446 3.55544L22.8462 3.62826ZM23.2203 3.4681L23.1519 3.36344C23.0207 3.44915 22.9057 3.52405 22.8374 3.55917C22.8205 3.56782 22.8115 3.57143 22.8085 3.5724C22.8068 3.57293 22.8113 3.57125 22.8198 3.57048C22.8256 3.56995 22.8523 3.56783 22.8822 3.58473C22.9212 3.60675 22.9385 3.64477 22.9411 3.67588C22.9432 3.69973 22.9368 3.71599 22.9361 3.71784C22.9341 3.72307 22.9349 3.71901 22.9478 3.70108L22.8462 3.62826L22.7446 3.55544C22.7291 3.57707 22.7123 3.60291 22.7022 3.62952C22.6975 3.64206 22.6894 3.66688 22.6921 3.69731C22.6953 3.735 22.7154 3.7776 22.7592 3.80237C22.794 3.82201 22.8276 3.8208 22.8423 3.81947C22.8596 3.8179 22.8748 3.81371 22.8856 3.81019C22.9077 3.80305 22.9307 3.7923 22.9516 3.78152C23.0346 3.73889 23.1633 3.65459 23.2886 3.57276L23.2203 3.4681ZM23.6056 3.22939L23.5473 3.11883C23.4378 3.17658 23.2873 3.27506 23.1519 3.36344L23.2203 3.4681L23.2886 3.57276C23.4282 3.4816 23.5672 3.39096 23.6639 3.33995L23.6056 3.22939ZM23.3676 3.62826L23.4463 3.72539C23.5363 3.65244 23.6769 3.50601 23.7589 3.3953C23.7797 3.36726 23.7995 3.33787 23.814 3.31007C23.8212 3.29624 23.8288 3.27959 23.8341 3.26147C23.8388 3.24557 23.8456 3.21566 23.8382 3.18107C23.8288 3.13775 23.7992 3.09915 23.7537 3.08095C23.7176 3.0665 23.6839 3.07002 23.6655 3.07321C23.6273 3.07985 23.5863 3.09827 23.5473 3.11883L23.6056 3.22939L23.6639 3.33995C23.6988 3.32155 23.7109 3.31908 23.7083 3.31952C23.7078 3.31961 23.6875 3.3237 23.6609 3.31308C23.625 3.2987 23.601 3.26717 23.5938 3.23373C23.5885 3.20903 23.594 3.19184 23.5942 3.19104C23.5951 3.18803 23.5952 3.18889 23.5923 3.19455C23.5864 3.20571 23.5753 3.22318 23.558 3.24649C23.4879 3.3412 23.3617 3.47214 23.2889 3.53113L23.3676 3.62826ZM23.9389 3.49631L23.8673 3.39385C23.7923 3.44626 23.627 3.50783 23.4926 3.5396C23.4605 3.54719 23.4326 3.55246 23.4106 3.55537C23.3863 3.55858 23.3769 3.5578 23.378 3.55795C23.379 3.55808 23.3825 3.55859 23.3875 3.56011C23.3923 3.56157 23.4012 3.56475 23.4116 3.57147C23.4369 3.58782 23.4642 3.62244 23.4626 3.67028C23.4613 3.70532 23.4445 3.72583 23.4434 3.72717C23.4403 3.73115 23.4398 3.7306 23.4463 3.72539L23.3676 3.62826L23.2889 3.53113C23.275 3.54242 23.2597 3.5563 23.2468 3.57278C23.2359 3.58661 23.2142 3.61769 23.2127 3.6615C23.2107 3.7181 23.2423 3.75967 23.2757 3.78131C23.3027 3.79876 23.3302 3.80381 23.3452 3.80579C23.3774 3.81005 23.4131 3.80721 23.4434 3.80321C23.476 3.7989 23.5124 3.7918 23.5501 3.7829C23.6948 3.74869 23.8967 3.67831 24.0105 3.59877L23.9389 3.49631ZM23.8441 3.71181L23.9442 3.78666C23.9952 3.71843 24.0596 3.63277 24.092 3.57642C24.1 3.56247 24.1103 3.54333 24.1169 3.52308C24.12 3.51361 24.1254 3.49507 24.125 3.4723C24.1246 3.44894 24.117 3.40217 24.0728 3.369C24.0324 3.3386 23.9896 3.34171 23.9724 3.34427C23.953 3.34718 23.937 3.35365 23.9274 3.35804C23.9072 3.3672 23.8866 3.38037 23.8673 3.39385L23.9389 3.49631L24.0105 3.59878C24.0259 3.58798 24.0317 3.58522 24.0308 3.58563C24.0308 3.58565 24.0227 3.58954 24.0094 3.59153C23.9983 3.59318 23.9601 3.59702 23.9226 3.56886C23.8815 3.53794 23.8753 3.49492 23.875 3.47668C23.8747 3.45903 23.8788 3.44699 23.8793 3.44523C23.8809 3.44041 23.8812 3.4416 23.8753 3.45173C23.8523 3.49167 23.7998 3.56231 23.744 3.63696L23.8441 3.71181ZM23.7501 3.84171L23.855 3.90969C23.872 3.88333 23.9046 3.83969 23.9442 3.78666L23.8441 3.71181L23.744 3.63695C23.707 3.6865 23.668 3.73852 23.6452 3.77374L23.7501 3.84171ZM23.7469 3.84661L23.8518 3.91461L23.855 3.9097L23.7501 3.84171L23.6452 3.77372L23.642 3.77862L23.7469 3.84661ZM23.8256 3.9951V3.8701C23.8056 3.8701 23.7902 3.86958 23.7783 3.86869C23.7662 3.86778 23.7602 3.86664 23.7584 3.86621C23.7559 3.8656 23.7641 3.86704 23.7756 3.87501C23.7819 3.87936 23.7895 3.88588 23.7966 3.8952C23.8039 3.90471 23.8095 3.91556 23.8129 3.92708C23.8197 3.94967 23.8164 3.96711 23.815 3.9727C23.8137 3.97819 23.8125 3.97923 23.8153 3.97378C23.8178 3.96884 23.8219 3.96168 23.8284 3.95115C23.8349 3.94071 23.8425 3.92898 23.8518 3.91461L23.7469 3.84661L23.642 3.77862C23.6252 3.80455 23.6057 3.83437 23.5922 3.86092C23.5825 3.88011 23.5545 3.93594 23.5735 3.99914C23.5971 4.07741 23.6676 4.10149 23.7 4.10928C23.7366 4.11808 23.7805 4.1201 23.8256 4.1201V3.9951ZM23.3676 4.41194C23.4362 4.51646 23.4362 4.51645 23.4362 4.51645C23.4362 4.51644 23.4362 4.51643 23.4362 4.51642C23.4362 4.5164 23.4363 4.51638 23.4363 4.51635C23.4364 4.51629 23.4366 4.5162 23.4367 4.51609C23.4371 4.51586 23.4376 4.51554 23.4382 4.51512C23.4395 4.51428 23.4413 4.51306 23.4437 4.51148C23.4485 4.50832 23.4554 4.50373 23.4641 4.49791C23.4815 4.48627 23.5061 4.46968 23.535 4.44979C23.5926 4.41016 23.6683 4.35677 23.7389 4.30292C23.8071 4.25098 23.8788 4.19234 23.9225 4.14312C23.9338 4.13028 23.9461 4.11497 23.9563 4.09804C23.9649 4.08371 23.9805 4.05474 23.9818 4.0173C23.9825 3.99641 23.9788 3.97137 23.9656 3.94658C23.9522 3.92161 23.9331 3.90403 23.9139 3.89256C23.8798 3.87209 23.8445 3.8701 23.8256 3.8701V3.9951V4.1201C23.8254 4.1201 23.8217 4.12012 23.8157 4.11893C23.8099 4.1178 23.7986 4.11488 23.7854 4.107C23.7714 4.09858 23.7559 4.08477 23.745 4.06422C23.7341 4.04386 23.7314 4.0239 23.7319 4.00871C23.7324 3.99436 23.7357 3.98384 23.7377 3.97856C23.7398 3.97304 23.7417 3.96978 23.7421 3.9691C23.7428 3.96804 23.7413 3.97064 23.7353 3.97734C23.7097 4.00628 23.6559 4.05185 23.5873 4.10412C23.5213 4.15448 23.4493 4.2053 23.3933 4.24383C23.3654 4.26302 23.3417 4.279 23.325 4.29015C23.3167 4.29573 23.3101 4.30009 23.3057 4.30304C23.3035 4.30451 23.3018 4.30563 23.3006 4.30637C23.3001 4.30674 23.2997 4.30701 23.2994 4.30719C23.2993 4.30728 23.2992 4.30734 23.2991 4.30738C23.2991 4.3074 23.299 4.30741 23.299 4.30742C23.299 4.30742 23.299 4.30742 23.299 4.30743C23.299 4.30742 23.299 4.30742 23.3676 4.41194ZM23.3676 4.66414L23.4709 4.73457C23.5218 4.65993 23.5549 4.59495 23.5689 4.53705C23.5835 4.47692 23.5802 4.40862 23.5346 4.35387C23.4934 4.30454 23.4384 4.29208 23.4106 4.2884C23.3949 4.28631 23.3812 4.28615 23.3714 4.28646C23.3664 4.28661 23.3621 4.2869 23.3587 4.2872C23.357 4.28736 23.3555 4.28751 23.3542 4.28765C23.3536 4.28773 23.353 4.2878 23.3524 4.28786C23.3522 4.2879 23.3519 4.28793 23.3517 4.28796C23.3516 4.28797 23.3514 4.28799 23.3513 4.288C23.3513 4.28801 23.3512 4.28802 23.3512 4.28803C23.3511 4.28804 23.351 4.28805 23.3676 4.41194C23.3842 4.53583 23.3841 4.53584 23.384 4.53585C23.384 4.53586 23.3839 4.53587 23.3839 4.53588C23.3838 4.53589 23.3837 4.5359 23.3836 4.53591C23.3834 4.53594 23.3832 4.53596 23.383 4.53598C23.3827 4.53603 23.3824 4.53607 23.3821 4.5361C23.3815 4.53616 23.381 4.53621 23.3806 4.53624C23.3799 4.53631 23.3795 4.53633 23.3793 4.53633C23.3791 4.53634 23.3787 4.53636 23.3778 4.53623C23.3771 4.53614 23.3732 4.53561 23.3674 4.53309C23.3613 4.53043 23.3516 4.52481 23.3426 4.51404C23.3206 4.48765 23.3291 4.46505 23.326 4.47823C23.3222 4.49363 23.3081 4.52958 23.2643 4.59371L23.3676 4.66414ZM22.2714 5.12722L22.3077 5.24681C22.5273 5.18004 22.7779 5.10387 22.9878 5.02343C23.0928 4.98322 23.191 4.94066 23.2717 4.89608C23.3485 4.85369 23.4255 4.80102 23.4709 4.73457L23.3676 4.66414L23.2643 4.59371C23.2539 4.60907 23.2212 4.63841 23.1509 4.67722C23.0845 4.71384 22.9984 4.75166 22.8984 4.78999C22.6983 4.86664 22.4567 4.9402 22.235 5.00762L22.2714 5.12722ZM21.6787 5.35127L21.7891 5.40989C21.7788 5.42932 21.7667 5.4361 21.7719 5.43235C21.7747 5.43042 21.7816 5.42607 21.7949 5.41955C21.8213 5.40658 21.8604 5.39086 21.9121 5.37247C22.015 5.33587 22.1531 5.29385 22.3077 5.24681L22.2714 5.12722L22.235 5.00762C22.0824 5.05403 21.938 5.09793 21.8283 5.13693C21.7737 5.15634 21.724 5.17585 21.6846 5.19519C21.6651 5.20482 21.645 5.21589 21.6271 5.22861C21.6117 5.23951 21.5855 5.26017 21.5683 5.29265L21.6787 5.35127ZM20.9034 5.60432L20.9302 5.72642C21.0449 5.70123 21.23 5.66064 21.3931 5.61421C21.4743 5.59109 21.5537 5.56549 21.6177 5.53835C21.6496 5.52484 21.681 5.50954 21.7081 5.49216C21.7318 5.47691 21.7674 5.45067 21.7891 5.40989L21.6787 5.35127L21.5683 5.29265C21.5775 5.27532 21.5867 5.273 21.573 5.28183C21.5625 5.28855 21.5453 5.29752 21.5202 5.30818C21.4702 5.32936 21.4022 5.35167 21.3246 5.37376C21.1701 5.41775 20.9925 5.45679 20.8766 5.48223L20.9034 5.60432ZM20.7896 5.63305V5.50805C20.7904 5.50805 20.7968 5.508 20.8053 5.50925C20.809 5.5098 20.8194 5.51143 20.8318 5.51629C20.8382 5.51878 20.879 5.53419 20.9002 5.58128C20.9281 5.64331 20.8971 5.69417 20.8832 5.71118C20.8697 5.72775 20.8553 5.73651 20.8515 5.73884C20.8415 5.74493 20.833 5.74794 20.8323 5.74821C20.8274 5.75002 20.8269 5.74979 20.8387 5.74693C20.8573 5.74242 20.8883 5.7356 20.9302 5.72642L20.9034 5.60432L20.8766 5.48223C20.8362 5.4911 20.8017 5.49865 20.7797 5.50398C20.7712 5.50605 20.7566 5.50962 20.7449 5.51399C20.7424 5.51491 20.7327 5.51848 20.7219 5.52505C20.7176 5.52763 20.703 5.53661 20.6893 5.55339C20.6753 5.5706 20.6442 5.62164 20.6722 5.68384C20.6935 5.73109 20.7344 5.74664 20.7411 5.74926C20.7539 5.75424 20.7647 5.75597 20.769 5.75661C20.7787 5.75802 20.7867 5.75805 20.7896 5.75805V5.63305ZM20.8454 5.70255V5.82755C20.8651 5.82755 20.8867 5.8262 20.9078 5.82131C20.9249 5.81732 20.963 5.80633 20.9919 5.77113C21.0305 5.72428 21.0275 5.66859 21.0114 5.63127C20.9986 5.60131 20.9781 5.58197 20.9668 5.57243C20.942 5.5514 20.9118 5.53643 20.886 5.52679C20.8598 5.51702 20.8255 5.50805 20.7896 5.50805V5.63305V5.75805C20.7862 5.75805 20.7899 5.75777 20.7986 5.76103C20.8077 5.76442 20.8095 5.76682 20.8052 5.76317C20.8042 5.76232 20.7911 5.75166 20.7817 5.72985C20.7764 5.71758 20.7711 5.69861 20.7732 5.67523C20.7754 5.65058 20.7852 5.62886 20.7989 5.61225C20.8225 5.58356 20.8503 5.57801 20.8511 5.57782C20.8558 5.57672 20.8551 5.57755 20.8454 5.57755V5.70255ZM20.5215 5.75861C20.5543 5.87924 20.5543 5.87924 20.5543 5.87924C20.5543 5.87924 20.5543 5.87924 20.5542 5.87924C20.5542 5.87925 20.5542 5.87925 20.5542 5.87925C20.5542 5.87924 20.5543 5.87924 20.5543 5.87923C20.5543 5.87922 20.5544 5.87919 20.5546 5.87915C20.5549 5.87907 20.5554 5.87894 20.5561 5.87876C20.5574 5.8784 20.5595 5.87786 20.5622 5.87715C20.5676 5.87573 20.5756 5.87366 20.5857 5.87117C20.6058 5.86617 20.6339 5.85951 20.6652 5.85287C20.7311 5.83894 20.8009 5.82755 20.8454 5.82755V5.70255V5.57755C20.7724 5.57755 20.6802 5.59418 20.6135 5.60828C20.5786 5.61566 20.5477 5.62301 20.5255 5.62853C20.5144 5.63129 20.5053 5.6336 20.499 5.63525C20.4959 5.63607 20.4934 5.63673 20.4917 5.6372C20.4908 5.63743 20.4901 5.63761 20.4896 5.63774C20.4894 5.63781 20.4892 5.63786 20.489 5.6379C20.489 5.63792 20.4889 5.63794 20.4888 5.63795C20.4888 5.63796 20.4888 5.63796 20.4888 5.63797C20.4888 5.63797 20.4888 5.63797 20.4888 5.63797C20.4888 5.63798 20.4887 5.63798 20.5215 5.75861ZM20.5215 5.88921L20.6176 5.96914C20.6495 5.93082 20.6758 5.89027 20.6878 5.8471C20.7014 5.79812 20.6967 5.74114 20.6583 5.69501C20.6264 5.65657 20.5853 5.64374 20.566 5.63911C20.5546 5.63638 20.5447 5.63506 20.5375 5.63439C20.5338 5.63405 20.5305 5.63386 20.5279 5.63375C20.5265 5.63369 20.5253 5.63366 20.5243 5.63364C20.5237 5.63363 20.5233 5.63362 20.5228 5.63361C20.5226 5.63361 20.5223 5.63361 20.5221 5.63361C20.522 5.63361 20.5219 5.63361 20.5218 5.63361C20.5218 5.63361 20.5217 5.63361 20.5217 5.63361C20.5216 5.63361 20.5215 5.63361 20.5215 5.75861C20.5215 5.88361 20.5214 5.88361 20.5214 5.88361C20.5213 5.88361 20.5213 5.88361 20.5212 5.88361C20.5211 5.88361 20.521 5.88361 20.5209 5.88361C20.5207 5.88361 20.5206 5.8836 20.5204 5.8836C20.52 5.8836 20.5197 5.88359 20.5194 5.88359C20.5187 5.88357 20.5181 5.88356 20.5175 5.88353C20.5164 5.88349 20.5154 5.88342 20.5144 5.88333C20.5127 5.88317 20.5104 5.88288 20.5075 5.88218C20.5053 5.88164 20.4845 5.87697 20.4661 5.85486C20.4557 5.84236 20.4486 5.82709 20.4459 5.811C20.4434 5.7958 20.4456 5.78476 20.4469 5.78032C20.4487 5.77388 20.4478 5.7823 20.4254 5.80929L20.5215 5.88921ZM20.3143 5.93492L20.3008 6.05919C20.3306 6.06242 20.3835 6.06869 20.4373 6.06224C20.4934 6.05551 20.5641 6.03345 20.6176 5.96914L20.5215 5.88921L20.4254 5.80929C20.4253 5.80943 20.4252 5.80947 20.4252 5.80946C20.4253 5.80945 20.4253 5.80944 20.4253 5.80945C20.4252 5.80946 20.4252 5.80952 20.425 5.80963C20.4248 5.80975 20.4244 5.80993 20.4239 5.81016C20.4218 5.81117 20.4168 5.81291 20.4075 5.81402C20.3867 5.81652 20.362 5.81436 20.3278 5.81065L20.3143 5.93492ZM20.2877 6.01982L20.3838 5.93981C20.375 5.92926 20.3688 5.92123 20.3645 5.91528C20.36 5.90904 20.3589 5.90678 20.3594 5.90765C20.3597 5.90822 20.3608 5.91056 20.3622 5.91441C20.3635 5.91815 20.3655 5.92485 20.3666 5.93387C20.3689 5.95335 20.3665 5.9859 20.3428 6.01586C20.3215 6.04283 20.2955 6.05139 20.2857 6.05396C20.28 6.05544 20.2757 6.05598 20.2735 6.0562C20.2724 6.05632 20.2715 6.05637 20.271 6.0564C20.2707 6.05641 20.2705 6.05641 20.2703 6.05642C20.2702 6.05642 20.2701 6.05642 20.2701 6.05642C20.2701 6.05642 20.2703 6.05642 20.2708 6.05643C20.2712 6.05644 20.2718 6.05647 20.2726 6.05651C20.2742 6.05659 20.2764 6.05674 20.2792 6.05698C20.285 6.05748 20.2917 6.05821 20.3008 6.05919L20.3143 5.93492L20.3278 5.81065C20.3131 5.80905 20.2895 5.80631 20.2688 5.80642C20.2581 5.80648 20.2412 5.8072 20.2225 5.81207C20.2043 5.81681 20.172 5.8288 20.1467 5.86082C20.119 5.89583 20.115 5.93506 20.1183 5.96323C20.1213 5.98858 20.1304 6.0091 20.137 6.0219C20.1503 6.0478 20.1705 6.07435 20.1917 6.09983L20.2877 6.01982ZM20.3787 6.14694L20.483 6.21584C20.5046 6.1831 20.5064 6.14937 20.5037 6.12724C20.5013 6.10667 20.4946 6.09062 20.4904 6.08174C20.4821 6.06404 20.4708 6.04807 20.4627 6.03705C20.4452 6.01346 20.4178 5.98063 20.3838 5.93981L20.2877 6.01982L20.1917 6.09983C20.2283 6.14382 20.2497 6.16952 20.2617 6.18578C20.2683 6.19469 20.2669 6.19396 20.264 6.18779C20.2626 6.18467 20.2575 6.17345 20.2555 6.15691C20.2533 6.13879 20.2545 6.10827 20.2744 6.07804L20.3787 6.14694ZM20.2304 6.1396V6.2646C20.264 6.2646 20.2917 6.26831 20.3175 6.27168C20.3278 6.27303 20.3459 6.27552 20.3621 6.27579C20.3702 6.27593 20.3861 6.27582 20.4042 6.27123C20.4221 6.2667 20.458 6.25371 20.483 6.21585L20.3787 6.14694L20.2744 6.07803C20.2975 6.04315 20.3299 6.03215 20.343 6.02885C20.3563 6.02549 20.3659 6.02582 20.3664 6.02583C20.3681 6.02586 20.3678 6.02595 20.3642 6.02556C20.3607 6.02519 20.3563 6.02463 20.3499 6.02379C20.3248 6.02051 20.2823 6.0146 20.2304 6.0146V6.1396ZM19.9917 6.0842L19.9516 6.20262C20.0301 6.22915 20.1309 6.2646 20.2304 6.2646V6.1396V6.0146C20.1802 6.0146 20.1211 5.99599 20.0317 5.96578L19.9917 6.0842ZM19.7001 6.01982V6.14482C19.7772 6.14482 19.8553 6.17006 19.9516 6.20262L19.9917 6.0842L20.0317 5.96578C19.9424 5.93561 19.8252 5.89482 19.7001 5.89482V6.01982ZM19.8167 6.19913L19.8806 6.09171C19.8512 6.07425 19.8201 6.0557 19.7918 6.03726C19.762 6.01791 19.7421 6.00292 19.7322 5.99341C19.7265 5.98796 19.7312 5.991 19.7368 6.00198C19.7427 6.01362 19.7589 6.05589 19.7315 6.10198C19.7199 6.12154 19.7051 6.13265 19.6956 6.13825C19.6864 6.14368 19.6795 6.14549 19.6781 6.14583C19.6761 6.14636 19.6816 6.14482 19.7001 6.14482V6.01982V5.89482C19.6724 5.89482 19.6433 5.89672 19.6165 5.90356C19.5939 5.9093 19.5458 5.9252 19.5166 5.9743C19.4824 6.03181 19.5 6.08777 19.5137 6.11477C19.527 6.1411 19.5459 6.16117 19.5591 6.17383C19.6098 6.22241 19.7007 6.27557 19.7527 6.30655L19.8167 6.19913ZM19.8308 6.20754L19.8948 6.1002C19.8902 6.09743 19.8854 6.09458 19.8806 6.09171L19.8167 6.19913L19.7527 6.30655C19.7576 6.30944 19.7622 6.3122 19.7667 6.31488L19.8308 6.20754ZM19.7039 6.2686L19.7035 6.3936C19.7495 6.39373 19.7897 6.39386 19.8211 6.39291C19.8458 6.39215 19.886 6.39074 19.9185 6.37909C19.9303 6.37485 19.9892 6.35301 20.0066 6.28507C20.0238 6.21757 19.9832 6.17025 19.975 6.16087C19.9521 6.13478 19.9175 6.11371 19.8948 6.1002L19.8308 6.20754L19.7667 6.31488C19.7784 6.32184 19.7859 6.32673 19.7906 6.33C19.7965 6.33422 19.7929 6.33249 19.7868 6.32552C19.7862 6.32481 19.7486 6.28469 19.7643 6.22318C19.7802 6.16123 19.8329 6.14418 19.8341 6.14375C19.8431 6.14055 19.8473 6.14075 19.8403 6.1415C19.835 6.14207 19.8264 6.14263 19.8134 6.14302C19.7873 6.14382 19.7519 6.14374 19.7043 6.1436L19.7039 6.2686ZM19.6429 6.26849V6.39349C19.6645 6.39349 19.6847 6.39354 19.7035 6.3936L19.7039 6.2686L19.7043 6.1436C19.6854 6.14354 19.6649 6.14349 19.6429 6.14349V6.26849ZM19.4308 6.25206L19.4097 6.37527C19.4478 6.38178 19.5176 6.39349 19.6429 6.39349V6.26849V6.14349C19.536 6.14349 19.4809 6.13381 19.4519 6.12885L19.4308 6.25206ZM19.3923 6.26849H19.5173C19.5173 6.26108 19.5182 6.27321 19.5138 6.28883C19.5111 6.29881 19.5051 6.31487 19.4917 6.33108C19.4775 6.34835 19.4599 6.35974 19.4427 6.36624C19.4273 6.37212 19.4144 6.37319 19.4082 6.37344C19.4019 6.37369 19.3976 6.37323 19.3972 6.37319C19.3965 6.37312 19.397 6.37315 19.3995 6.37356C19.4021 6.37395 19.4051 6.37447 19.4097 6.37527L19.4308 6.25206L19.4519 6.12885C19.4449 6.12764 19.4332 6.12557 19.4227 6.1245C19.4163 6.12384 19.3865 6.1202 19.354 6.13252C19.3059 6.15079 19.2818 6.18997 19.273 6.22189C19.2669 6.2437 19.2673 6.26438 19.2673 6.26849H19.3923ZM19.1995 6.22285L19.1581 6.34079C19.2089 6.35864 19.2622 6.37741 19.3026 6.38842C19.321 6.39345 19.3472 6.39988 19.3725 6.40079C19.3833 6.40117 19.4111 6.40159 19.4408 6.38786C19.4577 6.38006 19.4785 6.36614 19.4946 6.34239C19.5113 6.31794 19.5173 6.29145 19.5173 6.26849H19.3923H19.2673C19.2673 6.24828 19.2727 6.22414 19.288 6.20164C19.3029 6.17985 19.3217 6.1675 19.336 6.1609C19.3605 6.14957 19.3806 6.15092 19.3815 6.15095C19.3871 6.15115 19.3849 6.15173 19.3683 6.14721C19.3386 6.13913 19.2954 6.12404 19.241 6.10492L19.1995 6.22285ZM18.8927 6.1396V6.2646C18.9077 6.2646 18.9418 6.27077 18.996 6.28677C19.0468 6.30173 19.1029 6.32142 19.1581 6.34079L19.1995 6.22285L19.241 6.10492C19.1871 6.08601 19.1247 6.06407 19.0667 6.04697C19.0123 6.03091 18.9474 6.0146 18.8927 6.0146V6.1396ZM19.1834 6.37833C19.2443 6.26917 19.2443 6.26917 19.2443 6.26917C19.2443 6.26917 19.2443 6.26917 19.2443 6.26917C19.2443 6.26917 19.2443 6.26916 19.2443 6.26916C19.2443 6.26914 19.2442 6.26911 19.2441 6.26906C19.244 6.26897 19.2437 6.26882 19.2433 6.26862C19.2426 6.26821 19.2415 6.26759 19.2401 6.26677C19.2371 6.26512 19.2328 6.26266 19.2273 6.25952C19.2163 6.25322 19.2006 6.24419 19.1822 6.23334C19.1451 6.21148 19.0981 6.18292 19.0558 6.15485C19.0099 6.12437 18.9812 6.10189 18.9718 6.09174C18.97 6.0898 18.9737 6.0933 18.9782 6.10159C18.9812 6.10706 18.9968 6.13609 18.9879 6.17652C18.977 6.22651 18.9399 6.25033 18.9195 6.25844C18.91 6.26221 18.9025 6.26355 18.8989 6.26406C18.895 6.26461 18.8927 6.2646 18.8927 6.2646V6.1396V6.0146C18.8778 6.0146 18.8531 6.01583 18.8272 6.02611C18.798 6.03772 18.756 6.06668 18.7437 6.12319C18.7334 6.17014 18.751 6.2071 18.759 6.22167C18.7685 6.23905 18.7801 6.25281 18.7888 6.26205C18.821 6.29667 18.8735 6.33387 18.9175 6.36308C18.965 6.39468 19.0164 6.42581 19.0552 6.44871C19.0748 6.46024 19.0915 6.46986 19.1033 6.47662C19.1093 6.48 19.114 6.48267 19.1173 6.48452C19.1189 6.48545 19.1202 6.48617 19.1211 6.48667C19.1215 6.48691 19.1219 6.48711 19.1221 6.48725C19.1222 6.48731 19.1223 6.48737 19.1224 6.48741C19.1224 6.48743 19.1225 6.48744 19.1225 6.48746C19.1225 6.48746 19.1225 6.48747 19.1225 6.48747C19.1225 6.48748 19.1225 6.48748 19.1834 6.37833ZM18.8399 6.26849L18.7928 6.3843C18.859 6.41119 18.9498 6.44007 19.0208 6.46148C19.057 6.47238 19.0893 6.4817 19.1126 6.48831C19.1242 6.49161 19.1336 6.49424 19.1402 6.49605C19.1434 6.49696 19.146 6.49767 19.1477 6.49815C19.1486 6.49839 19.1493 6.49858 19.1498 6.49871C19.15 6.49877 19.1502 6.49882 19.1503 6.49885C19.1504 6.49887 19.1504 6.49889 19.1505 6.4989C19.1505 6.4989 19.1505 6.49891 19.1505 6.49891C19.1505 6.49891 19.1505 6.49891 19.1505 6.49891C19.1505 6.49892 19.1505 6.49892 19.1834 6.37833C19.2163 6.25773 19.2163 6.25773 19.2163 6.25774C19.2163 6.25774 19.2163 6.25774 19.2163 6.25774C19.2163 6.25774 19.2163 6.25773 19.2163 6.25773C19.2163 6.25773 19.2163 6.25772 19.2162 6.25771C19.2161 6.25768 19.216 6.25765 19.2158 6.25759C19.2154 6.25749 19.2148 6.25733 19.2141 6.25711C19.2125 6.25668 19.2101 6.25603 19.2071 6.25518C19.2009 6.25348 19.192 6.25097 19.1809 6.24781C19.1586 6.24148 19.1276 6.23253 19.093 6.2221C19.0224 6.20085 18.9414 6.17481 18.8869 6.15268L18.8399 6.26849ZM18.9371 6.49074L19.0413 6.42165C19.0004 6.35989 18.9634 6.30384 18.9441 6.26686C18.9396 6.25816 18.9375 6.25331 18.9369 6.2516C18.9351 6.24682 18.9405 6.25824 18.94 6.27774C18.9398 6.2887 18.9375 6.31069 18.923 6.33418C18.9066 6.3607 18.8815 6.37785 18.8557 6.38529C18.8332 6.39176 18.8152 6.38959 18.8074 6.38825C18.799 6.38678 18.7937 6.38465 18.7928 6.3843L18.8399 6.26849L18.8869 6.15268C18.8751 6.14787 18.8341 6.13135 18.7865 6.14504C18.7567 6.15364 18.7287 6.17303 18.7103 6.20278C18.6938 6.2295 18.6905 6.25571 18.6901 6.2718C18.6894 6.30156 18.6981 6.32687 18.7026 6.33894C18.7083 6.3541 18.7154 6.36906 18.7224 6.38247C18.7493 6.43391 18.7952 6.50293 18.833 6.55983L18.9371 6.49074ZM19.0298 6.66357V6.78857C19.0504 6.78857 19.0818 6.7836 19.1109 6.76042C19.1406 6.7368 19.1528 6.70628 19.1572 6.68413C19.1644 6.64795 19.1542 6.61779 19.1518 6.61044C19.1444 6.58775 19.1318 6.56474 19.1224 6.54844C19.1015 6.51234 19.0703 6.46535 19.0413 6.42165L18.9371 6.49074L18.833 6.55983C18.8638 6.60624 18.8898 6.64566 18.9059 6.67345C18.9149 6.68909 18.9156 6.6924 18.9142 6.68804C18.9136 6.68615 18.9121 6.68126 18.911 6.67421C18.91 6.66803 18.9084 6.65375 18.912 6.63555C18.9159 6.61584 18.9271 6.58719 18.9552 6.56482C18.9828 6.5429 19.012 6.53857 19.0298 6.53857V6.66357ZM18.9346 6.63175L18.8877 6.7476C18.9078 6.75574 18.9303 6.76489 18.95 6.77185C18.9636 6.7767 18.9967 6.78857 19.0298 6.78857V6.66357V6.53857C19.0365 6.53857 19.0412 6.53927 19.0429 6.53955C19.0448 6.53987 19.0457 6.5401 19.045 6.53994C19.0435 6.53956 19.0399 6.53849 19.0334 6.53618C19.0201 6.53147 19.0033 6.5247 18.9815 6.51589L18.9346 6.63175ZM18.7412 6.61174H18.8662C18.8662 6.62365 18.8633 6.64541 18.8475 6.66738C18.8315 6.6897 18.8108 6.70026 18.7967 6.70466C18.7841 6.70863 18.7754 6.7082 18.7747 6.70817C18.7734 6.70812 18.7749 6.70807 18.7799 6.70913C18.8042 6.71428 18.841 6.7287 18.8877 6.7476L18.9346 6.63175L18.9815 6.51589C18.9423 6.50001 18.8824 6.47527 18.8315 6.46453C18.8091 6.45978 18.7659 6.45234 18.722 6.46608C18.6965 6.47406 18.6668 6.49052 18.6445 6.52148C18.6225 6.55209 18.6162 6.58525 18.6162 6.61174H18.7412ZM18.9606 6.76291V6.63791C18.9211 6.63791 18.8916 6.62714 18.8758 6.6164C18.8604 6.60593 18.8662 6.6029 18.8662 6.61174H18.7412H18.6162C18.6162 6.70731 18.6714 6.77986 18.7355 6.8233C18.7991 6.86646 18.8793 6.88791 18.9606 6.88791V6.76291ZM19.0298 6.89837V7.02337C19.094 7.02337 19.1503 6.98897 19.1781 6.93258C19.2024 6.88349 19.199 6.83134 19.1859 6.79158C19.1576 6.70552 19.0739 6.63791 18.9606 6.63791V6.76291V6.88791C18.9679 6.88791 18.9545 6.88803 18.9484 6.86971C18.9465 6.86381 18.9423 6.84552 18.954 6.82183C18.9603 6.80901 18.9711 6.79569 18.9869 6.78598C19.0028 6.77626 19.0185 6.77337 19.0298 6.77337V6.89837ZM18.9455 6.8808L18.9102 7.0007C18.9333 7.00753 18.9831 7.02337 19.0298 7.02337V6.89837V6.77337C19.0312 6.77337 19.028 6.77345 19.0175 6.77103C19.0074 6.7687 18.9962 6.76542 18.9809 6.7609L18.9455 6.8808ZM18.8399 6.89837H18.9649C18.9649 6.90685 18.9623 6.93786 18.9336 6.96447C18.9071 6.98905 18.8791 6.99014 18.8742 6.99022C18.8685 6.99031 18.8681 6.98942 18.8773 6.99157C18.8857 6.99352 18.8956 6.9964 18.9102 7.0007L18.9455 6.8808L18.9809 6.7609C18.9613 6.75512 18.9132 6.73952 18.87 6.74025C18.8455 6.74067 18.8014 6.74614 18.7637 6.78111C18.7237 6.81812 18.7149 6.86554 18.7149 6.89837H18.8399ZM18.8861 6.98056L18.9785 6.89639C18.972 6.88921 18.9677 6.88446 18.964 6.88012C18.9605 6.87594 18.9592 6.87403 18.959 6.87365C18.9588 6.87342 18.9604 6.8758 18.9619 6.88041C18.9636 6.88537 18.9649 6.89158 18.9649 6.89837H18.8399H18.7149C18.7149 6.98724 18.778 7.04754 18.7937 7.06474L18.8861 6.98056ZM18.9606 7.14364H19.0856C19.0856 7.01116 19.0143 6.93568 18.9785 6.89639L18.8861 6.98056L18.7937 7.06474C18.8117 7.08449 18.8205 7.09485 18.8267 7.10617C18.8315 7.1148 18.8356 7.12552 18.8356 7.14364H18.9606ZM18.8399 7.21105L18.7342 7.14425C18.7124 7.17874 18.6715 7.26997 18.7431 7.34556C18.8011 7.40681 18.88 7.39463 18.9131 7.38502C18.9991 7.35997 19.0856 7.27441 19.0856 7.14364L18.9606 7.14364L18.8356 7.14364C18.8356 7.15345 18.8322 7.14817 18.8432 7.14498C18.8462 7.14409 18.8545 7.14213 18.8669 7.1436C18.8787 7.145 18.9031 7.15087 18.9246 7.17363C18.9487 7.19905 18.9546 7.22994 18.9526 7.25185C18.951 7.2704 18.9443 7.27973 18.9455 7.27786L18.8399 7.21105ZM18.6354 7.00306H18.7604C18.7604 7.01139 18.757 7.05643 18.7104 7.08409C18.6907 7.09578 18.6721 7.09826 18.6607 7.09839C18.6497 7.09851 18.6423 7.09651 18.6401 7.09585C18.636 7.09465 18.6384 7.09474 18.6471 7.10046C18.6549 7.10556 18.6645 7.11304 18.6748 7.12258C18.6966 7.14269 18.7133 7.16456 18.7212 7.18014C18.7251 7.1878 18.7242 7.18886 18.7237 7.18393C18.723 7.17782 18.7232 7.16171 18.7342 7.14425L18.8399 7.21105L18.9455 7.27786C18.9972 7.19608 18.9656 7.10956 18.9443 7.0674C18.9194 7.01805 18.8814 6.9731 18.8446 6.9391C18.8103 6.9073 18.7623 6.87136 18.7113 6.8562C18.688 6.84929 18.6352 6.83804 18.5829 6.86906C18.5221 6.90512 18.5104 6.96721 18.5104 7.00306H18.6354ZM18.6354 7.14364H18.7604V7.00306H18.6354H18.5104V7.14364H18.6354ZM18.5773 7.25929L18.6109 7.37968C18.6227 7.37639 18.6845 7.36346 18.7238 7.30409C18.7563 7.25512 18.7604 7.19471 18.7604 7.14364H18.6354H18.5104C18.5104 7.16451 18.5092 7.17531 18.5084 7.17984C18.5075 7.18436 18.5081 7.17705 18.5155 7.16594C18.5193 7.16012 18.5243 7.15439 18.5303 7.1493C18.5362 7.14431 18.5417 7.14107 18.5456 7.13911C18.5493 7.13729 18.5516 7.13658 18.551 7.13678C18.5501 7.13708 18.5486 7.13752 18.5436 7.13891L18.5773 7.25929ZM18.4995 7.30422L18.591 7.38939C18.5935 7.38675 18.5951 7.38542 18.5959 7.38487C18.5966 7.38434 18.597 7.38413 18.5972 7.38401C18.5982 7.3835 18.5996 7.38283 18.6109 7.37968L18.5773 7.25929L18.5436 7.13891C18.5152 7.14685 18.4612 7.16201 18.4081 7.21905L18.4995 7.30422ZM18.4458 7.39257L18.5672 7.42239C18.568 7.41883 18.568 7.41899 18.568 7.41926C18.5678 7.41978 18.5678 7.41959 18.5684 7.41842C18.5697 7.4159 18.5751 7.40649 18.591 7.38939L18.4995 7.30422L18.408 7.21905C18.3804 7.24875 18.3608 7.27607 18.347 7.30229C18.3325 7.33002 18.327 7.35191 18.3244 7.36276L18.4458 7.39257ZM18.4102 7.41063V7.53563C18.419 7.53563 18.431 7.53546 18.4432 7.53401C18.4544 7.53267 18.4774 7.52909 18.5015 7.51499C18.5305 7.49801 18.5476 7.47397 18.5571 7.45291C18.561 7.44405 18.5634 7.43636 18.5647 7.43197C18.5659 7.42775 18.5669 7.42364 18.5672 7.42239L18.4458 7.39257L18.3244 7.36276C18.3225 7.37023 18.3244 7.36062 18.3291 7.35035C18.3364 7.33406 18.3507 7.3136 18.3751 7.29929C18.3946 7.28786 18.4114 7.28602 18.4136 7.28576C18.4167 7.28539 18.4169 7.28563 18.4102 7.28563V7.41063ZM18.3373 7.33782L18.233 7.40682C18.245 7.42488 18.2626 7.45208 18.2819 7.47349C18.2992 7.49278 18.3423 7.53563 18.4102 7.53563V7.41063V7.28563C18.4317 7.28563 18.448 7.29273 18.4574 7.29845C18.4657 7.3035 18.4691 7.3078 18.4677 7.30626C18.4666 7.30503 18.4639 7.30174 18.459 7.29472C18.454 7.28776 18.4487 7.27964 18.4415 7.26882L18.3373 7.33782ZM18.1194 7.14364L18.078 7.26159C18.1508 7.28712 18.1899 7.34172 18.233 7.40682L18.3373 7.33782L18.4415 7.26882C18.3997 7.20574 18.3207 7.0818 18.1607 7.02568L18.1194 7.14364ZM17.993 7.18163L18.1154 7.20692C18.1167 7.20027 18.1174 7.19714 18.118 7.19475C18.1186 7.19249 18.1183 7.19414 18.1168 7.19768C18.1153 7.20141 18.1116 7.20914 18.1044 7.21786C18.0967 7.22716 18.0865 7.23559 18.0744 7.24165C18.0513 7.25318 18.0343 7.24983 18.0387 7.25039C18.0423 7.25084 18.0539 7.25312 18.078 7.26159L18.1194 7.14364L18.1607 7.02568C18.1296 7.01476 18.099 7.00602 18.0701 7.00236C18.042 6.99881 18.0021 6.99826 17.9626 7.01806C17.919 7.03984 17.897 7.07531 17.886 7.10177C17.8768 7.12392 17.8723 7.14774 17.8705 7.15634L17.993 7.18163ZM17.9199 7.30422L17.9921 7.40626C18.0892 7.33751 18.1068 7.24844 18.1154 7.20692L17.993 7.18163L17.8705 7.15634C17.8667 7.17517 17.8649 7.18141 17.8623 7.18673C17.8608 7.18966 17.858 7.19488 17.8477 7.20218L17.9199 7.30422ZM17.8869 7.41786L17.9778 7.33209C17.974 7.32803 17.9724 7.32634 17.9713 7.32504C17.9703 7.32388 17.9715 7.32513 17.9734 7.32814C17.9778 7.3348 17.988 7.35391 17.9861 7.38104C17.9843 7.40687 17.9727 7.42133 17.9717 7.42255C17.971 7.42336 17.9755 7.41799 17.9921 7.40626L17.9199 7.30422L17.8477 7.20218C17.8222 7.22019 17.7981 7.24021 17.779 7.26329C17.7596 7.28679 17.7398 7.32041 17.7367 7.36353C17.7336 7.40795 17.7497 7.44248 17.7635 7.46392C17.7757 7.48274 17.791 7.49837 17.796 7.50363L17.8869 7.41786ZM17.9199 7.47983H18.0449C18.0449 7.39603 17.9883 7.34315 17.9778 7.33209L17.8869 7.41786L17.796 7.50363C17.8002 7.50816 17.8022 7.51023 17.8037 7.51199C17.805 7.51353 17.8045 7.51314 17.8033 7.51128C17.8021 7.50928 17.7998 7.50527 17.798 7.49946C17.796 7.49343 17.7949 7.4867 17.7949 7.47983H17.9199ZM17.7728 7.30422H17.6478C17.6478 7.3571 17.6661 7.40566 17.6844 7.44154C17.7036 7.47909 17.7285 7.5139 17.7537 7.54175C17.7749 7.56526 17.8102 7.59937 17.8537 7.61538C17.8741 7.6229 17.9312 7.63875 17.9861 7.59965C18.0403 7.56106 18.0449 7.50235 18.0449 7.47983H17.9199H17.7949C17.7949 7.47597 17.7949 7.42893 17.841 7.39607C17.8878 7.3627 17.9335 7.37835 17.9401 7.38079C17.9509 7.38477 17.9549 7.38882 17.9513 7.38601C17.949 7.38417 17.9447 7.38027 17.939 7.374C17.9275 7.36123 17.9156 7.34444 17.9071 7.32794C17.8979 7.30976 17.8978 7.3018 17.8978 7.30422H17.7728ZM17.6057 7.14364H17.7307C17.7307 7.15465 17.7272 7.1968 17.6856 7.22662C17.6475 7.25391 17.6104 7.24643 17.6033 7.24476C17.5933 7.24243 17.5897 7.23945 17.5933 7.24165C17.5958 7.2432 17.6005 7.24648 17.6066 7.25185C17.6191 7.2629 17.6316 7.2774 17.6401 7.2913C17.6496 7.30693 17.6478 7.31118 17.6478 7.30422H17.7728H17.8978C17.8978 7.2468 17.8751 7.19642 17.8533 7.16082C17.8305 7.12349 17.8012 7.09017 17.7719 7.06435C17.7463 7.04178 17.7065 7.01218 17.6603 7.00136C17.6375 6.99601 17.5873 6.9895 17.5401 7.02334C17.4893 7.05969 17.4807 7.11398 17.4807 7.14364H17.6057ZM17.5197 7.30422V7.42922C17.5629 7.42922 17.6072 7.41802 17.6453 7.38898C17.6823 7.36068 17.7022 7.32399 17.7129 7.29305C17.7321 7.23808 17.7307 7.1743 17.7307 7.14364H17.6057H17.4807C17.4807 7.16314 17.4806 7.17792 17.4796 7.19118C17.4792 7.19747 17.4786 7.20224 17.478 7.20581C17.4773 7.20941 17.4768 7.21087 17.4769 7.21077C17.4769 7.21064 17.4806 7.20012 17.4935 7.19027C17.4998 7.18548 17.5063 7.18244 17.5118 7.18077C17.517 7.17918 17.5201 7.17922 17.5197 7.17922V7.30422ZM17.4747 7.36252L17.5995 7.37024C17.5998 7.3658 17.6 7.36308 17.6002 7.36073C17.6003 7.35847 17.6004 7.3579 17.6004 7.35832C17.6003 7.35873 17.5999 7.36123 17.5988 7.36501C17.5977 7.36885 17.5955 7.37484 17.5916 7.38185C17.5826 7.39792 17.568 7.41257 17.5493 7.42149C17.5331 7.42919 17.5209 7.42922 17.5197 7.42922V7.30422V7.17922C17.4979 7.17922 17.47 7.18236 17.4418 7.19578C17.4111 7.2104 17.3882 7.23335 17.3734 7.25982C17.3601 7.28357 17.3554 7.30643 17.3533 7.3203C17.3512 7.33404 17.3504 7.34788 17.35 7.35479L17.4747 7.36252ZM17.4157 7.47983L17.4843 7.58433C17.5335 7.55209 17.5645 7.51063 17.5815 7.46569C17.5969 7.42513 17.5985 7.38638 17.5995 7.37025L17.4747 7.36252L17.35 7.35479C17.3494 7.3644 17.349 7.36913 17.3484 7.37331C17.3479 7.37692 17.3475 7.37774 17.3477 7.37711C17.3481 7.37617 17.3489 7.37471 17.3498 7.37348C17.3508 7.37231 17.3505 7.37312 17.3472 7.37532L17.4157 7.47983ZM17.3663 7.45528L17.2416 7.44745C17.2411 7.45496 17.2399 7.472 17.2407 7.48773C17.2411 7.49613 17.2423 7.51019 17.2471 7.52608C17.2519 7.54207 17.2625 7.56737 17.2868 7.58912C17.3431 7.63945 17.4082 7.62074 17.426 7.61462C17.4487 7.60679 17.4693 7.59418 17.4843 7.58433L17.4157 7.47983L17.3472 7.37532C17.3356 7.38291 17.3364 7.38105 17.3445 7.37826C17.3476 7.37719 17.4032 7.35783 17.4535 7.40276C17.4748 7.42182 17.4833 7.44323 17.4866 7.45429C17.4899 7.46524 17.4903 7.4733 17.4903 7.47476C17.4904 7.4766 17.4903 7.47601 17.4911 7.4631L17.3663 7.45528ZM17.3312 7.30422L17.233 7.38158C17.2418 7.39276 17.2442 7.40623 17.2416 7.44745L17.3663 7.45528L17.4911 7.4631C17.4934 7.42616 17.5033 7.32069 17.4294 7.22687L17.3312 7.30422ZM17.3446 7.08515L17.2296 7.03623C17.2192 7.06073 17.1971 7.11154 17.1872 7.16767C17.1774 7.22288 17.175 7.30802 17.233 7.38158L17.3312 7.30422L17.4294 7.22687C17.4356 7.23473 17.4289 7.23619 17.4333 7.21121C17.4376 7.18716 17.4481 7.16128 17.4597 7.13408L17.3446 7.08515ZM17.3312 7.06902L17.4145 7.1622C17.4228 7.15475 17.4215 7.15672 17.4152 7.16063C17.413 7.162 17.4084 7.16472 17.4021 7.16752C17.3965 7.16997 17.3841 7.17499 17.3671 7.17684C17.3495 7.17876 17.3186 7.17803 17.2875 7.15813C17.2552 7.13752 17.2408 7.108 17.2351 7.08754C17.2298 7.06878 17.2304 7.05342 17.2309 7.04658C17.2314 7.03875 17.2327 7.03282 17.2333 7.0299C17.2346 7.02423 17.236 7.02085 17.2357 7.02172C17.2351 7.02333 17.2336 7.02682 17.2296 7.03623L17.3446 7.08515L17.4597 7.13408C17.4626 7.12709 17.4671 7.11669 17.4704 7.10762C17.4721 7.10315 17.4748 7.09522 17.477 7.0859C17.4778 7.08258 17.4853 7.05386 17.4758 7.02002C17.4698 6.99866 17.455 6.96848 17.4221 6.94747C17.3903 6.92717 17.3586 6.92629 17.34 6.92831C17.3088 6.93171 17.2867 6.94612 17.283 6.94847C17.2689 6.95723 17.2559 6.96863 17.2478 6.97585L17.3312 7.06902ZM17.0692 7.14364L17.0692 7.26864C17.1364 7.26865 17.291 7.27265 17.4145 7.1622L17.3312 7.06902L17.2478 6.97585C17.2044 7.01469 17.1462 7.01865 17.0693 7.01864L17.0692 7.14364ZM17.0664 7.14364V7.26864H17.0692V7.14364V7.01864H17.0664V7.14364ZM16.9759 7.21021L17.0729 7.28913C17.0787 7.28196 17.0833 7.2764 17.0879 7.27121C17.0925 7.26607 17.0957 7.26293 17.0977 7.26115C17.0999 7.25924 17.0989 7.26057 17.0946 7.26264C17.09 7.26488 17.0802 7.26864 17.0664 7.26864V7.14364V7.01864C17.0036 7.01864 16.9579 7.05159 16.9343 7.07194C16.9094 7.0935 16.8891 7.11892 16.879 7.13128L16.9759 7.21021ZM16.9404 7.21105H16.8154C16.8154 7.22232 16.8155 7.25049 16.8265 7.27855C16.8324 7.29373 16.848 7.32543 16.885 7.34601C16.9263 7.36905 16.967 7.36339 16.9913 7.35484C17.0129 7.34724 17.0278 7.33567 17.0345 7.3302C17.0423 7.32376 17.0485 7.31738 17.0525 7.31301C17.0603 7.30463 17.0682 7.29486 17.0729 7.28913L16.9759 7.21021L16.879 7.13128C16.8761 7.13485 16.874 7.1374 16.8722 7.1396C16.8713 7.14064 16.8707 7.14141 16.8702 7.14198C16.8697 7.14256 16.8695 7.14278 16.8695 7.14275C16.8695 7.14274 16.87 7.14224 16.8708 7.14143C16.8716 7.14064 16.8732 7.13917 16.8754 7.13733C16.8783 7.13494 16.8898 7.12555 16.9083 7.11902C16.9296 7.11154 16.9676 7.10586 17.0066 7.1276C17.0412 7.14687 17.0548 7.17599 17.0592 7.1871C17.067 7.20704 17.0654 7.2212 17.0654 7.21105H16.9404ZM17.2477 6.89837V6.77337C17.0956 6.77337 16.9859 6.86004 16.9197 6.94626C16.8862 6.98987 16.861 7.03661 16.8439 7.08003C16.8276 7.12145 16.8154 7.16808 16.8154 7.21105H16.9404H17.0654C17.0654 7.21224 17.0653 7.20896 17.0672 7.20078C17.069 7.1931 17.072 7.18316 17.0765 7.17163C17.0857 7.14834 17.0997 7.1223 17.1179 7.09852C17.1552 7.04994 17.1992 7.02337 17.2477 7.02337V6.89837ZM17.547 6.8L17.4767 6.69663C17.4429 6.71965 17.4168 6.73694 17.3837 6.75022C17.3521 6.76292 17.3098 6.77337 17.2477 6.77337V6.89837V7.02337C17.4399 7.02337 17.5432 6.95371 17.6173 6.90337L17.547 6.8ZM17.6057 6.76291L17.5464 6.65286C17.52 6.66709 17.4956 6.68379 17.4767 6.69663L17.547 6.8L17.6173 6.90337C17.6383 6.8891 17.6519 6.88 17.6649 6.87296L17.6057 6.76291ZM17.5197 6.61174L17.4622 6.72274C17.4814 6.73268 17.4984 6.74235 17.5117 6.75135C17.5264 6.76119 17.5308 6.76626 17.5301 6.76547C17.5295 6.76466 17.5249 6.75901 17.5212 6.74851C17.5171 6.73702 17.5141 6.72004 17.5182 6.70048C17.5266 6.66048 17.5543 6.64858 17.5464 6.65286L17.6057 6.76291L17.6649 6.87296C17.6999 6.85411 17.7492 6.8173 17.7629 6.75156C17.7768 6.68507 17.7451 6.63364 17.7242 6.60784C17.6842 6.55867 17.6187 6.52221 17.5772 6.50074L17.5197 6.61174ZM17.522 6.46811L17.4086 6.41538C17.3923 6.45052 17.3751 6.49695 17.3714 6.54439C17.3679 6.58862 17.3752 6.67768 17.4622 6.72274L17.5197 6.61174L17.5772 6.50074C17.5862 6.50541 17.5949 6.51209 17.6023 6.52063C17.6095 6.52902 17.614 6.53755 17.6167 6.54466C17.6216 6.55778 17.6205 6.56595 17.6207 6.56397C17.6207 6.56273 17.6214 6.55791 17.6241 6.54928C17.6266 6.54099 17.6304 6.5313 17.6353 6.52085L17.522 6.46811ZM17.522 6.46811L17.5816 6.57796C17.6115 6.56175 17.644 6.5404 17.6708 6.51315C17.6957 6.4878 17.7307 6.44189 17.7307 6.37833H17.6057H17.4807C17.4807 6.36228 17.4853 6.3505 17.4885 6.34432C17.4915 6.33851 17.4939 6.3365 17.4926 6.33784C17.4914 6.33902 17.4884 6.34173 17.4829 6.34562C17.4775 6.34944 17.4707 6.35373 17.4623 6.35827L17.522 6.46811ZM17.6057 6.37833H17.7307C17.7307 6.36597 17.7298 6.3299 17.7053 6.29537C17.6909 6.27522 17.6694 6.25713 17.6411 6.24747C17.6141 6.23825 17.5896 6.23962 17.5722 6.24314C17.5412 6.24945 17.5196 6.26531 17.5109 6.27214C17.4997 6.28089 17.4903 6.29036 17.4831 6.29832C17.4558 6.32867 17.4286 6.37251 17.4086 6.41538L17.522 6.46811L17.6353 6.52085C17.6479 6.4938 17.6625 6.47273 17.6689 6.46566C17.6701 6.46426 17.6687 6.46609 17.6646 6.46928C17.663 6.47054 17.6478 6.4829 17.6221 6.48813C17.6074 6.49111 17.5852 6.49255 17.5603 6.48404C17.5341 6.4751 17.5144 6.45837 17.5015 6.44027C17.4799 6.40986 17.4807 6.38068 17.4807 6.37833H17.6057ZM17.3312 6.52501V6.65001C17.4058 6.65001 17.5077 6.61808 17.5816 6.57796L17.522 6.46811L17.4623 6.35827C17.4127 6.38522 17.352 6.40001 17.3312 6.40001V6.52501ZM17.3499 6.36751L17.2343 6.32008C17.2183 6.3589 17.1964 6.41107 17.1875 6.45356C17.1837 6.47171 17.1758 6.51493 17.1938 6.55944C17.2045 6.58601 17.224 6.6119 17.2538 6.62949C17.2819 6.64606 17.3102 6.65001 17.3312 6.65001V6.52501V6.40001C17.3407 6.40001 17.3598 6.40177 17.3809 6.41417C17.4036 6.42759 17.4181 6.44734 17.4256 6.46598C17.4323 6.48243 17.4325 6.49546 17.4325 6.4999C17.4324 6.50485 17.4318 6.50684 17.4323 6.50461C17.4333 6.49976 17.4362 6.48983 17.4425 6.47265C17.4487 6.45609 17.4564 6.43733 17.4656 6.41495L17.3499 6.36751ZM17.4157 6.1396H17.2907C17.2907 6.1539 17.2865 6.17777 17.2752 6.21277C17.2643 6.24666 17.2498 6.28227 17.2343 6.32008L17.3499 6.36751L17.4656 6.41495C17.4804 6.37879 17.4988 6.33415 17.5132 6.28944C17.5272 6.24583 17.5407 6.19273 17.5407 6.1396H17.4157ZM17.4372 5.98093L17.3153 5.95327C17.3065 5.99187 17.2907 6.05993 17.2907 6.1396H17.4157H17.5407C17.5407 6.09082 17.5503 6.04721 17.5591 6.0086L17.4372 5.98093ZM17.4157 5.93662L17.4882 6.03846C17.4907 6.03674 17.4903 6.03715 17.4879 6.03846C17.4866 6.0392 17.4773 6.04435 17.4627 6.04747C17.4483 6.05058 17.4139 6.05459 17.3778 6.03299C17.3408 6.01083 17.3278 5.97732 17.3236 5.96083C17.3197 5.94513 17.3203 5.93331 17.3205 5.93116C17.3206 5.92772 17.321 5.92631 17.3206 5.92829C17.3199 5.93271 17.3184 5.93954 17.3153 5.95327L17.4372 5.98093L17.5591 6.0086C17.5616 5.99737 17.565 5.98285 17.5671 5.9701C17.5682 5.96376 17.5744 5.93234 17.5659 5.89924C17.5607 5.87867 17.5459 5.84226 17.5062 5.81848C17.4674 5.79526 17.4295 5.79892 17.4103 5.80303C17.3777 5.81002 17.3522 5.82844 17.3433 5.83479L17.4157 5.93662ZM16.9513 5.90842L16.9331 6.03209C17.017 6.04441 17.125 6.06033 17.2183 6.06879C17.2646 6.07299 17.3109 6.07572 17.3506 6.07467C17.3704 6.07415 17.3916 6.07264 17.4119 6.0689C17.4294 6.06569 17.46 6.05856 17.4882 6.03846L17.4157 5.93662L17.3433 5.83479C17.3598 5.82298 17.3725 5.82197 17.3668 5.82302C17.3639 5.82354 17.3568 5.82442 17.344 5.82476C17.3187 5.82543 17.2836 5.82369 17.2408 5.81981C17.1558 5.81209 17.055 5.79731 16.9694 5.78474L16.9513 5.90842ZM16.7991 5.88921V6.01421C16.7979 6.01421 16.8005 6.01421 16.8092 6.01508C16.817 6.01587 16.8271 6.01708 16.8396 6.01874C16.8648 6.02206 16.8965 6.02671 16.9331 6.03209L16.9513 5.90842L16.9694 5.78474C16.9334 5.77946 16.8997 5.7745 16.8723 5.77089C16.8479 5.76767 16.8195 5.76421 16.7991 5.76421V5.88921ZM16.8183 5.78907L16.7068 5.73246C16.6963 5.75313 16.6771 5.78998 16.6675 5.82224C16.6639 5.83443 16.6524 5.8735 16.6655 5.9169C16.6737 5.94377 16.6914 5.9723 16.7221 5.99206C16.7506 6.01044 16.7796 6.01421 16.7991 6.01421V5.88921V5.76421C16.8107 5.76421 16.8335 5.76642 16.8574 5.78186C16.8836 5.79868 16.8983 5.82289 16.9048 5.84428C16.9105 5.86305 16.9095 5.87787 16.9089 5.88352C16.9085 5.88695 16.9081 5.88949 16.9077 5.89095C16.9074 5.89244 16.9072 5.89332 16.9071 5.89349C16.907 5.89369 16.9074 5.8925 16.9086 5.88957C16.9097 5.88675 16.9113 5.88312 16.9134 5.87856C16.9178 5.86912 16.9232 5.85859 16.9297 5.84568L16.8183 5.78907ZM16.7991 5.70255L16.852 5.81578C16.8586 5.81272 16.8599 5.81262 16.8574 5.8133C16.8565 5.81354 16.8419 5.81774 16.8206 5.81413C16.7938 5.80959 16.761 5.79287 16.7412 5.75794C16.7251 5.72957 16.7266 5.70425 16.7271 5.69727C16.7283 5.68405 16.7318 5.67986 16.7259 5.69345C16.7214 5.70361 16.7152 5.7159 16.7068 5.73246L16.8183 5.78907L16.9297 5.84568C16.9373 5.83082 16.947 5.81174 16.9549 5.79373C16.9613 5.77916 16.9736 5.75 16.9763 5.71817C16.9776 5.70188 16.978 5.66884 16.9587 5.63474C16.9357 5.59406 16.8974 5.57358 16.8624 5.56765C16.8329 5.56265 16.8075 5.56785 16.7926 5.57184C16.7761 5.57627 16.7603 5.58269 16.7461 5.58932L16.7991 5.70255ZM16.2384 5.75906L16.2372 5.88405C16.32 5.88486 16.4323 5.886 16.5408 5.87891C16.6449 5.8721 16.7641 5.85689 16.852 5.81578L16.7991 5.70255L16.7461 5.58932C16.7042 5.6089 16.6266 5.62276 16.5245 5.62944C16.4268 5.63583 16.3237 5.63488 16.2396 5.63406L16.2384 5.75906ZM16.1726 5.75861V5.88361C16.1913 5.88361 16.2128 5.88382 16.2372 5.88405L16.2384 5.75906L16.2396 5.63406C16.2156 5.63383 16.1927 5.63361 16.1726 5.63361V5.75861ZM16.1779 5.64702L16.086 5.56226C16.0774 5.57154 16.0635 5.58657 16.0505 5.6029C16.0387 5.61761 16.0204 5.64224 16.0088 5.67174C15.9983 5.69849 15.9789 5.77067 16.0355 5.83169C16.0807 5.88028 16.1431 5.88361 16.1726 5.88361V5.75861V5.63361C16.1672 5.63361 16.1697 5.63301 16.1767 5.63495C16.1836 5.63688 16.2017 5.64319 16.2188 5.66161C16.2378 5.68205 16.2459 5.70693 16.2468 5.72828C16.2475 5.74672 16.243 5.75935 16.2415 5.76309C16.239 5.76957 16.238 5.76873 16.2459 5.75887C16.2524 5.75062 16.2604 5.74197 16.2698 5.73177L16.1779 5.64702ZM16.1726 5.63305L16.2319 5.74306C16.2412 5.73809 16.2396 5.73945 16.2333 5.7417C16.2311 5.74247 16.2262 5.74412 16.2196 5.74551C16.2144 5.7466 16.1996 5.74942 16.1806 5.74712C16.161 5.74475 16.1202 5.73434 16.0925 5.69292C16.0663 5.65375 16.0709 5.6148 16.074 5.59969C16.0773 5.58328 16.0832 5.57166 16.0854 5.56737C16.0883 5.56199 16.0909 5.55814 16.0921 5.55637C16.0945 5.55287 16.0962 5.55101 16.0955 5.55179C16.0943 5.55326 16.0918 5.55596 16.086 5.56226L16.1779 5.64702L16.2698 5.73177C16.2742 5.72695 16.2807 5.7199 16.2861 5.71362C16.2887 5.71052 16.2931 5.70527 16.2974 5.69898C16.2984 5.69755 16.3133 5.67767 16.319 5.64904C16.3222 5.63314 16.3268 5.59357 16.3003 5.55395C16.2723 5.51208 16.2309 5.50139 16.2106 5.49892C16.1777 5.49495 16.1513 5.50553 16.1499 5.50603C16.1359 5.51097 16.1221 5.51825 16.1132 5.52304L16.1726 5.63305ZM15.8619 5.70255V5.82755C15.9868 5.82755 16.1082 5.80981 16.2319 5.74306L16.1726 5.63305L16.1132 5.52304C16.0377 5.56379 15.9611 5.57755 15.8619 5.57755V5.70255ZM15.7811 5.64963L15.6726 5.71166C15.6784 5.72178 15.6965 5.75622 15.7291 5.78306C15.7676 5.81468 15.8137 5.82755 15.8619 5.82755V5.70255V5.57755C15.8596 5.57755 15.8625 5.57726 15.8685 5.57918C15.875 5.58128 15.8818 5.58495 15.8878 5.58986C15.8905 5.5921 15.8926 5.59416 15.8939 5.59567C15.8946 5.59642 15.895 5.59702 15.8953 5.59742C15.8955 5.59762 15.8956 5.59778 15.8957 5.59788C15.8958 5.59799 15.8958 5.59804 15.8958 5.59804C15.8958 5.59804 15.8958 5.59799 15.8957 5.59789C15.8956 5.59778 15.8955 5.59762 15.8954 5.5974C15.8951 5.59696 15.8947 5.59633 15.8942 5.59545C15.893 5.59349 15.8917 5.59127 15.8896 5.5876L15.7811 5.64963ZM15.6496 5.57931L15.6504 5.7043C15.6648 5.70421 15.672 5.70567 15.6743 5.70626C15.6761 5.70672 15.6739 5.70638 15.6703 5.70383C15.6668 5.70133 15.6649 5.69895 15.665 5.69904C15.6652 5.69927 15.6658 5.70017 15.6671 5.70229C15.6685 5.7046 15.67 5.70718 15.6726 5.71166L15.7811 5.64963L15.8896 5.58761C15.881 5.57253 15.8589 5.53088 15.8142 5.49939C15.7674 5.46645 15.7112 5.4539 15.6488 5.45431L15.6496 5.57931ZM15.3555 5.5175L15.2862 5.62157C15.3388 5.65657 15.3868 5.68192 15.4509 5.69431C15.507 5.70515 15.5715 5.70482 15.6504 5.7043L15.6496 5.57931L15.6488 5.45431C15.5619 5.45488 15.525 5.454 15.4983 5.44885C15.4797 5.44524 15.4634 5.43915 15.4247 5.41344L15.3555 5.5175ZM15.3498 5.45677L15.2783 5.35422C15.2757 5.35606 15.2632 5.36448 15.2512 5.37596C15.2395 5.38711 15.218 5.41064 15.2083 5.44729C15.1833 5.54177 15.2551 5.60085 15.2862 5.62157L15.3555 5.5175L15.4247 5.41344C15.4203 5.41047 15.4293 5.41524 15.4386 5.43024C15.4505 5.44933 15.4586 5.47883 15.45 5.5112C15.4429 5.53794 15.4279 5.55287 15.4241 5.55658C15.4198 5.56062 15.4163 5.56276 15.4213 5.55932L15.3498 5.45677ZM15.2953 5.44414V5.56914C15.3131 5.56914 15.3242 5.56933 15.3309 5.56963C15.3424 5.57014 15.3326 5.57071 15.3181 5.56625C15.3132 5.56473 15.3034 5.56134 15.2921 5.55447C15.281 5.54777 15.2619 5.53371 15.248 5.50821C15.2128 5.44348 15.248 5.38836 15.257 5.37615C15.263 5.36807 15.2687 5.36263 15.2715 5.36007C15.2745 5.35724 15.277 5.35532 15.278 5.35452C15.2797 5.35326 15.2808 5.35247 15.2783 5.35422L15.3498 5.45677L15.4213 5.55932C15.4222 5.55865 15.4266 5.55564 15.4309 5.55236C15.4333 5.55047 15.4462 5.5408 15.4577 5.52525C15.468 5.51139 15.5036 5.45482 15.4677 5.3888C15.4417 5.34113 15.3963 5.32874 15.3919 5.32738C15.3711 5.32097 15.3496 5.32021 15.3419 5.31987C15.3295 5.31932 15.3138 5.31914 15.2953 5.31914V5.44414ZM14.8458 5.44414V5.56914H15.2953V5.44414V5.31914H14.8458V5.44414ZM14.9272 5.297V5.172C14.8785 5.172 14.8287 5.19115 14.7951 5.20717C14.7583 5.22471 14.7173 5.25002 14.6856 5.28047C14.6705 5.29503 14.6498 5.31801 14.6367 5.3489C14.6223 5.3831 14.6139 5.43814 14.6486 5.49036C14.678 5.53466 14.7227 5.55149 14.7496 5.55862C14.7793 5.56655 14.8124 5.56914 14.8458 5.56914V5.44414V5.31914C14.8351 5.31914 14.8271 5.3187 14.8215 5.31813C14.8157 5.31754 14.8135 5.31694 14.8138 5.31702C14.8139 5.31704 14.8189 5.31833 14.8264 5.3227C14.834 5.32717 14.8463 5.33613 14.8568 5.35194C14.8679 5.3687 14.8737 5.38808 14.8741 5.40716C14.8745 5.42499 14.8702 5.43854 14.867 5.44627C14.8612 5.45992 14.8549 5.4645 14.8589 5.46067C14.8655 5.45433 14.8817 5.44286 14.9028 5.4328C14.9125 5.42815 14.921 5.42492 14.9272 5.42306C14.9346 5.42084 14.934 5.422 14.9272 5.422V5.297ZM14.9272 5.22403L14.9675 5.34234C14.9848 5.33645 14.9947 5.33436 14.9989 5.33375C15.0048 5.33286 14.9953 5.33545 14.9784 5.33072C14.9578 5.32496 14.9214 5.30559 14.9064 5.2603C14.894 5.22272 14.9057 5.19381 14.9091 5.18639C14.9163 5.17054 14.9227 5.16907 14.9169 5.17291C14.9125 5.17579 14.9153 5.172 14.9272 5.172V5.297V5.422C14.9794 5.422 15.0242 5.40166 15.0546 5.38156C15.0836 5.36243 15.1176 5.33157 15.1366 5.29004C15.1458 5.26979 15.1594 5.22898 15.1437 5.18168C15.1255 5.12668 15.0808 5.0998 15.0458 5.08998C15.0144 5.08119 14.9842 5.08319 14.9622 5.08645C14.9384 5.08997 14.9131 5.09675 14.8868 5.10573L14.9272 5.22403ZM14.5551 5.23883L14.544 5.36333C14.6787 5.37536 14.8262 5.39055 14.9675 5.34234L14.9272 5.22403L14.8868 5.10573C14.805 5.13364 14.7138 5.1275 14.5663 5.11432L14.5551 5.23883ZM14.2939 5.22403V5.34903C14.3832 5.34903 14.4643 5.35621 14.544 5.36333L14.5551 5.23883L14.5663 5.11432C14.4873 5.10727 14.3958 5.09903 14.2939 5.09903V5.22403ZM14.1344 5.12047V4.99547C14.0898 4.99547 14.0286 5.00131 13.9815 5.03605C13.9538 5.05652 13.921 5.09563 13.9208 5.15289C13.9207 5.20559 13.9487 5.24232 13.968 5.26133C14.0054 5.29817 14.0584 5.31784 14.1051 5.32927C14.1566 5.34187 14.2199 5.34903 14.2939 5.34903V5.22403V5.09903C14.2351 5.09903 14.1924 5.09325 14.1646 5.08644C14.1319 5.07844 14.1322 5.07223 14.1434 5.08317C14.1495 5.08923 14.1709 5.11302 14.1708 5.15358C14.1707 5.19871 14.1445 5.22649 14.1299 5.23725C14.1169 5.24683 14.1079 5.24792 14.1117 5.2471C14.114 5.2466 14.1212 5.24547 14.1344 5.24547V5.12047ZM14.0566 5.0446V5.1696C14.1123 5.1696 14.1473 5.17403 14.1659 5.17829C14.1755 5.18048 14.1765 5.1817 14.1726 5.1797C14.1725 5.17963 14.1473 5.16776 14.1321 5.134C14.1232 5.11431 14.1193 5.09012 14.1243 5.06491C14.1292 5.04098 14.1405 5.02396 14.1495 5.01378C14.1582 5.00384 14.1666 4.99825 14.1709 4.99566C14.1755 4.9929 14.1786 4.9917 14.1793 4.99144C14.1796 4.99134 14.1661 4.99547 14.1344 4.99547V5.12047V5.24547C14.1813 5.24547 14.2279 5.24011 14.2664 5.22579C14.2841 5.2192 14.3132 5.20604 14.337 5.17914C14.3499 5.16452 14.3636 5.14291 14.3694 5.1143C14.3754 5.08444 14.3709 5.0555 14.3599 5.03107C14.3404 4.98782 14.3046 4.96647 14.2873 4.95752C14.2661 4.94662 14.2433 4.93954 14.2218 4.93462C14.1784 4.92466 14.123 4.9196 14.0566 4.9196V5.0446ZM13.6837 4.98337L13.6501 5.10379C13.7442 5.13 13.8848 5.1696 14.0566 5.1696V5.0446V4.9196C13.9222 4.9196 13.8108 4.88903 13.7172 4.86296L13.6837 4.98337ZM13.5514 4.95546V5.08046C13.5514 5.08046 13.5514 5.08046 13.5515 5.08046C13.5516 5.08046 13.5518 5.08047 13.5519 5.08048C13.5523 5.08049 13.5528 5.08053 13.5536 5.08059C13.555 5.08071 13.557 5.08093 13.5596 5.08131C13.5649 5.0821 13.5719 5.08341 13.5809 5.08546C13.5995 5.0897 13.6214 5.09579 13.6501 5.10379L13.6837 4.98337L13.7172 4.86296C13.6695 4.84965 13.6049 4.83046 13.5514 4.83046V4.95546ZM13.5514 4.85335V4.72835C13.5012 4.72835 13.4432 4.73433 13.3968 4.76366C13.3706 4.78026 13.3426 4.8081 13.3301 4.84997C13.3177 4.89165 13.3259 4.92956 13.3381 4.95628C13.3601 5.00443 13.4013 5.03404 13.4313 5.04993C13.4646 5.06762 13.5065 5.08046 13.5514 5.08046V4.95546V4.83046C13.5532 4.83046 13.5512 4.83053 13.5484 4.82908C13.5423 4.82583 13.5553 4.8299 13.5656 4.85253C13.5719 4.86648 13.5785 4.89162 13.5697 4.92135C13.5608 4.95124 13.5416 4.96792 13.5305 4.97494C13.5204 4.98128 13.5148 4.98148 13.5201 4.98046C13.5246 4.97959 13.5344 4.97835 13.5514 4.97835V4.85335ZM13.7645 4.76823V4.89323C13.7746 4.89323 13.7822 4.89351 13.7878 4.89389C13.7936 4.89429 13.7958 4.89472 13.7955 4.89466C13.7952 4.89461 13.7936 4.8943 13.7911 4.89353C13.7886 4.8928 13.784 4.89127 13.7782 4.88843C13.7701 4.88448 13.7394 4.86829 13.7233 4.82842C13.7041 4.78093 13.7204 4.7398 13.7331 4.72021C13.7441 4.70314 13.7562 4.69464 13.7583 4.69313C13.764 4.68916 13.7644 4.69008 13.7539 4.69411C13.7133 4.70972 13.6262 4.72835 13.5514 4.72835V4.85335V4.97835C13.6559 4.97835 13.7734 4.95442 13.8436 4.92748C13.8608 4.92087 13.8831 4.91114 13.9028 4.8972C13.9119 4.89071 13.9292 4.87738 13.9431 4.85574C13.9587 4.83157 13.9759 4.78613 13.955 4.73464C13.9373 4.69079 13.9026 4.67094 13.8878 4.66375C13.8706 4.65534 13.854 4.65132 13.8425 4.64913C13.819 4.64461 13.792 4.64323 13.7645 4.64323V4.76823ZM13.3079 4.67516L13.2754 4.79586C13.3553 4.81736 13.4444 4.84139 13.5278 4.85995C13.6091 4.87806 13.6944 4.89323 13.7645 4.89323V4.76823V4.64323C13.7237 4.64323 13.6611 4.63352 13.5821 4.61593C13.5051 4.59877 13.4214 4.57626 13.3404 4.55446L13.3079 4.67516ZM13.0239 4.61231V4.73731C13.0327 4.73731 13.0593 4.74107 13.1099 4.75292C13.1567 4.76391 13.2129 4.77902 13.2754 4.79586L13.3079 4.67516L13.3404 4.55446C13.2791 4.53795 13.2186 4.52164 13.167 4.50953C13.1191 4.4983 13.0656 4.48731 13.0239 4.48731V4.61231ZM13.1267 4.58665L13.1044 4.46365C13.0654 4.47072 13.0267 4.4777 13.003 4.483C12.997 4.48435 12.9898 4.48606 12.9829 4.48808C12.9796 4.48905 12.9743 4.49067 12.9684 4.49299C12.9664 4.49378 12.9489 4.50022 12.9316 4.51474C12.9243 4.52089 12.8981 4.54386 12.8894 4.5854C12.878 4.64031 12.9047 4.6828 12.9283 4.70405C12.9472 4.7211 12.9664 4.72787 12.9727 4.72997C12.9812 4.73285 12.9884 4.73427 12.9924 4.73496C13.006 4.73733 13.019 4.73731 13.0239 4.73731V4.61231V4.48731C13.019 4.48731 13.0254 4.48694 13.0352 4.48865C13.0383 4.48918 13.0447 4.49041 13.0526 4.49308C13.0582 4.49499 13.077 4.50153 13.0957 4.51834C13.119 4.53935 13.1456 4.58158 13.1342 4.63621C13.1257 4.67746 13.0996 4.70014 13.0927 4.70598C13.0762 4.71987 13.06 4.7256 13.06 4.72562C13.056 4.72718 13.0533 4.72796 13.0531 4.72803C13.0523 4.72824 13.0535 4.72789 13.0577 4.72695C13.0749 4.72308 13.1071 4.71724 13.149 4.70965L13.1267 4.58665ZM13.2216 4.51366V4.63866C13.2589 4.63866 13.2863 4.63933 13.3057 4.6404C13.3273 4.64161 13.3323 4.64302 13.329 4.64219C13.3275 4.64181 13.3233 4.64071 13.3177 4.63839C13.3128 4.6364 13.3013 4.63129 13.2888 4.62085C13.2761 4.61031 13.2548 4.58784 13.2475 4.55126C13.2398 4.51263 13.2521 4.48092 13.2639 4.46219C13.2747 4.44523 13.2869 4.4354 13.2922 4.43143C13.2983 4.42681 13.3033 4.42409 13.3055 4.42294C13.3099 4.4207 13.3119 4.4202 13.3093 4.4211C13.2973 4.42525 13.2695 4.43202 13.2281 4.4404C13.1891 4.44831 13.145 4.45629 13.1044 4.46365L13.1267 4.58665L13.149 4.70965C13.2233 4.69619 13.3374 4.67597 13.3912 4.65729C13.3991 4.65454 13.4098 4.6505 13.4206 4.64487C13.4257 4.64226 13.4549 4.6279 13.4752 4.5959C13.488 4.57563 13.5006 4.54242 13.4926 4.50235C13.4851 4.46432 13.4628 4.44045 13.4485 4.42855C13.4238 4.40804 13.397 4.40149 13.3899 4.39971C13.3538 4.39065 13.2944 4.38866 13.2216 4.38866V4.51366ZM12.3094 4.13104L12.2408 4.23554C12.3591 4.31316 12.5114 4.41327 12.6769 4.49346C12.8417 4.57328 13.0299 4.63866 13.2216 4.63866V4.51366V4.38866C13.0841 4.38866 12.9354 4.34088 12.7859 4.26847C12.6372 4.19642 12.4979 4.10522 12.378 4.02653L12.3094 4.13104ZM12.0803 3.9951L12.0353 4.11174C12.0729 4.1262 12.1378 4.16795 12.2408 4.23554L12.3094 4.13104L12.378 4.02653C12.2876 3.9672 12.1943 3.9051 12.1252 3.87846L12.0803 3.9951ZM12.1335 3.84171L12.2258 3.75748C12.1667 3.69269 12.0863 3.69867 12.0433 3.71061C11.9967 3.72353 11.952 3.75225 11.9205 3.79118C11.8886 3.83062 11.8583 3.89783 11.8852 3.97434C11.9106 4.04667 11.9741 4.08814 12.0353 4.11174L12.0803 3.9951L12.1252 3.87846C12.0941 3.86647 12.1113 3.86368 12.1211 3.89145C12.1323 3.92341 12.117 3.94579 12.1148 3.94848C12.113 3.95067 12.1129 3.95074 12.1102 3.9515C12.1082 3.95206 12.1003 3.95398 12.0881 3.95199C12.0747 3.94978 12.0563 3.9426 12.0411 3.92594L12.1335 3.84171ZM12.3979 3.91158L12.3434 4.02407C12.3653 4.03472 12.3598 4.03436 12.3488 4.02386C12.3452 4.02044 12.3346 4.01003 12.326 3.99277C12.3168 3.97445 12.3045 3.93659 12.3218 3.89292C12.3382 3.85175 12.3701 3.83355 12.3844 3.82709C12.3993 3.82027 12.4118 3.81845 12.4163 3.81787C12.4301 3.8161 12.4353 3.8185 12.4196 3.8159C12.4091 3.81416 12.3943 3.81105 12.3765 3.8066C12.3409 3.79767 12.2993 3.78491 12.2649 3.77162C12.2477 3.76496 12.2342 3.75893 12.225 3.75408C12.2128 3.74764 12.2172 3.74806 12.2258 3.75748L12.1335 3.84171L12.0411 3.92594C12.063 3.94995 12.0908 3.96593 12.1085 3.97526C12.1292 3.98619 12.1523 3.99613 12.1749 4.00486C12.2203 4.02237 12.2718 4.03808 12.3158 4.04911C12.3378 4.05463 12.3595 4.05936 12.3788 4.06255C12.3929 4.06488 12.4211 4.06929 12.448 4.06585C12.4558 4.06486 12.4709 4.06238 12.4878 4.05468C12.504 4.04732 12.5372 4.02799 12.5541 3.98543C12.5721 3.94037 12.5596 3.90087 12.5494 3.88064C12.5398 3.86146 12.5275 3.84887 12.5213 3.84299C12.5 3.82266 12.4708 3.808 12.4524 3.79909L12.3979 3.91158ZM12.0803 3.62826L11.9797 3.70252C12.0345 3.77667 12.1527 3.93168 12.3434 4.02407L12.3979 3.91158L12.4524 3.79909C12.3203 3.7351 12.2325 3.62395 12.1808 3.554L12.0803 3.62826ZM12.1335 3.56317L12.2153 3.4687C12.1889 3.44583 12.1541 3.42374 12.1121 3.41623C12.0671 3.40819 12.0072 3.41759 11.9657 3.46817C11.9282 3.51394 11.9274 3.56763 11.9341 3.60285C11.9411 3.63996 11.9585 3.67374 11.9797 3.70252L12.0803 3.62826L12.1808 3.554C12.1755 3.54676 12.178 3.54731 12.1798 3.55659C12.1812 3.56398 12.1848 3.59527 12.159 3.62669C12.1293 3.66291 12.0886 3.666 12.0681 3.66233C12.0505 3.65919 12.0453 3.65214 12.0516 3.65763L12.1335 3.56317ZM12.501 3.78336C12.5605 3.67343 12.5605 3.67343 12.5605 3.67343C12.5605 3.67343 12.5605 3.67343 12.5605 3.67343C12.5605 3.67343 12.5605 3.67342 12.5605 3.67341C12.5604 3.6734 12.5604 3.67337 12.5603 3.67334C12.5602 3.67327 12.56 3.67316 12.5597 3.67301C12.5592 3.67272 12.5584 3.67227 12.5573 3.67169C12.5551 3.67051 12.5519 3.66877 12.5478 3.66652C12.5396 3.66203 12.5277 3.65552 12.5132 3.64752C12.4842 3.63151 12.445 3.60964 12.4039 3.58608C12.3627 3.56243 12.3202 3.5375 12.2845 3.51531C12.2461 3.49151 12.2231 3.47547 12.2153 3.4687L12.1335 3.56317L12.0516 3.65763C12.0765 3.67922 12.1158 3.70489 12.1526 3.72769C12.1919 3.7521 12.2372 3.77868 12.2796 3.80299C12.3222 3.82739 12.3626 3.84993 12.3923 3.86634C12.4072 3.87456 12.4194 3.88127 12.428 3.88593C12.4322 3.88827 12.4356 3.89009 12.4379 3.89134C12.439 3.89196 12.4399 3.89244 12.4405 3.89277C12.4408 3.89294 12.4411 3.89306 12.4412 3.89315C12.4413 3.89319 12.4414 3.89323 12.4414 3.89325C12.4414 3.89327 12.4415 3.89327 12.4415 3.89328C12.4415 3.89329 12.4415 3.89329 12.4415 3.89329C12.4415 3.89329 12.4415 3.8933 12.501 3.78336ZM12.2111 3.38526L12.1005 3.44362C12.1695 3.57425 12.2471 3.6807 12.3073 3.75448C12.3375 3.79148 12.3636 3.82059 12.3825 3.84073C12.3919 3.85081 12.3995 3.85867 12.405 3.86418C12.4077 3.86693 12.4099 3.8691 12.4115 3.87067C12.4123 3.87145 12.4129 3.87209 12.4134 3.87257C12.4137 3.87281 12.4139 3.87301 12.414 3.87317C12.4141 3.87325 12.4142 3.87333 12.4143 3.87339C12.4143 3.87342 12.4143 3.87345 12.4144 3.87348C12.4144 3.87349 12.4144 3.87351 12.4144 3.87352C12.4144 3.87353 12.4144 3.87355 12.501 3.78336C12.5875 3.69318 12.5876 3.69319 12.5876 3.69321C12.5876 3.69321 12.5876 3.69323 12.5876 3.69323C12.5876 3.69325 12.5876 3.69327 12.5876 3.69328C12.5877 3.6933 12.5877 3.69332 12.5877 3.69333C12.5877 3.69334 12.5877 3.69331 12.5876 3.69325C12.5875 3.69313 12.5872 3.69287 12.5868 3.69245C12.586 3.69163 12.5846 3.69023 12.5826 3.68827C12.5787 3.68435 12.5727 3.67819 12.565 3.66993C12.5495 3.6534 12.5272 3.62854 12.501 3.5964C12.4483 3.53187 12.3809 3.43927 12.3216 3.3269L12.2111 3.38526ZM12.5593 3.38526L12.6394 3.28935C12.5782 3.23812 12.5134 3.19479 12.4518 3.16268C12.3923 3.13167 12.3273 3.10671 12.2668 3.10079C12.2365 3.09783 12.1978 3.09866 12.1596 3.1143C12.1171 3.13167 12.0809 3.16537 12.0631 3.21383C12.0471 3.25752 12.0504 3.30106 12.0583 3.33563C12.0663 3.37113 12.0814 3.4074 12.1005 3.44362L12.2111 3.38526L12.3216 3.3269C12.3087 3.30236 12.3037 3.28733 12.3021 3.28026C12.3003 3.27228 12.3044 3.28201 12.2978 3.29995C12.2894 3.32266 12.2714 3.33866 12.2542 3.3457C12.2412 3.35101 12.2349 3.34887 12.2424 3.3496C12.2575 3.35108 12.2899 3.3602 12.3363 3.38439C12.3806 3.40749 12.4304 3.44048 12.4791 3.48116L12.5593 3.38526ZM13.0888 3.62826L13.1015 3.50391C13.019 3.49549 12.8374 3.45483 12.6394 3.28935L12.5593 3.38526L12.4791 3.48116C12.7209 3.68331 12.9517 3.73992 13.0762 3.75262L13.0888 3.62826ZM12.7861 3.38526L12.7254 3.49455C12.8225 3.54847 12.9184 3.60862 12.9756 3.65186C12.9896 3.66249 12.9996 3.67086 13.0061 3.67685C13.0146 3.68475 13.0109 3.68303 13.0053 3.67332C13.0027 3.66891 12.9927 3.65126 12.9915 3.62463C12.9901 3.59044 13.0041 3.55328 13.0352 3.52814C13.0595 3.50849 13.0835 3.50513 13.0898 3.50438C13.0982 3.50337 13.1029 3.50405 13.1015 3.50391L13.0888 3.62826L13.0762 3.75262C13.0877 3.75379 13.103 3.75459 13.1196 3.7526C13.1341 3.75085 13.1641 3.7454 13.1923 3.72264C13.2273 3.69438 13.243 3.65309 13.2413 3.61384C13.2399 3.58215 13.2277 3.55851 13.2212 3.54728C13.2075 3.52393 13.1887 3.50522 13.176 3.4935C13.1614 3.47988 13.1443 3.46603 13.1265 3.45254C13.0561 3.39928 12.9489 3.33265 12.8467 3.27597L12.7861 3.38526ZM12.7861 3.03679L12.8756 2.94956C12.8478 2.92099 12.8112 2.89294 12.7654 2.88092C12.714 2.86744 12.6616 2.87722 12.6194 2.90798C12.5818 2.9354 12.5609 2.97301 12.5491 3.00373C12.5369 3.03566 12.5308 3.06986 12.5288 3.10267C12.5215 3.22277 12.568 3.40716 12.7254 3.49455L12.7861 3.38526L12.8467 3.27597C12.8271 3.26504 12.8088 3.24443 12.7954 3.21295C12.7818 3.18108 12.7767 3.14556 12.7784 3.11783C12.7792 3.10412 12.7815 3.09599 12.7826 3.09307C12.7842 3.08894 12.7815 3.09918 12.7667 3.10998C12.7473 3.12412 12.7222 3.12804 12.702 3.12274C12.6873 3.11889 12.6859 3.11306 12.6965 3.12401L12.7861 3.03679ZM13.6171 3.42911L13.6648 3.31357C13.4786 3.23666 13.293 3.16002 13.144 3.09246C13.0695 3.05866 13.0061 3.02799 12.9573 3.00143C12.9329 2.98816 12.9134 2.9766 12.8987 2.96682C12.8914 2.96196 12.8858 2.95792 12.8817 2.9547C12.8797 2.95312 12.8782 2.95186 12.8771 2.95093C12.876 2.94999 12.8756 2.94953 12.8756 2.94956L12.7861 3.03679L12.6965 3.12401C12.7311 3.15954 12.7853 3.19246 12.8378 3.22102C12.8943 3.25178 12.964 3.2853 13.0408 3.32014C13.1945 3.38984 13.3844 3.46824 13.5694 3.54464L13.6171 3.42911ZM14.3817 3.78336L14.463 3.68845C14.4297 3.65989 14.3815 3.6318 14.3317 3.60576C14.2795 3.57841 14.2161 3.54853 14.1464 3.51727C14.0068 3.45477 13.8355 3.38404 13.6648 3.31357L13.6171 3.42911L13.5694 3.54464C13.7412 3.61556 13.9087 3.68475 14.0442 3.74543C14.1119 3.77576 14.17 3.80328 14.2158 3.82724C14.264 3.85251 14.2903 3.86963 14.3004 3.87827L14.3817 3.78336ZM14.2801 3.51221L14.1743 3.57882C14.242 3.68635 14.2998 3.77849 14.3237 3.82819C14.3298 3.841 14.3297 3.84291 14.3285 3.83792C14.3282 3.83655 14.3244 3.82171 14.3275 3.80091C14.3312 3.77576 14.3486 3.72979 14.4007 3.7087C14.4406 3.69256 14.4734 3.70357 14.4788 3.70537C14.4882 3.70849 14.493 3.71176 14.4914 3.71081C14.489 3.70927 14.4802 3.70317 14.463 3.68845L14.3817 3.78336L14.3004 3.87827C14.3207 3.89574 14.3411 3.91182 14.3603 3.92362C14.3695 3.92933 14.3833 3.93707 14.3999 3.94259C14.4125 3.94678 14.4508 3.95814 14.4945 3.94043C14.5505 3.91777 14.5702 3.86832 14.5747 3.83793C14.5786 3.81189 14.5741 3.79004 14.5717 3.78006C14.5664 3.75784 14.5568 3.73606 14.549 3.71993C14.5173 3.65385 14.4491 3.54603 14.3859 3.4456L14.2801 3.51221ZM14.2007 3.38526L14.0943 3.45077C14.1201 3.49267 14.1476 3.53641 14.1743 3.57882L14.2801 3.51221L14.3859 3.4456C14.359 3.40297 14.3322 3.36034 14.3072 3.31974L14.2007 3.38526ZM14.8608 3.58712L14.913 3.47353C14.7165 3.3833 14.5238 3.29465 14.3913 3.24708C14.3577 3.235 14.3254 3.22466 14.2964 3.21752C14.2701 3.21102 14.2358 3.20438 14.2021 3.20685C14.185 3.20811 14.158 3.21234 14.1309 3.22867C14.0996 3.24745 14.075 3.27846 14.066 3.31796C14.0581 3.3525 14.0646 3.38241 14.0705 3.40077C14.0768 3.42004 14.0858 3.43702 14.0943 3.45077L14.2007 3.38526L14.3072 3.31974C14.3048 3.31583 14.3064 3.31751 14.3084 3.3237C14.3101 3.32898 14.3156 3.34803 14.3097 3.3738C14.3026 3.40452 14.2831 3.42885 14.2597 3.44289C14.2405 3.45447 14.2242 3.45591 14.2204 3.45618C14.2136 3.45669 14.2166 3.45533 14.2367 3.46027C14.2541 3.46456 14.2774 3.47181 14.3068 3.48238C14.4267 3.5254 14.6075 3.60832 14.8086 3.70071L14.8608 3.58712ZM15.6496 3.91158L15.6812 3.79065C15.5034 3.74416 15.2046 3.60746 14.913 3.47353L14.8608 3.58712L14.8086 3.70071C15.0897 3.8298 15.4134 3.97904 15.618 4.03252L15.6496 3.91158ZM16.0958 4.05623L16.1371 3.93827C15.9815 3.88371 15.8189 3.82664 15.6812 3.79065L15.6496 3.91158L15.618 4.03252C15.7437 4.06539 15.8957 4.11858 16.0544 4.1742L16.0958 4.05623ZM16.8706 4.15155H16.7456C16.7456 4.14959 16.7468 4.13539 16.7594 4.12108C16.7705 4.10845 16.7805 4.10727 16.7755 4.10844C16.7609 4.11186 16.723 4.11227 16.653 4.09836C16.5184 4.07161 16.3344 4.0074 16.1371 3.93827L16.0958 4.05623L16.0544 4.1742C16.245 4.24099 16.4483 4.31257 16.6042 4.34356C16.6795 4.35851 16.7625 4.36828 16.8326 4.35182C16.87 4.34304 16.9133 4.3246 16.9471 4.28619C16.9823 4.24609 16.9956 4.19758 16.9956 4.15155H16.8706ZM17.6057 3.38526L17.5649 3.26708C17.3523 3.34033 17.1521 3.48274 17.0046 3.63884C16.9305 3.71733 16.8672 3.80195 16.8218 3.88676C16.7771 3.97021 16.7456 4.06164 16.7456 4.15155H16.8706H16.9956C16.9956 4.11762 17.0085 4.06772 17.0422 4.00476C17.0752 3.94315 17.1243 3.87624 17.1864 3.8105C17.3114 3.67814 17.4786 3.56124 17.6464 3.50344L17.6057 3.38526ZM18.1038 3.47193L18.1728 3.36767C18.1044 3.32246 18.0233 3.26744 17.9236 3.24106C17.8182 3.21318 17.7037 3.21926 17.5649 3.26708L17.6057 3.38526L17.6464 3.50344C17.749 3.46808 17.8121 3.47016 17.8596 3.48275C17.9129 3.49683 17.9601 3.52674 18.0348 3.57618L18.1038 3.47193ZM18.4102 3.62826L18.4472 3.50887C18.3339 3.47374 18.2548 3.42193 18.1728 3.36767L18.1038 3.47193L18.0348 3.57618C18.1176 3.63091 18.2227 3.70098 18.3731 3.74765L18.4102 3.62826ZM18.0631 5.78223C17.9382 5.78613 17.9382 5.78612 17.9382 5.78612C17.9382 5.78612 17.9382 5.78613 17.9382 5.78613C17.9382 5.78615 17.9382 5.78617 17.9382 5.78621C17.9382 5.78628 17.9382 5.7864 17.9382 5.78656C17.9382 5.78688 17.9382 5.78738 17.9383 5.78806C17.9383 5.7894 17.9384 5.79143 17.9384 5.7941C17.9386 5.79945 17.9388 5.80735 17.939 5.81745C17.9395 5.83765 17.9401 5.86659 17.9405 5.90135C17.9413 5.97101 17.9416 6.06338 17.9392 6.1553C17.9368 6.24828 17.9318 6.33661 17.9229 6.39992C17.9184 6.43272 17.9137 6.45151 17.9108 6.45932C17.9092 6.46378 17.9109 6.45695 17.9192 6.44687C17.928 6.43619 17.9551 6.40983 18.0008 6.40983V6.53483V6.65983C18.0572 6.65983 18.0942 6.62759 18.1121 6.60588C18.1295 6.58478 18.1395 6.56178 18.1454 6.54566C18.1577 6.51231 18.1653 6.4723 18.1705 6.43455C18.1814 6.35675 18.1867 6.25692 18.1891 6.16175C18.1916 6.06553 18.1913 5.96974 18.1905 5.8983C18.19 5.8625 18.1894 5.83264 18.1889 5.81168C18.1887 5.8012 18.1885 5.79293 18.1883 5.78725C18.1883 5.78441 18.1882 5.78222 18.1881 5.78072C18.1881 5.77996 18.1881 5.77939 18.1881 5.77899C18.1881 5.77879 18.1881 5.77863 18.1881 5.77852C18.1881 5.77847 18.1881 5.77842 18.1881 5.77839C18.1881 5.77837 18.1881 5.77836 18.1881 5.77835C18.1881 5.77834 18.1881 5.77833 18.0631 5.78223ZM18.3165 6.44344H18.4415C18.4415 6.37247 18.4202 6.29033 18.3955 6.21639C18.3699 6.13945 18.3364 6.05876 18.3038 5.98652C18.271 5.91395 18.2384 5.8481 18.214 5.80048C18.2018 5.77662 18.1916 5.75721 18.1844 5.74369C18.1807 5.73692 18.1779 5.73162 18.1759 5.72796C18.1749 5.72613 18.1741 5.72471 18.1736 5.72372C18.1733 5.72322 18.1731 5.72284 18.173 5.72256C18.1729 5.72242 18.1728 5.72231 18.1728 5.72223C18.1728 5.72219 18.1728 5.72215 18.1727 5.72213C18.1727 5.72211 18.1727 5.7221 18.1727 5.72209C18.1727 5.72208 18.1727 5.72207 18.0631 5.78223C17.9536 5.84239 17.9536 5.84238 17.9536 5.84237C17.9536 5.84237 17.9536 5.84237 17.9536 5.84237C17.9536 5.84237 17.9536 5.84238 17.9536 5.84239C17.9536 5.84242 17.9536 5.84248 17.9537 5.84256C17.9538 5.84273 17.9539 5.84301 17.9541 5.8434C17.9545 5.84417 17.9552 5.84536 17.9561 5.84696C17.9578 5.85016 17.9604 5.85496 17.9637 5.86121C17.9704 5.8737 17.9799 5.89191 17.9915 5.91444C18.0146 5.95959 18.0453 6.0216 18.0759 6.08937C18.1066 6.15747 18.1365 6.22961 18.1583 6.29537C18.1812 6.36413 18.1915 6.41456 18.1915 6.44344H18.3165ZM18.3113 6.58762L18.4358 6.57656C18.4359 6.57798 18.4357 6.5777 18.4359 6.57312C18.4362 6.56752 18.4367 6.56164 18.4377 6.54916C18.4394 6.5256 18.4415 6.49285 18.4415 6.44344H18.3165H18.1915C18.1915 6.4849 18.1898 6.51113 18.1884 6.53039C18.1872 6.54576 18.1844 6.57257 18.1867 6.59868L18.3113 6.58762ZM18.3925 6.78607L18.5066 6.73488C18.4744 6.6632 18.4566 6.62556 18.4447 6.59787C18.4332 6.57101 18.4353 6.57114 18.4358 6.57656L18.3113 6.58762L18.1867 6.59868C18.19 6.6355 18.202 6.66639 18.2151 6.69667C18.2277 6.72613 18.2492 6.77201 18.2785 6.83726L18.3925 6.78607ZM18.3007 6.8691L18.258 6.98656C18.2841 6.99608 18.3139 7.00704 18.3392 7.01381C18.3521 7.01727 18.3692 7.02114 18.3878 7.02235C18.4049 7.02345 18.4364 7.02331 18.4692 7.00656C18.5083 6.98662 18.5322 6.95212 18.5417 6.91602C18.5496 6.88567 18.5465 6.85827 18.5435 6.84149C18.5374 6.8077 18.5226 6.77052 18.5066 6.73488L18.3925 6.78607L18.2785 6.83726C18.2855 6.85292 18.2904 6.86482 18.2936 6.87371C18.297 6.88305 18.2976 6.88643 18.2974 6.88563C18.2973 6.88502 18.2968 6.88191 18.2967 6.87693C18.2966 6.87204 18.297 6.86345 18.2998 6.85271C18.3027 6.84159 18.3083 6.82794 18.3187 6.81453C18.3293 6.80085 18.3422 6.79069 18.3556 6.78386C18.3801 6.77136 18.4006 6.77265 18.404 6.77287C18.4088 6.77318 18.4096 6.77386 18.4038 6.77229C18.3915 6.76902 18.3738 6.76267 18.3435 6.75164L18.3007 6.8691ZM17.9061 6.78607V6.91107C18.0486 6.91107 18.1674 6.95358 18.258 6.98656L18.3007 6.8691L18.3435 6.75164C18.2523 6.71846 18.0968 6.66107 17.9061 6.66107V6.78607ZM18.0008 6.53483V6.40983C17.9663 6.40983 17.9332 6.42078 17.9121 6.42888C17.8873 6.43837 17.8612 6.45098 17.8362 6.465C17.7874 6.49226 17.7318 6.53084 17.6905 6.57436C17.6703 6.59554 17.6466 6.6251 17.6325 6.66159C17.6174 6.70094 17.6102 6.75956 17.6464 6.81504C17.6783 6.86409 17.7286 6.88553 17.7664 6.89585C17.8065 6.90683 17.8538 6.91107 17.9061 6.91107V6.78607V6.66107C17.8649 6.66107 17.8424 6.65746 17.8323 6.6547C17.8198 6.65128 17.8393 6.65309 17.8559 6.67858C17.8649 6.69245 17.8695 6.70827 17.8701 6.72333C17.8706 6.73729 17.8675 6.74718 17.8658 6.75156C17.8631 6.75861 17.862 6.75676 17.8717 6.74654C17.89 6.72725 17.9228 6.70301 17.9582 6.68317C17.9753 6.67363 17.9903 6.66662 18.0014 6.66236C18.007 6.66024 18.0103 6.65929 18.0115 6.65898C18.0135 6.65848 18.0093 6.65983 18.0008 6.65983V6.53483Z" fill="#262626"/>
</g>
</g>
</svg>
