<svg width="24" height="18" viewBox="0 0 24 18" fill="none" xmlns="http://www.w3.org/2000/svg">
<mask id="mask0_395_55972" style="mask-type:luminance" maskUnits="userSpaceOnUse" x="0" y="0" width="24" height="18">
<rect width="24" height="18" fill="white"/>
</mask>
<g mask="url(#mask0_395_55972)">
<path fill-rule="evenodd" clip-rule="evenodd" d="M0 0V18H24V0H0Z" fill="#F7FCFF"/>
<mask id="mask1_395_55972" style="mask-type:luminance" maskUnits="userSpaceOnUse" x="0" y="0" width="24" height="18">
<path fill-rule="evenodd" clip-rule="evenodd" d="M0 0V18H24V0H0Z" fill="white"/>
</mask>
<g mask="url(#mask1_395_55972)">
<path fill-rule="evenodd" clip-rule="evenodd" d="M0 1.5V16.5H24V1.5H0Z" fill="#FFCC00"/>
<path d="M25.75 5.75V12.25H-1.75V5.75H25.75Z" fill="#272727" stroke="#E31C1C" stroke-width="3.5"/>
<path fill-rule="evenodd" clip-rule="evenodd" d="M24 15V18H0V15H24ZM24 0V3H0V0H24Z" fill="#5DA923"/>
</g>
<path d="M0.59668 -0.802734L12.8457 8.31152L13.9375 9.12402L12.8359 9.92383L0.586914 18.8096L-1 19.9609V-1.99023L0.59668 -0.802734Z" fill="#F7FCFF" stroke="#272727" stroke-width="2"/>
<mask id="mask2_395_55972" style="mask-type:luminance" maskUnits="userSpaceOnUse" x="0" y="0" width="13" height="18">
<path fill-rule="evenodd" clip-rule="evenodd" d="M0 0V18L12.2485 9.11397L0 0Z" fill="white"/>
</mask>
<g mask="url(#mask2_395_55972)">
<path fill-rule="evenodd" clip-rule="evenodd" d="M5.6088 10.7083L2.7746 12.9961L4.07463 9.93866L1.84082 7.78749H4.47753L5.55946 5.19336L6.7086 7.78749H9.34082L6.98901 9.93866L8.16602 12.9961L5.6088 10.7083Z" fill="#E31C1C"/>
<path fill-rule="evenodd" clip-rule="evenodd" d="M3.76316 6.3157C3.76316 6.3157 3.72202 6.21651 3.96488 6.12881C4.20775 6.0411 4.28184 5.85526 4.47222 5.99203C4.6626 6.12881 4.78171 5.85383 4.83633 6.24822C4.89096 6.64262 5.04152 7.26454 5.04152 7.26454L7.5072 9.11753H7.04394C7.04394 9.11753 6.32255 10.1774 6.44166 11.1074C6.44166 11.1074 5.94393 11.0317 5.2693 11.0317C4.59466 11.0317 4.1528 11.1934 4.1528 11.1934L3.76316 9.7506C3.76316 9.7506 3.90424 9.50822 3.96488 9.31287C4.02553 9.11753 4.27664 9.08147 4.27664 8.92608C4.27664 8.77068 4.02895 8.64041 4.1528 8.23816C4.27664 7.83591 4.27664 6.63261 4.27664 6.63261C4.27664 6.63261 3.88523 6.4605 3.96488 6.4605C4.04453 6.4605 4.2261 6.3157 4.09549 6.3157C3.96488 6.3157 3.76316 6.3157 3.76316 6.3157Z" fill="#FFCC00"/>
<path d="M4.40173 6.55078L4.32654 6.51855L4.32556 6.51758C4.32489 6.51728 4.32375 6.5171 4.32263 6.5166C4.31989 6.51539 4.31599 6.51301 4.31091 6.51074C4.30069 6.50618 4.28606 6.49999 4.26892 6.49219C4.25064 6.48387 4.22945 6.47324 4.2074 6.46289C4.21688 6.45289 4.22837 6.44314 4.23669 6.43066C4.2477 6.41412 4.26631 6.38043 4.26599 6.33691C4.26539 6.28008 4.23307 6.23517 4.18982 6.21191C4.16715 6.19975 4.14364 6.19457 4.12341 6.19238C4.14579 6.18023 4.16698 6.16909 4.18591 6.15723C4.24 6.12333 4.26576 6.10449 4.29919 6.08594C4.32686 6.0706 4.33885 6.06833 4.34509 6.06836C4.34975 6.06841 4.36549 6.06987 4.3988 6.09375C4.51262 6.17551 4.63629 6.15924 4.68689 6.15039C4.69348 6.16915 4.70373 6.20392 4.71228 6.26562C4.74029 6.46774 4.79273 6.72548 4.83728 6.93066C4.85965 7.0337 4.87983 7.12456 4.8949 7.18945C4.9024 7.22175 4.90919 7.24767 4.91345 7.26562C4.91559 7.27461 4.9172 7.28237 4.91833 7.28711C4.91883 7.28919 4.91904 7.29085 4.91931 7.29199L4.92029 7.29297V7.29395L4.93103 7.33789L4.96619 7.36426L7.1322 8.99219H6.97791L6.9408 9.04688V9.04785L6.93787 9.05078C6.93634 9.05307 6.93381 9.05632 6.93103 9.06055C6.92543 9.06906 6.91766 9.08176 6.90759 9.09766C6.88729 9.12973 6.8584 9.17679 6.82458 9.23535C6.75705 9.35232 6.66835 9.51808 6.58337 9.71387C6.43271 10.061 6.28921 10.5159 6.30603 10.9648C6.25497 10.959 6.19216 10.9519 6.11951 10.9453C5.90786 10.9261 5.61066 10.9062 5.26892 10.9062C4.92205 10.9063 4.6346 10.9484 4.43298 10.9902C4.35544 11.0063 4.29043 11.0232 4.23962 11.0371L3.89685 9.7666C3.91142 9.74004 3.93112 9.70358 3.95251 9.66113C3.99631 9.57424 4.05092 9.45728 4.08435 9.34961C4.1009 9.29671 4.14259 9.26086 4.21814 9.2041C4.25083 9.17954 4.29656 9.14671 4.33142 9.10645C4.36937 9.06254 4.40173 9.00276 4.40173 8.92578C4.40166 8.85468 4.37276 8.79417 4.34998 8.75098C4.32286 8.69963 4.30321 8.67059 4.28162 8.62305C4.24655 8.54577 4.22006 8.44399 4.27185 8.27539C4.30667 8.16229 4.33148 8.00048 4.349 7.83008C4.36674 7.65744 4.37832 7.46675 4.38611 7.29004C4.39391 7.11309 4.39783 6.94896 4.39978 6.8291C4.40075 6.76913 4.40149 6.71956 4.40173 6.68555V6.55078Z" stroke="#0A0A0A" stroke-width="0.25"/>
</g>
</g>
</svg>
