<svg width="24" height="24" viewBox="0 0 24 24" fill="none" xmlns="http://www.w3.org/2000/svg">
<path d="M19.0233 9C18.3213 9 17.9703 9 17.7173 9.169C17.6086 9.24179 17.5151 9.33522 17.4423 9.444C17.2733 9.697 17.2733 10.048 17.2733 10.75V15.25C17.2733 16.3546 16.3783 17.25 15.2737 17.25C13.9246 17.25 12.3318 17.25 12 17.25C11.6662 17.25 10.037 17.25 8.66602 17.25C7.56145 17.25 6.66622 16.3546 6.66622 15.25V10.75C6.66622 10.048 6.66622 9.697 6.49722 9.444C6.42443 9.33522 6.331 9.24179 6.22222 9.169C5.96922 9 5.61822 9 4.91622 9C3.71167 9 3.757 9 2.879 9.879C2 10.757 2 12.17 2 14.999V15.999C2 18.829 2 20.242 2.879 21.121C3.757 22 5.172 22 8 22H16C18.828 22 20.243 22 21.121 21.121C21.999 20.242 22 18.828 22 16V15C22 12.171 22 10.757 21.121 9.879C20.243 9 20.843 9 19.0233 9Z" fill="black"/>
<path fill-rule="evenodd" clip-rule="evenodd" d="M12.0006 1.24944C11.8017 1.24944 11.6109 1.32846 11.4703 1.46911C11.3296 1.60976 11.2506 1.80053 11.2506 1.99944L11.2506 12.9724L9.57061 11.0114C9.44119 10.8603 9.25701 10.7667 9.0586 10.7513C8.86018 10.7359 8.66379 10.8 8.51261 10.9294C8.36144 11.0589 8.26787 11.243 8.25249 11.4415C8.23712 11.6399 8.30119 11.8363 8.43061 11.9874L11.4306 15.4874C11.501 15.5698 11.5884 15.6359 11.6868 15.6812C11.7852 15.7265 11.8923 15.75 12.0006 15.75C12.1089 15.75 12.216 15.7265 12.3144 15.6812C12.4128 15.6359 12.5002 15.5698 12.5706 15.4874L15.5706 11.9874C15.6347 11.9126 15.6834 11.8258 15.714 11.7322C15.7445 11.6385 15.7563 11.5397 15.7487 11.4415C15.7411 11.3432 15.7142 11.2474 15.6696 11.1596C15.625 11.0717 15.5635 10.9935 15.4886 10.9294C15.4138 10.8654 15.327 10.8166 15.2333 10.7861C15.1397 10.7555 15.0409 10.7437 14.9426 10.7513C14.8444 10.7589 14.7486 10.7858 14.6608 10.8305C14.5729 10.8751 14.4947 10.9366 14.4306 11.0114L12.7506 12.9714L12.7506 1.99944C12.7506 1.58544 12.4146 1.24944 12.0006 1.24944Z" fill="black"/>
</svg>
