<svg width="24" height="24" viewBox="0 0 24 24" fill="none" xmlns="http://www.w3.org/2000/svg">
<path d="M14.0005 16.9099C13.8105 16.9099 13.6205 16.8399 13.4705 16.6899L9.51047 12.7299C9.22047 12.4399 9.22047 11.9599 9.51047 11.6699C9.80047 11.3799 10.2805 11.3799 10.5705 11.6699L14.5305 15.6299C14.8205 15.9199 14.8205 16.3999 14.5305 16.6899C14.3805 16.8299 14.1905 16.9099 14.0005 16.9099Z" fill="#121212"/>
<path d="M10.0004 16.9499C9.81043 16.9499 9.62043 16.8799 9.47043 16.7299C9.18043 16.4399 9.18043 15.9599 9.47043 15.6699L13.4304 11.7099C13.7204 11.4199 14.2004 11.4199 14.4904 11.7099C14.7804 11.9999 14.7804 12.4799 14.4904 12.7699L10.5304 16.7299C10.3804 16.8799 10.1904 16.9499 10.0004 16.9499Z" fill="#121212"/>
<path d="M14 6.75H10C9.04 6.75 7.25 6.75 7.25 4C7.25 1.25 9.04 1.25 10 1.25H14C14.96 1.25 16.75 1.25 16.75 4C16.75 4.96 16.75 6.75 14 6.75ZM10 2.75C9.01 2.75 8.75 2.75 8.75 4C8.75 5.25 9.01 5.25 10 5.25H14C15.25 5.25 15.25 4.99 15.25 4C15.25 2.75 14.99 2.75 14 2.75H10Z" fill="#121212"/>
<path d="M15 22.7499H9C3.38 22.7499 2.25 20.1699 2.25 15.9999V9.99993C2.25 5.43993 3.9 3.48993 7.96 3.27993C8.38 3.25993 8.73 3.56993 8.75 3.98993C8.77 4.40993 8.45 4.74993 8.04 4.76993C5.2 4.92993 3.75 5.77993 3.75 9.99993V15.9999C3.75 19.6999 4.48 21.2499 9 21.2499H15C19.52 21.2499 20.25 19.6999 20.25 15.9999V9.99993C20.25 5.77993 18.8 4.92993 15.96 4.76993C15.55 4.74993 15.23 4.38993 15.25 3.97993C15.27 3.56993 15.63 3.24993 16.04 3.26993C20.1 3.48993 21.75 5.43993 21.75 9.98993V15.9899C21.75 20.1699 20.62 22.7499 15 22.7499Z" fill="#121212"/>
</svg>
