<svg width="24" height="24" viewBox="0 0 24 24" fill="none" xmlns="http://www.w3.org/2000/svg">
<path d="M18.6102 6.68007C18.2002 6.68007 17.8602 6.34007 17.8602 5.93007V4.42007C17.8602 3.82007 17.3702 3.32007 16.7602 3.32007H3.83023C3.23023 3.32007 2.73023 3.81007 2.73023 4.42007V5.93007C2.73023 6.34007 2.39023 6.68007 1.98023 6.68007C1.57023 6.68007 1.24023 6.34007 1.24023 5.93007V4.42007C1.24023 2.99007 2.41023 1.82007 3.84023 1.82007H16.7602C18.1902 1.82007 19.3602 2.98007 19.3602 4.42007V5.93007C19.3602 6.34007 19.0202 6.68007 18.6102 6.68007Z" fill="#121212"/>
<path d="M10.2998 18.8501C9.8898 18.8501 9.5498 18.5101 9.5498 18.1001V3.32007C9.5498 2.91007 9.8898 2.57007 10.2998 2.57007C10.7098 2.57007 11.0498 2.91007 11.0498 3.32007V18.1001C11.0498 18.5201 10.7098 18.8501 10.2998 18.8501Z" fill="#121212"/>
<path d="M12.4799 18.8501H6.8999C6.4899 18.8501 6.1499 18.5101 6.1499 18.1001C6.1499 17.6901 6.4899 17.3501 6.8999 17.3501H12.4799C12.8899 17.3501 13.2299 17.6901 13.2299 18.1001C13.2299 18.5101 12.8899 18.8501 12.4799 18.8501Z" fill="#121212"/>
<path d="M22.0102 13.2001C21.6002 13.2001 21.2602 12.8601 21.2602 12.4501V11.6501C21.2602 11.3401 21.0002 11.0801 20.6902 11.0801H13.6802C13.2702 11.0801 12.9302 10.7401 12.9302 10.3301C12.9302 9.92008 13.2702 9.58008 13.6802 9.58008H20.6902C21.8302 9.58008 22.7602 10.5101 22.7602 11.6501V12.4501C22.7602 12.8701 22.4302 13.2001 22.0102 13.2001Z" fill="#121212"/>
<path d="M16.0801 22.1801C15.6701 22.1801 15.3301 21.8401 15.3301 21.4301V10.8701C15.3301 10.4601 15.6701 10.1201 16.0801 10.1201C16.4901 10.1201 16.8301 10.4601 16.8301 10.8701V21.4301C16.8301 21.8401 16.4901 22.1801 16.0801 22.1801Z" fill="#121212"/>
<path d="M18.2199 22.1799H13.9399C13.5299 22.1799 13.1899 21.8399 13.1899 21.4299C13.1899 21.0199 13.5299 20.6799 13.9399 20.6799H18.2199C18.6299 20.6799 18.9699 21.0199 18.9699 21.4299C18.9699 21.8399 18.6299 22.1799 18.2199 22.1799Z" fill="#121212"/>
</svg>
