<svg width="24" height="24" viewBox="0 0 24 24" fill="none" xmlns="http://www.w3.org/2000/svg">
<path d="M20.42 8.99998C20.28 8.98998 20.1 8.97998 19.9 8.97998C19.51 8.97998 19.2 9.28998 19.2 9.67998V14.33C19.2 14.72 19.51 15.03 19.9 15.03C20.1 15.03 20.27 15.02 20.44 15.01C22 14.83 22 13.73 22 12.93V11.07C22 10.27 22 9.16998 20.42 8.99998Z" fill="#121212"/>
<path d="M12.93 4.78998H7.35C3.25 4.78998 2 6.03998 2 10.14V13.86C2 17.96 3.25 19.21 7.35 19.21H12.93C17.03 19.21 18.28 17.96 18.28 13.86V10.14C18.28 6.03998 17.03 4.78998 12.93 4.78998ZM7.1 14.18C7.02 14.52 6.71 14.75 6.37 14.75C6.31 14.75 6.25 14.74 6.19 14.73C5.79 14.63 5.54 14.22 5.64 13.82C5.94 12.63 5.94 11.37 5.64 10.18C5.54 9.77998 5.78 9.36998 6.19 9.26998C6.6 9.16998 7 9.41998 7.1 9.81998C7.46 11.25 7.46 12.75 7.1 14.18ZM10.6 14.18C10.52 14.52 10.21 14.75 9.87 14.75C9.81 14.75 9.75 14.74 9.69 14.73C9.29 14.63 9.04 14.22 9.14 13.82C9.44 12.63 9.44 11.37 9.14 10.18C9.04 9.77998 9.28 9.36998 9.69 9.26998C10.09 9.16998 10.5 9.40998 10.6 9.81998C10.96 11.25 10.96 12.75 10.6 14.18ZM14.1 14.18C14.02 14.52 13.71 14.75 13.37 14.75C13.31 14.75 13.25 14.74 13.19 14.73C12.79 14.63 12.54 14.22 12.64 13.82C12.94 12.63 12.94 11.37 12.64 10.18C12.54 9.77998 12.78 9.36998 13.19 9.26998C13.59 9.16998 14 9.40998 14.1 9.81998C14.46 11.25 14.46 12.75 14.1 14.18Z" fill="#121212"/>
</svg>
