<svg width="24" height="24" viewBox="0 0 24 24" fill="none" xmlns="http://www.w3.org/2000/svg">
<path d="M16.1904 2C19.83 2.00017 22.0001 4.16997 21.9902 7.80957V16.1904C21.9901 19.8302 19.8195 22 16.1797 22H7.80957C4.16983 21.9998 2 19.8295 2 16.1797V7.80957C2.00017 4.16997 4.16997 2.00017 7.80957 2H16.1904ZM16.7734 7.22656C16.4835 6.93665 16.0018 6.93665 15.7119 7.22656L12 10.9395L8.28809 7.22656C7.99817 6.93665 7.51648 6.93665 7.22656 7.22656C6.93669 7.51648 6.93666 7.99819 7.22656 8.28809L10.9395 12L7.22656 15.7119C6.93687 16.0017 6.93712 16.4825 7.22656 16.7725C7.51648 17.0624 7.99817 17.0624 8.28809 16.7725L12 13.0605L15.7119 16.7725C16.0018 17.0624 16.4835 17.0624 16.7734 16.7725C17.0629 16.4825 17.0631 16.0017 16.7734 15.7119L13.0605 12L16.7734 8.28809C17.0633 7.99819 17.0633 7.51648 16.7734 7.22656Z" fill="#121212"/>
</svg>
