<svg width="24" height="24" viewBox="0 0 24 24" fill="none" xmlns="http://www.w3.org/2000/svg">
<path d="M9.02999 21.6898L11.36 19.7298C11.71 19.4298 12.29 19.4298 12.64 19.7298L14.97 21.6898C15.51 21.9598 16.17 21.6898 16.37 21.1098L16.81 19.7798C16.92 19.4598 16.81 18.9898 16.57 18.7498L14.3 16.4698C14.13 16.3098 14 15.9898 14 15.7598V12.9098C14 12.4898 14.31 12.2898 14.7 12.4498L19.61 14.5698C20.38 14.8998 21.01 14.4898 21.01 13.6498V12.3598C21.01 11.6898 20.51 10.9198 19.89 10.6598L14.3 8.24977C14.14 8.17977 14 7.96977 14 7.78977V4.78977C14 3.84977 13.31 2.73977 12.47 2.30977C12.17 2.15977 11.82 2.15977 11.52 2.30977C10.68 2.73977 9.98999 3.85977 9.98999 4.79977V7.79977C9.98999 7.97977 9.84999 8.18977 9.68999 8.25977L4.10999 10.6698C3.48999 10.9198 2.98999 11.6898 2.98999 12.3598V13.6498C2.98999 14.4898 3.61999 14.8998 4.38999 14.5698L9.29999 12.4498C9.67999 12.2798 9.99999 12.4898 9.99999 12.9098V15.7598C9.99999 15.9898 9.86999 16.3098 9.70999 16.4698L7.43999 18.7498C7.19999 18.9898 7.08999 19.4498 7.19999 19.7798L7.63999 21.1098C7.81999 21.6898 8.47999 21.9698 9.02999 21.6898Z" stroke="#121212" stroke-width="1.5" stroke-linecap="round" stroke-linejoin="round"/>
</svg>
