<svg width="24" height="24" viewBox="0 0 24 24" fill="none" xmlns="http://www.w3.org/2000/svg">
<path d="M22.0001 11.65H16.2001C14.6701 11.65 13.6201 10.49 13.6201 9.07001V5.84998C13.6201 4.42998 14.6701 3.27002 16.2001 3.27002H19.4201C20.8401 3.27002 22.0001 4.42998 22.0001 5.84998V11.65Z" stroke="#121212" stroke-width="1.5" stroke-linecap="round" stroke-linejoin="round"/>
<path d="M22.0002 11.6499C22.0002 17.6999 20.8702 18.6998 17.4702 20.7198" stroke="#121212" stroke-width="1.5" stroke-linecap="round" stroke-linejoin="round"/>
<path d="M10.3702 11.65H4.57023C3.04023 11.65 1.99023 10.49 1.99023 9.07001V5.84998C1.99023 4.42998 3.04023 3.27002 4.57023 3.27002H7.80023C9.22023 3.27002 10.3802 4.42998 10.3802 5.84998V11.65" stroke="#121212" stroke-width="1.5" stroke-linecap="round" stroke-linejoin="round"/>
<path d="M10.3703 11.6499C10.3703 17.6999 9.24033 18.6998 5.84033 20.7198" stroke="#121212" stroke-width="1.5" stroke-linecap="round" stroke-linejoin="round"/>
</svg>
