<svg width="24" height="24" viewBox="0 0 24 24" fill="none" xmlns="http://www.w3.org/2000/svg">
<path d="M13.89 2.88014L9.19999 2.14014C5.28999 1.53014 3.47999 2.85014 2.85999 6.76014L2.11999 11.4501C1.71999 14.0101 2.13999 15.6701 3.58999 16.6801C4.34999 17.2201 5.38999 17.5801 6.73999 17.7901L11.43 18.5301C15.34 19.1401 17.15 17.8201 17.77 13.9101L18.5 9.22014C18.62 8.45014 18.67 7.76014 18.63 7.15014C18.5 4.65014 17.03 3.37014 13.89 2.88014ZM8.23999 9.35014C7.06999 9.35014 6.11999 8.40014 6.11999 7.24014C6.11999 6.07014 7.06999 5.12014 8.23999 5.12014C9.39999 5.12014 10.35 6.07014 10.35 7.24014C10.35 8.40014 9.39999 9.35014 8.23999 9.35014Z" fill="#121212"/>
<path d="M20.4996 13.4701L18.9996 17.9801C17.7496 21.7401 15.7496 22.7401 11.9896 21.4901L7.47965 19.9901C6.06965 19.5201 5.04965 18.9401 4.38965 18.2101C5.01965 18.4601 5.74965 18.6501 6.57965 18.7801L11.2796 19.5201C11.9196 19.6201 12.5196 19.6701 13.0796 19.6701C16.3796 19.6701 18.1496 17.8901 18.7596 14.0601L19.4896 9.37006C19.5896 8.79006 19.6296 8.28006 19.6296 7.81006C21.1496 9.06006 21.3696 10.8401 20.4996 13.4701Z" fill="#121212"/>
</svg>
