<svg width="24" height="24" viewBox="0 0 24 24" fill="none" xmlns="http://www.w3.org/2000/svg">
<path d="M17.02 2.88C16.54 2.4 15.58 2 14.9 2H9.1C8.42 2 7.46 2.4 6.98 2.88L2.88 6.98C2.4 7.46 2 8.42 2 9.1V14.9C2 15.58 2.4 16.54 2.88 17.02L4.41 18.55L18.55 4.41L17.02 2.88Z" fill="#121212"/>
<path d="M21.12 6.97997L19.61 5.46997L5.46997 19.61L6.97997 21.12C7.45997 21.6 8.41997 22 9.09997 22H14.9C15.58 22 16.54 21.6 17.02 21.12L21.12 17.02C21.6 16.54 22 15.58 22 14.9V9.09997C22 8.41997 21.6 7.45997 21.12 6.97997Z" fill="#121212"/>
<path d="M2.48996 20.47C2.19996 20.76 2.19996 21.2401 2.48996 21.5301C2.63996 21.6801 2.82996 21.75 3.01996 21.75C3.20996 21.75 3.39996 21.6801 3.54996 21.5301L5.46996 19.6101L4.40996 18.55L2.48996 20.47Z" fill="#121212"/>
<path d="M21.5301 3.54996C21.8201 3.25996 21.8201 2.77996 21.5301 2.48996C21.2401 2.19996 20.76 2.19996 20.47 2.48996L18.55 4.40996L19.6101 5.46996L21.5301 3.54996Z" fill="#121212"/>
</svg>
