<svg width="24" height="24" viewBox="0 0 24 24" fill="none" xmlns="http://www.w3.org/2000/svg">
<path d="M19.6302 7.24003C19.9302 7.71003 19.7702 8.34003 19.2902 8.63003L18.7002 8.98003L5.59016 16.84C5.11016 17.13 4.48016 16.97 4.20016 16.48C3.20016 14.74 2.75016 12.62 3.14016 10.4C3.80016 6.63003 6.90016 3.63003 10.6902 3.09003C14.4402 2.56003 17.8302 4.36003 19.6302 7.24003Z" fill="#121212"/>
<path d="M20.8902 13.4301C20.2101 17.6801 16.4502 20.9301 12.1402 21.0001C10.2402 21.0301 8.48015 20.4801 7.02015 19.4901C6.40015 19.0801 6.42015 18.1601 7.06015 17.7801L19.4701 10.4901C20.1201 10.1101 20.9201 10.5501 20.9802 11.3001C21.0302 12.0001 21.0001 12.7101 20.8902 13.4301Z" fill="#121212"/>
</svg>
