<svg width="24" height="18" viewBox="0 0 24 18" fill="none" xmlns="http://www.w3.org/2000/svg">
<mask id="mask0_395_52798" style="mask-type:luminance" maskUnits="userSpaceOnUse" x="0" y="0" width="24" height="18">
<rect width="24" height="18" fill="white"/>
</mask>
<g mask="url(#mask0_395_52798)">
<path fill-rule="evenodd" clip-rule="evenodd" d="M6 0H18V18H6V0Z" fill="#FFD018"/>
<path fill-rule="evenodd" clip-rule="evenodd" d="M0 0H6V18H0V0Z" fill="#2E42A5"/>
<path fill-rule="evenodd" clip-rule="evenodd" d="M18 0H24V18H18V0Z" fill="#E31D1C"/>
<path fill-rule="evenodd" clip-rule="evenodd" d="M12.8127 3.4152C13.0663 3.25062 13.3832 3.25041 13.5666 3.5402C13.75 3.83019 13.5291 4.12968 13.4738 4.2316C13.4186 4.33365 13.2998 4.70717 13.5666 4.83024C13.8338 4.95313 14.226 4.88495 14.4289 4.70719C14.4183 4.7023 14.1827 4.59081 14.2453 4.41324C14.3095 4.23154 14.7468 3.71829 15.548 4.09977C16.3494 4.48131 16.4871 4.83146 16.2678 5.11442C16.0483 5.3974 15.4612 5.88266 15.6027 6.21012C15.6027 6.21012 15.7044 6.0306 15.842 6.12027C15.9763 6.2079 15.9517 6.35994 15.9504 6.36735C15.9639 6.36664 16.928 6.32051 17.0344 7.26188C17.1414 8.2098 16.4006 8.46207 16.4006 8.46207C16.4023 8.464 16.634 8.71872 16.4807 8.88492C16.3309 9.04698 16.1596 8.95535 16.1506 8.95035C16.1506 8.95035 15.8284 9.2549 15.9895 9.60172C16.1476 9.94229 16.2638 10.0465 16.2678 10.05C16.2692 10.0441 16.296 9.94352 16.4807 9.94352C16.6709 9.94359 17.0244 10.5208 16.8049 10.7004C16.5854 10.8799 16.4807 10.8468 16.4807 10.8468C16.4807 10.8468 16.9547 11.2405 16.8049 11.8654C16.655 12.4904 16.2544 12.7919 15.842 12.967C15.4297 13.1418 14.9377 13.1418 14.3059 13.1418C13.6739 13.1418 13.3 13.5353 13.3 13.5353C13.3126 13.5403 13.6174 13.6639 13.5129 13.9455C13.406 14.233 13.1623 14.2336 13.1623 14.2336C13.156 14.2425 12.9812 14.4878 12.8127 14.4035C12.6445 14.3191 12.5366 14.2368 12.5324 14.2336C12.5277 14.2431 12.3865 14.5182 12.2238 14.5646V14.5744C12.2161 14.5744 12.209 14.5706 12.2014 14.5695C12.1941 14.5705 12.1872 14.5744 12.1799 14.5744V14.5646C12.0164 14.5177 11.8745 14.24 11.8713 14.2336C11.8645 14.2388 11.7578 14.3203 11.592 14.4035C11.4222 14.4887 11.2451 14.2389 11.2414 14.2336C11.2328 14.2335 10.9958 14.2278 10.8908 13.9455C10.7842 13.6581 11.1047 13.5353 11.1047 13.5353C11.1047 13.5353 10.7298 13.1418 10.0979 13.1418C9.46598 13.1418 8.97405 13.1419 8.56172 12.967C8.14933 12.7919 7.74874 12.4904 7.59883 11.8654C7.45066 11.2472 7.91312 10.8552 7.92305 10.8468C7.91657 10.8486 7.81136 10.8742 7.59883 10.7004C7.37979 10.5208 7.73279 9.94429 7.92305 9.94352C8.10698 9.94352 8.13433 10.0434 8.13594 10.05C8.13594 10.05 8.25422 9.94845 8.41523 9.60172C8.57383 9.26016 8.26353 8.95938 8.2541 8.95035C8.2541 8.95035 8.07698 9.05167 7.92305 8.88492C7.77148 8.72067 7.99614 8.46978 8.00312 8.46207C7.9893 8.45728 7.26333 8.20075 7.36933 7.26188C7.47508 6.32611 8.42866 6.36614 8.45332 6.36735C8.4519 6.35924 8.42791 6.2077 8.56172 6.12027C8.69939 6.03044 8.80195 6.21012 8.80195 6.21012C8.9434 5.88259 8.35526 5.39736 8.13594 5.11442C7.91663 4.83149 8.05452 4.48128 8.85566 4.09977C9.65699 3.71822 10.0951 4.23154 10.1594 4.41324C10.2225 4.59283 9.97993 4.70485 9.9748 4.70719C10.1776 4.88508 10.5698 4.95317 10.8371 4.83024C11.1041 4.70741 10.9862 4.33406 10.9309 4.2316C10.8756 4.12968 10.6537 3.83019 10.8371 3.5402C11.0206 3.25022 11.3383 3.25052 11.592 3.4152C11.8083 3.55547 12.1156 3.62867 12.2014 3.64762C12.2854 3.62912 12.5953 3.55631 12.8127 3.4152Z" fill="#BF9937"/>
<path d="M9.08252 11.9992L9.16134 11.8086C10.0671 12.1968 11.0979 12.3912 12.2543 12.3912C13.4101 12.3912 14.4131 12.197 15.264 11.8095L15.3469 11.9983C14.4684 12.3984 13.4373 12.598 12.2543 12.598C11.0718 12.598 10.0143 12.3986 9.08252 11.9992Z" fill="#805440"/>
<path fill-rule="evenodd" clip-rule="evenodd" d="M15.0138 10.6974C15.0137 10.705 15.0085 11.1646 14.5206 11.3663C14.0341 11.5674 13.4628 11.4987 13.4503 11.4972C13.4503 11.4972 12.897 11.3783 12.6046 11.4972C12.426 11.5699 12.2956 11.6041 12.2218 11.6212V11.6368C12.2218 11.6368 12.2095 11.6338 12.1857 11.629C12.1625 11.6337 12.1505 11.6368 12.1505 11.6368V11.6212C12.0767 11.6041 11.9463 11.5699 11.7677 11.4972C11.4753 11.3783 10.922 11.4972 10.922 11.4972C10.9096 11.4987 10.3383 11.5675 9.85168 11.3663C9.36378 11.1646 9.35857 10.705 9.35852 10.6974V5.42493H15.0138V10.6974Z" fill="#BF9937"/>
<mask id="mask1_395_52798" style="mask-type:luminance" maskUnits="userSpaceOnUse" x="9" y="5" width="7" height="7">
<path fill-rule="evenodd" clip-rule="evenodd" d="M15.0138 10.6974C15.0137 10.705 15.0085 11.1646 14.5206 11.3663C14.0341 11.5674 13.4628 11.4987 13.4503 11.4972C13.4503 11.4972 12.897 11.3783 12.6046 11.4972C12.426 11.5699 12.2956 11.6041 12.2218 11.6212V11.6368C12.2218 11.6368 12.2095 11.6338 12.1857 11.629C12.1625 11.6337 12.1505 11.6368 12.1505 11.6368V11.6212C12.0767 11.6041 11.9463 11.5699 11.7677 11.4972C11.4753 11.3783 10.922 11.4972 10.922 11.4972C10.9096 11.4987 10.3383 11.5675 9.85168 11.3663C9.36378 11.1646 9.35857 10.705 9.35852 10.6974V5.42493H15.0138V10.6974Z" fill="white"/>
</mask>
<g mask="url(#mask1_395_52798)">
<rect x="9.27942" y="5.35876" width="2.74219" height="2.925" fill="#D00F3A"/>
<path fill-rule="evenodd" clip-rule="evenodd" d="M12.3263 5.35876H15.17V8.28376H12.3263V5.35876Z" fill="#FEDF00"/>
<path fill-rule="evenodd" clip-rule="evenodd" d="M12.3263 8.60876H15.0685V11.6421H12.3263V8.60876Z" fill="#FEDF00"/>
<rect x="9.27942" y="8.60876" width="2.74219" height="3.03333" fill="#FEDF00"/>
<path fill-rule="evenodd" clip-rule="evenodd" d="M14.3575 9.97472C14.3575 9.97472 14.485 9.84542 14.485 9.54017C14.485 9.23492 14.5923 9.03299 14.3575 9.03299C14.1227 9.03299 13.8038 9.03299 13.5793 9.03299C13.3547 9.03299 13.4701 9.16869 13.2443 9.03299C13.0185 8.89729 12.8365 8.94047 12.8365 9.03299C12.8365 9.12551 13.0644 9.08479 13.0644 9.27274C13.0644 9.46069 13.1506 9.29726 13.1506 9.63599C13.1506 9.97472 13.1982 9.91785 13.2213 9.91785C13.2443 9.91785 13.2443 9.85667 13.2443 9.76762C13.2443 9.67857 13.2328 9.31938 13.2955 9.42978C13.3581 9.54017 13.3891 9.48803 13.42 9.6135C13.4509 9.73896 13.534 9.86099 13.477 9.91785C13.42 9.97472 13.3048 10.0236 13.3909 10.0236C13.477 10.0236 13.6021 9.87911 13.5396 9.63599C13.477 9.39287 13.6172 9.6135 13.6172 9.6135C13.6172 9.6135 13.9489 9.68708 13.9702 9.5861C13.9915 9.48511 14.0219 9.68268 14.1118 9.68268C14.2017 9.68268 14.0251 9.88598 13.9509 9.91785C13.8767 9.94973 13.9509 9.97472 13.9509 9.97472C13.9509 9.97472 14.0201 10.0316 14.066 9.97472C14.1118 9.91785 14.2759 9.7318 14.2759 9.63599C14.2759 9.54017 14.3811 9.59774 14.3811 9.68268C14.3811 9.76762 14.2835 10.0724 14.3205 10.0236C14.3575 9.97472 14.3575 9.97472 14.3575 9.97472Z" fill="#D00F3A"/>
<path fill-rule="evenodd" clip-rule="evenodd" d="M14.3575 11.166C14.3575 11.166 14.485 11.0367 14.485 10.7315C14.485 10.4262 14.5923 10.2243 14.3575 10.2243C14.1227 10.2243 13.8038 10.2243 13.5793 10.2243C13.3547 10.2243 13.4701 10.36 13.2443 10.2243C13.0185 10.0886 12.8365 10.1318 12.8365 10.2243C12.8365 10.3168 13.0644 10.2761 13.0644 10.464C13.0644 10.652 13.1506 10.4885 13.1506 10.8273C13.1506 11.166 13.1982 11.1091 13.2213 11.1091C13.2443 11.1091 13.2443 11.048 13.2443 10.9589C13.2443 10.8699 13.2328 10.5107 13.2955 10.6211C13.3581 10.7315 13.3891 10.6793 13.42 10.8048C13.4509 10.9302 13.534 11.0523 13.477 11.1091C13.42 11.166 13.3048 11.2148 13.3909 11.2148C13.477 11.2148 13.6021 11.0704 13.5396 10.8273C13.477 10.5842 13.6172 10.8048 13.6172 10.8048C13.6172 10.8048 13.9489 10.8784 13.9702 10.7774C13.9915 10.6764 14.0219 10.874 14.1118 10.874C14.2017 10.874 14.0251 11.0773 13.9509 11.1091C13.8767 11.141 13.9509 11.166 13.9509 11.166C13.9509 11.166 14.0201 11.2229 14.066 11.166C14.1118 11.1091 14.2759 10.9231 14.2759 10.8273C14.2759 10.7315 14.3811 10.789 14.3811 10.874C14.3811 10.9589 14.2835 11.2637 14.3205 11.2148C14.3575 11.166 14.3575 11.166 14.3575 11.166Z" fill="#D00F3A"/>
<path fill-rule="evenodd" clip-rule="evenodd" d="M10.7111 7.71716L10.6593 7.67126C10.658 7.6853 10.6574 7.70302 10.6573 7.724C10.6573 7.84781 10.5938 7.94248 10.4503 8.08728C10.4426 8.09508 10.4045 8.13388 10.3937 8.1449C10.3729 8.166 10.3568 8.18289 10.3429 8.19861C10.2203 8.33706 10.0053 8.21777 9.95032 8.08337C9.94153 8.06188 9.89908 7.98445 9.82922 7.86365C9.82734 7.86039 9.82713 7.85995 9.82532 7.85681C9.81296 7.83545 9.79951 7.81334 9.78333 7.78552C9.76376 7.75189 9.764 7.75165 9.74622 7.72107C9.71871 7.67374 9.70458 7.64836 9.69739 7.63513C9.6923 7.62616 9.66393 7.63736 9.61438 7.70056C9.5954 7.72478 9.63406 7.80733 9.75793 7.93982L9.68762 8.01794C9.51529 7.8499 9.43176 7.7409 9.43176 7.66541C9.43193 7.53961 9.53324 7.47205 9.7218 7.47205C9.84047 7.47207 9.90413 7.55564 9.99915 7.76599C10.0037 7.77608 10.0201 7.81205 10.0236 7.8197C10.0704 7.9236 10.1003 7.98062 10.1368 8.02673C10.1799 8.08107 10.2057 8.07869 10.2501 8.02283C10.2942 7.96726 10.3354 7.88007 10.3966 7.724C10.4413 7.60994 10.4474 7.61864 10.3751 7.65662L10.3273 7.68201L9.89661 6.64783L10.7111 5.65759V7.71716ZM11.5343 6.64783L11.1036 7.68201L11.0558 7.65662C10.9834 7.61856 10.9895 7.60981 11.0343 7.724C11.0955 7.88006 11.1358 7.96726 11.1798 8.02283C11.2245 8.07909 11.2508 8.08129 11.2941 8.02673C11.3306 7.98062 11.3605 7.9236 11.4073 7.8197C11.4109 7.81188 11.4273 7.77597 11.4318 7.76599C11.5268 7.55563 11.5904 7.47205 11.7091 7.47205C11.8976 7.47208 11.999 7.53964 11.9991 7.66541C11.9991 7.74088 11.9156 7.84995 11.7433 8.01794L11.673 7.93982C11.7968 7.80737 11.8355 7.72478 11.8165 7.70056C11.7671 7.63746 11.7387 7.62629 11.7335 7.63513C11.7263 7.64835 11.7122 7.67379 11.6847 7.72107C11.6669 7.75173 11.6663 7.75165 11.6466 7.78552C11.6305 7.81329 11.6179 7.83548 11.6056 7.85681C11.6037 7.86003 11.6036 7.86036 11.6017 7.86365C11.5318 7.98449 11.4884 8.06187 11.4796 8.08337C11.4245 8.21765 11.2105 8.33693 11.088 8.19861C11.0741 8.18287 11.0581 8.16603 11.0372 8.1449C11.0264 8.13391 10.9869 8.0946 10.9796 8.08728C10.8362 7.94258 10.7736 7.84775 10.7736 7.724C10.7736 7.70303 10.7729 7.6853 10.7716 7.67126L10.7189 7.71716V5.65759L11.5343 6.64783ZM10.715 7.72107L10.7111 7.72498V7.71716L10.715 7.72107ZM10.7189 7.72498L10.715 7.72107L10.7189 7.71716V7.72498ZM10.715 5.65271L10.7111 5.65759V5.6488L10.715 5.65271ZM10.7189 5.65759L10.715 5.65271L10.7189 5.6488V5.65759Z" fill="white"/>
<path fill-rule="evenodd" clip-rule="evenodd" d="M10.7045 7.5434C10.6879 7.54939 10.588 7.56201 10.5775 7.58148C10.5615 7.6114 10.556 7.657 10.556 7.72308C10.556 7.805 10.5054 7.88145 10.3851 8.00336C10.4167 7.94513 10.4496 7.86972 10.4906 7.76508C10.5594 7.58954 10.5119 7.491 10.3783 7.53754L10.016 6.66644L10.7045 5.87347V7.5434ZM11.4144 6.66644L11.0521 7.53754C10.9185 7.491 10.872 7.58953 10.9408 7.76508C10.9818 7.86954 11.0137 7.94517 11.0453 8.00336C10.9254 7.88178 10.8755 7.80577 10.8754 7.72406C10.8754 7.65778 10.869 7.61145 10.8529 7.58148C10.8416 7.56197 10.7238 7.54345 10.7084 7.53754V5.86761L11.4144 6.66644Z" fill="#FEDF00"/>
<path fill-rule="evenodd" clip-rule="evenodd" d="M9.88879 11.642H9.58411V8.60876H9.88879V11.642ZM10.4982 11.642H10.1935V8.60876H10.4982V11.642ZM11.1075 11.642H10.8029V8.60876H11.1075V11.642ZM11.7169 11.642H11.4122V8.60876H11.7169V11.642Z" fill="#D00F3A"/>
<path fill-rule="evenodd" clip-rule="evenodd" d="M13.0372 8.39197H12.7325V5.35876H13.0372V8.39197ZM13.6466 8.39197H13.3419V5.35876H13.6466V8.39197ZM14.256 8.39197H13.9513V5.35876H14.256V8.39197ZM14.8654 8.39197H14.5607V5.35876H14.8654V8.39197Z" fill="#D00F3A"/>
</g>
</g>
</svg>
