<svg width="24" height="18" viewBox="0 0 24 18" fill="none" xmlns="http://www.w3.org/2000/svg">
<mask id="mask0_395_53231" style="mask-type:luminance" maskUnits="userSpaceOnUse" x="0" y="0" width="24" height="18">
<rect width="24" height="18" fill="white"/>
</mask>
<g mask="url(#mask0_395_53231)">
<path fill-rule="evenodd" clip-rule="evenodd" d="M0 0V18H24V0H0Z" fill="#2E42A5"/>
<mask id="mask1_395_53231" style="mask-type:luminance" maskUnits="userSpaceOnUse" x="0" y="0" width="24" height="18">
<path fill-rule="evenodd" clip-rule="evenodd" d="M0 0V18H24V0H0Z" fill="white"/>
</mask>
<g mask="url(#mask1_395_53231)">
<path fill-rule="evenodd" clip-rule="evenodd" d="M19.123 8.8916C19.6379 9.22295 20.1687 9.38764 20.7188 9.3877C21.2753 9.3877 21.7929 9.26338 22.2734 9.01465L22.5117 8.8916L22.5137 9.15234C22.5263 11.2012 22.4218 12.6529 22.1982 13.5146C22.0176 14.2108 21.5639 15.1557 21.0342 15.9004C20.3888 16.8076 19.6965 17.3525 19.0322 17.3525C18.3705 17.3523 17.6793 16.7662 17.0312 15.8037C16.5157 15.0381 16.0767 14.0836 15.9561 13.5078C15.8108 12.8144 15.7292 11.3667 15.709 9.1543L15.707 8.8916L15.9482 9.01367C16.44 9.26318 16.9275 9.38764 17.4121 9.3877C17.8908 9.3877 18.4019 9.22278 18.9453 8.88965L19.0352 8.83496L19.123 8.8916ZM19.0322 9.02246C18.4643 9.37054 17.9242 9.54492 17.4121 9.54492C16.9001 9.54487 16.3865 9.41434 15.8721 9.15332C15.8922 11.3553 15.9738 12.7964 16.1162 13.4766C16.3299 14.4966 17.7339 17.1948 19.0322 17.1953C20.3307 17.1953 21.7109 14.745 22.04 13.4766C22.2594 12.631 22.3632 11.1899 22.3506 9.15332C21.8462 9.41437 21.3021 9.54492 20.7188 9.54492C20.1355 9.54486 19.5731 9.37058 19.0322 9.02246Z" fill="#FBE625"/>
<path fill-rule="evenodd" clip-rule="evenodd" d="M15.8724 9.15319C15.8724 9.15319 15.9025 12.4565 16.1162 13.4767C16.3299 14.4969 17.7341 17.1951 19.0326 17.1951C20.331 17.1951 21.7112 14.7451 22.0403 13.4767C22.3694 12.2083 22.3506 9.15319 22.3506 9.15319C22.3506 9.15319 21.594 9.54478 20.719 9.54478C19.8441 9.54478 19.0326 9.02252 19.0326 9.02252C19.0326 9.02252 18.1806 9.54478 17.4124 9.54478C16.6442 9.54478 15.8724 9.15319 15.8724 9.15319Z" fill="#F5FBFF"/>
<mask id="mask2_395_53231" style="mask-type:luminance" maskUnits="userSpaceOnUse" x="15" y="9" width="8" height="9">
<path fill-rule="evenodd" clip-rule="evenodd" d="M15.8724 9.15319C15.8724 9.15319 15.9025 12.4565 16.1162 13.4767C16.3299 14.4969 17.7341 17.1951 19.0326 17.1951C20.331 17.1951 21.7112 14.7451 22.0403 13.4767C22.3694 12.2083 22.3506 9.15319 22.3506 9.15319C22.3506 9.15319 21.594 9.54478 20.719 9.54478C19.8441 9.54478 19.0326 9.02252 19.0326 9.02252C19.0326 9.02252 18.1806 9.54478 17.4124 9.54478C16.6442 9.54478 15.8724 9.15319 15.8724 9.15319Z" fill="white"/>
</mask>
<g mask="url(#mask2_395_53231)">
<path fill-rule="evenodd" clip-rule="evenodd" d="M19.3816 11.1553C19.3235 10.9221 19.7539 11.3066 19.8679 11.3672C19.9818 11.4278 19.9516 11.4151 20.1599 11.4326C20.9355 11.4718 21.0336 11.8859 21.0964 11.9736C21.1592 12.0611 21.1222 12.2632 21.3864 12.3496C21.6483 12.4354 21.822 12.8494 21.8249 12.8564C21.8249 12.8564 21.2569 12.4749 21.2478 12.8467C21.2389 13.2189 20.4819 13.6647 20.2575 13.9609C20.0332 14.2572 20.1859 14.4883 20.1501 14.5557C20.1144 14.6228 20.0586 14.6946 20.0095 14.6689C19.9603 14.6428 19.9767 14.2644 20.0124 14.0889C20.0478 13.9139 19.7618 14.0902 19.6403 14.126C19.5183 14.1614 19.0455 14.0021 19.4157 13.9668C19.7863 13.9314 20.1746 13.6425 20.3757 13.3291C20.5766 13.0156 20.5473 12.4704 20.3112 12.2812C20.0793 12.0958 19.8976 12.5391 19.8913 12.5547C19.8899 12.5513 19.8679 12.4959 19.8923 12.334C19.9175 12.1665 20.0398 12.0566 20.0398 12.0566C19.8493 11.9554 19.4397 11.3885 19.3816 11.1553ZM17.3034 11.6504C17.3396 11.529 17.7318 11.2186 17.5603 11.5479C17.3881 11.8778 17.4177 12.3608 17.571 12.7002C17.7243 13.0395 18.1977 13.3126 18.4851 13.2178C18.7679 13.1243 18.4938 12.7283 18.4851 12.7158C18.4905 12.7169 18.5491 12.73 18.6696 12.8369C18.7939 12.9471 18.821 13.1051 18.822 13.1113C19.0113 13.0069 19.7092 12.9725 19.9362 13.0508C20.1629 13.129 19.6078 13.28 19.4939 13.3428C19.3809 13.4054 19.4072 13.3867 19.279 13.5518C18.8234 14.1814 18.4227 14.0379 18.3151 14.043C18.2076 14.0476 18.0586 13.9077 17.8425 14.082C17.6261 14.2562 17.1788 14.1729 17.1784 14.1729C17.1824 14.1711 17.807 13.9038 17.5007 13.6943C17.1937 13.4839 17.2314 12.6074 17.1052 12.2578C16.979 11.9087 16.7032 11.9102 16.6657 11.8438C16.6288 11.7771 16.5986 11.6901 16.6472 11.6631C16.6959 11.6361 17.0048 11.8559 17.1325 11.9814C17.2601 12.1067 17.2673 11.772 17.3034 11.6504ZM18.9958 13.4111C18.9581 13.4322 18.9449 13.4813 18.9665 13.5205C18.9883 13.5598 19.037 13.5746 19.0749 13.5537C19.1129 13.5327 19.126 13.4837 19.1042 13.4443C19.0824 13.4051 19.0337 13.3901 18.9958 13.4111ZM18.3474 9.66406C18.3468 9.66984 18.279 10.3444 18.6101 10.1787C18.9428 10.0118 19.6913 10.4701 20.0583 10.5293C20.4245 10.5881 20.5572 10.3467 20.6335 10.3457C20.7096 10.3457 20.7992 10.3606 20.7995 10.416C20.7995 10.4717 20.4586 10.6346 20.2868 10.6855C20.1157 10.7364 20.405 10.9055 20.4939 10.9961C20.5825 11.0866 20.6636 11.5804 20.4587 11.2705C20.2535 10.96 19.8162 10.7521 19.445 10.7217C19.074 10.6916 18.6057 10.9733 18.5495 11.2705C18.4946 11.5633 18.9757 11.5141 18.989 11.5127C18.9869 11.5152 18.9479 11.5614 18.7927 11.6162C18.6333 11.6721 18.4794 11.6163 18.4792 11.6162C18.4788 11.8323 18.1714 12.4591 17.9929 12.6201C17.8145 12.7805 17.9509 12.2199 17.9509 12.0908C17.9509 11.9621 17.9549 11.9945 17.8728 11.8027C17.5431 11.0995 17.8618 10.8184 17.9099 10.7217C17.9576 10.6251 18.1539 10.5629 18.1062 10.2891C18.0591 10.0188 18.34 9.67309 18.3474 9.66406ZM20.2976 11.6328C20.2594 11.6127 20.2113 11.6285 20.1901 11.668C20.169 11.7077 20.1831 11.757 20.2214 11.7773C20.2596 11.7975 20.3077 11.7818 20.3288 11.7422C20.3499 11.7025 20.3359 11.6532 20.2976 11.6328ZM18.0241 11.5137C17.9794 11.514 17.9431 11.5496 17.9431 11.5928C17.9433 11.6358 17.9795 11.6706 18.0241 11.6709C18.069 11.6709 18.106 11.636 18.1062 11.5928C18.1062 11.5494 18.0691 11.5137 18.0241 11.5137Z" fill="#FF9800"/>
<path fill-rule="evenodd" clip-rule="evenodd" d="M16.0692 14.8135H21.5284V17.4064H16.0692V14.8135Z" fill="#36C6FF"/>
</g>
<rect width="13.5" height="10.5" fill="#2B409A"/>
<mask id="mask3_395_53231" style="mask-type:luminance" maskUnits="userSpaceOnUse" x="0" y="0" width="14" height="11">
<rect width="13.5" height="10.5" fill="white"/>
</mask>
<g mask="url(#mask3_395_53231)">
<path d="M-1.50317 9.74983L1.46754 11.0527L13.5674 1.41653L15.1344 -0.519623L11.9577 -0.955091L7.02241 3.19743L3.05003 5.99525L-1.50317 9.74983Z" fill="#F7FCFF"/>
<path d="M-1.0965 10.6627L0.416945 11.4188L14.5717 -0.699524H12.4467L-1.0965 10.6627Z" fill="#F50100"/>
<path d="M15.0032 9.74983L12.0325 11.0527L-0.0674362 1.41653L-1.63442 -0.519623L1.54233 -0.955091L6.47759 3.19743L10.45 5.99525L15.0032 9.74983Z" fill="#F7FCFF"/>
<path d="M14.9018 10.405L13.3884 11.1611L7.36111 5.9726L5.57416 5.39291L-1.78521 -0.512991H0.339834L7.69507 5.25273L9.64879 5.94784L14.9018 10.405Z" fill="#F50100"/>
<mask id="path-15-outside-1_395_53231" maskUnits="userSpaceOnUse" x="-2" y="-2" width="17" height="14" fill="black">
<rect fill="white" x="-2" y="-2" width="17" height="14"/>
<path fill-rule="evenodd" clip-rule="evenodd" d="M7.48838 0H5.98838V4.5H0V6H5.98838V10.5H7.48838V6H13.5V4.5H7.48838V0Z"/>
</mask>
<path fill-rule="evenodd" clip-rule="evenodd" d="M7.48838 0H5.98838V4.5H0V6H5.98838V10.5H7.48838V6H13.5V4.5H7.48838V0Z" fill="#F50100"/>
<path d="M5.98838 0V-1.5H4.48838V0H5.98838ZM7.48838 0H8.98838V-1.5H7.48838V0ZM5.98838 4.5V6H7.48838V4.5H5.98838ZM0 4.5V3H-1.5V4.5H0ZM0 6H-1.5V7.5H0V6ZM5.98838 6H7.48838V4.5H5.98838V6ZM5.98838 10.5H4.48838V12H5.98838V10.5ZM7.48838 10.5V12H8.98838V10.5H7.48838ZM7.48838 6V4.5H5.98838V6H7.48838ZM13.5 6V7.5H15V6H13.5ZM13.5 4.5H15V3H13.5V4.5ZM7.48838 4.5H5.98838V6H7.48838V4.5ZM5.98838 0V1.5H7.48838V0V-1.5H5.98838V0ZM5.98838 4.5H7.48838V0H5.98838H4.48838V4.5H5.98838ZM0 4.5V6H5.98838V4.5V3H0V4.5ZM0 6H1.5V4.5H0H-1.5V6H0ZM5.98838 6V4.5H0V6V7.5H5.98838V6ZM5.98838 10.5H7.48838V6H5.98838H4.48838V10.5H5.98838ZM7.48838 10.5V9H5.98838V10.5V12H7.48838V10.5ZM7.48838 6H5.98838V10.5H7.48838H8.98838V6H7.48838ZM13.5 6V4.5H7.48838V6V7.5H13.5V6ZM13.5 4.5H12V6H13.5H15V4.5H13.5ZM7.48838 4.5V6H13.5V4.5V3H7.48838V4.5ZM7.48838 0H5.98838V4.5H7.48838H8.98838V0H7.48838Z" fill="#F7FCFF" mask="url(#path-15-outside-1_395_53231)"/>
</g>
</g>
</g>
</svg>
