<svg width="24" height="18" viewBox="0 0 24 18" fill="none" xmlns="http://www.w3.org/2000/svg">
<mask id="mask0_395_52841" style="mask-type:luminance" maskUnits="userSpaceOnUse" x="0" y="0" width="24" height="18">
<rect width="24" height="18" fill="white"/>
</mask>
<g mask="url(#mask0_395_52841)">
<path fill-rule="evenodd" clip-rule="evenodd" d="M0 0H24V18H0V0Z" fill="#F50100"/>
<path d="M12.375 4.66773C12.426 4.65736 12.5533 4.58719 12.8271 4.2275C12.9942 4.00793 12.9866 3.74326 12.98 3.51367C12.9713 3.21275 12.9644 2.97207 13.3549 2.97207C13.675 2.97207 13.9122 2.88016 14.1108 2.80319C14.3394 2.71462 14.517 2.64581 14.7112 2.75952C15.024 2.94264 15.3927 2.96799 15.3925 2.9715C15.3925 2.9715 15.3829 2.97207 15.3621 2.97207C15.2115 2.97207 14.6705 3.28014 15.0888 3.28014C15.2935 3.28014 15.5118 3.1327 15.6815 3.01814C15.8587 2.89849 15.9828 2.81469 15.9828 2.97207C15.9828 2.97207 16.1018 3.31983 15.8145 3.34622C15.8145 3.34622 14.5184 3.47288 14.7717 3.52984C14.7717 3.52984 15.0023 3.62489 15.1601 3.63067C15.1601 3.63067 15.2285 3.87083 14.8084 3.93733C14.8084 3.93733 13.6213 4.15774 13.5669 4.53921C13.5533 4.63497 13.5195 4.76087 13.4832 4.89575C13.375 5.29811 13.2454 5.7803 13.5669 5.7803C13.9963 5.7803 14.2751 5.48625 14.2751 5.15585C14.2751 4.82544 14.3334 4.26733 14.7112 4.24015C14.7112 4.24015 15.6401 3.9265 15.7553 3.94803C15.7987 3.95615 15.7964 3.98467 15.7938 4.01704C15.7894 4.0705 15.7841 4.13449 15.9828 4.13449C16.3018 4.13449 17.2261 3.36819 17.3716 3.06386C17.5171 2.75952 17.7356 3.06386 17.7356 3.06386C17.7356 3.06386 17.8762 3.9158 17.144 4.2275C16.4117 4.53921 15.9828 4.53921 15.9828 4.53921C15.9828 4.53921 15.5262 4.87502 15.8145 4.87502C15.8785 4.87502 15.9586 4.88084 16.0491 4.88743C16.3666 4.91051 16.8127 4.94295 17.144 4.76626C17.2354 4.71749 17.3148 4.67333 17.3833 4.63532C17.6333 4.49638 17.7356 4.43951 17.7356 4.53921V4.54126C17.7356 4.67366 17.7357 5.37835 17.248 5.37835H15.9828C15.8145 5.37835 15.416 5.61808 16.078 5.7803C16.74 5.94252 16.9533 5.87473 17.248 5.7803C17.5427 5.68587 17.7356 5.63223 17.7356 5.7803C17.7356 5.92837 17.3314 6.48232 16.9841 6.48232C16.7806 6.48232 16.564 6.37676 16.3847 6.28933C16.258 6.22753 16.1498 6.1748 16.078 6.1748C15.9045 6.1748 15.7246 6.48232 15.8145 6.48232C15.8437 6.48232 15.8948 6.52926 15.9638 6.59269C16.1077 6.72487 16.3295 6.92869 16.5935 6.92869C16.8088 6.92869 16.9767 6.88472 17.1273 6.84527C17.2499 6.81317 17.361 6.78406 17.477 6.78406C17.6268 6.78406 17.6898 6.76602 17.7163 6.7894C17.7356 6.80638 17.7356 6.84521 17.7356 6.92869C17.7356 7.12708 17.2196 7.34595 16.9841 7.34595C16.877 7.34595 16.6133 7.22849 16.3575 7.11457C16.0507 6.97792 15.7553 6.84636 15.7553 6.92869C15.7553 7.07965 16.3776 7.89154 16.7608 7.89154H17.477C17.7356 7.89154 17.633 8.21991 17.633 8.21991C17.633 8.21991 17.3826 8.44242 17.0717 8.44242C16.8385 8.44242 16.6086 8.26578 16.4285 8.12751C16.3684 8.08137 16.3139 8.03951 16.2667 8.0099C16.078 7.89154 15.8145 7.79988 15.8145 8.0099C15.8145 8.21991 16.4094 9.059 16.8905 9.059C17.0827 9.059 17.2562 9.0281 17.3953 9.00334C17.6043 8.96611 17.7356 8.94274 17.7356 9.059C17.7356 9.25259 17.512 9.68357 17.248 9.58834L17.2424 9.58631C16.9724 9.48893 16.1499 9.19223 15.9828 8.87722C15.8145 8.55998 15.5069 8.69543 15.6311 8.87722C15.7553 9.059 16.4094 9.99903 16.8905 10.0866C17.0182 10.1099 17.1449 10.1254 17.2602 10.1395C17.5792 10.1784 17.811 10.2067 17.7356 10.3595C17.633 10.5675 17.2074 10.8581 16.9841 10.7666C16.7608 10.675 15.998 9.97381 15.8145 9.68148C15.6311 9.38915 15.1601 8.82948 15.1601 9.059C15.1601 9.10803 15.1514 9.17518 15.1415 9.2513C15.1051 9.53151 15.0528 9.93333 15.3621 10.0008C15.7553 10.0866 15.9625 10.4652 15.7553 10.4652C15.5481 10.4652 14.8084 10.2878 14.8084 9.81866C14.8084 9.34948 14.4739 9.08606 14.4739 9.21777C14.4739 9.23274 14.4735 9.25112 14.473 9.27233C14.469 9.43778 14.461 9.77502 14.6243 10.0008C14.8084 10.2556 14.5475 10.4635 14.4739 10.3595C14.4004 10.2556 14.0851 9.77462 14.0851 9.68148C14.0851 9.58834 13.9738 9.36972 13.8431 9.36972C13.7123 9.36972 13.686 9.59763 13.9307 10.0866C14.1754 10.5756 14.7788 10.9666 14.9695 10.9666C15.1601 10.9666 14.9695 11.4051 14.9695 11.4051L16.2667 11.7411C16.2667 11.7411 16.7608 11.4864 16.7608 11.4051C16.7608 11.3238 17.019 11.1256 17.248 11.1256C17.477 11.1256 17.4952 11.4051 17.3716 11.4051C17.3106 11.4051 17.2241 11.4574 17.1366 11.5103C17.0469 11.5645 16.9561 11.6193 16.8905 11.6193C16.7608 11.6193 16.3642 11.8967 16.3642 11.8967H17.248C17.248 11.8967 17.1065 11.7411 17.477 11.7411C17.8475 11.7411 18 11.8967 18 11.8967C18 11.8967 17.5824 12.1417 17.477 12.1417C17.4504 12.1417 17.4168 12.1472 17.3751 12.1539C17.3135 12.164 17.2341 12.1769 17.1331 12.1793C17.1048 12.1583 17.0881 12.1629 17.0784 12.1796C16.9885 12.1783 16.8833 12.1682 16.7608 12.1417C16.3642 12.0561 17.0717 12.3195 17.0717 12.3195C17.0717 12.3195 17.0563 12.2179 17.0784 12.1796C17.0973 12.1799 17.1156 12.1798 17.1331 12.1793C17.1599 12.1992 17.197 12.2421 17.248 12.3195C17.477 12.6667 17.512 12.7749 17.248 12.7749C16.9841 12.7749 16.7608 12.6946 16.7608 12.507C16.7608 12.3195 16.2667 12.1417 16.2667 12.1417L15.6311 12.507C15.6311 12.507 15.7498 12.7107 15.5559 12.7749C15.3621 12.8391 15.0888 12.7448 15.0888 12.6806C15.0888 12.6165 15.1529 12.3195 15.3176 12.3195C15.4823 12.3195 15.9828 12.0475 15.9828 12.0475L14.7717 11.6856C14.7717 11.6856 14.4324 12.0475 14.3208 12.0475C14.2637 12.0475 14.1514 11.8164 14.0287 11.5641C13.9118 11.3238 13.7856 11.0642 13.6888 10.9666C13.6281 10.9054 13.5743 10.8243 13.5222 10.7457C13.404 10.5676 13.295 10.4032 13.1357 10.5177C12.9061 10.6827 12.8149 11.1912 13.1357 11.6193C13.4564 12.0475 14.0115 12.3857 14.1662 12.3857C14.3208 12.3857 14.6243 12.4003 14.6243 12.507C14.6243 12.6138 14.4893 13.051 14.1662 12.8658C14.1021 12.8291 14.0372 12.7909 13.9739 12.7537C13.7177 12.6032 13.4879 12.4681 13.4486 12.507C13.3995 12.5557 13.6015 13.1063 13.8838 13.2377C14.0079 13.2954 14.123 13.2912 14.2131 13.2879C14.3281 13.2836 14.4024 13.2809 14.4024 13.4105C14.4024 13.6415 14.2029 13.899 13.8431 13.6547C13.6841 13.5468 13.5528 13.4047 13.4503 13.2936C13.3207 13.1532 13.2369 13.0624 13.2006 13.1528C13.1357 13.3146 13.1632 13.9471 13.4486 13.9471C13.5142 13.9471 13.5752 13.945 13.6302 13.943C13.8141 13.9366 13.9307 13.9325 13.9307 14.0184C13.9307 14.1299 13.8649 14.6052 13.5669 14.4156C13.269 14.2259 13.0511 13.9895 12.9978 13.8221C12.9446 13.6547 12.6266 13.8215 12.7268 14.0568C12.8271 14.2922 13.0707 14.7665 13.1357 14.7665C13.2006 14.7665 12.3802 16.2 12.3802 16.2L12.375 14.4352L12.3698 16.2C12.3698 16.2 11.5494 14.7665 11.6143 14.7665C11.6793 14.7665 11.9229 14.2922 12.0232 14.0568C12.1234 13.8215 11.8054 13.6547 11.7522 13.8221C11.6989 13.9895 11.481 14.2259 11.1831 14.4156C10.8851 14.6052 10.8193 14.1299 10.8193 14.0184C10.8193 13.9325 10.9359 13.9366 11.1198 13.943C11.1748 13.945 11.2358 13.9471 11.3014 13.9471C11.5868 13.9471 11.6143 13.3146 11.5494 13.1528C11.5131 13.0624 11.4293 13.1532 11.2997 13.2936C11.1972 13.4047 11.0659 13.5468 10.9069 13.6547C10.5471 13.899 10.3476 13.6415 10.3476 13.4105C10.3476 13.2809 10.4219 13.2836 10.5369 13.2879C10.627 13.2912 10.7421 13.2954 10.8662 13.2377C11.1485 13.1063 11.3505 12.5557 11.3014 12.507C11.2621 12.4681 11.0323 12.6032 10.7761 12.7537C10.7128 12.7909 10.6479 12.8291 10.5838 12.8658C10.2607 13.051 10.1257 12.6138 10.1257 12.507C10.1257 12.4003 10.4292 12.3857 10.5838 12.3857C10.7385 12.3857 11.2936 12.0475 11.6143 11.6193C11.9351 11.1912 11.8439 10.6827 11.6143 10.5177C11.455 10.4032 11.346 10.5676 11.2278 10.7457C11.1757 10.8243 11.1219 10.9054 11.0612 10.9666C10.9644 11.0642 10.8382 11.3238 10.7213 11.5641C10.5986 11.8164 10.4863 12.0475 10.4292 12.0475C10.3176 12.0475 9.97834 11.6856 9.97834 11.6856L8.76719 12.0475C8.76719 12.0475 9.26768 12.3195 9.43236 12.3195C9.59705 12.3195 9.66116 12.6165 9.66116 12.6806C9.66116 12.7448 9.38793 12.8391 9.19406 12.7749C9.00019 12.7107 9.11889 12.507 9.11889 12.507L8.48329 12.1417C8.48329 12.1417 7.98924 12.3195 7.98924 12.507C7.98924 12.6946 7.76594 12.7749 7.50199 12.7749C7.23803 12.7749 7.273 12.6667 7.50199 12.3195C7.55304 12.2421 7.5901 12.1992 7.61686 12.1793C7.63444 12.1798 7.65268 12.1799 7.6716 12.1796C7.69374 12.2179 7.67833 12.3195 7.67833 12.3195C7.67833 12.3195 8.38575 12.0561 7.98924 12.1417C7.86667 12.1682 7.76151 12.1783 7.6716 12.1796C7.66195 12.1629 7.64516 12.1583 7.61686 12.1793C7.51591 12.1769 7.43653 12.164 7.37491 12.1539C7.3332 12.1472 7.29962 12.1417 7.273 12.1417C7.1676 12.1417 6.75 11.8967 6.75 11.8967C6.75 11.8967 6.90253 11.7411 7.273 11.7411C7.64347 11.7411 7.50199 11.8967 7.50199 11.8967H8.38575C8.38575 11.8967 7.98924 11.6193 7.85952 11.6193C7.79387 11.6193 7.70311 11.5645 7.61344 11.5103C7.52592 11.4574 7.43945 11.4051 7.3784 11.4051C7.25482 11.4051 7.273 11.1256 7.50199 11.1256C7.73097 11.1256 7.98924 11.3238 7.98924 11.4051C7.98924 11.4864 8.48329 11.7411 8.48329 11.7411L9.78053 11.4051C9.78053 11.4051 9.58985 10.9666 9.78053 10.9666C9.9712 10.9666 10.5746 10.5756 10.8193 10.0866C11.064 9.59763 11.0377 9.36972 10.9069 9.36972C10.7762 9.36972 10.6649 9.58834 10.6649 9.68148C10.6649 9.77462 10.3496 10.2556 10.2761 10.3595C10.2025 10.4635 9.94159 10.2556 10.1257 10.0008C10.289 9.77502 10.281 9.43778 10.277 9.27233C10.2765 9.25112 10.2761 9.23274 10.2761 9.21777C10.2761 9.08606 9.94159 9.34948 9.94159 9.81866C9.94159 10.2878 9.20187 10.4652 8.99469 10.4652C8.78751 10.4652 8.99469 10.0866 9.38793 10.0008C9.69717 9.93333 9.64492 9.53151 9.60848 9.2513C9.59859 9.17518 9.58985 9.10803 9.58985 9.059C9.58985 8.82948 9.11889 9.38915 8.93546 9.68148C8.75204 9.97381 7.98924 10.675 7.76594 10.7666C7.54264 10.8581 7.11701 10.5675 7.0144 10.3595C6.93903 10.2067 7.17075 10.1784 7.48976 10.1395C7.60507 10.1254 7.73178 10.1099 7.85952 10.0866C8.34064 9.99903 8.99469 9.059 9.11889 8.87722C9.24308 8.69543 8.93546 8.55998 8.76719 8.87722C8.60009 9.19223 7.77758 9.48893 7.50762 9.58631L7.50199 9.58834C7.23803 9.68357 7.0144 9.25259 7.0144 9.059C7.0144 8.94274 7.14567 8.96611 7.35474 9.00334C7.49382 9.0281 7.66732 9.059 7.85952 9.059C8.34064 9.059 8.93546 8.21991 8.93546 8.0099C8.93546 7.79988 8.67201 7.89154 8.48329 8.0099C8.43608 8.03951 8.38157 8.08137 8.32149 8.12751C8.14145 8.26578 7.91145 8.44242 7.67833 8.44242C7.36742 8.44242 7.11701 8.21991 7.11701 8.21991C7.11701 8.21991 7.0144 7.89154 7.273 7.89154H7.98924C8.37242 7.89154 8.99469 7.07965 8.99469 6.92869C8.99469 6.84636 8.69931 6.97792 8.39252 7.11457C8.13675 7.22849 7.87304 7.34595 7.76594 7.34595C7.53037 7.34595 7.0144 7.12708 7.0144 6.92869C7.0144 6.84521 7.0144 6.80638 7.03366 6.7894C7.06018 6.76602 7.12321 6.78406 7.273 6.78406C7.38901 6.78406 7.50015 6.81317 7.6227 6.84527C7.77331 6.88472 7.94118 6.92869 8.15654 6.92869C8.42048 6.92869 8.64231 6.72487 8.78617 6.59269C8.85521 6.52926 8.90629 6.48232 8.93546 6.48232C9.02542 6.48232 8.84551 6.1748 8.67201 6.1748C8.60017 6.1748 8.49201 6.22753 8.36528 6.28933C8.18596 6.37676 7.96944 6.48232 7.76594 6.48232C7.41861 6.48232 7.0144 5.92837 7.0144 5.7803C7.0144 5.63223 7.2073 5.68587 7.50199 5.7803C7.79667 5.87473 8.01004 5.94252 8.67201 5.7803C9.33399 5.61808 8.93546 5.37835 8.76719 5.37835H7.50199C7.01431 5.37835 7.01438 4.67366 7.0144 4.54126L7.0144 4.53921C7.0144 4.43951 7.11672 4.49638 7.36675 4.63532C7.43515 4.67333 7.51461 4.71749 7.60605 4.76626C7.9373 4.94295 8.3834 4.91051 8.70091 4.88743C8.79143 4.88084 8.87149 4.87502 8.93546 4.87502C9.22384 4.87502 8.76719 4.53921 8.76719 4.53921C8.76719 4.53921 8.33835 4.53921 7.60605 4.2275C6.87375 3.9158 7.0144 3.06386 7.0144 3.06386C7.0144 3.06386 7.2329 2.75952 7.3784 3.06386C7.5239 3.36819 8.44821 4.13449 8.76719 4.13449C8.96587 4.13449 8.96063 4.0705 8.95625 4.01704C8.9536 3.98467 8.95126 3.95615 8.99469 3.94803C9.10985 3.9265 10.0388 4.24015 10.0388 4.24015C10.4166 4.26733 10.4749 4.82544 10.4749 5.15585C10.4749 5.48625 10.7537 5.7803 11.1831 5.7803C11.5046 5.7803 11.375 5.29811 11.2668 4.89574C11.2305 4.76087 11.1967 4.63497 11.1831 4.53921C11.1287 4.15774 9.94159 3.93733 9.94159 3.93733C9.52154 3.87083 9.58985 3.63067 9.58985 3.63067C9.74774 3.62489 9.97834 3.52984 9.97834 3.52984C10.2316 3.47288 8.93546 3.34622 8.93546 3.34622C8.6482 3.31983 8.76719 2.97207 8.76719 2.97207C8.76719 2.81469 8.8913 2.89849 9.06849 3.01814C9.23816 3.1327 9.45651 3.28014 9.66116 3.28014C10.0795 3.28014 9.53853 2.97207 9.38793 2.97207C9.36708 2.97207 9.35749 2.9715 9.35749 2.9715C9.35728 2.96799 9.72597 2.94264 10.0388 2.75952C10.233 2.64581 10.4106 2.71462 10.6392 2.80319C10.8378 2.88016 11.075 2.97207 11.3951 2.97207C11.7856 2.97207 11.7787 3.21275 11.77 3.51367C11.7634 3.74326 11.7558 4.00793 11.9229 4.2275C12.1967 4.58719 12.324 4.65736 12.375 4.66773Z" fill="#1A1A1A"/>
</g>
</svg>
