<svg width="24" height="18" viewBox="0 0 24 18" fill="none" xmlns="http://www.w3.org/2000/svg">
<mask id="mask0_395_55160" style="mask-type:luminance" maskUnits="userSpaceOnUse" x="0" y="0" width="24" height="18">
<rect width="24" height="18" fill="white"/>
</mask>
<g mask="url(#mask0_395_55160)">
<path fill-rule="evenodd" clip-rule="evenodd" d="M0 0V18H24V0H0Z" fill="#1D1D1D"/>
<mask id="mask1_395_55160" style="mask-type:luminance" maskUnits="userSpaceOnUse" x="0" y="0" width="24" height="18">
<path fill-rule="evenodd" clip-rule="evenodd" d="M0 0V18H24V0H0Z" fill="white"/>
</mask>
<g mask="url(#mask1_395_55160)">
<path fill-rule="evenodd" clip-rule="evenodd" d="M0 0V9H24V0H0Z" fill="#F50100"/>
<path d="M9.47675 4.06801C9.76001 4.22174 10.0213 4.38786 10.2604 4.56635L10.7434 4.1131L11.4449 4.86157L11.0315 5.27048C11.2479 5.51496 11.4333 5.77644 11.5872 6.05489L12.1395 5.84092L12.5095 6.79768L11.9757 7.02078C11.9932 7.08568 12.0093 7.15129 12.024 7.21762C12.08 7.46954 12.1191 7.71592 12.142 7.95684L12.7792 7.97713L12.746 9.00241L12.1389 8.99906C12.1052 9.31783 12.0411 9.6259 11.9486 9.92354L12.5475 10.1879L12.1326 11.1261L11.5369 10.8816C11.4096 11.1114 11.2687 11.3243 11.1099 11.532C11.821 11.9871 12.318 12.3043 12.318 12.3043C12.318 12.3043 13.7606 13.1934 14.0336 13.4531C14.3065 13.7128 14.0336 13.9361 14.0336 13.9361C14.0336 13.9361 13.6834 14.181 13.5479 14.181C13.4123 14.181 13.0907 13.9092 12.9361 13.678C12.7815 13.4469 11.695 13.4531 11.695 13.4531C11.695 13.4531 11.0216 13.0877 10.1112 12.5875C9.93625 12.7301 9.74751 12.862 9.54823 12.9808L9.76886 13.5503L8.8121 13.9203L8.60137 13.4161C8.29397 13.5193 7.9758 13.5914 7.65534 13.6265L7.63737 14.191L6.61209 14.1578L6.61515 13.6027C6.59238 13.5989 6.56965 13.5949 6.54695 13.5907C6.25275 13.5361 5.9655 13.4668 5.68529 13.3831L5.43129 13.9584L4.49311 13.5435L4.70829 13.0192C4.40954 12.8846 4.12 12.7312 3.83981 12.5591L4.41391 11.62C5.12088 12.0542 5.89751 12.3499 6.74715 12.5077C7.50217 12.648 8.36132 12.4209 9.04373 11.9986C7.57739 11.1862 5.95115 10.2696 5.44213 9.9231C4.44769 9.24624 5.71058 7.39483 5.71058 7.39483C5.71058 7.39483 5.72933 7.99911 6.20815 8.35488C6.48826 8.56301 8.53159 9.87922 10.1793 10.9358C10.4049 10.6515 10.5833 10.3654 10.7335 10.0327C11.0736 9.27927 11.1689 8.43578 10.9515 7.45703C10.6409 6.05925 9.50259 5.04901 7.44976 4.42249L7.76983 3.36885C8.03472 3.44969 8.28799 3.53725 8.52954 3.63153L8.7838 3.05566L9.72199 3.47054L9.47675 4.06801Z" fill="#FFEA42"/>
<path d="M7.38462 7.09824L6.67249 7.59125L6.92372 6.76509L6.23238 6.24362L7.09977 6.22604L7.38462 5.41074L7.66947 6.22604L8.53686 6.24362L7.84552 6.76509L8.09674 7.59125L7.38462 7.09824Z" fill="#FFEA42"/>
</g>
</g>
</svg>
