<svg width="24" height="18" viewBox="0 0 24 18" fill="none" xmlns="http://www.w3.org/2000/svg">
<mask id="mask0_395_52967" style="mask-type:luminance" maskUnits="userSpaceOnUse" x="0" y="0" width="24" height="18">
<rect width="24" height="18" fill="white"/>
</mask>
<g mask="url(#mask0_395_52967)">
<path fill-rule="evenodd" clip-rule="evenodd" d="M0 0V18H24V0H0Z" fill="#AF0100"/>
<mask id="mask1_395_52967" style="mask-type:luminance" maskUnits="userSpaceOnUse" x="0" y="0" width="24" height="18">
<path fill-rule="evenodd" clip-rule="evenodd" d="M0 0V18H24V0H0Z" fill="white"/>
</mask>
<g mask="url(#mask1_395_52967)">
<path fill-rule="evenodd" clip-rule="evenodd" d="M15.7723 8.28204L22.4389 8.28204V15.0244C22.4389 15.0244 22.2319 15.9527 20.9487 16.5655C19.6654 17.1784 19.1056 17.1784 19.1056 17.1784C19.1056 17.1784 17.0615 16.6762 16.6389 16.2058C16.2163 15.7355 15.7723 15.5615 15.7723 14.7394C15.7723 13.9172 15.7723 8.28204 15.7723 8.28204Z" fill="white"/>
<mask id="mask2_395_52967" style="mask-type:luminance" maskUnits="userSpaceOnUse" x="15" y="8" width="8" height="10">
<path fill-rule="evenodd" clip-rule="evenodd" d="M15.7723 8.28204L22.4389 8.28204V15.0244C22.4389 15.0244 22.2319 15.9527 20.9487 16.5655C19.6654 17.1784 19.1056 17.1784 19.1056 17.1784C19.1056 17.1784 17.0615 16.6762 16.6389 16.2058C16.2163 15.7355 15.7723 15.5615 15.7723 14.7394C15.7723 13.9172 15.7723 8.28204 15.7723 8.28204Z" fill="white"/>
</mask>
<g mask="url(#mask2_395_52967)">
<path fill-rule="evenodd" clip-rule="evenodd" d="M19.1266 8.71564C19.1508 8.73896 19.179 8.7585 19.2145 8.75861L19.3629 8.67169C19.3613 8.68108 19.3302 8.86452 19.3736 8.85919C19.3808 8.85453 19.5129 8.76937 19.566 8.8172C19.566 8.8172 19.4053 9.0005 19.5983 9.00177C19.5983 9.00177 19.8409 8.96327 19.8199 9.07599C19.8157 9.08383 19.6391 9.41039 19.7145 9.43146L20.0152 9.42267C20.0122 9.42535 19.8142 9.59741 19.819 9.67072L19.9195 9.74982C19.9207 9.74689 19.9762 9.61264 20.0231 9.72443C20.0231 9.72443 20.0291 9.93014 19.9977 9.93048L19.7301 10.0154C19.7301 10.0154 19.7137 10.116 19.8092 10.116C19.8206 10.1113 20.0296 10.0256 20.0358 10.118C20.0341 10.1242 20.0062 10.2302 19.9938 10.3201C19.9938 10.3201 19.9803 10.6537 19.9781 10.6854C19.9812 10.6848 20.008 10.6875 20.1637 10.8709C20.1711 10.8756 20.5886 11.1381 20.6656 11.077C20.7428 11.0145 20.7235 10.721 21.0465 10.8211C21.3702 10.9216 21.4492 10.945 21.3678 11.077C21.2868 11.2081 20.9808 11.5195 20.9762 11.5242L20.7076 12.6033H21.2838C21.4573 12.6035 21.6164 12.6705 21.6471 12.8143C21.6776 12.9576 21.6861 13.2358 21.6861 13.2713C21.6861 13.3047 21.6463 13.4294 21.8053 13.4295C21.8053 13.4295 22.0806 13.4651 22.024 13.4852C22.024 13.4852 21.8293 13.4475 21.8277 13.619C21.8277 13.619 21.7524 13.6413 21.7887 13.8533C21.7887 13.8533 21.94 14.3183 21.8395 14.2225C21.8365 14.219 21.6334 13.9799 21.6334 13.8777C21.6286 13.8797 21.4864 13.9388 21.4908 14.0877C21.4834 14.0976 21.352 14.2681 21.3561 14.0916C21.3561 14.0916 21.592 13.6449 21.4606 13.7459C21.4581 13.7513 21.2894 14.114 21.2672 14.0584L20.6344 13.8875L20.3932 14.949C20.3959 14.9571 20.4612 15.1483 20.6344 15.1483C20.8112 15.1481 20.933 14.9578 21.0465 15.1483C21.16 15.3386 21.211 15.3563 21.2672 15.3563C21.3234 15.3563 21.3889 15.4291 21.3561 15.5408C21.3232 15.6526 21.1755 15.7371 21.1109 15.7371C21.0477 15.7379 21.2034 15.8854 21.0143 15.8856C20.8241 15.8856 20.8234 15.8407 20.6344 15.8406C20.4454 15.8406 20.2685 15.8584 20.2682 15.7371C20.2682 15.6154 20.0974 15.5091 19.9781 15.4178C19.8588 15.3262 19.5983 14.2947 19.5983 14.2947L19.1061 11.1951L19.0914 10.4754L19.0768 11.1951L18.5846 14.2947C18.5846 14.2947 18.324 15.3263 18.2047 15.4178C18.0854 15.5091 17.9147 15.6154 17.9147 15.7371C17.9143 15.8584 17.7374 15.8406 17.5484 15.8406C17.3595 15.8407 17.3587 15.8856 17.1686 15.8856C16.9795 15.8853 17.1352 15.7378 17.0719 15.7371C17.0074 15.7371 16.8596 15.6526 16.8268 15.5408C16.794 15.4291 16.8594 15.3563 16.9156 15.3563C16.9719 15.3563 17.0228 15.3386 17.1363 15.1483C17.2498 14.9578 17.3717 15.1481 17.5484 15.1483C17.7215 15.1483 17.7869 14.9573 17.7897 14.949L17.5484 13.8875L16.9156 14.0584C16.8934 14.114 16.7244 13.7505 16.7223 13.7459C16.5909 13.645 16.8268 14.0916 16.8268 14.0916C16.8308 14.2683 16.6993 14.0973 16.692 14.0877C16.6965 13.9384 16.5535 13.8794 16.5494 13.8777C16.5494 13.9802 16.3453 14.2202 16.3434 14.2225C16.2429 14.3183 16.3942 13.8533 16.3942 13.8533C16.429 13.6494 16.3613 13.6208 16.3561 13.619C16.3545 13.4475 16.1588 13.4852 16.1588 13.4852C16.1024 13.4651 16.3775 13.4295 16.3775 13.4295C16.5366 13.4294 16.4967 13.3047 16.4967 13.2713C16.4968 13.2358 16.5053 12.9576 16.5358 12.8143C16.5664 12.6703 16.7263 12.6033 16.9 12.6033H17.4752L17.2067 11.5242C17.2011 11.5186 16.896 11.2079 16.815 11.077C16.7337 10.9451 16.8126 10.9216 17.1363 10.8211C17.4593 10.721 17.4401 11.0144 17.5172 11.077C17.5941 11.138 18.0106 10.8763 18.0192 10.8709C18.1742 10.6883 18.2015 10.6848 18.2047 10.6854C18.2025 10.6537 18.1891 10.3201 18.1891 10.3201C18.1766 10.2301 18.1487 10.1241 18.1471 10.118C18.1534 10.023 18.3746 10.116 18.3746 10.116C18.4695 10.1157 18.4527 10.0154 18.4527 10.0154L18.1852 9.93048C18.1538 9.92995 18.1598 9.72443 18.1598 9.72443C18.2065 9.6128 18.2619 9.74645 18.2633 9.74982L18.3639 9.67072C18.3686 9.59714 18.1692 9.42412 18.1676 9.42267L18.4684 9.43146C18.544 9.41048 18.3669 9.0833 18.3629 9.07599C18.342 8.96391 18.5818 9.00133 18.5846 9.00177C18.7776 9.00053 18.6168 8.8172 18.6168 8.8172C18.6699 8.76944 18.8017 8.85431 18.8092 8.85919C18.8527 8.86452 18.8215 8.68099 18.8199 8.67169L18.9684 8.75861C19.0036 8.75852 19.0312 8.73872 19.0553 8.71564L19.0533 8.60724C19.0536 8.60797 19.0674 8.64046 19.0914 8.6756C19.1153 8.64064 19.1291 8.60832 19.1295 8.60724L19.1266 8.71564Z" fill="#CF142B"/>
<path fill-rule="evenodd" clip-rule="evenodd" d="M20.9586 14.9617C20.9666 14.9508 21.1189 14.744 21.152 14.7986C21.1847 14.8528 21.2052 15.1009 21.2291 15.0964C21.3024 15.0782 21.3248 14.6853 21.3248 14.6853C21.3257 14.6909 21.3982 15.1646 21.4293 15.0964C21.4601 15.0282 21.4616 14.6946 21.4889 14.6853C21.5704 14.6629 21.6511 14.9884 21.6539 14.9998C21.6541 14.988 21.6606 14.5454 21.7135 14.5974C21.766 14.6502 21.7643 14.9894 21.7643 14.9998C21.7643 14.9998 21.8168 15.0922 21.8336 15.0457C21.8612 14.9685 21.8705 14.705 21.8893 14.6853C21.9336 14.6418 22.0053 14.7521 22.0094 14.7585C22.0494 14.7514 22.0268 15.0846 22.0758 15.0457C22.162 14.977 22.3086 14.5756 22.2545 14.9998L22.4996 14.7585V17.491H15.6715V14.7585L15.9166 14.9998C15.8626 14.576 16.0091 14.9766 16.0953 15.0457C16.1443 15.0846 16.1222 14.7534 16.1617 14.7585C16.1645 14.7542 16.2371 14.6415 16.2819 14.6853C16.3008 14.7039 16.3099 14.9682 16.3375 15.0457C16.3542 15.0917 16.4059 15.0015 16.4069 14.9998C16.4068 14.9894 16.4058 14.6493 16.4586 14.5974C16.5115 14.5458 16.5171 14.9879 16.5172 14.9998C16.5196 14.9901 16.6006 14.6632 16.6823 14.6853C16.7098 14.6929 16.7118 15.0285 16.7428 15.0964C16.7741 15.165 16.8473 14.6853 16.8473 14.6853C16.8475 14.6883 16.8691 15.0778 16.942 15.0964C16.966 15.1024 16.9864 14.8532 17.0192 14.7986C17.0526 14.7433 17.2087 14.9552 17.2135 14.9617L17.3248 14.5085L17.6334 14.7585H20.5377L20.8463 14.5085L20.9586 14.9617Z" fill="#5DC852"/>
<path fill-rule="evenodd" clip-rule="evenodd" d="M19.4203 11.0644C19.4203 10.9234 20.2798 11.527 20.7699 11.5273C21.0134 11.5273 21.1046 11.4471 21.1352 11.3671V11.6884C21.1353 11.8498 21.2357 12.0956 21.1352 12.0956C21.0345 12.0957 20.5845 12.4126 20.5844 12.7773C20.5844 13.1421 21.1352 13.4423 21.1352 13.4423C21.1276 13.4687 20.7665 14.7286 20.4506 14.9228C20.1318 15.1182 20.0268 14.7267 20.0268 14.9228C20.0264 15.1189 19.75 15.3956 19.4203 15.5048C19.0904 15.614 19.4202 15.6836 19.4203 15.8017C19.4203 15.8964 19.1588 15.7614 19.0551 15.705C18.9512 15.7615 18.6908 15.8964 18.6908 15.8017C18.691 15.6837 19.02 15.6139 18.6908 15.5048C18.3611 15.3956 18.0838 15.1189 18.0834 14.9228C18.0834 14.7266 17.9786 15.1185 17.6596 14.9228C17.3434 14.7285 16.9819 13.4665 16.975 13.4423C16.975 13.4423 17.5258 13.1421 17.5258 12.7773C17.5257 12.4125 17.0756 12.0956 16.975 12.0956C16.8749 12.0953 16.9749 11.8496 16.975 11.6884V11.3671C17.0055 11.4471 17.0967 11.5273 17.3403 11.5273C17.8304 11.5272 18.6908 10.9234 18.6908 11.0644C18.6911 11.1847 18.814 11.0972 19.0004 11.0702C19.0045 11.067 19.0077 11.0645 19.0121 11.0644C19.0266 11.0644 19.0412 11.0654 19.0551 11.0663C19.0691 11.0654 19.0835 11.0644 19.0981 11.0644C19.1023 11.0644 19.1049 11.0674 19.1088 11.0702C19.2958 11.097 19.42 11.185 19.4203 11.0644ZM21.1352 11.205C21.1359 11.2069 21.1658 11.2871 21.1352 11.3671V11.205Z" fill="#4ABCE6"/>
<mask id="mask3_395_52967" style="mask-type:luminance" maskUnits="userSpaceOnUse" x="16" y="11" width="6" height="5">
<path fill-rule="evenodd" clip-rule="evenodd" d="M19.4203 11.0644C19.4203 10.9234 20.2798 11.527 20.7699 11.5273C21.0134 11.5273 21.1046 11.4471 21.1352 11.3671V11.6884C21.1353 11.8498 21.2357 12.0956 21.1352 12.0956C21.0345 12.0957 20.5845 12.4126 20.5844 12.7773C20.5844 13.1421 21.1352 13.4423 21.1352 13.4423C21.1276 13.4687 20.7665 14.7286 20.4506 14.9228C20.1318 15.1182 20.0268 14.7267 20.0268 14.9228C20.0264 15.1189 19.75 15.3956 19.4203 15.5048C19.0904 15.614 19.4202 15.6836 19.4203 15.8017C19.4203 15.8964 19.1588 15.7614 19.0551 15.705C18.9512 15.7615 18.6908 15.8964 18.6908 15.8017C18.691 15.6837 19.02 15.6139 18.6908 15.5048C18.3611 15.3956 18.0838 15.1189 18.0834 14.9228C18.0834 14.7266 17.9786 15.1185 17.6596 14.9228C17.3434 14.7285 16.9819 13.4665 16.975 13.4423C16.975 13.4423 17.5258 13.1421 17.5258 12.7773C17.5257 12.4125 17.0756 12.0956 16.975 12.0956C16.8749 12.0953 16.9749 11.8496 16.975 11.6884V11.3671C17.0055 11.4471 17.0967 11.5273 17.3403 11.5273C17.8304 11.5272 18.6908 10.9234 18.6908 11.0644C18.6911 11.1847 18.814 11.0972 19.0004 11.0702C19.0045 11.067 19.0077 11.0645 19.0121 11.0644C19.0266 11.0644 19.0412 11.0654 19.0551 11.0663C19.0691 11.0654 19.0835 11.0644 19.0981 11.0644C19.1023 11.0644 19.1049 11.0674 19.1088 11.0702C19.2958 11.097 19.42 11.185 19.4203 11.0644ZM21.1352 11.205C21.1359 11.2069 21.1658 11.2871 21.1352 11.3671V11.205Z" fill="white"/>
</mask>
<g mask="url(#mask3_395_52967)">
<path fill-rule="evenodd" clip-rule="evenodd" d="M16.8488 12.6696C16.8488 12.6696 18.4888 12.4949 19.4517 12.4949C20.4147 12.4949 19.8969 12.5542 20.267 12.5957C20.6371 12.6373 21.0087 12.6696 21.0087 12.6696V15.9643H16.8488V12.6696Z" fill="white"/>
<path fill-rule="evenodd" clip-rule="evenodd" d="M17.2386 12.2045C17.2386 12.2045 17.1046 11.9419 17.6483 11.848C18.192 11.754 18.3602 11.7145 18.5663 11.9595C18.7723 12.2045 19.1911 13.2593 18.8787 13.5428C18.5663 13.8262 18.3486 14.1245 18.225 14.0207C18.1014 13.917 18.3658 13.5428 17.7121 13.5428C17.0584 13.5428 16.8351 13.5428 16.8351 13.5428L17.2386 12.2045Z" fill="#FFDA3A"/>
<path fill-rule="evenodd" clip-rule="evenodd" d="M19.993 12.4588L18.8208 12.8182C18.8208 12.8182 18.9271 13.6182 18.6247 13.6182C18.3224 13.6182 18.1936 11.8864 18.1936 11.8864H18.0687L18.467 13.791L18.1936 13.968L19.0308 14.3401L20.4502 13.6182L19.993 12.4588Z" fill="#B35A1F"/>
</g>
<path fill-rule="evenodd" clip-rule="evenodd" d="M19.4203 11.0644C19.4203 10.9234 20.2798 11.527 20.7699 11.5273C20.9635 11.5273 21.0855 11.4893 21.1352 11.414V11.6884C21.1353 11.8498 21.2357 12.0956 21.1352 12.0956C21.0345 12.0957 20.5845 12.4126 20.5844 12.7773C20.5844 13.0205 20.7679 13.2425 21.1352 13.4423C20.8919 14.2982 20.6634 14.792 20.4506 14.9228C20.2796 15.0276 20.1697 14.9638 20.1049 14.912C20.0481 14.8661 20.0268 14.8335 20.0268 14.9228C20.0268 14.9298 20.0265 14.9371 20.0258 14.9443C20.0025 15.1425 19.7357 15.4003 19.4203 15.5048C19.0904 15.614 19.4202 15.6836 19.4203 15.8017C19.4203 15.8762 19.2983 15.8449 19.0551 15.7079C18.8119 15.8449 18.6908 15.8762 18.6908 15.8017C18.691 15.6837 19.02 15.6139 18.6908 15.5048C18.3752 15.4003 18.108 15.1421 18.0854 14.9482C18.0842 14.9368 18.0834 14.9297 18.0834 14.9228C18.0834 14.8335 18.062 14.8656 18.0082 14.9091C17.9405 14.9632 17.8307 15.0277 17.6596 14.9228C17.4468 14.792 17.2183 14.2983 16.975 13.4423C17.3423 13.2425 17.5258 13.0205 17.5258 12.7773C17.5257 12.4125 17.0756 12.0956 16.975 12.0956C16.8749 12.0953 16.9749 11.8496 16.975 11.6884V11.414C17.0246 11.4893 17.1466 11.5273 17.3403 11.5273C17.8304 11.5272 18.6908 10.9234 18.6908 11.0644C18.6911 11.183 18.8107 11.1004 18.9926 11.0722C18.9987 11.0667 19.0055 11.0645 19.0121 11.0644C19.0266 11.0644 19.0412 11.0644 19.0551 11.0653C19.069 11.0644 19.0836 11.0644 19.0981 11.0644C19.1048 11.0644 19.1114 11.0666 19.1176 11.0722C19.2997 11.1004 19.42 11.1831 19.4203 11.0644ZM19.4858 11.1337C19.4659 11.1801 19.4241 11.2069 19.3676 11.2069C19.3445 11.2069 19.32 11.2032 19.2875 11.1952C19.2712 11.1912 19.2134 11.1758 19.2055 11.1737C19.168 11.164 19.1371 11.1571 19.1059 11.1523L19.0834 11.1484C19.0732 11.1449 19.0662 11.145 19.06 11.1454C19.0439 11.145 19.0377 11.1447 19.0317 11.1444L19.0043 11.1523C18.9732 11.1571 18.942 11.1641 18.9047 11.1737C18.8958 11.1761 18.8385 11.1914 18.8227 11.1952C18.7902 11.2032 18.7657 11.2069 18.7426 11.2069C18.6861 11.2069 18.6442 11.1801 18.6244 11.1337C18.605 11.1404 18.58 11.1499 18.5502 11.163C18.4869 11.1909 18.1905 11.336 18.143 11.3583C18.0462 11.4038 17.9603 11.4416 17.8783 11.4745C17.6638 11.5606 17.4864 11.6073 17.3403 11.6073C17.2249 11.6073 17.1288 11.5926 17.0541 11.5644V11.6884C17.0541 11.7308 17.0481 11.7767 17.0375 11.8378C17.0353 11.8505 17.033 11.8631 17.0297 11.8808C17.0144 11.9638 17.0099 11.994 17.0092 12.0194C17.227 12.0591 17.6046 12.4515 17.6049 12.7773C17.6049 13.0425 17.4219 13.2766 17.0688 13.4814C17.2994 14.2784 17.5156 14.74 17.6996 14.8534C17.8048 14.9181 17.874 14.9105 17.9457 14.8573C17.9509 14.8529 18.0111 14.802 18.0326 14.7929C18.0791 14.7737 18.1302 14.7935 18.1508 14.8427C18.1597 14.8641 18.1625 14.8879 18.1625 14.9228C18.1627 15.0807 18.4192 15.3309 18.7143 15.4286C18.8907 15.487 18.9651 15.5724 18.8891 15.6825C18.8787 15.6975 18.8717 15.7068 18.8559 15.7216C18.9005 15.7013 18.9542 15.673 19.017 15.6376L19.0551 15.6161L19.0932 15.6376C19.1559 15.673 19.2097 15.7013 19.2543 15.7216C19.2386 15.7068 19.2315 15.6976 19.2211 15.6825C19.1451 15.5724 19.2196 15.487 19.3959 15.4286C19.691 15.3309 19.9485 15.0807 19.9487 14.9228C19.9487 14.8879 19.9505 14.8641 19.9594 14.8427C19.9799 14.7934 20.0311 14.7737 20.0776 14.7929C20.0998 14.8021 20.1652 14.8571 20.1654 14.8573C20.2372 14.9105 20.3054 14.9181 20.4106 14.8534C20.5946 14.7402 20.8117 14.2787 21.0424 13.4814C20.689 13.2765 20.5063 13.0426 20.5063 12.7773C20.5066 12.4517 20.8831 12.0594 21.101 12.0194C21.1003 11.994 21.0958 11.9638 21.0805 11.8808C21.0772 11.8631 21.0749 11.8505 21.0727 11.8378C21.0621 11.7767 21.057 11.7308 21.057 11.6884V11.5644C20.9823 11.5926 20.8854 11.6073 20.7699 11.6073C20.6239 11.6073 20.4471 11.5605 20.2328 11.4745C20.1507 11.4416 20.0642 11.4039 19.9672 11.3583C19.9196 11.3359 19.6229 11.1906 19.56 11.163C19.5301 11.1499 19.5052 11.1404 19.4858 11.1337Z" fill="#FFD129"/>
<path fill-rule="evenodd" clip-rule="evenodd" d="M22.4393 15.0242C22.3014 15.6429 21.8043 16.1567 20.9491 16.5652C20.0936 16.9738 19.4785 17.1785 19.1053 17.1785C17.7428 16.8437 16.9203 16.5194 16.6385 16.2059C16.216 15.7356 15.7723 15.5612 15.7723 14.7391V8.28204H22.4393V15.0242ZM15.9296 14.7401C15.9296 15.1798 16.042 15.4008 16.3563 15.7049C16.3903 15.7377 16.5184 15.8582 16.5184 15.8582C16.5874 15.9237 16.6409 15.976 16.6932 16.0311C16.7142 16.0531 16.734 16.0754 16.7538 16.0975C17.005 16.377 17.8033 16.693 19.1229 17.0184C19.4691 17.0117 20.0604 16.8129 20.8817 16.4207C21.6888 16.0352 22.1509 15.5627 22.2821 15.0067V8.44318H15.9296V14.7401Z" fill="black"/>
</g>
<rect width="13.5" height="10.5" fill="#2B409A"/>
<mask id="mask4_395_52967" style="mask-type:luminance" maskUnits="userSpaceOnUse" x="0" y="0" width="14" height="11">
<rect width="13.5" height="10.5" fill="white"/>
</mask>
<g mask="url(#mask4_395_52967)">
<path d="M-1.50317 9.74983L1.46754 11.0527L13.5674 1.41653L15.1344 -0.519623L11.9577 -0.955091L7.02241 3.19743L3.05003 5.99525L-1.50317 9.74983Z" fill="#F7FCFF"/>
<path d="M-1.0965 10.6627L0.416945 11.4188L14.5717 -0.699524H12.4467L-1.0965 10.6627Z" fill="#F50100"/>
<path d="M15.0032 9.74983L12.0325 11.0527L-0.0674362 1.41653L-1.63442 -0.519623L1.54233 -0.955091L6.47759 3.19743L10.45 5.99525L15.0032 9.74983Z" fill="#F7FCFF"/>
<path d="M14.9018 10.405L13.3884 11.1611L7.36111 5.9726L5.57416 5.39291L-1.78521 -0.512991H0.339834L7.69507 5.25273L9.64879 5.94784L14.9018 10.405Z" fill="#F50100"/>
<mask id="path-21-outside-1_395_52967" maskUnits="userSpaceOnUse" x="-2" y="-2" width="17" height="14" fill="black">
<rect fill="white" x="-2" y="-2" width="17" height="14"/>
<path fill-rule="evenodd" clip-rule="evenodd" d="M7.48838 0H5.98838V4.5H0V6H5.98838V10.5H7.48838V6H13.5V4.5H7.48838V0Z"/>
</mask>
<path fill-rule="evenodd" clip-rule="evenodd" d="M7.48838 0H5.98838V4.5H0V6H5.98838V10.5H7.48838V6H13.5V4.5H7.48838V0Z" fill="#F50100"/>
<path d="M5.98838 0V-1.5H4.48838V0H5.98838ZM7.48838 0H8.98838V-1.5H7.48838V0ZM5.98838 4.5V6H7.48838V4.5H5.98838ZM0 4.5V3H-1.5V4.5H0ZM0 6H-1.5V7.5H0V6ZM5.98838 6H7.48838V4.5H5.98838V6ZM5.98838 10.5H4.48838V12H5.98838V10.5ZM7.48838 10.5V12H8.98838V10.5H7.48838ZM7.48838 6V4.5H5.98838V6H7.48838ZM13.5 6V7.5H15V6H13.5ZM13.5 4.5H15V3H13.5V4.5ZM7.48838 4.5H5.98838V6H7.48838V4.5ZM5.98838 0V1.5H7.48838V0V-1.5H5.98838V0ZM5.98838 4.5H7.48838V0H5.98838H4.48838V4.5H5.98838ZM0 4.5V6H5.98838V4.5V3H0V4.5ZM0 6H1.5V4.5H0H-1.5V6H0ZM5.98838 6V4.5H0V6V7.5H5.98838V6ZM5.98838 10.5H7.48838V6H5.98838H4.48838V10.5H5.98838ZM7.48838 10.5V9H5.98838V10.5V12H7.48838V10.5ZM7.48838 6H5.98838V10.5H7.48838H8.98838V6H7.48838ZM13.5 6V4.5H7.48838V6V7.5H13.5V6ZM13.5 4.5H12V6H13.5H15V4.5H13.5ZM7.48838 4.5V6H13.5V4.5V3H7.48838V4.5ZM7.48838 0H5.98838V4.5H7.48838H8.98838V0H7.48838Z" fill="#F7FCFF" mask="url(#path-21-outside-1_395_52967)"/>
</g>
</g>
</g>
</svg>
