<svg width="24" height="18" viewBox="0 0 24 18" fill="none" xmlns="http://www.w3.org/2000/svg">
<mask id="mask0_395_50334" style="mask-type:luminance" maskUnits="userSpaceOnUse" x="0" y="0" width="24" height="18">
<rect width="24" height="18" fill="white"/>
</mask>
<g mask="url(#mask0_395_50334)">
<path fill-rule="evenodd" clip-rule="evenodd" d="M0 0V18H24V0H0Z" fill="#FFD221"/>
<mask id="mask1_395_50334" style="mask-type:luminance" maskUnits="userSpaceOnUse" x="0" y="0" width="24" height="18">
<path fill-rule="evenodd" clip-rule="evenodd" d="M0 0V18H24V0H0Z" fill="white"/>
</mask>
<g mask="url(#mask1_395_50334)">
<path d="M-2.30023 7.96141L-0.794239 4.5271L25.3258 15.9811L23.8198 19.4154L-2.30023 7.96141Z" fill="#313131"/>
<path d="M-2.2627 4.17677L-0.757334 0.742188L26.6616 12.7598L25.1562 16.1944L-2.2627 4.17677Z" fill="#FAF9F9"/>
<path fill-rule="evenodd" clip-rule="evenodd" d="M4.61233 7.10931C4.63124 7.11006 5.70054 7.15559 5.68851 7.8515C5.68893 8.37256 6.89358 8.84511 6.89358 9.14349C6.89378 9.44255 7.11676 12.4179 7.11917 12.4501C7.11917 12.4501 6.96176 12.7245 6.20999 12.7245C5.45824 12.7245 5.49808 12.291 5.49808 12.291C5.95355 11.7317 5.49808 9.29779 5.49808 9.29779C4.43428 7.99227 4.61233 7.10931 4.61233 7.10931ZM19.3887 7.10931C19.3905 7.11846 19.5604 7.999 18.502 9.29779C18.502 9.29779 18.0467 11.7313 18.502 12.291C18.502 12.291 18.5418 12.7245 17.7901 12.7245C17.0386 12.7245 16.8819 12.4501 16.8819 12.4501C16.8845 12.4152 17.1063 9.44241 17.1065 9.14349C17.1065 8.84511 18.3111 8.37256 18.3116 7.8515C18.2994 7.14938 19.3887 7.10931 19.3887 7.10931Z" fill="#CF1225"/>
<path fill-rule="evenodd" clip-rule="evenodd" d="M12.2014 4.85626V5.54767C12.208 5.54063 12.4888 5.24609 13.1106 5.12286C13.7399 4.99822 14.4517 5.73598 15.0041 5.96368C15.5564 6.19121 15.8137 5.96368 15.8137 5.96368C15.8137 5.96368 15.8141 6.15708 15.4035 6.45392C15.2204 6.5863 15.0108 6.56907 14.8342 6.51349C14.6801 6.40197 14.4455 6.31329 14.4455 6.31329C14.4455 6.31329 14.6147 6.44443 14.8342 6.51349C14.9709 6.61239 15.0446 6.72887 14.8332 6.82306C14.3905 7.02019 13.6509 6.47092 13.6281 6.45392C13.6537 6.47275 14.5776 7.15573 14.177 7.15607C13.77 7.15607 13.1106 6.62286 13.1106 6.62286C13.1106 6.62286 13.9101 7.39099 13.4797 7.51056C13.2049 7.58636 12.8768 7.18408 12.7238 6.94806C12.7261 6.91613 12.7139 6.87613 12.674 6.82306C12.6071 6.73393 12.6373 6.81455 12.7238 6.94806C12.7155 7.06491 12.4885 7.07758 12.4885 7.2547C12.4884 7.47967 12.3889 7.37324 12.3889 7.51056V7.68536L12.4885 7.83185C12.4885 7.83185 12.4883 8.06038 12.3889 8.242C12.2893 8.42364 12.3889 8.56728 12.4885 8.9129C12.5867 9.25391 12.3942 9.83342 12.3889 9.84943H12.4885C12.4885 9.84943 12.3889 9.92243 12.3889 10.2137C12.3889 10.5049 12.4885 10.6415 12.674 11.035C12.8583 11.4256 12.4941 11.9219 12.4885 11.9295C12.5019 11.9236 13.1089 11.6594 12.9856 11.9295C12.8896 12.1391 12.3642 12.3421 12.1252 12.4256V12.4656C12.1236 12.4651 12.102 12.4573 12.0656 12.4451C12.0298 12.4571 12.0087 12.4651 12.007 12.4656V12.4256C11.7681 12.3421 11.2426 12.1391 11.1467 11.9295C11.0233 11.6594 11.6303 11.9236 11.6438 11.9295C11.6382 11.9219 11.274 11.4256 11.4582 11.035C11.6438 10.6415 11.7434 10.5049 11.7434 10.2137C11.7434 9.92243 11.6438 9.84943 11.6438 9.84943H11.7434C11.738 9.83342 11.5455 9.25391 11.6438 8.9129C11.7434 8.56728 11.843 8.42364 11.7434 8.242C11.6439 8.06038 11.6438 7.83185 11.6438 7.83185L11.7434 7.68536C11.7434 7.68536 11.7434 7.64758 11.7434 7.51056C11.7434 7.37324 11.6439 7.47967 11.6438 7.2547C11.6438 7.07755 11.4157 7.06498 11.4074 6.94806C11.4942 6.81428 11.5252 6.73383 11.4582 6.82306C11.4184 6.87609 11.4052 6.91614 11.4074 6.94806C11.2544 7.18414 10.9272 7.58632 10.6526 7.51056C10.2222 7.39099 11.0217 6.62286 11.0217 6.62286C11.0217 6.62286 10.3622 7.15607 9.95529 7.15607C9.5547 7.15573 10.4786 6.47275 10.5041 6.45392C10.4814 6.47092 9.7418 7.02019 9.29904 6.82306C9.08802 6.72902 9.16079 6.6123 9.29709 6.51349C9.51702 6.44451 9.68674 6.31329 9.68674 6.31329C9.68674 6.31329 9.45122 6.40174 9.29709 6.51349C9.12063 6.56883 8.91155 6.58608 8.72873 6.45392C8.31812 6.15708 8.31857 5.96368 8.31857 5.96368C8.31857 5.96368 8.57587 6.19121 9.12814 5.96368C9.68058 5.73598 10.3924 4.99822 11.0217 5.12286C11.6435 5.24609 11.9243 5.54063 11.9309 5.54767V4.85626H12.2014ZM12.8899 2.75958L12.3362 2.90704L12.8899 3.38556L12.2004 3.21173V3.69513H12.8899L13.1203 4.82794L12.8537 4.63947L12.5871 4.82794L12.3205 4.63947L12.0529 4.82794L11.7785 4.63947L11.5031 4.82794L11.2287 4.63947L10.9543 4.82794L11.3 3.69513H11.9377V2.15607H12.0451L12.8899 2.75958Z" fill="#CF1225"/>
<path fill-rule="evenodd" clip-rule="evenodd" d="M8.42194 7.18353C8.42194 7.18353 7.52671 8.40125 7.62634 9.70233C7.72597 11.0034 8.78753 14.0306 11.9368 14.0306C11.9639 14.0306 11.9908 14.0298 12.0176 14.0298C15.3546 14.0298 16.3018 10.6921 16.3018 9.49189C16.3018 8.28124 15.5468 7.18353 15.5468 7.18353C15.5468 7.18353 15.635 8.80804 15.5468 9.49189C15.2807 11.5548 13.9811 12.5076 11.9952 12.5076C9.99696 12.5076 8.76047 11.5188 8.42194 9.49189C8.31249 8.83657 8.42194 7.18353 8.42194 7.18353Z" fill="#CF1225"/>
<path fill-rule="evenodd" clip-rule="evenodd" d="M6.79916 14.8134C6.79916 14.8134 6.96166 14.3481 7.16141 14.3481C7.36117 14.3481 6.77922 13.9442 7.16141 13.83C7.5436 13.7157 8.13172 14.2852 8.13172 13.7157C8.13172 13.1462 7.63436 12.8355 7.9998 12.8355C8.36525 12.8355 8.74651 12.7264 8.74651 12.7264C8.74651 12.7264 10.3014 14.3481 11.858 14.3481C13.4147 14.3481 15.2866 12.8355 15.2866 12.8355C15.2866 12.8355 15.9765 12.66 15.9765 12.9337C15.9765 13.2073 15.8252 13.6204 15.8252 13.6204C15.8252 13.6204 16.3086 13.5251 16.5546 13.6204C16.8005 13.7157 16.5546 14.1717 16.5546 14.1717V14.3481C16.5546 14.3481 17.1945 14.2072 17.1945 14.4593C17.1945 14.7115 16.8856 14.5675 16.2596 14.6395C15.6336 14.7115 15.396 15.2009 15.0028 15.2009C14.6095 15.2009 14.5248 14.8134 14.5248 14.8134C14.5248 14.8134 13.3061 15.474 11.858 15.474C10.41 15.474 9.53523 14.8134 9.53523 14.8134C9.53523 14.8134 9.67183 15.4916 9.20917 15.3462C8.74651 15.2009 8.27321 14.2792 7.71731 14.4593C7.16141 14.6395 6.79916 14.8134 6.79916 14.8134Z" fill="#CF1225"/>
<path fill-rule="evenodd" clip-rule="evenodd" d="M8.54072 11.0359C8.38968 11.1844 8.29536 11.2955 8.26045 11.3641C8.24201 11.4003 8.23497 11.3865 8.26436 11.3865C8.31716 11.3865 8.37323 11.3644 8.45772 11.3162C8.46841 11.3101 8.50437 11.2897 8.50752 11.2879C8.52695 11.2767 8.5415 11.2686 8.55537 11.2615C8.59531 11.2412 8.62745 11.2303 8.65889 11.2303C8.75038 11.2304 8.78771 11.3088 8.78779 11.449V11.618C8.78772 11.816 8.79367 11.9351 8.81319 12.0193C8.83204 12.1006 8.84566 12.112 8.88057 12.0936C8.90425 12.0811 8.93177 12.0597 8.96358 12.0301C8.98809 12.0072 9.0136 11.981 9.04756 11.9442C9.20023 11.7784 9.20279 11.7764 9.25362 11.7537C9.36572 11.7039 9.41763 11.7959 9.41768 11.9695C9.41768 12.2439 9.42826 12.4517 9.45381 12.5897C9.46497 12.6498 9.47851 12.6913 9.48897 12.7078C9.49986 12.6994 9.51558 12.6831 9.53291 12.657C9.73749 12.3496 10.1901 12.3045 10.1901 12.5604C10.1901 12.6091 10.1852 12.6226 10.1169 12.7899C10.1078 12.8122 10.1 12.8304 10.0935 12.8475C10.0623 12.9295 10.0488 12.9872 10.0534 13.0233C10.0571 13.0514 10.0727 13.0633 10.1286 13.0633C10.1962 13.0632 10.2527 13.0076 10.3239 12.8826C10.3345 12.8641 10.3686 12.8006 10.3708 12.7967C10.3898 12.7626 10.4049 12.7392 10.4196 12.7186C10.5266 12.5695 10.6401 12.626 10.7458 12.8758C10.7813 12.9598 10.8825 13.2056 10.9001 13.2469C10.9449 13.3521 10.9759 13.4127 11.0036 13.449C11.039 13.4955 11.0582 13.4958 11.1267 13.4373C11.1535 13.4143 11.1831 13.3919 11.2165 13.369C11.2499 13.346 11.362 13.2742 11.3815 13.2606C11.4113 13.2398 11.4262 13.2261 11.4294 13.2254C11.4249 13.2267 11.3979 13.2089 11.3347 13.1854C11.1466 13.1154 11.1163 12.9882 11.2673 12.9129C11.3596 12.867 11.5255 12.8377 11.6745 12.8377C11.7683 12.8378 11.8153 12.9018 11.8132 12.9969C11.8119 13.0516 11.8023 13.0923 11.7663 13.2274C11.7618 13.2445 11.7587 13.2572 11.7556 13.2693C11.7251 13.3879 11.7168 13.4587 11.7312 13.5008C11.7445 13.5398 11.7875 13.5549 11.8981 13.533C12.0759 13.4978 12.1441 13.4431 12.1608 13.3631C12.1655 13.3408 12.1657 13.321 12.1657 13.2772C12.1659 13.129 12.2077 13.0634 12.364 13.0633C12.5266 13.0633 12.6074 13.1347 12.6696 13.2801C12.6739 13.29 12.6774 13.3011 12.6853 13.3201C12.7097 13.3791 12.7259 13.4062 12.7487 13.4168C12.7456 13.4107 12.7426 13.4047 12.7409 13.4012C12.6458 13.2064 12.6913 13.0296 12.9772 12.8465C13.0878 12.7757 13.3979 12.5489 13.4431 12.5369C13.5165 12.5177 13.5575 12.5656 13.57 12.6463C13.5739 12.6715 13.5767 12.7029 13.5788 12.7498C13.5799 12.774 13.5829 12.8775 13.5837 12.8983C13.5926 13.1232 13.6404 13.3306 13.694 13.3963C13.7445 13.3556 13.7826 13.2605 13.819 13.1111C13.9029 12.7671 14.0222 12.4418 14.1423 12.2391C14.2096 12.1255 14.2762 12.0501 14.3444 12.0193C14.4337 11.9792 14.517 12.0174 14.573 12.119C14.662 12.2805 14.8001 12.432 14.9001 12.4705C14.9921 12.5059 15.0475 12.4305 15.0476 12.1502C15.0476 11.8352 15.0992 11.5801 15.1862 11.3807C15.2397 11.2582 15.2947 11.1796 15.3337 11.1414L15.4187 11.2332C15.413 11.2388 15.4009 11.2529 15.3845 11.2762C15.3556 11.317 15.326 11.3686 15.2985 11.4315C15.2186 11.6146 15.1706 11.8526 15.1706 12.1502C15.1705 12.5047 15.0536 12.6642 14.8571 12.5887C14.7246 12.5376 14.5674 12.3655 14.4655 12.1805C14.4387 12.1319 14.4201 12.1231 14.3942 12.1346C14.3548 12.1523 14.303 12.2113 14.2478 12.3045C14.135 12.4949 14.0193 12.8088 13.9382 13.1414C13.8534 13.4892 13.7283 13.6354 13.5993 13.4774C13.5232 13.3841 13.4715 13.1542 13.4616 12.9031C13.4608 12.8819 13.4568 12.7792 13.4558 12.7557C13.4541 12.7182 13.4523 12.6925 13.4499 12.6736C13.376 12.7219 13.1553 12.8812 13.0417 12.9539C12.8105 13.1019 12.7841 13.207 12.8513 13.3445C12.856 13.3542 12.8728 13.3865 12.8757 13.3924C12.8865 13.4142 12.892 13.4303 12.8942 13.4481C12.903 13.518 12.8531 13.5486 12.781 13.5486C12.6726 13.5486 12.6247 13.4938 12.573 13.369C12.565 13.3496 12.5602 13.34 12.5563 13.3309C12.5118 13.2269 12.4698 13.1893 12.364 13.1893C12.2898 13.1893 12.2889 13.1901 12.2888 13.2772C12.2887 13.3298 12.288 13.3558 12.281 13.3895C12.2527 13.5247 12.1438 13.6131 11.9216 13.657C11.7575 13.6895 11.6521 13.6514 11.6149 13.5418C11.5897 13.4671 11.5996 13.3804 11.6364 13.2371C11.6397 13.2245 11.6435 13.2116 11.6481 13.1942C11.6806 13.0723 11.6892 13.0337 11.6901 12.994C11.6908 12.9634 11.6908 12.9637 11.6745 12.9637C11.5426 12.9637 11.3942 12.9898 11.321 13.0262C11.3073 13.033 11.3018 13.0368 11.2985 13.035C11.3062 13.0351 11.3316 13.0504 11.3767 13.0672C11.4932 13.1106 11.5516 13.1543 11.5524 13.2244C11.5531 13.2799 11.5192 13.3173 11.4509 13.3651C11.4284 13.3808 11.3154 13.4524 11.2849 13.4734C11.2548 13.4941 11.229 13.5141 11.2058 13.534C11.0879 13.6348 10.9886 13.6357 10.906 13.5272C10.87 13.4799 10.8365 13.412 10.7878 13.2977C10.7698 13.2553 10.6685 13.0084 10.6335 12.9256C10.5594 12.7504 10.5516 12.7463 10.5183 12.7928C10.507 12.8085 10.4949 12.8292 10.4782 12.8592C10.4765 12.8623 10.4417 12.9263 10.4304 12.9461C10.3385 13.1074 10.255 13.1892 10.1286 13.1893C10.0149 13.1893 9.9448 13.1352 9.93233 13.0399C9.92409 12.9761 9.94075 12.9028 9.9792 12.8016C9.98614 12.7833 9.99413 12.7643 10.0036 12.741C10.0583 12.6071 10.067 12.5826 10.0671 12.5604C10.0671 12.4742 9.78477 12.502 9.63447 12.7274C9.56881 12.8261 9.49767 12.8677 9.42744 12.8201C9.37948 12.7876 9.3523 12.7194 9.33272 12.6141C9.30522 12.4658 9.29463 12.2519 9.29463 11.9695C9.29462 11.9274 9.29195 11.8967 9.28779 11.8777C9.26693 11.8913 9.23901 11.9208 9.1374 12.0311C9.10144 12.0701 9.0739 12.0984 9.04658 12.1238C9.0076 12.1602 8.97189 12.1875 8.93721 12.2059C8.81404 12.2708 8.72878 12.1984 8.69404 12.0486C8.67148 11.9514 8.66467 11.8262 8.66475 11.618V11.449C8.66472 11.3736 8.65949 11.3576 8.65889 11.3563C8.64176 11.3563 8.63581 11.3595 8.51826 11.4266C8.41645 11.4847 8.34414 11.5125 8.26436 11.5125C8.13815 11.5125 8.09178 11.4221 8.15108 11.3055C8.19399 11.2211 8.29553 11.1026 8.45576 10.9451L8.54072 11.0359ZM11.2985 13.0369L11.2976 13.0291C11.2959 13.028 11.2948 13.0274 11.2946 13.0272C11.2958 13.0322 11.2967 13.0355 11.2985 13.0369Z" fill="#F6E017"/>
<path fill-rule="evenodd" clip-rule="evenodd" d="M9.22943 13.7301C9.30788 13.9458 9.35402 14.0561 9.39838 14.1324C9.44841 14.2186 9.49494 14.2605 9.58881 14.3063C9.62328 14.3231 9.61859 14.321 9.74896 14.3766C9.84985 14.4197 9.93493 14.4973 10.0302 14.6158C10.0558 14.6477 10.1324 14.7477 10.1347 14.7506C10.1683 14.7938 10.1915 14.8197 10.2099 14.8336C10.2196 14.841 10.22 14.8416 10.2187 14.8424C10.2272 14.8372 10.2428 14.8136 10.2597 14.7682C10.2974 14.6666 10.2642 14.5875 10.1728 14.5055C10.1597 14.4938 10.0579 14.4152 10.0429 14.3932C10.008 14.3412 10.0378 14.2884 10.0917 14.274C10.116 14.2677 10.1519 14.2653 10.2089 14.2653C10.4075 14.2653 10.4621 14.3821 10.499 14.6803L10.4999 14.6852C10.5289 14.92 10.5579 14.9849 10.6581 14.985C10.7713 14.985 10.8405 14.9397 10.9609 14.8112C10.9739 14.7972 10.974 14.797 10.9872 14.7828C11.1405 14.6197 11.2483 14.5649 11.4286 14.6149C11.5725 14.6548 11.6339 14.7258 11.6484 14.8356C11.65 14.8477 11.6507 14.8568 11.6523 14.8776C11.6593 14.97 11.6762 14.985 11.8554 14.985C11.9913 14.985 12.1182 14.9919 12.2831 15.0065C12.2948 15.0075 12.4167 15.0185 12.4482 15.0211C12.5019 15.0255 12.5401 15.0279 12.5703 15.028C12.5917 15.028 12.6087 15.027 12.6201 15.025C12.6247 14.9889 12.6454 14.9632 12.7314 14.8658C12.7413 14.8546 12.7496 14.8459 12.7568 14.8375C12.797 14.79 12.8145 14.7577 12.8134 14.7526C12.8111 14.751 12.774 14.7389 12.6796 14.7389C12.5905 14.7389 12.5461 14.7276 12.538 14.6647C12.5313 14.612 12.5614 14.5863 12.6288 14.5504C12.7062 14.5093 12.8474 14.4558 13.0165 14.402C13.1794 14.3501 13.3516 14.3034 13.4824 14.276C13.5529 14.2612 13.6104 14.252 13.6523 14.2496C13.7322 14.2451 13.7792 14.2568 13.7792 14.3287C13.7798 14.3591 13.8643 14.4618 13.9482 14.5084C14.0487 14.5643 14.1196 14.5429 14.1689 14.4117C14.2408 14.2203 14.391 14.0136 14.537 13.8951C14.6154 13.8316 14.6876 13.7977 14.7499 13.8033C14.8341 13.811 14.8778 13.8827 14.8779 13.9918H14.7548C14.7548 13.9408 14.7483 13.9292 14.7392 13.9283C14.716 13.9263 14.6691 13.9485 14.6132 13.9938C14.4843 14.0983 14.348 14.2874 14.2841 14.4576C14.2066 14.6637 14.0518 14.7099 13.8896 14.6198C13.7901 14.5644 13.6951 14.4588 13.666 14.3756C13.6244 14.3779 13.5721 14.3863 13.5068 14.4C13.3803 14.4265 13.2119 14.4714 13.0527 14.5221C12.9475 14.5556 12.854 14.5895 12.7822 14.6188C12.8696 14.6314 12.9202 14.6641 12.9335 14.7252C12.9468 14.7865 12.9169 14.84 12.8495 14.9196C12.8417 14.9288 12.8337 14.9389 12.8232 14.9508C12.7653 15.0163 12.7423 15.0449 12.7411 15.0475C12.7411 15.1309 12.678 15.1539 12.5703 15.1539C12.5361 15.1539 12.4951 15.1518 12.4384 15.1471C12.4064 15.1445 12.2827 15.1334 12.2724 15.1324C12.1107 15.1181 11.9871 15.111 11.8554 15.111C11.6134 15.111 11.5424 15.047 11.5302 14.8873C11.5288 14.8689 11.5275 14.8612 11.5263 14.8522C11.5185 14.7932 11.4927 14.7637 11.3964 14.7369C11.2703 14.702 11.2006 14.7372 11.0751 14.8707C11.0625 14.8842 11.0629 14.885 11.0497 14.899C10.9081 15.0503 10.8142 15.111 10.6581 15.111C10.4817 15.1109 10.4243 15.0163 10.3876 14.7721C10.3842 14.7854 10.38 14.7994 10.3749 14.8131C10.3204 14.96 10.2338 15.0086 10.1367 14.9352C10.1071 14.9128 10.078 14.8811 10.038 14.8297C10.0348 14.8255 9.95969 14.7261 9.93549 14.6959C9.85174 14.5917 9.77947 14.5262 9.70111 14.4928C9.56778 14.436 9.57319 14.4387 9.53607 14.4205C9.42113 14.3644 9.35507 14.3056 9.29193 14.1969C9.24263 14.1119 9.19509 13.9964 9.1142 13.774L9.22943 13.7301ZM10.3447 14.5143C10.36 14.559 10.3721 14.6186 10.3837 14.6959L10.3847 14.7008C10.3885 14.7258 10.3923 14.7497 10.3964 14.7721C10.4269 14.6759 10.4054 14.5911 10.3447 14.5143ZM12.6376 14.61L12.6357 14.609H12.6337C12.6349 14.6093 12.6363 14.6095 12.6376 14.61Z" fill="#F6E017"/>
</g>
</g>
</svg>
