<svg width="24" height="18" viewBox="0 0 24 18" fill="none" xmlns="http://www.w3.org/2000/svg">
<mask id="mask0_395_53166" style="mask-type:luminance" maskUnits="userSpaceOnUse" x="0" y="0" width="24" height="18">
<rect width="24" height="18" fill="white"/>
</mask>
<g mask="url(#mask0_395_53166)">
<path fill-rule="evenodd" clip-rule="evenodd" d="M0 0H24V18H0V0Z" fill="white"/>
<path fill-rule="evenodd" clip-rule="evenodd" d="M0 8.2V0H12L0 8.2Z" fill="#FEDA00"/>
<path fill-rule="evenodd" clip-rule="evenodd" d="M0 18H24.0068V0L0 18Z" fill="#00268D"/>
<mask id="path-5-inside-1_395_53166" fill="white">
<path fill-rule="evenodd" clip-rule="evenodd" d="M7.41016 4.59863C9.01917 4.79065 10.2712 6.14024 10.3125 7.79102L11.0303 8.14941L10.2471 8.54004C9.9672 9.90742 8.84231 10.9657 7.44141 11.1465L7.01465 12L6.58789 11.1465C5.18758 10.9655 4.06233 9.90779 3.78223 8.54102L3 8.15039L3.71777 7.79102C3.7588 6.14954 4.99683 4.80641 6.59277 4.60254L7.01465 3.75L7.41016 4.59863Z"/>
</mask>
<path fill-rule="evenodd" clip-rule="evenodd" d="M7.41016 4.59863C9.01917 4.79065 10.2712 6.14024 10.3125 7.79102L11.0303 8.14941L10.2471 8.54004C9.9672 9.90742 8.84231 10.9657 7.44141 11.1465L7.01465 12L6.58789 11.1465C5.18758 10.9655 4.06233 9.90779 3.78223 8.54102L3 8.15039L3.71777 7.79102C3.7588 6.14954 4.99683 4.80641 6.59277 4.60254L7.01465 3.75L7.41016 4.59863Z" fill="white"/>
<path d="M7.41016 4.59863L6.69229 4.9332L6.87853 5.33281L7.31631 5.38505L7.41016 4.59863ZM10.3125 7.79102L9.52075 7.8108L9.53264 8.28686L9.95869 8.49959L10.3125 7.79102ZM11.0303 8.14941L11.3838 8.85815L12.804 8.14982L11.3841 7.44083L11.0303 8.14941ZM10.2471 8.54004L9.89358 7.8313L9.54849 8.00342L9.47116 8.38123L10.2471 8.54004ZM7.44141 11.1465L7.34003 10.361L6.92167 10.415L6.73302 10.7923L7.44141 11.1465ZM7.01465 12L6.30626 12.3542L7.01465 13.771L7.72303 12.3542L7.01465 12ZM6.58789 11.1465L7.29628 10.7923L7.10768 10.4151L6.68943 10.361L6.58789 11.1465ZM3.78223 8.54102L4.5581 8.38201L4.48075 8.00458L4.13607 7.83245L3.78223 8.54102ZM3 8.15039L2.64542 7.4422L1.22911 8.15131L2.64616 8.85895L3 8.15039ZM3.71777 7.79102L4.07235 8.49921L4.49764 8.28627L4.50953 7.8108L3.71777 7.79102ZM6.59277 4.60254L6.69313 5.38815L7.1143 5.33435L7.30262 4.9538L6.59277 4.60254ZM7.01465 3.75L7.73251 3.41544L7.03604 1.92103L6.3048 3.39874L7.01465 3.75ZM7.41016 4.59863L7.31631 5.38505C8.53779 5.53082 9.48941 6.55677 9.52075 7.8108L10.3125 7.79102L11.1043 7.77123C11.0531 5.7237 9.50055 4.05048 7.50401 3.81221L7.41016 4.59863ZM10.3125 7.79102L9.95869 8.49959L10.6765 8.85799L11.0303 8.14941L11.3841 7.44083L10.6663 7.08244L10.3125 7.79102ZM11.0303 8.14941L10.6768 7.44067L9.89358 7.8313L10.2471 8.54004L10.6006 9.24878L11.3838 8.85815L11.0303 8.14941ZM10.2471 8.54004L9.47116 8.38123C9.25868 9.41932 8.403 10.2238 7.34003 10.361L7.44141 11.1465L7.54278 11.932C9.28162 11.7076 10.6757 10.3955 11.023 8.69885L10.2471 8.54004ZM7.44141 11.1465L6.73302 10.7923L6.30626 11.6458L7.01465 12L7.72303 12.3542L8.14979 11.5007L7.44141 11.1465ZM7.01465 12L7.72303 11.6458L7.29628 10.7923L6.58789 11.1465L5.8795 11.5007L6.30626 12.3542L7.01465 12ZM6.58789 11.1465L6.68943 10.361C5.62661 10.2236 4.77069 9.41934 4.5581 8.38201L3.78223 8.54102L3.00635 8.70002C3.35397 10.3962 4.74856 11.7073 6.48635 11.9319L6.58789 11.1465ZM3.78223 8.54102L4.13607 7.83245L3.35384 7.44183L3 8.15039L2.64616 8.85895L3.42839 9.24958L3.78223 8.54102ZM3 8.15039L3.35458 8.85858L4.07235 8.49921L3.71777 7.79102L3.36319 7.08282L2.64542 7.4422L3 8.15039ZM3.71777 7.79102L4.50953 7.8108C4.54069 6.56398 5.48146 5.54294 6.69313 5.38815L6.59277 4.60254L6.49242 3.81692C4.5122 4.06988 2.97691 5.73509 2.92602 7.77123L3.71777 7.79102ZM6.59277 4.60254L7.30262 4.9538L7.72449 4.10126L7.01465 3.75L6.3048 3.39874L5.88293 4.25128L6.59277 4.60254ZM7.01465 3.75L6.29678 4.08456L6.69229 4.9332L7.41016 4.59863L8.12802 4.26407L7.73251 3.41544L7.01465 3.75Z" fill="black" mask="url(#path-5-inside-1_395_53166)"/>
<path fill-rule="evenodd" clip-rule="evenodd" d="M7.03181 6.22461L6.54503 7.0414H5.58496L6.06369 7.89954L5.58496 8.72266H6.54503L7.03181 9.56246L7.526 8.72266H8.47744L8.01042 7.89954L8.47744 7.0414H7.526L7.03181 6.22461Z" fill="#F00A17"/>
</g>
</svg>
