<svg width="24" height="18" viewBox="0 0 24 18" fill="none" xmlns="http://www.w3.org/2000/svg">
<mask id="mask0_395_52674" style="mask-type:luminance" maskUnits="userSpaceOnUse" x="0" y="0" width="24" height="18">
<rect width="24" height="18" fill="white"/>
</mask>
<g mask="url(#mask0_395_52674)">
<path fill-rule="evenodd" clip-rule="evenodd" d="M0 0H24V18H0V0Z" fill="#73BE4A"/>
<path fill-rule="evenodd" clip-rule="evenodd" d="M0 0V12H24V0H0Z" fill="#AF0100"/>
<rect width="4.5" height="18" fill="#F7FCFF"/>
<path fill-rule="evenodd" clip-rule="evenodd" d="M2.48431 1.67773L1.42279 3.2373L0.332947 1.67773L1.42279 0.0429688L2.48431 1.67773ZM0.791931 1.67188L1.41791 2.56934L2.02924 1.67188L1.41791 0.731445L0.791931 1.67188ZM1.49994 1.93555H1.31244V1.54883H1.49994V1.93555Z" fill="#B20000"/>
<path fill-rule="evenodd" clip-rule="evenodd" d="M1.35931 3.88281L0.852478 4.5918L0.332947 3.88281L0.852478 3.13965L1.35931 3.88281ZM0.624939 3.87598L0.861267 4.21289L1.09564 3.89551L0.861267 3.52734L0.624939 3.87598Z" fill="#B20000"/>
<path fill-rule="evenodd" clip-rule="evenodd" d="M2.48431 3.88281L1.97748 4.5918L1.45795 3.88281L1.97748 3.13965L2.48431 3.88281ZM1.74994 3.87598L1.98627 4.21289L2.22064 3.89551L1.98627 3.52734L1.74994 3.87598Z" fill="#B20000"/>
<path fill-rule="evenodd" clip-rule="evenodd" d="M3.23431 3.88281L2.72748 4.5918L2.20795 3.88281L2.72748 3.13965L3.23431 3.88281ZM2.49994 3.87598L2.73627 4.21289L2.97064 3.89551L2.73627 3.52734L2.49994 3.87598Z" fill="#B20000"/>
<path fill-rule="evenodd" clip-rule="evenodd" d="M4.35931 3.88281L3.85248 4.5918L3.33295 3.88281L3.85248 3.13965L4.35931 3.88281ZM3.62494 3.87598L3.86127 4.21289L4.09564 3.89551L3.86127 3.52734L3.62494 3.87598Z" fill="#B20000"/>
<path fill-rule="evenodd" clip-rule="evenodd" d="M4.35931 1.67773L3.29779 3.2373L2.20795 1.67773L3.29779 0.0429688L4.35931 1.67773ZM2.66693 1.67188L3.29291 2.56934L3.90424 1.67188L3.29291 0.731445L2.66693 1.67188ZM3.37494 1.93555H3.18744V1.54883H3.37494V1.93555Z" fill="#B20000"/>
<path d="M1.24214 9.30501L0.027771 7.26573L0.347241 7.06302L1.22758 8.54136L2.30174 6.56738L3.4026 8.54607L4.18041 7.25508L4.49885 7.45952L3.38978 9.3003L2.30536 7.35115L1.24214 9.30501Z" fill="#B20000"/>
<path fill-rule="evenodd" clip-rule="evenodd" d="M0.562439 0.386719H0.764052V0.773816H0.562439V0.386719Z" fill="#B20000"/>
<path fill-rule="evenodd" clip-rule="evenodd" d="M2.25 0H2.45161V0.387097H2.25V0Z" fill="#B20000"/>
<path fill-rule="evenodd" clip-rule="evenodd" d="M3.93744 0.386719H4.13905V0.773816H3.93744V0.386719Z" fill="#B20000"/>
<path fill-rule="evenodd" clip-rule="evenodd" d="M0.749939 3.09668H0.562439V2.70996H0.749939V3.09668ZM2.43744 3.09668H2.24994V2.70996H2.43744V3.09668ZM4.12494 3.09668H3.93744V2.70996H4.12494V3.09668Z" fill="#B20000"/>
<path fill-rule="evenodd" clip-rule="evenodd" d="M0.749939 5.03223H0.562439V4.64551H0.749939V5.03223ZM2.43744 5.03223H2.24994V4.64551H2.43744V5.03223ZM4.12494 5.03223H3.93744V4.64551H4.12494V5.03223Z" fill="#B20000"/>
<path fill-rule="evenodd" clip-rule="evenodd" d="M4.22186 6.02734L2.93768 6.71582L3.33124 5.89844L3.18671 5.56641L2.34686 6.92773V7.08984L2.29706 7.00879L2.24725 7.08984V6.92773L1.40741 5.56641L1.26288 5.89844L1.65643 6.71582L0.372253 6.02734L1.40741 4.41016L2.29706 5.81934L3.18671 4.41016L4.22186 6.02734Z" fill="#B20000"/>
<path fill-rule="evenodd" clip-rule="evenodd" d="M2.4375 10.2578H2.25V9.87103H2.4375V10.2578ZM2.4375 9.09662H2.625V9.48431H2.4375V9.28998H2.25V9.48431H2.0625V9.09662H2.25V8.90326H2.4375V9.09662ZM0.5625 9.28998H0.375V8.90326H0.5625V9.28998ZM1.875 9.28998H1.6875V8.90326H1.875V9.28998ZM3 9.28998H2.8125V8.90326H3V9.28998ZM4.3125 9.28998H4.125V8.90326H4.3125V9.28998ZM2.25 8.90326H2.0625V8.51654H2.25V8.90326ZM2.625 8.90326H2.4375V8.51654H2.625V8.90326ZM2.4375 8.3222H2.25V7.93549H2.4375V8.3222Z" fill="#B20000"/>
<path fill-rule="evenodd" clip-rule="evenodd" d="M2.48431 16.3223L1.42279 14.7627L0.332947 16.3223L1.42279 17.957L2.48431 16.3223ZM0.791931 16.3281L1.41791 15.4307L2.02924 16.3281L1.41791 17.2686L0.791931 16.3281ZM1.49994 16.0645H1.31244V16.4512H1.49994V16.0645Z" fill="#B20000"/>
<path fill-rule="evenodd" clip-rule="evenodd" d="M1.35931 14.1172L0.852478 13.4082L0.332947 14.1172L0.852478 14.8604L1.35931 14.1172ZM0.624939 14.124L0.861267 13.7871L1.09564 14.1045L0.861267 14.4727L0.624939 14.124Z" fill="#B20000"/>
<path fill-rule="evenodd" clip-rule="evenodd" d="M2.48431 14.1172L1.97748 13.4082L1.45795 14.1172L1.97748 14.8604L2.48431 14.1172ZM1.74994 14.124L1.98627 13.7871L2.22064 14.1045L1.98627 14.4727L1.74994 14.124Z" fill="#B20000"/>
<path fill-rule="evenodd" clip-rule="evenodd" d="M3.23431 14.1172L2.72748 13.4082L2.20795 14.1172L2.72748 14.8604L3.23431 14.1172ZM2.49994 14.124L2.73627 13.7871L2.97064 14.1045L2.73627 14.4727L2.49994 14.124Z" fill="#B20000"/>
<path fill-rule="evenodd" clip-rule="evenodd" d="M4.35931 14.1172L3.85248 13.4082L3.33295 14.1172L3.85248 14.8604L4.35931 14.1172ZM3.62494 14.124L3.86127 13.7871L4.09564 14.1045L3.86127 14.4727L3.62494 14.124Z" fill="#B20000"/>
<path fill-rule="evenodd" clip-rule="evenodd" d="M4.35931 16.3223L3.29779 14.7627L2.20795 16.3223L3.29779 17.957L4.35931 16.3223ZM2.66693 16.3281L3.29291 15.4307L3.90424 16.3281L3.29291 17.2686L2.66693 16.3281ZM3.37494 16.0645H3.18744V16.4512H3.37494V16.0645Z" fill="#B20000"/>
<path d="M1.24214 8.69499L0.027771 10.7343L0.347241 10.937L1.22758 9.45864L2.30174 11.4326L3.4026 9.45393L4.18041 10.7449L4.49885 10.5405L3.38978 8.6997L2.30536 10.6488L1.24214 8.69499Z" fill="#B20000"/>
<path fill-rule="evenodd" clip-rule="evenodd" d="M0.562439 17.6133H0.764052V17.2262H0.562439V17.6133Z" fill="#B20000"/>
<path fill-rule="evenodd" clip-rule="evenodd" d="M2.25 18H2.45161V17.6129H2.25V18Z" fill="#B20000"/>
<path fill-rule="evenodd" clip-rule="evenodd" d="M3.93744 17.6133H4.13905V17.2262H3.93744V17.6133Z" fill="#B20000"/>
<path fill-rule="evenodd" clip-rule="evenodd" d="M0.749939 14.9033H0.562439V15.29H0.749939V14.9033ZM2.43744 14.9033H2.24994V15.29H2.43744V14.9033ZM4.12494 14.9033H3.93744V15.29H4.12494V14.9033Z" fill="#B20000"/>
<path fill-rule="evenodd" clip-rule="evenodd" d="M0.749939 12.9678H0.562439V13.3545H0.749939V12.9678ZM2.43744 12.9678H2.24994V13.3545H2.43744V12.9678ZM4.12494 12.9678H3.93744V13.3545H4.12494V12.9678Z" fill="#B20000"/>
<path fill-rule="evenodd" clip-rule="evenodd" d="M4.22211 12.083L2.93793 11.3945L3.33148 12.2119L3.18695 12.5439L2.34711 11.1826V11.0205L2.2973 11.1016L2.2475 11.0205V11.1826L1.40765 12.5439L1.26312 12.2119L1.65668 11.3945L0.372498 12.083L1.40765 13.7002L2.2973 12.291L3.18695 13.7002L4.22211 12.083Z" fill="#B20000"/>
</g>
</svg>
