<svg width="24" height="18" viewBox="0 0 24 18" fill="none" xmlns="http://www.w3.org/2000/svg">
<mask id="mask0_395_54766" style="mask-type:luminance" maskUnits="userSpaceOnUse" x="0" y="0" width="24" height="18">
<rect width="24" height="18" fill="white"/>
</mask>
<g mask="url(#mask0_395_54766)">
<path fill-rule="evenodd" clip-rule="evenodd" d="M0 0V18H24V0H0Z" fill="#2E42A5"/>
<mask id="mask1_395_54766" style="mask-type:luminance" maskUnits="userSpaceOnUse" x="0" y="0" width="24" height="18">
<path fill-rule="evenodd" clip-rule="evenodd" d="M0 0V18H24V0H0Z" fill="white"/>
</mask>
<g mask="url(#mask1_395_54766)">
<rect width="13.5" height="10.5" fill="#2B409A"/>
<mask id="mask2_395_54766" style="mask-type:luminance" maskUnits="userSpaceOnUse" x="0" y="0" width="14" height="11">
<rect width="13.5" height="10.5" fill="white"/>
</mask>
<g mask="url(#mask2_395_54766)">
<path d="M-1.5032 9.74983L1.46751 11.0527L13.5674 1.41653L15.1344 -0.519623L11.9576 -0.955091L7.02238 3.19743L3.05 5.99525L-1.5032 9.74983Z" fill="#F7FCFF"/>
<path d="M-1.0965 10.6627L0.416945 11.4188L14.5717 -0.699463H12.4467L-1.0965 10.6627Z" fill="#F50100"/>
<path d="M15.0032 9.74983L12.0325 11.0527L-0.0674362 1.41653L-1.63442 -0.519623L1.54233 -0.955091L6.47759 3.19743L10.45 5.99525L15.0032 9.74983Z" fill="#F7FCFF"/>
<path d="M14.9018 10.405L13.3884 11.1611L7.36111 5.97266L5.57416 5.39297L-1.78521 -0.51293H0.339834L7.69507 5.25279L9.64879 5.9479L14.9018 10.405Z" fill="#F50100"/>
<mask id="path-10-outside-1_395_54766" maskUnits="userSpaceOnUse" x="-2" y="-2" width="17" height="14" fill="black">
<rect fill="white" x="-2" y="-2" width="17" height="14"/>
<path fill-rule="evenodd" clip-rule="evenodd" d="M7.48838 0H5.98838V4.5H0V6H5.98838V10.5H7.48838V6H13.5V4.5H7.48838V0Z"/>
</mask>
<path fill-rule="evenodd" clip-rule="evenodd" d="M7.48838 0H5.98838V4.5H0V6H5.98838V10.5H7.48838V6H13.5V4.5H7.48838V0Z" fill="#F50100"/>
<path d="M5.98838 0V-1.5H4.48838V0H5.98838ZM7.48838 0H8.98838V-1.5H7.48838V0ZM5.98838 4.5V6H7.48838V4.5H5.98838ZM0 4.5V3H-1.5V4.5H0ZM0 6H-1.5V7.5H0V6ZM5.98838 6H7.48838V4.5H5.98838V6ZM5.98838 10.5H4.48838V12H5.98838V10.5ZM7.48838 10.5V12H8.98838V10.5H7.48838ZM7.48838 6V4.5H5.98838V6H7.48838ZM13.5 6V7.5H15V6H13.5ZM13.5 4.5H15V3H13.5V4.5ZM7.48838 4.5H5.98838V6H7.48838V4.5ZM5.98838 0V1.5H7.48838V0V-1.5H5.98838V0ZM5.98838 4.5H7.48838V0H5.98838H4.48838V4.5H5.98838ZM0 4.5V6H5.98838V4.5V3H0V4.5ZM0 6H1.5V4.5H0H-1.5V6H0ZM5.98838 6V4.5H0V6V7.5H5.98838V6ZM5.98838 10.5H7.48838V6H5.98838H4.48838V10.5H5.98838ZM7.48838 10.5V9H5.98838V10.5V12H7.48838V10.5ZM7.48838 6H5.98838V10.5H7.48838H8.98838V6H7.48838ZM13.5 6V4.5H7.48838V6V7.5H13.5V6ZM13.5 4.5H12V6H13.5H15V4.5H13.5ZM7.48838 4.5V6H13.5V4.5V3H7.48838V4.5ZM7.48838 0H5.98838V4.5H7.48838H8.98838V0H7.48838Z" fill="#F7FCFF" mask="url(#path-10-outside-1_395_54766)"/>
</g>
<path fill-rule="evenodd" clip-rule="evenodd" d="M18.6229 14.6522H19.1609L18.7381 15.0819L18.9012 15.7616L18.3748 15.3798L17.8309 15.7616L18.0145 15.0819L17.5311 14.6522H18.1619L18.3738 14.0975L18.6229 14.6522ZM16.8416 13.7469H17.3807L16.9578 14.1766L17.1209 14.8563L16.5945 14.4745L16.0496 14.8563L16.2342 14.1766L15.7508 13.7469H16.3817L16.5936 13.1923L16.8416 13.7469ZM20.534 13.7177H21.0721L20.6492 14.1473L20.8123 14.827L20.2859 14.4452L19.742 14.827L19.9256 14.1473L19.4422 13.7177H20.0731L20.285 13.163L20.534 13.7177ZM15.8924 12.0243H16.4305L16.0076 12.454L16.1717 13.1337L15.6443 12.7518L15.1004 13.1337L15.284 12.454L14.8006 12.0243H15.4324L15.6443 11.4696L15.8924 12.0243ZM21.2811 12.0116H21.8192L21.3963 12.4413L21.5604 13.121L21.034 12.7391L20.4891 13.121L20.6727 12.4413L20.1893 12.0116H20.8211L21.033 11.4569L21.2811 12.0116ZM16.577 10.2606H17.116L16.6922 10.6903L16.8563 11.37L16.3299 10.9882L15.785 11.37L15.9686 10.6903L15.4852 10.2606H16.117L16.3289 9.70593L16.577 10.2606ZM20.6512 10.2255H21.1902L20.7674 10.6552L20.9305 11.3348L20.4041 10.953L19.8592 11.3348L20.0438 10.6552L19.5604 10.2255H20.1912L20.4031 9.67078L20.6512 10.2255ZM18.5428 9.2821H19.0809L18.658 9.71179L18.8211 10.3915L18.2947 10.0096L17.7498 10.3915L17.9344 9.71179L17.451 9.2821H18.0818L18.2938 8.72742L18.5428 9.2821Z" fill="white"/>
</g>
</g>
</svg>
