<svg width="24" height="18" viewBox="0 0 24 18" fill="none" xmlns="http://www.w3.org/2000/svg">
<mask id="mask0_395_55538" style="mask-type:luminance" maskUnits="userSpaceOnUse" x="0" y="0" width="24" height="18">
<rect width="24" height="18" fill="white"/>
</mask>
<g mask="url(#mask0_395_55538)">
<path fill-rule="evenodd" clip-rule="evenodd" d="M0 0V18H24V0H0Z" fill="#4343DB"/>
<mask id="mask1_395_55538" style="mask-type:luminance" maskUnits="userSpaceOnUse" x="0" y="0" width="24" height="18">
<path fill-rule="evenodd" clip-rule="evenodd" d="M0 0V18H24V0H0Z" fill="white"/>
</mask>
<g mask="url(#mask1_395_55538)">
<path d="M25 9.5V13H-1V9.5H25Z" fill="#FA0000" stroke="#FAFDFF" stroke-width="2"/>
<g filter="url(#filter0_d_395_55538)">
<path fill-rule="evenodd" clip-rule="evenodd" d="M8.13867 15.585H8.67676L8.25391 16.0146L8.41797 16.6943L7.8916 16.3125L7.34668 16.6943L7.53027 16.0146L7.04688 15.585H7.67871L7.89062 15.0303L8.13867 15.585ZM5.88867 14.3848H6.42676L6.00391 14.8154L6.16797 15.4941L5.6416 15.1123L5.09668 15.4941L5.28027 14.8154L4.79688 14.3848H5.42871L5.64062 13.8301L5.88867 14.3848ZM10.3887 14.3848H10.9268L10.5039 14.8154L10.668 15.4941L10.1416 15.1123L9.59668 15.4941L9.78027 14.8154L9.29688 14.3848H9.92871L10.1406 13.8301L10.3887 14.3848ZM4.08887 12.585H4.62695L4.2041 13.0146L4.36816 13.6943L3.84082 13.3125L3.29688 13.6943L3.48047 13.0146L2.99707 12.585H3.62891L3.84082 12.0303L4.08887 12.585ZM12.1885 12.585H12.7275L12.3047 13.0146L12.4678 13.6943L11.9414 13.3125L11.3965 13.6943L11.5811 13.0146L11.0967 12.585H11.7285L11.9404 12.0303L12.1885 12.585ZM4.08887 9.58496H4.62695L4.2041 10.0146L4.36816 10.6943L3.84082 10.3125L3.29688 10.6943L3.48047 10.0146L2.99707 9.58496H3.62891L3.84082 9.03027L4.08887 9.58496ZM12.1885 9.58496H12.7275L12.3047 10.0146L12.4678 10.6943L11.9414 10.3125L11.3965 10.6943L11.5811 10.0146L11.0967 9.58496H11.7285L11.9404 9.03027L12.1885 9.58496ZM5.88867 7.78418H6.42676L6.00391 8.21484L6.16797 8.89453L5.6416 8.5127L5.09668 8.89453L5.28027 8.21484L4.79688 7.78418H5.42871L5.64062 7.23047L5.88867 7.78418ZM10.3887 7.78418H10.9268L10.5039 8.21484L10.668 8.89453L10.1416 8.5127L9.59668 8.89453L9.78027 8.21484L9.29688 7.78418H9.92871L10.1406 7.23047L10.3887 7.78418ZM8.13867 6.58496H8.67676L8.25391 7.01465L8.41797 7.69434L7.8916 7.3125L7.34668 7.69434L7.53027 7.01465L7.04688 6.58496H7.67871L7.89062 6.03027L8.13867 6.58496Z" fill="#FFDD00"/>
</g>
</g>
</g>
<defs>
<filter id="filter0_d_395_55538" x="-1.00293" y="2.03027" width="17.7305" height="18.6641" filterUnits="userSpaceOnUse" color-interpolation-filters="sRGB">
<feFlood flood-opacity="0" result="BackgroundImageFix"/>
<feColorMatrix in="SourceAlpha" type="matrix" values="0 0 0 0 0 0 0 0 0 0 0 0 0 0 0 0 0 0 127 0" result="hardAlpha"/>
<feOffset/>
<feGaussianBlur stdDeviation="2"/>
<feColorMatrix type="matrix" values="0 0 0 0 0 0 0 0 0 0 0 0 0 0 0 0 0 0 0.24 0"/>
<feBlend mode="normal" in2="BackgroundImageFix" result="effect1_dropShadow_395_55538"/>
<feBlend mode="normal" in="SourceGraphic" in2="effect1_dropShadow_395_55538" result="shape"/>
</filter>
</defs>
</svg>
