<svg width="24" height="18" viewBox="0 0 24 18" fill="none" xmlns="http://www.w3.org/2000/svg">
<mask id="mask0_395_53138" style="mask-type:luminance" maskUnits="userSpaceOnUse" x="0" y="0" width="24" height="18">
<rect width="24" height="18" fill="white"/>
</mask>
<g mask="url(#mask0_395_53138)">
<path fill-rule="evenodd" clip-rule="evenodd" d="M0 0V18H24V0H0Z" fill="#279E19"/>
<mask id="mask1_395_53138" style="mask-type:luminance" maskUnits="userSpaceOnUse" x="0" y="0" width="24" height="18">
<path fill-rule="evenodd" clip-rule="evenodd" d="M0 0V18H24V0H0Z" fill="white"/>
</mask>
<g mask="url(#mask1_395_53138)">
<path fill-rule="evenodd" clip-rule="evenodd" d="M12.75 0H14.25V9.75H24V11.25H14.25V18H12.75V11.25H0V9.75H12.75V0Z" fill="#F7FCFF"/>
<path fill-rule="evenodd" clip-rule="evenodd" d="M11.25 0H12.75V8.25H24V9.75H12.75V18H11.25V9.75H0V8.25H11.25V0Z" fill="#272727"/>
<path fill-rule="evenodd" clip-rule="evenodd" d="M9.75 0H11.25V6.75H24V8.25H11.25V18H9.75V8.25H0V6.75H9.75V0Z" fill="#FECA00"/>
<path fill-rule="evenodd" clip-rule="evenodd" d="M12 15C15.3137 15 18 12.3137 18 9C18 5.68629 15.3137 3 12 3C8.68629 3 6 5.68629 6 9C6 12.3137 8.68629 15 12 15Z" fill="#C51918"/>
<path fill-rule="evenodd" clip-rule="evenodd" d="M11.0444 6.30972C11.0444 6.30972 11.3294 5.38503 11.9914 5.86274C13.0294 6.37401 13.3718 6.96139 13.7726 7.62657C14.1733 8.29176 12.79 7.80459 12.5319 7.43021C12.2738 7.05583 10.8424 6.93444 11.0444 6.62208C11.2465 6.30972 11.0444 6.30972 11.0444 6.30972Z" fill="#804BFF"/>
<path fill-rule="evenodd" clip-rule="evenodd" d="M10.8097 11.0438C10.8097 11.0438 10.1049 12.0079 10.8097 12.0079C11.5144 12.0079 14.3717 11.8005 14.0292 11.5258C13.6868 11.2512 11.1483 11.5258 11.1483 11.5258L10.8097 11.0438Z" fill="#A95601"/>
<path fill-rule="evenodd" clip-rule="evenodd" d="M11.8637 11.0135C11.8205 10.9648 11.1773 10.5423 10.9265 9.57621C10.7531 8.90835 10.8595 7.65907 11.1035 7.41152C11.7006 6.8059 12.0504 7.16177 12.0504 8.0699C12.0504 8.97803 12.0863 11.2379 11.8637 11.0135Z" fill="#804BFF"/>
<path fill-rule="evenodd" clip-rule="evenodd" d="M11.7879 10.5413C11.7879 10.5413 11.7138 11.2496 12.0781 12.0765C12.4423 12.9033 13.1781 12.8874 13.1781 12.2106C13.1781 11.5339 13.715 12.169 13.9212 12.6206C14.1274 13.0723 13.5935 8.60986 12.8358 7.61152C12.0781 6.61318 11.347 6.54908 11.5675 7.19422C11.7879 7.83936 11.7879 10.5413 11.7879 10.5413Z" fill="#279E19"/>
<path fill-rule="evenodd" clip-rule="evenodd" d="M11.3455 5.70001C11.3455 5.70001 11.025 5.90554 11.025 6.47165C11.025 7.03776 11.7838 6.29637 11.7838 6.29637L11.3455 5.70001Z" fill="#FECA00"/>
<mask id="path-13-inside-1_395_53138" fill="white">
<path fill-rule="evenodd" clip-rule="evenodd" d="M12.4919 13.2889L13.1453 13.7723L12.3328 13.7791L12.075 14.5496L11.8171 13.7791L11.0046 13.7723L11.658 13.2889L11.4138 12.5145L12.075 12.9861L12.7361 12.5145L12.4919 13.2889ZM9.73218 12.2254L10.5437 12.2322L9.89136 12.7156L10.1355 13.4901L9.47437 13.0184L8.81323 13.4901L9.0564 12.7156L8.40405 12.2322L9.21655 12.2254L9.47437 11.4549L9.73218 12.2254ZM14.9333 12.2254L15.7458 12.2322L15.0935 12.7156L15.3376 13.4901L14.6755 13.0184L14.0144 13.4901L14.2585 12.7156L13.6062 12.2322L14.4177 12.2254L14.6755 11.4549L14.9333 12.2254ZM8.28394 10.2322L8.93628 10.7147L8.12476 10.7225L7.86694 11.492L7.60913 10.7225L6.79663 10.7147L7.44897 10.2322L7.20483 9.45685L7.86694 9.92853L8.52808 9.45685L8.28394 10.2322ZM16.7009 10.2322L17.3533 10.7147L16.5417 10.7225L16.283 11.492L16.0251 10.7225L15.2136 10.7147L15.866 10.2322L15.6218 9.45685L16.283 9.92853L16.9451 9.45685L16.7009 10.2322ZM8.12476 7.27814L8.93628 7.28497L8.28394 7.76837L8.52808 8.54279L7.86694 8.07208L7.20483 8.54279L7.44897 7.76837L6.79663 7.28497L7.60913 7.27814L7.86694 6.50763L8.12476 7.27814ZM16.5408 7.27716L17.3533 7.28497L16.7009 7.7674L16.9451 8.54279L16.283 8.07111L15.6218 8.54279L15.866 7.7674L15.2136 7.28497L16.0251 7.27716L16.283 6.50763L16.5408 7.27716ZM9.89136 5.28497L10.5437 5.76837L9.73218 5.77521L9.47437 6.54572L9.21655 5.77521L8.40405 5.76837L9.0564 5.28497L8.81226 4.51056L9.47437 4.98224L10.1355 4.51056L9.89136 5.28497ZM15.0935 5.284L15.7458 5.7674L14.9333 5.77521L14.6755 6.54474L14.4177 5.77521L13.6062 5.7674L14.2585 5.284L14.0144 4.50958L14.6755 4.98126L15.3367 4.50958L15.0935 5.284ZM12.3328 4.22052L13.1453 4.22736L12.4919 4.71075L12.7361 5.48517L12.075 5.01349L11.4138 5.48517L11.658 4.71075L11.0046 4.22736L11.8171 4.22052L12.075 3.45001L12.3328 4.22052Z"/>
</mask>
<path fill-rule="evenodd" clip-rule="evenodd" d="M12.4919 13.2889L13.1453 13.7723L12.3328 13.7791L12.075 14.5496L11.8171 13.7791L11.0046 13.7723L11.658 13.2889L11.4138 12.5145L12.075 12.9861L12.7361 12.5145L12.4919 13.2889ZM9.73218 12.2254L10.5437 12.2322L9.89136 12.7156L10.1355 13.4901L9.47437 13.0184L8.81323 13.4901L9.0564 12.7156L8.40405 12.2322L9.21655 12.2254L9.47437 11.4549L9.73218 12.2254ZM14.9333 12.2254L15.7458 12.2322L15.0935 12.7156L15.3376 13.4901L14.6755 13.0184L14.0144 13.4901L14.2585 12.7156L13.6062 12.2322L14.4177 12.2254L14.6755 11.4549L14.9333 12.2254ZM8.28394 10.2322L8.93628 10.7147L8.12476 10.7225L7.86694 11.492L7.60913 10.7225L6.79663 10.7147L7.44897 10.2322L7.20483 9.45685L7.86694 9.92853L8.52808 9.45685L8.28394 10.2322ZM16.7009 10.2322L17.3533 10.7147L16.5417 10.7225L16.283 11.492L16.0251 10.7225L15.2136 10.7147L15.866 10.2322L15.6218 9.45685L16.283 9.92853L16.9451 9.45685L16.7009 10.2322ZM8.12476 7.27814L8.93628 7.28497L8.28394 7.76837L8.52808 8.54279L7.86694 8.07208L7.20483 8.54279L7.44897 7.76837L6.79663 7.28497L7.60913 7.27814L7.86694 6.50763L8.12476 7.27814ZM16.5408 7.27716L17.3533 7.28497L16.7009 7.7674L16.9451 8.54279L16.283 8.07111L15.6218 8.54279L15.866 7.7674L15.2136 7.28497L16.0251 7.27716L16.283 6.50763L16.5408 7.27716ZM9.89136 5.28497L10.5437 5.76837L9.73218 5.77521L9.47437 6.54572L9.21655 5.77521L8.40405 5.76837L9.0564 5.28497L8.81226 4.51056L9.47437 4.98224L10.1355 4.51056L9.89136 5.28497ZM15.0935 5.284L15.7458 5.7674L14.9333 5.77521L14.6755 6.54474L14.4177 5.77521L13.6062 5.7674L14.2585 5.284L14.0144 4.50958L14.6755 4.98126L15.3367 4.50958L15.0935 5.284ZM12.3328 4.22052L13.1453 4.22736L12.4919 4.71075L12.7361 5.48517L12.075 5.01349L11.4138 5.48517L11.658 4.71075L11.0046 4.22736L11.8171 4.22052L12.075 3.45001L12.3328 4.22052Z" fill="#279E19"/>
<path d="M12.4919 13.2889L12.3966 13.2588L12.3751 13.3268L12.4325 13.3693L12.4919 13.2889ZM13.1453 13.7723L13.1461 13.8723L13.4451 13.8698L13.2047 13.6919L13.1453 13.7723ZM12.3328 13.7791L12.3319 13.6791L12.2606 13.6797L12.2379 13.7474L12.3328 13.7791ZM12.075 14.5496L11.9801 14.5814L12.075 14.8648L12.1698 14.5814L12.075 14.5496ZM11.8171 13.7791L11.912 13.7474L11.8893 13.6797L11.818 13.6791L11.8171 13.7791ZM11.0046 13.7723L10.9452 13.6919L10.7048 13.8698L11.0038 13.8723L11.0046 13.7723ZM11.658 13.2889L11.7174 13.3693L11.7748 13.3268L11.7533 13.2588L11.658 13.2889ZM11.4138 12.5145L11.4719 12.4331L11.2286 12.2595L11.3184 12.5445L11.4138 12.5145ZM12.075 12.9861L12.0169 13.0676L12.075 13.109L12.133 13.0676L12.075 12.9861ZM12.7361 12.5145L12.8315 12.5445L12.9213 12.2595L12.678 12.4331L12.7361 12.5145ZM9.73218 12.2254L9.63735 12.2571L9.65999 12.3248L9.73134 12.3254L9.73218 12.2254ZM10.5437 12.2322L10.6032 12.3126L10.8432 12.1348L10.5445 12.1322L10.5437 12.2322ZM9.89136 12.7156L9.83182 12.6353L9.77455 12.6777L9.79598 12.7457L9.89136 12.7156ZM10.1355 13.4901L10.0774 13.5715L10.3207 13.7451L10.2309 13.46L10.1355 13.4901ZM9.47437 13.0184L9.53244 12.937L9.47437 12.8955L9.41629 12.937L9.47437 13.0184ZM8.81323 13.4901L8.71783 13.4601L8.62845 13.7447L8.87131 13.5715L8.81323 13.4901ZM9.0564 12.7156L9.1518 12.7456L9.17313 12.6777L9.11593 12.6353L9.0564 12.7156ZM8.40405 12.2322L8.40321 12.1322L8.10454 12.1348L8.34452 12.3126L8.40405 12.2322ZM9.21655 12.2254L9.21739 12.3254L9.28874 12.3248L9.31138 12.2571L9.21655 12.2254ZM9.47437 11.4549L9.5692 11.4232L9.47437 11.1397L9.37953 11.4232L9.47437 11.4549ZM14.9333 12.2254L14.8385 12.2571L14.8612 12.3248L14.9325 12.3254L14.9333 12.2254ZM15.7458 12.2322L15.8054 12.3126L16.0454 12.1348L15.7467 12.1322L15.7458 12.2322ZM15.0935 12.7156L15.034 12.6353L14.9767 12.6777L14.9981 12.7457L15.0935 12.7156ZM15.3376 13.4901L15.2796 13.5715L15.5228 13.7447L15.433 13.46L15.3376 13.4901ZM14.6755 13.0184L14.7336 12.9369L14.6755 12.8956L14.6175 12.937L14.6755 13.0184ZM14.0144 13.4901L13.919 13.46L13.8292 13.7451L14.0725 13.5715L14.0144 13.4901ZM14.2585 12.7156L14.3539 12.7457L14.3753 12.6777L14.3181 12.6353L14.2585 12.7156ZM13.6062 12.2322L13.6054 12.1322L13.3067 12.1348L13.5467 12.3126L13.6062 12.2322ZM14.4177 12.2254L14.4186 12.3254L14.4899 12.3248L14.5126 12.2571L14.4177 12.2254ZM14.6755 11.4549L14.7704 11.4232L14.6755 11.1397L14.5807 11.4232L14.6755 11.4549ZM8.28394 10.2322L8.18855 10.2022L8.16713 10.2702L8.22448 10.3126L8.28394 10.2322ZM8.93628 10.7147L8.93724 10.8147L9.23579 10.8118L8.99574 10.6343L8.93628 10.7147ZM8.12476 10.7225L8.12379 10.6225L8.05256 10.6232L8.02994 10.6907L8.12476 10.7225ZM7.86694 11.492L7.77212 11.5238L7.86694 11.8068L7.96176 11.5238L7.86694 11.492ZM7.60913 10.7225L7.70395 10.6907L7.68132 10.6232L7.61009 10.6225L7.60913 10.7225ZM6.79663 10.7147L6.73717 10.6343L6.49711 10.8118L6.79567 10.8147L6.79663 10.7147ZM7.44897 10.2322L7.50843 10.3126L7.56578 10.2702L7.54436 10.2022L7.44897 10.2322ZM7.20483 9.45685L7.26286 9.3754L7.01984 9.20228L7.10945 9.48688L7.20483 9.45685ZM7.86694 9.92853L7.80892 10.01L7.86699 10.0513L7.92502 10.0099L7.86694 9.92853ZM8.52808 9.45685L8.62346 9.48688L8.71317 9.20195L8.47 9.37544L8.52808 9.45685ZM16.7009 10.2322L16.6055 10.2022L16.5841 10.2702L16.6415 10.3126L16.7009 10.2322ZM17.3533 10.7147L17.3542 10.8147L17.6528 10.8118L17.4127 10.6343L17.3533 10.7147ZM16.5417 10.7225L16.5408 10.6225L16.4696 10.6232L16.447 10.6906L16.5417 10.7225ZM16.283 11.492L16.1881 11.5238L16.2828 11.8063L16.3777 11.5239L16.283 11.492ZM16.0251 10.7225L16.12 10.6907L16.0973 10.6232L16.0261 10.6225L16.0251 10.7225ZM15.2136 10.7147L15.1542 10.6343L14.9141 10.8118L15.2127 10.8147L15.2136 10.7147ZM15.866 10.2322L15.9254 10.3126L15.9828 10.2702L15.9614 10.2022L15.866 10.2322ZM15.6218 9.45685L15.6799 9.37544L15.4367 9.20195L15.5264 9.48688L15.6218 9.45685ZM16.283 9.92853L16.2249 10.0099L16.2829 10.0513L16.341 10.01L16.283 9.92853ZM16.9451 9.45685L17.0405 9.48688L17.1301 9.20228L16.887 9.3754L16.9451 9.45685ZM8.12476 7.27814L8.02992 7.30987L8.05256 7.37753L8.12391 7.37813L8.12476 7.27814ZM8.93628 7.28497L8.99582 7.36532L9.23579 7.18749L8.93712 7.18498L8.93628 7.28497ZM8.28394 7.76837L8.2244 7.68803L8.16713 7.73046L8.18856 7.79844L8.28394 7.76837ZM8.52808 8.54279L8.47008 8.62425L8.71317 8.79732L8.62345 8.51272L8.52808 8.54279ZM7.86694 8.07208L7.92494 7.99062L7.86699 7.94936L7.809 7.99058L7.86694 8.07208ZM7.20483 8.54279L7.10946 8.51272L7.01984 8.79699L7.26278 8.62429L7.20483 8.54279ZM7.44897 7.76837L7.54435 7.79844L7.56578 7.73046L7.50851 7.68803L7.44897 7.76837ZM6.79663 7.28497L6.79579 7.18498L6.49711 7.18749L6.73709 7.36532L6.79663 7.28497ZM7.60913 7.27814L7.60997 7.37813L7.68132 7.37753L7.70396 7.30987L7.60913 7.27814ZM7.86694 6.50763L7.96178 6.4759L7.86694 6.19248L7.77211 6.4759L7.86694 6.50763ZM16.5408 7.27716L16.446 7.30893L16.4686 7.37647L16.5398 7.37716L16.5408 7.27716ZM17.3533 7.28497L17.4127 7.36538L17.6528 7.18785L17.3542 7.18498L17.3533 7.28497ZM16.7009 7.7674L16.6415 7.68699L16.5841 7.7294L16.6055 7.79743L16.7009 7.7674ZM16.9451 8.54279L16.887 8.62423L17.1301 8.79735L17.0405 8.51275L16.9451 8.54279ZM16.283 8.07111L16.341 7.98966L16.2829 7.9483L16.2249 7.9897L16.283 8.07111ZM15.6218 8.54279L15.5264 8.51275L15.4367 8.79768L15.6799 8.62419L15.6218 8.54279ZM15.866 7.7674L15.9614 7.79743L15.9828 7.7294L15.9254 7.68699L15.866 7.7674ZM15.2136 7.28497L15.2127 7.18498L14.9141 7.18785L15.1542 7.36538L15.2136 7.28497ZM16.0251 7.27716L16.0261 7.37716L16.0973 7.37647L16.12 7.30893L16.0251 7.27716ZM16.283 6.50763L16.3778 6.47586L16.283 6.19284L16.1881 6.47586L16.283 6.50763ZM9.89136 5.28497L9.79598 5.25491L9.77455 5.32288L9.83182 5.36532L9.89136 5.28497ZM10.5437 5.76837L10.5445 5.86837L10.8432 5.86585L10.6032 5.68803L10.5437 5.76837ZM9.73218 5.77521L9.73134 5.67521L9.65999 5.67581L9.63735 5.74348L9.73218 5.77521ZM9.47437 6.54572L9.37953 6.57745L9.47437 6.86087L9.5692 6.57745L9.47437 6.54572ZM9.21655 5.77521L9.31138 5.74348L9.28874 5.67581L9.21739 5.67521L9.21655 5.77521ZM8.40405 5.76837L8.34452 5.68803L8.10454 5.86586L8.40321 5.86837L8.40405 5.76837ZM9.0564 5.28497L9.11593 5.36532L9.1732 5.32288L9.15177 5.25491L9.0564 5.28497ZM8.81226 4.51056L8.87028 4.42911L8.62712 4.25589L8.71688 4.54063L8.81226 4.51056ZM9.47437 4.98224L9.41634 5.06369L9.47441 5.10505L9.53244 5.06364L9.47437 4.98224ZM10.1355 4.51056L10.2309 4.54063L10.3207 4.25556L10.0774 4.42915L10.1355 4.51056ZM15.0935 5.284L14.9981 5.25404L14.9768 5.32196L15.034 5.36434L15.0935 5.284ZM15.7458 5.7674L15.7468 5.86739L16.0449 5.86452L15.8054 5.68705L15.7458 5.7674ZM14.9333 5.77521L14.9324 5.67521L14.8612 5.6759L14.8385 5.74344L14.9333 5.77521ZM14.6755 6.54474L14.5807 6.57651L14.6755 6.85953L14.7704 6.57651L14.6755 6.54474ZM14.4177 5.77521L14.5125 5.74344L14.4899 5.6759L14.4187 5.67521L14.4177 5.77521ZM13.6062 5.7674L13.5467 5.68705L13.3072 5.86452L13.6052 5.86739L13.6062 5.7674ZM14.2585 5.284L14.3181 5.36434L14.3753 5.32191L14.3539 5.25393L14.2585 5.284ZM14.0144 4.50958L14.0725 4.42818L13.8292 4.25458L13.919 4.53965L14.0144 4.50958ZM14.6755 4.98126L14.6175 5.06267L14.6755 5.1041L14.7336 5.06267L14.6755 4.98126ZM15.3367 4.50958L15.4321 4.53954L15.5215 4.25491L15.2786 4.42818L15.3367 4.50958ZM12.3328 4.22052L12.2379 4.25225L12.2606 4.31992L12.3319 4.32052L12.3328 4.22052ZM13.1453 4.22736L13.2047 4.30774L13.4451 4.12988L13.1461 4.12736L13.1453 4.22736ZM12.4919 4.71075L12.4325 4.63037L12.3751 4.67279L12.3966 4.74082L12.4919 4.71075ZM12.7361 5.48517L12.678 5.56657L12.9213 5.74017L12.8315 5.4551L12.7361 5.48517ZM12.075 5.01349L12.133 4.93208L12.075 4.89065L12.0169 4.93208L12.075 5.01349ZM11.4138 5.48517L11.3184 5.4551L11.2286 5.74017L11.4719 5.56657L11.4138 5.48517ZM11.658 4.71075L11.7533 4.74082L11.7748 4.67279L11.7174 4.63037L11.658 4.71075ZM11.0046 4.22736L11.0038 4.12736L10.7048 4.12988L10.9452 4.30774L11.0046 4.22736ZM11.8171 4.22052L11.818 4.32052L11.8893 4.31992L11.912 4.25225L11.8171 4.22052ZM12.075 3.45001L12.1698 3.41828L12.075 3.13486L11.9801 3.41828L12.075 3.45001ZM12.4919 13.2889L12.4325 13.3693L13.0858 13.8527L13.1453 13.7723L13.2047 13.6919L12.5514 13.2085L12.4919 13.2889ZM13.1453 13.7723L13.1444 13.6723L12.3319 13.6791L12.3328 13.7791L12.3336 13.8791L13.1461 13.8723L13.1453 13.7723ZM12.3328 13.7791L12.2379 13.7474L11.9801 14.5179L12.075 14.5496L12.1698 14.5814L12.4276 13.8108L12.3328 13.7791ZM12.075 14.5496L12.1698 14.5179L11.912 13.7474L11.8171 13.7791L11.7223 13.8108L11.9801 14.5814L12.075 14.5496ZM11.8171 13.7791L11.818 13.6791L11.0055 13.6723L11.0046 13.7723L11.0038 13.8723L11.8163 13.8791L11.8171 13.7791ZM11.0046 13.7723L11.0641 13.8527L11.7174 13.3693L11.658 13.2889L11.5985 13.2085L10.9452 13.6919L11.0046 13.7723ZM11.658 13.2889L11.7533 13.2588L11.5092 12.4844L11.4138 12.5145L11.3184 12.5445L11.5626 13.3189L11.658 13.2889ZM11.4138 12.5145L11.3557 12.5959L12.0169 13.0676L12.075 12.9861L12.133 12.9047L11.4719 12.4331L11.4138 12.5145ZM12.075 12.9861L12.133 13.0676L12.7942 12.5959L12.7361 12.5145L12.678 12.4331L12.0169 12.9047L12.075 12.9861ZM12.7361 12.5145L12.6407 12.4844L12.3966 13.2588L12.4919 13.2889L12.5873 13.3189L12.8315 12.5445L12.7361 12.5145ZM9.73218 12.2254L9.73134 12.3254L10.5429 12.3322L10.5437 12.2322L10.5445 12.1322L9.73302 12.1254L9.73218 12.2254ZM10.5437 12.2322L10.4842 12.1519L9.83182 12.6353L9.89136 12.7156L9.95089 12.796L10.6032 12.3126L10.5437 12.2322ZM9.89136 12.7156L9.79598 12.7457L10.0401 13.5201L10.1355 13.4901L10.2309 13.46L9.98673 12.6856L9.89136 12.7156ZM10.1355 13.4901L10.1936 13.4086L9.53244 12.937L9.47437 13.0184L9.41629 13.0998L10.0774 13.5715L10.1355 13.4901ZM9.47437 13.0184L9.41629 12.937L8.75515 13.4086L8.81323 13.4901L8.87131 13.5715L9.53244 13.0998L9.47437 13.0184ZM8.81323 13.4901L8.90864 13.52L9.1518 12.7456L9.0564 12.7156L8.96099 12.6857L8.71783 13.4601L8.81323 13.4901ZM9.0564 12.7156L9.11593 12.6353L8.46359 12.1519L8.40405 12.2322L8.34452 12.3126L8.99686 12.796L9.0564 12.7156ZM8.40405 12.2322L8.40489 12.3322L9.21739 12.3254L9.21655 12.2254L9.21571 12.1254L8.40321 12.1322L8.40405 12.2322ZM9.21655 12.2254L9.31138 12.2571L9.5692 11.4866L9.47437 11.4549L9.37953 11.4232L9.12172 12.1937L9.21655 12.2254ZM9.47437 11.4549L9.37953 11.4866L9.63735 12.2571L9.73218 12.2254L9.82701 12.1937L9.5692 11.4232L9.47437 11.4549ZM14.9333 12.2254L14.9325 12.3254L15.745 12.3322L15.7458 12.2322L15.7467 12.1322L14.9342 12.1254L14.9333 12.2254ZM15.7458 12.2322L15.6863 12.1519L15.034 12.6353L15.0935 12.7156L15.153 12.796L15.8054 12.3126L15.7458 12.2322ZM15.0935 12.7156L14.9981 12.7457L15.2423 13.5201L15.3376 13.4901L15.433 13.46L15.1889 12.6856L15.0935 12.7156ZM15.3376 13.4901L15.3957 13.4086L14.7336 12.9369L14.6755 13.0184L14.6175 13.0998L15.2796 13.5715L15.3376 13.4901ZM14.6755 13.0184L14.6175 12.937L13.9563 13.4086L14.0144 13.4901L14.0725 13.5715L14.7336 13.0998L14.6755 13.0184ZM14.0144 13.4901L14.1098 13.5201L14.3539 12.7457L14.2585 12.7156L14.1632 12.6856L13.919 13.46L14.0144 13.4901ZM14.2585 12.7156L14.3181 12.6353L13.6657 12.1519L13.6062 12.2322L13.5467 12.3126L14.199 12.796L14.2585 12.7156ZM13.6062 12.2322L13.607 12.3322L14.4186 12.3254L14.4177 12.2254L14.4169 12.1254L13.6054 12.1322L13.6062 12.2322ZM14.4177 12.2254L14.5126 12.2571L14.7704 11.4866L14.6755 11.4549L14.5807 11.4232L14.3229 12.1937L14.4177 12.2254ZM14.6755 11.4549L14.5807 11.4866L14.8385 12.2571L14.9333 12.2254L15.0282 12.1937L14.7704 11.4232L14.6755 11.4549ZM8.28394 10.2322L8.22448 10.3126L8.87682 10.7951L8.93628 10.7147L8.99574 10.6343L8.34339 10.1518L8.28394 10.2322ZM8.93628 10.7147L8.93532 10.6147L8.12379 10.6225L8.12476 10.7225L8.12572 10.8225L8.93724 10.8147L8.93628 10.7147ZM8.12476 10.7225L8.02994 10.6907L7.77212 11.4602L7.86694 11.492L7.96176 11.5238L8.21958 10.7542L8.12476 10.7225ZM7.86694 11.492L7.96176 11.4602L7.70395 10.6907L7.60913 10.7225L7.51431 10.7542L7.77212 11.5238L7.86694 11.492ZM7.60913 10.7225L7.61009 10.6225L6.79759 10.6147L6.79663 10.7147L6.79567 10.8147L7.60817 10.8225L7.60913 10.7225ZM6.79663 10.7147L6.85609 10.7951L7.50843 10.3126L7.44897 10.2322L7.38952 10.1518L6.73717 10.6343L6.79663 10.7147ZM7.44897 10.2322L7.54436 10.2022L7.30022 9.42682L7.20483 9.45685L7.10945 9.48688L7.35359 10.2623L7.44897 10.2322ZM7.20483 9.45685L7.14681 9.53829L7.80892 10.01L7.86694 9.92853L7.92496 9.84708L7.26286 9.3754L7.20483 9.45685ZM7.86694 9.92853L7.92502 10.0099L8.58615 9.53825L8.52808 9.45685L8.47 9.37544L7.80887 9.84712L7.86694 9.92853ZM8.52808 9.45685L8.43269 9.42682L8.18855 10.2022L8.28394 10.2322L8.37932 10.2623L8.62346 9.48688L8.52808 9.45685ZM16.7009 10.2322L16.6415 10.3126L17.2938 10.7951L17.3533 10.7147L17.4127 10.6343L16.7604 10.1518L16.7009 10.2322ZM17.3533 10.7147L17.3523 10.6147L16.5408 10.6225L16.5417 10.7225L16.5427 10.8225L17.3542 10.8147L17.3533 10.7147ZM16.5417 10.7225L16.447 10.6906L16.1882 11.4601L16.283 11.492L16.3777 11.5239L16.6365 10.7543L16.5417 10.7225ZM16.283 11.492L16.3778 11.4602L16.12 10.6907L16.0251 10.7225L15.9303 10.7542L16.1881 11.5238L16.283 11.492ZM16.0251 10.7225L16.0261 10.6225L15.2146 10.6147L15.2136 10.7147L15.2127 10.8147L16.0242 10.8225L16.0251 10.7225ZM15.2136 10.7147L15.2731 10.7951L15.9254 10.3126L15.866 10.2322L15.8065 10.1518L15.1542 10.6343L15.2136 10.7147ZM15.866 10.2322L15.9614 10.2022L15.7172 9.42682L15.6218 9.45685L15.5264 9.48688L15.7706 10.2623L15.866 10.2322ZM15.6218 9.45685L15.5637 9.53825L16.2249 10.0099L16.283 9.92853L16.341 9.84712L15.6799 9.37544L15.6218 9.45685ZM16.283 9.92853L16.341 10.01L17.0031 9.53829L16.9451 9.45685L16.887 9.3754L16.2249 9.84708L16.283 9.92853ZM16.9451 9.45685L16.8497 9.42682L16.6055 10.2022L16.7009 10.2322L16.7963 10.2623L17.0405 9.48688L16.9451 9.45685ZM8.12476 7.27814L8.12391 7.37813L8.93544 7.38497L8.93628 7.28497L8.93712 7.18498L8.1256 7.17814L8.12476 7.27814ZM8.93628 7.28497L8.87674 7.20463L8.2244 7.68803L8.28394 7.76837L8.34347 7.84872L8.99582 7.36532L8.93628 7.28497ZM8.28394 7.76837L8.18856 7.79844L8.4327 8.57285L8.52808 8.54279L8.62345 8.51272L8.37931 7.7383L8.28394 7.76837ZM8.52808 8.54279L8.58607 8.46132L7.92494 7.99062L7.86694 8.07208L7.80894 8.15355L8.47008 8.62425L8.52808 8.54279ZM7.86694 8.07208L7.809 7.99058L7.14689 8.46128L7.20483 8.54279L7.26278 8.62429L7.92489 8.15359L7.86694 8.07208ZM7.20483 8.54279L7.30021 8.57285L7.54435 7.79844L7.44897 7.76837L7.3536 7.7383L7.10946 8.51272L7.20483 8.54279ZM7.44897 7.76837L7.50851 7.68803L6.85617 7.20463L6.79663 7.28497L6.73709 7.36532L7.38944 7.84872L7.44897 7.76837ZM6.79663 7.28497L6.79747 7.38497L7.60997 7.37813L7.60913 7.27814L7.60829 7.17814L6.79579 7.18498L6.79663 7.28497ZM7.60913 7.27814L7.70396 7.30987L7.96178 6.53936L7.86694 6.50763L7.77211 6.4759L7.5143 7.24641L7.60913 7.27814ZM7.86694 6.50763L7.77211 6.53936L8.02992 7.30987L8.12476 7.27814L8.21959 7.24641L7.96178 6.4759L7.86694 6.50763ZM16.5408 7.27716L16.5398 7.37716L17.3523 7.38497L17.3533 7.28497L17.3542 7.18498L16.5417 7.17717L16.5408 7.27716ZM17.3533 7.28497L17.2938 7.20457L16.6415 7.68699L16.7009 7.7674L16.7604 7.8478L17.4127 7.36538L17.3533 7.28497ZM16.7009 7.7674L16.6055 7.79743L16.8497 8.57282L16.9451 8.54279L17.0405 8.51275L16.7963 7.73736L16.7009 7.7674ZM16.9451 8.54279L17.0031 8.46134L16.341 7.98966L16.283 8.07111L16.2249 8.15255L16.887 8.62423L16.9451 8.54279ZM16.283 8.07111L16.2249 7.9897L15.5637 8.46138L15.6218 8.54279L15.6799 8.62419L16.341 8.15251L16.283 8.07111ZM15.6218 8.54279L15.7172 8.57282L15.9614 7.79743L15.866 7.7674L15.7706 7.73736L15.5264 8.51275L15.6218 8.54279ZM15.866 7.7674L15.9254 7.68699L15.2731 7.20457L15.2136 7.28497L15.1542 7.36538L15.8065 7.8478L15.866 7.7674ZM15.2136 7.28497L15.2146 7.38497L16.0261 7.37716L16.0251 7.27716L16.0242 7.17717L15.2127 7.18498L15.2136 7.28497ZM16.0251 7.27716L16.12 7.30893L16.3778 6.5394L16.283 6.50763L16.1881 6.47586L15.9303 7.24539L16.0251 7.27716ZM16.283 6.50763L16.1881 6.5394L16.446 7.30893L16.5408 7.27716L16.6356 7.24539L16.3778 6.47586L16.283 6.50763ZM9.89136 5.28497L9.83182 5.36532L10.4842 5.84872L10.5437 5.76837L10.6032 5.68803L9.95089 5.20463L9.89136 5.28497ZM10.5437 5.76837L10.5429 5.66838L9.73134 5.67521L9.73218 5.77521L9.73302 5.8752L10.5445 5.86837L10.5437 5.76837ZM9.73218 5.77521L9.63735 5.74348L9.37953 6.51398L9.47437 6.54572L9.5692 6.57745L9.82701 5.80694L9.73218 5.77521ZM9.47437 6.54572L9.5692 6.51398L9.31138 5.74348L9.21655 5.77521L9.12172 5.80694L9.37953 6.57745L9.47437 6.54572ZM9.21655 5.77521L9.21739 5.67521L8.40489 5.66838L8.40405 5.76837L8.40321 5.86837L9.21571 5.8752L9.21655 5.77521ZM8.40405 5.76837L8.46359 5.84872L9.11593 5.36532L9.0564 5.28497L8.99686 5.20463L8.34452 5.68803L8.40405 5.76837ZM9.0564 5.28497L9.15177 5.25491L8.90763 4.48049L8.81226 4.51056L8.71688 4.54063L8.96102 5.31504L9.0564 5.28497ZM8.81226 4.51056L8.75423 4.59201L9.41634 5.06369L9.47437 4.98224L9.53239 4.90079L8.87028 4.42911L8.81226 4.51056ZM9.47437 4.98224L9.53244 5.06364L10.1936 4.59196L10.1355 4.51056L10.0774 4.42915L9.41629 4.90083L9.47437 4.98224ZM10.1355 4.51056L10.0401 4.48049L9.79598 5.25491L9.89136 5.28497L9.98673 5.31504L10.2309 4.54063L10.1355 4.51056ZM15.0935 5.284L15.034 5.36434L15.6863 5.84774L15.7458 5.7674L15.8054 5.68705L15.153 5.20365L15.0935 5.284ZM15.7458 5.7674L15.7449 5.6674L14.9324 5.67521L14.9333 5.77521L14.9343 5.8752L15.7468 5.86739L15.7458 5.7674ZM14.9333 5.77521L14.8385 5.74344L14.5807 6.51297L14.6755 6.54474L14.7704 6.57651L15.0282 5.80697L14.9333 5.77521ZM14.6755 6.54474L14.7704 6.51297L14.5125 5.74344L14.4177 5.77521L14.3229 5.80697L14.5807 6.57651L14.6755 6.54474ZM14.4177 5.77521L14.4187 5.67521L13.6072 5.6674L13.6062 5.7674L13.6052 5.86739L14.4168 5.8752L14.4177 5.77521ZM13.6062 5.7674L13.6657 5.84774L14.3181 5.36434L14.2585 5.284L14.199 5.20365L13.5467 5.68705L13.6062 5.7674ZM14.2585 5.284L14.3539 5.25393L14.1098 4.47952L14.0144 4.50958L13.919 4.53965L14.1632 5.31406L14.2585 5.284ZM14.0144 4.50958L13.9563 4.59099L14.6175 5.06267L14.6755 4.98126L14.7336 4.89986L14.0725 4.42818L14.0144 4.50958ZM14.6755 4.98126L14.7336 5.06267L15.3947 4.59099L15.3367 4.50958L15.2786 4.42818L14.6175 4.89986L14.6755 4.98126ZM15.3367 4.50958L15.2413 4.47962L14.9981 5.25404L15.0935 5.284L15.1889 5.31395L15.4321 4.53954L15.3367 4.50958ZM12.3328 4.22052L12.3319 4.32052L13.1444 4.32735L13.1453 4.22736L13.1461 4.12736L12.3336 4.12052L12.3328 4.22052ZM13.1453 4.22736L13.0858 4.14697L12.4325 4.63037L12.4919 4.71075L12.5514 4.79114L13.2047 4.30774L13.1453 4.22736ZM12.4919 4.71075L12.3966 4.74082L12.6407 5.51524L12.7361 5.48517L12.8315 5.4551L12.5873 4.68069L12.4919 4.71075ZM12.7361 5.48517L12.7942 5.40376L12.133 4.93208L12.075 5.01349L12.0169 5.09489L12.678 5.56657L12.7361 5.48517ZM12.075 5.01349L12.0169 4.93208L11.3557 5.40376L11.4138 5.48517L11.4719 5.56657L12.133 5.09489L12.075 5.01349ZM11.4138 5.48517L11.5092 5.51524L11.7533 4.74082L11.658 4.71075L11.5626 4.68069L11.3184 5.4551L11.4138 5.48517ZM11.658 4.71075L11.7174 4.63037L11.0641 4.14697L11.0046 4.22736L10.9452 4.30774L11.5985 4.79114L11.658 4.71075ZM11.0046 4.22736L11.0055 4.32735L11.818 4.32052L11.8171 4.22052L11.8163 4.12052L11.0038 4.12736L11.0046 4.22736ZM11.8171 4.22052L11.912 4.25225L12.1698 3.48174L12.075 3.45001L11.9801 3.41828L11.7223 4.18879L11.8171 4.22052ZM12.075 3.45001L11.9801 3.48174L12.2379 4.25225L12.3328 4.22052L12.4276 4.18879L12.1698 3.41828L12.075 3.45001Z" fill="#FECA00" mask="url(#path-13-inside-1_395_53138)"/>
</g>
</g>
</svg>
