<svg width="24" height="18" viewBox="0 0 24 18" fill="none" xmlns="http://www.w3.org/2000/svg">
<path fill-rule="evenodd" clip-rule="evenodd" d="M12 0H24V18H12V0Z" fill="#F7FCFF"/>
<path fill-rule="evenodd" clip-rule="evenodd" d="M0 0H12V18H0V0Z" fill="#36A400"/>
<path fill-rule="evenodd" clip-rule="evenodd" d="M12 4.12012C13.753 4.12012 15.3141 4.93878 16.3242 6.21387C15.5268 5.51856 14.4848 5.09674 13.3438 5.09668C10.8374 5.09668 8.80579 7.12843 8.80566 9.63477C8.80566 12.1412 10.8373 14.1729 13.3438 14.1729C14.4851 14.1728 15.5268 13.7504 16.3242 13.0547C15.3141 14.3301 13.7533 15.1494 12 15.1494C8.95434 15.1494 6.48535 12.6804 6.48535 9.63477C6.48536 6.58911 8.95435 4.12012 12 4.12012ZM15.3232 9.07422L17.041 9.69043L15.3232 10.4268V12.332L14.2715 10.6904L12.3477 11.3828L13.3643 9.69043L12.3477 8.09961L14.1816 8.60547L15.458 7.1582L15.3232 9.07422Z" fill="#FF0000"/>
</svg>
