<svg width="24" height="18" viewBox="0 0 24 18" fill="none" xmlns="http://www.w3.org/2000/svg">
<mask id="mask0_395_54307" style="mask-type:luminance" maskUnits="userSpaceOnUse" x="0" y="0" width="24" height="18">
<rect width="24" height="18" fill="white"/>
</mask>
<g mask="url(#mask0_395_54307)">
<path fill-rule="evenodd" clip-rule="evenodd" d="M0 0V18H24V0H0Z" fill="#2E42A5"/>
<mask id="mask1_395_54307" style="mask-type:luminance" maskUnits="userSpaceOnUse" x="0" y="0" width="24" height="18">
<path fill-rule="evenodd" clip-rule="evenodd" d="M0 0V18H24V0H0Z" fill="white"/>
</mask>
<g mask="url(#mask1_395_54307)">
<path d="M22.2172 7.77454C22.314 9.56 22.345 11.2857 21.9984 12.5802C21.8186 13.2515 21.5434 13.7837 21.1439 14.1476C20.7495 14.5067 20.2112 14.7228 19.4623 14.7228C18.7008 14.7227 18.1796 14.543 17.8119 14.2374C17.442 13.93 17.1956 13.4688 17.0365 12.8429C16.877 12.2154 16.8111 11.4446 16.7865 10.5441C16.7638 9.71142 16.7757 8.78633 16.7777 7.77454H22.2172Z" fill="#6DC2FF" stroke="#F7FCFF" stroke-width="0.5"/>
<mask id="mask2_395_54307" style="mask-type:luminance" maskUnits="userSpaceOnUse" x="16" y="7" width="7" height="8">
<path d="M22.2172 7.77454C22.314 9.56 22.345 11.2857 21.9984 12.5802C21.8186 13.2515 21.5434 13.7837 21.1439 14.1476C20.7495 14.5067 20.2112 14.7228 19.4623 14.7228C18.7008 14.7227 18.1796 14.543 17.8119 14.2374C17.442 13.93 17.1956 13.4688 17.0365 12.8429C16.877 12.2154 16.8111 11.4446 16.7865 10.5441C16.7638 9.71142 16.7757 8.78633 16.7777 7.77454H22.2172Z" fill="white" stroke="white" stroke-width="0.5"/>
</mask>
<g mask="url(#mask2_395_54307)">
<path fill-rule="evenodd" clip-rule="evenodd" d="M18.3913 10.1899C18.3913 10.1899 18.0953 9.97096 17.9684 9.61627C17.8415 9.26159 17.5903 8.31739 17.5903 8.2354C17.5903 8.15341 17.2561 8.2354 17.2561 8.2354C17.2561 8.2354 17.2608 7.83612 17.3869 7.83612C17.513 7.83612 17.5177 7.46589 17.8237 7.55912C18.1297 7.65236 18.3703 7.99426 18.6822 7.99426C18.994 7.99426 20.2975 8.0937 20.507 8.0937C20.7165 8.0937 21.2688 8.53594 21.2688 8.86697C21.2688 9.198 21.1182 9.69121 20.9997 9.69121C20.8813 9.69121 20.7322 9.97817 20.507 9.88345C20.2818 9.78874 19.7441 9.59368 19.2625 9.69121C18.7808 9.78874 18.6822 9.72743 18.6822 9.88345C18.6822 10.0395 18.3913 10.1899 18.3913 10.1899Z" fill="#E1E5E8"/>
<path fill-rule="evenodd" clip-rule="evenodd" d="M17.7001 9.95911H21.5667L20.9008 10.8198H18.1687L17.7001 9.95911Z" fill="#49801E"/>
<path d="M17.6498 13.7218C17.6498 13.7218 18.318 13.9608 18.5973 13.9317C18.9066 13.8996 19.1805 13.547 19.3872 13.547C19.5935 13.547 19.9908 13.8997 20.2993 13.9317C20.579 13.9608 21.1246 13.7218 21.1246 13.7218" stroke="white" stroke-width="1.06667"/>
<path d="M16.9159 12.7023C17.147 12.5066 17.6498 12.4923 17.6498 12.4923C17.6498 12.4923 18.3181 12.7313 18.5974 12.7023C18.9066 12.6701 19.1805 12.3175 19.3872 12.3175C19.5935 12.3175 19.9908 12.6702 20.2993 12.7023C20.579 12.7313 21.1246 12.4923 21.1246 12.4923C21.1246 12.4923 21.4294 12.1495 21.8123 12.5115" stroke="white" stroke-width="1.06667"/>
<path d="M16.8455 11.647L16.3397 11.0271C16.538 10.8653 16.871 10.7058 17.3571 10.5296L17.593 10.5182C18.097 10.6477 18.4339 10.7038 18.5573 10.6915C18.598 10.6874 18.666 10.6543 18.7903 10.5719C19.1432 10.3378 19.1775 10.3187 19.387 10.3187C19.5785 10.3187 19.618 10.3371 20.0183 10.5533C20.0926 10.5931 20.1205 10.6076 20.1607 10.6269C20.2452 10.6675 20.3058 10.6881 20.339 10.6915C20.4352 10.7011 20.6287 10.6562 20.8995 10.5472C21.2516 10.2272 21.6977 10.2603 22.0815 10.6099C22.3375 10.8432 22.543 11.0316 22.6981 11.1753L22.1543 11.7621C22.0011 11.6201 21.7972 11.4331 21.5427 11.2013C21.4415 11.1091 21.4633 11.1097 21.4183 11.1584L21.28 11.2556C20.8598 11.4331 20.528 11.5144 20.2593 11.4875C20.115 11.473 19.9755 11.4254 19.8145 11.3481C19.7606 11.3222 19.7221 11.3022 19.6381 11.2572C19.4449 11.1528 19.3716 11.1187 19.387 11.1187C19.4207 11.1187 19.374 11.1447 19.2325 11.2386C19.0049 11.3895 18.8466 11.4665 18.6371 11.4875C18.4054 11.5107 18.0442 11.4548 17.5159 11.3238C17.1727 11.4536 16.9447 11.566 16.8455 11.647Z" fill="white"/>
</g>
<path d="M17.2225 13.7949C17.2225 13.7949 17.9605 14.5018 17.5148 14.9807C17.0692 15.4596 16.6606 15.1815 16.6606 15.1815" stroke="#B85F3C"/>
<path d="M21.7875 13.7949C21.7875 13.7949 21.0495 14.5018 21.4951 14.9807C21.9407 15.4596 22.3493 15.1815 22.3493 15.1815" stroke="#B85F3C"/>
<path d="M16.7407 14.3643C16.7407 14.3643 18.0121 15.5792 19.5751 15.5792C21.1381 15.5792 22.3958 14.651 22.3958 14.651" stroke="#CB8B73"/>
<rect width="13.5" height="10.5" fill="#2B409A"/>
<mask id="mask3_395_54307" style="mask-type:luminance" maskUnits="userSpaceOnUse" x="0" y="0" width="14" height="11">
<rect width="13.5" height="10.5" fill="white"/>
</mask>
<g mask="url(#mask3_395_54307)">
<path d="M-1.50317 9.74983L1.46754 11.0527L13.5674 1.41653L15.1344 -0.519623L11.9577 -0.955091L7.02241 3.19743L3.05003 5.99525L-1.50317 9.74983Z" fill="#F7FCFF"/>
<path d="M-1.0965 10.6627L0.416945 11.4188L14.5717 -0.699463H12.4467L-1.0965 10.6627Z" fill="#F50100"/>
<path d="M15.0032 9.74983L12.0325 11.0527L-0.0674362 1.41653L-1.63442 -0.519623L1.54233 -0.955091L6.47759 3.19743L10.45 5.99525L15.0032 9.74983Z" fill="#F7FCFF"/>
<path d="M14.9018 10.405L13.3884 11.1611L7.36111 5.97266L5.57416 5.39297L-1.78521 -0.51293H0.339834L7.69507 5.25279L9.64879 5.9479L14.9018 10.405Z" fill="#F50100"/>
<mask id="path-20-outside-1_395_54307" maskUnits="userSpaceOnUse" x="-2" y="-2" width="17" height="14" fill="black">
<rect fill="white" x="-2" y="-2" width="17" height="14"/>
<path fill-rule="evenodd" clip-rule="evenodd" d="M7.48838 0H5.98838V4.5H0V6H5.98838V10.5H7.48838V6H13.5V4.5H7.48838V0Z"/>
</mask>
<path fill-rule="evenodd" clip-rule="evenodd" d="M7.48838 0H5.98838V4.5H0V6H5.98838V10.5H7.48838V6H13.5V4.5H7.48838V0Z" fill="#F50100"/>
<path d="M5.98838 0V-1.5H4.48838V0H5.98838ZM7.48838 0H8.98838V-1.5H7.48838V0ZM5.98838 4.5V6H7.48838V4.5H5.98838ZM0 4.5V3H-1.5V4.5H0ZM0 6H-1.5V7.5H0V6ZM5.98838 6H7.48838V4.5H5.98838V6ZM5.98838 10.5H4.48838V12H5.98838V10.5ZM7.48838 10.5V12H8.98838V10.5H7.48838ZM7.48838 6V4.5H5.98838V6H7.48838ZM13.5 6V7.5H15V6H13.5ZM13.5 4.5H15V3H13.5V4.5ZM7.48838 4.5H5.98838V6H7.48838V4.5ZM5.98838 0V1.5H7.48838V0V-1.5H5.98838V0ZM5.98838 4.5H7.48838V0H5.98838H4.48838V4.5H5.98838ZM0 4.5V6H5.98838V4.5V3H0V4.5ZM0 6H1.5V4.5H0H-1.5V6H0ZM5.98838 6V4.5H0V6V7.5H5.98838V6ZM5.98838 10.5H7.48838V6H5.98838H4.48838V10.5H5.98838ZM7.48838 10.5V9H5.98838V10.5V12H7.48838V10.5ZM7.48838 6H5.98838V10.5H7.48838H8.98838V6H7.48838ZM13.5 6V4.5H7.48838V6V7.5H13.5V6ZM13.5 4.5H12V6H13.5H15V4.5H13.5ZM7.48838 4.5V6H13.5V4.5V3H7.48838V4.5ZM7.48838 0H5.98838V4.5H7.48838H8.98838V0H7.48838Z" fill="#F7FCFF" mask="url(#path-20-outside-1_395_54307)"/>
</g>
</g>
</g>
</svg>
