<svg width="24" height="18" viewBox="0 0 24 18" fill="none" xmlns="http://www.w3.org/2000/svg">
<mask id="mask0_395_51916" style="mask-type:luminance" maskUnits="userSpaceOnUse" x="0" y="0" width="24" height="18">
<rect width="24" height="18" fill="white"/>
</mask>
<g mask="url(#mask0_395_51916)">
<path fill-rule="evenodd" clip-rule="evenodd" d="M0 0V18H24V0H0Z" fill="#2E42A5"/>
<mask id="mask1_395_51916" style="mask-type:luminance" maskUnits="userSpaceOnUse" x="0" y="0" width="24" height="18">
<path fill-rule="evenodd" clip-rule="evenodd" d="M0 0V18H24V0H0Z" fill="white"/>
</mask>
<g mask="url(#mask1_395_51916)">
<mask id="mask2_395_51916" style="mask-type:luminance" maskUnits="userSpaceOnUse" x="0" y="0" width="24" height="18">
<rect width="24" height="18" fill="white"/>
</mask>
<g mask="url(#mask2_395_51916)">
<path d="M-2.67261 16.7136L2.60866 18.9471L24.1196 2.42793L26.9053 -0.891182L21.2578 -1.6377L12.484 5.4809L5.42198 10.2772L-2.67261 16.7136Z" fill="white"/>
<path d="M-1.94946 18.2781L0.741099 19.5742L25.9051 -1.19999H22.1273L-1.94946 18.2781Z" fill="#F50100"/>
<path d="M26.6721 16.7136L21.3909 18.9471L-0.120075 2.42793L-2.90582 -0.891182L2.74173 -1.6377L11.5155 5.4809L18.5775 10.2772L26.6721 16.7136Z" fill="white"/>
<path d="M26.4919 17.8367L23.8014 19.1329L13.0863 10.2384L9.90948 9.24459L-3.17385 -0.879805H0.604015L13.68 9.00428L17.1533 10.1959L26.4919 17.8367Z" fill="#F50100"/>
<mask id="path-9-inside-1_395_51916" fill="white">
<path fill-rule="evenodd" clip-rule="evenodd" d="M14.833 6H25.5205V12H14.833V19.5H9.16699V12H-1.47949V6H9.16699V-1.5H14.833V6Z"/>
</mask>
<path fill-rule="evenodd" clip-rule="evenodd" d="M14.833 6H25.5205V12H14.833V19.5H9.16699V12H-1.47949V6H9.16699V-1.5H14.833V6Z" fill="#F50100"/>
<path d="M14.833 6H12.833V8H14.833V6ZM25.5205 6H27.5205V4H25.5205V6ZM25.5205 12V14H27.5205V12H25.5205ZM14.833 12V10H12.833V12H14.833ZM14.833 19.5V21.5H16.833V19.5H14.833ZM9.16699 19.5H7.16699V21.5H9.16699V19.5ZM9.16699 12H11.167V10H9.16699V12ZM-1.47949 12H-3.47949V14H-1.47949V12ZM-1.47949 6V4H-3.47949V6H-1.47949ZM9.16699 6V8H11.167V6H9.16699ZM9.16699 -1.5V-3.5H7.16699V-1.5H9.16699ZM14.833 -1.5H16.833V-3.5H14.833V-1.5ZM14.833 6V8H25.5205V6V4H14.833V6ZM25.5205 6H23.5205V12H25.5205H27.5205V6H25.5205ZM25.5205 12V10H14.833V12V14H25.5205V12ZM14.833 12H12.833V19.5H14.833H16.833V12H14.833ZM14.833 19.5V17.5H9.16699V19.5V21.5H14.833V19.5ZM9.16699 19.5H11.167V12H9.16699H7.16699V19.5H9.16699ZM9.16699 12V10H-1.47949V12V14H9.16699V12ZM-1.47949 12H0.520508V6H-1.47949H-3.47949V12H-1.47949ZM-1.47949 6V8H9.16699V6V4H-1.47949V6ZM9.16699 6H11.167V-1.5H9.16699H7.16699V6H9.16699ZM9.16699 -1.5V0.5H14.833V-1.5V-3.5H9.16699V-1.5ZM14.833 -1.5H12.833V6H14.833H16.833V-1.5H14.833Z" fill="white" mask="url(#path-9-inside-1_395_51916)"/>
</g>
</g>
</g>
</svg>
