<svg width="24" height="18" viewBox="0 0 24 18" fill="none" xmlns="http://www.w3.org/2000/svg">
<mask id="mask0_395_52291" style="mask-type:luminance" maskUnits="userSpaceOnUse" x="0" y="0" width="24" height="18">
<rect width="24" height="18" fill="white"/>
</mask>
<g mask="url(#mask0_395_52291)">
<rect width="24" height="18" fill="#F7FCFF"/>
<path fill-rule="evenodd" clip-rule="evenodd" d="M0 12H24V18H0V12Z" fill="#C51918"/>
<path fill-rule="evenodd" clip-rule="evenodd" d="M13.042 7.21191H13.75V5.13477H16.583V7.21191H18V7.9043H17.292V11.3652H18V12.0576H5.25V11.3652H5.95898V7.9043H5.25V7.21191H6.66699V5.13477H9.5V7.21191H10.208V3.75H13.042V7.21191Z" fill="#DB000B"/>
<path d="M7.375 6.4413C7.375 6.10158 7.6504 5.82617 7.99013 5.82617C8.32986 5.82617 8.60526 6.10158 8.60526 6.4413V7.34925H7.375V6.4413Z" fill="#272727"/>
<path d="M14.4585 6.4413C14.4585 6.10158 14.7339 5.82617 15.0736 5.82617C15.4134 5.82617 15.6888 6.10158 15.6888 6.4413V7.34925H14.4585V6.4413Z" fill="#272727"/>
<path fill-rule="evenodd" clip-rule="evenodd" d="M7.17554 10.1025C7.17554 9.65266 7.54024 9.28796 7.99012 9.28796C8.44 9.28796 8.8047 9.65267 8.8047 10.1025V11.5033H7.17554V10.1025Z" fill="#272727"/>
<path d="M14.2589 10.1025C14.2589 9.65266 14.6236 9.28796 15.0735 9.28796C15.5234 9.28796 15.8881 9.65267 15.8881 10.1025V11.5033H14.2589V10.1025Z" fill="#272727"/>
<path fill-rule="evenodd" clip-rule="evenodd" d="M10.4209 10.2292C10.4209 9.65271 10.8883 9.18536 11.4648 9.18536C12.0413 9.18536 12.5086 9.65272 12.5086 10.2292V12.2315H10.4209V10.2292Z" fill="#272727"/>
<path d="M10.9165 5.74892C10.9165 5.40919 11.1919 5.13379 11.5316 5.13379C11.8714 5.13379 12.1468 5.40919 12.1468 5.74892V7.34917H10.9165V5.74892Z" fill="#272727"/>
<rect x="5.25" y="6.51874" width="0.708333" height="0.692308" fill="#DE1A23"/>
<path fill-rule="evenodd" clip-rule="evenodd" d="M7.125 5.25H6.375V4.5H7.125V5.25ZM8.8125 5.25H7.6875V4.5H8.8125V5.25ZM9.98828 5.25H9.23828V4.5H9.98828V5.25Z" fill="#DE1A23"/>
<path fill-rule="evenodd" clip-rule="evenodd" d="M14.3179 5.25H13.5679V4.5H14.3179V5.25ZM15.9028 5.25H14.7778V4.5H15.9028V5.25ZM17.1128 5.25H16.3628V4.5H17.1128V5.25Z" fill="#DE1A23"/>
<path fill-rule="evenodd" clip-rule="evenodd" d="M10.3499 3.7666H9.59985V3.0166H10.3499V3.7666ZM11.4749 3.7666H10.7249V3.0166H11.4749V3.7666ZM12.5999 3.7666H11.8499V3.0166H12.5999V3.7666ZM13.7249 3.7666H12.9749V3.0166H13.7249V3.7666Z" fill="#DE1A23"/>
<rect x="17.2495" y="6.58105" width="0.75" height="0.629022" fill="#DE1A23"/>
<path fill-rule="evenodd" clip-rule="evenodd" d="M13.6146 12.5086L11.5795 13.8397L9.27283 12.742L11.4437 11.494L13.6146 12.5086ZM10.7855 12.6307L11.5219 12.9813L12.1547 12.5672L11.4515 12.1844L10.7855 12.6307Z" fill="#E8AA00"/>
<path fill-rule="evenodd" clip-rule="evenodd" d="M10.1068 15.7546H11.2121V16.5848V16.3046H10.5252V16.5848H10.1068V15.7546Z" fill="#E8AA00"/>
<path fill-rule="evenodd" clip-rule="evenodd" d="M11.1118 13.5848H12.0499V16.5848H11.1118V13.5848Z" fill="#E8AA00"/>
</g>
</svg>
