<svg width="24" height="18" viewBox="0 0 24 18" fill="none" xmlns="http://www.w3.org/2000/svg">
<mask id="mask0_395_53324" style="mask-type:luminance" maskUnits="userSpaceOnUse" x="0" y="0" width="24" height="18">
<rect width="24" height="18" fill="white"/>
</mask>
<g mask="url(#mask0_395_53324)">
<path fill-rule="evenodd" clip-rule="evenodd" d="M16.5 0H24V18H16.5V0Z" fill="#58A5FF"/>
<path fill-rule="evenodd" clip-rule="evenodd" d="M0 0H9V18H0V0Z" fill="#58A5FF"/>
<path fill-rule="evenodd" clip-rule="evenodd" d="M7.5 0H16.5V18H7.5V0Z" fill="white"/>
<path fill-rule="evenodd" clip-rule="evenodd" d="M8.82617 11.7889L9.21747 12.3012L10.9945 9.8923V9.46582L8.82617 11.7889Z" fill="#6C301F"/>
<path d="M10.0532 9.1018L10.1831 8.92285C11.866 10.1882 13.0582 11.1595 13.7249 11.9689L13.3086 12.3118C12.675 11.5425 11.7048 10.3436 10.0532 9.1018Z" fill="#979797"/>
<path d="M12.7656 8.04387L12.572 7.85618L13.6331 6.76178L13.8656 6.98762L14.9671 5.96185L15.1509 6.15919L13.8616 7.35973L13.6388 7.14326L12.7656 8.04387Z" fill="#979797"/>
<path fill-rule="evenodd" clip-rule="evenodd" d="M9.38281 6.33124C9.43705 6.26135 9.49342 6.18797 9.55371 6.11249L9.72168 6.24725C9.57474 6.43121 9.44766 6.59894 9.33789 6.74823C9.5228 6.6987 9.70062 6.65264 9.70801 6.65057C9.52726 6.91394 9.31398 7.0374 9.08594 7.11053C9.01524 7.21992 8.95908 7.31318 8.9209 7.39178C8.89055 7.45429 8.86392 7.51724 8.83789 7.57928C9.04229 7.46353 9.30247 7.31339 9.30859 7.30975C9.17938 7.67563 8.9529 7.85819 8.69531 7.9953C8.67486 8.07077 8.65573 8.14529 8.6416 8.21991C8.8453 8.10457 9.10514 7.9552 9.11328 7.95038C9.00138 8.26711 8.81437 8.44296 8.59961 8.5744C8.59504 8.65317 8.59424 8.73116 8.59668 8.80878C8.7843 8.65527 9.05176 8.42889 9.05176 8.42889C8.99425 8.77459 8.82994 8.98417 8.62988 9.15448C8.64581 9.24946 8.66504 9.34381 8.69141 9.43671C8.69888 9.46303 8.70816 9.48881 8.71582 9.51483C8.83805 9.30788 9 9.02753 9 9.02753C9.06725 9.38843 8.97472 9.65004 8.83398 9.8869C8.853 9.94147 8.87274 9.99511 8.89258 10.048C8.95943 9.8647 9.02621 9.68575 9.0293 9.67694C9.1396 9.97115 9.12068 10.2131 9.05273 10.4387C9.12685 10.6036 9.2045 10.7584 9.28613 10.9016C9.2876 10.669 9.28809 10.3889 9.28809 10.3889C9.54056 10.6839 9.58531 10.972 9.5752 11.2639L9.48438 11.215C9.6141 11.402 9.75054 11.5609 9.89062 11.6896C9.89168 11.468 9.89271 11.2154 9.89258 11.2043C10.0951 11.4411 10.1617 11.6732 10.1758 11.9064C10.2109 11.9274 10.2458 11.9471 10.2812 11.9641C10.3833 12.0129 10.5026 12.057 10.6396 12.1027C10.6854 11.8708 10.7544 11.4658 10.7559 11.4572C10.9116 11.7212 10.9385 11.9581 10.9141 12.1867C10.9445 12.1953 10.9749 12.2063 11.0068 12.215C11.1107 12.2433 11.2171 12.2713 11.3564 12.3058C11.2813 12.2872 11.619 12.3697 11.6904 12.3879C11.9385 12.451 12.0775 12.495 12.1631 12.5432C12.1993 12.5635 12.2278 12.5858 12.248 12.6135L12.0732 12.7404C12.0714 12.7393 12.066 12.7353 12.0576 12.7307C11.9951 12.6956 11.8644 12.6548 11.6367 12.5969C11.5816 12.5829 11.3694 12.5305 11.3096 12.5158C11.1663 12.4803 11.0571 12.4522 10.9502 12.423C10.9412 12.4206 10.9327 12.4167 10.9238 12.4142C10.7058 12.4954 10.4674 12.529 10.1699 12.4406C10.1699 12.4406 10.3347 12.3661 10.5098 12.2883C10.3901 12.2465 10.2834 12.2039 10.1885 12.1584C10.1788 12.1537 10.1698 12.1477 10.1602 12.1428C9.93781 12.2284 9.69534 12.2656 9.39062 12.175C9.39687 12.1723 9.66106 12.0545 9.87305 11.9582C9.67848 11.8052 9.49156 11.6018 9.31738 11.3537C9.05415 11.2808 8.80905 11.1564 8.6084 10.8527C8.61902 10.8559 8.87147 10.9277 9.08789 10.9885C9.02857 10.8835 8.97128 10.773 8.91602 10.6574C8.64305 10.5856 8.38878 10.4621 8.18164 10.1486C8.19238 10.1518 8.53417 10.251 8.76465 10.3137C8.71334 10.1879 8.66453 10.0572 8.61816 9.92206C8.40292 9.80637 8.21176 9.64406 8.08203 9.34491C8.08203 9.34491 8.29942 9.45007 8.49805 9.54608C8.49316 9.52924 8.48821 9.51225 8.4834 9.4953C8.45276 9.38733 8.43064 9.27767 8.41309 9.16718C8.23749 8.97928 8.10167 8.75577 8.08105 8.41327C8.08105 8.41327 8.23187 8.56726 8.37793 8.71796C8.37812 8.66925 8.38205 8.62055 8.38477 8.57147C8.24159 8.39008 8.18573 8.17525 8.16602 7.84784C8.17061 7.85271 8.30367 7.98861 8.43945 8.12909C8.46059 8.02702 8.48842 7.92472 8.52051 7.82147C8.34023 7.62066 8.24029 7.33939 8.21875 6.98163C8.21875 6.98163 8.49669 7.27972 8.66211 7.44452C8.6834 7.39578 8.70378 7.34599 8.72754 7.29706C8.72815 7.29581 8.72888 7.29441 8.72949 7.29315C8.55854 7.08073 8.64322 6.68845 8.62109 6.3205C8.62109 6.3205 8.81289 6.69901 8.96582 6.90057C9.01478 6.82798 9.0695 6.75024 9.12988 6.66718C9.07242 6.40317 9.11648 6.10801 9.25879 5.78339C9.25924 5.78552 9.32647 6.08616 9.38281 6.33124Z" fill="#5AB92D"/>
<path fill-rule="evenodd" clip-rule="evenodd" d="M14.7216 6.33124C14.6673 6.26139 14.6109 6.18793 14.5507 6.11249L14.3817 6.24725C14.5288 6.43137 14.6567 6.59886 14.7665 6.74823C14.5816 6.6987 14.4038 6.65264 14.3964 6.65057C14.5771 6.91394 14.7904 7.0374 15.0184 7.11053C15.0891 7.21981 15.1443 7.31323 15.1825 7.39178C15.2128 7.45426 15.2395 7.51727 15.2655 7.57928C15.0612 7.46358 14.8019 7.31338 14.7958 7.30975C14.925 7.67563 15.1515 7.85819 15.4091 7.9953C15.4296 8.07076 15.4486 8.1453 15.4628 8.21991C15.2591 8.10457 14.9992 7.9552 14.9911 7.95038C15.103 8.26711 15.29 8.44296 15.5048 8.5744C15.5094 8.65317 15.5111 8.73115 15.5087 8.80878C15.321 8.65527 15.0526 8.42889 15.0526 8.42889C15.1102 8.77519 15.2749 8.98499 15.4755 9.15546C15.4596 9.25017 15.4393 9.34406 15.413 9.43671C15.4053 9.46358 15.3974 9.49022 15.3895 9.51678C15.2671 9.30966 15.1044 9.02753 15.1044 9.02753C15.037 9.38901 15.1302 9.65072 15.2714 9.88788C15.2523 9.94255 15.2317 9.99599 15.2118 10.049C15.1448 9.86538 15.0782 9.68576 15.0751 9.67694C14.9648 9.97115 14.9837 10.2131 15.0516 10.4387C14.9775 10.6036 14.8999 10.7584 14.8182 10.9016C14.8168 10.669 14.8163 10.3889 14.8163 10.3889C14.5638 10.6839 14.5191 10.972 14.5292 11.2639L14.62 11.215C14.4902 11.4019 14.3539 11.5609 14.2137 11.6896C14.2127 11.468 14.2117 11.2154 14.2118 11.2043C14.0096 11.4407 13.9428 11.6725 13.9286 11.9055C13.8931 11.9266 13.8579 11.9469 13.8221 11.9641C13.7202 12.0129 13.6015 12.057 13.4647 12.1027C13.419 11.8708 13.3499 11.4658 13.3485 11.4572C13.1927 11.7212 13.1658 11.9581 13.1903 12.1867C13.16 12.1953 13.1293 12.2064 13.0975 12.215C12.9936 12.2433 12.8865 12.2713 12.7469 12.3058C12.6932 12.3191 12.4706 12.3735 12.4139 12.3879C12.1654 12.4511 12.0259 12.4949 11.9403 12.5432C11.9041 12.5636 11.8755 12.5857 11.8553 12.6135L12.0302 12.7404C12.0294 12.7416 12.0347 12.7369 12.0458 12.7307C12.1081 12.6955 12.2387 12.6549 12.4667 12.5969C12.5205 12.5832 12.733 12.5308 12.7938 12.5158C12.9374 12.4802 13.0471 12.4522 13.1542 12.423C13.1631 12.4206 13.1718 12.4167 13.1805 12.4142C13.3986 12.4954 13.637 12.529 13.9344 12.4406C13.9344 12.4406 13.7697 12.3661 13.5946 12.2883C13.714 12.2465 13.8201 12.2038 13.9149 12.1584C13.9248 12.1537 13.9344 12.1478 13.9442 12.1428C14.1666 12.2284 14.409 12.2656 14.7137 12.175C14.7075 12.1723 14.4425 12.0545 14.2303 11.9582C14.4251 11.8052 14.6127 11.602 14.787 11.3537C15.0502 11.2808 15.2953 11.1564 15.496 10.8527C15.4853 10.8559 15.2314 10.9286 15.0145 10.9894C15.0742 10.884 15.1328 10.7736 15.1884 10.6574C15.4613 10.5856 15.7156 10.4621 15.9227 10.1486C15.912 10.1518 15.5692 10.252 15.3387 10.3146C15.3902 10.1885 15.4397 10.0576 15.4862 9.92206C15.7014 9.80637 15.8926 9.64406 16.0223 9.34491C16.0223 9.34491 15.8043 9.4509 15.6053 9.54706C15.6103 9.52988 15.6151 9.51259 15.62 9.4953C15.6505 9.38769 15.6717 9.27826 15.6893 9.16815C15.8656 8.97996 16.0026 8.75668 16.0233 8.41327C16.0233 8.41327 15.8725 8.56726 15.7264 8.71796C15.7263 8.66893 15.7223 8.6199 15.7196 8.5705C15.8624 8.38923 15.9187 8.17489 15.9384 7.84784C15.9338 7.85271 15.8007 7.98861 15.6649 8.12909C15.6438 8.0267 15.616 7.92407 15.5839 7.8205C15.7638 7.61972 15.8641 7.33907 15.8856 6.98163C15.8856 6.98163 15.6077 7.27972 15.4423 7.44452C15.421 7.39581 15.4006 7.34596 15.3768 7.29706C15.3762 7.29575 15.3755 7.29446 15.3749 7.29315C15.5458 7.08073 15.4612 6.68845 15.4833 6.3205C15.4833 6.3205 15.2915 6.69901 15.1385 6.90057C15.0895 6.82779 15.0351 6.74951 14.9745 6.6662C15.0316 6.40244 14.9877 6.10763 14.8456 5.78339C14.8451 5.78552 14.7779 6.08616 14.7216 6.33124Z" fill="#5AB92D"/>
<path fill-rule="evenodd" clip-rule="evenodd" d="M10.063 6.99241L10.9684 9.39182H10.3028C10.3028 9.39182 10.063 10.149 10.5157 10.149C10.9684 10.149 13.3012 10.149 13.3012 10.149C13.3012 10.149 13.6045 9.95917 13.4528 9.39182C13.3012 8.82448 12.535 7.25829 12.535 7.25829C12.535 7.25829 12.8624 6.99836 12.8624 6.80569C12.8624 6.61302 12.535 6.5918 12.535 6.5918H10.4683C10.2045 6.63455 10.063 6.99241 10.063 6.99241Z" fill="#EFE298"/>
<path d="M10.833 7.87575L12.2392 7.78842L10.833 7.87575Z" fill="#C5A042"/>
<path d="M10.833 7.87575L12.2392 7.78842" stroke="#B47D00" stroke-width="0.5"/>
<path d="M11.1753 8.64138L12.5815 8.55405L11.1753 8.64138Z" fill="#C5A042"/>
<path d="M11.1753 8.64138L12.5815 8.55405" stroke="#B47D00" stroke-width="0.5"/>
<path d="M11.4424 9.40627L12.8486 9.31894L11.4424 9.40627Z" fill="#C5A042"/>
<path d="M11.4424 9.40627L12.8486 9.31894" stroke="#B47D00" stroke-width="0.5"/>
<path fill-rule="evenodd" clip-rule="evenodd" d="M11.9102 5.69043C11.9102 5.69043 11.6937 5.73442 11.6937 5.87123C11.6937 6.00804 11.6351 6.12469 11.6351 6.12469C11.6351 6.12469 11.7012 6.74866 12.195 6.89345C12.6887 7.03825 12.9782 7.07302 13.186 7.36347C13.3939 7.65393 14.0315 8.47392 13.7758 9.18111C13.5201 9.8883 13.3193 10.2492 13.3193 10.2492C13.3193 10.2492 14.2521 9.37062 14.2521 8.95409C14.2521 8.53756 14.1142 8.13396 13.701 7.60507C13.2878 7.07617 13.0956 6.767 12.7877 6.5287C12.4799 6.2904 12.0388 6.07051 12.0388 6.07051C12.0388 6.07051 12.1958 5.90264 12.1173 5.82371C12.0388 5.74478 11.9102 5.69043 11.9102 5.69043Z" fill="#5AB92D"/>
</g>
</svg>
