<svg width="24" height="18" viewBox="0 0 24 18" fill="none" xmlns="http://www.w3.org/2000/svg">
<mask id="mask0_395_53192" style="mask-type:luminance" maskUnits="userSpaceOnUse" x="0" y="0" width="24" height="18">
<rect width="24" height="18" fill="white"/>
</mask>
<g mask="url(#mask0_395_53192)">
<path fill-rule="evenodd" clip-rule="evenodd" d="M0 0V18H24V0H0Z" fill="#2E42A5"/>
<mask id="mask1_395_53192" style="mask-type:luminance" maskUnits="userSpaceOnUse" x="0" y="0" width="24" height="18">
<path fill-rule="evenodd" clip-rule="evenodd" d="M0 0V18H24V0H0Z" fill="white"/>
</mask>
<g mask="url(#mask1_395_53192)">
<path fill-rule="evenodd" clip-rule="evenodd" d="M0 9V18H24V9H0Z" fill="#E31D1C"/>
<rect x="7.5" y="6" width="9" height="6" fill="white"/>
<mask id="mask2_395_53192" style="mask-type:luminance" maskUnits="userSpaceOnUse" x="7" y="6" width="10" height="6">
<rect x="7.5" y="6" width="9" height="6" fill="white"/>
</mask>
<g mask="url(#mask2_395_53192)">
<path fill-rule="evenodd" clip-rule="evenodd" d="M7.5 10.9338C7.5 10.9338 9.66026 10.3658 12 10.4004C14.3397 10.4351 16.5 11.0671 16.5 11.0671V12.0004H7.5V10.9338Z" fill="#279E19"/>
<path d="M12.0552 6.67586C12.0552 6.67586 11.3569 6.36133 10.8695 6.36133C10.382 6.36133 10.1112 6.84141 10.1112 6.84141" stroke="#026A16" stroke-width="0.5"/>
<path d="M12.2106 6.99153C12.2106 6.99153 11.568 6.76172 11.1195 6.76172C10.6709 6.76172 10.4218 7.11249 10.4218 7.11249" stroke="#026A16" stroke-width="0.5"/>
<path d="M12.2104 7.25813C12.2104 7.25813 11.7351 7.02832 11.4032 7.02832C11.0714 7.02832 10.8871 7.37909 10.8871 7.37909" stroke="#026A16" stroke-width="0.5"/>
<path d="M12.0152 7.52474C12.0152 7.52474 11.7215 7.29492 11.5165 7.29492C11.3115 7.29492 11.1976 7.6457 11.1976 7.6457" stroke="#026A16" stroke-width="0.5"/>
<path d="M11.9898 7.70644C11.9898 7.70644 11.8724 7.56134 11.7904 7.56134C11.7084 7.56134 11.6629 7.7828 11.6629 7.7828" stroke="#026A16" stroke-width="0.5"/>
<path d="M11.9448 6.67586C11.9448 6.67586 12.6431 6.36133 13.1305 6.36133C13.618 6.36133 13.8888 6.84141 13.8888 6.84141" stroke="#026A16" stroke-width="0.5"/>
<path d="M11.7894 6.99153C11.7894 6.99153 12.432 6.76172 12.8805 6.76172C13.3291 6.76172 13.5782 7.11249 13.5782 7.11249" stroke="#026A16" stroke-width="0.5"/>
<path d="M11.7896 7.25813C11.7896 7.25813 12.2649 7.02832 12.5968 7.02832C12.9286 7.02832 13.1129 7.37909 13.1129 7.37909" stroke="#026A16" stroke-width="0.5"/>
<path d="M11.9848 7.52474C11.9848 7.52474 12.2785 7.29492 12.4835 7.29492C12.6885 7.29492 12.8024 7.6457 12.8024 7.6457" stroke="#026A16" stroke-width="0.5"/>
<path d="M12.0102 7.70644C12.0102 7.70644 12.1276 7.56134 12.2096 7.56134C12.2916 7.56134 12.3371 7.7828 12.3371 7.7828" stroke="#026A16" stroke-width="0.5"/>
<path fill-rule="evenodd" clip-rule="evenodd" d="M11.9157 7.79865C11.9157 7.79865 11.83 8.8017 11.83 9.20993C11.83 9.61815 11.9157 10.499 11.9157 10.499H12.1361C12.1361 10.499 12.1361 9.55072 12.1361 9.20993C12.1361 8.86914 12.0068 7.79865 12.0068 7.79865H11.9157Z" fill="#FECA00"/>
<path fill-rule="evenodd" clip-rule="evenodd" d="M11.049 8.93933C11.049 8.93933 10.5059 9.23004 10.5059 10.0907L11.049 11.1298H12.0292V9.41854L11.049 8.93933Z" fill="#C51918"/>
<path fill-rule="evenodd" clip-rule="evenodd" d="M10.2442 8.11902C10.2442 8.11902 8.97607 8.49469 8.97607 9.88055L10.619 10.0207C10.619 10.0207 10.5293 9.21555 11.0349 8.8431L10.2442 8.11902Z" fill="#0A328C"/>
<path d="M9.7207 7.5907L11.8961 9.58424" stroke="#FFD018" stroke-width="0.5"/>
<path d="M8.96515 8.04211L11.9992 10.0123" stroke="#FFD018" stroke-width="0.5"/>
<path d="M8.44287 8.80469L11.8626 10.3686" stroke="#FFD018" stroke-width="0.5"/>
<path fill-rule="evenodd" clip-rule="evenodd" d="M8.98486 9.87018L11.2541 10.1239L11.1263 10.4406H10.7666L11.0116 10.6195L11.5641 10.7488V10.4406H12.048V11.0955H11.0116L10.6141 10.6195C10.6141 10.6195 10.2802 10.9486 9.9544 10.9486C9.62857 10.9486 9.30733 10.8417 9.30733 10.4828C9.30733 10.1239 9.30733 10.2331 9.30733 10.2331L8.98486 10.1239V9.87018Z" fill="#FECA00"/>
<path fill-rule="evenodd" clip-rule="evenodd" d="M12.6406 8.93933C12.6406 8.93933 13.1838 9.23004 13.1838 10.0907L12.6406 11.1298H11.6604V9.41854L12.6406 8.93933Z" fill="#C51918"/>
<path fill-rule="evenodd" clip-rule="evenodd" d="M13.4455 8.11902C13.4455 8.11902 14.7136 8.49469 14.7136 9.88055L13.0706 10.0207C13.0706 10.0207 13.1603 9.21555 12.6548 8.8431L13.4455 8.11902Z" fill="#0A328C"/>
<path d="M13.9689 7.5907L11.7936 9.58424" stroke="#FFD018" stroke-width="0.5"/>
<path d="M14.7245 8.04211L11.6904 10.0123" stroke="#FFD018" stroke-width="0.5"/>
<path d="M15.2468 8.80469L11.8271 10.3686" stroke="#FFD018" stroke-width="0.5"/>
<path fill-rule="evenodd" clip-rule="evenodd" d="M14.7048 9.87018L12.4355 10.1239L12.5633 10.4406H12.9231L12.678 10.6195L12.1255 10.7488V10.4406H11.6416V11.0955H12.678L13.0755 10.6195C13.0755 10.6195 13.4094 10.9486 13.7352 10.9486C14.0611 10.9486 14.3823 10.8417 14.3823 10.4828C14.3823 10.1239 14.3823 10.2331 14.3823 10.2331L14.7048 10.1239V9.87018Z" fill="#FECA00"/>
</g>
</g>
</g>
</svg>
