<svg width="24" height="18" viewBox="0 0 24 18" fill="none" xmlns="http://www.w3.org/2000/svg">
<mask id="mask0_395_50771" style="mask-type:luminance" maskUnits="userSpaceOnUse" x="0" y="0" width="24" height="18">
<rect width="24" height="18" fill="white"/>
</mask>
<g mask="url(#mask0_395_50771)">
<path fill-rule="evenodd" clip-rule="evenodd" d="M0 0V18H24V0H0Z" fill="#F7FCFF"/>
<mask id="mask1_395_50771" style="mask-type:luminance" maskUnits="userSpaceOnUse" x="0" y="0" width="24" height="18">
<path fill-rule="evenodd" clip-rule="evenodd" d="M0 0V18H24V0H0Z" fill="white"/>
</mask>
<g mask="url(#mask1_395_50771)">
<path fill-rule="evenodd" clip-rule="evenodd" d="M0 2.25V4.5H24V2.25H0Z" fill="#3D58DB"/>
<path fill-rule="evenodd" clip-rule="evenodd" d="M0 13.5V15.75H24V13.5H0Z" fill="#3D58DB"/>
<path fill-rule="evenodd" clip-rule="evenodd" d="M15.5693 11.2041H8.53613L12.0869 4.96484L15.5693 11.2041ZM9.76562 10.4473H14.3652L12.0801 6.34473L9.76562 10.4473Z" fill="#3D58DB"/>
<path fill-rule="evenodd" clip-rule="evenodd" d="M15.5105 6.80667H8.448L12.1023 12.8711L15.5105 6.80667ZM9.78784 7.53714H14.2839L12.0818 11.6485L9.78784 7.53714Z" fill="#3D58DB"/>
</g>
</g>
</svg>
