<svg width="24" height="18" viewBox="0 0 24 18" fill="none" xmlns="http://www.w3.org/2000/svg">
<mask id="mask0_395_51715" style="mask-type:luminance" maskUnits="userSpaceOnUse" x="0" y="0" width="24" height="18">
<rect width="24" height="18" fill="white"/>
</mask>
<g mask="url(#mask0_395_51715)">
<path fill-rule="evenodd" clip-rule="evenodd" d="M0 0H24V18H0V0Z" fill="#F7FCFF"/>
<path d="M-1.85181 0.644714L10.5515 8.14471L12.4626 9.29999L10.5515 10.4553L-1.85181 17.9553L-3.89966 19.1935V-0.593567L-1.85181 0.644714Z" fill="#F7FCFF" stroke="#E31D1C" stroke-width="2.7"/>
<path d="M26.0214 0.632996L13.1073 8.133L11.0966 9.29999L13.1073 10.467L26.0214 17.967L28.0487 19.1447V-0.544739L26.0214 0.632996Z" fill="#F7FCFF" stroke="#E31D1C" stroke-width="2.7"/>
<path fill-rule="evenodd" clip-rule="evenodd" d="M10.2559 3.52725C10.2559 3.52725 9.61197 6.37598 11.8355 7.47009C11.8355 7.47009 13.9702 6.30659 13.4907 3.52725C13.4907 3.52725 12.5739 3.22058 11.845 3.22058C11.116 3.22058 10.2559 3.52725 10.2559 3.52725Z" fill="#E31D1C"/>
<path fill-rule="evenodd" clip-rule="evenodd" d="M10.4866 4.12344C10.4866 4.12344 10.7244 4.01816 10.8421 4.12344C10.9598 4.22873 11.0563 4.11472 11.0563 4.05121C11.0563 3.9877 11.2432 3.76968 11.2432 3.94656C11.2432 4.12344 11.185 4.22331 11.3493 4.22331C11.5136 4.22331 12.2535 3.97898 12.4309 4.05121C12.6083 4.12344 12.7441 4.10548 12.699 4.00184C12.6539 3.89819 12.538 3.83342 12.3148 3.88999C12.0916 3.94656 12.1443 4.00184 11.9514 4.00184C11.7585 4.00184 11.5438 3.94656 11.5438 3.94656C11.5438 3.94656 11.6041 3.85361 11.8243 3.91973C12.0445 3.98584 12.3483 3.83785 12.4309 3.83785C12.5135 3.83785 12.7409 3.83342 12.7634 3.88999C12.786 3.94656 12.9232 3.99847 12.8186 4.05121C12.714 4.10395 12.5414 4.13698 12.6601 4.20455C12.7789 4.27212 13.0519 4.2591 13.065 4.32939C13.0782 4.39967 13.2076 4.50463 13.1557 4.50463C13.1037 4.50463 13.0099 4.60362 12.9225 4.57348C12.8351 4.54334 12.8248 4.51687 12.9086 4.49246C12.9924 4.46804 12.9916 4.36536 12.9225 4.36536C12.8533 4.36536 12.8871 4.40134 12.7297 4.36536C12.5723 4.32939 12.364 4.2894 12.3766 4.36536C12.3891 4.44133 12.4915 4.55794 12.3025 4.57348C12.1134 4.58902 12.025 4.65141 11.9882 4.60117C11.9514 4.55092 11.8198 4.48397 11.9233 4.4625C12.0267 4.44103 12.1255 4.53547 12.1628 4.52005C12.2 4.50463 12.2844 4.49605 12.2137 4.4307C12.143 4.36536 12.0264 4.32689 12.1345 4.27798C12.2426 4.22908 12.1573 4.22807 11.9514 4.32939C11.7454 4.4307 11.6309 4.5168 11.4501 4.50463C11.2693 4.49246 11.2016 4.50888 11.1435 4.49246C11.0854 4.47603 10.8024 4.67392 10.7209 4.6237C10.6394 4.57348 10.3763 4.55421 10.4236 4.49246C10.471 4.4307 10.5346 4.39891 10.6054 4.4307C10.6762 4.4625 10.7466 4.49429 10.7944 4.4625C10.8421 4.4307 10.98 4.32161 10.9454 4.2998C10.9107 4.27798 10.9442 4.20455 10.7478 4.20455C10.5514 4.20455 10.4823 4.28639 10.4357 4.23483C10.389 4.18326 10.4866 4.12344 10.4866 4.12344Z" fill="#FFD100"/>
<path fill-rule="evenodd" clip-rule="evenodd" d="M10.6829 5.05963C10.6829 5.05963 10.892 4.96706 10.9955 5.05963C11.099 5.15219 11.1837 5.05196 11.1837 4.99612C11.1837 4.94029 11.3481 4.74861 11.3481 4.90412C11.3481 5.05963 11.2969 5.14743 11.4414 5.14743C11.5858 5.14743 12.2363 4.93262 12.3923 4.99612C12.5482 5.05963 12.6676 5.04383 12.6279 4.95271C12.5883 4.86159 12.4864 4.80464 12.2902 4.85438C12.0939 4.90412 12.1403 4.95271 11.9707 4.95271C11.8011 4.95271 11.6123 4.90412 11.6123 4.90412C11.6123 4.90412 11.6653 4.8224 11.859 4.88053C12.0526 4.93865 12.3196 4.80854 12.3923 4.80854C12.4649 4.80854 12.6648 4.80464 12.6846 4.85438C12.7044 4.90412 12.8251 4.94976 12.7331 4.99612C12.6411 5.04249 12.4894 5.07153 12.5938 5.13094C12.6982 5.19034 12.9382 5.17889 12.9498 5.24068C12.9613 5.30248 13.0751 5.39475 13.0294 5.39475C12.9838 5.39475 12.9013 5.48178 12.8244 5.45528C12.7476 5.42878 12.7385 5.40551 12.8122 5.38405C12.8859 5.36258 12.8852 5.27231 12.8244 5.27231C12.7637 5.27231 12.7933 5.30394 12.6549 5.27231C12.5166 5.24068 12.3335 5.20552 12.3445 5.27231C12.3555 5.3391 12.4456 5.44162 12.2794 5.45528C12.1132 5.46894 12.0354 5.5238 12.003 5.47962C11.9707 5.43545 11.855 5.37658 11.946 5.35771C12.0369 5.33883 12.1238 5.42187 12.1565 5.40831C12.1893 5.39475 12.2635 5.3872 12.2013 5.32976C12.1391 5.27231 12.0367 5.23849 12.1317 5.19549C12.2267 5.15249 12.1517 5.15161 11.9707 5.24068C11.7896 5.32976 11.6889 5.40545 11.53 5.39475C11.371 5.38405 11.3115 5.39849 11.2604 5.38405C11.2093 5.36961 10.9605 5.54358 10.8888 5.49943C10.8172 5.45528 10.5859 5.43834 10.6275 5.38405C10.6692 5.32976 10.7251 5.30181 10.7873 5.32976C10.8496 5.35771 10.9115 5.38566 10.9535 5.35771C10.9955 5.32976 11.1167 5.23385 11.0862 5.21467C11.0557 5.19549 11.0852 5.13094 10.9125 5.13094C10.7398 5.13094 10.6791 5.20288 10.6381 5.15755C10.5971 5.11222 10.6829 5.05963 10.6829 5.05963Z" fill="#FFD100"/>
<path fill-rule="evenodd" clip-rule="evenodd" d="M10.9608 6.00966C10.9608 6.00966 11.1193 5.93947 11.1978 6.00966C11.2763 6.07985 11.3406 6.00385 11.3406 5.96151C11.3406 5.91917 11.4652 5.77382 11.4652 5.89174C11.4652 6.00966 11.4264 6.07624 11.5359 6.07624C11.6455 6.07624 12.1387 5.91335 12.257 5.96151C12.3753 6.00966 12.4658 5.99769 12.4357 5.92859C12.4056 5.8595 12.3284 5.81631 12.1796 5.85403C12.0308 5.89174 12.0659 5.92859 11.9373 5.92859C11.8087 5.92859 11.6656 5.89174 11.6656 5.89174C11.6656 5.89174 11.7058 5.82978 11.8526 5.87385C11.9994 5.91793 12.2019 5.81927 12.257 5.81927C12.3121 5.81927 12.4637 5.81631 12.4787 5.85403C12.4937 5.89174 12.5852 5.92635 12.5155 5.96151C12.4457 5.99667 12.3307 6.01869 12.4098 6.06374C12.489 6.10878 12.671 6.1001 12.6797 6.14696C12.6885 6.19382 12.7748 6.26379 12.7402 6.26379C12.7055 6.26379 12.643 6.32978 12.5847 6.30969C12.5264 6.28959 12.5196 6.27195 12.5755 6.25567C12.6313 6.23939 12.6308 6.17094 12.5847 6.17094C12.5386 6.17094 12.5611 6.19492 12.4562 6.17094C12.3513 6.14696 12.2124 6.1203 12.2208 6.17094C12.2291 6.22159 12.2974 6.29933 12.1714 6.30969C12.0454 6.32005 11.9864 6.36164 11.9618 6.32815C11.9373 6.29465 11.8496 6.25001 11.9186 6.2357C11.9875 6.22139 12.0534 6.28435 12.0782 6.27407C12.1031 6.26379 12.1594 6.25807 12.1122 6.2145C12.0651 6.17094 11.9873 6.1453 12.0594 6.11269C12.1315 6.08009 12.0746 6.07942 11.9373 6.14696C11.8 6.2145 11.7237 6.2719 11.6031 6.26379C11.4826 6.25567 11.4374 6.26662 11.3987 6.25567C11.36 6.24472 11.1713 6.37665 11.117 6.34317C11.0626 6.30969 10.8872 6.29684 10.9188 6.25567C10.9504 6.2145 10.9928 6.19331 11.04 6.2145C11.0872 6.2357 11.1341 6.25689 11.166 6.2357C11.1978 6.2145 11.2898 6.14177 11.2666 6.12723C11.2435 6.11269 11.2659 6.06374 11.1349 6.06374C11.004 6.06374 10.9579 6.1183 10.9268 6.08392C10.8958 6.04954 10.9608 6.00966 10.9608 6.00966Z" fill="#FFD100"/>
<g filter="url(#filter0_d_395_51715)">
<path fill-rule="evenodd" clip-rule="evenodd" d="M11.8453 1.50098C12.0406 1.6957 11.9595 2.08887 11.9595 2.08887C12.3598 1.9219 12.3685 2.24599 12.3687 2.25977C12.3611 2.26117 11.9596 2.33659 11.9595 2.52246C11.9595 2.71014 12.0536 2.8291 12.2632 2.8291C12.3546 2.82905 12.4439 2.80592 12.5162 2.78125C12.4528 2.74589 12.4107 2.68422 12.4107 2.61426C12.4109 2.50475 12.5142 2.41602 12.6412 2.41602C12.768 2.41615 12.8705 2.50483 12.8706 2.61426C12.8706 2.69848 12.8099 2.76998 12.7242 2.79883C12.7745 2.86593 12.8694 2.94922 13.0454 2.94922C13.3438 2.94888 13.3047 2.45605 13.4703 2.45605C13.6363 2.45556 14.3195 2.09028 14.0113 2.25977C13.7019 2.42988 13.4703 3.55371 13.4703 3.55371C13.4703 3.55371 12.5595 3.23633 11.8443 3.23633C11.1292 3.2367 10.2203 3.55371 10.2203 3.55371C10.2203 3.55371 9.98864 2.42988 9.67924 2.25977C9.37037 2.08994 10.0546 2.45592 10.2203 2.45605C10.3858 2.45605 10.3464 2.94915 10.6451 2.94922C10.8208 2.94922 10.915 2.86586 10.9654 2.79883C10.8799 2.76984 10.8189 2.69828 10.8189 2.61426C10.8191 2.50474 10.9224 2.41602 11.0494 2.41602C11.1763 2.41602 11.2796 2.50475 11.2798 2.61426C11.2798 2.68441 11.237 2.74594 11.1734 2.78125C11.2458 2.80603 11.3355 2.82909 11.4273 2.8291C11.6369 2.8291 11.73 2.71014 11.73 2.52246C11.73 2.338 11.3352 2.26227 11.3218 2.25977C11.322 2.24595 11.3299 1.92203 11.73 2.08887C11.73 2.08887 11.6491 1.69452 11.8453 1.5V1.50098Z" fill="#FECA00"/>
</g>
</g>
<defs>
<filter id="filter0_d_395_51715" x="9.60016" y="1.5" width="4.48999" height="2.05371" filterUnits="userSpaceOnUse" color-interpolation-filters="sRGB">
<feFlood flood-opacity="0" result="BackgroundImageFix"/>
<feColorMatrix in="SourceAlpha" type="matrix" values="0 0 0 0 0 0 0 0 0 0 0 0 0 0 0 0 0 0 127 0" result="hardAlpha"/>
<feOffset/>
<feColorMatrix type="matrix" values="0 0 0 0 0.0313726 0 0 0 0 0.368627 0 0 0 0 0 0 0 0 0.28 0"/>
<feBlend mode="normal" in2="BackgroundImageFix" result="effect1_dropShadow_395_51715"/>
<feBlend mode="normal" in="SourceGraphic" in2="effect1_dropShadow_395_51715" result="shape"/>
</filter>
</defs>
</svg>
