<svg width="24" height="18" viewBox="0 0 24 18" fill="none" xmlns="http://www.w3.org/2000/svg">
<mask id="mask0_395_55442" style="mask-type:luminance" maskUnits="userSpaceOnUse" x="0" y="0" width="24" height="18">
<rect width="24" height="18" fill="white"/>
</mask>
<g mask="url(#mask0_395_55442)">
<path fill-rule="evenodd" clip-rule="evenodd" d="M0 0V18H24V0H0Z" fill="#F7FCFF"/>
<mask id="mask1_395_55442" style="mask-type:luminance" maskUnits="userSpaceOnUse" x="0" y="0" width="24" height="18">
<path fill-rule="evenodd" clip-rule="evenodd" d="M0 0V18H24V0H0Z" fill="white"/>
</mask>
<g mask="url(#mask1_395_55442)">
<path fill-rule="evenodd" clip-rule="evenodd" d="M0 0V6H24V0H0Z" fill="#272727"/>
<path fill-rule="evenodd" clip-rule="evenodd" d="M0 12V18H24V12H0Z" fill="#009933"/>
</g>
<path fill-rule="evenodd" clip-rule="evenodd" d="M0 0V18L15 9L0 0Z" fill="#E31D1C"/>
<mask id="mask2_395_55442" style="mask-type:luminance" maskUnits="userSpaceOnUse" x="0" y="0" width="15" height="18">
<path fill-rule="evenodd" clip-rule="evenodd" d="M0 0V18L15 9L0 0Z" fill="white"/>
</mask>
<g mask="url(#mask2_395_55442)">
<path fill-rule="evenodd" clip-rule="evenodd" d="M6.75135 10.403L5.34834 11.25L5.66836 9.59718L4.5 8.36021L6.08202 8.29332L6.75135 6.75L7.42067 8.29332H9L7.83433 9.59718L8.18527 11.25L6.75135 10.403Z" fill="#F7FCFF"/>
</g>
</g>
</svg>
