<svg width="24" height="18" viewBox="0 0 24 18" fill="none" xmlns="http://www.w3.org/2000/svg">
<mask id="mask0_395_50306" style="mask-type:luminance" maskUnits="userSpaceOnUse" x="0" y="0" width="24" height="18">
<rect width="24" height="18" fill="white"/>
</mask>
<g mask="url(#mask0_395_50306)">
<path fill-rule="evenodd" clip-rule="evenodd" d="M0 0V18H24V0H0Z" fill="#C51918"/>
<mask id="mask1_395_50306" style="mask-type:luminance" maskUnits="userSpaceOnUse" x="0" y="0" width="24" height="18">
<path fill-rule="evenodd" clip-rule="evenodd" d="M0 0V18H24V0H0Z" fill="white"/>
</mask>
<g mask="url(#mask1_395_50306)">
<path fill-rule="evenodd" clip-rule="evenodd" d="M12.2766 4.50977C12.436 4.51986 12.5929 4.53925 12.7473 4.56543L13.3762 3.16016L13.302 4.69434C13.454 4.7405 13.6027 4.79419 13.7473 4.85547L14.6868 3.63379L14.2571 5.1123C14.3928 5.19149 14.5245 5.27668 14.6506 5.36914L15.8508 4.39355L15.0881 5.73633C15.2013 5.84378 15.3091 5.95659 15.4104 6.0752L16.8079 5.39844L15.7512 6.53223C15.8363 6.66231 15.9153 6.79657 15.9866 6.93555L17.5051 6.59668L16.2131 7.45801C16.2653 7.60347 16.31 7.7523 16.3469 7.9043L17.9045 7.9209L16.4456 8.46484C16.4622 8.61701 16.4711 8.77136 16.4719 8.92773L17.9856 9.30078L16.4377 9.49609C16.4186 9.65111 16.3915 9.80346 16.3567 9.95312L17.7434 10.6631L16.1926 10.499C16.138 10.6449 16.0752 10.7866 16.0061 10.9248L17.1917 11.9326L15.719 11.418C15.6322 11.5468 15.5392 11.6711 15.4397 11.79L16.3586 13.042L15.0452 12.2041C14.9314 12.3094 14.8121 12.4088 14.6877 12.502L15.2913 13.9307L14.2073 12.8154C14.0724 12.8918 13.9335 12.962 13.7903 13.0244L14.0452 14.5508L13.2502 13.2188C13.1015 13.262 12.9499 13.2982 12.7952 13.3262L12.6887 14.8701L12.2249 13.3936C12.1459 13.3977 12.0665 13.4004 11.9866 13.4004C11.9096 13.4004 11.8331 13.3983 11.7571 13.3945L11.2952 14.8701L11.1868 13.3281C11.0318 13.3005 10.8797 13.2647 10.7307 13.2217L9.93872 14.5508L10.1917 13.0283C10.0475 12.9658 9.9075 12.896 9.77173 12.8193L8.69263 13.9307L9.29224 12.5078C9.16674 12.4142 9.04666 12.3139 8.93188 12.208L7.62524 13.042L8.53833 11.7959C8.43779 11.6762 8.34274 11.5517 8.25513 11.4219L6.79224 11.9326L7.96899 10.9307C7.8989 10.7911 7.83578 10.6475 7.78052 10.5L6.24048 10.6631L7.61646 9.95801C7.58108 9.80651 7.55376 9.65211 7.53442 9.49512L5.99829 9.30078L7.50024 8.93066C7.50093 8.772 7.5096 8.61527 7.52661 8.46094L6.07935 7.9209L7.62524 7.9043C7.66264 7.7503 7.70791 7.59943 7.76099 7.45215L6.47876 6.59668L7.98657 6.93359C8.05869 6.79313 8.13766 6.65675 8.22388 6.52539L7.17603 5.39844L8.5647 6.07227C8.66745 5.95218 8.77698 5.83811 8.89185 5.72949L8.13306 4.39355L9.32642 5.36523C9.45388 5.27203 9.58759 5.18707 9.72485 5.10742L9.29712 3.63379L10.2327 4.85254C10.3783 4.79115 10.5279 4.73749 10.6809 4.69141L10.6077 3.16016L11.2356 4.56348C11.39 4.53766 11.5469 4.51853 11.7063 4.50879L11.9915 3L12.2766 4.50977ZM11.9592 5.5625C10.0806 5.56264 8.55799 7.07311 8.55786 8.93652C8.55786 10.8 10.0805 12.3114 11.9592 12.3115C13.8381 12.3115 15.3616 10.8001 15.3616 8.93652C15.3614 7.07303 13.838 5.5625 11.9592 5.5625ZM11.8127 8.95117C12.3053 9.58687 12.6425 10.4682 12.8381 11.4141C12.57 11.5089 12.2824 11.5635 11.9817 11.5635C11.6005 11.5635 11.2398 11.478 10.9143 11.3291C10.9259 10.4433 11.2244 9.65162 11.8127 8.95117ZM12.3196 8.68555C12.9995 9.46769 13.4268 10.1386 13.3977 11.1357C13.3503 11.1671 13.3017 11.1964 13.2522 11.2246C13.0501 10.2307 12.6679 9.44719 12.136 8.82031L12.2668 8.72266C12.2838 8.70986 12.302 8.6983 12.3196 8.68555ZM11.5442 8.69531C10.9176 9.40836 10.5765 10.2126 10.5178 11.1045C10.4401 11.0505 10.3663 10.9917 10.2952 10.9297C10.5314 9.98835 10.9225 9.21142 11.4846 8.64844C11.5052 8.66449 11.5255 8.67942 11.5442 8.69531ZM12.7014 8.52246C13.5375 8.92592 14.0091 9.88131 14.0413 10.5254C13.9675 10.6244 13.889 10.7194 13.802 10.8066C13.7541 9.92308 13.3781 9.24912 12.7014 8.52246ZM11.1741 8.51758C10.6137 9.06208 10.1942 9.68141 9.93774 10.5479C9.91772 10.5216 9.8972 10.4958 9.87817 10.4688C9.92385 9.81792 10.339 8.89889 11.1741 8.51758ZM14.342 7.97168C14.4773 8.28434 14.5529 8.62886 14.553 8.99121C14.553 9.36361 14.4717 9.71658 14.3293 10.0361C14.152 9.40124 13.749 8.75705 12.8538 8.36523C13.2575 8.16736 13.7548 8.01349 14.342 7.97168ZM9.61157 7.98926C10.2019 8.05559 10.6678 8.19717 11.0168 8.36328C10.1281 8.74094 9.77885 9.34916 9.60278 9.96973C9.47852 9.66801 9.40942 9.33772 9.40942 8.99121C9.40948 8.63584 9.48115 8.29711 9.61157 7.98926ZM11.9817 6.41992C12.6998 6.41996 13.3483 6.71494 13.8147 7.18945C13.0806 7.2746 12.4578 7.45685 11.9524 7.74316C11.5021 7.48484 10.8935 7.3105 10.1282 7.21094C10.5962 6.72407 11.253 6.41992 11.9817 6.41992Z" fill="#FFDC17"/>
</g>
</g>
</svg>
