<svg width="24" height="18" viewBox="0 0 24 18" fill="none" xmlns="http://www.w3.org/2000/svg">
<mask id="mask0_395_54574" style="mask-type:luminance" maskUnits="userSpaceOnUse" x="0" y="0" width="24" height="18">
<rect width="24" height="18" fill="white"/>
</mask>
<g mask="url(#mask0_395_54574)">
<path fill-rule="evenodd" clip-rule="evenodd" d="M0 0V18H24V0H0Z" fill="#E31D1C"/>
<mask id="mask1_395_54574" style="mask-type:luminance" maskUnits="userSpaceOnUse" x="0" y="0" width="24" height="18">
<path fill-rule="evenodd" clip-rule="evenodd" d="M0 0V18H24V0H0Z" fill="white"/>
</mask>
<g mask="url(#mask1_395_54574)">
<path fill-rule="evenodd" clip-rule="evenodd" d="M12.039 6.13684C12.039 6.13684 11.8799 6.42853 11.912 6.82532C11.9322 7.07365 11.9773 7.3207 12.0078 7.47083C12.0201 7.47194 12.0325 7.47245 12.0449 7.47375C12.0877 7.32677 12.1635 7.08618 12.2607 6.85852C12.4134 6.50073 12.8512 6.29726 12.8603 6.29309C12.8603 6.29309 12.6399 6.54192 12.582 6.93567C12.5465 7.1768 12.5355 7.42238 12.5312 7.57629C12.5411 7.57944 12.5506 7.58377 12.5605 7.58704C12.638 7.45431 12.7685 7.24178 12.916 7.047C13.1533 6.73383 13.6347 6.64465 13.6347 6.64465C13.6347 6.64465 13.3604 6.83307 13.2089 7.20129C13.1206 7.41606 13.0518 7.63943 13.0097 7.78821C13.0248 7.79685 13.0397 7.80563 13.0546 7.81458C13.1611 7.70235 13.3281 7.53421 13.5068 7.38489C13.8035 7.13699 14.2821 7.1538 14.2978 7.15442C14.284 7.15997 13.9838 7.28283 13.7587 7.59973C13.6313 7.77925 13.5191 7.97071 13.4443 8.10559C13.4605 8.12035 13.4773 8.13436 13.4931 8.14954C13.6222 8.0649 13.8106 7.9482 14.0048 7.84973C14.3518 7.67396 14.8174 7.80021 14.8271 7.80286C14.8199 7.80395 14.4954 7.85473 14.2011 8.11633C14.0487 8.25181 13.9068 8.39969 13.8046 8.51184C13.8185 8.53166 13.8314 8.55214 13.8447 8.57239C13.9886 8.52289 14.1861 8.46155 14.3847 8.41614C14.7627 8.3297 15.1829 8.5631 15.1943 8.56946C15.1864 8.56873 14.8592 8.5403 14.5107 8.72278C14.3451 8.80951 14.1851 8.90775 14.0624 8.9884C14.0752 9.01958 14.0862 9.05133 14.0976 9.08313C14.2445 9.0686 14.4339 9.05441 14.621 9.05481C15.0098 9.05567 15.3671 9.37967 15.3749 9.38684C15.3661 9.38391 15.0545 9.28278 14.6747 9.38196C14.5081 9.42551 14.3443 9.48115 14.2119 9.52942C14.2178 9.568 14.2253 9.60647 14.2294 9.64563C14.3686 9.66452 14.5381 9.69116 14.7031 9.72961C15.081 9.81771 15.3562 10.2126 15.3632 10.2228C15.3556 10.2181 15.0749 10.0495 14.6826 10.0607C14.5246 10.0652 14.3664 10.0802 14.2333 10.0958C14.2299 10.1388 14.2253 10.1814 14.2197 10.2238C14.3443 10.2741 14.4907 10.3366 14.6308 10.4083C14.9755 10.5849 15.1473 11.0329 15.1523 11.046C15.1476 11.0413 14.9152 10.8081 14.5302 10.7238C14.3899 10.693 14.2475 10.6711 14.123 10.6544C14.1072 10.7029 14.088 10.7499 14.0693 10.797C14.1728 10.8703 14.29 10.9569 14.4003 11.0499C14.7009 11.3033 14.7646 11.7892 14.7646 11.7892C14.7646 11.7892 14.5919 11.5056 14.2324 11.3351C14.1109 11.2775 13.9858 11.2263 13.874 11.1837C13.8449 11.2303 13.8152 11.276 13.7831 11.3204C13.8625 11.4103 13.9501 11.5134 14.0302 11.6202C14.2641 11.9324 14.2193 12.415 14.2187 12.422C14.2187 12.422 14.1138 12.1066 13.8017 11.8595C13.703 11.7814 13.5991 11.7094 13.5048 11.6456C13.4645 11.6849 13.4218 11.7215 13.3788 11.7579C13.4317 11.8605 13.4886 11.9758 13.538 12.0929C13.6884 12.4497 13.532 12.9028 13.5273 12.9161C13.5263 12.9048 13.4976 12.5794 13.2587 12.2697C13.1854 12.1746 13.1062 12.0839 13.0331 12.0021C12.9812 12.0326 12.9283 12.0612 12.874 12.088C12.9013 12.1964 12.9292 12.3164 12.9501 12.4366C13.0168 12.8195 12.7596 13.2273 12.7538 13.2365C12.7557 13.2237 12.8003 12.9007 12.6376 12.546C12.589 12.4399 12.5348 12.3363 12.4833 12.2423C12.4239 12.2598 12.3639 12.2761 12.3027 12.2892C12.3046 12.398 12.3052 12.517 12.2988 12.6349C12.2774 13.0274 11.9277 13.3712 11.9277 13.3712C11.9277 13.3712 12.0499 13.0619 11.9697 12.672C11.9459 12.5569 11.9158 12.4428 11.8867 12.339C11.8516 12.3405 11.8166 12.3448 11.7812 12.3448C11.7563 12.3448 11.7317 12.3417 11.707 12.3409C11.6823 12.4484 11.6544 12.5661 11.6191 12.6808C11.5054 13.0499 11.0954 13.2963 11.081 13.3048C11.0888 13.2937 11.2739 13.0263 11.29 12.6368C11.2948 12.5202 11.2931 12.4032 11.29 12.296C11.2297 12.2839 11.1708 12.2675 11.1122 12.2511C11.0636 12.3514 11.0082 12.4613 10.9472 12.5665C10.7498 12.9063 10.2831 13.0538 10.2831 13.0538C10.2831 13.0538 10.5322 12.8333 10.6376 12.4493C10.67 12.3315 10.6952 12.2117 10.7167 12.1027C10.6632 12.0771 10.6108 12.0498 10.5595 12.0206C10.4878 12.1099 10.4072 12.2081 10.3212 12.2999C10.0525 12.5868 9.56342 12.6251 9.56342 12.6251C9.56342 12.6251 9.85571 12.4665 10.0449 12.1163C10.1059 12.0033 10.1599 11.8861 10.207 11.7804C10.165 11.7457 10.1254 11.7084 10.0859 11.671C9.99061 11.744 9.88274 11.825 9.77045 11.8976C9.4447 12.1082 8.96957 12.0325 8.95697 12.0304C8.96497 12.0283 9.28196 11.9438 9.54681 11.6534C9.63922 11.5521 9.7243 11.4438 9.79877 11.3478C9.76755 11.3057 9.73743 11.2629 9.70892 11.2189C9.59484 11.2712 9.46369 11.3297 9.33002 11.3781C8.96033 11.5117 8.50775 11.3234 8.50775 11.3234C8.51184 11.3233 8.84146 11.3137 9.16693 11.089C9.28852 11.005 9.40489 10.9127 9.50385 10.8312C9.48553 10.787 9.46978 10.7418 9.45404 10.6964C9.32493 10.7236 9.17324 10.7533 9.02142 10.7716C8.63113 10.8187 8.23236 10.5333 8.23236 10.5333C8.2396 10.5348 8.56175 10.5984 8.92767 10.4532C9.07934 10.3931 9.22662 10.3216 9.34857 10.2599C9.34276 10.2206 9.33489 10.1816 9.33099 10.1417C9.19177 10.1374 9.02294 10.1292 8.85736 10.1085C8.4712 10.0602 8.15553 9.69483 8.14935 9.68762C8.15328 9.68949 8.45167 9.83004 8.84369 9.77747C9.01821 9.75406 9.19106 9.71704 9.33002 9.68469C9.33327 9.64828 9.33787 9.61223 9.34271 9.57629C9.20176 9.53992 9.02481 9.49027 8.85443 9.42786C8.48684 9.29319 8.2606 8.86212 8.25873 8.85852C8.25873 8.85852 8.51864 9.06542 8.91498 9.10266C9.10675 9.12066 9.30044 9.12335 9.44916 9.12219C9.459 9.09326 9.46952 9.06469 9.48041 9.03625C9.34662 8.96758 9.17198 8.87191 9.00775 8.76477C8.68276 8.55262 8.55865 8.08794 8.5556 8.07629C8.55591 8.07668 8.76295 8.3367 9.14056 8.46204C9.3396 8.52808 9.54492 8.57618 9.69427 8.60852C9.70591 8.5901 9.71634 8.57094 9.72845 8.55286C9.61219 8.45228 9.45196 8.30797 9.30756 8.15247C9.04005 7.86439 9.03607 7.37415 9.03607 7.37415C9.03607 7.37415 9.17353 7.67666 9.5097 7.88977C9.69771 8.00891 9.89723 8.11117 10.0361 8.17883C10.0504 8.16453 10.0663 8.15177 10.081 8.13782C9.9891 8.01315 9.85581 7.8252 9.7431 7.62903C9.54743 7.28817 9.65326 6.80969 9.65326 6.80969C9.65326 6.80969 9.71932 7.13578 9.99896 7.41907C10.1655 7.58768 10.3491 7.74034 10.4697 7.83704C10.4833 7.8285 10.4969 7.81992 10.5107 7.81165C10.4489 7.67008 10.356 7.44696 10.287 7.21985C10.1743 6.84832 10.3786 6.41222 10.3837 6.40149C10.3836 6.40886 10.3774 6.73723 10.5839 7.07239C10.7141 7.2836 10.8665 7.48161 10.9619 7.60168C10.9704 7.59869 10.9786 7.59482 10.9872 7.59192C10.9613 7.44105 10.9226 7.19115 10.9101 6.94348C10.8904 6.55086 11.2031 6.17297 11.2031 6.17297C11.2031 6.17297 11.1137 6.49281 11.2343 6.87219C11.31 7.11025 11.4101 7.34129 11.4736 7.48059C11.4853 7.47914 11.4969 7.47699 11.5087 7.47571C11.5172 7.32345 11.537 7.06893 11.581 6.82239C11.6501 6.43538 12.039 6.13684 12.039 6.13684Z" fill="#FFC84A"/>
<path fill-rule="evenodd" clip-rule="evenodd" d="M-0.593917 10.4395L1.21849 9.70398C1.59964 9.54929 2.02641 9.55118 2.40618 9.70922L4.81964 10.7136C5.23043 10.8845 5.69463 10.8722 6.09578 10.6797L7.9688 9.78083C8.38885 9.57925 8.87694 9.57567 9.29989 9.77106L11.2708 10.6815C11.684 10.8725 12.16 10.8736 12.5742 10.6847L14.6021 9.75996C15.0161 9.57114 15.4919 9.57224 15.9051 9.76298L17.9066 10.687C18.3133 10.8747 18.781 10.8789 19.191 10.6984L21.4266 9.71397C21.7932 9.55254 22.2078 9.53811 22.5847 9.67364L24.7148 10.4395V17.9497H-0.660645L-0.593917 10.4395Z" fill="#F7FCFF"/>
<mask id="mask2_395_54574" style="mask-type:luminance" maskUnits="userSpaceOnUse" x="-1" y="9" width="26" height="9">
<path fill-rule="evenodd" clip-rule="evenodd" d="M-0.593917 10.4395L1.21849 9.70398C1.59964 9.54929 2.02641 9.55118 2.40618 9.70922L4.81964 10.7136C5.23043 10.8845 5.69463 10.8722 6.09578 10.6797L7.9688 9.78083C8.38885 9.57925 8.87694 9.57567 9.29989 9.77106L11.2708 10.6815C11.684 10.8725 12.16 10.8736 12.5742 10.6847L14.6021 9.75996C15.0161 9.57114 15.4919 9.57224 15.9051 9.76298L17.9066 10.687C18.3133 10.8747 18.781 10.8789 19.191 10.6984L21.4266 9.71397C21.7932 9.55254 22.2078 9.53811 22.5847 9.67364L24.7148 10.4395V17.9497H-0.660645L-0.593917 10.4395Z" fill="white"/>
</mask>
<g mask="url(#mask2_395_54574)">
<path d="M-0.593903 12.1838L1.2185 11.4482C1.59965 11.2935 2.02643 11.2954 2.4062 11.4535L4.81965 12.4578C5.23045 12.6288 5.69465 12.6165 6.09579 12.4239L7.96882 11.5251C8.38886 11.3235 8.87695 11.3199 9.29991 11.5153L11.2708 12.4258C11.684 12.6167 12.16 12.6179 12.5742 12.429L14.6021 11.5042C15.0161 11.3154 15.4919 11.3165 15.9051 11.5072L17.9066 12.4312C18.3133 12.619 18.781 12.6231 19.191 12.4426L21.4266 11.4582C21.7932 11.2968 22.2078 11.2824 22.5847 11.4179L24.7148 12.1838" stroke="#015989" stroke-width="2"/>
<path d="M-0.59375 14.6807L1.21865 13.9452C1.5998 13.7905 2.02658 13.7924 2.40635 13.9504L4.81981 14.9548C5.2306 15.1257 5.6948 15.1134 6.09595 14.9209L7.96897 14.022C8.38901 13.8204 8.8771 13.8169 9.30006 14.0123L11.2709 14.9227C11.6842 15.1136 12.1601 15.1148 12.5743 14.9259L14.6022 14.0012C15.0163 13.8123 15.4921 13.8134 15.9052 14.0042L17.9068 14.9282C18.3135 15.1159 18.7812 15.1201 19.1911 14.9396L21.4268 13.9552C21.7934 13.7937 22.208 13.7793 22.5849 13.9148L24.715 14.6807" stroke="#015989" stroke-width="2"/>
<path fill-rule="evenodd" clip-rule="evenodd" d="M-0.593903 16.6699L-0.304679 16.5526C1.05232 16.0018 2.57177 16.0085 3.92386 16.5712L4.81965 16.944C5.23045 17.115 5.69465 17.1026 6.09579 16.9101L6.27072 16.8262C7.76619 16.1085 9.50394 16.0957 11.0098 16.7914L11.2708 16.912C11.684 17.1029 12.16 17.1041 12.5742 16.9152L12.9323 16.7519C14.4064 16.0796 16.1003 16.0836 17.5713 16.7626L17.9066 16.9174C18.3133 17.1052 18.781 17.1093 19.191 16.9288L19.9646 16.5881C21.2698 16.0134 22.7459 15.962 24.088 16.4445L24.7148 16.6699V19.1561H-0.45619L-0.593903 16.6699Z" fill="#015989"/>
</g>
<path fill-rule="evenodd" clip-rule="evenodd" d="M7.33514 2.56354C7.33514 2.56354 8.37909 2.56354 8.73055 2.56354C9.08201 2.56354 9.8749 2.02615 10.3335 2.20528C10.7921 2.38441 11.5642 2.96274 11.5642 2.96274C11.5642 2.96274 12.8387 1.9566 13.599 1.9566C14.3592 1.9566 15.7306 1.84473 15.7306 1.84473C15.7306 1.84473 15.4088 2.67983 14.5039 2.82128C13.599 2.96274 12.5163 3.65554 12.5163 3.65554C12.5163 3.65554 13.7629 3.65554 13.9871 3.65554C14.2113 3.65554 14.5039 3.99363 14.5039 3.99363C14.5039 3.99363 13.9003 4.40376 13.599 4.40376C13.2977 4.40376 12.9649 4.40376 12.9649 4.40376C12.9649 4.40376 12.3242 4.95349 11.5328 4.83652C10.7415 4.71956 10.1065 3.99363 10.1065 3.99363C10.1065 3.99363 9.41407 3.89438 9.41407 3.77496C9.41407 3.77496 9.33214 3.73729 9.2944 3.73832C9.07659 3.74426 8.93139 3.78339 8.85898 3.77496C9.25714 3.61959 9.41407 3.48213 9.41407 3.48213C9.41407 3.48213 9.6881 3.22506 9.89729 3.22506C10.1065 3.22506 10.805 3.65554 10.805 3.65554L10.9718 3.48213L10.1065 2.82128C8.34141 3.00622 7.33514 2.56354 7.33514 2.56354Z" fill="#FFC84A"/>
</g>
</g>
</svg>
