<svg width="24" height="18" viewBox="0 0 24 18" fill="none" xmlns="http://www.w3.org/2000/svg">
<mask id="mask0_395_50464" style="mask-type:luminance" maskUnits="userSpaceOnUse" x="0" y="0" width="24" height="18">
<rect width="24" height="18" fill="white"/>
</mask>
<g mask="url(#mask0_395_50464)">
<path fill-rule="evenodd" clip-rule="evenodd" d="M0 0V18H24V0H0Z" fill="#4EC7EE"/>
<mask id="mask1_395_50464" style="mask-type:luminance" maskUnits="userSpaceOnUse" x="0" y="0" width="24" height="18">
<path fill-rule="evenodd" clip-rule="evenodd" d="M0 0V18H24V0H0Z" fill="white"/>
</mask>
<g mask="url(#mask1_395_50464)">
<path d="M3.06744 17.4273C3.01984 17.7798 3.24563 18.0309 3.6244 18.1925C4.13359 18.4097 4.64737 18.2063 5.11997 17.6826L4.50752 17.1299C4.29758 17.3625 4.14587 17.4521 4.02877 17.4506C4.25806 17.2868 4.55185 17.0845 4.9097 16.8442L5.08145 16.5954C5.2194 16.0037 4.79046 15.683 4.13627 15.683C3.75096 15.683 3.4429 15.7593 3.24745 15.9232C2.92635 16.1924 2.98132 16.6222 3.31923 16.8458C3.34603 16.8635 3.37324 16.8795 3.40081 16.8937C3.21125 17.0538 3.09556 17.2191 3.06744 17.4273Z" fill="#FFE402"/>
<path d="M3.42371 16.8711C3.42371 16.8711 3.51729 16.6637 3.4705 16.5558" stroke="#FFE402" stroke-width="1.1"/>
<path d="M6.42707 17.4273C6.47467 17.7798 6.24888 18.0309 5.87011 18.1925C5.36092 18.4097 4.84714 18.2063 4.37454 17.6826L4.98699 17.1299C5.19693 17.3625 5.34863 17.4521 5.46574 17.4506C5.23644 17.2868 4.94266 17.0845 4.58481 16.8442L4.41305 16.5954C4.2751 16.0037 4.70405 15.683 5.35823 15.683C5.74355 15.683 6.05161 15.7593 6.24706 15.9232C6.56816 16.1924 6.51319 16.6222 6.17528 16.8458C6.14847 16.8635 6.12127 16.8795 6.0937 16.8937C6.28326 17.0538 6.39895 17.2191 6.42707 17.4273Z" fill="#FFE402"/>
<path d="M6.4469 16.7018L5.6949 17.0411C5.58935 16.8072 5.55781 16.5946 5.64565 16.392L6.40257 16.7202C6.42801 16.6615 6.42767 16.6592 6.4469 16.7018Z" fill="#FFE402"/>
<path d="M3.06744 0.571822C3.01984 0.219322 3.24563 -0.0317534 3.6244 -0.193346C4.13359 -0.410578 4.64737 -0.20716 5.11997 0.316498L4.50752 0.86924C4.29758 0.636624 4.14587 0.547002 4.02877 0.548526C4.25806 0.71234 4.55185 0.914571 4.9097 1.15489L5.08145 1.40368C5.2194 1.99543 4.79046 2.31607 4.13627 2.31607C3.75096 2.31607 3.4429 2.23983 3.24745 2.07595C2.92635 1.80672 2.98132 1.37693 3.31923 1.15333C3.34603 1.13559 3.37324 1.11963 3.40081 1.10541C3.21125 0.94533 3.09556 0.780063 3.06744 0.571822Z" fill="#FFE402"/>
<path d="M6.42707 0.571822C6.47467 0.219322 6.24888 -0.0317534 5.87011 -0.193346C5.36092 -0.410578 4.84714 -0.20716 4.37454 0.316498L4.98699 0.86924C5.19693 0.636624 5.34863 0.547002 5.46574 0.548526C5.23644 0.71234 4.94266 0.914571 4.58481 1.15489L4.41305 1.40368C4.2751 1.99543 4.70405 2.31607 5.35823 2.31607C5.74355 2.31607 6.05161 2.23983 6.24706 2.07595C6.56816 1.80672 6.51319 1.37693 6.17528 1.15333C6.14847 1.13559 6.12127 1.11963 6.0937 1.10541C6.28326 0.94533 6.39895 0.780063 6.42707 0.571822Z" fill="#FFE402"/>
<path fill-rule="evenodd" clip-rule="evenodd" d="M4.06153 16.2744C4.53237 16.2743 5.0622 15.9822 5.06251 15.459C5.06251 15.1405 4.65815 14.4974 3.63868 13.1045C3.60208 13.0704 3.58229 13.0555 3.56642 13.0566C3.62786 13.022 3.73743 12.9795 3.88282 12.9795C3.93265 12.9797 3.99747 13.0049 4.06153 13.0371V13.583H5.14063V13.1709C5.14057 12.705 4.45238 12.1546 3.88282 12.1543C3.38539 12.1543 2.98555 12.3911 2.78321 12.7314C2.58328 13.0679 2.73632 13.3915 3.02345 13.6484C3.45058 14.2375 3.78224 14.7255 3.99024 15.0459C3.91381 15.0453 3.8718 15.0454 3.82032 15.0469C3.34709 15.0605 3.05274 15.1581 3.05274 15.6143C3.05293 16.1171 3.54167 16.2744 4.06153 16.2744ZM3.77931 15.2451C3.80572 15.2318 3.83215 15.2151 3.79493 15.2764L3.77931 15.2451ZM3.86915 15.7822C3.74748 15.6749 3.70214 15.4977 3.76075 15.3447L3.79493 15.2764L3.8711 15.4268C3.85613 15.4234 3.84159 15.4199 3.82813 15.416C3.83816 15.4265 3.87794 15.4738 3.87794 15.6143C3.87793 15.6906 3.87408 15.7444 3.86915 15.7822ZM3.81349 15.4121C3.81503 15.4126 3.81796 15.4135 3.82032 15.415L3.82813 15.416C3.82327 15.4146 3.81808 15.4136 3.81349 15.4121ZM4.2295 15.4375L4.22462 15.4316C4.2329 15.4361 4.23829 15.4449 4.23829 15.459C4.23829 15.4559 4.23498 15.4488 4.2295 15.4375Z" fill="#FFE402"/>
<path fill-rule="evenodd" clip-rule="evenodd" d="M5.43348 16.2744C4.9626 16.2744 4.43183 15.9822 4.43153 15.459C4.43153 15.1405 4.83674 14.4976 5.85633 13.1045C5.89336 13.07 5.91263 13.0551 5.9286 13.0566C5.86722 13.0219 5.75787 12.9795 5.61219 12.9795C5.56235 12.9795 5.49768 13.0048 5.43348 13.0371V13.583H4.3534V13.1709C4.35347 12.7049 5.04254 12.1543 5.61219 12.1543C6.1097 12.1543 6.50949 12.391 6.7118 12.7314C6.9117 13.0679 6.75868 13.3915 6.47157 13.6484C6.04436 14.2376 5.71183 14.7254 5.50379 15.0459C5.58002 15.0453 5.62243 15.0454 5.67371 15.0469C6.14698 15.0605 6.44227 15.1581 6.44227 15.6143C6.44208 16.117 5.95323 16.2744 5.43348 16.2744ZM5.71473 15.2451C5.68839 15.2318 5.66204 15.2153 5.6991 15.2764L5.71473 15.2451ZM5.62586 15.7822C5.76494 15.6594 5.80386 15.445 5.70203 15.2803C5.70117 15.2789 5.69991 15.2777 5.6991 15.2764L5.62391 15.4268C5.63858 15.4235 5.65268 15.4198 5.6659 15.416C5.65561 15.4269 5.61707 15.4746 5.61707 15.6143C5.61708 15.6906 5.62093 15.7444 5.62586 15.7822ZM5.68055 15.4121C5.67903 15.4126 5.67697 15.4136 5.67469 15.415L5.6659 15.416C5.67074 15.4146 5.67597 15.4136 5.68055 15.4121ZM5.26453 15.4375L5.26942 15.4316C5.26114 15.4361 5.25672 15.4449 5.25672 15.459C5.25672 15.4559 5.25912 15.4487 5.26453 15.4375Z" fill="#FFE402"/>
<path fill-rule="evenodd" clip-rule="evenodd" d="M4.06153 8.78809C4.53237 8.78817 5.0622 9.08033 5.06251 9.60352C5.06251 9.92198 4.65815 10.5651 3.63868 11.958C3.60208 11.9921 3.58229 12.007 3.56642 12.0059C3.62786 12.0405 3.73743 12.083 3.88282 12.083C3.93265 12.0828 3.99747 12.0576 4.06153 12.0254V11.4795H5.14063V11.8916C5.14057 12.3575 4.45238 12.9079 3.88282 12.9082C3.38539 12.9082 2.98555 12.6714 2.78321 12.3311C2.58328 11.9946 2.73632 11.671 3.02345 11.4141C3.45058 10.825 3.78224 10.337 3.99024 10.0166C3.91381 10.0172 3.8718 10.0171 3.82032 10.0156C3.34709 10.002 3.05274 9.90443 3.05274 9.44824C3.05293 8.94541 3.54167 8.78809 4.06153 8.78809ZM3.77931 9.81738C3.80572 9.83068 3.83215 9.84741 3.79493 9.78613L3.77931 9.81738ZM3.86915 9.28027C3.74748 9.3876 3.70214 9.56485 3.76075 9.71777L3.79493 9.78613L3.8711 9.63574C3.85613 9.63907 3.84159 9.64258 3.82813 9.64648C3.83816 9.63598 3.87794 9.58874 3.87794 9.44824C3.87793 9.37191 3.87408 9.31806 3.86915 9.28027ZM3.81349 9.65039C3.81503 9.64989 3.81796 9.64899 3.82032 9.64746L3.82813 9.64648C3.82327 9.6479 3.81808 9.64891 3.81349 9.65039ZM4.2295 9.625L4.22462 9.63086C4.2329 9.62637 4.23829 9.6176 4.23829 9.60352C4.23829 9.60663 4.23498 9.61373 4.2295 9.625Z" fill="#FFE402"/>
<path fill-rule="evenodd" clip-rule="evenodd" d="M5.43348 8.78809C4.9626 8.78809 4.43183 9.08025 4.43153 9.60352C4.43153 9.922 4.83674 10.5649 5.85633 11.958C5.89336 11.9925 5.91263 12.0074 5.9286 12.0059C5.86722 12.0406 5.75787 12.083 5.61219 12.083C5.56235 12.083 5.49768 12.0577 5.43348 12.0254V11.4795H4.3534V11.8916C4.35347 12.3576 5.04254 12.9082 5.61219 12.9082C6.1097 12.9082 6.50949 12.6715 6.7118 12.3311C6.9117 11.9946 6.75868 11.671 6.47157 11.4141C6.04436 10.8249 5.71183 10.3371 5.50379 10.0166C5.58002 10.0172 5.62243 10.0171 5.67371 10.0156C6.14698 10.002 6.44227 9.90445 6.44227 9.44824C6.44208 8.94551 5.95323 8.78815 5.43348 8.78809ZM5.71473 9.81738C5.68839 9.83066 5.66204 9.84719 5.6991 9.78613L5.71473 9.81738ZM5.62586 9.28027C5.76494 9.40308 5.80386 9.61751 5.70203 9.78223C5.70117 9.78362 5.69991 9.78481 5.6991 9.78613L5.62391 9.63574C5.63858 9.63902 5.65268 9.64266 5.6659 9.64648C5.65561 9.63563 5.61707 9.58794 5.61707 9.44824C5.61708 9.37191 5.62093 9.31806 5.62586 9.28027ZM5.68055 9.65039C5.67903 9.64988 5.67697 9.64893 5.67469 9.64746L5.6659 9.64648C5.67074 9.64789 5.67597 9.64892 5.68055 9.65039ZM5.26453 9.625L5.26942 9.63086C5.26114 9.62637 5.25672 9.6176 5.25672 9.60352C5.25672 9.60662 5.25912 9.61384 5.26453 9.625Z" fill="#FFE402"/>
<path fill-rule="evenodd" clip-rule="evenodd" d="M4.06153 9.21094C4.53237 9.21086 5.0622 8.9187 5.06251 8.39551C5.06251 8.07704 4.65815 7.43395 3.63868 6.04102C3.60208 6.00692 3.58229 5.99205 3.56642 5.99316C3.62786 5.95847 3.73743 5.91602 3.88282 5.91602C3.93265 5.91617 3.99747 5.94141 4.06153 5.97363V6.51953H5.14063V6.10742C5.14057 5.64152 4.45238 5.09113 3.88282 5.09082C3.38539 5.09082 2.98555 5.32759 2.78321 5.66797C2.58328 6.00445 2.73632 6.32805 3.02345 6.58496C3.45058 7.17406 3.78224 7.662 3.99024 7.98242C3.91381 7.98178 3.8718 7.98192 3.82032 7.9834C3.34709 7.99703 3.05274 8.09459 3.05274 8.55078C3.05293 9.05361 3.54167 9.21094 4.06153 9.21094ZM3.77931 8.18164C3.80572 8.16834 3.83215 8.15161 3.79493 8.21289L3.77931 8.18164ZM3.86915 8.71875C3.74748 8.61142 3.70214 8.43418 3.76075 8.28125L3.79493 8.21289L3.8711 8.36328C3.85613 8.35995 3.84159 8.35645 3.82813 8.35254C3.83816 8.36305 3.87794 8.41029 3.87794 8.55078C3.87793 8.62712 3.87408 8.68096 3.86915 8.71875ZM3.81349 8.34863C3.81503 8.34913 3.81796 8.35003 3.82032 8.35156L3.82813 8.35254C3.82327 8.35113 3.81808 8.35011 3.81349 8.34863ZM4.2295 8.37402L4.22462 8.36816C4.2329 8.37265 4.23829 8.38142 4.23829 8.39551C4.23829 8.39239 4.23498 8.3853 4.2295 8.37402Z" fill="#FFE402"/>
<path fill-rule="evenodd" clip-rule="evenodd" d="M5.43348 9.21094C4.9626 9.21094 4.43183 8.91877 4.43153 8.39551C4.43153 8.07702 4.83674 7.43412 5.85633 6.04102C5.89336 6.00653 5.91263 5.99162 5.9286 5.99316C5.86722 5.95843 5.75787 5.91602 5.61219 5.91602C5.56235 5.91602 5.49768 5.94136 5.43348 5.97363V6.51953H4.3534V6.10742C4.35347 5.64139 5.04254 5.09082 5.61219 5.09082C6.1097 5.09083 6.50949 5.32749 6.7118 5.66797C6.9117 6.00444 6.75868 6.32805 6.47157 6.58496C6.04436 7.17417 5.71183 7.66196 5.50379 7.98242C5.58002 7.98179 5.62243 7.98193 5.67371 7.9834C6.14698 7.99702 6.44227 8.09457 6.44227 8.55078C6.44208 9.05352 5.95323 9.21088 5.43348 9.21094ZM5.71473 8.18164C5.68839 8.16836 5.66204 8.15184 5.6991 8.21289L5.71473 8.18164ZM5.62586 8.71875C5.76494 8.59594 5.80386 8.38151 5.70203 8.2168C5.70117 8.2154 5.69991 8.21421 5.6991 8.21289L5.62391 8.36328C5.63858 8.36001 5.65268 8.35637 5.6659 8.35254C5.65561 8.3634 5.61707 8.41108 5.61707 8.55078C5.61708 8.62712 5.62093 8.68096 5.62586 8.71875ZM5.68055 8.34863C5.67903 8.34914 5.67697 8.35009 5.67469 8.35156L5.6659 8.35254C5.67074 8.35113 5.67597 8.35011 5.68055 8.34863ZM5.26453 8.37402L5.26942 8.36816C5.26114 8.37265 5.25672 8.38142 5.25672 8.39551C5.25672 8.39241 5.25912 8.38519 5.26453 8.37402Z" fill="#FFE402"/>
<path fill-rule="evenodd" clip-rule="evenodd" d="M4.06153 1.7244C4.53237 1.72448 5.0622 2.01664 5.06251 2.53983C5.06251 2.85829 4.65815 3.50138 3.63868 4.89432C3.60208 4.92841 3.58229 4.94328 3.56642 4.94217C3.62786 4.97686 3.73743 5.01932 3.88282 5.01932C3.93265 5.01916 3.99747 4.99392 4.06153 4.9617V4.4158H5.14063V4.82791C5.14057 5.29381 4.45238 5.84421 3.88282 5.84451C3.38539 5.84451 2.98555 5.60775 2.78321 5.26736C2.58328 4.93088 2.73632 4.60729 3.02345 4.35037C3.45058 3.76127 3.78224 3.27333 3.99024 2.95291C3.91381 2.95355 3.8718 2.95342 3.82032 2.95193C3.34709 2.93831 3.05274 2.84074 3.05274 2.38455C3.05293 1.88172 3.54167 1.7244 4.06153 1.7244ZM3.77931 2.75369C3.80572 2.76699 3.83215 2.78372 3.79493 2.72244L3.77931 2.75369ZM3.86915 2.21658C3.74748 2.32391 3.70214 2.50116 3.76075 2.65408L3.79493 2.72244L3.8711 2.57205C3.85613 2.57538 3.84159 2.57889 3.82813 2.58279C3.83816 2.57229 3.87794 2.52505 3.87794 2.38455C3.87793 2.30822 3.87408 2.25437 3.86915 2.21658ZM3.81349 2.5867C3.81503 2.5862 3.81796 2.5853 3.82032 2.58377L3.82813 2.58279C3.82327 2.58421 3.81808 2.58522 3.81349 2.5867ZM4.2295 2.56131L4.22462 2.56717C4.2329 2.56268 4.23829 2.55391 4.23829 2.53983C4.23829 2.54294 4.23498 2.55004 4.2295 2.56131Z" fill="#FFE402"/>
<path fill-rule="evenodd" clip-rule="evenodd" d="M5.43348 1.7244C4.9626 1.7244 4.43183 2.01656 4.43153 2.53983C4.43153 2.85831 4.83674 3.50122 5.85633 4.89432C5.89336 4.9288 5.91263 4.94372 5.9286 4.94217C5.86722 4.9769 5.75787 5.01931 5.61219 5.01932C5.56235 5.01932 5.49768 4.99397 5.43348 4.9617V4.4158H4.3534V4.82791C4.35347 5.29394 5.04254 5.84451 5.61219 5.84451C6.1097 5.84451 6.50949 5.60784 6.7118 5.26736C6.9117 4.9309 6.75868 4.60728 6.47157 4.35037C6.04436 3.76117 5.71183 3.27337 5.50379 2.95291C5.58002 2.95355 5.62243 2.9534 5.67371 2.95193C6.14698 2.93831 6.44227 2.84076 6.44227 2.38455C6.44208 1.88182 5.95323 1.72446 5.43348 1.7244ZM5.71473 2.75369C5.68839 2.76697 5.66204 2.7835 5.6991 2.72244L5.71473 2.75369ZM5.62586 2.21658C5.76494 2.33939 5.80386 2.55382 5.70203 2.71854C5.70117 2.71993 5.69991 2.72112 5.6991 2.72244L5.62391 2.57205C5.63858 2.57533 5.65268 2.57897 5.6659 2.58279C5.65561 2.57194 5.61707 2.52425 5.61707 2.38455C5.61708 2.30822 5.62093 2.25437 5.62586 2.21658ZM5.68055 2.5867C5.67903 2.58619 5.67697 2.58524 5.67469 2.58377L5.6659 2.58279C5.67074 2.5842 5.67597 2.58523 5.68055 2.5867ZM5.26453 2.56131L5.26942 2.56717C5.26114 2.56268 5.25672 2.55391 5.25672 2.53983C5.25672 2.54293 5.25912 2.55015 5.26453 2.56131Z" fill="#FFE402"/>
<path fill-rule="evenodd" clip-rule="evenodd" d="M13.8268 9.38184C14.1123 9.42706 14.0922 9.67892 14.0914 9.6875L13.6227 10.7734L13.4987 9.59375C13.4996 9.58761 13.5399 9.33639 13.8268 9.38184ZM14.65 9.38477C14.9364 9.33962 14.9943 9.58725 14.9957 9.59375L14.8864 10.7715L14.4039 9.6875C14.4029 9.68113 14.3633 9.43018 14.65 9.38477ZM12.6539 9.22656C12.6582 9.21782 12.7699 8.99389 13.0289 9.12012C13.2867 9.24582 13.1976 9.4778 13.193 9.48926L12.4274 10.3916L12.6539 9.22656ZM15.4489 9.12793C15.7072 9.00197 15.8348 9.21681 15.8405 9.22656L16.0807 10.3848L15.3024 9.48926C15.2992 9.48284 15.1883 9.25502 15.4489 9.12793ZM11.9498 8.6123C11.9533 8.60849 12.1276 8.4216 12.3405 8.62012C12.5555 8.82068 12.3883 9.02148 12.3883 9.02148L11.3932 9.66016L11.9498 8.6123ZM16.1412 8.63379C16.3563 8.43325 16.5446 8.61328 16.5446 8.61328L17.1119 9.65039L16.1061 9.02246C16.1061 9.02246 15.9262 8.83435 16.1412 8.63379ZM14.2955 3.76465C15.6995 3.76492 16.8375 4.97384 16.8375 6.46484C16.8374 7.95576 15.6994 9.16477 14.2955 9.16504C12.8914 9.16504 11.7527 7.95592 11.7526 6.46484C11.7526 4.97368 12.8913 3.76465 14.2955 3.76465ZM11.4508 7.80664C11.457 7.803 11.676 7.67697 11.8209 7.92773C11.9641 8.17575 11.7613 8.31793 11.7506 8.3252L10.6119 8.64551L11.4508 7.80664ZM16.6637 7.94336C16.807 7.69509 17.0323 7.80021 17.0436 7.80566L17.8903 8.63184L16.7438 8.3252C16.7342 8.31971 16.52 8.19236 16.6637 7.94336ZM11.1998 6.87891C11.1998 6.87891 11.453 6.81697 11.5192 7.10352C11.585 7.38978 11.3346 7.46289 11.3346 7.46289L10.153 7.43555L11.1998 6.87891ZM17.2946 6.87891L18.3453 7.42188L17.1598 7.46289C17.1598 7.46289 16.9052 7.40764 16.9713 7.12109C17.0376 6.8349 17.2946 6.87891 17.2946 6.87891ZM11.2203 5.91309C11.2203 5.91309 11.4801 5.92734 11.4596 6.2207C11.439 6.51393 11.1783 6.51074 11.1783 6.51074L10.0563 6.13867L11.2203 5.91309ZM18.4371 6.125L17.316 6.51074C17.316 6.51074 17.0563 6.53262 17.0358 6.23926C17.0153 5.94601 17.274 5.91309 17.274 5.91309L18.4371 6.125ZM17.1989 5.55469C17.1989 5.55469 16.9566 5.6515 16.8512 5.37695C16.7461 5.10264 16.984 4.99512 16.984 4.99512L18.1578 4.85742L17.1989 5.55469ZM11.5114 4.99512C11.5137 4.99597 11.7549 5.08711 11.65 5.36035C11.5446 5.63455 11.2965 5.55469 11.2965 5.55469L10.3317 4.87207L11.5114 4.99512ZM16.8278 4.68164C16.8278 4.68164 16.6271 4.84866 16.442 4.62012C16.2583 4.39311 16.4474 4.21806 16.4498 4.21582L17.525 3.72266L16.8278 4.68164ZM12.0446 4.21582C12.0446 4.21582 12.2487 4.37708 12.0641 4.60547C11.8815 4.83099 11.6731 4.68552 11.6676 4.68164L10.9606 3.7334L12.0446 4.21582ZM16.2194 3.96191C16.2194 3.96191 16.0764 4.17991 15.8326 4.01562C15.5929 3.8539 15.7181 3.63419 15.7223 3.62695L16.6051 2.83984L16.2194 3.96191ZM12.7721 3.62695C12.7721 3.62695 12.9212 3.84141 12.6774 4.00586C12.4397 4.16617 12.2837 3.97265 12.276 3.96289L11.8776 2.84961L12.7721 3.62695ZM15.4352 3.46387C15.4352 3.46387 15.3629 3.71391 15.0817 3.62793C14.8036 3.54284 14.8607 3.29443 14.8619 3.28906L15.4772 2.2793L15.4352 3.46387ZM13.6324 3.28906C13.6324 3.28906 13.7114 3.53704 13.4303 3.62305C13.1541 3.7075 13.0624 3.47321 13.0592 3.46484L13.0035 2.2832L13.6324 3.28906ZM14.5465 3.2334C14.5465 3.2334 14.5506 3.49414 14.2565 3.49414C13.9624 3.49412 13.9479 3.2334 13.9479 3.2334L14.2399 2.08789L14.5465 3.2334Z" fill="#FFE402"/>
<path fill-rule="evenodd" clip-rule="evenodd" d="M16.2139 12.1426C16.3966 12.1895 16.5654 12.2283 16.7188 12.2598L16.8506 12.4805C16.9527 12.4319 17.0527 12.3815 17.1514 12.333C17.3838 12.363 17.5582 12.3669 17.6699 12.3438C17.6791 12.3177 17.679 12.3179 18.0566 12.4189C18.153 13.0747 18.153 13.0753 18.0117 13.0947C17.9678 13.1186 17.9672 13.1193 17.9482 13.127C17.9185 13.1384 17.9179 13.1378 17.8945 13.1455C17.8377 13.1641 17.7371 13.1938 17.6084 13.2285C17.3008 13.3115 16.9029 13.4093 16.5068 13.4971C15.3414 13.7554 14.4366 13.8823 13.9463 13.8008L13.7227 13.7637L13.6338 13.5547C13.6104 13.5004 13.2601 13.3221 12.6309 13.1445L12.1621 13.0117L12.7383 12.835L11.8691 12.4932L11.4404 12.8086L9.52051 12.2666L11.416 12.3066C11.4951 12.341 11.5742 12.3772 11.6553 12.4092L11.8691 12.4932L12.1025 12.3203L12.6748 12.333L12.8926 12.7646L13.2188 12.5244L12.9561 12.3379C13.132 12.341 13.3011 12.3436 13.4629 12.3447L13.2188 12.5244L13.3682 12.6309C13.6313 12.5401 13.8858 12.4423 14.1338 12.3428C15.1598 12.3319 15.7751 12.2785 15.8662 12.2109L16.0234 12.0938L16.2139 12.1426ZM13.3682 12.6309C13.1727 12.6983 12.9733 12.7636 12.7695 12.8262L12.7383 12.835L14.7891 13.6436L14.127 13.1719C14.1018 13.1721 14.0763 13.1727 14.0508 13.1729L14.0586 13.123L13.3682 12.6309ZM12.1621 13.0117L10.4473 13.54L11.4404 12.8086L12.1621 13.0117ZM14.0586 13.123L14.127 13.1719C14.2079 13.1712 14.2869 13.1703 14.3633 13.1689C14.3311 13.11 14.29 13.0542 14.2402 13.001C14.1796 12.9994 14.1264 12.9947 14.082 12.9873L14.0586 13.123ZM16.0586 12.75L16.0088 12.9424C16.057 12.9548 16.1048 12.9661 16.1514 12.9775C16.2367 12.947 16.3052 12.9128 16.3574 12.874L16.2373 12.7119C16.177 12.725 16.1174 12.7377 16.0586 12.75ZM17.0781 12.3223L16.917 12.4404L16.8193 12.2773C16.9118 12.295 16.9979 12.3106 17.0781 12.3223ZM11.5947 12.3096L11.5674 12.3613L11.4922 12.3076L11.5947 12.3096ZM15.0195 11.957C14.7363 12.0933 14.4402 12.2198 14.1338 12.3428C13.9266 12.345 13.7027 12.3464 13.4629 12.3447L13.9902 11.957H15.0195ZM12.9561 12.3379C12.889 12.3367 12.821 12.3364 12.752 12.335L12.6748 12.333L12.5273 12.0381C12.529 12.0376 12.5306 12.0366 12.5322 12.0361L12.9561 12.3379ZM20.9766 9.44141C20.3662 10.4246 19.091 11.3792 17.1514 12.333C17.1275 12.3299 17.1032 12.3259 17.0781 12.3223L20.8691 9.55762L20.5508 9.26172C20.9524 9.05498 21.2146 8.78487 21.3232 8.43555L21.416 8.13672L22.0928 7.64355L20.9766 9.44141ZM8.50098 9.16309V9.38184C8.50098 9.77209 8.77559 10.0671 9.24707 10.3096L9.58008 9.94922C10.0666 10.5282 10.6474 10.9932 11.3223 11.3486L10.8271 10.8213L12.5107 12.0205L12.1025 12.3203L11.5947 12.3096L11.957 11.6416C11.7364 11.5547 11.5255 11.4557 11.3223 11.3486L11.3594 11.3887L9.25488 10.3145C9.25215 10.3131 9.24979 10.311 9.24707 10.3096L9.02539 10.5508L11.4922 12.3076L11.416 12.3066C10.4416 11.8828 9.61729 11.2746 8.94922 10.4795L6.8623 7.99609L8.50098 9.16309ZM16.8193 12.2773C16.7867 12.2711 16.7529 12.2668 16.7188 12.2598L16.5391 11.957H16.6289L16.8193 12.2773ZM12.7148 11.8701C12.782 11.8858 12.8501 11.8987 12.9189 11.9102C12.7917 11.9524 12.6633 11.9958 12.5322 12.0361L12.5107 12.0205L12.7148 11.8701ZM17.0918 11.957H16.6289L16.5537 11.8311L17.0918 11.957ZM14.7334 11.4092L13.9902 11.957H13.4863C13.2911 11.957 13.1021 11.9405 12.9189 11.9102C12.9692 11.8935 13.0197 11.8783 13.0693 11.8613C13.1754 11.8933 13.2835 11.9217 13.3936 11.9473L13.417 11.7344C13.7604 11.608 14.0884 11.4741 14.4014 11.332L14.7334 11.4092ZM16.4502 11.8076L16.5391 11.957H15.0195C15.24 11.851 15.4518 11.7382 15.6582 11.624L16.4502 11.8076ZM10.0469 9.16797C10.6925 10.4718 11.624 11.3482 12.835 11.7812L12.7148 11.8701C11.5528 11.599 10.65 10.6914 10.0068 9.18848L10.0469 9.16797ZM13.417 11.7344C13.3024 11.7765 13.1873 11.8209 13.0693 11.8613C12.9898 11.8373 12.9123 11.8089 12.835 11.7812L13.4658 11.3184L13.417 11.7344ZM19.8838 9.5127C19.2244 10.2291 18.0956 10.9759 16.4971 11.7354L16.5537 11.8311L16.4502 11.8076L16.4307 11.7744L19.3398 9.65137L19.708 9.5625C19.7685 9.54782 19.8264 9.52871 19.8838 9.5127ZM18.5322 8.69043L18.4658 8.75293L18.6797 9.03418C18.5657 9.19236 18.4475 9.34837 18.3203 9.49902L17.3223 10.1406L17.8408 10.0146C17.2321 10.6194 16.505 11.1557 15.6582 11.624L14.7334 11.4092L18.4854 8.64844L18.5322 8.69043ZM18.8662 7.85254L18.5801 7.6123C17.8091 9.17677 16.4199 10.4158 14.4014 11.332L13.6748 11.1641L19.7109 6.72168L18.8662 7.85254ZM10.4287 7.94238C11.0498 9.74846 12.0939 10.798 13.5801 11.1426L13.6748 11.1641L13.4658 11.3184L13.4873 11.1328C12.1117 11.1328 11.0974 10.1129 10.4336 7.95605L10.123 8.05664L10.1182 8.04199L10.4287 7.94238ZM9.11621 8.99512C9.17805 9.11874 9.24856 9.24873 9.3291 9.38477C9.33286 9.38843 9.34119 9.39384 9.35254 9.40332L9.24316 9.13086L9.47363 9.37598L9.37793 9.4248C9.39501 9.4378 9.4171 9.45287 9.44434 9.4707L9.52344 9.42969L9.57324 9.48242L9.5166 9.51562C9.53177 9.52449 9.54809 9.53345 9.56543 9.54297L9.60645 9.51855L10.8271 10.8213L9.4834 9.86328L9.62988 9.5791C9.60654 9.56719 9.58566 9.55407 9.56543 9.54297L9.27051 9.71191L9.22754 9.68066L9.5166 9.51562C9.48905 9.49952 9.4652 9.48437 9.44434 9.4707L9.39551 9.49609C9.37259 9.4587 9.35069 9.42123 9.3291 9.38477C9.32755 9.38325 9.32659 9.38227 9.32617 9.38184H8.95801L9.04004 9.54785L8.99512 9.51562C8.96647 9.46976 8.93848 9.42541 8.91211 9.38184L8.86621 9.42383L8.50098 9.16309V8.55566C8.5704 8.7748 8.70746 9.04372 8.91211 9.38184H8.95801L8.50098 8.46191V8.42773L8.55762 8.39941L9.11621 8.99512ZM8.99512 9.51562C9.04677 9.59832 9.0991 9.68684 9.1582 9.77734L9.27051 9.71191L9.4834 9.86328L9.44238 9.94629L9.1416 10.2285L8.6123 9.66406L8.86621 9.42383L8.99512 9.51562ZM19.7617 9.34375L19.3398 9.65137L17.8408 10.0146C18.0092 9.84735 18.1703 9.67679 18.3203 9.49902L18.7988 9.19141L18.9629 9.40625C19.1968 9.26258 19.4098 9.11808 19.6055 8.97754L19.7617 9.34375ZM9.22754 9.68066L9.13379 9.73535L9.04004 9.54785L9.22754 9.68066ZM9.26953 8.25098C9.26953 8.30238 9.33032 8.44479 9.44727 8.66016L9.32129 8.25684L9.78223 9.18652L9.76562 9.19336C9.77155 9.20267 9.77717 9.21226 9.7832 9.22168L9.79688 9.21387L9.80469 9.23047L9.79199 9.23535C9.8016 9.25032 9.81044 9.26601 9.82031 9.28125L9.82715 9.27734L9.87305 9.36816L9.60645 9.51855L9.57324 9.48242L9.84863 9.32617C9.83886 9.31121 9.82984 9.29596 9.82031 9.28125L9.52344 9.42969L9.47363 9.37598L9.64746 9.29004C9.46945 8.89481 9.33336 8.54958 9.23828 8.25098H9.26953ZM20.5508 9.26172C20.3597 9.36009 20.1368 9.44207 19.8838 9.5127C19.9101 9.48413 19.9352 9.45523 19.96 9.42676L20.4131 9.13477L20.5508 9.26172ZM21.1523 8.66113L20.4131 9.13477L20.2754 9.00684C20.1891 9.14587 20.0832 9.28524 19.96 9.42676L19.833 9.50879L19.7617 9.34375L21.0068 8.43457L21.1523 8.66113ZM9.36426 9.43262L9.37793 9.4248C9.36754 9.4169 9.35959 9.40921 9.35254 9.40332L9.36426 9.43262ZM19.7285 8.70117C19.661 8.72121 19.5892 8.74217 19.5127 8.76074L19.5557 8.8623L19.0283 9.35645L18.8682 9.14648L18.9678 9.08301L18.9688 9.08398C18.9701 9.08274 18.9713 9.08133 18.9727 9.08008L20.1025 8.35352L19.7285 8.70117ZM9.64746 9.29004L9.64844 9.29102L9.79199 9.23535C9.78906 9.23078 9.78611 9.22623 9.7832 9.22168L9.64746 9.29004ZM9.74512 8.16406L9.6748 8.1875C9.67608 8.19202 9.67737 8.19658 9.67871 8.20117L9.75098 8.17676L10.1045 9.06348L10.082 9.07227L10.0166 9.10449C10.0229 9.1175 10.0288 9.13063 10.0352 9.14355L10.123 9.10938L10.1299 9.12695L10.0469 9.16797C10.0429 9.15989 10.0391 9.15167 10.0352 9.14355L9.99414 9.15918C9.9983 9.169 10.0027 9.17871 10.0068 9.18848L9.82715 9.27734L9.80469 9.23047L9.99414 9.15918C9.98915 9.1474 9.98347 9.13588 9.97852 9.12402L9.79688 9.21387L9.78223 9.18652L9.97461 9.11328C9.85602 8.82871 9.74483 8.52408 9.64453 8.19824L9.6748 8.1875C9.65179 8.10561 9.63968 8.03581 9.63965 7.97852H9.23438L9.32129 8.25684L9.18945 7.99219L9.22754 7.97852H9.23438L9.09473 7.5332L9.44922 7.42188L9.74512 8.16406ZM9.63086 9.24512L9.76562 9.19336C9.63363 8.98598 9.5268 8.80662 9.44727 8.66016L9.63086 9.24512ZM18.8682 9.14648L18.7988 9.19141L18.6797 9.03418C18.6965 9.01079 18.7119 8.98645 18.7285 8.96289L18.8682 9.14648ZM8.81543 7.23828V7.97852C8.81543 8.06647 8.82554 8.15904 8.84473 8.25684L8.85742 8.25098H8.8916L8.84375 8.13086L9.16602 8.00195C9.1866 8.08109 9.21061 8.16407 9.23828 8.25098H8.8916L9.24316 9.13086L9.11621 8.99512C8.97886 8.72055 8.88774 8.47607 8.84473 8.25684L8.55762 8.39941L8.50098 8.33887V8.42773L8.4873 8.43457L8.50098 8.46191V8.55566C8.46458 8.44078 8.44533 8.3404 8.44531 8.25098V6.49316L8.81543 7.23828ZM9.97461 9.11328C9.97607 9.1168 9.97705 9.12051 9.97852 9.12402L10.0166 9.10449C10.0157 9.10253 10.0146 9.1006 10.0137 9.09863L9.97461 9.11328ZM10.1182 8.04199L10.0469 8.06641C10.0484 8.07098 10.0502 8.07547 10.0518 8.08008L10.123 8.05664L10.418 8.99805L10.123 9.10938L10.1045 9.06348L10.4004 8.95215C10.2491 8.61636 10.1341 8.32406 10.0518 8.08008L9.75098 8.17676L9.74512 8.16406L10.0469 8.06641C9.95034 7.77781 9.90141 7.5574 9.90137 7.41016H9.48828L9.44922 7.42188L9.07617 6.48633V4.71094L10.1182 8.04199ZM9.64941 8.21191C9.75759 8.52642 9.88011 8.82151 10.0137 9.09863L10.082 9.07227L10.0986 9.06445C9.87916 8.70641 9.74101 8.41453 9.67871 8.20117L9.64941 8.21191ZM20.3936 7.28516C20.1497 7.83668 19.6758 8.43104 18.9727 9.08008L18.9678 9.08301L18.7705 8.90527C18.785 8.88429 18.8002 8.86389 18.8145 8.84277L19.0195 9.02832L20.3447 7.25098L20.3936 7.28516ZM20.165 8.53223C20 8.67925 19.814 8.82781 19.6055 8.97754L19.5557 8.8623L19.7285 8.70117C19.9035 8.64926 20.0479 8.59171 20.165 8.53223ZM18.7705 8.90527C18.757 8.92484 18.7422 8.94343 18.7285 8.96289L18.5312 8.70312C18.5343 8.70128 18.537 8.69911 18.54 8.69727L18.7705 8.90527ZM19.1523 8.29004C19.0477 8.47894 18.9355 8.66322 18.8145 8.84277L18.6055 8.65527C18.8056 8.53031 18.9882 8.40904 19.1523 8.29004ZM18.6055 8.65527C18.5837 8.6689 18.5623 8.68358 18.54 8.69727L18.5322 8.69043L18.5869 8.63867L18.6055 8.65527ZM18.957 7.92773C18.7979 8.10283 18.616 8.28685 18.4092 8.47754L18.5469 8.60254L18.4854 8.64844L18.3584 8.53418L18.8662 7.85254L18.957 7.92773ZM18.5869 8.63867L18.5469 8.60254L18.9238 8.3252L18.5869 8.63867ZM21.416 8.13672L21.0068 8.43457L20.9297 8.31348L20.5361 8.19141C20.4995 8.30918 20.3778 8.42418 20.165 8.53223C20.3761 8.34427 20.5525 8.15977 20.6924 7.97461L21.6602 7.35352L21.416 8.13672ZM20.9844 7.48145C20.9163 7.64604 20.8174 7.80916 20.6924 7.97461L20.1025 8.35352L20.8848 7.625L20.3936 7.28516C20.4361 7.189 20.4735 7.09463 20.502 7.00098L20.5635 6.79492L21.71 5.72656L20.9844 7.48145ZM19.1943 8.12695L18.9238 8.3252L19.1641 8.10059L19.1943 8.12695ZM20.4375 7.12793L20.3447 7.25098L20.2217 7.16602C20.0871 7.49114 19.7309 7.87067 19.1523 8.29004C19.2097 8.18652 19.2679 8.08289 19.3203 7.97656L19.3389 7.9375L20.2881 7.05176L20.4375 7.12793ZM19.877 6.84473L19.3389 7.9375L19.1641 8.10059L18.957 7.92773C19.3596 7.48474 19.612 7.09428 19.7129 6.76172L19.877 6.84473ZM9.18945 7.99219L9.16602 8.00195C9.15642 7.96507 9.14868 7.92879 9.14062 7.89355L9.18945 7.99219ZM9.07617 6.48633V7.41016C9.07619 7.55011 9.09878 7.71054 9.14062 7.89355L8.81543 7.23828V5.83301L9.07617 6.48633ZM20.5635 6.79492L20.2881 7.05176L19.877 6.84473L20.0674 6.45996L19.7109 6.72168L21.1855 4.74707L20.5635 6.79492Z" fill="#FFE402"/>
</g>
</g>
</svg>
