<svg width="24" height="18" viewBox="0 0 24 18" fill="none" xmlns="http://www.w3.org/2000/svg">
<mask id="mask0_395_55639" style="mask-type:luminance" maskUnits="userSpaceOnUse" x="0" y="0" width="24" height="18">
<rect width="24" height="18" fill="white"/>
</mask>
<g mask="url(#mask0_395_55639)">
<path fill-rule="evenodd" clip-rule="evenodd" d="M0 12H24V18H0V12Z" fill="#55BB07"/>
<path fill-rule="evenodd" clip-rule="evenodd" d="M0 6H24V12H0V6Z" fill="#F5FBFF"/>
<path fill-rule="evenodd" clip-rule="evenodd" d="M0 0H24V6H0V0Z" fill="#3D57DB"/>
<path fill-rule="evenodd" clip-rule="evenodd" d="M11.9062 5.5C12.105 5.5 12.2736 5.6242 12.3418 5.79883C12.9564 5.93495 13.4014 6.3535 13.4014 7.0332C13.4012 7.52702 13.1639 8.12515 12.7998 8.53711L14.627 10.3291L15.0771 10.1816L15.75 11.2012C15.7411 11.2053 14.0451 12 11.9502 12C9.8555 12 8.25879 11.2056 8.25 11.2012L8.82227 10.3291L9.28418 10.4814L10.9785 8.56836C10.5988 8.15594 10.3507 7.53932 10.3506 7.0332C10.3506 6.33031 10.8264 5.90695 11.4736 5.78613C11.5448 5.61783 11.712 5.5 11.9062 5.5ZM11.6445 11.4766L11.7393 11.623H12.5176L12.2148 11.29L11.6445 11.4766ZM10.5908 11.415L10.665 11.5557L11.3164 11.6162L11.0518 11.292L10.5908 11.415ZM12.7715 11.4141L12.8691 11.5791L13.5332 11.5049L13.2744 11.249L12.7715 11.4141ZM9.6084 11.251L9.67773 11.3682L10.2881 11.4893L10.0684 11.1514L9.6084 11.251ZM13.7969 11.3203L13.877 11.4443L14.4365 11.3203L14.2207 11.0654L13.7969 11.3203ZM11.5254 11.3223L12.1201 11.165L12.0469 11.0303H11.2754L11.5254 11.3223ZM8.8916 11.1572L9.21777 11.2705V11.0908L8.8916 11.1572ZM10.5127 11.2705L10.9297 11.1436L10.8135 10.9912L10.3232 10.9297L10.5127 11.2705ZM12.4609 11.041L12.6436 11.2646L13.1377 11.0938L13.0762 10.9766L12.4609 11.041ZM14.7256 11.0781V11.1992L15.1035 11.0781L14.9453 10.8604L14.7256 11.0781ZM13.4912 10.9326L13.6777 11.1621L14.123 10.9326L14 10.8643L13.4912 10.9326ZM9.55176 11.1006L9.9668 10.9873L9.88477 10.8301L9.38477 10.71L9.55176 11.1006ZM14.2988 10.7324L14.5684 10.9902L14.8301 10.7324L14.748 10.6279L14.2988 10.7324ZM8.81152 10.9873H9.18164L9.00098 10.7227L8.81152 10.9873ZM11.4375 6.17969C11.0455 6.28492 10.8389 6.5567 10.8389 7.03613C10.8389 7.58371 11.1077 8.09721 11.4375 8.3623V6.17969ZM12.375 8.34668C12.6957 8.07775 12.9541 7.57436 12.9541 7.03711C12.954 6.57189 12.7499 6.30238 12.375 6.19043V8.34668Z" fill="#1C1C1C"/>
</g>
</svg>
