<svg width="24" height="18" viewBox="0 0 24 18" fill="none" xmlns="http://www.w3.org/2000/svg">
<mask id="mask0_395_52364" style="mask-type:luminance" maskUnits="userSpaceOnUse" x="0" y="0" width="24" height="18">
<rect width="24" height="18" fill="white"/>
</mask>
<g mask="url(#mask0_395_52364)">
<path fill-rule="evenodd" clip-rule="evenodd" d="M16.5 0H24V18H16.5V0Z" fill="#D9071E"/>
<path fill-rule="evenodd" clip-rule="evenodd" d="M0 0H9V18H0V0Z" fill="#3D58DB"/>
<path fill-rule="evenodd" clip-rule="evenodd" d="M7.5 0H16.5V18H7.5V0Z" fill="#FBCD17"/>
<path fill-rule="evenodd" clip-rule="evenodd" d="M11.2933 10.4659L8.67514 15.2569L7.8851 14.8262L10.5033 10.0342L11.2933 10.4659ZM16.2884 14.711L15.4994 15.1417L12.8812 10.3506L13.6712 9.91901L16.2884 14.711Z" fill="#FD1900"/>
<path fill-rule="evenodd" clip-rule="evenodd" d="M12.2542 12.0701C12.2615 12.0892 12.8666 13.6462 14.6243 14.8748C12.7392 15.378 12.2542 16.3885 12.2542 16.3885C12.2542 15.5802 9.86255 14.8748 9.86255 14.8748C10.6737 14.3466 11.8606 11.9783 11.8606 11.9783L12.2542 12.0701ZM12.0911 2.13849C13.332 2.13849 13.4768 2.72479 13.4768 3.1922C13.4768 3.65962 12.762 4.66645 12.762 5.05157C12.762 5.43669 13.0522 6.18341 13.4768 6.18341C13.775 6.18334 15.2077 5.62117 16.0364 5.28888V4.05646C16.2365 2.58083 17.2133 2.37217 17.2336 2.36798C17.2336 2.36798 18.4338 2.79987 18.4338 4.05646V15.2596C18.4276 15.2515 17.6337 14.2306 17.2336 13.784C16.8319 13.3354 16.0365 12.1305 16.0364 11.2059V7.04181H8.53345V11.2059C8.53328 12.1307 7.73683 13.3356 7.33521 13.784C6.93728 14.2283 6.15052 15.2409 6.13599 15.2596V4.05646C6.13606 2.80502 7.32545 2.37151 7.33521 2.36798C7.33521 2.36798 8.33124 2.56521 8.53345 4.05646C8.53345 4.05646 8.53345 4.90271 8.53345 6.0174L8.65942 5.60626C9.063 5.90359 9.9435 6.46261 10.5354 6.18341C11.3157 5.8146 11.5916 4.7643 11.5979 4.74005C11.5979 4.74005 11.5242 3.66074 11.2004 3.65997C10.8764 3.65997 10.8502 2.13854 12.0911 2.13849ZM9.73169 11.5008C10.2785 11.5008 10.7219 11.9205 10.7219 12.4383C10.7219 12.9561 10.2785 13.3758 9.73169 13.3758C9.18504 13.3757 8.74243 12.956 8.74243 12.4383C8.74243 11.9206 9.18504 11.5009 9.73169 11.5008ZM14.55 11.5008C15.0967 11.5009 15.5403 11.9206 15.5403 12.4383C15.5403 12.956 15.0967 13.3757 14.55 13.3758C14.0033 13.3758 13.5598 12.9561 13.5598 12.4383C13.5598 11.9205 14.0033 11.5008 14.55 11.5008Z" fill="#A77B3B"/>
<path d="M18.855 7.80573L19.5434 8.10329L16.7388 14.5922L16.0503 14.2947L18.855 7.80573Z" fill="#FDFF00"/>
<path opacity="0.3" fill-rule="evenodd" clip-rule="evenodd" d="M8.28 5.875H16.2V11.6042C16.2 11.6042 14.1847 12.2112 12.24 13.2073C10.8045 12.1424 8.28 11.6042 8.28 11.6042V5.875Z" fill="#E1E5E8"/>
<mask id="mask1_395_52364" style="mask-type:luminance" maskUnits="userSpaceOnUse" x="8" y="5" width="9" height="9">
<path fill-rule="evenodd" clip-rule="evenodd" d="M8.28 5.875H16.2V11.6042C16.2 11.6042 14.1847 12.2112 12.24 13.2073C10.8045 12.1424 8.28 11.6042 8.28 11.6042V5.875Z" fill="white"/>
</mask>
<g mask="url(#mask1_395_52364)">
<rect x="8.28" y="9.625" width="7.92" height="3.75" fill="#3D58DB"/>
<rect x="8.28" y="5.875" width="7.92" height="3.75" fill="#FD1900"/>
<path fill-rule="evenodd" clip-rule="evenodd" d="M11.8398 7.56208L11.2396 7.61176L11.5858 7.14477L11.2168 6.66113L11.8201 6.73882L12.0515 6.20551L12.3086 6.75018L12.9088 6.70051L12.5626 7.1675L12.9316 7.65113L12.3283 7.57345L12.0969 8.10676L11.8398 7.56208Z" fill="#FDFF00"/>
<path fill-rule="evenodd" clip-rule="evenodd" d="M10.7623 6.50424C10.7623 6.50424 9.14984 7.48524 9.68732 8.18944C10.2248 8.89364 10.9014 8.98379 10.9014 8.98379C10.9014 8.98379 9.25196 11.4583 12.155 12.8719C15.263 11.5072 13.6285 8.98379 13.6285 8.98379C13.6285 8.98379 14.5852 8.77213 14.7767 8.01071C14.9683 7.24929 13.5262 6.37598 13.5262 6.37598C13.5262 6.37598 14.4259 7.68008 14.2205 8.01071C14.0151 8.34135 12.9148 8.67796 12.155 8.67796C11.3952 8.67796 10.2218 8.46461 10.0325 7.88686C9.84314 7.30911 10.7623 6.50424 10.7623 6.50424Z" fill="#FDFF00"/>
<path fill-rule="evenodd" clip-rule="evenodd" d="M9.27 9L10.26 9.625L9.27 10.25L8.28 9.625L9.27 9Z" fill="#FDFF00"/>
<path fill-rule="evenodd" clip-rule="evenodd" d="M15.21 9L16.2 9.625L15.21 10.25L14.22 9.625L15.21 9Z" fill="#FDFF00"/>
<path fill-rule="evenodd" clip-rule="evenodd" d="M9.24 11.475C9.40569 11.475 9.54 11.3407 9.54 11.175C9.54 11.0093 9.40569 10.875 9.24 10.875C9.07432 10.875 8.94 11.0093 8.94 11.175C8.94 11.3407 9.07432 11.475 9.24 11.475Z" fill="#FDFF00"/>
<path fill-rule="evenodd" clip-rule="evenodd" d="M15.6224 10.9074C15.3649 10.6989 14.9702 10.7595 14.7408 11.0427C14.5114 11.326 14.5342 11.7247 14.7917 11.9333C14.9317 12.0466 14.8586 11.5963 15.0705 11.3097C15.2484 11.0691 15.74 11.0026 15.6224 10.9074Z" fill="#FDFF00"/>
</g>
<path fill-rule="evenodd" clip-rule="evenodd" d="M7.16772 10.6151C7.16772 10.6151 7.33059 11.7526 6.6814 11.9901C6.03698 12.2253 5.0831 11.3997 5.06909 11.3875H5.74878V11.1268L6.12378 11.3875V11.1268H6.60425L7.16772 10.6151ZM6.18628 9.31134C6.18891 9.33001 6.34373 10.4508 5.69995 10.6863C5.05332 10.9228 4.09521 10.0894 4.08765 10.0828H4.76733V9.82306L5.14233 10.0828V9.82306H5.62183L6.18628 9.31134ZM5.65112 7.87482C5.65112 7.87482 5.83199 8.97055 5.08765 9.27618C4.34926 9.5793 3.56515 8.66217 3.55249 8.64728H4.23218V8.38654L4.60718 8.64728V8.38654H5.08765L5.65112 7.87482Z" fill="#048F02"/>
<path fill-rule="evenodd" clip-rule="evenodd" d="M10.484 2.13263H10.9137V2.88263H10.484V4.19122H9.73404V2.88263H9.3815V2.13263H9.73404V1.68634H10.484V2.13263Z" fill="#FDFF00"/>
<path fill-rule="evenodd" clip-rule="evenodd" d="M11.3687 2.5379L9.63159 2.98539L11.3687 3.5343V2.5379Z" fill="#DB4400"/>
</g>
</svg>
