<svg width="24" height="18" viewBox="0 0 24 18" fill="none" xmlns="http://www.w3.org/2000/svg">
<mask id="mask0_395_50155" style="mask-type:luminance" maskUnits="userSpaceOnUse" x="0" y="0" width="24" height="18">
<rect width="24" height="18" fill="white"/>
</mask>
<g mask="url(#mask0_395_50155)">
<path fill-rule="evenodd" clip-rule="evenodd" d="M7.5 0H16.5V18H7.5V0Z" fill="#4C67E8"/>
<path fill-rule="evenodd" clip-rule="evenodd" d="M16.5 0H24V18H16.5V0Z" fill="#C51918"/>
<path fill-rule="evenodd" clip-rule="evenodd" d="M0 0H9V18H0V0Z" fill="#C51918"/>
<path fill-rule="evenodd" clip-rule="evenodd" d="M4.4668 15.0002L3.17285 14.1994H5.92383L4.4668 15.0002ZM2.82715 14.9817H1.5V8.55296H2.82715V14.9817ZM7.5 14.9817H6.17285V8.55296H7.5V14.9817ZM5.88477 13.9192H3.17285V13.4162H5.88477V13.9192ZM4.55762 10.4534C5.32225 10.4534 5.94238 11.0543 5.94238 11.7952C5.94226 12.536 5.32218 13.1369 4.55762 13.1369C3.79299 13.1369 3.17297 12.536 3.17285 11.7952C3.17285 11.0542 3.79292 10.4534 4.55762 10.4534ZM5.88477 10.1741H3.17285V9.67113H5.88477V10.1741ZM4.4668 9.40941L3.17285 8.60863H5.92383L4.4668 9.40941ZM6.03223 6.91234C6.02872 6.93384 5.79905 8.31254 4.42969 8.31273C3.05854 8.31273 3.00263 6.93084 3.00195 6.91234C3.00195 6.91234 3.53679 7.76976 4.51758 7.76976C5.48762 7.76971 6.02072 6.93063 6.03223 6.91234ZM4.5293 5.42308C5.15033 5.42334 5.65419 5.91115 5.6543 6.51293C5.6543 7.11479 5.15039 7.60251 4.5293 7.60277C3.90798 7.60277 3.4043 7.11494 3.4043 6.51293C3.4044 5.91099 3.90804 5.42308 4.5293 5.42308ZM4.52051 3.23656C4.55057 3.30996 4.61752 3.37098 4.72363 3.47972C4.9025 3.66302 4.69471 4.42255 4.84863 4.42308C5.00206 4.42308 4.99132 3.74073 4.99121 3.73363L5.25 4.42308C5.2504 4.44314 5.25982 5.1631 4.51074 5.16332C3.76064 5.16332 3.84818 4.44188 3.85059 4.42308L4.21094 3.64476V4.42308C4.21134 4.52215 4.34668 4.32192 4.34668 4.08129C4.34681 3.8403 4.51074 3.47972 4.51074 3.47972C4.51086 3.47763 4.51602 3.35573 4.52051 3.23656ZM4.51074 3.04808C4.52988 2.93651 4.52623 3.08432 4.52051 3.23656C4.49988 3.1862 4.49677 3.12978 4.51074 3.04808Z" fill="#F8D000"/>
<path d="M4.76874 10.4798L4.83061 10.2041C5.13996 10.5425 5.2801 10.7325 5.21389 11.0426C5.13998 11.3887 4.75141 11.7742 4.29996 12.0919C4.02654 12.2843 3.85903 12.8036 3.99472 12.9687L3.86533 13.2041C3.56292 12.8361 3.80462 12.1418 4.22193 11.8482C4.60513 11.5785 4.87274 11.2958 4.91942 11.0732C4.94981 10.9283 5.00647 10.7398 4.76874 10.4798Z" fill="#C51918"/>
<path fill-rule="evenodd" clip-rule="evenodd" d="M4.875 12.75C5.08211 12.75 5.25 12.5821 5.25 12.375C5.25 12.1679 5.08211 12 4.875 12C4.66789 12 4.5 12.1679 4.5 12.375C4.5 12.5821 4.66789 12.75 4.875 12.75Z" fill="#C51918"/>
<path fill-rule="evenodd" clip-rule="evenodd" d="M4.03174 11.7383C4.23885 11.7383 4.40674 11.5704 4.40674 11.3633C4.40674 11.1562 4.23885 10.9883 4.03174 10.9883C3.82463 10.9883 3.65674 11.1562 3.65674 11.3633C3.65674 11.5704 3.82463 11.7383 4.03174 11.7383Z" fill="#C51918"/>
</g>
</svg>
