<svg width="24" height="18" viewBox="0 0 24 18" fill="none" xmlns="http://www.w3.org/2000/svg">
<mask id="mask0_395_50245" style="mask-type:luminance" maskUnits="userSpaceOnUse" x="0" y="0" width="24" height="18">
<rect width="24" height="18" fill="white"/>
</mask>
<g mask="url(#mask0_395_50245)">
<path fill-rule="evenodd" clip-rule="evenodd" d="M0 0V18H24V0H0Z" fill="#1C9975"/>
<mask id="mask1_395_50245" style="mask-type:luminance" maskUnits="userSpaceOnUse" x="0" y="0" width="24" height="18">
<path fill-rule="evenodd" clip-rule="evenodd" d="M0 0V18H24V0H0Z" fill="white"/>
</mask>
<g mask="url(#mask1_395_50245)">
<path fill-rule="evenodd" clip-rule="evenodd" d="M12.0162 5.14031L10.7909 5.88001L11.0704 4.43655L10.05 3.35626L11.4317 3.29785L12.0162 1.95001L12.6008 3.29785H13.98L12.962 4.43655L13.2685 5.88001L12.0162 5.14031Z" fill="#FECA00"/>
<path fill-rule="evenodd" clip-rule="evenodd" d="M8.53695 5.68835L7.77933 6.14573L7.95214 5.25321L7.32123 4.58524L8.17552 4.54912L8.53695 3.71573L8.89839 4.54912H9.75123L9.12177 5.25321L9.31127 6.14573L8.53695 5.68835Z" fill="#FECA00"/>
<path fill-rule="evenodd" clip-rule="evenodd" d="M15.4358 5.68835L14.6781 6.14573L14.8509 5.25321L14.22 4.58524L15.0743 4.54912L15.4358 3.71573L15.7972 4.54912H16.65L16.0206 5.25321L16.2101 6.14573L15.4358 5.68835Z" fill="#FECA00"/>
<path fill-rule="evenodd" clip-rule="evenodd" d="M6.57489 7.20797L5.96692 7.575L6.10559 6.85878L5.5993 6.32276L6.28485 6.29377L6.57489 5.625L6.86493 6.29377H7.5493L7.04418 6.85878L7.19625 7.575L6.57489 7.20797Z" fill="#FECA00"/>
<path fill-rule="evenodd" clip-rule="evenodd" d="M17.6706 7.20797L17.0626 7.575L17.2013 6.85878L16.695 6.32276L17.3806 6.29377L17.6706 5.625L17.9606 6.29377H18.645L18.1399 6.85878L18.292 7.575L17.6706 7.20797Z" fill="#FECA00"/>
<mask id="mask2_395_50245" style="mask-type:luminance" maskUnits="userSpaceOnUse" x="6" y="4" width="12" height="13">
<path fill-rule="evenodd" clip-rule="evenodd" d="M12 16.5C15.3137 16.5 18 13.8137 18 10.5C18 7.18629 15.3137 4.5 12 4.5C8.68629 4.5 6 7.18629 6 10.5C6 13.8137 8.68629 16.5 12 16.5Z" fill="white"/>
</mask>
<g mask="url(#mask2_395_50245)">
<path fill-rule="evenodd" clip-rule="evenodd" d="M9.51062 15.7979H14.4893V16.6021H9.51062V15.7979Z" fill="#F7FCFF"/>
<path fill-rule="evenodd" clip-rule="evenodd" d="M7.46826 14.5947H17.0427V15.332H7.46826V14.5947Z" fill="#F7FCFF"/>
<path d="M9.46522 14.2654H6.53668V13.5154L9.45994 13.5155C10.4955 13.5009 11.2522 13.2051 11.757 12.6361L12.0086 12.3526L12.2894 12.6072C12.9637 13.2186 13.6372 13.5154 14.3186 13.5154H17.5468V14.2654H14.3186C13.5358 14.2654 12.7801 13.971 12.0575 13.3944C11.4176 13.9617 10.5486 14.2502 9.46522 14.2654Z" fill="#F7FCFF"/>
</g>
<path fill-rule="evenodd" clip-rule="evenodd" d="M12.0259 5.70584C12.0259 5.70584 13.3619 6.87814 13.3619 8.70975C13.3618 8.99764 13.3248 9.26898 13.2691 9.52322C13.5886 8.67277 13.5868 7.75725 13.2603 6.76541L13.7457 6.60526C14.1439 7.81478 14.1039 8.94384 13.6304 9.98123C14.4372 9.35356 15.3997 8.97726 16.5123 8.85428L16.5679 9.36209C16.2788 9.39405 16.0016 9.44484 15.7359 9.51346C16.9203 9.51871 17.8531 10.0203 17.8531 10.0203C17.8453 10.0375 17.1137 11.6429 15.3716 12.1756C14.8933 12.3218 14.4312 12.3561 14.0123 12.3328C14.3123 12.4346 14.618 12.4861 14.9302 12.4861C15.778 12.4861 16.567 12.1396 17.3052 11.4353L17.6578 11.8045C16.8285 12.5955 15.9159 12.9969 14.9302 12.9969C14.1281 12.9967 13.1141 12.5233 12.3052 11.8943C12.1653 11.8277 12.0865 11.783 12.0865 11.783C12.0865 11.783 12.0964 11.7683 12.1129 11.74C12.1016 11.7305 12.0908 11.7203 12.0797 11.7107C12.0677 11.7197 11.9918 11.7742 11.8629 11.8523C11.0438 12.6115 10.1477 12.9969 9.18219 12.9969C8.19676 12.9968 7.28474 12.5963 6.45563 11.8055L6.80817 11.4353C7.54634 12.1394 8.33453 12.486 9.18219 12.4861C9.19119 12.4861 9.20055 12.4852 9.20953 12.4851C9.11868 12.4763 9.0264 12.4659 8.93317 12.45C7.15501 12.1462 6.23688 10.0867 6.23688 10.0867C6.25182 10.0812 7.8362 9.50178 9.45074 9.91385C9.62847 9.95921 9.79803 10.0183 9.96051 10.0838C9.30211 9.70451 8.55306 9.44703 7.78473 9.36209L7.84039 8.85428C8.72005 8.95152 9.57707 9.25392 10.3218 9.70291C9.96127 8.74298 9.96206 7.70704 10.3248 6.60526L10.8101 6.76541C10.4526 7.85163 10.4838 8.84666 10.9009 9.76443C10.807 9.43926 10.7447 9.08536 10.7447 8.70975C10.7447 6.97843 12.017 5.71472 12.0259 5.70584ZM11.3502 10.9471C11.4215 11.0087 11.4859 11.0714 11.5474 11.1297C11.4997 11.0587 11.4511 10.9819 11.4019 10.9002L11.3502 10.9471ZM12.5884 11.0662C12.5824 11.0749 12.5769 11.084 12.5709 11.0926C12.5785 11.0834 12.5865 11.0745 12.5943 11.0652C12.5923 11.0653 12.5904 11.0661 12.5884 11.0662Z" fill="#F7FCFF"/>
</g>
</g>
</svg>
