<svg width="24" height="18" viewBox="0 0 24 18" fill="none" xmlns="http://www.w3.org/2000/svg">
<rect width="24" height="18" fill="white"/>
<path d="M14.54 8.5H7.93262L15.4326 17.5H0.5V0.84082L14.54 8.5Z" fill="#C51918" stroke="#4857A1"/>
<mask id="mask0_395_51061" style="mask-type:luminance" maskUnits="userSpaceOnUse" x="0" y="0" width="17" height="18">
<path d="M14.54 8.5H7.93262L15.4326 17.5H0.5V0.84082L14.54 8.5Z" fill="white" stroke="white"/>
</mask>
<g mask="url(#mask0_395_51061)">
<path fill-rule="evenodd" clip-rule="evenodd" d="M4.37222 15.0077L3.45335 16.2002L3.41093 14.6953L1.96658 15.12L2.81682 13.8776L1.39868 13.3722L2.81682 12.8668L1.96658 11.6244L3.41093 12.0491L3.45335 10.5442L4.37222 11.7368L5.2911 10.5442L5.33351 12.0491L6.77787 11.6244L5.92763 12.8668L7.34576 13.3722L5.92763 13.8776L6.77787 15.12L5.33351 14.6953L5.2911 16.2002L4.37222 15.0077Z" fill="#F7FCFF"/>
<path fill-rule="evenodd" clip-rule="evenodd" d="M4.35004 6.1041L3.87016 6.72691L3.84801 5.94098L3.0937 6.16278L3.53774 5.51393L2.79712 5.25L3.53774 4.98607L3.0937 4.33722L3.84801 4.55902L3.87016 3.77309L4.35004 4.3959L4.82991 3.77309L4.85207 4.55902L5.60637 4.33722L5.16234 4.98607L5.90295 5.25L5.16234 5.51393L5.60637 6.16278L4.85207 5.94098L4.82991 6.72691L4.35004 6.1041Z" fill="#F7FCFF"/>
<path fill-rule="evenodd" clip-rule="evenodd" d="M4.24976 5.92085C5.91949 5.92752 6.80975 4.98027 6.80975 4.98027C6.98586 6.06114 5.6261 6.78027 4.26603 6.78027C2.90596 6.78027 2.08251 5.80001 1.5752 4.98027C1.5752 4.98027 2.58002 5.91418 4.24976 5.92085Z" fill="#F9FAFA"/>
</g>
</svg>
