<svg width="24" height="18" viewBox="0 0 24 18" fill="none" xmlns="http://www.w3.org/2000/svg">
<mask id="mask0_395_54812" style="mask-type:luminance" maskUnits="userSpaceOnUse" x="0" y="0" width="24" height="18">
<rect width="24" height="18" fill="white"/>
</mask>
<g mask="url(#mask0_395_54812)">
<path fill-rule="evenodd" clip-rule="evenodd" d="M0 0V18H24V0H0Z" fill="#2E42A5"/>
<mask id="mask1_395_54812" style="mask-type:luminance" maskUnits="userSpaceOnUse" x="0" y="0" width="24" height="18">
<path fill-rule="evenodd" clip-rule="evenodd" d="M0 0V18H24V0H0Z" fill="white"/>
</mask>
<g mask="url(#mask1_395_54812)">
<path fill-rule="evenodd" clip-rule="evenodd" d="M0 12V18H24V12H0Z" fill="#FECA00"/>
<mask id="mask2_395_54812" style="mask-type:luminance" maskUnits="userSpaceOnUse" x="0" y="0" width="24" height="12">
<rect width="24" height="12" fill="white"/>
</mask>
<g mask="url(#mask2_395_54812)">
<path d="M-1.69653 11.3478L3.06051 12.4482L13.2013 6.84505L14.2744 6.21758L23.9071 1.18084L26.1891 -0.409931L20.9693 -0.891326L12.5531 3.85618L6.47108 6.84505L-1.69653 11.3478Z" fill="white"/>
<path d="M-1.27856 12.0144L1.28264 12.8545L25.2369 -0.61027H21.6406L-1.27856 12.0144Z" fill="#F50100"/>
<path d="M25.7781 11.0482L25.967 12.1807L20.9396 12.4476L12.835 7.70062L12.0709 7.96169L-3.06028 0.308107L3.18709 -0.894396L11.5391 3.71951L18.0727 6.87646L25.7781 11.0482Z" fill="white"/>
<path d="M25.7956 11.7274L23.2344 12.5675L13.0344 6.80254L10.0104 6.15843L-2.44396 -0.403675H1.15228L13.5996 6.00268L16.9059 6.77503L25.7956 11.7274Z" fill="#F50100"/>
<path d="M14.4707 3.25H13.2207V4.5H14.4707V3.25ZM25.25 3.25H26.5V2H25.25V3.25ZM25.25 8.75V10H26.5V8.75H25.25ZM14.4707 8.75V7.5H13.2207V8.75H14.4707ZM14.4707 14.75V16H15.7207V14.75H14.4707ZM9.5791 14.75H8.3291V16H9.5791V14.75ZM9.5791 8.75H10.8291V7.5H9.5791V8.75ZM-1.25 8.75H-2.5V10H-1.25V8.75ZM-1.25 3.25V2H-2.5V3.25H-1.25ZM9.5791 3.25V4.5H10.8291V3.25H9.5791ZM9.5791 -1.25V-2.5H8.3291V-1.25H9.5791ZM14.4707 -1.25H15.7207V-2.5H14.4707V-1.25ZM14.4707 6.25H13.2207V7.5H14.4707V6.25ZM22.75 6.25V7.5H24V6.25H22.75ZM22.75 5.75H24V4.5H22.75V5.75ZM14.4707 5.75V4.5H13.2207V5.75H14.4707ZM1.25 6.25H0V7.5H1.25V6.25ZM9.5791 6.25V7.5H10.8291V6.25H9.5791ZM9.5791 5.75H10.8291V4.5H9.5791V5.75ZM1.25 5.75V4.5H0V5.75H1.25ZM14.4707 3.25V4.5H25.25V3.25V2H14.4707V3.25ZM25.25 3.25H24V8.75H25.25H26.5V3.25H25.25ZM25.25 8.75V7.5H14.4707V8.75V10H25.25V8.75ZM14.4707 8.75H13.2207V14.75H14.4707H15.7207V8.75H14.4707ZM14.4707 14.75V13.5H9.5791V14.75V16H14.4707V14.75ZM9.5791 14.75H10.8291V8.75H9.5791H8.3291V14.75H9.5791ZM9.5791 8.75V7.5H-1.25V8.75V10H9.5791V8.75ZM-1.25 8.75H0V3.25H-1.25H-2.5V8.75H-1.25ZM-1.25 3.25V4.5H9.5791V3.25V2H-1.25V3.25ZM9.5791 3.25H10.8291V-1.25H9.5791H8.3291V3.25H9.5791ZM9.5791 -1.25V0H14.4707V-1.25V-2.5H9.5791V-1.25ZM14.4707 -1.25H13.2207V3.25H14.4707H15.7207V-1.25H14.4707ZM14.4707 6.25V7.5H22.75V6.25V5H14.4707V6.25ZM22.75 6.25H24V5.75H22.75H21.5V6.25H22.75ZM22.75 5.75V4.5H14.4707V5.75V7H22.75V5.75ZM14.4707 5.75H13.2207V6.25H14.4707H15.7207V5.75H14.4707ZM1.25 6.25V7.5H9.5791V6.25V5H1.25V6.25ZM9.5791 6.25H10.8291V5.75H9.5791H8.3291V6.25H9.5791ZM9.5791 5.75V4.5H1.25V5.75V7H9.5791V5.75ZM1.25 5.75H0V6.25H1.25H2.5V5.75H1.25Z" fill="white"/>
<path fill-rule="evenodd" clip-rule="evenodd" d="M13.2695 4.5H25.5V7.5H13.2695V14.5H10.7305V7.5H0V4.5H10.7305V-1H13.2695V4.5Z" fill="#F50100"/>
</g>
<path fill-rule="evenodd" clip-rule="evenodd" d="M12.0377 7.95044C13.1768 7.95044 14.1002 7.02703 14.1002 5.88794C14.1002 4.74885 13.1768 3.82544 12.0377 3.82544C10.8986 3.82544 9.97522 4.74885 9.97522 5.88794C9.97522 7.02703 10.8986 7.95044 12.0377 7.95044Z" fill="#2E42A5"/>
<path fill-rule="evenodd" clip-rule="evenodd" d="M12.0752 6.51891L11.1018 7.19627L11.4452 6.06119L10.5002 5.34474L11.6858 5.32058L12.0752 4.20044L12.4645 5.32058L13.6502 5.34474L12.7052 6.06119L13.0486 7.19627L12.0752 6.51891Z" fill="#FECA00"/>
<path fill-rule="evenodd" clip-rule="evenodd" d="M5.3252 6.43206L4.51403 6.99652L4.8002 6.05063L4.0127 5.45359L5.00073 5.43345L5.3252 4.5L5.64966 5.43345L6.6377 5.45359L5.8502 6.05063L6.13636 6.99652L5.3252 6.43206Z" fill="#FECA00"/>
<path fill-rule="evenodd" clip-rule="evenodd" d="M18.8252 6.43206L18.014 6.99652L18.3002 6.05063L17.5127 5.45359L18.5007 5.43345L18.8252 4.5L19.1497 5.43345L20.1377 5.45359L19.3502 6.05063L19.6364 6.99652L18.8252 6.43206Z" fill="#FECA00"/>
<path fill-rule="evenodd" clip-rule="evenodd" d="M12.0752 2.83245L11.264 3.39691L11.5502 2.45102L10.7627 1.85398L11.7507 1.83384L12.0752 0.900391L12.3997 1.83384L13.3877 1.85398L12.6002 2.45102L12.8864 3.39691L12.0752 2.83245Z" fill="#FECA00"/>
<path fill-rule="evenodd" clip-rule="evenodd" d="M12.0752 10.7824L11.264 11.3469L11.5502 10.401L10.7627 9.80393L11.7507 9.78379L12.0752 8.85034L12.3997 9.78379L13.3877 9.80393L12.6002 10.401L12.8864 11.3469L12.0752 10.7824Z" fill="#FECA00"/>
</g>
</g>
</svg>
