<svg width="24" height="18" viewBox="0 0 24 18" fill="none" xmlns="http://www.w3.org/2000/svg">
<mask id="mask0_395_54857" style="mask-type:luminance" maskUnits="userSpaceOnUse" x="0" y="0" width="24" height="18">
<rect width="24" height="18" fill="white"/>
</mask>
<g mask="url(#mask0_395_54857)">
<path fill-rule="evenodd" clip-rule="evenodd" d="M0 0V18H24V0H0Z" fill="#2E42A5"/>
<mask id="mask1_395_54857" style="mask-type:luminance" maskUnits="userSpaceOnUse" x="0" y="0" width="24" height="18">
<path fill-rule="evenodd" clip-rule="evenodd" d="M0 0V18H24V0H0Z" fill="white"/>
</mask>
<g mask="url(#mask1_395_54857)">
<rect width="13.5" height="10.5" fill="#2B409A"/>
<mask id="mask2_395_54857" style="mask-type:luminance" maskUnits="userSpaceOnUse" x="0" y="0" width="14" height="11">
<rect width="13.5" height="10.5" fill="white"/>
</mask>
<g mask="url(#mask2_395_54857)">
<path d="M-1.50317 9.74983L1.46754 11.0527L13.5674 1.41653L15.1344 -0.519623L11.9577 -0.955091L7.02241 3.19743L3.05003 5.99525L-1.50317 9.74983Z" fill="#F7FCFF"/>
<path d="M-1.0965 10.6627L0.416945 11.4188L14.5717 -0.699463H12.4467L-1.0965 10.6627Z" fill="#F50100"/>
<path d="M15.0032 9.74983L12.0325 11.0527L-0.0674362 1.41653L-1.63442 -0.519623L1.54233 -0.955091L6.47759 3.19743L10.45 5.99525L15.0032 9.74983Z" fill="#F7FCFF"/>
<path d="M14.9018 10.405L13.3884 11.1611L7.36111 5.97266L5.57416 5.39297L-1.78521 -0.51293H0.339834L7.69507 5.25279L9.64879 5.9479L14.9018 10.405Z" fill="#F50100"/>
<mask id="path-10-outside-1_395_54857" maskUnits="userSpaceOnUse" x="-2" y="-2" width="17" height="14" fill="black">
<rect fill="white" x="-2" y="-2" width="17" height="14"/>
<path fill-rule="evenodd" clip-rule="evenodd" d="M7.48838 0H5.98838V4.5H0V6H5.98838V10.5H7.48838V6H13.5V4.5H7.48838V0Z"/>
</mask>
<path fill-rule="evenodd" clip-rule="evenodd" d="M7.48838 0H5.98838V4.5H0V6H5.98838V10.5H7.48838V6H13.5V4.5H7.48838V0Z" fill="#F50100"/>
<path d="M5.98838 0V-1.5H4.48838V0H5.98838ZM7.48838 0H8.98838V-1.5H7.48838V0ZM5.98838 4.5V6H7.48838V4.5H5.98838ZM0 4.5V3H-1.5V4.5H0ZM0 6H-1.5V7.5H0V6ZM5.98838 6H7.48838V4.5H5.98838V6ZM5.98838 10.5H4.48838V12H5.98838V10.5ZM7.48838 10.5V12H8.98838V10.5H7.48838ZM7.48838 6V4.5H5.98838V6H7.48838ZM13.5 6V7.5H15V6H13.5ZM13.5 4.5H15V3H13.5V4.5ZM7.48838 4.5H5.98838V6H7.48838V4.5ZM5.98838 0V1.5H7.48838V0V-1.5H5.98838V0ZM5.98838 4.5H7.48838V0H5.98838H4.48838V4.5H5.98838ZM0 4.5V6H5.98838V4.5V3H0V4.5ZM0 6H1.5V4.5H0H-1.5V6H0ZM5.98838 6V4.5H0V6V7.5H5.98838V6ZM5.98838 10.5H7.48838V6H5.98838H4.48838V10.5H5.98838ZM7.48838 10.5V9H5.98838V10.5V12H7.48838V10.5ZM7.48838 6H5.98838V10.5H7.48838H8.98838V6H7.48838ZM13.5 6V4.5H7.48838V6V7.5H13.5V6ZM13.5 4.5H12V6H13.5H15V4.5H13.5ZM7.48838 4.5V6H13.5V4.5V3H7.48838V4.5ZM7.48838 0H5.98838V4.5H7.48838H8.98838V0H7.48838Z" fill="#F7FCFF" mask="url(#path-10-outside-1_395_54857)"/>
</g>
<path fill-rule="evenodd" clip-rule="evenodd" d="M18.075 5.60258L17.8802 6.7381L18.9 6.20198L19.9198 6.7381L19.725 5.60258L20.55 4.7984L19.4099 4.63274L18.9 3.59961L18.3901 4.63274L17.25 4.7984L18.075 5.60258ZM15.075 9.80259L14.8802 10.9381L15.9 10.402L16.9198 10.9381L16.725 9.80259L17.55 8.99841L16.4099 8.83274L15.9 7.79961L15.3901 8.83274L14.25 8.99841L15.075 9.80259ZM17.5697 14.5976L17.3171 16.0703L18.6396 15.375L19.9622 16.0703L19.7096 14.5976L20.7795 13.5547L19.3009 13.3399L18.6396 12L17.9784 13.3399L16.4998 13.5547L17.5697 14.5976ZM20.1295 10.9346L20.3241 9.80036L19.5 8.99708L20.6389 8.83159L21.1482 7.79961L21.6575 8.83159L22.7963 8.99708L21.9723 9.80036L22.1668 10.9346L21.1482 10.3991L20.1295 10.9346Z" fill="#F50100"/>
<path d="M17.8802 6.7381L17.6831 6.70429L17.6146 7.1037L17.9733 6.91512L17.8802 6.7381ZM18.075 5.60258L18.2721 5.63639L18.2899 5.53276L18.2146 5.45936L18.075 5.60258ZM18.9 6.20198L18.9931 6.02495L18.9 5.97602L18.8069 6.02495L18.9 6.20198ZM19.9198 6.7381L19.8267 6.91512L20.1854 7.1037L20.1169 6.70429L19.9198 6.7381ZM19.725 5.60258L19.5854 5.45936L19.5101 5.53276L19.5279 5.63639L19.725 5.60258ZM20.55 4.7984L20.6896 4.94162L20.9798 4.65876L20.5788 4.60048L20.55 4.7984ZM19.4099 4.63274L19.2305 4.72125L19.2771 4.81554L19.3811 4.83066L19.4099 4.63274ZM18.9 3.59961L19.0793 3.5111L18.9 3.1477L18.7207 3.5111L18.9 3.59961ZM18.3901 4.63274L18.4189 4.83066L18.5229 4.81554L18.5695 4.72125L18.3901 4.63274ZM17.25 4.7984L17.2212 4.60048L16.8202 4.65876L17.1104 4.94162L17.25 4.7984ZM14.8802 10.9381L14.6831 10.9043L14.6146 11.3037L14.9733 11.1151L14.8802 10.9381ZM15.075 9.80259L15.2721 9.83639L15.2899 9.73276L15.2146 9.65937L15.075 9.80259ZM15.9 10.402L15.9931 10.225L15.9 10.176L15.8069 10.225L15.9 10.402ZM16.9198 10.9381L16.8267 11.1151L17.1854 11.3037L17.1169 10.9043L16.9198 10.9381ZM16.725 9.80259L16.5854 9.65937L16.5101 9.73276L16.5279 9.83639L16.725 9.80259ZM17.55 8.99841L17.6896 9.14163L17.9798 8.85876L17.5788 8.80049L17.55 8.99841ZM16.4099 8.83274L16.2305 8.92125L16.2771 9.01554L16.3811 9.03066L16.4099 8.83274ZM15.9 7.79961L16.0793 7.7111L15.9 7.3477L15.7207 7.7111L15.9 7.79961ZM15.3901 8.83274L15.4189 9.03066L15.5229 9.01554L15.5695 8.92125L15.3901 8.83274ZM14.25 8.99841L14.2212 8.80049L13.8202 8.85876L14.1104 9.14163L14.25 8.99841ZM17.3171 16.0703L17.12 16.0365L17.0515 16.4359L17.4102 16.2473L17.3171 16.0703ZM17.5697 14.5976L17.7668 14.6315L17.7846 14.5278L17.7093 14.4544L17.5697 14.5976ZM18.6396 15.375L18.7327 15.198L18.6396 15.149L18.5466 15.198L18.6396 15.375ZM19.9622 16.0703L19.8691 16.2473L20.2278 16.4359L20.1593 16.0365L19.9622 16.0703ZM19.7096 14.5976L19.57 14.4544L19.4947 14.5278L19.5125 14.6315L19.7096 14.5976ZM20.7795 13.5547L20.9191 13.6979L21.2093 13.4151L20.8083 13.3568L20.7795 13.5547ZM19.3009 13.3399L19.1216 13.4284L19.1681 13.5227L19.2721 13.5378L19.3009 13.3399ZM18.6396 12L18.819 11.9115L18.6396 11.5481L18.4603 11.9115L18.6396 12ZM17.9784 13.3399L18.0071 13.5378L18.1112 13.5227L18.1577 13.4284L17.9784 13.3399ZM16.4998 13.5547L16.471 13.3568L16.07 13.4151L16.3602 13.6979L16.4998 13.5547ZM20.3241 9.80036L20.5212 9.83417L20.539 9.73054L20.4637 9.65714L20.3241 9.80036ZM20.1295 10.9346L19.9324 10.9008L19.8639 11.3002L20.2226 11.1116L20.1295 10.9346ZM19.5 8.99708L19.4712 8.79916L19.0702 8.85743L19.3604 9.14029L19.5 8.99708ZM20.6389 8.83159L20.6676 9.02951L20.7717 9.01439L20.8182 8.92011L20.6389 8.83159ZM21.1482 7.79961L21.3275 7.7111L21.1482 7.3477L20.9688 7.7111L21.1482 7.79961ZM21.6575 8.83159L21.4781 8.92011L21.5247 9.01439L21.6287 9.02951L21.6575 8.83159ZM22.7963 8.99708L22.9359 9.14029L23.2261 8.85743L22.8251 8.79916L22.7963 8.99708ZM21.9723 9.80036L21.8326 9.65714L21.7574 9.73054L21.7751 9.83417L21.9723 9.80036ZM22.1668 10.9346L22.0737 11.1116L22.4324 11.3002L22.3639 10.9008L22.1668 10.9346ZM21.1482 10.3991L21.2412 10.2221L21.1482 10.1731L21.0551 10.2221L21.1482 10.3991ZM17.8802 6.7381L18.0774 6.77191L18.2721 5.63639L18.075 5.60258L17.8779 5.56877L17.6831 6.70429L17.8802 6.7381ZM18.9 6.20198L18.8069 6.02495L17.7872 6.56107L17.8802 6.7381L17.9733 6.91512L18.9931 6.379L18.9 6.20198ZM19.9198 6.7381L20.0128 6.56107L18.9931 6.02495L18.9 6.20198L18.8069 6.379L19.8267 6.91512L19.9198 6.7381ZM19.725 5.60258L19.5279 5.63639L19.7226 6.77191L19.9198 6.7381L20.1169 6.70429L19.9221 5.56877L19.725 5.60258ZM20.55 4.7984L20.4104 4.65519L19.5854 5.45936L19.725 5.60258L19.8646 5.7458L20.6896 4.94162L20.55 4.7984ZM19.4099 4.63274L19.3811 4.83066L20.5212 4.99633L20.55 4.7984L20.5788 4.60048L19.4386 4.43481L19.4099 4.63274ZM18.9 3.59961L18.7207 3.68812L19.2305 4.72125L19.4099 4.63274L19.5892 4.54422L19.0793 3.5111L18.9 3.59961ZM18.3901 4.63274L18.5695 4.72125L19.0793 3.68812L18.9 3.59961L18.7207 3.5111L18.2108 4.54422L18.3901 4.63274ZM17.25 4.7984L17.2788 4.99633L18.4189 4.83066L18.3901 4.63274L18.3614 4.43481L17.2212 4.60048L17.25 4.7984ZM18.075 5.60258L18.2146 5.45936L17.3896 4.65519L17.25 4.7984L17.1104 4.94162L17.9354 5.7458L18.075 5.60258ZM14.8802 10.9381L15.0774 10.9719L15.2721 9.83639L15.075 9.80259L14.8779 9.76878L14.6831 10.9043L14.8802 10.9381ZM15.9 10.402L15.8069 10.225L14.7872 10.7611L14.8802 10.9381L14.9733 11.1151L15.9931 10.579L15.9 10.402ZM16.9198 10.9381L17.0128 10.7611L15.9931 10.225L15.9 10.402L15.8069 10.579L16.8267 11.1151L16.9198 10.9381ZM16.725 9.80259L16.5279 9.83639L16.7226 10.9719L16.9198 10.9381L17.1169 10.9043L16.9221 9.76878L16.725 9.80259ZM17.55 8.99841L17.4104 8.85519L16.5854 9.65937L16.725 9.80259L16.8646 9.9458L17.6896 9.14163L17.55 8.99841ZM16.4099 8.83274L16.3811 9.03066L17.5212 9.19633L17.55 8.99841L17.5788 8.80049L16.4386 8.63482L16.4099 8.83274ZM15.9 7.79961L15.7207 7.88813L16.2305 8.92125L16.4099 8.83274L16.5892 8.74423L16.0793 7.7111L15.9 7.79961ZM15.3901 8.83274L15.5695 8.92125L16.0793 7.88813L15.9 7.79961L15.7207 7.7111L15.2108 8.74423L15.3901 8.83274ZM14.25 8.99841L14.2788 9.19633L15.4189 9.03066L15.3901 8.83274L15.3614 8.63482L14.2212 8.80049L14.25 8.99841ZM15.075 9.80259L15.2146 9.65937L14.3896 8.85519L14.25 8.99841L14.1104 9.14163L14.9354 9.9458L15.075 9.80259ZM17.3171 16.0703L17.5143 16.1041L17.7668 14.6315L17.5697 14.5976L17.3726 14.5638L17.12 16.0365L17.3171 16.0703ZM18.6396 15.375L18.5466 15.198L17.2241 15.8933L17.3171 16.0703L17.4102 16.2473L18.7327 15.552L18.6396 15.375ZM19.9622 16.0703L20.0552 15.8933L18.7327 15.198L18.6396 15.375L18.5466 15.552L19.8691 16.2473L19.9622 16.0703ZM19.7096 14.5976L19.5125 14.6315L19.765 16.1041L19.9622 16.0703L20.1593 16.0365L19.9067 14.5638L19.7096 14.5976ZM20.7795 13.5547L20.6399 13.4115L19.57 14.4544L19.7096 14.5976L19.8492 14.7409L20.9191 13.6979L20.7795 13.5547ZM19.3009 13.3399L19.2721 13.5378L20.7508 13.7526L20.7795 13.5547L20.8083 13.3568L19.3297 13.1419L19.3009 13.3399ZM18.6396 12L18.4603 12.0885L19.1216 13.4284L19.3009 13.3399L19.4803 13.2513L18.819 11.9115L18.6396 12ZM17.9784 13.3399L18.1577 13.4284L18.819 12.0885L18.6396 12L18.4603 11.9115L17.799 13.2513L17.9784 13.3399ZM16.4998 13.5547L16.5285 13.7526L18.0071 13.5378L17.9784 13.3399L17.9496 13.1419L16.471 13.3568L16.4998 13.5547ZM17.5697 14.5976L17.7093 14.4544L16.6394 13.4115L16.4998 13.5547L16.3602 13.6979L17.4301 14.7409L17.5697 14.5976ZM20.3241 9.80036L20.127 9.76655L19.9324 10.9008L20.1295 10.9346L20.3267 10.9684L20.5212 9.83417L20.3241 9.80036ZM19.5 8.99708L19.3604 9.14029L20.1845 9.94358L20.3241 9.80036L20.4637 9.65714L19.6396 8.85386L19.5 8.99708ZM20.6389 8.83159L20.6101 8.63367L19.4712 8.79916L19.5 8.99708L19.5288 9.195L20.6676 9.02951L20.6389 8.83159ZM21.1482 7.79961L20.9688 7.7111L20.4595 8.74308L20.6389 8.83159L20.8182 8.92011L21.3275 7.88813L21.1482 7.79961ZM21.6575 8.83159L21.8368 8.74308L21.3275 7.7111L21.1482 7.79961L20.9688 7.88813L21.4781 8.92011L21.6575 8.83159ZM22.7963 8.99708L22.8251 8.79916L21.6862 8.63367L21.6575 8.83159L21.6287 9.02951L22.7676 9.195L22.7963 8.99708ZM21.9723 9.80036L22.1119 9.94358L22.9359 9.14029L22.7963 8.99708L22.6567 8.85386L21.8326 9.65714L21.9723 9.80036ZM22.1668 10.9346L22.3639 10.9008L22.1694 9.76655L21.9723 9.80036L21.7751 9.83417L21.9697 10.9684L22.1668 10.9346ZM21.1482 10.3991L21.0551 10.5761L22.0737 11.1116L22.1668 10.9346L22.2599 10.7576L21.2412 10.2221L21.1482 10.3991ZM20.1295 10.9346L20.2226 11.1116L21.2412 10.5761L21.1482 10.3991L21.0551 10.2221L20.0365 10.7576L20.1295 10.9346Z" fill="#F7FCFF"/>
</g>
</g>
</svg>
