<svg width="24" height="18" viewBox="0 0 24 18" fill="none" xmlns="http://www.w3.org/2000/svg">
<mask id="mask0_395_50281" style="mask-type:luminance" maskUnits="userSpaceOnUse" x="0" y="0" width="24" height="18">
<rect width="24" height="18" fill="white"/>
</mask>
<g mask="url(#mask0_395_50281)">
<path fill-rule="evenodd" clip-rule="evenodd" d="M0 0V18H24V0H0Z" fill="#F50101"/>
<mask id="mask1_395_50281" style="mask-type:luminance" maskUnits="userSpaceOnUse" x="0" y="0" width="24" height="18">
<path fill-rule="evenodd" clip-rule="evenodd" d="M0 0V18H24V0H0Z" fill="white"/>
</mask>
<g mask="url(#mask1_395_50281)">
<path fill-rule="evenodd" clip-rule="evenodd" d="M0 0V6H24V0H0Z" fill="#F7FCFF"/>
<path fill-rule="evenodd" clip-rule="evenodd" d="M0 12V18H24V12H0Z" fill="#5EAA22"/>
<rect width="9" height="18" fill="#F50101"/>
<path fill-rule="evenodd" clip-rule="evenodd" d="M6.05445 2.125L5.43629 2.68457V3.37207C5.43694 3.37266 5.77849 3.68546 5.88551 3.80176V4.48633C6.9481 3.12516 7.617 2.0681 7.91578 1.56738C7.96284 1.48886 8.07781 1.52519 8.06715 1.61621C7.99943 2.19403 7.78769 3.38155 7.14723 4.64746H7.1648V4.64453C7.16489 4.59662 7.20381 4.55769 7.25172 4.55762H8.7898C8.83778 4.55762 8.87663 4.59658 8.87672 4.64453V5.5957C8.87672 5.64373 8.83783 5.68262 8.7898 5.68262H7.25172C7.20376 5.68254 7.1648 5.64368 7.1648 5.5957V5.0957H6.96558C6.92754 5.18348 6.86078 5.25499 6.77808 5.30273C6.58323 5.61498 6.36177 5.92771 6.10523 6.23047C6.09413 6.24358 6.08127 6.25556 6.07008 6.26855C7.26117 7.52234 8.42826 8.40649 9.01441 8.82031C9.09326 8.87598 9.04168 8.99557 8.94898 8.96875C8.22648 8.75952 6.7676 8.23801 5.46949 7.17773C5.28608 7.40113 5.02338 7.56738 4.64332 7.56738C4.62844 7.56738 4.61347 7.56645 4.5984 7.56641C3.31153 8.44386 1.96453 8.8619 1.37672 9.01367C1.29145 9.03569 1.23711 8.93595 1.3025 8.87695C1.62489 8.58605 2.24461 8.02429 2.90015 7.43066C2.20989 7.29593 1.66001 7.03646 1.65992 6.54492C1.65992 5.71815 3.93857 5.91517 4.27125 5.94824C4.1217 5.75512 3.9843 5.5594 3.85719 5.36328C3.67482 5.3609 3.51872 5.25212 3.45094 5.0957H3.25172V5.5957C3.25172 5.64373 3.21283 5.68262 3.1648 5.68262H1.62672C1.57876 5.68254 1.5398 5.64368 1.5398 5.5957V4.64453C1.53989 4.59662 1.57881 4.55769 1.62672 4.55762H3.1648C3.21278 4.55762 3.25163 4.59658 3.25172 4.64453V4.64746H3.43824C2.79005 3.41334 2.52977 2.25369 2.43238 1.66113C2.41712 1.56825 2.53572 1.52947 2.58375 1.61035C2.88484 2.11889 3.52064 3.12882 4.50269 4.4043L4.57789 3.80176C4.57968 3.80132 4.98778 3.70064 4.98805 3.37207V2.68457L4.31129 2.125L5.20582 1.5L6.05445 2.125ZM3.86305 4.55762C3.66054 4.55774 3.49683 4.72055 3.49683 4.9209C3.49698 5.12113 3.66063 5.28308 3.86305 5.2832C4.06556 5.2832 4.23009 5.1212 4.23023 4.9209C4.23023 4.72047 4.06565 4.55762 3.86305 4.55762ZM6.55348 4.55762C6.35088 4.55762 6.18629 4.72048 6.18629 4.9209C6.18643 5.1212 6.35097 5.2832 6.55348 5.2832C6.75599 5.2832 6.92052 5.1212 6.92066 4.9209C6.92066 4.72047 6.75608 4.55762 6.55348 4.55762Z" fill="#F7FCFF"/>
</g>
</g>
</svg>
