<svg width="24" height="18" viewBox="0 0 24 18" fill="none" xmlns="http://www.w3.org/2000/svg">
<mask id="mask0_395_54419" style="mask-type:luminance" maskUnits="userSpaceOnUse" x="0" y="0" width="24" height="18">
<rect width="24" height="18" fill="white"/>
</mask>
<g mask="url(#mask0_395_54419)">
<path fill-rule="evenodd" clip-rule="evenodd" d="M6 0H18.75V18H6V0Z" fill="#F7FCFF"/>
<path fill-rule="evenodd" clip-rule="evenodd" d="M18 0H24V18H18V0Z" fill="#F50101"/>
<path fill-rule="evenodd" clip-rule="evenodd" d="M0 0H6V18H0V0Z" fill="#F50101"/>
<path d="M11.806 6.55886L11.8311 6.83032C11.0823 6.90605 10.6777 6.54016 10.6777 5.78076C10.6777 5.02723 11.0736 4.62669 11.8178 4.62195L11.8194 4.89467C11.2164 4.89851 10.9386 5.17961 10.9386 5.78076C10.9386 6.37605 11.2076 6.61938 11.806 6.55886Z" fill="#A2BB6A"/>
<path d="M12.1377 6.55886L12.1125 6.83032C12.8614 6.90605 13.2659 6.54016 13.2659 5.78076C13.2659 5.02723 12.8701 4.62669 12.1259 4.62195L12.1243 4.89467C12.7273 4.89851 13.0051 5.17961 13.0051 5.78076C13.0051 6.37605 12.736 6.61938 12.1377 6.55886Z" fill="#A2BB6A"/>
<path fill-rule="evenodd" clip-rule="evenodd" d="M10.9559 12.4317C10.9559 12.2716 11.8572 12.247 11.952 12.4317C12.0466 12.616 11.9521 12.5951 11.952 12.8418C11.952 13.089 12.0119 13.4461 11.5839 13.4463C11.1555 13.4463 11.2439 13.2491 10.6473 13.2491H9.67957V12.8418C9.67957 12.8418 11.1383 12.9189 11.3544 12.8418C11.5695 12.7648 10.9569 12.5916 10.9559 12.4317ZM12.0692 12.4317C12.164 12.247 13.0663 12.2716 13.0663 12.4317C13.0654 12.5916 12.4519 12.7648 12.6669 12.8418C12.8804 12.9184 14.3182 12.8431 14.3417 12.8418V13.2491H13.3739C12.7777 13.2491 12.8663 13.4462 12.4384 13.4463C12.01 13.4463 12.0692 13.0891 12.0692 12.8418C12.0691 12.5952 11.9748 12.6159 12.0692 12.4317Z" fill="#E31D1C"/>
<path fill-rule="evenodd" clip-rule="evenodd" d="M12.3053 12.881C12.3053 12.881 13.4445 12.7679 13.7022 12.357C13.9598 11.9462 14.389 11.2448 14.5399 11.075C14.6908 10.9052 14.7005 11.3176 14.7005 11.3176C14.7005 11.3176 14.9495 11.6707 14.9495 11.2192C14.9495 10.7676 14.7724 11.0831 14.5399 10.4037C14.3073 9.72437 14.1765 9.058 14.2419 8.95714C14.3073 8.85627 14.4622 9.058 14.4622 8.95714C14.4622 8.85627 14.4622 8.65884 14.4622 8.65884L14.7005 8.95714L14.9495 8.86264C14.9495 8.86264 15.1545 9.30155 15.2807 9.43742C15.4069 9.5733 15.4808 9.25544 15.4438 8.95714C15.4069 8.65884 14.9495 8.65884 14.9495 8.65884C14.9495 8.65884 14.3645 8.3435 14.3645 8.21135C14.3645 8.0792 14.6174 8.11856 14.6174 8.11856L14.5399 7.70937C14.5399 7.70937 14.7489 7.9579 14.8492 7.83363C14.9495 7.70937 14.7005 7.4913 14.7005 7.4913H15.0974V7.29967L15.2807 7.40223L15.0974 6.98377C15.0974 6.98377 14.56 7.0647 14.4622 6.98377C14.3645 6.90284 14.0567 6.58738 14.0567 6.58738V6.43763H13.8793L14.0567 6.13724V5.65891L14.7005 5.78728V5.43359C14.7005 5.43359 15.607 5.87546 15.4438 6.23142C15.2807 6.58738 15.2807 6.98377 15.2807 6.98377V7.29967C15.2807 7.29967 15.3078 7.20297 15.4438 7.20297C15.5798 7.20297 15.7346 7.27324 15.7346 7.4913C15.7346 7.70937 16.0115 7.40223 16.0115 7.40223V8.30944C16.0115 8.30944 16.0766 8.40753 16.219 8.30944C16.3613 8.21135 16.2989 8.28787 15.8714 8.86264C15.4438 9.43742 15.5978 9.43897 15.7346 9.29814C15.8714 9.15732 16.4264 8.75696 16.219 8.95714C16.0115 9.15732 15.9978 9.5767 16.219 9.43742C16.4402 9.29814 16.3975 9.19905 16.3975 9.43742C16.3975 9.6758 16.0082 10.4872 15.8714 10.6143C15.7346 10.7414 15.607 10.8196 15.4438 10.9473C15.2807 11.075 15.0974 11.226 15.0974 11.3176C15.0974 11.4092 15.4438 11.2192 15.4438 11.2192L15.2807 11.8016H15.5977C15.5977 11.8016 15.3454 12.575 14.8492 12.575C14.353 12.575 13.979 12.575 13.8793 12.575C13.7796 12.575 13.3292 12.7874 13.3292 12.7874L12.9996 12.881C12.9996 12.881 13.525 12.9313 13.7022 13.089C13.8793 13.2468 13.7022 13.3568 13.7022 13.3568C13.7022 13.3568 13.2159 13.3085 12.8529 13.1988C12.4899 13.089 12.3053 13.297 12.3053 13.089C12.3053 12.881 12.3053 12.881 12.3053 12.881Z" fill="#00A854"/>
<path fill-rule="evenodd" clip-rule="evenodd" d="M15.5875 11.0459C15.6593 11.0462 15.7174 11.1075 15.7174 11.1826C15.7172 11.2576 15.6592 11.3181 15.5875 11.3184C15.5156 11.3184 15.4568 11.2578 15.4567 11.1826C15.4567 11.1073 15.5155 11.0459 15.5875 11.0459ZM15.8483 10.7734C15.9201 10.7737 15.9781 10.835 15.9781 10.9102C15.978 10.9852 15.92 11.0457 15.8483 11.0459C15.7763 11.0459 15.7176 10.9853 15.7174 10.9102C15.7174 10.8348 15.7762 10.7734 15.8483 10.7734ZM14.6744 10.6367C14.7463 10.637 14.8043 10.6983 14.8043 10.7734C14.8042 10.8485 14.7462 10.9089 14.6744 10.9092C14.6025 10.9092 14.5437 10.8486 14.5436 10.7734C14.5436 10.6981 14.6024 10.6367 14.6744 10.6367ZM15.1959 9C15.268 9 15.3268 9.06141 15.3268 9.13672C15.3266 9.21187 15.2678 9.27246 15.1959 9.27246C15.124 9.27242 15.0652 9.21185 15.0651 9.13672C15.0651 9.06143 15.1239 9.00004 15.1959 9ZM15.7174 8.86426C15.7893 8.86426 15.848 8.92489 15.8483 9C15.8483 9.07531 15.7894 9.13672 15.7174 9.13672C15.6454 9.13667 15.5875 9.07528 15.5875 9C15.5878 8.92492 15.6456 8.86431 15.7174 8.86426ZM14.8043 7.0918C14.8764 7.0918 14.9352 7.1532 14.9352 7.22852C14.935 7.30366 14.8762 7.36426 14.8043 7.36426C14.7324 7.36422 14.6736 7.30364 14.6735 7.22852C14.6735 7.15323 14.7323 7.09183 14.8043 7.0918ZM15.5875 6.81836C15.6594 6.8186 15.7174 6.87991 15.7174 6.95508C15.7172 7.03008 15.6593 7.09058 15.5875 7.09082C15.5156 7.09082 15.4568 7.03023 15.4567 6.95508C15.4567 6.87977 15.5155 6.81836 15.5875 6.81836ZM15.4567 6.5459C15.5287 6.54592 15.5875 6.60732 15.5875 6.68262C15.5873 6.75775 15.5286 6.81834 15.4567 6.81836C15.3847 6.81836 15.326 6.75777 15.3258 6.68262C15.3258 6.60731 15.3846 6.5459 15.4567 6.5459Z" fill="#C51918"/>
<path fill-rule="evenodd" clip-rule="evenodd" d="M11.7641 12.6406C11.7641 12.6406 9.69142 12.231 9.57806 11.438C9.46469 10.6451 9.46628 9.80098 9.46628 9.80098L9.27408 10.3169C9.27408 10.3169 9.26437 9.61458 9.65861 9.11364C10.0528 8.6127 9.1658 9.44556 9.1658 9.44556C9.1658 9.44556 9.61494 8.73739 9.80193 8.66997C9.98892 8.60255 9.05059 9.11364 9.05059 9.11364C9.05059 9.11364 9.3194 8.5194 9.52836 8.35131C9.73731 8.18323 9.05059 8.66997 9.05059 8.66997C9.05059 8.66997 9.20598 8.08057 9.39183 7.93995C9.57768 7.79934 8.78451 8.66997 8.78451 8.66997C8.78451 8.66997 9.20293 7.32322 9.43867 7.19754C9.67441 7.07185 9.05059 7.44446 9.05059 7.44446C9.05059 7.44446 9.4327 6.86846 9.77495 6.58213C10.1172 6.29579 9.15634 6.70423 9.27408 6.70423C9.27408 6.70423 9.62154 6.31185 9.82116 6.2011C10.0208 6.09034 9.05059 6.58213 9.05059 6.58213C9.05059 6.58213 9.74702 5.81363 9.95579 5.70049C10.1646 5.58735 8.93095 6.31079 8.93095 6.31079C8.93095 6.31079 9.00299 5.97568 9.03409 5.73619C9.06519 5.4967 8.46258 6.39254 8.54439 7.19754C8.62621 8.00253 8.21655 6.58213 8.21655 6.58213C8.21655 6.58213 8.05171 6.89049 8.45217 7.69821L8.01814 7.0899C8.01814 7.0899 8.07748 7.64194 8.21655 7.93995C8.35562 8.23797 7.82181 7.44446 7.82181 7.44446C7.82181 7.44446 7.71969 7.93995 7.82181 7.93995C7.82181 7.93995 8.43135 8.75431 8.45395 8.99174C8.47654 9.22917 7.76938 8.14401 7.67475 8.14401C7.58011 8.14401 7.52768 8.49252 7.67475 8.49252C7.82181 8.49252 8.1004 8.99174 8.1004 8.99174C8.1004 8.99174 7.73835 8.73009 7.66072 8.71462C7.58309 8.69916 7.72165 8.86984 7.82181 8.99174C7.82181 8.99174 7.5386 9.22267 7.56011 9.39759C7.58163 9.57251 8.33201 9.60954 8.65903 10.4399C8.65903 10.4399 7.98291 10.0824 7.82181 10.0824C7.66072 10.0824 8.08123 10.4557 8.21655 10.579C8.35188 10.7022 8.00804 10.4557 7.91493 10.579C7.82181 10.7022 8.42976 11.2285 8.54439 11.2285C8.65903 11.2285 8.1004 11.2285 8.1004 11.2285C8.1004 11.2285 8.24886 11.438 8.45395 11.438C8.65903 11.438 9.39183 11.7674 9.39183 11.8741C9.39183 11.9808 8.77366 11.7375 8.65903 11.7375C8.54439 11.7375 9.46609 12.6074 9.95579 12.6406C10.4455 12.6738 10.7549 12.8052 10.966 12.8052C11.1771 12.8052 11.3255 12.8052 11.3255 12.8052L10.3282 13.3134C10.3282 13.3134 10.2275 13.3134 10.6602 13.3134C11.0929 13.3134 11.4238 13.4336 11.594 13.1851C11.7641 12.9365 11.7641 12.6406 11.7641 12.6406Z" fill="#00A854"/>
<mask id="path-11-outside-1_395_54419" maskUnits="userSpaceOnUse" x="7.88275" y="4.66113" width="8" height="9" fill="black">
<rect fill="white" x="7.88275" y="4.66113" width="8" height="9"/>
<path fill-rule="evenodd" clip-rule="evenodd" d="M12.0651 6.67909C12.0851 6.66778 12.0962 6.66113 12.0962 6.66113V6.69648C12.2406 6.77614 12.6041 6.9628 12.8405 6.9628C13.141 6.9628 13.5495 6.66113 13.5495 6.66113L14.233 7.62618C14.233 7.62618 13.7727 8.59091 14.1249 9.76976C14.4771 10.9486 14.1063 11.8576 12.54 11.9585C12.54 11.9585 12.2314 12.0172 12.0962 12.1106V12.197C12.0962 12.1755 12.0847 12.1551 12.0651 12.1359C12.0455 12.1551 12.034 12.1755 12.034 12.197V12.1106C11.8988 12.0172 11.5902 11.9585 11.5902 11.9585C10.0239 11.8576 9.6531 10.9486 10.0053 9.76976C10.3575 8.59091 9.89721 7.62618 9.89721 7.62618L10.5807 6.66113C10.5807 6.66113 10.9892 6.9628 11.2897 6.9628C11.5261 6.9628 11.8896 6.77614 12.034 6.69648V6.66113C12.034 6.66113 12.0451 6.66778 12.0651 6.67909Z"/>
</mask>
<path fill-rule="evenodd" clip-rule="evenodd" d="M12.0651 6.67909C12.0851 6.66778 12.0962 6.66113 12.0962 6.66113V6.69648C12.2406 6.77614 12.6041 6.9628 12.8405 6.9628C13.141 6.9628 13.5495 6.66113 13.5495 6.66113L14.233 7.62618C14.233 7.62618 13.7727 8.59091 14.1249 9.76976C14.4771 10.9486 14.1063 11.8576 12.54 11.9585C12.54 11.9585 12.2314 12.0172 12.0962 12.1106V12.197C12.0962 12.1755 12.0847 12.1551 12.0651 12.1359C12.0455 12.1551 12.034 12.1755 12.034 12.197V12.1106C11.8988 12.0172 11.5902 11.9585 11.5902 11.9585C10.0239 11.8576 9.6531 10.9486 10.0053 9.76976C10.3575 8.59091 9.89721 7.62618 9.89721 7.62618L10.5807 6.66113C10.5807 6.66113 10.9892 6.9628 11.2897 6.9628C11.5261 6.9628 11.8896 6.77614 12.034 6.69648V6.66113C12.034 6.66113 12.0451 6.66778 12.0651 6.67909Z" fill="#E8AA00"/>
<path d="M12.0962 6.66113H13.0962V4.90077L11.5841 5.80218L12.0962 6.66113ZM12.0651 6.67909L11.572 7.54906L12.0651 7.82856L12.5582 7.54906L12.0651 6.67909ZM12.0962 6.69648H11.0962V7.28687L11.6131 7.57206L12.0962 6.69648ZM12.8405 6.9628V5.9628V5.9628V6.9628ZM13.5495 6.66113L14.3656 6.08318L13.776 5.25071L12.9554 5.85672L13.5495 6.66113ZM14.233 7.62618L15.1355 8.0568L15.3882 7.52715L15.0491 7.04823L14.233 7.62618ZM14.1249 9.76976L15.0831 9.4835V9.4835L14.1249 9.76976ZM12.54 11.9585L12.4757 10.9606L12.414 10.9646L12.3533 10.9761L12.54 11.9585ZM12.0962 12.1106L11.5276 11.288L11.0962 11.5862V12.1106H12.0962ZM12.0651 12.1359L12.7653 11.4219L12.0651 10.7351L11.3649 11.4219L12.0651 12.1359ZM12.034 12.1106H13.034V11.5862L12.6026 11.288L12.034 12.1106ZM11.5902 11.9585L11.7769 10.9761L11.7162 10.9646L11.6545 10.9606L11.5902 11.9585ZM10.0053 9.76976L9.04715 9.4835V9.4835L10.0053 9.76976ZM9.89721 7.62618L9.08115 7.04823L8.74197 7.52715L8.99468 8.0568L9.89721 7.62618ZM10.5807 6.66113L11.1748 5.85672L10.3542 5.25071L9.76461 6.08318L10.5807 6.66113ZM11.2897 6.9628V5.9628H11.2897L11.2897 6.9628ZM12.034 6.69648L12.5171 7.57206L13.034 7.28687V6.69648H12.034ZM12.034 6.66113L12.5461 5.80218L11.034 4.90077V6.66113H12.034ZM12.0962 6.66113C11.5841 5.80218 11.5842 5.80217 11.5842 5.80217C11.5842 5.80216 11.5842 5.80215 11.5842 5.80215C11.5842 5.80213 11.5843 5.80212 11.5843 5.80211C11.5843 5.80208 11.5844 5.80206 11.5844 5.80203C11.5845 5.80199 11.5846 5.80194 11.5846 5.80189C11.5848 5.8018 11.5849 5.80172 11.5851 5.80164C11.5853 5.80148 11.5856 5.80135 11.5857 5.80124C11.5861 5.80102 11.5863 5.80089 11.5864 5.80085C11.5865 5.80078 11.586 5.80108 11.5849 5.8017C11.5828 5.80295 11.5784 5.8055 11.572 5.80912L12.0651 6.67909L12.5582 7.54906C12.5718 7.54137 12.5829 7.53494 12.5913 7.53004C12.5955 7.52759 12.5991 7.52551 12.6019 7.52384C12.6033 7.52301 12.6046 7.52227 12.6056 7.52165C12.6062 7.52133 12.6067 7.52104 12.6071 7.52078C12.6073 7.52065 12.6075 7.52053 12.6077 7.52041C12.6078 7.52035 12.6079 7.5203 12.608 7.52024C12.608 7.52021 12.6081 7.52019 12.6081 7.52016C12.6082 7.52015 12.6082 7.52013 12.6082 7.52012C12.6082 7.52011 12.6082 7.5201 12.6082 7.5201C12.6083 7.52009 12.6083 7.52008 12.0962 6.66113ZM12.0962 6.69648H13.0962V6.66113H12.0962H11.0962V6.69648H12.0962ZM12.0962 6.69648L11.6131 7.57206C11.7026 7.62139 11.867 7.7081 12.0554 7.78513C12.212 7.84914 12.5153 7.9628 12.8405 7.9628V6.9628V5.9628C12.9021 5.9628 12.9287 5.9732 12.9049 5.96681C12.8873 5.96207 12.8562 5.95182 12.8123 5.93389C12.7238 5.89768 12.6342 5.85123 12.5793 5.82089L12.0962 6.69648ZM12.8405 6.9628L12.8405 7.9628C13.2583 7.9628 13.6255 7.77684 13.7828 7.6919C13.8843 7.63712 13.9701 7.58351 14.0306 7.5437C14.0613 7.52348 14.0867 7.50603 14.1058 7.49269C14.1153 7.486 14.1233 7.48029 14.1296 7.47573C14.1328 7.47344 14.1355 7.47144 14.1379 7.46974C14.139 7.46889 14.1401 7.46811 14.1411 7.46741C14.1415 7.46706 14.142 7.46673 14.1424 7.46642C14.1426 7.46626 14.1428 7.46611 14.143 7.46596C14.1431 7.46589 14.1433 7.46579 14.1433 7.46575C14.1435 7.46565 14.1436 7.46554 13.5495 6.66113C12.9554 5.85672 12.9556 5.85662 12.9557 5.85652C12.9558 5.85649 12.9559 5.85639 12.956 5.85633C12.9562 5.8562 12.9563 5.85608 12.9565 5.85596C12.9568 5.85572 12.9571 5.8555 12.9574 5.85529C12.9579 5.85488 12.9584 5.85454 12.9588 5.85426C12.9596 5.8537 12.96 5.85339 12.9601 5.85331C12.9603 5.85317 12.9592 5.85394 12.957 5.8555C12.9525 5.85866 12.9437 5.86477 12.9314 5.87284C12.9059 5.88959 12.8708 5.9114 12.8326 5.93203C12.7924 5.95373 12.7628 5.96652 12.7468 5.97212C12.7236 5.98027 12.7605 5.9628 12.8405 5.9628V6.9628ZM13.5495 6.66113L12.7335 7.23909L13.4169 8.20414L14.233 7.62618L15.0491 7.04823L14.3656 6.08318L13.5495 6.66113ZM14.233 7.62618C13.3305 7.19556 13.3303 7.19591 13.3301 7.19626C13.3301 7.19638 13.3299 7.19673 13.3298 7.19697C13.3296 7.19746 13.3293 7.19796 13.3291 7.19848C13.3286 7.19951 13.3281 7.20061 13.3275 7.20177C13.3264 7.20409 13.3252 7.20667 13.3239 7.20949C13.3213 7.21514 13.3183 7.22178 13.3149 7.22941C13.3081 7.24465 13.2997 7.26383 13.2902 7.28676C13.2712 7.33258 13.2474 7.39367 13.2215 7.4685C13.1699 7.61761 13.1092 7.82445 13.0632 8.07603C12.9716 8.57702 12.9345 9.27863 13.1667 10.056L14.1249 9.76976L15.0831 9.4835C14.9631 9.08204 14.9801 8.71186 15.0306 8.43578C15.0556 8.29882 15.0879 8.1908 15.1116 8.12219C15.1234 8.08815 15.1328 8.06467 15.1376 8.05312C15.14 8.04737 15.1412 8.04467 15.1409 8.04521C15.1408 8.04548 15.1403 8.04656 15.1394 8.04849C15.139 8.04945 15.1384 8.05062 15.1378 8.05201C15.1375 8.0527 15.1371 8.05344 15.1367 8.05424C15.1365 8.05464 15.1364 8.05506 15.1361 8.05548C15.136 8.0557 15.1359 8.05603 15.1358 8.05613C15.1357 8.05647 15.1355 8.0568 14.233 7.62618ZM14.1249 9.76976L13.1667 10.056C13.3056 10.5207 13.2283 10.6997 13.2063 10.7345C13.2015 10.7422 13.0937 10.9208 12.4757 10.9606L12.54 11.9585L12.6043 12.9565C13.5526 12.8954 14.4133 12.569 14.8975 11.8022C15.3644 11.0626 15.2964 10.1976 15.0831 9.4835L14.1249 9.76976ZM12.54 11.9585C12.3533 10.9761 12.3532 10.9761 12.3531 10.9762C12.3531 10.9762 12.353 10.9762 12.3529 10.9762C12.3528 10.9762 12.3526 10.9762 12.3525 10.9763C12.3522 10.9763 12.3518 10.9764 12.3515 10.9765C12.3508 10.9766 12.35 10.9768 12.3491 10.9769C12.3474 10.9773 12.3454 10.9777 12.343 10.9781C12.3383 10.979 12.3324 10.9802 12.3255 10.9817C12.3115 10.9845 12.293 10.9884 12.271 10.9934C12.2276 11.0031 12.1672 11.0175 12.0991 11.0366C12.0051 11.0629 11.7467 11.1366 11.5276 11.288L12.0962 12.1106L12.6648 12.9333C12.6059 12.974 12.5683 12.986 12.5849 12.9795C12.5928 12.9764 12.6109 12.9702 12.6385 12.9625C12.6645 12.9552 12.6896 12.9491 12.7084 12.9449C12.7174 12.9429 12.7241 12.9415 12.7275 12.9408C12.7292 12.9405 12.7301 12.9403 12.73 12.9403C12.73 12.9403 12.7297 12.9404 12.7291 12.9405C12.7289 12.9405 12.7285 12.9406 12.7281 12.9407C12.7279 12.9407 12.7277 12.9408 12.7275 12.9408C12.7273 12.9408 12.7272 12.9409 12.7271 12.9409C12.727 12.9409 12.7269 12.9409 12.7269 12.9409C12.7268 12.9409 12.7267 12.941 12.54 11.9585ZM12.0962 12.197H13.0962V12.1106H12.0962H11.0962V12.197H12.0962ZM12.0651 12.1359L11.3649 12.8498C11.2884 12.7748 11.0962 12.5536 11.0962 12.197H12.0962H13.0962C13.0962 11.7974 12.881 11.5354 12.7653 11.4219L12.0651 12.1359ZM12.0651 12.1359L11.3649 11.4219C11.2492 11.5354 11.034 11.7974 11.034 12.197H12.034H13.034C13.034 12.5536 12.8418 12.7748 12.7653 12.8498L12.0651 12.1359ZM12.034 12.197H13.034V12.1106H12.034H11.034V12.197H12.034ZM11.5902 11.9585C11.4035 12.941 11.4034 12.9409 11.4033 12.9409C11.4033 12.9409 11.4032 12.9409 11.4031 12.9409C11.403 12.9409 11.4029 12.9408 11.4027 12.9408C11.4025 12.9408 11.4023 12.9407 11.4021 12.9407C11.4017 12.9406 11.4013 12.9405 11.4011 12.9405C11.4005 12.9404 11.4002 12.9403 11.4002 12.9403C11.4001 12.9403 11.401 12.9405 11.4027 12.9408C11.4061 12.9415 11.4128 12.9429 11.4218 12.9449C11.4406 12.9491 11.4657 12.9552 11.4917 12.9625C11.5193 12.9702 11.5374 12.9764 11.5453 12.9795C11.5619 12.986 11.5243 12.974 11.4654 12.9333L12.034 12.1106L12.6026 11.288C12.3835 11.1366 12.1251 11.0629 12.0311 11.0366C11.963 11.0175 11.9026 11.0031 11.8592 10.9934C11.8372 10.9884 11.8187 10.9845 11.8047 10.9817C11.7978 10.9802 11.7919 10.979 11.7872 10.9781C11.7848 10.9777 11.7828 10.9773 11.7811 10.9769C11.7802 10.9768 11.7794 10.9766 11.7787 10.9765C11.7784 10.9764 11.778 10.9763 11.7777 10.9763C11.7776 10.9762 11.7774 10.9762 11.7773 10.9762C11.7772 10.9762 11.7771 10.9762 11.7771 10.9762C11.777 10.9761 11.7769 10.9761 11.5902 11.9585ZM10.0053 9.76976L9.04715 9.4835C8.83379 10.1976 8.76582 11.0626 9.23275 11.8022C9.71686 12.569 10.5776 12.8954 11.5259 12.9565L11.5902 11.9585L11.6545 10.9606C11.0365 10.9208 10.9287 10.7422 10.9239 10.7345C10.9019 10.6997 10.8246 10.5207 10.9635 10.056L10.0053 9.76976ZM9.89721 7.62618C8.99468 8.0568 8.99452 8.05647 8.99436 8.05613C8.99431 8.05603 8.99415 8.0557 8.99405 8.05548C8.99385 8.05506 8.99365 8.05464 8.99346 8.05424C8.99308 8.05344 8.99273 8.0527 8.99241 8.05201C8.99176 8.05062 8.99121 8.04945 8.99077 8.04849C8.98988 8.04656 8.98939 8.04548 8.98927 8.04521C8.98903 8.04467 8.99024 8.04737 8.99263 8.05312C8.99742 8.06467 9.00678 8.08815 9.01855 8.12219C9.04228 8.1908 9.0746 8.29882 9.09964 8.43578C9.15013 8.71186 9.1671 9.08204 9.04715 9.4835L10.0053 9.76976L10.9635 10.056C11.1957 9.27863 11.1586 8.57702 11.067 8.07603C11.021 7.82445 10.9603 7.61761 10.9087 7.4685C10.8828 7.39367 10.859 7.33258 10.84 7.28676C10.8305 7.26383 10.8221 7.24465 10.8153 7.22941C10.8119 7.22178 10.8089 7.21514 10.8063 7.20949C10.805 7.20667 10.8038 7.20409 10.8027 7.20177C10.8021 7.20061 10.8016 7.19951 10.8011 7.19848C10.8009 7.19796 10.8006 7.19746 10.8004 7.19697C10.8003 7.19673 10.8001 7.19638 10.8001 7.19626C10.7999 7.19591 10.7997 7.19557 9.89721 7.62618ZM10.5807 6.66113L9.76461 6.08318L9.08115 7.04823L9.89721 7.62618L10.7133 8.20414L11.3968 7.23909L10.5807 6.66113ZM11.2897 6.9628L11.2897 5.9628C11.3697 5.9628 11.4066 5.98027 11.3834 5.97212C11.3674 5.96652 11.3378 5.95373 11.2976 5.93203C11.2594 5.9114 11.2243 5.88959 11.1988 5.87284C11.1865 5.86477 11.1777 5.85866 11.1732 5.8555C11.171 5.85394 11.1699 5.85317 11.1701 5.85331C11.1702 5.85339 11.1706 5.8537 11.1714 5.85426C11.1718 5.85454 11.1723 5.85488 11.1728 5.85529C11.1731 5.8555 11.1734 5.85572 11.1737 5.85596C11.1739 5.85608 11.174 5.8562 11.1742 5.85633C11.1743 5.85639 11.1744 5.85649 11.1745 5.85652C11.1746 5.85662 11.1748 5.85672 10.5807 6.66113C9.98661 7.46554 9.98675 7.46565 9.98689 7.46575C9.98694 7.46579 9.98708 7.46589 9.98718 7.46596C9.98738 7.46611 9.98758 7.46626 9.98779 7.46642C9.98821 7.46673 9.98866 7.46706 9.98914 7.46741C9.99009 7.46811 9.99116 7.46889 9.99232 7.46974C9.99466 7.47144 9.99742 7.47344 10.0006 7.47573C10.0069 7.48029 10.0149 7.486 10.0245 7.49269C10.0435 7.50603 10.0689 7.52348 10.0996 7.5437C10.1601 7.58351 10.2459 7.63712 10.3474 7.6919C10.5047 7.77684 10.8719 7.9628 11.2897 7.9628L11.2897 6.9628ZM12.034 6.69648L11.5509 5.82089C11.496 5.85123 11.4064 5.89768 11.3179 5.93389C11.274 5.95182 11.2429 5.96207 11.2253 5.96681C11.2015 5.9732 11.2281 5.9628 11.2897 5.9628V6.9628V7.9628C11.6149 7.9628 11.9182 7.84914 12.0748 7.78513C12.2632 7.7081 12.4276 7.62139 12.5171 7.57206L12.034 6.69648ZM12.034 6.69648H13.034V6.66113H12.034H11.034V6.69648H12.034ZM12.034 6.66113C11.5219 7.52008 11.522 7.52009 11.522 7.5201C11.522 7.5201 11.522 7.52011 11.522 7.52012C11.522 7.52013 11.522 7.52015 11.5221 7.52016C11.5221 7.52019 11.5222 7.52021 11.5222 7.52024C11.5223 7.5203 11.5224 7.52035 11.5225 7.52041C11.5227 7.52053 11.5229 7.52065 11.5231 7.52078C11.5236 7.52104 11.524 7.52133 11.5246 7.52165C11.5256 7.52227 11.5269 7.52301 11.5283 7.52384C11.5311 7.52551 11.5347 7.52759 11.5389 7.53004C11.5473 7.53494 11.5584 7.54137 11.572 7.54906L12.0651 6.67909L12.5582 5.80912C12.5518 5.8055 12.5474 5.80295 12.5453 5.8017C12.5442 5.80108 12.5437 5.80078 12.5438 5.80085C12.5439 5.80089 12.5441 5.80102 12.5445 5.80124C12.5446 5.80135 12.5449 5.80148 12.5451 5.80164C12.5453 5.80172 12.5454 5.8018 12.5456 5.80189C12.5456 5.80194 12.5457 5.80199 12.5458 5.80203C12.5458 5.80206 12.5459 5.80208 12.5459 5.80211C12.546 5.80212 12.546 5.80213 12.546 5.80215C12.546 5.80215 12.546 5.80216 12.546 5.80217C12.546 5.80217 12.5461 5.80218 12.034 6.66113Z" fill="#E8AA00" mask="url(#path-11-outside-1_395_54419)"/>
<mask id="mask1_395_54419" style="mask-type:luminance" maskUnits="userSpaceOnUse" x="8" y="4" width="8" height="9">
<mask id="path-13-outside-2_395_54419" maskUnits="userSpaceOnUse" x="7.88275" y="4.66113" width="8" height="9" fill="black">
<rect fill="white" x="7.88275" y="4.66113" width="8" height="9"/>
<path fill-rule="evenodd" clip-rule="evenodd" d="M12.0651 6.67909C12.0851 6.66778 12.0962 6.66113 12.0962 6.66113V6.69648C12.2406 6.77614 12.6041 6.9628 12.8405 6.9628C13.141 6.9628 13.5495 6.66113 13.5495 6.66113L14.233 7.62618C14.233 7.62618 13.7727 8.59091 14.1249 9.76976C14.4771 10.9486 14.1063 11.8576 12.54 11.9585C12.54 11.9585 12.2314 12.0172 12.0962 12.1106V12.197C12.0962 12.1755 12.0847 12.1551 12.0651 12.1359C12.0455 12.1551 12.034 12.1755 12.034 12.197V12.1106C11.8988 12.0172 11.5902 11.9585 11.5902 11.9585C10.0239 11.8576 9.6531 10.9486 10.0053 9.76976C10.3575 8.59091 9.89721 7.62618 9.89721 7.62618L10.5807 6.66113C10.5807 6.66113 10.9892 6.9628 11.2897 6.9628C11.5261 6.9628 11.8896 6.77614 12.034 6.69648V6.66113C12.034 6.66113 12.0451 6.66778 12.0651 6.67909Z"/>
</mask>
<path fill-rule="evenodd" clip-rule="evenodd" d="M12.0651 6.67909C12.0851 6.66778 12.0962 6.66113 12.0962 6.66113V6.69648C12.2406 6.77614 12.6041 6.9628 12.8405 6.9628C13.141 6.9628 13.5495 6.66113 13.5495 6.66113L14.233 7.62618C14.233 7.62618 13.7727 8.59091 14.1249 9.76976C14.4771 10.9486 14.1063 11.8576 12.54 11.9585C12.54 11.9585 12.2314 12.0172 12.0962 12.1106V12.197C12.0962 12.1755 12.0847 12.1551 12.0651 12.1359C12.0455 12.1551 12.034 12.1755 12.034 12.197V12.1106C11.8988 12.0172 11.5902 11.9585 11.5902 11.9585C10.0239 11.8576 9.6531 10.9486 10.0053 9.76976C10.3575 8.59091 9.89721 7.62618 9.89721 7.62618L10.5807 6.66113C10.5807 6.66113 10.9892 6.9628 11.2897 6.9628C11.5261 6.9628 11.8896 6.77614 12.034 6.69648V6.66113C12.034 6.66113 12.0451 6.66778 12.0651 6.67909Z" fill="white"/>
<path d="M12.0962 6.66113H13.0962V4.90077L11.5841 5.80218L12.0962 6.66113ZM12.0651 6.67909L11.572 7.54906L12.0651 7.82856L12.5582 7.54906L12.0651 6.67909ZM12.0962 6.69648H11.0962V7.28687L11.6131 7.57206L12.0962 6.69648ZM12.8405 6.9628V5.9628V5.9628V6.9628ZM13.5495 6.66113L14.3656 6.08318L13.776 5.25071L12.9554 5.85672L13.5495 6.66113ZM14.233 7.62618L15.1355 8.0568L15.3882 7.52715L15.0491 7.04823L14.233 7.62618ZM14.1249 9.76976L15.0831 9.4835V9.4835L14.1249 9.76976ZM12.54 11.9585L12.4757 10.9606L12.414 10.9646L12.3533 10.9761L12.54 11.9585ZM12.0962 12.1106L11.5276 11.288L11.0962 11.5862V12.1106H12.0962ZM12.0651 12.1359L12.7653 11.4219L12.0651 10.7351L11.3649 11.4219L12.0651 12.1359ZM12.034 12.1106H13.034V11.5862L12.6026 11.288L12.034 12.1106ZM11.5902 11.9585L11.7769 10.9761L11.7162 10.9646L11.6545 10.9606L11.5902 11.9585ZM10.0053 9.76976L9.04715 9.4835V9.4835L10.0053 9.76976ZM9.89721 7.62618L9.08115 7.04823L8.74197 7.52715L8.99468 8.0568L9.89721 7.62618ZM10.5807 6.66113L11.1748 5.85672L10.3542 5.25071L9.76461 6.08318L10.5807 6.66113ZM11.2897 6.9628V5.9628H11.2897L11.2897 6.9628ZM12.034 6.69648L12.5171 7.57206L13.034 7.28687V6.69648H12.034ZM12.034 6.66113L12.5461 5.80218L11.034 4.90077V6.66113H12.034ZM12.0962 6.66113C11.5841 5.80218 11.5842 5.80217 11.5842 5.80217C11.5842 5.80216 11.5842 5.80215 11.5842 5.80215C11.5842 5.80213 11.5843 5.80212 11.5843 5.80211C11.5843 5.80208 11.5844 5.80206 11.5844 5.80203C11.5845 5.80199 11.5846 5.80194 11.5846 5.80189C11.5848 5.8018 11.5849 5.80172 11.5851 5.80164C11.5853 5.80148 11.5856 5.80135 11.5857 5.80124C11.5861 5.80102 11.5863 5.80089 11.5864 5.80085C11.5865 5.80078 11.586 5.80108 11.5849 5.8017C11.5828 5.80295 11.5784 5.8055 11.572 5.80912L12.0651 6.67909L12.5582 7.54906C12.5718 7.54137 12.5829 7.53494 12.5913 7.53004C12.5955 7.52759 12.5991 7.52551 12.6019 7.52384C12.6033 7.52301 12.6046 7.52227 12.6056 7.52165C12.6062 7.52133 12.6067 7.52104 12.6071 7.52078C12.6073 7.52065 12.6075 7.52053 12.6077 7.52041C12.6078 7.52035 12.6079 7.5203 12.608 7.52024C12.608 7.52021 12.6081 7.52019 12.6081 7.52016C12.6082 7.52015 12.6082 7.52013 12.6082 7.52012C12.6082 7.52011 12.6082 7.5201 12.6082 7.5201C12.6083 7.52009 12.6083 7.52008 12.0962 6.66113ZM12.0962 6.69648H13.0962V6.66113H12.0962H11.0962V6.69648H12.0962ZM12.0962 6.69648L11.6131 7.57206C11.7026 7.62139 11.867 7.7081 12.0554 7.78513C12.212 7.84914 12.5153 7.9628 12.8405 7.9628V6.9628V5.9628C12.9021 5.9628 12.9287 5.9732 12.9049 5.96681C12.8873 5.96207 12.8562 5.95182 12.8123 5.93389C12.7238 5.89768 12.6342 5.85123 12.5793 5.82089L12.0962 6.69648ZM12.8405 6.9628L12.8405 7.9628C13.2583 7.9628 13.6255 7.77684 13.7828 7.6919C13.8843 7.63712 13.9701 7.58351 14.0306 7.5437C14.0613 7.52348 14.0867 7.50603 14.1058 7.49269C14.1153 7.486 14.1233 7.48029 14.1296 7.47573C14.1328 7.47344 14.1355 7.47144 14.1379 7.46974C14.139 7.46889 14.1401 7.46811 14.1411 7.46741C14.1415 7.46706 14.142 7.46673 14.1424 7.46642C14.1426 7.46626 14.1428 7.46611 14.143 7.46596C14.1431 7.46589 14.1433 7.46579 14.1433 7.46575C14.1435 7.46565 14.1436 7.46554 13.5495 6.66113C12.9554 5.85672 12.9556 5.85662 12.9557 5.85652C12.9558 5.85649 12.9559 5.85639 12.956 5.85633C12.9562 5.8562 12.9563 5.85608 12.9565 5.85596C12.9568 5.85572 12.9571 5.8555 12.9574 5.85529C12.9579 5.85488 12.9584 5.85454 12.9588 5.85426C12.9596 5.8537 12.96 5.85339 12.9601 5.85331C12.9603 5.85317 12.9592 5.85394 12.957 5.8555C12.9525 5.85866 12.9437 5.86477 12.9314 5.87284C12.9059 5.88959 12.8708 5.9114 12.8326 5.93203C12.7924 5.95373 12.7628 5.96652 12.7468 5.97212C12.7236 5.98027 12.7605 5.9628 12.8405 5.9628V6.9628ZM13.5495 6.66113L12.7335 7.23909L13.4169 8.20414L14.233 7.62618L15.0491 7.04823L14.3656 6.08318L13.5495 6.66113ZM14.233 7.62618C13.3305 7.19556 13.3303 7.19591 13.3301 7.19626C13.3301 7.19638 13.3299 7.19673 13.3298 7.19697C13.3296 7.19746 13.3293 7.19796 13.3291 7.19848C13.3286 7.19951 13.3281 7.20061 13.3275 7.20177C13.3264 7.20409 13.3252 7.20667 13.3239 7.20949C13.3213 7.21514 13.3183 7.22178 13.3149 7.22941C13.3081 7.24465 13.2997 7.26383 13.2902 7.28676C13.2712 7.33258 13.2474 7.39367 13.2215 7.4685C13.1699 7.61761 13.1092 7.82445 13.0632 8.07603C12.9716 8.57702 12.9345 9.27863 13.1667 10.056L14.1249 9.76976L15.0831 9.4835C14.9631 9.08204 14.9801 8.71186 15.0306 8.43578C15.0556 8.29882 15.0879 8.1908 15.1116 8.12219C15.1234 8.08815 15.1328 8.06467 15.1376 8.05312C15.14 8.04737 15.1412 8.04467 15.1409 8.04521C15.1408 8.04548 15.1403 8.04656 15.1394 8.04849C15.139 8.04945 15.1384 8.05062 15.1378 8.05201C15.1375 8.0527 15.1371 8.05344 15.1367 8.05424C15.1365 8.05464 15.1364 8.05506 15.1361 8.05548C15.136 8.0557 15.1359 8.05603 15.1358 8.05613C15.1357 8.05647 15.1355 8.0568 14.233 7.62618ZM14.1249 9.76976L13.1667 10.056C13.3056 10.5207 13.2283 10.6997 13.2063 10.7345C13.2015 10.7422 13.0937 10.9208 12.4757 10.9606L12.54 11.9585L12.6043 12.9565C13.5526 12.8954 14.4133 12.569 14.8975 11.8022C15.3644 11.0626 15.2964 10.1976 15.0831 9.4835L14.1249 9.76976ZM12.54 11.9585C12.3533 10.9761 12.3532 10.9761 12.3531 10.9762C12.3531 10.9762 12.353 10.9762 12.3529 10.9762C12.3528 10.9762 12.3526 10.9762 12.3525 10.9763C12.3522 10.9763 12.3518 10.9764 12.3515 10.9765C12.3508 10.9766 12.35 10.9768 12.3491 10.9769C12.3474 10.9773 12.3454 10.9777 12.343 10.9781C12.3383 10.979 12.3324 10.9802 12.3255 10.9817C12.3115 10.9845 12.293 10.9884 12.271 10.9934C12.2276 11.0031 12.1672 11.0175 12.0991 11.0366C12.0051 11.0629 11.7467 11.1366 11.5276 11.288L12.0962 12.1106L12.6648 12.9333C12.6059 12.974 12.5683 12.986 12.5849 12.9795C12.5928 12.9764 12.6109 12.9702 12.6385 12.9625C12.6645 12.9552 12.6896 12.9491 12.7084 12.9449C12.7174 12.9429 12.7241 12.9415 12.7275 12.9408C12.7292 12.9405 12.7301 12.9403 12.73 12.9403C12.73 12.9403 12.7297 12.9404 12.7291 12.9405C12.7289 12.9405 12.7285 12.9406 12.7281 12.9407C12.7279 12.9407 12.7277 12.9408 12.7275 12.9408C12.7273 12.9408 12.7272 12.9409 12.7271 12.9409C12.727 12.9409 12.7269 12.9409 12.7269 12.9409C12.7268 12.9409 12.7267 12.941 12.54 11.9585ZM12.0962 12.197H13.0962V12.1106H12.0962H11.0962V12.197H12.0962ZM12.0651 12.1359L11.3649 12.8498C11.2884 12.7748 11.0962 12.5536 11.0962 12.197H12.0962H13.0962C13.0962 11.7974 12.881 11.5354 12.7653 11.4219L12.0651 12.1359ZM12.0651 12.1359L11.3649 11.4219C11.2492 11.5354 11.034 11.7974 11.034 12.197H12.034H13.034C13.034 12.5536 12.8418 12.7748 12.7653 12.8498L12.0651 12.1359ZM12.034 12.197H13.034V12.1106H12.034H11.034V12.197H12.034ZM11.5902 11.9585C11.4035 12.941 11.4034 12.9409 11.4033 12.9409C11.4033 12.9409 11.4032 12.9409 11.4031 12.9409C11.403 12.9409 11.4029 12.9408 11.4027 12.9408C11.4025 12.9408 11.4023 12.9407 11.4021 12.9407C11.4017 12.9406 11.4013 12.9405 11.4011 12.9405C11.4005 12.9404 11.4002 12.9403 11.4002 12.9403C11.4001 12.9403 11.401 12.9405 11.4027 12.9408C11.4061 12.9415 11.4128 12.9429 11.4218 12.9449C11.4406 12.9491 11.4657 12.9552 11.4917 12.9625C11.5193 12.9702 11.5374 12.9764 11.5453 12.9795C11.5619 12.986 11.5243 12.974 11.4654 12.9333L12.034 12.1106L12.6026 11.288C12.3835 11.1366 12.1251 11.0629 12.0311 11.0366C11.963 11.0175 11.9026 11.0031 11.8592 10.9934C11.8372 10.9884 11.8187 10.9845 11.8047 10.9817C11.7978 10.9802 11.7919 10.979 11.7872 10.9781C11.7848 10.9777 11.7828 10.9773 11.7811 10.9769C11.7802 10.9768 11.7794 10.9766 11.7787 10.9765C11.7784 10.9764 11.778 10.9763 11.7777 10.9763C11.7776 10.9762 11.7774 10.9762 11.7773 10.9762C11.7772 10.9762 11.7771 10.9762 11.7771 10.9762C11.777 10.9761 11.7769 10.9761 11.5902 11.9585ZM10.0053 9.76976L9.04715 9.4835C8.83379 10.1976 8.76582 11.0626 9.23275 11.8022C9.71686 12.569 10.5776 12.8954 11.5259 12.9565L11.5902 11.9585L11.6545 10.9606C11.0365 10.9208 10.9287 10.7422 10.9239 10.7345C10.9019 10.6997 10.8246 10.5207 10.9635 10.056L10.0053 9.76976ZM9.89721 7.62618C8.99468 8.0568 8.99452 8.05647 8.99436 8.05613C8.99431 8.05603 8.99415 8.0557 8.99405 8.05548C8.99385 8.05506 8.99365 8.05464 8.99346 8.05424C8.99308 8.05344 8.99273 8.0527 8.99241 8.05201C8.99176 8.05062 8.99121 8.04945 8.99077 8.04849C8.98988 8.04656 8.98939 8.04548 8.98927 8.04521C8.98903 8.04467 8.99024 8.04737 8.99263 8.05312C8.99742 8.06467 9.00678 8.08815 9.01855 8.12219C9.04228 8.1908 9.0746 8.29882 9.09964 8.43578C9.15013 8.71186 9.1671 9.08204 9.04715 9.4835L10.0053 9.76976L10.9635 10.056C11.1957 9.27863 11.1586 8.57702 11.067 8.07603C11.021 7.82445 10.9603 7.61761 10.9087 7.4685C10.8828 7.39367 10.859 7.33258 10.84 7.28676C10.8305 7.26383 10.8221 7.24465 10.8153 7.22941C10.8119 7.22178 10.8089 7.21514 10.8063 7.20949C10.805 7.20667 10.8038 7.20409 10.8027 7.20177C10.8021 7.20061 10.8016 7.19951 10.8011 7.19848C10.8009 7.19796 10.8006 7.19746 10.8004 7.19697C10.8003 7.19673 10.8001 7.19638 10.8001 7.19626C10.7999 7.19591 10.7997 7.19557 9.89721 7.62618ZM10.5807 6.66113L9.76461 6.08318L9.08115 7.04823L9.89721 7.62618L10.7133 8.20414L11.3968 7.23909L10.5807 6.66113ZM11.2897 6.9628L11.2897 5.9628C11.3697 5.9628 11.4066 5.98027 11.3834 5.97212C11.3674 5.96652 11.3378 5.95373 11.2976 5.93203C11.2594 5.9114 11.2243 5.88959 11.1988 5.87284C11.1865 5.86477 11.1777 5.85866 11.1732 5.8555C11.171 5.85394 11.1699 5.85317 11.1701 5.85331C11.1702 5.85339 11.1706 5.8537 11.1714 5.85426C11.1718 5.85454 11.1723 5.85488 11.1728 5.85529C11.1731 5.8555 11.1734 5.85572 11.1737 5.85596C11.1739 5.85608 11.174 5.8562 11.1742 5.85633C11.1743 5.85639 11.1744 5.85649 11.1745 5.85652C11.1746 5.85662 11.1748 5.85672 10.5807 6.66113C9.98661 7.46554 9.98675 7.46565 9.98689 7.46575C9.98694 7.46579 9.98708 7.46589 9.98718 7.46596C9.98738 7.46611 9.98758 7.46626 9.98779 7.46642C9.98821 7.46673 9.98866 7.46706 9.98914 7.46741C9.99009 7.46811 9.99116 7.46889 9.99232 7.46974C9.99466 7.47144 9.99742 7.47344 10.0006 7.47573C10.0069 7.48029 10.0149 7.486 10.0245 7.49269C10.0435 7.50603 10.0689 7.52348 10.0996 7.5437C10.1601 7.58351 10.2459 7.63712 10.3474 7.6919C10.5047 7.77684 10.8719 7.9628 11.2897 7.9628L11.2897 6.9628ZM12.034 6.69648L11.5509 5.82089C11.496 5.85123 11.4064 5.89768 11.3179 5.93389C11.274 5.95182 11.2429 5.96207 11.2253 5.96681C11.2015 5.9732 11.2281 5.9628 11.2897 5.9628V6.9628V7.9628C11.6149 7.9628 11.9182 7.84914 12.0748 7.78513C12.2632 7.7081 12.4276 7.62139 12.5171 7.57206L12.034 6.69648ZM12.034 6.69648H13.034V6.66113H12.034H11.034V6.69648H12.034ZM12.034 6.66113C11.5219 7.52008 11.522 7.52009 11.522 7.5201C11.522 7.5201 11.522 7.52011 11.522 7.52012C11.522 7.52013 11.522 7.52015 11.5221 7.52016C11.5221 7.52019 11.5222 7.52021 11.5222 7.52024C11.5223 7.5203 11.5224 7.52035 11.5225 7.52041C11.5227 7.52053 11.5229 7.52065 11.5231 7.52078C11.5236 7.52104 11.524 7.52133 11.5246 7.52165C11.5256 7.52227 11.5269 7.52301 11.5283 7.52384C11.5311 7.52551 11.5347 7.52759 11.5389 7.53004C11.5473 7.53494 11.5584 7.54137 11.572 7.54906L12.0651 6.67909L12.5582 5.80912C12.5518 5.8055 12.5474 5.80295 12.5453 5.8017C12.5442 5.80108 12.5437 5.80078 12.5438 5.80085C12.5439 5.80089 12.5441 5.80102 12.5445 5.80124C12.5446 5.80135 12.5449 5.80148 12.5451 5.80164C12.5453 5.80172 12.5454 5.8018 12.5456 5.80189C12.5456 5.80194 12.5457 5.80199 12.5458 5.80203C12.5458 5.80206 12.5459 5.80208 12.5459 5.80211C12.546 5.80212 12.546 5.80213 12.546 5.80215C12.546 5.80215 12.546 5.80216 12.546 5.80217C12.546 5.80217 12.5461 5.80218 12.034 6.66113Z" fill="white" mask="url(#path-13-outside-2_395_54419)"/>
</mask>
<g mask="url(#mask1_395_54419)">
<rect x="9.97845" y="6.5459" width="2.08696" height="2.86364" fill="#67BAFF"/>
<rect x="12.0654" y="6.5459" width="2.08696" height="2.86364" fill="white"/>
<rect x="9.71741" y="9.68188" width="5.21739" height="3.27273" fill="#C51918"/>
<path d="M13.0761 9.20627H12.8152V7.24524H13.0761V9.20627Z" fill="#C9A951"/>
<path d="M12.9705 8.31392L12.8433 8.54169L12.393 8.29027L12.5202 8.0625L12.9705 8.31392Z" fill="#C9A951"/>
<path d="M12.9705 7.769L12.8433 7.99677L12.393 7.74535L12.5202 7.51758L12.9705 7.769Z" fill="#C9A951"/>
<path d="M12.9147 8.31392L13.0418 8.54169L13.4921 8.29027L13.3649 8.0625L12.9147 8.31392Z" fill="#C9A951"/>
<path d="M12.9147 7.769L13.0418 7.99677L13.4921 7.74535L13.3649 7.51758L12.9147 7.769Z" fill="#C9A951"/>
<path fill-rule="evenodd" clip-rule="evenodd" d="M13.2969 10.2788C13.2969 10.2788 13.4784 10.0713 13.4784 10.175C13.4784 10.2788 13.4784 10.4532 13.3876 10.4532C13.2969 10.4532 12.8742 10.3702 12.7132 10.175C12.5521 9.9798 12.2115 9.63997 11.773 9.71999C11.3344 9.80001 10.8144 10.3685 10.6861 10.3685C10.5579 10.3685 10.277 10.8066 10.4816 11.1488C10.6861 11.491 11.0342 11.3849 11.0342 11.4841C11.0342 11.5834 11.1212 11.5948 11.4471 11.5948C11.773 11.5948 11.8921 11.7098 12.1742 11.7098C12.4564 11.7098 12.0811 11.7055 12.5355 11.5948C12.9899 11.4841 13.3341 11.1488 13.0693 11.1488C12.8045 11.1488 12.719 11.1488 12.5355 11.1488C12.3521 11.1488 11.9438 11.281 11.9438 11.1488C11.9438 11.0166 12.0344 10.7336 12.285 10.8751C12.5355 11.0166 13.2317 11.1245 13.4784 10.8751C13.725 10.6257 13.8113 10.4753 13.7682 10.175C13.725 9.87475 13.3876 9.96116 13.3876 9.96116L13.2969 10.2788Z" fill="#FBCD17"/>
<path fill-rule="evenodd" clip-rule="evenodd" d="M11.5321 7.17773C11.3749 7.31527 11.4763 7.8179 11.2187 7.8179C10.961 7.8179 10.5984 7.44153 10.5071 7.68988C10.4158 7.93823 10.5071 7.85478 10.5071 8.06631C10.5071 8.27784 10.2884 8.86561 10.3977 8.96498C10.5071 9.06434 10.6191 9.32616 10.5997 9.2036C10.5803 9.08104 10.4976 8.90105 10.5321 8.70553C10.4988 8.50354 10.7164 8.30926 10.7164 8.30926C10.7164 8.30926 10.6928 8.51897 10.6756 8.59715C10.6756 8.59715 10.6039 8.75498 10.633 8.8598C10.633 8.8598 10.7067 9.15523 10.7371 9.17564C10.7371 9.17564 10.7568 8.47612 10.7792 8.36083C10.8017 8.24554 10.9616 8.49087 11.0148 8.46307C11.0148 8.46307 11.033 8.9414 11.0054 8.9984C11.0054 8.9984 10.9493 9.11154 10.9701 9.14769C10.9701 9.14769 11.0222 9.27864 11.0665 9.2405C11.0665 9.2405 11.0681 9.23777 11.0906 9.11032C11.0906 9.11032 11.0645 9.03334 11.1054 8.8581C11.1054 8.8581 11.1485 8.4722 11.1663 8.55593C11.1663 8.55593 11.1583 8.73812 11.1788 8.83203C11.1788 8.83203 11.2117 9.06517 11.2182 9.09077C11.2182 9.09077 11.3757 9.315 11.3799 9.2203C11.3799 9.2203 11.2289 9.04035 11.2613 8.90341C11.2613 8.90341 11.1749 8.51549 11.2955 8.42899C11.2955 8.42899 11.6154 8.28099 11.6347 8.02766C11.6347 8.02766 11.681 7.73895 11.6894 7.60659C11.6894 7.60659 11.6192 7.56768 11.7643 7.49935C11.7643 7.49935 11.9978 7.4097 11.8523 7.28505" fill="#D18219"/>
</g>
</g>
</svg>
