<svg width="24" height="18" viewBox="0 0 24 18" fill="none" xmlns="http://www.w3.org/2000/svg">
<mask id="mask0_395_55098" style="mask-type:luminance" maskUnits="userSpaceOnUse" x="0" y="0" width="24" height="18">
<rect width="24" height="18" fill="white"/>
</mask>
<g mask="url(#mask0_395_55098)">
<rect width="24" height="18" fill="#E11C1B"/>
<path fill-rule="evenodd" clip-rule="evenodd" d="M0 0L24 18H0V0Z" fill="#1D1D1D"/>
<path fill-rule="evenodd" clip-rule="evenodd" d="M5.3125 13.701H6.31137L6.7864 12.5811L7.34477 13.6935L8.36816 13.7494L7.49356 14.7014L7.94263 15.8482L6.83093 15.2098L5.80434 15.8539L6.19159 14.7404L5.3125 13.701Z" fill="#EEEEF6"/>
<path fill-rule="evenodd" clip-rule="evenodd" d="M2.3125 10.701H3.31137L3.7864 9.58105L4.34477 10.6935L5.36816 10.7494L4.49356 11.7014L4.94263 12.8482L3.83093 12.2098L2.80434 12.8539L3.19159 11.7404L2.3125 10.701Z" fill="#EEEEF6"/>
<path fill-rule="evenodd" clip-rule="evenodd" d="M5.3125 9.20102H6.31137L6.7864 8.08105L7.34477 9.19348L8.36816 9.24945L7.49356 10.2014L7.94263 11.3482L6.83093 10.7098L5.80434 11.3539L6.19159 10.2404L5.3125 9.20102Z" fill="#EEEEF6"/>
<path fill-rule="evenodd" clip-rule="evenodd" d="M7.28333 12.4231L7.96993 12.4003L8.21778 11.6921L8.49604 12.3965L9.12784 12.4572L8.55891 12.8595L9.01776 13.5718L8.22167 13.2741L7.5317 13.5814L7.89607 12.8791L7.28333 12.4231Z" fill="#EEEEF6"/>
<path fill-rule="evenodd" clip-rule="evenodd" d="M8.78333 10.9231L9.46993 10.9003L9.71778 10.1921L9.99604 10.8965L10.6278 10.9572L10.0589 11.3595L10.5178 12.0718L9.72167 11.7741L9.0317 12.0814L9.39607 11.3791L8.78333 10.9231Z" fill="#EEEEF6"/>
<path fill-rule="evenodd" clip-rule="evenodd" d="M15.8129 1.5C15.8129 1.5 13.4963 1.96215 14.1465 5.18238H13.816C13.816 5.18238 13.843 5.01435 13.5253 4.91582C13.2075 4.8173 13.2712 4.85428 13.1072 4.91582C12.9432 4.97736 11.9456 4.91582 11.9456 4.91582V5.03909L12.6516 5.34398C12.6516 5.34398 12.6342 5.59785 12.9293 5.73853C13.2244 5.87921 13.4387 5.947 13.4387 5.947C13.4387 5.947 13.4824 6.22714 13.2059 6.22714C12.9293 6.22714 11.817 5.86658 11.4214 6.75242C11.0258 7.63826 10.5 8.28822 10.5 8.28822H11.0932L10.934 8.48603H11.6019L11.4214 8.58851C11.4214 8.58851 12.2477 8.57933 12.3121 8.48603C12.3766 8.39274 12.3121 8.73895 12.3121 8.73895C12.3121 8.73895 13.1126 8.37341 13.1565 8.28822L13.5301 8.54451L13.6365 8.11081L14.0374 8.28822L14.1465 7.87498C14.1465 7.87498 15.2806 9.77159 16.1407 9.66273V9.34796L16.9256 9.66273L17.0253 9.52276C17.0253 9.52276 17.9735 9.9094 18.2653 9.94524L18.0571 9.52276H18.2653L18.0571 8.73895H18.2653L17.8489 8.11081L17.9656 7.94073L17.8884 7.71721C17.8884 7.71721 19.415 8.20353 19.3462 8.97726C19.2773 9.75099 18.5974 10.0632 18.5974 10.0632C18.5974 10.0632 17.9454 10.2629 17.3565 10.22C17.3565 10.22 17.824 10.7722 18.8131 10.5851C19.8022 10.3979 20.13 9.4389 20.13 9.4389C20.13 9.4389 20.5835 10.3809 20.2102 10.8762C19.8368 11.3715 18.1744 11.7193 18.1744 11.7193C18.1744 11.7193 18.7759 12.0719 19.3462 11.9816C19.9164 11.8912 20.8032 11.3949 20.9752 10.5851C21.1471 9.77522 20.382 8.28088 20.0355 8.11081L19.8986 7.59235L20.2102 7.71721L19.5709 6.15387L19.8809 6.22179L18.9764 5.09668L19.2254 5.01996L17.9759 4.12175L18.3498 4.02297C18.3498 4.02297 17.4262 3.55489 16.3726 4.12175L16.3825 3.92591L16.1056 3.97271L16.122 3.7573L16.3972 3.34036L15.9841 3.18119C15.9841 3.18119 16.3181 2.67951 16.2679 2.68639C16.2679 2.68639 15.8957 2.79321 15.9169 2.74844C15.9169 2.74844 16.1046 2.26493 16.0552 2.27788C16.0552 2.27788 15.6236 2.42468 15.6875 2.35121L15.8534 2.05583L15.8129 1.5Z" fill="#FBCD17"/>
</g>
</svg>
