<svg width="24" height="18" viewBox="0 0 24 18" fill="none" xmlns="http://www.w3.org/2000/svg">
<mask id="mask0_395_55722" style="mask-type:luminance" maskUnits="userSpaceOnUse" x="0" y="0" width="24" height="18">
<rect width="24" height="18" fill="white"/>
</mask>
<g mask="url(#mask0_395_55722)">
<path fill-rule="evenodd" clip-rule="evenodd" d="M0 0V18H24V0H0Z" fill="#FFCC00"/>
<mask id="mask1_395_55722" style="mask-type:luminance" maskUnits="userSpaceOnUse" x="0" y="0" width="24" height="18">
<path fill-rule="evenodd" clip-rule="evenodd" d="M0 0V18H24V0H0Z" fill="white"/>
</mask>
<g mask="url(#mask1_395_55722)">
<path fill-rule="evenodd" clip-rule="evenodd" d="M0 0V10.5H24V0H0Z" fill="#3AA4D9"/>
<path fill-rule="evenodd" clip-rule="evenodd" d="M0 13.5V18H24V13.5H0Z" fill="#5A972B"/>
<path fill-rule="evenodd" clip-rule="evenodd" d="M18.2663 3.01367C18.3143 3.01808 18.3616 3.02561 18.4089 3.03223L19.0309 1.62012L18.944 3.15723C18.9895 3.17243 19.0343 3.18877 19.0788 3.20605L20.0134 1.97363L19.57 3.45215C19.6102 3.47703 19.6503 3.50163 19.6891 3.52832L20.8864 2.54199L20.111 3.87891C20.1443 3.91218 20.1751 3.94762 20.2067 3.98242L21.6042 3.29492L20.5368 4.4209C20.5615 4.46095 20.5883 4.49974 20.611 4.54102L22.1276 4.19043L20.8268 5.04199C20.8412 5.08599 20.8526 5.13091 20.8649 5.17578L22.4274 5.18164L20.9626 5.71387C20.9663 5.75982 20.9689 5.80602 20.9704 5.85254L22.488 6.21387L20.9382 6.39746C20.931 6.44372 20.923 6.48963 20.9138 6.53516L22.3063 7.23242L20.7526 7.05762C20.7351 7.10033 20.7155 7.1419 20.696 7.18359L21.8923 8.18262L20.4186 7.65723C20.392 7.69421 20.3639 7.72994 20.3356 7.76562L21.2682 9.01172L19.9548 8.16406C19.9204 8.19391 19.886 8.22367 19.8503 8.25195L20.4665 9.67676L19.3884 8.55371C19.3479 8.57499 19.3058 8.59283 19.2643 8.6123L19.5319 10.1416L18.7429 8.7998C18.6987 8.81121 18.655 8.82455 18.61 8.83398L18.5143 10.3799L18.0602 8.89844C18.0359 8.89902 18.0115 8.90039 17.987 8.90039C17.9656 8.90039 17.9438 8.89888 17.9225 8.89844L17.4694 10.3799L17.3727 8.83691C17.3272 8.82751 17.2828 8.81417 17.238 8.80273L16.4518 10.1416L16.7175 8.61719C16.6751 8.59748 16.6327 8.57823 16.5915 8.55664L15.5173 9.67676L16.1296 8.25879C16.0927 8.22977 16.0576 8.19865 16.0222 8.16797L14.7165 9.01172L15.6413 7.77246C15.612 7.73574 15.5839 7.69826 15.5563 7.66016L14.0915 8.18262L15.279 7.18945C15.2587 7.14623 15.2386 7.10292 15.2204 7.05859L13.6774 7.23242L15.0593 6.54004C15.0495 6.49262 15.0413 6.4447 15.0339 6.39648L13.4958 6.21387L15.0016 5.85547C15.0032 5.80664 15.0065 5.75816 15.0104 5.70996L13.5563 5.18164L15.1071 5.17578C15.12 5.12892 15.132 5.08203 15.1472 5.03613L13.8561 4.19043L15.363 4.53809C15.3866 4.49542 15.4145 4.45542 15.4401 4.41406L14.3796 3.29492L15.7682 3.97852C15.801 3.94259 15.8324 3.90539 15.8669 3.87109L15.0974 2.54199L16.2878 3.52441C16.3277 3.49708 16.3695 3.47269 16.4108 3.44727L15.9704 1.97363L16.902 3.20312C16.9469 3.18582 16.9919 3.16851 17.0378 3.15332L16.9528 1.62012L17.5729 3.03125C17.6206 3.02473 17.6682 3.01697 17.7165 3.0127L17.9919 1.5L18.2663 3.01367ZM17.9597 4.0625C16.9093 4.0625 16.0574 4.90145 16.0573 5.93652C16.0573 6.9717 16.9092 7.81152 17.9597 7.81152C19.01 7.81146 19.862 6.97166 19.862 5.93652C19.8619 4.9015 19.01 4.06257 17.9597 4.0625ZM17.9811 4.91992C18.573 4.91992 19.0532 5.3994 19.0534 5.99121C19.0534 6.58322 18.5731 7.06348 17.9811 7.06348C17.3893 7.06325 16.9099 6.58308 16.9099 5.99121C16.9101 5.39954 17.3895 4.92015 17.9811 4.91992Z" fill="#FFDD1A"/>
</g>
</g>
</svg>
