<svg width="24" height="18" viewBox="0 0 24 18" fill="none" xmlns="http://www.w3.org/2000/svg">
<mask id="mask0_395_50212" style="mask-type:luminance" maskUnits="userSpaceOnUse" x="0" y="0" width="24" height="18">
<rect width="24" height="18" fill="white"/>
</mask>
<g mask="url(#mask0_395_50212)">
<path fill-rule="evenodd" clip-rule="evenodd" d="M0 0V18H24V0H0Z" fill="#F7FCFF"/>
<mask id="mask1_395_50212" style="mask-type:luminance" maskUnits="userSpaceOnUse" x="0" y="0" width="24" height="18">
<path fill-rule="evenodd" clip-rule="evenodd" d="M0 0V18H24V0H0Z" fill="white"/>
</mask>
<g mask="url(#mask1_395_50212)">
<path fill-rule="evenodd" clip-rule="evenodd" d="M0 0V9H24V0H0Z" fill="#E31D1C"/>
<path fill-rule="evenodd" clip-rule="evenodd" d="M2.88818 4.78048C2.88818 1.61925 5.62054 1.38514 6.65088 1.64571C6.62476 1.65597 4.53174 2.48558 4.53174 4.78048C4.53195 7.07118 6.61775 7.92814 6.65088 7.94161C5.57947 8.53764 2.88839 7.94162 2.88818 4.78048ZM8.09229 6.2795H8.77686L8.27197 6.84396L8.42334 7.56075L7.80225 7.19356L7.19385 7.56075L7.33252 6.84396L6.82666 6.30782L7.51221 6.2795L7.80225 5.61056L8.09229 6.2795ZM10.3022 6.23751H10.9868L10.481 6.80294L10.6333 7.51876L10.0122 7.15255L9.40381 7.51876L9.54248 6.80294L9.03662 6.26681L9.72217 6.23751L10.0122 5.56954L10.3022 6.23751ZM7.31689 4.50313H8.00146L7.49658 5.06759L7.64893 5.78439L7.02686 5.4172L6.41943 5.78439L6.55811 5.06759L6.05225 4.53146L6.73682 4.50313L7.02686 3.83419L7.31689 4.50313ZM11.3364 4.46993H12.021L11.5151 5.03438L11.6675 5.75118L11.0464 5.38399L10.438 5.75118L10.5767 5.03438L10.0708 4.49825L10.7563 4.46993L11.0464 3.80099L11.3364 4.46993ZM9.36377 3.0461H10.0474L9.54248 3.61056L9.69482 4.32735L9.07373 3.96017L8.46533 4.32735L8.604 3.61056L8.09814 3.07442L8.78369 3.0461L9.07373 2.37716L9.36377 3.0461Z" fill="#F1F9FF"/>
</g>
</g>
</svg>
