<svg width="24" height="18" viewBox="0 0 24 18" fill="none" xmlns="http://www.w3.org/2000/svg">
<mask id="mask0_395_55252" style="mask-type:luminance" maskUnits="userSpaceOnUse" x="0" y="0" width="24" height="18">
<rect width="24" height="18" fill="white"/>
</mask>
<g mask="url(#mask0_395_55252)">
<path fill-rule="evenodd" clip-rule="evenodd" d="M0 0V18H24V0H0Z" fill="#2E42A5"/>
<mask id="mask1_395_55252" style="mask-type:luminance" maskUnits="userSpaceOnUse" x="0" y="0" width="24" height="18">
<path fill-rule="evenodd" clip-rule="evenodd" d="M0 0V18H24V0H0Z" fill="white"/>
</mask>
<g mask="url(#mask1_395_55252)">
<rect width="13.5" height="10.5" fill="#2B409A"/>
<mask id="mask2_395_55252" style="mask-type:luminance" maskUnits="userSpaceOnUse" x="0" y="0" width="14" height="11">
<rect width="13.5" height="10.5" fill="white"/>
</mask>
<g mask="url(#mask2_395_55252)">
<path d="M-1.5032 9.7499L1.46751 11.0528L13.5674 1.41659L15.1344 -0.519562L11.9576 -0.955029L7.02238 3.19749L3.05 5.99532L-1.5032 9.7499Z" fill="#F7FCFF"/>
<path d="M-1.0965 10.6627L0.416945 11.4188L14.5717 -0.699463H12.4467L-1.0965 10.6627Z" fill="#F50100"/>
<path d="M15.0032 9.7499L12.0325 11.0528L-0.0674057 1.41659L-1.63439 -0.519562L1.54236 -0.955029L6.47762 3.19749L10.45 5.99532L15.0032 9.7499Z" fill="#F7FCFF"/>
<path d="M14.9019 10.405L13.3884 11.1611L7.36117 5.97266L5.57422 5.39297L-1.78515 -0.51293H0.339895L7.69513 5.25279L9.64885 5.9479L14.9019 10.405Z" fill="#F50100"/>
<mask id="path-10-outside-1_395_55252" maskUnits="userSpaceOnUse" x="-2" y="-2" width="17" height="14" fill="black">
<rect fill="white" x="-2" y="-2" width="17" height="14"/>
<path fill-rule="evenodd" clip-rule="evenodd" d="M7.48838 0H5.98838V4.5H0V6H5.98838V10.5H7.48838V6H13.5V4.5H7.48838V0Z"/>
</mask>
<path fill-rule="evenodd" clip-rule="evenodd" d="M7.48838 0H5.98838V4.5H0V6H5.98838V10.5H7.48838V6H13.5V4.5H7.48838V0Z" fill="#F50100"/>
<path d="M5.98838 0V-1.5H4.48838V0H5.98838ZM7.48838 0H8.98838V-1.5H7.48838V0ZM5.98838 4.5V6H7.48838V4.5H5.98838ZM0 4.5V3H-1.5V4.5H0ZM0 6H-1.5V7.5H0V6ZM5.98838 6H7.48838V4.5H5.98838V6ZM5.98838 10.5H4.48838V12H5.98838V10.5ZM7.48838 10.5V12H8.98838V10.5H7.48838ZM7.48838 6V4.5H5.98838V6H7.48838ZM13.5 6V7.5H15V6H13.5ZM13.5 4.5H15V3H13.5V4.5ZM7.48838 4.5H5.98838V6H7.48838V4.5ZM5.98838 0V1.5H7.48838V0V-1.5H5.98838V0ZM5.98838 4.5H7.48838V0H5.98838H4.48838V4.5H5.98838ZM0 4.5V6H5.98838V4.5V3H0V4.5ZM0 6H1.5V4.5H0H-1.5V6H0ZM5.98838 6V4.5H0V6V7.5H5.98838V6ZM5.98838 10.5H7.48838V6H5.98838H4.48838V10.5H5.98838ZM7.48838 10.5V9H5.98838V10.5V12H7.48838V10.5ZM7.48838 6H5.98838V10.5H7.48838H8.98838V6H7.48838ZM13.5 6V4.5H7.48838V6V7.5H13.5V6ZM13.5 4.5H12V6H13.5H15V4.5H13.5ZM7.48838 4.5V6H13.5V4.5V3H7.48838V4.5ZM7.48838 0H5.98838V4.5H7.48838H8.98838V0H7.48838Z" fill="#F7FCFF" mask="url(#path-10-outside-1_395_55252)"/>
</g>
<path d="M22.6908 7.27451L22.7045 7.50986C22.8103 9.36529 22.8679 11.2683 22.4818 12.7101C22.2876 13.4351 21.9758 14.0669 21.4808 14.5177C20.9805 14.9732 20.3157 15.2227 19.4623 15.2227C18.6218 15.2227 17.9753 15.0232 17.4926 14.6222C17.012 14.2229 16.725 13.6501 16.5511 12.9659C16.3777 12.2832 16.3113 11.4676 16.2865 10.5577C16.2617 9.64799 16.2787 8.62214 16.2787 7.52451V7.27451H22.6908Z" fill="#B7E1FF" stroke="#F7FCFF" stroke-width="0.5"/>
<mask id="mask3_395_55252" style="mask-type:luminance" maskUnits="userSpaceOnUse" x="16" y="7" width="8" height="9">
<path d="M22.6908 7.27451L22.7045 7.50986C22.8103 9.36529 22.8679 11.2683 22.4818 12.7101C22.2876 13.4351 21.9758 14.0669 21.4808 14.5177C20.9805 14.9732 20.3157 15.2227 19.4623 15.2227C18.6218 15.2227 17.9753 15.0232 17.4926 14.6222C17.012 14.2229 16.725 13.6501 16.5511 12.9659C16.3777 12.2832 16.3113 11.4676 16.2865 10.5577C16.2617 9.64799 16.2787 8.62214 16.2787 7.52451V7.27451H22.6908Z" fill="white" stroke="white" stroke-width="0.5"/>
</mask>
<g mask="url(#mask3_395_55252)">
<rect x="18" y="13.5" width="4.5" height="1.5" fill="#2E42A5"/>
<g filter="url(#filter0_d_395_55252)">
<rect x="15" y="6" width="9" height="4.5" fill="#FDFF00"/>
</g>
<path d="M19.1416 8.72363C19.1631 8.75391 19.191 8.79042 19.2236 8.83008L19.1875 8.87305C19.1574 8.84779 19.1384 8.83165 19.1182 8.81348C19.0547 8.75652 19.044 8.73378 19.041 8.68359C19.0384 8.64011 19.0354 8.59697 19.0332 8.55469C19.0642 8.60554 19.0998 8.66479 19.1416 8.72363Z" fill="#F7FCFF" stroke="#272727"/>
<path d="M18.6197 10.5331H18.7697V13.4994H18.6197V10.5331Z" fill="#FDFF00"/>
<path fill-rule="evenodd" clip-rule="evenodd" d="M18.0752 12.6091H19.4123C19.4123 12.6091 19.4252 12.9949 19.2222 12.9235C19.0193 12.8521 19.2426 12.9949 18.9338 12.9235C18.6249 12.8521 18.3528 13.1475 18.2836 12.9998C18.2143 12.8521 17.9457 13.0418 18.0105 12.8254C18.0752 12.6091 18.0752 12.6091 18.0752 12.6091Z" fill="#F7FCFF"/>
<rect x="18.1" y="12.5729" width="1.3" height="0.15" fill="#212123"/>
<path fill-rule="evenodd" clip-rule="evenodd" d="M18.2604 12.0496H19.3301C19.3301 12.0496 19.3404 12.3582 19.178 12.3011C19.0156 12.244 19.1943 12.3582 18.9473 12.3011C18.7002 12.244 18.4825 12.4803 18.4271 12.3622C18.3717 12.244 18.1568 12.3957 18.2086 12.2226C18.2604 12.0496 18.2604 12.0496 18.2604 12.0496Z" fill="#F7FCFF"/>
<rect x="18.2802" y="12.0204" width="1.04" height="0.15" fill="#212123"/>
<path fill-rule="evenodd" clip-rule="evenodd" d="M18.0652 11.4333H19.224C19.224 11.4333 19.2352 11.742 19.0593 11.6849C18.8834 11.6278 19.0769 11.742 18.8093 11.6849C18.5416 11.6278 18.3058 11.8641 18.2458 11.746C18.1857 11.6278 17.9529 11.7795 18.0091 11.6064C18.0652 11.4333 18.0652 11.4333 18.0652 11.4333Z" fill="#F7FCFF"/>
<rect x="18.0867" y="11.4041" width="1.12667" height="0.15" fill="#212123"/>
<path fill-rule="evenodd" clip-rule="evenodd" d="M18.1602 10.9167H19.2299C19.2299 10.9167 19.2402 11.3026 19.0778 11.2312C18.9154 11.1598 19.0941 11.3026 18.847 11.2312C18.6 11.1598 18.3822 11.4552 18.3269 11.3075C18.2715 11.1598 18.0565 11.3495 18.1084 11.1331C18.1602 10.9167 18.1602 10.9167 18.1602 10.9167Z" fill="#F7FCFF"/>
<rect x="18.18" y="10.8806" width="1.04" height="0.15" fill="#212123"/>
<path d="M20.0569 10.9081H20.2069V13.8744H20.0569V10.9081Z" fill="#FDFF00"/>
<path fill-rule="evenodd" clip-rule="evenodd" d="M19.5752 12.7322H20.9123C20.9123 12.7322 20.9252 13.0408 20.7222 12.9837C20.5192 12.9266 20.7426 13.0408 20.4337 12.9837C20.1249 12.9266 19.8527 13.163 19.7835 13.0448C19.7143 12.9266 19.4456 13.0783 19.5104 12.9053C19.5752 12.7322 19.5752 12.7322 19.5752 12.7322Z" fill="#F7FCFF"/>
<rect x="19.5999" y="12.703" width="1.3" height="0.15" fill="#212123"/>
<path fill-rule="evenodd" clip-rule="evenodd" d="M19.7734 12.1728H20.824C20.824 12.1728 20.8341 12.4043 20.6746 12.3614C20.5151 12.3186 20.6906 12.4043 20.448 12.3614C20.2053 12.3186 19.9915 12.4958 19.9371 12.4072C19.8827 12.3186 19.6716 12.4324 19.7225 12.3026C19.7734 12.1728 19.7734 12.1728 19.7734 12.1728Z" fill="#F7FCFF"/>
<rect x="19.7929" y="12.1504" width="1.02143" height="0.15" fill="#212123"/>
<path fill-rule="evenodd" clip-rule="evenodd" d="M19.5645 11.5574H20.7106C20.7106 11.5574 20.7216 11.7889 20.5476 11.746C20.3737 11.7032 20.5651 11.7889 20.3004 11.746C20.0357 11.7032 19.8024 11.8805 19.7431 11.7918C19.6837 11.7032 19.4534 11.817 19.509 11.6872C19.5645 11.5574 19.5645 11.5574 19.5645 11.5574Z" fill="#F7FCFF"/>
<rect x="19.5857" y="11.535" width="1.11429" height="0.15" fill="#212123"/>
<path fill-rule="evenodd" clip-rule="evenodd" d="M19.6661 11.0398H20.7167C20.7167 11.0398 20.7268 11.3485 20.5673 11.2914C20.4078 11.2342 20.5833 11.3485 20.3407 11.2914C20.098 11.2342 19.8842 11.4706 19.8298 11.3524C19.7754 11.2342 19.5643 11.386 19.6152 11.2129C19.6661 11.0398 19.6661 11.0398 19.6661 11.0398Z" fill="#F7FCFF"/>
<rect x="19.6855" y="11.0106" width="1.02143" height="0.15" fill="#212123"/>
<path d="M22.1178 10.5439H22.2678V14.4879H22.1178V10.5439Z" fill="#FDFF00"/>
<path fill-rule="evenodd" clip-rule="evenodd" d="M21.5048 12.9394H23.2066C23.2066 12.9394 23.223 13.248 22.9647 13.1909C22.7063 13.1338 22.9906 13.248 22.5975 13.1909C22.2045 13.1338 21.8581 13.3701 21.77 13.252C21.6819 13.1338 21.3399 13.2855 21.4224 13.1124C21.5048 12.9394 21.5048 12.9394 21.5048 12.9394Z" fill="#F7FCFF"/>
<rect x="21.5363" y="12.9102" width="1.65455" height="0.15" fill="#212123"/>
<path fill-rule="evenodd" clip-rule="evenodd" d="M21.7569 12.1913H23.094C23.094 12.1913 23.1069 12.4228 22.9039 12.38C22.7009 12.3371 22.9243 12.4228 22.6155 12.38C22.3066 12.3371 22.0345 12.5144 21.9652 12.4257C21.896 12.3371 21.6273 12.4509 21.6921 12.3211C21.7569 12.1913 21.7569 12.1913 21.7569 12.1913Z" fill="#F7FCFF"/>
<rect x="21.7817" y="12.1729" width="1.3" height="0.15" fill="#212123"/>
<path fill-rule="evenodd" clip-rule="evenodd" d="M21.6207 11.2012H22.9578C22.9578 11.2012 22.9707 11.5099 22.7677 11.4528C22.5647 11.3957 22.7881 11.5099 22.4792 11.4528C22.1704 11.3957 21.8982 11.632 21.829 11.5138C21.7598 11.3957 21.4911 11.5474 21.5559 11.3743C21.6207 11.2012 21.6207 11.2012 21.6207 11.2012Z" fill="#F7FCFF"/>
<rect x="21.6454" y="11.172" width="1.3" height="0.15" fill="#212123"/>
<path fill-rule="evenodd" clip-rule="evenodd" d="M18.1388 13.2651C18.1388 13.2651 18.8331 13.6423 19.8915 13.5773C20.95 13.5124 20.874 13.7166 21.1485 13.426C21.4231 13.1353 21.4472 13.2001 21.7896 13.0475C22.1321 12.895 22.1812 12.751 22.3577 12.751C22.5343 12.751 24.4143 12.6755 24.4143 12.6755C24.4143 12.6755 24.2423 12.83 24.2423 13.0475C24.2423 13.2651 24.357 13.2874 24.2423 13.4846C24.1276 13.6819 23.998 13.9457 23.8315 14.0222C23.665 14.0988 21.4181 14.1472 20.8451 14.1472C20.2721 14.1472 19.0953 14.211 18.9599 14.1472C18.8245 14.0834 18.1388 13.2651 18.1388 13.2651Z" fill="#272727"/>
<path fill-rule="evenodd" clip-rule="evenodd" d="M16.5884 11.7645L17.2583 11.1475C17.2583 11.1475 17.2875 11.1475 17.412 11.456C17.5365 11.7645 17.5424 12.1866 17.6719 12.0812C17.8015 11.9758 18.0008 12.0731 18.0847 11.7645C18.1686 11.456 18.1633 11.0565 18.27 11.2562C18.3767 11.456 18.3133 11.164 18.4836 11.6226C18.6539 12.0812 18.7214 11.4255 18.815 12.0812C18.9086 12.7368 18.9879 12.963 18.9879 13.1155C18.9879 13.268 19.8408 13.7224 19.5136 14.0354C19.1865 14.3483 19.2791 14.2008 18.9879 14.3976C18.6967 14.5944 18.3983 14.48 18.815 14.6346C19.2317 14.7891 19.172 15.0693 19.172 15.2759C19.172 15.4825 19.1463 15.5751 18.815 15.5288C18.4836 15.4825 18.0806 15.6475 18.0001 15.6475C17.9196 15.6475 16.9482 15.4495 16.9482 15.042C16.9482 14.6346 16.5884 11.7645 16.5884 11.7645Z" fill="#CE6201"/>
</g>
</g>
</g>
<defs>
<filter id="filter0_d_395_55252" x="15" y="6" width="9" height="5.5" filterUnits="userSpaceOnUse" color-interpolation-filters="sRGB">
<feFlood flood-opacity="0" result="BackgroundImageFix"/>
<feColorMatrix in="SourceAlpha" type="matrix" values="0 0 0 0 0 0 0 0 0 0 0 0 0 0 0 0 0 0 127 0" result="hardAlpha"/>
<feOffset dy="1"/>
<feColorMatrix type="matrix" values="0 0 0 0 0 0 0 0 0 0 0 0 0 0 0 0 0 0 0.5 0"/>
<feBlend mode="normal" in2="BackgroundImageFix" result="effect1_dropShadow_395_55252"/>
<feBlend mode="normal" in="SourceGraphic" in2="effect1_dropShadow_395_55252" result="shape"/>
</filter>
</defs>
</svg>
