<svg width="24" height="18" viewBox="0 0 24 18" fill="none" xmlns="http://www.w3.org/2000/svg">
<mask id="mask0_395_52574" style="mask-type:luminance" maskUnits="userSpaceOnUse" x="0" y="0" width="24" height="18">
<rect width="24" height="18" fill="white"/>
</mask>
<g mask="url(#mask0_395_52574)">
<path fill-rule="evenodd" clip-rule="evenodd" d="M0 0V18H24V0H0Z" fill="#3D58DB"/>
<mask id="mask1_395_52574" style="mask-type:luminance" maskUnits="userSpaceOnUse" x="0" y="0" width="24" height="18">
<path fill-rule="evenodd" clip-rule="evenodd" d="M0 0V18H24V0H0Z" fill="white"/>
</mask>
<g mask="url(#mask1_395_52574)">
<path fill-rule="evenodd" clip-rule="evenodd" d="M0 0V6H24V0H0Z" fill="#F7FCFF"/>
<path fill-rule="evenodd" clip-rule="evenodd" d="M0 12V18H24V12H0Z" fill="#E31D1C"/>
<path d="M12.1523 4.02246L12.2002 4.46973V4.47266C12.2004 4.47461 12.2008 4.4777 12.2012 4.48145C12.2019 4.48886 12.2036 4.49962 12.2051 4.51367C12.208 4.54236 12.2124 4.5848 12.2178 4.63867C12.2286 4.74661 12.2432 4.90273 12.2607 5.09375C12.2957 5.47555 12.3407 6.00018 12.3789 6.57129C12.454 7.69354 12.5097 9.06008 12.4004 9.84863C12.1843 11.4065 11.2464 13.9364 8.4375 15.1924L8.2373 15.2822L8.03516 15.1953C5.07384 13.9162 4.31172 11.095 4.14551 9.84668C4.05974 9.20214 4.09326 7.83728 4.1416 6.68652C4.16625 6.09985 4.19535 5.55065 4.21875 5.14844C4.23045 4.94728 4.2408 4.78242 4.24805 4.66797C4.25165 4.61104 4.25484 4.56655 4.25684 4.53613C4.25783 4.5209 4.25826 4.50888 4.25879 4.50098C4.25904 4.49714 4.25963 4.49422 4.25977 4.49219V4.48926L4.29102 4.02246H12.1523Z" fill="#E31D1C" stroke="white"/>
<mask id="mask2_395_52574" style="mask-type:luminance" maskUnits="userSpaceOnUse" x="3" y="3" width="10" height="13">
<path d="M12.1523 4.02246L12.2002 4.46973V4.47266C12.2004 4.47461 12.2008 4.4777 12.2012 4.48145C12.2019 4.48886 12.2036 4.49962 12.2051 4.51367C12.208 4.54236 12.2124 4.5848 12.2178 4.63867C12.2286 4.74661 12.2432 4.90273 12.2607 5.09375C12.2957 5.47555 12.3407 6.00018 12.3789 6.57129C12.454 7.69354 12.5097 9.06008 12.4004 9.84863C12.1843 11.4065 11.2464 13.9364 8.4375 15.1924L8.2373 15.2822L8.03516 15.1953C5.07384 13.9162 4.31172 11.095 4.14551 9.84668C4.05974 9.20214 4.09326 7.83728 4.1416 6.68652C4.16625 6.09985 4.19535 5.55065 4.21875 5.14844C4.23045 4.94728 4.2408 4.78242 4.24805 4.66797C4.25165 4.61104 4.25484 4.56655 4.25684 4.53613C4.25783 4.5209 4.25826 4.50888 4.25879 4.50098C4.25904 4.49714 4.25963 4.49422 4.25977 4.49219V4.48926L4.29102 4.02246H12.1523Z" fill="white" stroke="white"/>
</mask>
<g mask="url(#mask2_395_52574)">
<path fill-rule="evenodd" clip-rule="evenodd" d="M7.69278 4.94238C7.69278 4.94238 7.84764 5.17835 7.91697 5.53916C7.9863 5.89997 7.99826 6.53216 7.99826 6.53216L6.5291 6.35127V7.46524L8.03108 7.27396L8.00667 8.33126C8.00667 8.33126 7.55733 8.37784 7.18879 8.33126C6.82026 8.28468 6.09424 8.08953 6.09424 8.08953V9.36482C6.09424 9.36482 6.83186 9.12884 7.18879 9.07469C7.54572 9.02054 8.00667 9.07469 8.00667 9.07469V10.6409H8.61644V9.07469C8.61644 9.07469 9.28301 9.01674 9.68064 9.07948C10.0783 9.14221 10.4555 9.36482 10.4555 9.36482V8.08953C10.4555 8.08953 10.0733 8.27991 9.71292 8.32729C9.3525 8.37466 8.61644 8.33126 8.61644 8.33126L8.64086 7.27396C8.64086 7.27396 9.13978 7.2223 9.41969 7.2603C9.6996 7.2983 10.0499 7.46524 10.0499 7.46524V6.35127C10.0499 6.35127 9.70848 6.53708 9.43981 6.57078C9.17113 6.60449 8.60803 6.53216 8.60803 6.53216C8.60803 6.53216 8.61801 5.87976 8.67578 5.56209C8.73355 5.24442 8.89715 4.94238 8.89715 4.94238H7.69278Z" fill="#F7FCFF"/>
<path fill-rule="evenodd" clip-rule="evenodd" d="M5.17285 12.1839C5.17285 12.1839 5.50247 11.4765 6.03882 11.342C6.57517 11.2074 7.13758 11.7629 7.13758 11.7629C7.13758 11.7629 7.48101 10.6406 8.31809 10.6406C9.15516 10.6406 9.44894 11.7629 9.44894 11.7629C9.44894 11.7629 9.80608 11.342 10.3197 11.342C10.8333 11.342 11.3091 12.1839 11.3091 12.1839C11.3091 12.1839 9.77502 14.969 8.24096 14.969C6.70691 14.969 5.17285 12.1839 5.17285 12.1839Z" fill="#2E42A5"/>
</g>
</g>
</g>
</svg>
