<svg width="24" height="18" viewBox="0 0 24 18" fill="none" xmlns="http://www.w3.org/2000/svg">
<mask id="mask0_395_51544" style="mask-type:luminance" maskUnits="userSpaceOnUse" x="0" y="0" width="24" height="18">
<rect width="24" height="18" fill="white"/>
</mask>
<g mask="url(#mask0_395_51544)">
<path fill-rule="evenodd" clip-rule="evenodd" d="M0 0V18H24V0H0Z" fill="#F7FCFF"/>
<mask id="mask1_395_51544" style="mask-type:luminance" maskUnits="userSpaceOnUse" x="0" y="0" width="24" height="18">
<path fill-rule="evenodd" clip-rule="evenodd" d="M0 0V18H24V0H0Z" fill="white"/>
</mask>
<g mask="url(#mask1_395_51544)">
<path fill-rule="evenodd" clip-rule="evenodd" d="M0 9V18H24V9H0Z" fill="#56C6F5"/>
<path fill-rule="evenodd" clip-rule="evenodd" d="M6.41174 11.8629C6.42895 11.8606 8.27644 11.6208 8.77893 11.8629C9.28365 12.106 9.55627 12.4361 9.55627 12.4361C9.55627 12.4361 8.49823 13.4215 8.00842 13.0074C7.51902 12.5929 6.80837 12.5518 6.56311 12.5718C6.31824 12.5919 7.24084 12.232 7.24084 12.232L6.41174 11.8629ZM8.40588 9.14996C8.40588 9.14996 8.47708 9.64446 8.88147 9.97516C9.28176 10.3024 9.0227 11.695 9.01721 11.7242C9.01721 11.7242 8.76524 11.5378 8.40588 11.1304C8.04679 10.7228 8.40588 9.14996 8.40588 9.14996ZM6.34827 10.6763C5.98276 10.6763 7.34091 10.291 8.00842 10.9009C8.6759 11.511 8.48987 11.3433 8.48987 11.3433C8.47001 11.3507 7.64556 11.6524 7.3844 11.3433C7.12029 11.0302 6.71372 10.6765 6.34827 10.6763ZM6.00354 8.83942C6.00354 8.83942 6.34957 9.13486 6.80334 9.13239C7.25444 9.12973 7.9469 10.2288 7.95569 10.2427C7.94273 10.2434 7.67356 10.256 7.21252 10.1832C6.73984 10.108 6.00354 8.83942 6.00354 8.83942ZM8.50061 7.35504C8.50072 7.36548 8.51566 8.81216 8.21838 9.1402C7.91999 9.46935 7.72522 9.6109 7.72522 9.6109C7.72522 9.6109 7.72683 9.48777 7.73889 9.31012C7.66535 9.29429 7.44731 9.24215 7.11682 9.10992C6.70434 8.94489 6.07971 7.62946 6.07971 7.62946C6.07971 7.62946 6.37862 7.97093 6.776 8.0611C7.12644 8.14094 7.62798 9.05694 7.74182 9.27203C7.77142 8.86643 7.85169 8.2201 8.06506 8.0484C8.37934 7.79586 8.49812 7.36414 8.50061 7.35504ZM9.07288 5.06403C9.06637 5.07187 8.84589 5.33965 8.77502 5.67731C9.04509 5.4602 9.28198 5.29653 9.29065 5.29059C9.28326 5.2995 8.99981 5.64417 8.97327 6.04547C8.94598 6.45213 7.88831 7.22028 7.88831 7.22028C7.88831 7.22028 7.89186 7.06473 7.94397 6.77887C7.8199 6.8802 7.72143 6.95517 7.68518 6.98199C7.6665 7.16849 7.61419 7.38501 7.55627 7.58258C7.6376 8.05418 7.61877 8.65582 7.61877 8.65582C7.61877 8.65582 7.43176 8.50404 7.151 8.15973C6.87035 7.81523 6.96252 6.36188 6.96252 6.36188C6.96252 6.36188 7.01199 6.5918 7.15295 6.82184C7.28575 6.33544 7.5107 5.82047 7.51819 5.80328C7.51603 5.81946 7.46005 6.25852 7.64905 6.6109C7.67289 6.65533 7.68491 6.71321 7.69006 6.77985C7.70442 6.66759 7.72923 6.51283 7.77307 6.31989C7.87073 5.89025 9.05332 5.07743 9.07288 5.06403Z" fill="#006923"/>
<path fill-rule="evenodd" clip-rule="evenodd" d="M14.4101 12.1477C14.4101 12.1477 13.9891 11.4401 14.4101 11.0983C14.8311 10.7565 14.9978 10.9839 14.9978 10.5909C14.9978 10.1979 15.0403 10.3149 15.2472 10.1198C15.4541 9.9247 15.3075 9.45084 15.5846 9.68777C15.8616 9.9247 15.9134 9.47036 15.9134 10.4142C15.9134 11.358 15.9134 9.55815 15.9134 9.02803C15.9134 8.49791 15.5846 8.6234 15.5846 8.26789C15.5846 7.91237 15.2558 7.3814 15.5846 7.3814C15.9134 7.3814 16.1066 7.77644 16.1066 7.77644C16.1066 7.77644 16.4297 8.32706 16.4297 7.77644C16.4297 7.22583 15.8545 7.38952 15.5846 6.78192C15.3146 6.17431 15.3573 6.85006 14.9978 6.06712C14.6382 5.28419 14.2101 5.03574 14.6039 5.03574C14.9978 5.03574 14.9099 5.03574 15.2472 5.03574C15.5846 5.03574 16.1066 4.75552 16.1066 5.03574C16.1066 5.31595 16.1066 5.18755 16.1066 5.62733C16.1066 6.06712 16.4297 6.06712 16.4297 6.06712C16.4297 6.06712 16.6053 5.18755 16.826 5.62733C17.0466 6.06712 16.8964 6.78192 17.0578 6.78192C17.2193 6.78192 17.0856 6.04324 17.4382 6.60901C17.7909 7.17478 17.4382 7.55819 17.4382 7.77644C17.4382 7.9947 17.0578 8.52943 17.0578 8.52943C17.0578 8.52943 17.1321 8.79096 17.4382 8.52943C17.7444 8.26789 18.0348 8.00635 18.0348 8.26789C18.0348 8.52943 18.6314 8.61067 18.0348 9.02803C17.4382 9.44539 17.8187 9.86323 17.4382 9.86323C17.0578 9.86323 16.6096 10.4142 16.4297 10.4142C16.2498 10.4142 15.577 10.8361 15.9134 10.8361C16.2498 10.8361 16.5941 9.99236 16.826 10.4142C17.0578 10.8361 17.0548 10.3457 17.2465 10.5909C17.4382 10.8361 17.63 12.1663 17.4382 11.6323C17.2465 11.0983 16.946 11.0983 16.4297 11.0983C15.9134 11.0983 14.9099 11.1369 15.2472 11.3846C15.5846 11.6323 15.9635 11.1369 16.1066 11.3846C16.2498 11.6323 16.2081 11.88 16.4297 11.6323C16.6512 11.3846 16.8691 11.6323 17.0578 11.6323C17.2465 11.6323 16.8691 11.9096 17.0578 12.1477C17.2465 12.3857 17.6671 12.7028 17.2465 12.7028C16.826 12.7028 16.6096 12.3665 16.4297 12.7028C16.2498 13.039 16.2422 13.623 15.9134 13.1629C15.5846 12.7028 14.9978 12.9363 14.9978 12.7028C14.9978 12.4692 15.1261 12.4315 14.7681 12.4315C14.4101 12.4315 14.4101 12.1477 14.4101 12.1477Z" fill="#009933"/>
<path fill-rule="evenodd" clip-rule="evenodd" d="M9.56866 12.2255C9.66882 12.2256 9.75031 12.3095 9.75031 12.413C9.7502 12.5164 9.66876 12.6005 9.56866 12.6005C9.46851 12.6005 9.38713 12.5165 9.38702 12.413C9.38702 12.3095 9.46845 12.2255 9.56866 12.2255ZM14.3587 11.9999C14.4589 11.9999 14.5403 12.0839 14.5403 12.1874C14.5403 12.291 14.4589 12.3749 14.3587 12.3749C14.2586 12.3748 14.178 12.2909 14.178 12.1874C14.178 12.084 14.2586 12.0001 14.3587 11.9999ZM9.4964 11.7001C9.59635 11.7004 9.67696 11.7843 9.67706 11.8876C9.67706 11.991 9.59641 12.0749 9.4964 12.0751C9.39619 12.0751 9.31476 11.9912 9.31476 11.8876C9.31486 11.7842 9.39625 11.7001 9.4964 11.7001ZM15.8831 10.3505C15.9833 10.3506 16.0648 10.4345 16.0648 10.538C16.0647 10.6415 15.9832 10.7255 15.8831 10.7255C15.783 10.7255 15.7016 10.6415 15.7015 10.538C15.7015 10.4345 15.7829 10.3505 15.8831 10.3505ZM8.04425 9.82513C8.1444 9.82513 8.22579 9.90917 8.22589 10.0126C8.22589 10.1162 8.14446 10.2001 8.04425 10.2001C7.94408 10.2001 7.86261 10.1162 7.86261 10.0126C7.86271 9.9092 7.94414 9.82519 8.04425 9.82513ZM16.4642 8.85052C16.5642 8.85079 16.6448 8.93463 16.6448 9.03802C16.6447 9.14133 16.5641 9.22526 16.4642 9.22552C16.364 9.22552 16.2826 9.14149 16.2825 9.03802C16.2825 8.93447 16.364 8.85052 16.4642 8.85052ZM7.75421 8.10052C7.85434 8.10063 7.93585 8.18454 7.93585 8.28802C7.93575 8.39142 7.85427 8.47542 7.75421 8.47552C7.65406 8.47552 7.57267 8.39149 7.57257 8.28802C7.57257 8.18447 7.654 8.10052 7.75421 8.10052ZM7.75421 7.12494C7.85434 7.12504 7.93585 7.20895 7.93585 7.31244C7.93585 7.41593 7.85434 7.49983 7.75421 7.49994C7.654 7.49994 7.57257 7.41599 7.57257 7.31244C7.57257 7.20889 7.654 7.12494 7.75421 7.12494ZM15.9554 6.90033C16.0556 6.90033 16.137 6.98428 16.137 7.08783C16.137 7.19138 16.0556 7.27533 15.9554 7.27533C15.8553 7.27519 15.7737 7.1913 15.7737 7.08783C15.7737 6.98436 15.8553 6.90047 15.9554 6.90033Z" fill="#C51918"/>
<path fill-rule="evenodd" clip-rule="evenodd" d="M13.5284 14.8657C13.5284 14.7121 11.203 13.1095 10.5788 12.756C9.95468 12.4025 6.90683 10.457 7.73684 7.50098H7.61123C7.61123 7.50098 7.04953 11.1433 10.9196 13.4074C12.6817 14.5895 12.7694 14.8657 12.7694 14.8657C12.7694 14.8657 13.5284 15.0193 13.5284 14.8657Z" fill="#FECA00"/>
<path fill-rule="evenodd" clip-rule="evenodd" d="M10.4433 14.8657C10.4433 14.7121 12.7687 13.1095 13.3929 12.756C14.017 12.4025 17.0649 10.457 16.2348 7.50098H16.3604C16.3604 7.50098 16.9222 11.1433 13.0521 13.4074C11.29 14.5895 11.2023 14.8657 11.2023 14.8657C11.2023 14.8657 10.4433 15.0193 10.4433 14.8657Z" fill="#FECA00"/>
<path fill-rule="evenodd" clip-rule="evenodd" d="M12.0363 12.6646C13.6598 12.6646 14.9758 10.5632 14.9758 8.51283C14.9758 6.46247 13.6598 5.40033 12.0363 5.40033C10.4129 5.40033 9.0968 6.46247 9.0968 8.51283C9.0968 10.5632 10.4129 12.6646 12.0363 12.6646Z" fill="#56C6F5"/>
<path fill-rule="evenodd" clip-rule="evenodd" d="M10.2546 7.15406C10.2548 6.52739 10.7353 6.75562 10.9617 6.75562C11.1836 6.75607 10.7485 7.14215 10.7351 7.15406C10.7351 7.15406 10.7351 7.51333 10.7351 7.78687C10.7351 7.82924 10.7406 7.91325 10.7449 8.02515H10.8367C10.8779 8.02534 10.9109 8.05904 10.9109 8.10035C10.9109 8.14166 10.8779 8.17536 10.8367 8.17555H10.7517C10.7612 8.39918 10.771 8.68605 10.7849 8.96851H10.7956C10.8547 8.96335 10.9065 9.00721 10.9118 9.06617L10.9128 9.07691C10.9177 9.13589 10.8742 9.18796 10.8152 9.19312L10.7956 9.1941C10.8192 9.66688 10.8406 10.074 10.8406 10.074C10.8202 10.0751 10.1521 10.1113 10.1521 10.0115C10.1521 9.96962 10.172 9.63224 10.1921 9.24683L10.1618 9.24976C10.1027 9.2549 10.0508 9.21124 10.0456 9.15211L10.0447 9.14234C10.0395 9.08323 10.0832 9.03132 10.1423 9.02613L10.2038 9.02027C10.2212 8.69075 10.2368 8.36104 10.2468 8.17555H10.1882C10.1468 8.17555 10.113 8.14177 10.113 8.10035C10.113 8.05893 10.1468 8.02515 10.1882 8.02515H10.2546V7.15406Z" fill="white"/>
<path fill-rule="evenodd" clip-rule="evenodd" d="M10.4031 8.25H10.645V8.57258H10.4031V8.25Z" fill="black"/>
<path fill-rule="evenodd" clip-rule="evenodd" d="M10.3308 9.375H10.734V10.125H10.3308V9.375Z" fill="black"/>
<path fill-rule="evenodd" clip-rule="evenodd" d="M11.7788 7.15406C11.779 6.52739 12.2595 6.75562 12.4858 6.75562C12.7078 6.75607 12.2727 7.14216 12.2593 7.15406C12.2593 7.15406 12.2593 7.51333 12.2593 7.78687C12.2593 7.82924 12.2647 7.91325 12.269 8.02515H12.3608C12.4021 8.02534 12.435 8.05904 12.435 8.10035C12.435 8.14166 12.4021 8.17536 12.3608 8.17555H12.2759C12.2853 8.39918 12.2952 8.68605 12.3091 8.96851H12.3198C12.3788 8.96335 12.4306 9.00721 12.436 9.06617L12.437 9.07691C12.4419 9.13589 12.3983 9.18796 12.3393 9.19312L12.3198 9.1941C12.3434 9.66688 12.3647 10.074 12.3647 10.074C12.3444 10.0751 11.6763 10.1113 11.6763 10.0115C11.6763 9.96962 11.6952 9.63222 11.7153 9.24683L11.686 9.24976C11.6269 9.2549 11.575 9.21124 11.5698 9.15211L11.5688 9.14234C11.5637 9.08323 11.6074 9.03132 11.6665 9.02613L11.727 9.02027C11.7444 8.69074 11.761 8.36104 11.771 8.17555H11.7124C11.671 8.17555 11.6372 8.14177 11.6372 8.10035C11.6372 8.05893 11.671 8.02515 11.7124 8.02515H11.7788V7.15406Z" fill="white"/>
<path fill-rule="evenodd" clip-rule="evenodd" d="M11.9272 8.25H12.1692V8.57258H11.9272V8.25Z" fill="black"/>
<path fill-rule="evenodd" clip-rule="evenodd" d="M11.855 9.375H12.2582V10.125H11.855V9.375Z" fill="black"/>
<path fill-rule="evenodd" clip-rule="evenodd" d="M13.2304 7.15406C13.2306 6.52739 13.7111 6.75562 13.9374 6.75562C14.1594 6.75606 13.7242 7.14222 13.7109 7.15406C13.7109 7.15406 13.7109 7.51333 13.7109 7.78687C13.7109 7.82924 13.7163 7.91325 13.7206 8.02515H13.8124C13.8537 8.02533 13.8866 8.05904 13.8866 8.10035C13.8866 8.14166 13.8537 8.17537 13.8124 8.17555H13.7275C13.7369 8.39918 13.7468 8.68605 13.7607 8.96851H13.7714C13.8304 8.96335 13.8822 9.00721 13.8876 9.06617L13.8886 9.07691C13.8935 9.13589 13.8499 9.18796 13.7909 9.19312L13.7714 9.1941C13.795 9.66688 13.8163 10.074 13.8163 10.074C13.7959 10.0751 13.1278 10.1113 13.1278 10.0115C13.1279 9.96962 13.1468 9.63222 13.1669 9.24683L13.1376 9.24976C13.0785 9.25489 13.0266 9.21124 13.0214 9.15211L13.0204 9.14234C13.0153 9.08323 13.059 9.03133 13.1181 9.02613L13.1786 9.02027C13.196 8.69074 13.2126 8.36105 13.2226 8.17555H13.164C13.1226 8.17555 13.0888 8.14177 13.0888 8.10035C13.0888 8.05893 13.1226 8.02515 13.164 8.02515H13.2304V7.15406Z" fill="white"/>
<path fill-rule="evenodd" clip-rule="evenodd" d="M13.3788 8.25H13.6208V8.57258H13.3788V8.25Z" fill="black"/>
<path fill-rule="evenodd" clip-rule="evenodd" d="M13.3066 9.375H13.7098V10.125H13.3066V9.375Z" fill="black"/>
<path fill-rule="evenodd" clip-rule="evenodd" d="M13.887 4.80078H10.0402V5.37539L10.0143 5.37771C10.0143 5.37771 8.12964 6.84225 8.6527 9.03615C9.17575 11.23 11.2534 12.857 11.2534 12.857L11.3581 12.4784C11.3581 12.4784 9.37839 9.78653 9.37839 8.7109C9.37839 7.63526 9.7519 6.62568 10.1474 6.4687C10.3853 6.37428 10.4263 6.39344 10.4911 6.42371C10.534 6.44377 10.5874 6.4687 10.7155 6.4687C11.0367 6.4687 11.3581 6.23877 11.3581 6.23877C11.3581 6.23877 11.5816 6.4687 11.7892 6.4687C11.9968 6.4687 11.9997 6.23877 11.9997 6.23877V5.47578H12.0228V6.23877C12.0228 6.23877 12.0257 6.4687 12.2333 6.4687C12.4409 6.4687 12.6644 6.23877 12.6644 6.23877C12.6644 6.23877 12.9858 6.4687 13.307 6.4687C13.435 6.4687 13.4884 6.44377 13.5314 6.42371C13.5962 6.39344 13.6372 6.37428 13.8751 6.4687C14.2706 6.62568 14.6441 7.63526 14.6441 8.7109C14.6441 9.78653 12.6644 12.4784 12.6644 12.4784L12.7691 12.857C12.7691 12.857 14.8467 11.23 15.3698 9.03615C15.8928 6.84225 14.0082 5.37771 14.0082 5.37771L13.887 5.36687V4.80078Z" fill="#E8AA00"/>
<path d="M10.0402 4.80078V4.30078H9.54019V4.80078H10.0402ZM13.887 4.80078H14.387V4.30078H13.887V4.80078ZM10.0402 5.37539L10.0847 5.87341L10.5402 5.83268V5.37539H10.0402ZM10.0143 5.37771L9.96979 4.87969L9.82349 4.89277L9.70752 4.9829L10.0143 5.37771ZM8.6527 9.03615L8.16633 9.1521V9.1521L8.6527 9.03615ZM11.2534 12.857L10.9451 13.2507L11.5354 13.7129L11.7353 12.9903L11.2534 12.857ZM11.3581 12.4784L11.84 12.6117L11.9047 12.3777L11.7609 12.1822L11.3581 12.4784ZM10.1474 6.4687L10.3318 6.93343V6.93343L10.1474 6.4687ZM10.4911 6.42371L10.7027 5.97067L10.7027 5.97067L10.4911 6.42371ZM11.3581 6.23877L11.7167 5.89028L11.417 5.58193L11.0672 5.8321L11.3581 6.23877ZM11.9997 6.23877L12.4997 6.24509V6.23877H11.9997ZM11.9997 5.47578V4.97578H11.4997V5.47578H11.9997ZM12.0228 5.47578H12.5228V4.97578H12.0228V5.47578ZM12.0228 6.23877H11.5227L11.5228 6.24509L12.0228 6.23877ZM12.6644 6.23877L12.9553 5.8321L12.6055 5.58193L12.3058 5.89028L12.6644 6.23877ZM13.5314 6.42371L13.7429 6.87675L13.7429 6.87675L13.5314 6.42371ZM13.8751 6.4687L14.0596 6.00397L14.0596 6.00397L13.8751 6.4687ZM12.6644 12.4784L12.2616 12.1822L12.1177 12.3777L12.1825 12.6117L12.6644 12.4784ZM12.7691 12.857L12.2872 12.9903L12.4871 13.7129L13.0774 13.2507L12.7691 12.857ZM15.3698 9.03615L15.8561 9.1521V9.1521L15.3698 9.03615ZM14.0082 5.37771L14.315 4.9829L14.199 4.89277L14.0527 4.87969L14.0082 5.37771ZM13.887 5.36687H13.387V5.82416L13.8424 5.86488L13.887 5.36687ZM10.0402 4.80078V5.30078H13.887V4.80078V4.30078H10.0402V4.80078ZM10.0402 5.37539H10.5402V4.80078H10.0402H9.54019V5.37539H10.0402ZM10.0143 5.37771L10.0588 5.87572L10.0847 5.87341L10.0402 5.37539L9.99566 4.87738L9.96979 4.87969L10.0143 5.37771ZM8.6527 9.03615L9.13906 8.92019C8.91846 7.99489 9.20041 7.21886 9.55971 6.65184C9.73946 6.36817 9.93469 6.14395 10.0847 5.99117C10.1594 5.91515 10.2219 5.85784 10.2642 5.82072C10.2853 5.80219 10.3013 5.78877 10.3111 5.78066C10.316 5.77661 10.3194 5.77388 10.3211 5.77252C10.322 5.77183 10.3224 5.77149 10.3224 5.77149C10.3224 5.77149 10.3223 5.77157 10.3221 5.77174C10.322 5.77183 10.3219 5.77194 10.3217 5.77206C10.3216 5.77213 10.3215 5.77224 10.3214 5.77227C10.3213 5.77239 10.3211 5.77252 10.0143 5.37771C9.70752 4.9829 9.70734 4.98303 9.70716 4.98317C9.70709 4.98323 9.70691 4.98337 9.70677 4.98348C9.70649 4.9837 9.70618 4.98394 9.70584 4.9842C9.70517 4.98473 9.70438 4.98535 9.70347 4.98606C9.70167 4.98749 9.69941 4.98928 9.69671 4.99143C9.69132 4.99574 9.68418 5.00151 9.67543 5.00872C9.65793 5.02313 9.63394 5.04332 9.60454 5.06912C9.54581 5.12067 9.46513 5.19491 9.37128 5.29047C9.1843 5.48085 8.94105 5.75988 8.71502 6.11659C8.26274 6.83032 7.86388 7.88351 8.16633 9.1521L8.6527 9.03615ZM11.2534 12.857C11.5616 12.4634 11.5617 12.4634 11.5618 12.4635C11.5618 12.4635 11.5619 12.4636 11.562 12.4636C11.562 12.4637 11.5621 12.4637 11.5621 12.4637C11.5621 12.4637 11.562 12.4636 11.5618 12.4635C11.5613 12.4631 11.5604 12.4624 11.559 12.4613C11.5562 12.459 11.5515 12.4552 11.545 12.45C11.532 12.4394 11.5118 12.4229 11.4854 12.4006C11.4326 12.3561 11.3549 12.2887 11.2592 12.2006C11.0675 12.0242 10.8057 11.7663 10.5285 11.4435C9.96808 10.7909 9.37434 9.90702 9.13906 8.92019L8.6527 9.03615L8.16633 9.1521C8.45411 10.3592 9.1607 11.3857 9.76985 12.095C10.0775 12.4533 10.3677 12.7392 10.5819 12.9364C10.6892 13.0351 10.7779 13.1121 10.8407 13.165C10.8722 13.1916 10.8972 13.2121 10.9149 13.2265C10.9237 13.2336 10.9307 13.2393 10.9358 13.2433C10.9383 13.2453 10.9404 13.247 10.9419 13.2482C10.9427 13.2488 10.9434 13.2493 10.9439 13.2497C10.9442 13.2499 10.9444 13.2501 10.9446 13.2503C10.9447 13.2504 10.9448 13.2505 10.9449 13.2505C10.945 13.2506 10.9451 13.2507 11.2534 12.857ZM11.3581 12.4784L10.8762 12.3451L10.7715 12.7237L11.2534 12.857L11.7353 12.9903L11.84 12.6117L11.3581 12.4784ZM9.37839 8.7109H8.87839C8.87839 9.09735 9.04546 9.55342 9.23345 9.96224C9.43071 10.3912 9.68948 10.8474 9.94196 11.2593C10.1955 11.6729 10.4482 12.0508 10.6371 12.3248C10.7318 12.462 10.8108 12.5737 10.8663 12.6515C10.8941 12.6903 10.9161 12.7207 10.9312 12.7416C10.9388 12.752 10.9447 12.7601 10.9487 12.7656C10.9508 12.7684 10.9523 12.7706 10.9534 12.7721C10.954 12.7728 10.9544 12.7734 10.9547 12.7738C10.9549 12.7741 10.955 12.7742 10.9551 12.7744C10.9552 12.7744 10.9552 12.7745 10.9552 12.7745C10.9553 12.7746 10.9553 12.7746 11.3581 12.4784C11.7609 12.1822 11.7609 12.1822 11.7609 12.1822C11.7609 12.1822 11.7609 12.1822 11.7609 12.1822C11.7609 12.1822 11.7609 12.1821 11.7608 12.182C11.7606 12.1818 11.7603 12.1814 11.7599 12.1808C11.7591 12.1797 11.7579 12.178 11.7561 12.1756C11.7527 12.1709 11.7475 12.1638 11.7405 12.1542C11.7267 12.1351 11.7061 12.1067 11.6798 12.0698C11.6271 11.9961 11.5514 11.8891 11.4604 11.7572C11.2781 11.4928 11.0359 11.1305 10.7945 10.7367C10.5521 10.3412 10.3159 9.92271 10.142 9.54446C9.95879 9.14604 9.87839 8.86226 9.87839 8.7109H9.37839ZM10.1474 6.4687L9.96292 6.00397C9.7291 6.09678 9.56145 6.28411 9.44668 6.45321C9.32513 6.63229 9.22398 6.84866 9.14285 7.07956C8.98032 7.54216 8.87839 8.11976 8.87839 8.7109H9.37839H9.87839C9.87839 8.2264 9.96322 7.76139 10.0863 7.41104C10.148 7.23547 10.2144 7.10279 10.2741 7.0148C10.3406 6.91684 10.3679 6.91911 10.3318 6.93343L10.1474 6.4687ZM10.4911 6.42371L10.7027 5.97067C10.6537 5.94783 10.5307 5.88848 10.3506 5.90057C10.2192 5.90939 10.0876 5.9545 9.96292 6.00397L10.1474 6.4687L10.3318 6.93343C10.3827 6.91325 10.4134 6.90303 10.4304 6.89814C10.448 6.89307 10.4406 6.89678 10.4176 6.89833C10.405 6.89917 10.3883 6.89935 10.3686 6.89744C10.3484 6.89549 10.329 6.89177 10.3112 6.88686C10.2939 6.88213 10.2813 6.87718 10.2756 6.87482C10.2718 6.8732 10.2696 6.87211 10.2795 6.87675L10.4911 6.42371ZM10.7155 6.4687V5.9687C10.6996 5.9687 10.691 5.96792 10.6881 5.96759C10.6854 5.9673 10.6877 5.96741 10.6934 5.96885C10.6962 5.96955 10.6992 5.97042 10.7024 5.97144C10.7055 5.97246 10.7082 5.97345 10.7101 5.97423C10.712 5.97497 10.7128 5.97535 10.7118 5.97492C10.7104 5.97427 10.7085 5.9734 10.7027 5.97067L10.4911 6.42371L10.2795 6.87675C10.3048 6.88856 10.3654 6.91746 10.4493 6.9386C10.5313 6.95923 10.6186 6.9687 10.7155 6.9687V6.4687ZM11.3581 6.23877C11.0672 5.8321 11.0673 5.83204 11.0674 5.83197C11.0674 5.83195 11.0675 5.83189 11.0676 5.83184C11.0677 5.83176 11.0678 5.83168 11.0679 5.83161C11.0681 5.83145 11.0683 5.83131 11.0685 5.83119C11.0689 5.83093 11.0691 5.83073 11.0694 5.83058C11.0698 5.83027 11.0699 5.83017 11.0698 5.83025C11.0696 5.83041 11.0683 5.8313 11.066 5.83282C11.0615 5.83587 11.0531 5.84135 11.0415 5.84845C11.018 5.86289 10.9833 5.88274 10.942 5.90244C10.8497 5.94646 10.7679 5.9687 10.7155 5.9687V6.4687V6.9687C10.9842 6.9687 11.2238 6.87597 11.3725 6.80503C11.4517 6.76724 11.5175 6.72962 11.5642 6.70094C11.5878 6.68649 11.6071 6.674 11.6213 6.66448C11.6284 6.65972 11.6344 6.65567 11.639 6.65246C11.6413 6.65085 11.6433 6.64946 11.645 6.64828C11.6458 6.64769 11.6466 6.64716 11.6473 6.64669C11.6476 6.64645 11.6479 6.64623 11.6482 6.64602C11.6483 6.64592 11.6485 6.64582 11.6486 6.64572C11.6487 6.64567 11.6488 6.6456 11.6488 6.64558C11.6489 6.64551 11.649 6.64544 11.3581 6.23877ZM11.7892 6.4687V5.9687C11.8267 5.9687 11.8428 5.97819 11.8317 5.97342C11.8225 5.96944 11.8056 5.96034 11.7832 5.94461C11.7619 5.9296 11.7427 5.91366 11.7289 5.90137C11.7223 5.89547 11.7176 5.89104 11.7153 5.88883C11.7142 5.88774 11.7137 5.88724 11.7139 5.88744C11.714 5.88754 11.7142 5.88782 11.7147 5.88828C11.7149 5.88852 11.7152 5.8888 11.7155 5.88913C11.7157 5.8893 11.7159 5.88948 11.7161 5.88967C11.7162 5.88976 11.7162 5.88986 11.7163 5.88996C11.7164 5.89002 11.7165 5.89009 11.7165 5.89012C11.7166 5.8902 11.7167 5.89028 11.3581 6.23877C10.9996 6.58726 10.9996 6.58734 10.9997 6.58743C10.9998 6.58746 10.9998 6.58754 10.9999 6.5876C11 6.58771 11.0001 6.58783 11.0002 6.58796C11.0005 6.5882 11.0007 6.58847 11.001 6.58874C11.0016 6.58929 11.0022 6.58991 11.0028 6.59058C11.0041 6.59191 11.0057 6.59348 11.0075 6.59527C11.0111 6.59883 11.0156 6.60328 11.0209 6.60847C11.0317 6.61883 11.0461 6.63237 11.0637 6.64802C11.0983 6.67885 11.1479 6.72039 11.2084 6.76286C11.3084 6.83312 11.5239 6.9687 11.7892 6.9687V6.4687ZM11.9997 6.23877C11.4997 6.23245 11.4997 6.23223 11.4997 6.23201C11.4997 6.23194 11.4997 6.23172 11.4997 6.23157C11.4997 6.23128 11.4998 6.231 11.4998 6.23071C11.4998 6.23014 11.4998 6.22958 11.4998 6.22903C11.4998 6.22793 11.4998 6.22686 11.4999 6.22583C11.4999 6.22376 11.5 6.22182 11.5001 6.22C11.5002 6.21637 11.5004 6.21312 11.5006 6.2102C11.5011 6.2045 11.5017 6.19929 11.5025 6.1942C11.5038 6.18647 11.5072 6.16809 11.5187 6.14326C11.5306 6.11777 11.5581 6.07044 11.6144 6.02923C11.6765 5.98385 11.7424 5.9687 11.7892 5.9687V6.4687V6.9687C11.9398 6.9687 12.0839 6.92481 12.2049 6.83632C12.3201 6.752 12.3873 6.64718 12.4258 6.56421C12.464 6.4819 12.4812 6.40604 12.4895 6.3552C12.4938 6.32855 12.4963 6.30537 12.4977 6.28711C12.4984 6.27789 12.4989 6.26971 12.4992 6.26271C12.4993 6.2592 12.4994 6.25597 12.4995 6.25303C12.4995 6.25156 12.4996 6.25017 12.4996 6.24884C12.4996 6.24818 12.4996 6.24754 12.4996 6.24691C12.4996 6.2466 12.4996 6.24629 12.4996 6.24599C12.4996 6.24584 12.4996 6.24561 12.4996 6.24554C12.4996 6.24532 12.4997 6.24509 11.9997 6.23877ZM11.9997 5.47578H11.4997V6.23877H11.9997H12.4997V5.47578H11.9997ZM12.0228 5.47578V4.97578H11.9997V5.47578V5.97578H12.0228V5.47578ZM12.0228 5.47578H11.5228V6.23877H12.0228H12.5228V5.47578H12.0228ZM12.0228 6.23877C11.5228 6.24509 11.5228 6.24532 11.5228 6.24554C11.5228 6.24561 11.5228 6.24584 11.5228 6.24599C11.5228 6.24629 11.5228 6.2466 11.5228 6.24691C11.5229 6.24754 11.5229 6.24818 11.5229 6.24884C11.5229 6.25017 11.5229 6.25156 11.523 6.25303C11.5231 6.25597 11.5232 6.2592 11.5233 6.26271C11.5236 6.26971 11.5241 6.27789 11.5248 6.28711C11.5262 6.30537 11.5287 6.32855 11.533 6.3552C11.5413 6.40604 11.5584 6.4819 11.5966 6.56421C11.6351 6.64718 11.7023 6.752 11.8176 6.83632C11.9386 6.92481 12.0827 6.9687 12.2333 6.9687V6.4687V5.9687C12.2801 5.9687 12.346 5.98385 12.408 6.02923C12.4644 6.07044 12.4919 6.11777 12.5037 6.14326C12.5153 6.16809 12.5187 6.18647 12.52 6.1942C12.5208 6.19929 12.5214 6.2045 12.5218 6.2102C12.5221 6.21312 12.5223 6.21637 12.5224 6.22C12.5225 6.22182 12.5226 6.22376 12.5226 6.22583C12.5226 6.22686 12.5227 6.22793 12.5227 6.22903C12.5227 6.22958 12.5227 6.23014 12.5227 6.23071C12.5227 6.231 12.5227 6.23128 12.5227 6.23157C12.5227 6.23172 12.5227 6.23194 12.5227 6.23201C12.5227 6.23223 12.5227 6.23245 12.0228 6.23877ZM12.2333 6.4687V6.9687C12.4986 6.9687 12.7141 6.83312 12.8141 6.76286C12.8746 6.72039 12.9242 6.67885 12.9588 6.64802C12.9764 6.63237 12.9908 6.61883 13.0015 6.60847C13.0069 6.60328 13.0114 6.59883 13.015 6.59527C13.0168 6.59348 13.0183 6.59191 13.0197 6.59058C13.0203 6.58991 13.0209 6.58929 13.0215 6.58874C13.0217 6.58847 13.022 6.5882 13.0222 6.58796C13.0223 6.58783 13.0225 6.58771 13.0226 6.5876C13.0226 6.58754 13.0227 6.58746 13.0227 6.58743C13.0228 6.58734 13.0229 6.58726 12.6644 6.23877C12.3058 5.89028 12.3059 5.8902 12.306 5.89012C12.306 5.89009 12.3061 5.89002 12.3061 5.88996C12.3062 5.88986 12.3063 5.88976 12.3064 5.88967C12.3066 5.88948 12.3068 5.8893 12.3069 5.88913C12.3073 5.8888 12.3075 5.88852 12.3078 5.88828C12.3082 5.88782 12.3085 5.88754 12.3086 5.88744C12.3088 5.88724 12.3083 5.88774 12.3072 5.88883C12.3049 5.89104 12.3002 5.89547 12.2936 5.90137C12.2798 5.91366 12.2606 5.9296 12.2392 5.94461C12.2169 5.96034 12.2 5.96944 12.1908 5.97342C12.1796 5.97819 12.1958 5.9687 12.2333 5.9687V6.4687ZM12.6644 6.23877C12.3735 6.64544 12.3736 6.64551 12.3737 6.64558C12.3737 6.6456 12.3738 6.64567 12.3739 6.64572C12.374 6.64582 12.3741 6.64592 12.3743 6.64602C12.3746 6.64623 12.3749 6.64645 12.3752 6.64669C12.3759 6.64716 12.3766 6.64769 12.3775 6.64828C12.3791 6.64946 12.3811 6.65085 12.3835 6.65246C12.3881 6.65567 12.394 6.65972 12.4012 6.66448C12.4154 6.674 12.4347 6.68649 12.4582 6.70094C12.505 6.72962 12.5708 6.76724 12.65 6.80503C12.7987 6.87597 13.0383 6.9687 13.307 6.9687V6.4687V5.9687C13.2545 5.9687 13.1728 5.94646 13.0805 5.90244C13.0392 5.88274 13.0045 5.86289 12.981 5.84845C12.9694 5.84135 12.961 5.83587 12.9564 5.83282C12.9542 5.8313 12.9529 5.83041 12.9526 5.83025C12.9525 5.83017 12.9527 5.83027 12.9531 5.83058C12.9533 5.83073 12.9536 5.83093 12.954 5.83119C12.9542 5.83131 12.9543 5.83145 12.9546 5.83161C12.9547 5.83168 12.9548 5.83176 12.9549 5.83184C12.955 5.83189 12.955 5.83195 12.9551 5.83197C12.9552 5.83204 12.9553 5.8321 12.6644 6.23877ZM13.307 6.4687V6.9687C13.4039 6.9687 13.4912 6.95923 13.5732 6.9386C13.6571 6.91746 13.7176 6.88856 13.7429 6.87675L13.5314 6.42371L13.3198 5.97067C13.314 5.9734 13.3121 5.97427 13.3106 5.97492C13.3097 5.97535 13.3105 5.97497 13.3124 5.97423C13.3143 5.97345 13.317 5.97246 13.3201 5.97144C13.3233 5.97042 13.3263 5.96955 13.329 5.96885C13.3348 5.96741 13.337 5.9673 13.3344 5.96759C13.3315 5.96792 13.3229 5.9687 13.307 5.9687V6.4687ZM13.5314 6.42371L13.7429 6.87675C13.7529 6.87211 13.7507 6.8732 13.7468 6.87482C13.7412 6.87718 13.7286 6.88213 13.7113 6.88686C13.6934 6.89177 13.6741 6.89549 13.6539 6.89744C13.6341 6.89935 13.6174 6.89917 13.6048 6.89833C13.5818 6.89678 13.5744 6.89307 13.5921 6.89814C13.6091 6.90303 13.6398 6.91325 13.6906 6.93343L13.8751 6.4687L14.0596 6.00397C13.9349 5.9545 13.8032 5.90939 13.6718 5.90057C13.4918 5.88848 13.3687 5.94783 13.3198 5.97067L13.5314 6.42371ZM13.8751 6.4687L13.6906 6.93343C13.6546 6.91911 13.6819 6.91684 13.7484 7.0148C13.8081 7.10279 13.8745 7.23547 13.9362 7.41104C14.0593 7.76139 14.1441 8.2264 14.1441 8.7109H14.6441H15.1441C15.1441 8.11976 15.0422 7.54216 14.8796 7.07956C14.7985 6.84866 14.6973 6.63229 14.5758 6.45321C14.461 6.28411 14.2934 6.09678 14.0596 6.00397L13.8751 6.4687ZM14.6441 8.7109H14.1441C14.1441 8.86226 14.0637 9.14604 13.8805 9.54446C13.7065 9.92271 13.4704 10.3412 13.2279 10.7367C12.9865 11.1305 12.7443 11.4928 12.5621 11.7572C12.4711 11.8891 12.3954 11.9961 12.3427 12.0698C12.3164 12.1067 12.2958 12.1351 12.2819 12.1542C12.275 12.1638 12.2698 12.1709 12.2663 12.1756C12.2646 12.178 12.2634 12.1797 12.2626 12.1808C12.2622 12.1814 12.2619 12.1818 12.2617 12.182C12.2616 12.1821 12.2616 12.1822 12.2615 12.1822C12.2615 12.1822 12.2615 12.1822 12.2615 12.1822C12.2615 12.1822 12.2616 12.1822 12.6644 12.4784C13.0672 12.7746 13.0672 12.7746 13.0672 12.7745C13.0673 12.7745 13.0673 12.7744 13.0674 12.7744C13.0675 12.7742 13.0676 12.7741 13.0677 12.7738C13.0681 12.7734 13.0685 12.7728 13.069 12.7721C13.0701 12.7706 13.0717 12.7684 13.0737 12.7656C13.0778 12.7601 13.0837 12.752 13.0913 12.7416C13.1064 12.7207 13.1284 12.6903 13.1562 12.6515C13.2117 12.5737 13.2907 12.462 13.3853 12.3248C13.5743 12.0508 13.827 11.6729 14.0805 11.2593C14.333 10.8474 14.5918 10.3912 14.789 9.96224C14.977 9.55342 15.1441 9.09735 15.1441 8.7109H14.6441ZM12.6644 12.4784L12.1825 12.6117L12.2872 12.9903L12.7691 12.857L13.251 12.7237L13.1463 12.3451L12.6644 12.4784ZM12.7691 12.857C13.0774 13.2507 13.0775 13.2506 13.0776 13.2505C13.0777 13.2505 13.0778 13.2504 13.0779 13.2503C13.0781 13.2501 13.0783 13.2499 13.0786 13.2497C13.0791 13.2493 13.0798 13.2488 13.0805 13.2482C13.0821 13.247 13.0841 13.2453 13.0867 13.2433C13.0918 13.2393 13.0988 13.2336 13.1076 13.2265C13.1253 13.2121 13.1503 13.1916 13.1817 13.165C13.2446 13.1121 13.3332 13.0351 13.4405 12.9364C13.6547 12.7392 13.945 12.4533 14.2526 12.095C14.8618 11.3857 15.5684 10.3592 15.8561 9.1521L15.3698 9.03615L14.8834 8.92019C14.6481 9.90702 14.0544 10.7909 13.494 11.4435C13.2168 11.7663 12.955 12.0242 12.7633 12.2006C12.6676 12.2887 12.5899 12.3561 12.537 12.4006C12.5106 12.4229 12.4905 12.4394 12.4775 12.45C12.471 12.4552 12.4663 12.459 12.4635 12.4613C12.4621 12.4624 12.4611 12.4631 12.4607 12.4635C12.4605 12.4636 12.4604 12.4637 12.4604 12.4637C12.4604 12.4637 12.4604 12.4637 12.4605 12.4636C12.4606 12.4636 12.4606 12.4635 12.4606 12.4635C12.4607 12.4634 12.4608 12.4634 12.7691 12.857ZM15.3698 9.03615L15.8561 9.1521C16.1586 7.88351 15.7597 6.83032 15.3075 6.11659C15.0814 5.75988 14.8382 5.48085 14.6512 5.29047C14.5573 5.19491 14.4767 5.12067 14.4179 5.06912C14.3885 5.04332 14.3645 5.02313 14.347 5.00872C14.3383 5.00151 14.3312 4.99574 14.3258 4.99143C14.3231 4.98928 14.3208 4.98749 14.319 4.98606C14.3181 4.98535 14.3173 4.98473 14.3166 4.9842C14.3163 4.98394 14.316 4.9837 14.3157 4.98348C14.3156 4.98337 14.3154 4.98323 14.3153 4.98317C14.3151 4.98303 14.315 4.9829 14.0082 5.37771C13.7014 5.77252 13.7012 5.77239 13.701 5.77227C13.701 5.77224 13.7009 5.77213 13.7008 5.77206C13.7006 5.77194 13.7005 5.77183 13.7004 5.77174C13.7001 5.77157 13.7 5.77149 13.7 5.77149C13.7 5.77149 13.7005 5.77183 13.7013 5.77252C13.703 5.77388 13.7064 5.77661 13.7113 5.78066C13.7212 5.78877 13.7372 5.80219 13.7583 5.82072C13.8006 5.85784 13.8631 5.91515 13.9377 5.99117C14.0878 6.14395 14.283 6.36817 14.4628 6.65184C14.8221 7.21886 15.104 7.99489 14.8834 8.92019L15.3698 9.03615ZM14.0082 5.37771L14.0527 4.87969L13.9315 4.86886L13.887 5.36687L13.8424 5.86488L13.9636 5.87572L14.0082 5.37771ZM13.887 4.80078H13.387V5.36687H13.887H14.387V4.80078H13.887Z" fill="#FFD018"/>
<path fill-rule="evenodd" clip-rule="evenodd" d="M9.82764 10.339C9.82764 10.339 10.0635 9.70569 10.476 9.91679C10.8884 10.1279 10.8524 10.8628 11.2277 10.6009C11.6029 10.339 11.3902 9.91679 11.9463 9.91679C12.5023 9.91679 12.4204 10.6009 12.7539 10.6009C13.0874 10.6009 13.1163 9.91679 13.4891 9.91679C13.8619 9.91679 14.24 10.339 14.24 10.339L12.0338 13.3409L9.82764 10.339Z" fill="#8FC753"/>
<path fill-rule="evenodd" clip-rule="evenodd" d="M13.9844 12.8692C14.3159 12.8694 15.0822 13.117 14.9062 13.3204C14.7308 13.5237 15.4395 13.5235 15.4395 13.5235C15.4374 13.5213 14.9869 13.0352 15.5332 13.0352C16.0807 13.0353 16.7096 13.1631 16.9248 13.1631C17.1401 13.1632 17.2339 13.392 17.0791 13.5235C16.9242 13.6552 16.5533 14.0235 16.9248 14.0235C17.2964 14.0235 17.1634 13.9863 17.2969 13.7549C17.4286 13.5279 18.3794 13.5236 18.4131 13.5235C18.3979 13.4961 18.3867 13.4655 18.3867 13.4317C18.3867 13.3282 18.4682 13.2443 18.5684 13.2442C18.6686 13.2442 18.75 13.3281 18.75 13.4317C18.75 13.5353 18.6686 13.6192 18.5684 13.6192C18.501 13.6191 18.4443 13.5799 18.4131 13.5235L18.1768 13.8438L18.4238 14.1485C18.4568 14.1015 18.5079 14.0695 18.5684 14.0694C18.6686 14.0694 18.75 14.1533 18.75 14.2569C18.7499 14.3604 18.6685 14.4444 18.5684 14.4444C18.4683 14.4443 18.3868 14.3603 18.3867 14.2569C18.3867 14.2367 18.3917 14.2175 18.3975 14.1993C18.2591 14.132 18.0195 14.0236 17.8633 14.0235H17.4297C17.5386 14.0235 18.1383 14.4194 17.957 14.5909C17.7754 14.7623 17.5289 15.017 17.2969 14.8897C17.0648 14.7622 16.9248 14.5909 16.9248 14.5909L16.7432 14.0235C16.7432 14.0235 15.6719 13.7475 15.6709 13.9385C15.6709 14.13 15.668 14.2237 15.2881 14.2237C14.908 14.2237 14.5507 14.1085 14.3154 14.1085C14.0805 14.1085 13.6427 14.2233 13.5605 14.2237C13.4794 14.2237 13.0453 14.2041 13.3428 14.0235C13.6334 13.8469 13.705 13.6632 13.708 13.6553C13.682 13.6592 12.5129 13.8311 12.0469 13.8419V13.8438C12.04 13.8438 12.0327 13.8429 12.0254 13.8428C12.0181 13.8429 12.0108 13.8438 12.0039 13.8438V13.8419C11.5394 13.8309 10.4278 13.6573 10.415 13.6553C10.4173 13.6614 10.4887 13.8459 10.7812 14.0235C11.0784 14.2039 10.6453 14.2237 10.5635 14.2237C10.4823 14.2237 10.0429 14.1085 9.80762 14.1085C9.5724 14.1086 9.21568 14.2236 8.83594 14.2237C8.45584 14.2237 8.45215 14.1301 8.45215 13.9385C8.45119 13.7499 7.4066 14.0169 7.38086 14.0235L7.19824 14.5909C7.19526 14.5945 7.05654 14.7636 6.82715 14.8897C6.59505 15.0172 6.34764 14.7623 6.16602 14.5909C5.98539 14.4193 6.58433 14.0237 6.69336 14.0235H6.26074C6.03096 14.0235 5.61719 14.252 5.61719 14.252L5.94629 13.8438L5.70898 13.5235C5.70898 13.5235 6.69364 13.5236 6.82715 13.7549C6.96058 13.9862 6.82703 14.0235 7.19824 14.0235C7.56993 14.0235 7.19871 13.655 7.04395 13.5235C6.8893 13.392 6.98323 13.1634 7.19824 13.1631C7.41353 13.1631 8.04327 13.0352 8.59082 13.0352C9.1378 13.0354 8.68359 13.5235 8.68359 13.5235C8.68359 13.5235 9.39277 13.5238 9.2168 13.3204C9.04084 13.1169 9.80829 12.8692 10.1396 12.8692C10.4489 12.8693 11.8364 12.9378 12.0254 12.9473C12.2192 12.938 13.6752 12.8692 13.9844 12.8692ZM5.43164 14.0694C5.53177 14.0695 5.61328 14.1534 5.61328 14.2569C5.61318 14.3603 5.5317 14.4443 5.43164 14.4444C5.33149 14.4444 5.2501 14.3604 5.25 14.2569C5.25 14.1533 5.33143 14.0694 5.43164 14.0694ZM5.43164 13.2442C5.53177 13.2443 5.61328 13.3282 5.61328 13.4317C5.61328 13.5352 5.53177 13.6191 5.43164 13.6192C5.33143 13.6192 5.25 13.5353 5.25 13.4317C5.25 13.3281 5.33143 13.2442 5.43164 13.2442Z" fill="white"/>
<path fill-rule="evenodd" clip-rule="evenodd" d="M12.0704 1.68359H12.2549V1.83398H12.0704V2.10742C12.2773 2.14227 12.4356 2.32708 12.4356 2.55078C12.4354 2.79909 12.2404 2.99996 12.0001 3C11.7597 3 11.5647 2.79911 11.5645 2.55078C11.5645 2.33019 11.7182 2.14687 11.921 2.1084V1.83398H11.751V1.68359H11.921V1.52246H12.0704V1.68359Z" fill="#FFD018"/>
<path fill-rule="evenodd" clip-rule="evenodd" d="M12.2148 3.3418C12.5202 3.34182 12.7062 3.49451 12.8877 3.6377C13.0692 3.78092 13.1584 3.6377 13.501 3.6377C13.8433 3.6377 13.6363 3.91866 13.8457 3.91895C14.0557 3.91895 14.499 4.14355 14.499 4.14355L14.1543 4.90723L12.0781 4.82812L10.002 4.90723L9.65723 4.14355C9.66655 4.13884 10.1017 3.91921 10.3096 3.91895C10.5195 3.91895 10.3127 3.6377 10.6553 3.6377C10.9976 3.63778 11.0871 3.78089 11.2686 3.6377C11.45 3.49453 11.6361 3.3418 11.9414 3.3418C12.0013 3.34193 12.0451 3.39937 12.0781 3.49121C12.1112 3.39932 12.1549 3.3418 12.2148 3.3418Z" fill="#E31D1C"/>
<path fill-rule="evenodd" clip-rule="evenodd" d="M11.7041 2.83588C11.6927 3.64792 11.7549 4.28818 11.8906 4.75482L11.9072 4.80951L11.8731 4.85541C11.7586 5.01035 11.4384 5.06098 10.9219 5.06342C10.7433 5.06425 10.5573 5.05845 10.3467 5.04779C10.337 5.0473 10.0716 5.03326 10.0479 5.03314C9.90456 5.03314 9.78151 4.81586 9.60647 4.38568C9.48031 4.07563 9.35897 3.70926 9.3174 3.51556C9.22314 3.07386 9.97973 2.77202 10.5596 2.86127C10.8413 2.90469 11.1754 2.8611 11.5606 2.72748L11.7061 2.6767L11.7041 2.83588ZM11.4854 2.98724C11.1288 3.09453 10.8089 3.12731 10.5274 3.08392C10.0757 3.01453 9.4843 3.25014 9.53029 3.46674C9.5686 3.64528 9.68615 3.99919 9.80764 4.29779C9.87323 4.45898 9.93629 4.59576 9.99025 4.69135C10.0176 4.7397 10.0421 4.77616 10.0615 4.79877C10.0647 4.80244 10.0669 4.80608 10.0694 4.80853C10.1428 4.81155 10.3574 4.82317 10.3574 4.82318C10.5645 4.83366 10.7468 4.83864 10.9209 4.83783C11.2872 4.83611 11.5585 4.80191 11.6621 4.74799C11.5415 4.29597 11.4835 3.70917 11.4854 2.98724Z" fill="#FFD018"/>
<path fill-rule="evenodd" clip-rule="evenodd" d="M12.3429 2.83588C12.3544 3.64792 12.2921 4.28818 12.1564 4.75482L12.1398 4.80951L12.174 4.85541C12.2884 5.01035 12.6087 5.06098 13.1252 5.06342C13.3038 5.06425 13.4898 5.05845 13.7004 5.04779C13.7101 5.0473 13.9755 5.03326 13.9992 5.03314C14.1425 5.03314 14.2655 4.81586 14.4406 4.38568C14.5668 4.07563 14.6881 3.70926 14.7297 3.51556C14.8239 3.07386 14.0673 2.77202 13.4875 2.86127C13.2057 2.90469 12.8717 2.8611 12.4865 2.72748L12.341 2.6767L12.3429 2.83588ZM12.5617 2.98724C12.9183 3.09453 13.2382 3.12731 13.5197 3.08392C13.9714 3.01453 14.5628 3.25014 14.5168 3.46674C14.4785 3.64528 14.3609 3.99919 14.2394 4.29779C14.1738 4.45898 14.1108 4.59576 14.0568 4.69135C14.0295 4.7397 14.0049 4.77616 13.9855 4.79877C13.9824 4.80244 13.9801 4.80608 13.9777 4.80853C13.9043 4.81155 13.6896 4.82317 13.6896 4.82318C13.4825 4.83366 13.3002 4.83864 13.1261 4.83783C12.7599 4.83611 12.4886 4.80191 12.3849 4.74799C12.5056 4.29597 12.5636 3.70917 12.5617 2.98724Z" fill="#FFD018"/>
<path fill-rule="evenodd" clip-rule="evenodd" d="M9.88672 2.6301C10.0051 2.48548 10.1103 2.49701 10.2432 2.6262C10.2841 2.66604 10.3025 2.67995 10.3154 2.68186C10.3299 2.68398 10.3343 2.68163 10.4326 2.62131C10.4707 2.59782 10.5126 2.55403 10.5195 2.55198C10.5434 2.54494 10.5992 2.59938 10.623 2.61936C10.6725 2.61729 10.7341 2.61643 10.8076 2.61643V2.69163C10.7502 2.69163 10.7002 2.69231 10.6582 2.69358C10.6458 2.71912 10.6269 2.72756 10.6006 2.73166C10.569 2.73655 10.522 2.73412 10.4902 2.72678C10.4664 2.72123 10.4511 2.71546 10.4443 2.70139C10.3427 2.76366 10.3426 2.76165 10.3047 2.75608C10.2714 2.75107 10.2454 2.73146 10.1934 2.68088C10.0876 2.57804 10.0296 2.57155 9.94238 2.67795C9.88565 2.74725 9.81865 2.74636 9.72266 2.70237C9.71406 2.69842 9.70574 2.69423 9.69238 2.68772C9.59845 2.64197 9.57147 2.63825 9.54688 2.67502C9.4947 2.75308 9.47306 2.77978 9.44336 2.79319C9.42717 2.80044 9.41106 2.80229 9.3916 2.80002C9.38245 2.79894 9.34653 2.79121 9.3418 2.79026C9.33335 2.78874 9.32471 2.78747 9.31641 2.78635C9.23381 2.77521 9.22754 2.78599 9.22754 2.95432V3.24338C9.22754 3.28729 9.21708 3.33041 9.19727 3.3801C9.18746 3.40465 9.18378 3.41283 9.15625 3.47092C9.11001 3.56849 9.0918 3.6227 9.0918 3.68967C9.09183 3.74814 9.09909 3.78477 9.11523 3.82541C9.12154 3.84107 9.1526 3.90909 9.16211 3.93186C9.18534 3.9875 9.2056 4.04789 9.22559 4.12522C9.25061 4.22205 9.27207 4.24999 9.3252 4.28245C9.43004 4.34652 9.47958 4.40567 9.55176 4.59788C9.60397 4.73694 9.62809 4.81211 9.62793 4.85373C9.63179 4.85864 9.63561 4.86476 9.64062 4.87131C9.68343 4.92724 9.72219 4.92727 9.77832 4.86838L9.83008 4.92112C9.74453 5.01082 9.65505 5.01008 9.58398 4.91721C9.57679 4.90781 9.57073 4.90078 9.56641 4.89573C9.5686 4.89725 9.57017 4.8957 9.57324 4.89573C9.57029 4.89432 9.5661 4.89478 9.56348 4.8928C9.55879 4.8889 9.55863 4.8888 9.55469 4.88401C9.55236 4.88088 9.5524 4.8805 9.54883 4.87229C9.54538 4.85581 9.54422 4.84944 9.55469 4.84104C9.55365 4.83551 9.55186 4.82864 9.5498 4.82053C9.53959 4.78034 9.51776 4.71575 9.4834 4.62424C9.41733 4.44838 9.37929 4.40261 9.28809 4.3469C9.21865 4.30448 9.18522 4.26063 9.15527 4.14475C9.13618 4.07088 9.11756 4.0135 9.0957 3.96116C9.08681 3.93992 9.0548 3.87113 9.04785 3.85374C9.02806 3.80392 9.01957 3.75778 9.01953 3.68967C9.01954 3.608 9.04 3.54495 9.09082 3.43772C9.11742 3.38159 9.12094 3.37416 9.12988 3.35178C9.14646 3.31026 9.15429 3.27621 9.1543 3.24338V2.95432C9.15432 2.74674 9.1891 2.69362 9.32617 2.71213C9.33541 2.71338 9.34425 2.71535 9.35352 2.71702C9.41583 2.72824 9.40822 2.72659 9.41406 2.72385C9.42585 2.71852 9.44421 2.69653 9.4873 2.63206C9.54165 2.55091 9.59822 2.55924 9.72363 2.62034C9.73631 2.62651 9.74407 2.62941 9.75195 2.63303C9.82184 2.66512 9.85674 2.6665 9.88672 2.6301ZM13.7217 2.6262C13.8544 2.49735 13.9589 2.4856 14.0771 2.6301C14.1071 2.66656 14.142 2.66513 14.2119 2.63303C14.2198 2.62941 14.2276 2.62651 14.2402 2.62034C14.3658 2.55918 14.4222 2.55166 14.4766 2.63303C14.5195 2.6972 14.538 2.71952 14.5498 2.72483C14.5551 2.72745 14.5491 2.72804 14.6104 2.71702C14.6196 2.71535 14.6285 2.71339 14.6377 2.71213C14.7748 2.69362 14.8095 2.74674 14.8096 2.95432V3.24338C14.8096 3.27621 14.8174 3.31027 14.834 3.35178C14.8429 3.37416 14.8465 3.38162 14.873 3.43772C14.9239 3.54496 14.9443 3.60798 14.9443 3.68967C14.9443 3.75782 14.9358 3.8039 14.916 3.85374C14.9091 3.87113 14.877 3.93996 14.8682 3.96116C14.8463 4.0135 14.8277 4.07087 14.8086 4.14475C14.7786 4.26064 14.7452 4.30448 14.6758 4.3469C14.5846 4.4026 14.5465 4.44839 14.4805 4.62424C14.4461 4.71576 14.4243 4.78034 14.4141 4.82053C14.412 4.82884 14.4112 4.83642 14.4102 4.84202C14.4201 4.8502 14.4184 4.85608 14.415 4.87229C14.4115 4.88052 14.4115 4.88086 14.4092 4.88401C14.4052 4.88879 14.4051 4.88887 14.4004 4.8928C14.3975 4.89499 14.3929 4.89425 14.3896 4.89573C14.3934 4.89572 14.395 4.8974 14.3975 4.89573C14.3931 4.90083 14.3872 4.90865 14.3799 4.91819C14.3088 5.01071 14.2192 5.01076 14.1338 4.92112L14.1855 4.86838C14.2417 4.92732 14.2804 4.92726 14.3232 4.87131C14.3283 4.8647 14.333 4.85867 14.3369 4.85373C14.3368 4.81208 14.3608 4.73715 14.4131 4.59788C14.4853 4.40554 14.5347 4.34657 14.6396 4.28245C14.6924 4.25012 14.7133 4.22176 14.7383 4.12522C14.7583 4.04789 14.7785 3.98751 14.8018 3.93186C14.8113 3.90911 14.8423 3.84108 14.8486 3.82541C14.8648 3.78476 14.872 3.74817 14.8721 3.68967C14.8721 3.62268 14.8539 3.5685 14.8076 3.47092C14.7801 3.41286 14.7764 3.40465 14.7666 3.3801C14.7468 3.33041 14.7373 3.28729 14.7373 3.24338V2.95432C14.7373 2.78593 14.7301 2.7752 14.6475 2.78635C14.6393 2.78745 14.6313 2.78878 14.623 2.79026C14.6231 2.79029 14.5821 2.79886 14.5723 2.80002C14.5528 2.80228 14.5367 2.80046 14.5205 2.79319C14.4908 2.77978 14.4692 2.75314 14.417 2.67502C14.3924 2.63822 14.3655 2.64193 14.2715 2.68772C14.2581 2.69423 14.2498 2.69842 14.2412 2.70237C14.1453 2.74634 14.0782 2.74724 14.0215 2.67795C13.9344 2.57172 13.877 2.57841 13.7715 2.68088C13.7194 2.73155 13.6925 2.75109 13.6592 2.75608C13.6212 2.76166 13.6212 2.76371 13.5195 2.70139C13.5127 2.71546 13.4975 2.72123 13.4736 2.72678C13.4419 2.73411 13.3948 2.73656 13.3633 2.73166C13.337 2.72755 13.318 2.71917 13.3057 2.69358C13.2637 2.69231 13.2137 2.69163 13.1562 2.69163V2.61643C13.2297 2.61643 13.2914 2.61729 13.3408 2.61936C13.3646 2.59944 13.4204 2.54506 13.4443 2.55198C13.4513 2.55402 13.4932 2.59781 13.5312 2.62131C13.6294 2.68153 13.634 2.68396 13.6484 2.68186C13.6614 2.67995 13.6806 2.6661 13.7217 2.6262Z" fill="#5E5E5E"/>
<path d="M10.3305 13.4142L10.3761 13.0419C11.182 13.1406 11.7201 13.1899 11.9912 13.1901C12.4001 13.2085 12.8875 13.1789 13.4525 13.1008L13.5039 13.4723C12.9177 13.5533 12.4081 13.5842 11.9828 13.5649C11.6998 13.5649 11.1516 13.5147 10.3305 13.4142Z" fill="#272727"/>
</g>
</g>
</svg>
