<svg width="24" height="18" viewBox="0 0 24 18" fill="none" xmlns="http://www.w3.org/2000/svg">
<mask id="mask0_395_55193" style="mask-type:luminance" maskUnits="userSpaceOnUse" x="0" y="0" width="24" height="18">
<rect width="24" height="18" fill="white"/>
</mask>
<g mask="url(#mask0_395_55193)">
<path fill-rule="evenodd" clip-rule="evenodd" d="M0 0H24V18H0V0Z" fill="#3D58DB"/>
<path d="M25 3.5V14.5H-1V3.5H25Z" fill="#C51918" stroke="#FFD018" stroke-width="2"/>
<path d="M5.36199 6.99828C5.27203 6.99828 5.1991 6.79488 5.1991 6.54397C5.1991 6.29306 5.27203 6.08966 5.36199 6.08966H18.4201C18.51 6.08966 18.583 6.29306 18.583 6.54397C18.583 6.79488 18.51 6.99828 18.4201 6.99828H5.36199Z" fill="#FFD018"/>
<path fill-rule="evenodd" clip-rule="evenodd" d="M18.0714 6.45166L18.8297 5.48431L20.1714 6.45166L18.8297 7.44444L18.0714 6.45166Z" fill="#F7FCFF"/>
<path d="M5.36199 9.99828C5.27203 9.99828 5.1991 9.79488 5.1991 9.54397C5.1991 9.29306 5.27203 9.08966 5.36199 9.08966H18.4201C18.51 9.08966 18.583 9.29306 18.583 9.54397C18.583 9.79488 18.51 9.99828 18.4201 9.99828H5.36199Z" fill="#FFD018"/>
<path fill-rule="evenodd" clip-rule="evenodd" d="M18.0714 9.45166L18.8297 8.48431L20.1714 9.45166L18.8297 10.4444L18.0714 9.45166Z" fill="#F7FCFF"/>
<path d="M3.25915 11.8666C3.13853 11.8666 3.04074 11.6356 3.04074 11.3507C3.04074 11.0658 3.13853 10.8349 3.25915 10.8349H20.7673C20.8879 10.8349 20.9857 11.0658 20.9857 11.3507C20.9857 11.6356 20.8879 11.8666 20.7673 11.8666H3.25915Z" fill="#FFD018"/>
<path fill-rule="evenodd" clip-rule="evenodd" d="M6.61298 9.03955C6.61298 9.03955 8.74399 4.55453 11.7919 4.55453C14.8399 4.55453 17.0425 9.03955 17.0425 9.03955C17.0425 9.03955 14.3529 13.4656 11.8278 13.4656C9.30259 13.4656 6.61298 9.03955 6.61298 9.03955Z" fill="#F7FCFF"/>
<mask id="mask1_395_55193" style="mask-type:luminance" maskUnits="userSpaceOnUse" x="6" y="4" width="12" height="10">
<path fill-rule="evenodd" clip-rule="evenodd" d="M6.61298 9.03955C6.61298 9.03955 8.74399 4.55453 11.7919 4.55453C14.8399 4.55453 17.0425 9.03955 17.0425 9.03955C17.0425 9.03955 14.3529 13.4656 11.8278 13.4656C9.30259 13.4656 6.61298 9.03955 6.61298 9.03955Z" fill="white"/>
</mask>
<g mask="url(#mask1_395_55193)">
<path fill-rule="evenodd" clip-rule="evenodd" d="M11.9432 4.25961C11.9432 4.25961 11.2477 5.10426 11.4795 5.9097C11.7113 6.71514 12.2515 6.63007 12.2515 7.33939C12.2515 8.04871 12.0019 8.77212 12.2515 8.77212C12.501 8.77212 12.5874 9.2616 12.3594 9.59345C12.1314 9.92529 11.9297 9.93554 11.9432 10.4756C11.9567 11.0157 13.1372 11.5459 12.5653 11.5459C11.9934 11.5459 11.2397 12.1009 11.4795 12.1009C11.7193 12.1009 12.974 12.5334 12.974 13.101C12.974 13.6685 12.974 14.1227 12.974 14.1227H6.42841V4.25961H11.9432Z" fill="#272727"/>
<path fill-rule="evenodd" clip-rule="evenodd" d="M8.86462 10.6737H8.53845V9.34659H8.86462V10.6737ZM9.34509 10.6737H9.01892V9.34659H9.34509V10.6737ZM9.82556 10.6737H9.49939V9.34659H9.82556V10.6737ZM10.306 10.6737H9.97986V9.34659H10.306V10.6737ZM10.7865 10.6737H10.4613V9.34659H10.7865V10.6737ZM11.267 10.6737H10.9408V9.34659H11.267V10.6737ZM8.86462 8.76944H8.53845V7.44229H8.86462V8.76944ZM9.34509 8.76944H9.01892V7.44229H9.34509V8.76944ZM9.82556 8.76944H9.49939V7.44229H9.82556V8.76944ZM10.306 8.76944H9.97986V7.44229H10.306V8.76944ZM10.7865 8.76944H10.4603V7.44229H10.7865V8.76944ZM11.267 8.76944H10.9408V7.44229H11.267V8.76944Z" fill="#F7FCFF"/>
<path fill-rule="evenodd" clip-rule="evenodd" d="M12.7334 10.6737H12.4072V9.34659H12.7334V10.6737ZM13.2139 10.6737H12.8877V9.34659H13.2139V10.6737ZM13.6943 10.6737H13.3682V9.34659H13.6943V10.6737ZM14.1748 10.6737H13.8486V9.34659H14.1748V10.6737ZM14.6553 10.6737H14.3301V9.34659H14.6553V10.6737ZM15.1357 10.6737H14.8096V9.34659H15.1357V10.6737ZM12.7334 8.76944H12.4072V7.44229H12.7334V8.76944ZM13.2139 8.76944H12.8877V7.44229H13.2139V8.76944ZM13.6943 8.76944H13.3682V7.44229H13.6943V8.76944ZM14.1748 8.76944H13.8486V7.44229H14.1748V8.76944ZM14.6553 8.76944H14.3291V7.44229H14.6553V8.76944ZM15.1357 8.76944H14.8096V7.44229H15.1357V8.76944Z" fill="#272727"/>
<path fill-rule="evenodd" clip-rule="evenodd" d="M9.92349 5.30343C9.46711 5.44483 9.25827 6.64169 9.30928 6.93099C9.36029 7.22028 9.51513 6.89469 9.51513 6.89469C9.51513 6.89469 9.83092 7.58101 9.86348 7.76566C9.89604 7.95031 10.0623 7.48654 10.0623 7.48654C10.0623 7.48654 10.6101 7.86388 10.6842 8.28434C10.7583 8.7048 10.8699 7.8032 10.8699 7.8032L10.9939 7.78132L10.9154 7.33612L11.1521 7.53845L11.0791 7.12443C11.0791 7.12443 11.2573 7.35731 11.2121 7.10098C11.1669 6.84464 11.1416 6.70153 11.1416 6.70153L11.0798 6.35116L11.3141 6.30986C11.3141 6.30986 10.3799 5.16204 9.92349 5.30343Z" fill="#3D58DB"/>
</g>
<path fill-rule="evenodd" clip-rule="evenodd" d="M19.5662 10.2719C19.0922 10.3319 18.6787 11.4743 18.6787 11.7681C18.6787 12.0618 18.8878 11.7681 18.8878 11.7681C18.8878 11.7681 19.0796 12.4988 19.0796 12.6863C19.0796 12.8738 19.3239 12.4459 19.3239 12.4459C19.3239 12.4459 19.7978 12.9127 19.7978 13.3396C19.7978 13.7666 20.0642 12.898 20.0642 12.898H20.1901V12.4459L20.388 12.6863V12.2659C20.388 12.2659 20.5231 12.5262 20.5231 12.2659C20.5231 12.0056 20.5231 11.8603 20.5231 11.8603V11.5045H20.7609C20.7609 11.5045 20.0402 10.2119 19.5662 10.2719Z" fill="#3D58DB"/>
<path fill-rule="evenodd" clip-rule="evenodd" d="M4.19453 10.0992C4.66853 10.1592 5.08203 11.3016 5.08203 11.5954C5.08203 11.8891 4.873 11.5954 4.873 11.5954C4.873 11.5954 4.68119 12.3261 4.68119 12.5136C4.68119 12.7011 4.43689 12.2732 4.43689 12.2732C4.43689 12.2732 3.963 12.74 3.963 13.1669C3.963 13.5939 3.69662 12.7253 3.69662 12.7253H3.57063V12.2732L3.37274 12.5136V12.0932C3.37274 12.0932 3.23768 12.3535 3.23768 12.0932C3.23768 11.8329 3.23768 11.6876 3.23768 11.6876V11.3318H2.99986C2.99986 11.3318 3.72054 10.0392 4.19453 10.0992Z" fill="#3D58DB"/>
</g>
</svg>
