<svg width="24" height="18" viewBox="0 0 24 18" fill="none" xmlns="http://www.w3.org/2000/svg">
<mask id="mask0_395_53903" style="mask-type:luminance" maskUnits="userSpaceOnUse" x="0" y="0" width="24" height="18">
<rect width="24" height="18" fill="white"/>
</mask>
<g mask="url(#mask0_395_53903)">
<path fill-rule="evenodd" clip-rule="evenodd" d="M0 0V18H24V0H0Z" fill="#2E42A5"/>
<mask id="mask1_395_53903" style="mask-type:luminance" maskUnits="userSpaceOnUse" x="0" y="0" width="24" height="18">
<path fill-rule="evenodd" clip-rule="evenodd" d="M0 0V18H24V0H0Z" fill="white"/>
</mask>
<g mask="url(#mask1_395_53903)">
<path fill-rule="evenodd" clip-rule="evenodd" d="M15.785 7.52454C15.785 7.52454 16.4496 16.473 19.4465 16.473C22.4434 16.473 23.1805 7.52454 23.1805 7.52454H15.785Z" fill="#FECA00" stroke="#F7FCFF" stroke-width="0.5"/>
<path fill-rule="evenodd" clip-rule="evenodd" d="M21.5156 7.52148L21.4238 8.08691C21.4346 8.08341 21.4454 8.08041 21.4561 8.07715L21.8203 7.63965L21.9756 7.72266L21.7842 8.01172C21.9722 8.00247 22.106 8.05708 22.1816 8.17383L22.7031 7.84277L22.8135 7.9668L22.2412 8.33105C22.249 8.3721 22.2539 8.41693 22.2539 8.46582V8.5498L23.042 8.37695L23.0996 8.52344L22.2539 8.82227V8.9248L23.0557 8.86035L23.0801 9.01465L22.2539 9.13477V9.31152L23.082 9.44824L23.0488 9.60059L22.2539 9.48145V11.2061H22.1318V9.46289L21.5996 9.38281C21.5398 9.80479 21.472 10.3371 21.4814 10.5293C21.4984 10.8659 21.9317 10.8606 21.8047 10.9854C21.6771 11.1103 21.3582 11.2304 21.0391 11.2305C20.7199 11.2305 20.4052 11.1103 20.3369 10.9854C20.2691 10.8611 20.6325 11.4924 20.6562 10.5293C20.667 10.0936 20.5999 9.70055 20.5264 9.40039L20.1143 9.46289V11.2061H19.9932V9.48145L19.1973 9.60059L19.1641 9.44824L19.9932 9.31055V9.13477L19.166 9.01465L19.1904 8.86035L19.9932 8.9248V8.82324L19.1465 8.52344L19.2051 8.37695L19.9932 8.5498V8.46582C19.9932 8.41666 19.9961 8.37131 20.0039 8.33008L19.4336 7.9668L19.543 7.84277L20.0645 8.1748C20.1398 8.05773 20.2732 8.00279 20.4609 8.01172L20.2715 7.72266L20.4258 7.63965L20.7891 8.07715C20.7997 8.0804 20.8105 8.08341 20.8213 8.08691L20.7305 7.52148L20.9121 7.5L21.0303 8.23145C21.0332 8.23129 21.0362 8.23047 21.0391 8.23047C21.0903 8.23055 21.1467 8.25746 21.2061 8.29688L21.335 7.5L21.5156 7.52148ZM20.1143 9.29102L20.4824 9.23047C20.48 9.22185 20.4771 9.21347 20.4746 9.20508L20.1143 9.15234V9.29102ZM21.6846 9.21777L22.1318 9.29102V9.15234L21.6846 9.21777ZM20.1143 8.93457L20.3672 8.95605L20.1143 8.86621V8.93457ZM21.8789 8.95605L22.1318 8.93457V8.86621L21.8789 8.95605ZM21.7109 8.66895L22.1318 8.57617V8.46582C22.1318 8.44388 22.1277 8.42321 22.126 8.40332L21.7109 8.66895ZM20.1143 8.46582V8.57617L20.4697 8.6543C20.4749 8.64856 20.48 8.64262 20.4854 8.63672L20.1191 8.40332C20.1175 8.42317 20.1143 8.44392 20.1143 8.46582ZM22.082 8.2373C22.0204 8.13129 21.9004 8.09371 21.7119 8.12207L21.4521 8.51758C21.4758 8.54364 21.4964 8.57141 21.5176 8.59668L22.082 8.2373ZM20.5332 8.12207C20.3452 8.09406 20.2245 8.13108 20.1631 8.2373L20.5986 8.51465C20.6368 8.47663 20.6779 8.43949 20.7188 8.4043L20.5332 8.12207Z" fill="#CF6900"/>
<path fill-rule="evenodd" clip-rule="evenodd" d="M18.6584 11.8818C18.6584 11.8818 17.6731 13.5319 17.6731 14.5321C17.6731 14.5321 18.3445 15.0646 19.4992 15.0646C20.654 15.0646 21.2482 14.5321 21.2482 14.5321C20.9231 13.3465 20.3697 11.8818 20.3697 11.8818H18.6584Z" fill="#00A727"/>
<path fill-rule="evenodd" clip-rule="evenodd" d="M18.7065 11.4264C18.7065 10.9719 19.0749 10.6036 19.5293 10.6036C19.9837 10.6036 20.3521 10.9719 20.3521 11.4264V11.9892H18.7065V11.4264Z" fill="#E31D1C"/>
<path fill-rule="evenodd" clip-rule="evenodd" d="M16.1394 9.62513C16.1394 9.62513 17.4398 9.89303 17.4398 10.3155C17.4398 10.7379 17.9634 10.8902 18.0921 10.776C18.2207 10.6618 19.1269 10.5819 19.1269 10.0313C19.1269 9.48069 19.2025 9.33079 18.9824 8.98113C18.7623 8.63147 18.3033 7.44952 18.1977 7.92307C18.0921 8.39662 17.9331 8.74744 17.6394 8.46516C17.3457 8.18287 16.9685 7.58526 16.8361 7.92307C16.7037 8.26088 17.2557 8.59996 16.8361 8.59996C16.4165 8.59996 16.7123 8.62211 16.7123 8.90813C16.7123 9.19416 16.762 9.46377 16.4507 9.46377C16.1394 9.46377 16.1394 9.62513 16.1394 9.62513Z" fill="#FF927F"/>
<rect width="13.5" height="10.5" fill="#2B409A"/>
<mask id="mask2_395_53903" style="mask-type:luminance" maskUnits="userSpaceOnUse" x="0" y="0" width="14" height="11">
<rect width="13.5" height="10.5" fill="white"/>
</mask>
<g mask="url(#mask2_395_53903)">
<path d="M-1.50317 9.74983L1.46754 11.0527L13.5674 1.41653L15.1344 -0.519623L11.9577 -0.955091L7.02241 3.19743L3.05003 5.99525L-1.50317 9.74983Z" fill="#F7FCFF"/>
<path d="M-1.0965 10.6627L0.416945 11.4188L14.5717 -0.699524H12.4467L-1.0965 10.6627Z" fill="#F50100"/>
<path d="M15.0032 9.74983L12.0325 11.0527L-0.0674362 1.41653L-1.63442 -0.519623L1.54233 -0.955091L6.47759 3.19743L10.45 5.99525L15.0032 9.74983Z" fill="#F7FCFF"/>
<path d="M14.9018 10.405L13.3884 11.1611L7.36111 5.9726L5.57416 5.39291L-1.78521 -0.512991H0.339834L7.69507 5.25273L9.64879 5.94784L14.9018 10.405Z" fill="#F50100"/>
<mask id="path-15-outside-1_395_53903" maskUnits="userSpaceOnUse" x="-2" y="-2" width="17" height="14" fill="black">
<rect fill="white" x="-2" y="-2" width="17" height="14"/>
<path fill-rule="evenodd" clip-rule="evenodd" d="M7.48838 0H5.98838V4.5H0V6H5.98838V10.5H7.48838V6H13.5V4.5H7.48838V0Z"/>
</mask>
<path fill-rule="evenodd" clip-rule="evenodd" d="M7.48838 0H5.98838V4.5H0V6H5.98838V10.5H7.48838V6H13.5V4.5H7.48838V0Z" fill="#F50100"/>
<path d="M5.98838 0V-1.5H4.48838V0H5.98838ZM7.48838 0H8.98838V-1.5H7.48838V0ZM5.98838 4.5V6H7.48838V4.5H5.98838ZM0 4.5V3H-1.5V4.5H0ZM0 6H-1.5V7.5H0V6ZM5.98838 6H7.48838V4.5H5.98838V6ZM5.98838 10.5H4.48838V12H5.98838V10.5ZM7.48838 10.5V12H8.98838V10.5H7.48838ZM7.48838 6V4.5H5.98838V6H7.48838ZM13.5 6V7.5H15V6H13.5ZM13.5 4.5H15V3H13.5V4.5ZM7.48838 4.5H5.98838V6H7.48838V4.5ZM5.98838 0V1.5H7.48838V0V-1.5H5.98838V0ZM5.98838 4.5H7.48838V0H5.98838H4.48838V4.5H5.98838ZM0 4.5V6H5.98838V4.5V3H0V4.5ZM0 6H1.5V4.5H0H-1.5V6H0ZM5.98838 6V4.5H0V6V7.5H5.98838V6ZM5.98838 10.5H7.48838V6H5.98838H4.48838V10.5H5.98838ZM7.48838 10.5V9H5.98838V10.5V12H7.48838V10.5ZM7.48838 6H5.98838V10.5H7.48838H8.98838V6H7.48838ZM13.5 6V4.5H7.48838V6V7.5H13.5V6ZM13.5 4.5H12V6H13.5H15V4.5H13.5ZM7.48838 4.5V6H13.5V4.5V3H7.48838V4.5ZM7.48838 0H5.98838V4.5H7.48838H8.98838V0H7.48838Z" fill="#F7FCFF" mask="url(#path-15-outside-1_395_53903)"/>
</g>
</g>
</g>
</svg>
