<svg width="24" height="18" viewBox="0 0 24 18" fill="none" xmlns="http://www.w3.org/2000/svg">
<mask id="mask0_395_51070" style="mask-type:luminance" maskUnits="userSpaceOnUse" x="0" y="0" width="24" height="18">
<rect width="24" height="18" fill="white"/>
</mask>
<g mask="url(#mask0_395_51070)">
<path fill-rule="evenodd" clip-rule="evenodd" d="M0 0H24V18H0V0Z" fill="#F7FCFF"/>
<path fill-rule="evenodd" clip-rule="evenodd" d="M0 0V6H24V0H0Z" fill="#C51918"/>
<path fill-rule="evenodd" clip-rule="evenodd" d="M0 12V18H24V12H0Z" fill="#409100"/>
<path fill-rule="evenodd" clip-rule="evenodd" d="M11.9971 11.7637C12.9888 11.7637 13.8678 11.8662 14.6328 12.0732L14.4941 12.5654C13.7771 12.3714 12.9444 12.2744 11.9971 12.2744C11.05 12.2744 10.2179 12.3715 9.50098 12.5654L9.3623 12.0732C10.1272 11.8663 11.0055 11.7637 11.9971 11.7637ZM13.6357 11.1191C13.6414 11.1251 13.7612 11.2541 13.752 11.459L14.0557 11.584C14.0557 11.584 13.8052 11.879 13.5 11.8271C13.1951 11.7751 13.1182 11.4238 13.1182 11.4238H13.3936C13.3997 11.4126 13.5356 11.1652 13.6357 11.1191ZM10.3125 11.0684C10.4124 11.1143 10.5479 11.3607 10.5547 11.373H10.8301C10.8301 11.373 10.7533 11.7254 10.4482 11.7773C10.143 11.8292 9.89258 11.5332 9.89258 11.5332L10.1963 11.4082C10.187 11.2027 10.3077 11.0734 10.3125 11.0684ZM11.9238 10.9629C12.0187 11.0239 12.1211 11.2988 12.1211 11.2988L12.3936 11.3369C12.3902 11.3457 12.2643 11.6739 11.959 11.6826C11.6527 11.6913 11.4475 11.3717 11.4434 11.3652L11.7607 11.2832C11.78 11.0789 11.9174 10.968 11.9238 10.9629ZM8.39453 9.54492L8.93457 9.55566L8.50391 9.88672L8.66016 10.4121L8.2168 10.0986L7.77344 10.4121L7.93066 9.88672L7.5 9.55566L8.04004 9.54492L8.2168 9.02637L8.39453 9.54492ZM15.9385 9.54492L16.4785 9.55566L16.0479 9.88672L16.2041 10.4121L15.7607 10.0986L15.3174 10.4121L15.4736 9.88672L15.043 9.55566L15.583 9.54492L15.7607 9.02637L15.9385 9.54492ZM8.86328 7.75684L9.40332 7.76758L8.97266 8.09863L9.12891 8.62402L8.68555 8.31055L8.24219 8.62402L8.39844 8.09863L7.96777 7.76758L8.50781 7.75684L8.68555 7.23828L8.86328 7.75684ZM15.3662 7.75684L15.9062 7.76758L15.4756 8.09863L15.6318 8.62402L15.1885 8.31055L14.7451 8.62402L14.9014 8.09863L14.4707 7.76758L15.0107 7.75684L15.1885 7.23828L15.3662 7.75684ZM10.3193 6.37891L10.8594 6.38965L10.4287 6.7207L10.585 7.24609L10.1416 6.93262L9.69824 7.24609L9.85547 6.7207L9.4248 6.38965L9.96484 6.37891L10.1416 5.86035L10.3193 6.37891ZM13.9316 6.37891L14.4717 6.38965L14.041 6.7207L14.1973 7.24609L13.7539 6.93262L13.3105 7.24609L13.4668 6.7207L13.0361 6.38965L13.5762 6.37891L13.7539 5.86035L13.9316 6.37891ZM12.1924 5.91895L12.7324 5.92969L12.3018 6.26074L12.458 6.78613L12.0146 6.47266L11.5713 6.78613L11.7285 6.26074L11.2979 5.92969L11.8379 5.91895L12.0146 5.40039L12.1924 5.91895Z" fill="#FFBB00"/>
<path fill-rule="evenodd" clip-rule="evenodd" d="M12.0088 7.77637C12.8563 7.83385 12.7646 8.77051 12.7646 8.77051C12.7646 8.77051 12.6983 8.60449 12.4629 8.60449C12.2277 8.60478 12.0918 8.83887 12.0918 8.83887V9.74023C12.0921 10.0415 12.3834 10.3554 12.9092 10.6123C13.4288 10.8662 13.8187 10.3677 13.8281 10.3555C13.8281 10.3555 14.0382 10.8479 14.5693 10.9814C15.1006 11.115 15.4434 10.8086 15.4434 10.8086C15.4434 10.8086 15.0964 11.6421 14.4385 11.4336C13.7903 11.2281 13.7453 10.6998 13.7441 10.6846C13.7344 10.7023 13.4534 11.2028 12.9092 11.1416C12.3553 11.0792 12.0039 10.2744 12.0039 10.2744L11.9863 9.20215L11.9688 10.2744C11.9688 10.2744 11.6173 11.0791 11.0635 11.1416C10.5149 11.2033 10.2329 10.6944 10.2275 10.6846C10.2263 10.701 10.1808 11.2284 9.5332 11.4336C8.87557 11.6416 8.5293 10.8086 8.5293 10.8086C8.5293 10.8086 8.87207 11.115 9.40332 10.9814C9.92714 10.8496 10.1379 10.3685 10.1436 10.3555C10.1436 10.3555 10.5374 10.8693 11.0635 10.6123C11.5891 10.3554 11.8796 10.0415 11.8799 9.74023V8.83887C11.8799 8.83887 11.7442 8.60449 11.5088 8.60449C11.2736 8.60466 11.208 8.77051 11.208 8.77051C11.208 8.77051 11.1162 7.83438 11.9629 7.77637V7.77246C11.9705 7.77268 11.9779 7.77406 11.9854 7.77441C11.9934 7.77402 12.0016 7.7727 12.0098 7.77246L12.0088 7.77637ZM11.9609 8.02734C11.5785 8.02747 11.4945 8.3445 11.4912 8.35742C11.8294 8.35742 11.9568 8.50297 11.9609 8.50781C11.9609 8.50781 12.2163 8.35742 12.4727 8.35742C12.4686 8.34656 12.3449 8.02734 11.9609 8.02734Z" fill="#FFBB00"/>
</g>
</svg>
