<svg width="24" height="18" viewBox="0 0 24 18" fill="none" xmlns="http://www.w3.org/2000/svg">
<mask id="mask0_395_51168" style="mask-type:luminance" maskUnits="userSpaceOnUse" x="0" y="0" width="24" height="18">
<rect width="24" height="18" fill="white"/>
</mask>
<g mask="url(#mask0_395_51168)">
<path fill-rule="evenodd" clip-rule="evenodd" d="M0 0V18H24V0H0Z" fill="#29C470"/>
<mask id="mask1_395_51168" style="mask-type:luminance" maskUnits="userSpaceOnUse" x="0" y="0" width="24" height="18">
<path fill-rule="evenodd" clip-rule="evenodd" d="M0 0V18H24V0H0Z" fill="white"/>
</mask>
<g mask="url(#mask1_395_51168)">
<rect x="1.5" y="-0.242188" width="7.5" height="19.7422" fill="#C51918"/>
<mask id="mask2_395_51168" style="mask-type:luminance" maskUnits="userSpaceOnUse" x="1" y="-1" width="8" height="21">
<rect x="1.5" y="-0.242188" width="7.5" height="19.7422" fill="white"/>
</mask>
<g mask="url(#mask2_395_51168)">
<path fill-rule="evenodd" clip-rule="evenodd" d="M1.95508 12.7744L1.86914 12.8691L2.07129 13.0742L1.97852 13.209L1.91602 13.166L2.03418 13.3643L2.2334 13.2109L2.48633 13.6357L2.23242 14.0801L2.08496 13.9473V13.8516L1.93652 14.082L2 14.1924L1.94629 14.3555V14.4746L1.53711 15L1.5 14.9639L1.89746 14.4531V14.3506L1.89844 14.3408L1.94531 14.1992L1.91699 14.1494L1.68262 14.3838L2.13379 13.6807V13.9209L2.2207 13.999L2.42773 13.6367L2.21973 13.2881L2.07031 13.4033L2.13086 13.5254L2.08887 13.5547L1.75098 12.9883L1.9668 13.1357L2.00391 13.0811L1.79785 12.8701L1.88867 12.7695L1.58691 12.3291L1.62598 12.2949L1.95508 12.7744ZM8.91309 12.3291L8.61133 12.7695L8.70215 12.8701L8.49609 13.0811L8.5332 13.1357L8.74902 12.9883L8.41113 13.5547L8.36914 13.5254L8.42969 13.4033L8.28027 13.2881L8.07227 13.6367L8.2793 13.999L8.36621 13.9209V13.6807L8.81738 14.3838L8.58301 14.1494L8.55469 14.1992L8.60156 14.3408L8.60254 14.3506V14.4531L9 14.9639L8.96289 15L8.55371 14.4746V14.3555L8.5 14.1924L8.56348 14.082L8.41504 13.8516V13.9473L8.26758 14.0801L8.01367 13.6357L8.2666 13.2109L8.46582 13.3643L8.58398 13.166L8.52148 13.209L8.42871 13.0742L8.63086 12.8691L8.54492 12.7744L8.87402 12.2949L8.91309 12.3291ZM1.95508 9.67188L1.86914 9.7666L2.07129 9.97168L1.97852 10.1064L1.91602 10.0635L2.03418 10.2617L2.2334 10.1084L2.48633 10.5332L2.23242 10.9775L2.08496 10.8447V10.749L1.93652 10.9795L2 11.0898L1.94629 11.2529V11.3721L1.53711 11.8975L1.5 11.8613L1.89746 11.3506V11.248L1.89844 11.2383L1.94531 11.0967L1.91699 11.0469L1.68262 11.2812L2.13379 10.5781V10.8184L2.2207 10.8965L2.42773 10.5342L2.21973 10.1855L2.07031 10.3008L2.13086 10.4229L2.08887 10.4521L1.75098 9.88574L1.9668 10.0332L2.00391 9.97852L1.79785 9.76758L1.88867 9.66699L1.58691 9.22656L1.62598 9.19238L1.95508 9.67188ZM8.91309 9.22656L8.61133 9.66699L8.70215 9.76758L8.49609 9.97852L8.5332 10.0332L8.74902 9.88574L8.41113 10.4521L8.36914 10.4229L8.42969 10.3008L8.28027 10.1855L8.07227 10.5342L8.2793 10.8965L8.36621 10.8184V10.5781L8.81738 11.2812L8.58301 11.0469L8.55469 11.0967L8.60156 11.2383L8.60254 11.248V11.3506L9 11.8613L8.96289 11.8975L8.55371 11.3721V11.2529L8.5 11.0898L8.56348 10.9795L8.41504 10.749V10.8447L8.26758 10.9775L8.01367 10.5332L8.2666 10.1084L8.46582 10.2617L8.58398 10.0635L8.52148 10.1064L8.42871 9.97168L8.63086 9.7666L8.54492 9.67188L8.87402 9.19238L8.91309 9.22656ZM1.95508 6.18164L1.86914 6.27539L2.07129 6.48145L1.97852 6.61621L1.91602 6.57324L2.03418 6.77051L2.2334 6.61816L2.48633 7.04297L2.23242 7.4873L2.08496 7.35449V7.25879L1.93652 7.48926L2 7.59961L1.94629 7.7627V7.88086L1.53711 8.40723L1.5 8.37109L1.89746 7.86035V7.75781L1.89844 7.74805L1.94531 7.60645L1.91699 7.55664L1.68262 7.79102L2.13379 7.08691V7.32812L2.2207 7.40625L2.42773 7.04395L2.21973 6.69531L2.07031 6.81055L2.13086 6.93262L2.08887 6.96191L1.75098 6.39551L1.9668 6.54297L2.00391 6.4873L1.79785 6.27734L1.88867 6.17676L1.58691 5.73535L1.62598 5.70215L1.95508 6.18164ZM8.91309 5.73535L8.61133 6.17676L8.70215 6.27734L8.49609 6.4873L8.5332 6.54297L8.74902 6.39551L8.41113 6.96191L8.36914 6.93262L8.42969 6.81055L8.28027 6.69531L8.07227 7.04395L8.2793 7.40625L8.36621 7.32812V7.08691L8.81738 7.79102L8.58301 7.55664L8.55469 7.60645L8.60156 7.74805L8.60254 7.75781V7.86035L9 8.37109L8.96289 8.40723L8.55371 7.88086V7.7627L8.5 7.59961L8.56348 7.48926L8.41504 7.25879V7.35449L8.26758 7.4873L8.01367 7.04297L8.2666 6.61816L8.46582 6.77051L8.58398 6.57324L8.52148 6.61621L8.42871 6.48145L8.63086 6.27539L8.54492 6.18164L8.87402 5.70215L8.91309 5.73535ZM1.95508 2.74707L1.86914 2.8418L2.07129 3.04688L1.97852 3.18164L1.91602 3.13867L2.03418 3.33691L2.2334 3.18359L2.48633 3.6084L2.23242 4.05273L2.08496 3.91992V3.82422L1.93652 4.05469L2 4.16504L1.94629 4.32812V4.44727L1.53711 4.97266L1.5 4.93652L1.89746 4.42578V4.32324L1.89844 4.31348L1.94531 4.17188L1.91699 4.12207L1.68262 4.35645L2.13379 3.65332V3.89355L2.2207 3.97168L2.42773 3.60938L2.21973 3.26074L2.07031 3.37598L2.13086 3.49805L2.08887 3.52734L1.75098 2.96094L1.9668 3.1084L2.00391 3.05371L1.79785 2.84277L1.88867 2.74219L1.58691 2.30176L1.62598 2.26758L1.95508 2.74707ZM8.91309 2.30176L8.61133 2.74219L8.70215 2.84277L8.49609 3.05371L8.5332 3.1084L8.74902 2.96094L8.41113 3.52734L8.36914 3.49805L8.42969 3.37598L8.28027 3.26074L8.07227 3.60938L8.2793 3.97168L8.36621 3.89355V3.65332L8.81738 4.35645L8.58301 4.12207L8.55469 4.17188L8.60156 4.31348L8.60254 4.32324V4.42578L9 4.93652L8.96289 4.97266L8.55371 4.44727V4.32812L8.5 4.16504L8.56348 4.05469L8.41504 3.82422V3.91992L8.26758 4.05273L8.01367 3.6084L8.2666 3.18359L8.46582 3.33691L8.58398 3.13867L8.52148 3.18164L8.42871 3.04688L8.63086 2.8418L8.54492 2.74707L8.87402 2.26758L8.91309 2.30176ZM1.95508 -1.02051L1.86914 -0.925781L2.07129 -0.720703L1.97852 -0.585938L1.91602 -0.628906L2.03418 -0.430664L2.2334 -0.583984L2.48633 -0.15918L2.23242 0.285156L2.08496 0.152344V0.0566406L1.93652 0.287109L2 0.397461L1.94629 0.560547V0.679688L1.53711 1.20508L1.5 1.16895L1.89746 0.658203V0.555664L1.89844 0.545898L1.94531 0.404297L1.91699 0.354492L1.68262 0.588867L2.13379 -0.114258V0.125977L2.2207 0.204102L2.42773 -0.158203L2.21973 -0.506836L2.07031 -0.391602L2.13086 -0.269531L2.08887 -0.240234L1.75098 -0.806641L1.9668 -0.65918L2.00391 -0.713867L1.79785 -0.924805L1.88867 -1.02539L1.58691 -1.46582L1.62598 -1.5L1.95508 -1.02051ZM8.91309 -1.46582L8.61133 -1.02539L8.70215 -0.924805L8.49609 -0.713867L8.5332 -0.65918L8.74902 -0.806641L8.41113 -0.240234L8.36914 -0.269531L8.42969 -0.391602L8.28027 -0.506836L8.07227 -0.158203L8.2793 0.204102L8.36621 0.125977V-0.114258L8.81738 0.588867L8.58301 0.354492L8.55469 0.404297L8.60156 0.545898L8.60254 0.555664V0.658203L9 1.16895L8.96289 1.20508L8.55371 0.679688V0.560547L8.5 0.397461L8.56348 0.287109L8.41504 0.0566406V0.152344L8.26758 0.285156L8.01367 -0.15918L8.2666 -0.583984L8.46582 -0.430664L8.58398 -0.628906L8.52148 -0.585938L8.42871 -0.720703L8.63086 -0.925781L8.54492 -1.02051L8.87402 -1.5L8.91309 -1.46582Z" fill="#E8AA00"/>
<path fill-rule="evenodd" clip-rule="evenodd" d="M5.47981 10.9231H6.64494V11.1965H6.91042V11.4153H7.22901V12.1262H6.91042V12.345H6.64494V12.5637H5.5109L5.19716 12.8425L4.88192 12.5637H3.83078V12.345H3.56529V12.1262H3.2998V11.4153H3.56529V11.1965H3.83078V10.9231H4.91316L5.19716 10.6719L5.47981 10.9231Z" fill="#389F5D"/>
<path d="M6.64494 10.9231H6.89494V10.6731H6.64494V10.9231ZM5.47981 10.9231L5.31374 11.1099L5.38477 11.1731H5.47981V10.9231ZM6.64494 11.1965H6.39494V11.4465H6.64494V11.1965ZM6.91042 11.1965H7.16042V10.9465H6.91042V11.1965ZM6.91042 11.4153H6.66042V11.6653H6.91042V11.4153ZM7.22901 11.4153H7.47901V11.1653H7.22901V11.4153ZM7.22901 12.1262V12.3762H7.47901V12.1262H7.22901ZM6.91042 12.1262V11.8762H6.66042V12.1262H6.91042ZM6.91042 12.345V12.595H7.16042V12.345H6.91042ZM6.64494 12.345V12.095H6.39494V12.345H6.64494ZM6.64494 12.5637V12.8137H6.89494V12.5637H6.64494ZM5.5109 12.5637V12.3137H5.41586L5.34483 12.3768L5.5109 12.5637ZM5.19716 12.8425L5.03153 13.0298L5.19755 13.1766L5.36323 13.0294L5.19716 12.8425ZM4.88192 12.5637L5.04756 12.3764L4.97662 12.3137H4.88192V12.5637ZM3.83078 12.5637H3.58078V12.8137H3.83078V12.5637ZM3.83078 12.345H4.08078V12.095H3.83078V12.345ZM3.56529 12.345H3.31529V12.595H3.56529V12.345ZM3.56529 12.1262H3.81529V11.8762H3.56529V12.1262ZM3.2998 12.1262H3.0498V12.3762H3.2998V12.1262ZM3.2998 11.4153V11.1653H3.0498V11.4153H3.2998ZM3.56529 11.4153V11.6653H3.81529V11.4153H3.56529ZM3.56529 11.1965V10.9465H3.31529V11.1965H3.56529ZM3.83078 11.1965V11.4465H4.08078V11.1965H3.83078ZM3.83078 10.9231V10.6731H3.58078V10.9231H3.83078ZM4.91316 10.9231V11.1731H5.00786L5.07879 11.1103L4.91316 10.9231ZM5.19716 10.6719L5.36323 10.485L5.19755 10.3378L5.03153 10.4846L5.19716 10.6719ZM6.64494 10.9231V10.6731H5.47981V10.9231V11.1731H6.64494V10.9231ZM6.64494 11.1965H6.89494V10.9231H6.64494H6.39494V11.1965H6.64494ZM6.91042 11.1965V10.9465H6.64494V11.1965V11.4465H6.91042V11.1965ZM6.91042 11.4153H7.16042V11.1965H6.91042H6.66042V11.4153H6.91042ZM7.22901 11.4153V11.1653H6.91042V11.4153V11.6653H7.22901V11.4153ZM7.22901 12.1262H7.47901V11.4153H7.22901H6.97901V12.1262H7.22901ZM6.91042 12.1262V12.3762H7.22901V12.1262V11.8762H6.91042V12.1262ZM6.91042 12.345H7.16042V12.1262H6.91042H6.66042V12.345H6.91042ZM6.64494 12.345V12.595H6.91042V12.345V12.095H6.64494V12.345ZM6.64494 12.5637H6.89494V12.345H6.64494H6.39494V12.5637H6.64494ZM5.5109 12.5637V12.8137H6.64494V12.5637V12.3137H5.5109V12.5637ZM5.19716 12.8425L5.36323 13.0294L5.67697 12.7506L5.5109 12.5637L5.34483 12.3768L5.03108 12.6557L5.19716 12.8425ZM4.88192 12.5637L4.71629 12.751L5.03153 13.0298L5.19716 12.8425L5.36279 12.6553L5.04756 12.3764L4.88192 12.5637ZM3.83078 12.5637V12.8137H4.88192V12.5637V12.3137H3.83078V12.5637ZM3.83078 12.345H3.58078V12.5637H3.83078H4.08078V12.345H3.83078ZM3.56529 12.345V12.595H3.83078V12.345V12.095H3.56529V12.345ZM3.56529 12.1262H3.31529V12.345H3.56529H3.81529V12.1262H3.56529ZM3.2998 12.1262V12.3762H3.56529V12.1262V11.8762H3.2998V12.1262ZM3.2998 11.4153H3.0498V12.1262H3.2998H3.5498V11.4153H3.2998ZM3.56529 11.4153V11.1653H3.2998V11.4153V11.6653H3.56529V11.4153ZM3.56529 11.1965H3.31529V11.4153H3.56529H3.81529V11.1965H3.56529ZM3.83078 11.1965V10.9465H3.56529V11.1965V11.4465H3.83078V11.1965ZM3.83078 10.9231H3.58078V11.1965H3.83078H4.08078V10.9231H3.83078ZM4.91316 10.9231V10.6731H3.83078V10.9231V11.1731H4.91316V10.9231ZM4.91316 10.9231L5.07879 11.1103L5.36279 10.8591L5.19716 10.6719L5.03153 10.4846L4.74753 10.7358L4.91316 10.9231ZM5.19716 10.6719L5.03108 10.8587L5.31374 11.1099L5.47981 10.9231L5.64589 10.7362L5.36323 10.485L5.19716 10.6719Z" fill="#E8AA00"/>
<path fill-rule="evenodd" clip-rule="evenodd" d="M4.54883 12.4307H3.98633V11.9473L4.54883 12.4307ZM6.35449 12.4307H5.79199L6.35449 11.9473V12.4307ZM3.98633 11.5557V11.0723H4.54883L3.98633 11.5557ZM6.35449 11.5557L5.79199 11.0723H6.35449V11.5557Z" fill="#C51918"/>
<path fill-rule="evenodd" clip-rule="evenodd" d="M5.17773 12.7002L4.9834 12.4453H5.36914L5.17773 12.7002ZM5.36914 12.208H4.9834L5.17773 11.9531L5.36914 12.208ZM5.17773 11.6064L4.9834 11.3516H5.36914L5.17773 11.6064ZM5.36914 11.1143H4.9834L5.17773 10.8594L5.36914 11.1143Z" fill="#E8AA00"/>
<path fill-rule="evenodd" clip-rule="evenodd" d="M5.37695 12.2861H5.48828V12.4365H5.37695V12.5459H4.9873V12.4365H4.87598V12.2861H4.9873V12.1768H5.37695V12.2861ZM5.37695 11.1924H5.48828V11.3428H5.37695V11.4521H4.9873V11.3428H4.87598V11.1924H4.9873V11.083H5.37695V11.1924Z" fill="#AF0100"/>
<path fill-rule="evenodd" clip-rule="evenodd" d="M4.4248 12.1562L4.24023 11.9004H4.60742L4.4248 12.1562ZM5.96484 12.1562L5.78027 11.9004H6.14746L5.96484 12.1562ZM4.60742 11.6621H4.24023L4.4248 11.4062L4.60742 11.6621ZM6.14746 11.6621H5.78027L5.96484 11.4062L6.14746 11.6621Z" fill="#AF0100"/>
<path fill-rule="evenodd" clip-rule="evenodd" d="M4.60938 11.7412H4.71582V11.8945H4.60938V12.0059H4.23926V11.8945H4.13281V11.7412H4.23926V11.6299H4.60938V11.7412ZM6.14941 11.7412H6.25586V11.8945H6.14941V12.0059H5.7793L5.77832 11.8945H5.67285V11.7412H5.7793V11.6299H6.14941V11.7412Z" fill="#E8AA00"/>
<mask id="mask3_395_51168" style="mask-type:luminance" maskUnits="userSpaceOnUse" x="3" y="12" width="5" height="4">
<path fill-rule="evenodd" clip-rule="evenodd" d="M4.66266 12.9385L3.33398 13.6877V14.9294L4.66266 15.7088H6.10175L7.46203 14.9294V13.6877L6.10175 12.9385H4.66266Z" fill="white"/>
</mask>
<g mask="url(#mask3_395_51168)">
<path d="M3.35303 14.3222H5.42382V15.6894H3.35303V14.3222Z" fill="#E8AA00"/>
<rect x="3.14062" y="12.955" width="2.28319" height="1.36719" fill="#F9E8E7"/>
<path d="M3.67157 13.7518L4.35896 13.3378V13.7518H3.67157Z" fill="#E8AA00"/>
<rect width="2.28319" height="1.36719" transform="matrix(-1 0 0 1 7.70697 12.955)" fill="#E8AA00"/>
<path d="M7.01672 13.7518L6.32934 13.3378V13.7518H7.01672Z" fill="#F9E8E7"/>
<rect x="7.49457" y="15.6894" width="2.0708" height="1.36719" transform="rotate(180 7.49457 15.6894)" fill="#F9E8E7"/>
<path d="M6.96362 14.8927L6.27624 15.3066V14.8927H6.96362Z" fill="#E8AA00"/>
<path d="M3.67139 14.8058L4.35877 15.2197V14.8058H3.67139Z" fill="#FCFCFC"/>
</g>
<path fill-rule="evenodd" clip-rule="evenodd" d="M4.68042 13.7753H5.02555L5.37069 13.666L5.71582 13.7753H6.06095V14.8144H5.71582L5.37069 14.9785L5.02555 14.8144H4.68042V13.7753Z" fill="#C51918"/>
<path fill-rule="evenodd" clip-rule="evenodd" d="M4.76215 15.2248H4.83832V15.3752H4.76215V15.4553H4.57465V15.0129H4.76215V15.2248ZM5.02679 15.4553H4.83929V15.0129H5.02679V15.4553ZM6.03558 15.2248H6.11273V15.3752H6.03558V15.4553H5.84808V15.0129H6.03558V15.2248ZM6.30121 15.4553H6.11371V15.0129H6.30121V15.4553ZM3.96527 14.5685H4.04242V14.7189H3.96527V14.799H3.77777V14.3566H3.96527V14.5685ZM4.2309 14.799H4.0434V14.3566H4.2309V14.799ZM6.88519 14.5685H6.96234V14.7189H6.88519V14.799H6.69769V14.3566H6.88519V14.5685ZM7.15082 14.799H6.96332V14.3566H7.15082V14.799ZM3.96527 14.0217H4.04242V14.1721H3.96527V14.2521H3.77777V13.8098H3.96527V14.0217ZM4.2309 14.2521H4.0434V13.8098H4.2309V14.2521ZM6.88519 14.0217H6.96234V14.1721H6.88519V14.2521H6.69769V13.8098H6.88519V14.0217ZM7.15082 14.2521H6.96332V13.8098H7.15082V14.2521ZM4.76215 13.3654H4.83832V13.5158H4.76215V13.5959H4.57465V13.1535H4.76215V13.3654ZM5.02679 13.5959H4.83929V13.1535H5.02679V13.5959ZM6.03558 13.3654H6.11273V13.5158H6.03558V13.5959H5.84808V13.1535H6.03558V13.3654ZM6.30121 13.5959H6.11371V13.1535H6.30121V13.5959Z" fill="#C9343F"/>
<path fill-rule="evenodd" clip-rule="evenodd" d="M5.32227 14H5.26855V13.9062H5.10938V14.0371L5.38574 14.2764L5.66113 14.0381V13.9062H5.50293V14H5.44922V13.8516H5.71484V14.0215H5.93359V14.2656H5.73047V14.2109H5.87988V14.0762H5.7002L5.42871 14.3105L5.7002 14.5459H5.87988V14.4121H5.73047V14.3574H5.93359V14.6006H5.71484V14.7705H5.44922V14.6221H5.50293V14.7158H5.66113V14.583L5.38574 14.3438L5.10938 14.584V14.7158H5.26855V14.6221H5.32227V14.7705H5.05664V14.6006H4.83789V14.3574H5.04102V14.4121H4.89062V14.5459H5.07129L5.34277 14.3105L5.07129 14.0762H4.89062V14.2109H5.04102V14.2656H4.83789V14.0215H5.05664V13.8516H5.32227V14Z" fill="white"/>
<path fill-rule="evenodd" clip-rule="evenodd" d="M5.68793 6.59961H4.75336V3.59961H5.68793V6.59961ZM4.1684 5.84961H3.58441V4.23438H4.1684V5.84961ZM6.91547 5.84961H6.33148V4.23438H6.91547V5.84961Z" fill="#E8AA00"/>
<path fill-rule="evenodd" clip-rule="evenodd" d="M4.75293 6.1377H4.16895V3.83008H4.75293V6.1377ZM6.27246 6.1377H5.68848V3.83008H6.27246V6.1377ZM3.58398 5.56055H3V4.46484H3.58398V5.56055ZM7.5 5.56055H6.91602V4.46484H7.5V5.56055Z" fill="#389F5D"/>
<path fill-rule="evenodd" clip-rule="evenodd" d="M4.46143 5.67578C4.55797 5.67602 4.63611 5.7533 4.63623 5.84863C4.63623 5.94407 4.55804 6.02124 4.46143 6.02148C4.3646 6.02148 4.28564 5.94422 4.28564 5.84863C4.28577 5.75315 4.36467 5.67578 4.46143 5.67578ZM5.98096 5.67578C6.0775 5.67602 6.15564 5.7533 6.15576 5.84863C6.15576 5.94407 6.07758 6.02124 5.98096 6.02148C5.88413 6.02148 5.80518 5.94422 5.80518 5.84863C5.8053 5.75315 5.8842 5.67578 5.98096 5.67578ZM3.29248 5.15723C3.38902 5.15747 3.46716 5.23474 3.46729 5.33008C3.46729 5.42552 3.3891 5.50269 3.29248 5.50293C3.19565 5.50293 3.1167 5.42567 3.1167 5.33008C3.11682 5.23459 3.19573 5.15723 3.29248 5.15723ZM7.20752 5.15723C7.30427 5.15723 7.38318 5.23459 7.3833 5.33008C7.3833 5.42567 7.30435 5.50293 7.20752 5.50293C7.1107 5.50291 7.03174 5.42566 7.03174 5.33008C7.03186 5.2346 7.11078 5.15724 7.20752 5.15723ZM3.29248 4.52246C3.3891 4.5227 3.46729 4.59988 3.46729 4.69531C3.46729 4.79075 3.3891 4.86792 3.29248 4.86816C3.19565 4.86816 3.1167 4.7909 3.1167 4.69531C3.1167 4.59972 3.19565 4.52246 3.29248 4.52246ZM7.20752 4.52246C7.30435 4.52246 7.3833 4.59972 7.3833 4.69531C7.3833 4.7909 7.30435 4.86816 7.20752 4.86816C7.11073 4.86812 7.03271 4.79087 7.03271 4.69531C7.03271 4.59975 7.11073 4.52251 7.20752 4.52246ZM4.46045 3.94531C4.5572 3.94531 4.63611 4.02268 4.63623 4.11816C4.63623 4.21375 4.55728 4.29102 4.46045 4.29102C4.36381 4.2908 4.28564 4.21362 4.28564 4.11816C4.28577 4.02281 4.36388 3.94553 4.46045 3.94531ZM5.97998 3.94531C6.07673 3.94531 6.15564 4.02268 6.15576 4.11816C6.15576 4.21375 6.07681 4.29102 5.97998 4.29102C5.88332 4.29083 5.80518 4.21363 5.80518 4.11816C5.8053 4.0228 5.88339 3.9455 5.97998 3.94531Z" fill="#E1E5E8"/>
<path fill-rule="evenodd" clip-rule="evenodd" d="M5.22083 6.19543C5.31758 6.19543 5.39648 6.2728 5.39661 6.36829C5.39661 6.46387 5.31765 6.54114 5.22083 6.54114C5.12401 6.54112 5.04602 6.46386 5.04602 6.36829C5.04614 6.27281 5.12409 6.19545 5.22083 6.19543ZM3.87708 5.38782C3.97354 5.38806 4.05163 5.46544 4.05188 5.56067C4.05188 5.65611 3.97369 5.73425 3.87708 5.7345C3.78025 5.7345 3.70129 5.65626 3.70129 5.56067C3.70154 5.46529 3.7804 5.38782 3.87708 5.38782ZM6.62317 5.38782C6.71985 5.38782 6.7987 5.46529 6.79895 5.56067C6.79895 5.65626 6.72 5.7345 6.62317 5.7345C6.52643 5.73439 6.44836 5.65619 6.44836 5.56067C6.44861 5.46536 6.52659 5.38793 6.62317 5.38782ZM3.87708 4.34973C3.97367 4.34997 4.05184 4.42718 4.05188 4.52258C4.05188 4.61802 3.97369 4.69519 3.87708 4.69543C3.78025 4.69543 3.70129 4.61817 3.70129 4.52258C3.70134 4.42703 3.78027 4.34973 3.87708 4.34973ZM6.62317 4.34973C6.71997 4.34973 6.79891 4.42703 6.79895 4.52258C6.79895 4.61817 6.72 4.69543 6.62317 4.69543C6.52643 4.69533 6.44836 4.6181 6.44836 4.52258C6.44841 4.4271 6.52646 4.34984 6.62317 4.34973ZM5.22083 3.71497C5.31755 3.71499 5.39551 3.79235 5.39563 3.88782C5.39563 3.98339 5.31763 4.06064 5.22083 4.06067C5.124 4.06067 5.04504 3.98341 5.04504 3.88782C5.04517 3.79233 5.12407 3.71497 5.22083 3.71497Z" fill="#C51918"/>
<path fill-rule="evenodd" clip-rule="evenodd" d="M6.34705 4.8692H7.2074V5.09967H6.36951V5.11139L5.69763 5.79498H4.7738L4.20447 5.1778V5.09967H3.23376V4.8692H4.20447V4.79303L4.7738 4.27936H5.69763L6.34705 4.8692Z" fill="#C51918"/>
<path fill-rule="evenodd" clip-rule="evenodd" d="M5.61011 4.32239L5.573 4.3595L5.69702 4.4845L5.78296 4.41809L6.01929 4.64758L5.65894 4.98938L6.01733 5.35168L5.79858 5.58215H5.70679L5.52124 5.69836L5.2439 5.44153L4.96753 5.69836L4.78296 5.58215H4.69019L4.47144 5.35168L4.82983 4.98938L4.46948 4.64758L4.70581 4.41809L4.79077 4.4845L4.91479 4.3595L4.87866 4.32239L4.94116 4.26184L5.2439 4.56848L5.54761 4.26184L5.61011 4.32239ZM4.59253 5.35364L4.72827 5.49622H4.80835L4.95776 5.58997L5.21362 5.35266L4.89331 5.04895L4.59253 5.35364ZM5.30737 5.32141L5.34058 5.35266L5.30737 5.38196L5.53198 5.58997L5.68042 5.49622H5.7605L5.89624 5.35364L5.59546 5.04895L5.30737 5.32141ZM5.23315 4.70325L4.95483 4.98743L5.2439 5.26086L5.53491 4.98743L5.2439 4.69348L5.23315 4.70325ZM4.79956 4.60168L4.71265 4.53333L4.59546 4.64758L4.89136 4.92786L5.17944 4.63489L4.96362 4.43567L4.79956 4.60168ZM5.30933 4.63489L5.31616 4.64172L5.40308 4.7218L5.39819 4.72571L5.59839 4.92786L5.89429 4.64758L5.7771 4.53333L5.69019 4.60168L5.52515 4.43567L5.30933 4.63489Z" fill="#E8AA00"/>
<path fill-rule="evenodd" clip-rule="evenodd" d="M5.42485 17.3183C5.61523 17.2975 5.77589 17.2986 5.94048 17.3359C5.99937 17.3493 6.05565 17.3668 6.10844 17.3896C6.2739 17.461 6.70649 17.4374 7.08012 17.3271C7.06331 17.3338 6.39494 17.599 5.99614 17.4795C5.9572 17.4627 5.91627 17.4492 5.87309 17.4394C5.76014 17.4138 5.64425 17.4132 5.5059 17.4257C5.56394 17.4527 5.63052 17.4851 5.70805 17.5166V17.5498C5.5486 17.4851 5.36123 17.4556 5.28227 17.4462C5.20257 17.4558 5.01695 17.4855 4.85844 17.5498V17.5166C4.93574 17.4852 5.00171 17.4527 5.05962 17.4257C4.9215 17.4133 4.80621 17.4138 4.6934 17.4394C4.64994 17.4493 4.60854 17.4626 4.56938 17.4795C4.16548 17.6005 3.4854 17.3271 3.4854 17.3271C3.85886 17.4375 4.29131 17.4608 4.45708 17.3896C4.5098 17.3669 4.56623 17.3493 4.62505 17.3359C4.78966 17.2985 4.95027 17.2975 5.14067 17.3183C5.15995 17.3204 5.21308 17.3268 5.21587 17.3271C5.23365 17.3291 5.24404 17.33 5.24614 17.33C5.25728 17.33 5.26888 17.3348 5.28227 17.3378C5.29604 17.3346 5.30796 17.3301 5.31938 17.33C5.32135 17.33 5.33192 17.3291 5.34965 17.3271C5.35123 17.3269 5.40509 17.3205 5.42485 17.3183ZM3.04594 15.75C3.11555 15.7458 3.66352 16.5784 4.27934 17.1572C4.28309 17.1625 4.37504 17.2962 4.27934 17.3877C4.18284 17.4798 4.018 17.39 4.01372 17.3877C2.8764 16.6828 2.95845 15.7564 3.04594 15.75ZM7.45415 15.75C7.54164 15.7564 7.62369 16.6828 6.48637 17.3877C6.48404 17.3889 6.31784 17.4803 6.22075 17.3877C6.12475 17.296 6.21742 17.1619 6.22075 17.1572C6.8368 16.5782 7.38488 15.7452 7.45415 15.75Z" fill="#E8AA00"/>
<path fill-rule="evenodd" clip-rule="evenodd" d="M4.32298 7.48303L3.38403 8.31048V9.09856L4.20489 9.92341H5.88098L6.8051 9.04329V8.37236L5.88098 7.48303H4.32298Z" fill="#389F5D"/>
<path fill-rule="evenodd" clip-rule="evenodd" d="M4.64545 9.8797H4.43353V9.71564H4.64545V9.8797ZM5.1767 9.8797H4.96381V9.71564H5.1767V9.8797ZM5.70795 9.8797H5.49603V9.71564H5.70795V9.8797ZM4.64545 7.73419H4.43353V7.57013H4.64545V7.73419ZM5.1767 7.73419H4.96478V7.57013H5.1767V7.73419ZM5.70795 7.73419H5.49506V7.57013H5.70795V7.73419Z" fill="#C51918"/>
<path fill-rule="evenodd" clip-rule="evenodd" d="M4.91492 9.8797H4.6991V9.71564H4.91492V9.8797ZM5.45593 9.8797H5.23914V9.71564H5.45593V9.8797ZM4.91492 7.6922H4.6991V7.52814H4.91492V7.6922ZM5.45593 7.6922H5.23914V7.52814H5.45593V7.6922Z" fill="#E8AA00"/>
<path fill-rule="evenodd" clip-rule="evenodd" d="M3.68531 7.38147H6.52033V7.81956H6.92627V9.63067H6.52033V10.0051H3.68531V9.63067H3.24451V7.81956H3.68531V7.38147ZM3.8446 7.98363H3.4038V9.46661H3.8446V9.84099H6.36104V9.46661H6.76697V7.98363H6.36104V7.54553H3.8446V7.98363Z" fill="#750100"/>
<path fill-rule="evenodd" clip-rule="evenodd" d="M4.8056 10.2078H4.53998V9.93439H4.8056V10.2078ZM5.23041 10.2078H4.96478V9.93439H5.23041V10.2078ZM5.65521 10.2078H5.38959V9.93439H5.65521V10.2078ZM3.26947 9.32892H2.99603V9.06329H3.26947V9.32892ZM7.09271 9.32892H6.81927V9.06329H7.09271V9.32892ZM3.26947 8.89142H2.99603V8.62579H3.26947V8.89142ZM7.09271 8.89142H6.81927V8.62579H7.09271V8.89142ZM3.26947 8.45392H2.99603V8.18829H3.26947V8.45392ZM7.09271 8.45392H6.81927V8.18829H7.09271V8.45392ZM4.8056 7.47345H4.53998V7.20001H4.8056V7.47345ZM5.23041 7.47345H4.96478V7.20001H5.23041V7.47345ZM5.65521 7.47345H5.38959V7.20001H5.65521V7.47345Z" fill="#389F5D"/>
<path fill-rule="evenodd" clip-rule="evenodd" d="M4.33381 7.7135L3.87592 8.11177V9.40047L4.25593 9.66938H5.9034L6.28286 9.40047V8.11177L5.8546 7.7135H4.33381Z" fill="#C51918"/>
<path fill-rule="evenodd" clip-rule="evenodd" d="M5.10244 8.24768L4.54993 8.71976H5.10244V8.24768Z" fill="#E1E5E8"/>
<path d="M5.10226 9.14825L4.54974 8.67618H5.10226V9.14825Z" fill="#E8AA00"/>
<path fill-rule="evenodd" clip-rule="evenodd" d="M5.05436 8.24768L5.60687 8.71976H5.05436V8.24768Z" fill="#E8AA00"/>
<path fill-rule="evenodd" clip-rule="evenodd" d="M5.07884 8.8472C5.17126 8.8472 5.24619 8.77228 5.24619 8.67986C5.24619 8.58743 5.17126 8.51251 5.07884 8.51251C4.98642 8.51251 4.9115 8.58743 4.9115 8.67986C4.9115 8.77228 4.98642 8.8472 5.07884 8.8472Z" fill="#29AE66"/>
<path d="M5.05436 9.14825L5.60687 8.67618H5.05436V9.14825Z" fill="#E1E5E8"/>
<path fill-rule="evenodd" clip-rule="evenodd" d="M3.90234 8.94513H3.4248V8.79181H3.90234V8.94513ZM6.76953 8.94513H6.29199V8.79181H6.76953V8.94513ZM3.90234 8.66583H3.4248V8.51251H3.90234V8.66583ZM6.76953 8.66583H6.29199V8.51251H6.76953V8.66583Z" fill="#C51918"/>
<path fill-rule="evenodd" clip-rule="evenodd" d="M3.84961 9.07404H3.4248V8.90607H3.84961V9.07404ZM6.7168 9.07404H6.29199V8.90607H6.7168V9.07404ZM3.84961 8.79474H3.4248V8.62775H3.84961V8.79474ZM6.7168 8.79474H6.29199V8.62775H6.7168V8.79474ZM3.84961 8.51544H3.4248V8.34845H3.84961V8.51544ZM6.7168 8.51544H6.29199V8.34845H6.7168V8.51544Z" fill="#E8AA00"/>
<path fill-rule="evenodd" clip-rule="evenodd" d="M5.92822 0.0933228C6.04969 0.0933228 6.3833 0.326721 6.3833 0.326721H6.94775L7.2085 0.593323V0.860901L7.48877 1.19293L7.48682 1.49664H5.26807L5.26611 2.8775H4.5708C4.44933 2.8775 4.11572 2.6441 4.11572 2.6441H3.55127L3.29053 2.3775V2.10992L3.01025 1.77789L3.01221 1.47321H5.23096L5.23291 0.0933228H5.92822Z" fill="#E8AA00"/>
<path fill-rule="evenodd" clip-rule="evenodd" d="M4.5708 0.0933228C4.44933 0.0933228 4.11572 0.326721 4.11572 0.326721H3.55127L3.29053 0.593323V0.860901L3.01025 1.19293L3.01221 1.49664H5.23096L5.23291 2.8775H5.92822C6.04969 2.8775 6.3833 2.6441 6.3833 2.6441H6.94775L7.2085 2.3775V2.10992L7.48877 1.77789L7.48682 1.47321H5.26807L5.26611 0.0933228H4.5708Z" fill="#E1E5E8"/>
<path fill-rule="evenodd" clip-rule="evenodd" d="M5.51794 2.39917C5.55367 2.50045 5.58631 2.5702 5.61169 2.60522L6.01697 2.52222L6.04138 2.6394L5.70642 2.7146L5.69861 2.72241L5.70544 2.74487L5.63904 2.78979C5.61888 2.77759 5.59939 2.76182 5.57947 2.74487L5.56189 2.74976C5.50436 2.77768 5.40499 2.85695 5.26794 2.98511L5.22986 2.94214L5.19177 2.98511C5.09161 2.89144 5.00989 2.82628 4.95154 2.78589C4.94989 2.78692 4.94831 2.78879 4.94666 2.78979L4.88123 2.74585L4.41931 2.6394L4.44275 2.52222L4.84802 2.60522C4.87341 2.5702 4.90605 2.50045 4.94177 2.39917L5.05408 2.43237L5.01013 2.64038L5.03259 2.64624C5.04965 2.65169 5.06762 2.65769 5.0863 2.66479C5.0768 2.676 5.06553 2.68498 5.05603 2.69507L5.22888 2.85718L5.45154 2.65015L5.40564 2.43237L5.51794 2.39917ZM4.52673 2.19214L4.19568 2.41382L4.23279 2.46558L4.13904 2.53589L4.09802 2.47925L3.96716 2.56812L3.90369 2.46753L4.02966 2.38257L4.0033 2.34644L4.09705 2.27515L4.12634 2.31714L4.46326 2.09155L4.52673 2.19214ZM6.3324 2.31616L6.36267 2.27515L6.4574 2.34644L6.43005 2.38257L6.55701 2.46753L6.49255 2.56812L6.36072 2.47925L6.32068 2.53589L6.22693 2.46558L6.26306 2.41382L5.93298 2.19214L5.99646 2.09155L6.3324 2.31616ZM4.11755 2.07202L3.78748 2.2937L3.82361 2.34546L3.72986 2.41577L3.68982 2.35913L3.55798 2.448L3.49353 2.34741L3.62048 2.26245L3.59412 2.22632L3.68787 2.15503L3.71814 2.19604L4.05408 1.97144L4.11755 2.07202ZM6.74158 2.19702L6.77185 2.15503L6.8656 2.22632L6.83923 2.26245L6.96521 2.34741L6.90173 2.448L6.7699 2.35913L6.72986 2.41577L6.63611 2.34546L6.67224 2.2937L6.34216 2.07202L6.40564 1.97144L6.74158 2.19702ZM3.94275 1.71167L3.61169 1.93335L3.6488 1.98608L3.55505 2.0564L3.51404 1.99878L3.3822 2.08765L3.31873 1.98706L3.4447 1.9021L3.41833 1.86694L3.51306 1.79565L3.54333 1.83667L3.8783 1.61108L3.94275 1.71167ZM6.91736 1.83667L6.94763 1.79565L7.04138 1.86694L7.01501 1.9021L7.14099 1.98706L7.07751 2.08765L6.94568 1.99878L6.90564 2.0564L6.81189 1.98608L6.84802 1.93335L6.51697 1.71167L6.58142 1.61108L6.91736 1.83667ZM7.19958 1.10913L7.07361 1.19312L7.09998 1.23022L7.00525 1.30054L6.97498 1.25854L6.64001 1.48413L6.57556 1.38354L6.90564 1.16187L6.86951 1.11108L6.96326 1.03979L7.0033 1.09644L7.13611 1.00854L7.19958 1.10913ZM3.57263 1.03589L3.61267 0.979248L3.70642 1.05054L3.67029 1.10132L4.00134 1.323L3.93689 1.42358L3.60095 1.198L3.57068 1.23999L3.47693 1.16968L3.5033 1.13257L3.37732 1.04858L3.4408 0.947998L3.57263 1.03589ZM7.0238 0.748779L6.89783 0.832764L6.92419 0.869873L6.83044 0.940186L6.80017 0.898193L6.46423 1.12378L6.40076 1.02319L6.73083 0.801514L6.6947 0.750732L6.78845 0.679443L6.82849 0.736084L6.96033 0.648193L7.0238 0.748779ZM3.74841 0.676514L3.78845 0.619873L3.8822 0.691162L3.84607 0.741943L4.17615 0.963623L4.11267 1.06421L3.77673 0.838623L3.74646 0.880615L3.65173 0.810303L3.67908 0.773193L3.55212 0.689209L3.61658 0.588623L3.74841 0.676514ZM6.6156 0.628662L6.48865 0.712646L6.51501 0.749756L6.42126 0.820068L6.39099 0.778076L6.05505 1.00366L5.99158 0.903076L6.32166 0.681396L6.28552 0.630615L6.37927 0.559326L6.41931 0.615967L6.55115 0.528076L6.6156 0.628662ZM4.15662 0.556396L4.19763 0.499756L4.29138 0.571045L4.25427 0.621826L4.58533 0.843506L4.52185 0.944092L4.18494 0.718506L4.15564 0.760498L4.06189 0.690186L4.08728 0.653076L3.96228 0.569092L4.02576 0.468506L4.15662 0.556396ZM5.31482 0.123779L5.32654 0.112061C5.46365 0.240268 5.56301 0.319583 5.62048 0.347412L6.09998 0.457764L6.07556 0.574951L5.80896 0.518311L5.83435 0.541748C5.81623 0.55263 5.79685 0.568956 5.77576 0.5896L5.66345 0.572998L5.67322 0.534912L5.64783 0.531006C5.6271 0.569901 5.60192 0.625086 5.57654 0.697021L5.46423 0.663818L5.51013 0.447021L5.25525 0.20874L5.07849 0.374756C5.1007 0.394827 5.12273 0.417979 5.1449 0.444092C5.12614 0.451224 5.10831 0.458159 5.09119 0.463623L5.08337 0.4646L5.11267 0.603271L5.00037 0.636475C4.98566 0.594793 4.97074 0.558809 4.9574 0.528076L4.94861 0.530029C4.92744 0.509316 4.90721 0.493063 4.88904 0.482178L4.91931 0.453857C4.91428 0.445309 4.9112 0.436724 4.90662 0.43042L4.50134 0.514404L4.47791 0.397217L4.95642 0.286865C5.0139 0.259036 5.11325 0.179722 5.25037 0.0515137L5.31482 0.123779Z" fill="#C51918"/>
<path fill-rule="evenodd" clip-rule="evenodd" d="M5.31787 1.47363H6.95459L6.56396 1.75391V2.12207H5.94678L5.28564 2.47266V1.5127H3.64893L4.03857 1.23242V0.864258H4.65576L5.31787 0.513672V1.47363Z" fill="#C51918"/>
<path fill-rule="evenodd" clip-rule="evenodd" d="M5.28516 1.47363H3.64844L4.03906 1.75391V2.12207H4.65625L5.31738 2.47266V1.5127H6.9541L6.56445 1.23242V0.864258H5.94727L5.28516 0.513672V1.47363Z" fill="#29AE66"/>
<path fill-rule="evenodd" clip-rule="evenodd" d="M4.71729 1.04785L4.79248 0.935547L4.98486 1.07227L4.92627 1.15918L5.73877 1.59473L5.78955 1.52051L5.98193 1.65723L5.94775 1.70605L6.03662 1.75391L5.92822 1.9668L5.81396 1.90527L5.72217 2.04297L5.52979 1.90723L5.60498 1.79395L4.79248 1.3584L4.72607 1.45801L4.53369 1.32227L4.58447 1.24609L4.33447 1.11426L4.44287 0.901367L4.71729 1.04785Z" fill="#29AE66"/>
<path fill-rule="evenodd" clip-rule="evenodd" d="M5.68156 1.01554L5.59774 0.908819L5.41529 1.05765L5.48085 1.14117L4.69974 1.6324L4.6439 1.56191L4.46152 1.71171L4.49903 1.75804L4.41371 1.81197L4.5367 2.01678L4.64639 1.94744L4.74757 2.07839L4.93001 1.92956L4.8471 1.8218L5.62821 1.33057L5.7014 1.42531L5.88378 1.2755L5.82885 1.20396L6.0671 1.05515L5.94411 0.850335L5.68156 1.01554Z" fill="#C51918"/>
</g>
<path fill-rule="evenodd" clip-rule="evenodd" d="M14.305 1.5C14.305 1.5 16.0527 5.6412 14.5 7.39989C12.9473 9.15858 9 8.8195 9 8.8195C9 8.8195 14.0673 11.1082 16.2751 7.9568C18.4829 4.80535 14.305 1.5 14.305 1.5Z" fill="#F7FCFF"/>
<path fill-rule="evenodd" clip-rule="evenodd" d="M11.4076 6.44238L11.9711 6.4541L11.5219 6.79883L11.6849 7.34375L11.223 7.01855L10.7601 7.34375L10.9232 6.79883L10.474 6.4541L11.0375 6.44238L11.223 5.9043L11.4076 6.44238ZM10.0023 4.98047L10.5648 4.99219L10.1166 5.33691L10.2797 5.88184L9.81677 5.55664L9.35486 5.88184L9.51794 5.33691L9.06873 4.99219L9.6322 4.98047L9.81677 4.44238L10.0023 4.98047ZM11.4076 4.86426L11.9711 4.87598L11.5219 5.2207L11.6849 5.76562L11.223 5.44043L10.7601 5.76562L10.9232 5.2207L10.474 4.87598L11.0375 4.86426L11.223 4.32617L11.4076 4.86426ZM12.9359 4.4043L13.4994 4.41602L13.0502 4.76074L13.2133 5.30566L12.7513 4.98047L12.2885 5.30566L12.4515 4.76074L12.0033 4.41602L12.5658 4.4043L12.7513 3.86621L12.9359 4.4043ZM11.3177 3.36035L11.8812 3.37207L11.432 3.7168L11.5961 4.26172L11.1332 3.93652L10.6713 4.26172L10.8344 3.7168L10.3851 3.37207L10.9486 3.36035L11.1332 2.82227L11.3177 3.36035Z" fill="#F7FCFF"/>
</g>
</g>
</svg>
