<svg width="24" height="18" viewBox="0 0 24 18" fill="none" xmlns="http://www.w3.org/2000/svg">
<mask id="mask0_395_54734" style="mask-type:luminance" maskUnits="userSpaceOnUse" x="0" y="0" width="24" height="18">
<rect width="24" height="18" fill="white"/>
</mask>
<g mask="url(#mask0_395_54734)">
<path fill-rule="evenodd" clip-rule="evenodd" d="M0 0V18H24V0H0Z" fill="#00B4FF"/>
<mask id="mask1_395_54734" style="mask-type:luminance" maskUnits="userSpaceOnUse" x="0" y="0" width="24" height="18">
<path fill-rule="evenodd" clip-rule="evenodd" d="M0 0V18H24V0H0Z" fill="white"/>
</mask>
<g mask="url(#mask1_395_54734)">
<rect width="13.5" height="10.5" fill="#2B409A"/>
<mask id="mask2_395_54734" style="mask-type:luminance" maskUnits="userSpaceOnUse" x="0" y="0" width="14" height="11">
<rect width="13.5" height="10.5" fill="white"/>
</mask>
<g mask="url(#mask2_395_54734)">
<path d="M-1.5032 9.74983L1.46751 11.0527L13.5674 1.41653L15.1344 -0.519623L11.9576 -0.955091L7.02238 3.19743L3.05 5.99525L-1.5032 9.74983Z" fill="#F7FCFF"/>
<path d="M-1.0965 10.6627L0.416945 11.4188L14.5717 -0.699463H12.4467L-1.0965 10.6627Z" fill="#F50100"/>
<path d="M15.0032 9.74983L12.0325 11.0527L-0.0674057 1.41653L-1.63439 -0.519623L1.54236 -0.955091L6.47762 3.19743L10.45 5.99525L15.0032 9.74983Z" fill="#F7FCFF"/>
<path d="M14.9019 10.405L13.3884 11.1611L7.36117 5.97266L5.57422 5.39297L-1.78515 -0.51293H0.339895L7.69513 5.25279L9.64885 5.9479L14.9019 10.405Z" fill="#F50100"/>
<mask id="path-10-outside-1_395_54734" maskUnits="userSpaceOnUse" x="-2" y="-2" width="17" height="14" fill="black">
<rect fill="white" x="-2" y="-2" width="17" height="14"/>
<path fill-rule="evenodd" clip-rule="evenodd" d="M7.48838 0H5.98838V4.5H0V6H5.98838V10.5H7.48838V6H13.5V4.5H7.48838V0Z"/>
</mask>
<path fill-rule="evenodd" clip-rule="evenodd" d="M7.48838 0H5.98838V4.5H0V6H5.98838V10.5H7.48838V6H13.5V4.5H7.48838V0Z" fill="#F50100"/>
<path d="M5.98838 0V-1.5H4.48838V0H5.98838ZM7.48838 0H8.98838V-1.5H7.48838V0ZM5.98838 4.5V6H7.48838V4.5H5.98838ZM0 4.5V3H-1.5V4.5H0ZM0 6H-1.5V7.5H0V6ZM5.98838 6H7.48838V4.5H5.98838V6ZM5.98838 10.5H4.48838V12H5.98838V10.5ZM7.48838 10.5V12H8.98838V10.5H7.48838ZM7.48838 6V4.5H5.98838V6H7.48838ZM13.5 6V7.5H15V6H13.5ZM13.5 4.5H15V3H13.5V4.5ZM7.48838 4.5H5.98838V6H7.48838V4.5ZM5.98838 0V1.5H7.48838V0V-1.5H5.98838V0ZM5.98838 4.5H7.48838V0H5.98838H4.48838V4.5H5.98838ZM0 4.5V6H5.98838V4.5V3H0V4.5ZM0 6H1.5V4.5H0H-1.5V6H0ZM5.98838 6V4.5H0V6V7.5H5.98838V6ZM5.98838 10.5H7.48838V6H5.98838H4.48838V10.5H5.98838ZM7.48838 10.5V9H5.98838V10.5V12H7.48838V10.5ZM7.48838 6H5.98838V10.5H7.48838H8.98838V6H7.48838ZM13.5 6V4.5H7.48838V6V7.5H13.5V6ZM13.5 4.5H12V6H13.5H15V4.5H13.5ZM7.48838 4.5V6H13.5V4.5V3H7.48838V4.5ZM7.48838 0H5.98838V4.5H7.48838H8.98838V0H7.48838Z" fill="#F7FCFF" mask="url(#path-10-outside-1_395_54734)"/>
</g>
<path fill-rule="evenodd" clip-rule="evenodd" d="M12.9238 15.0225L13.5898 14.6211L13.3232 15.4932L14.0967 16.1396L13.0977 16.1689L12.6426 17.0137L12.3867 16.0557L11.4062 15.9336L12.1621 15.4795L12.0801 14.5107L12.9238 15.0225ZM10.1719 15.2285H10.9502L10.2725 15.8379L10.6025 16.79L9.73047 16.3018L8.90527 16.79L9.17969 15.8379L8.40234 15.2285H9.2832L9.71289 14.3555L10.1719 15.2285ZM15.9238 13.5225L16.5898 13.1211L16.3232 13.9932L17.0967 14.6396L16.0977 14.6689L15.6426 15.5137L15.3867 14.5557L14.4062 14.4336L15.1621 13.9795L15.0801 13.0107L15.9238 13.5225ZM12.9238 12.0225L13.5898 11.6211L13.3232 12.4932L14.0967 13.1396L13.0977 13.1689L12.6426 14.0137L12.3867 13.0557L11.4062 12.9336L12.1621 12.4795L12.0801 11.5107L12.9238 12.0225ZM18.9238 12.0225L19.5898 11.6211L19.3232 12.4932L20.0967 13.1396L19.0977 13.1689L18.6426 14.0137L18.3867 13.0557L17.4062 12.9336L18.1621 12.4795L18.0801 11.5107L18.9238 12.0225ZM20.4238 10.5225L21.0898 10.1211L20.8232 10.9932L21.5967 11.6396L20.5977 11.6689L20.1426 12.5137L19.8867 11.5557L18.9062 11.4336L19.6621 10.9795L19.5801 10.0107L20.4238 10.5225ZM15.9238 9.02246L16.5898 8.62109L16.3232 9.49316L17.0967 10.1396L16.0977 10.1689L15.6426 11.0137L15.3867 10.0557L14.4062 9.93359L15.1621 9.47949L15.0801 8.51074L15.9238 9.02246ZM17.4238 7.52246L18.0898 7.12109L17.8232 7.99316L18.5967 8.63965L17.5977 8.66895L17.1426 9.51367L16.8867 8.55566L15.9062 8.43359L16.6621 7.97949L16.5801 7.01074L17.4238 7.52246ZM20.4238 6.02246L21.0898 5.62109L20.8232 6.49316L21.5967 7.13965L20.5977 7.16895L20.1426 8.01367L19.8867 7.05566L18.9062 6.93359L19.6621 6.47949L19.5801 5.51074L20.4238 6.02246Z" fill="#FFD018"/>
</g>
</g>
</svg>
