<svg width="24" height="18" viewBox="0 0 24 18" fill="none" xmlns="http://www.w3.org/2000/svg">
<mask id="mask0_395_52877" style="mask-type:luminance" maskUnits="userSpaceOnUse" x="0" y="0" width="24" height="18">
<rect width="24" height="18" fill="white"/>
</mask>
<g mask="url(#mask0_395_52877)">
<path fill-rule="evenodd" clip-rule="evenodd" d="M0 0H24V18H0V0Z" fill="#F7FCFF"/>
<path fill-rule="evenodd" clip-rule="evenodd" d="M0 11V12.5H24V11H0Z" fill="#E31D1C"/>
<path fill-rule="evenodd" clip-rule="evenodd" d="M0 13.75V15.25H24V13.75H0Z" fill="#E31D1C"/>
<path fill-rule="evenodd" clip-rule="evenodd" d="M0 5.5V7H24V5.5H0Z" fill="#E31D1C"/>
<path fill-rule="evenodd" clip-rule="evenodd" d="M0 16.5V18H24V16.5H0Z" fill="#E31D1C"/>
<path fill-rule="evenodd" clip-rule="evenodd" d="M0 8.25V9.75H24V8.25H0Z" fill="#E31D1C"/>
<path fill-rule="evenodd" clip-rule="evenodd" d="M0 0V1.5H24V0H0Z" fill="#E31D1C"/>
<path fill-rule="evenodd" clip-rule="evenodd" d="M0 2.75V4.25H24V2.75H0Z" fill="#E31D1C"/>
<rect width="15" height="9.75" fill="#2E42A5"/>
<path fill-rule="evenodd" clip-rule="evenodd" d="M1.53918 7.47644H2.07727L1.65442 7.90613L1.81848 8.58582L1.29114 8.20398L0.747192 8.58582L0.930786 7.90613L0.447388 7.47644H1.07922L1.29114 6.92175L1.53918 7.47644ZM4.53918 7.47644H5.07727L4.65442 7.90613L4.81848 8.58582L4.29114 8.20398L3.74719 8.58582L3.93079 7.90613L3.44739 7.47644H4.07922L4.29114 6.92175L4.53918 7.47644ZM7.53918 7.47644H8.07727L7.65442 7.90613L7.81848 8.58582L7.29114 8.20398L6.74719 8.58582L6.93079 7.90613L6.44739 7.47644H7.07922L7.29114 6.92175L7.53918 7.47644ZM10.5392 7.47644H11.0773L10.6544 7.90613L10.8185 8.58582L10.2911 8.20398L9.74719 8.58582L9.93079 7.90613L9.44739 7.47644H10.0792L10.2911 6.92175L10.5392 7.47644ZM13.5392 7.47644H14.0773L13.6544 7.90613L13.8185 8.58582L13.2911 8.20398L12.7472 8.58582L12.9308 7.90613L12.4474 7.47644H13.0792L13.2911 6.92175L13.5392 7.47644ZM3.03918 5.97644H3.57727L3.15442 6.40613L3.31848 7.08582L2.79114 6.70398L2.24719 7.08582L2.43079 6.40613L1.94739 5.97644H2.57922L2.79114 5.42175L3.03918 5.97644ZM6.03918 5.97644H6.57727L6.15442 6.40613L6.31848 7.08582L5.79114 6.70398L5.24719 7.08582L5.43079 6.40613L4.94739 5.97644H5.57922L5.79114 5.42175L6.03918 5.97644ZM9.03918 5.97644H9.57727L9.15442 6.40613L9.31848 7.08582L8.79114 6.70398L8.24719 7.08582L8.43079 6.40613L7.94739 5.97644H8.57922L8.79114 5.42175L9.03918 5.97644ZM12.0392 5.97644H12.5773L12.1544 6.40613L12.3185 7.08582L11.7911 6.70398L11.2472 7.08582L11.4308 6.40613L10.9474 5.97644H11.5792L11.7911 5.42175L12.0392 5.97644ZM1.53918 4.47644H2.07727L1.65442 4.90613L1.81848 5.58582L1.29114 5.20398L0.747192 5.58582L0.930786 4.90613L0.447388 4.47644H1.07922L1.29114 3.92175L1.53918 4.47644ZM4.53918 4.47644H5.07727L4.65442 4.90613L4.81848 5.58582L4.29114 5.20398L3.74719 5.58582L3.93079 4.90613L3.44739 4.47644H4.07922L4.29114 3.92175L4.53918 4.47644ZM7.53918 4.47644H8.07727L7.65442 4.90613L7.81848 5.58582L7.29114 5.20398L6.74719 5.58582L6.93079 4.90613L6.44739 4.47644H7.07922L7.29114 3.92175L7.53918 4.47644ZM10.5392 4.47644H11.0773L10.6544 4.90613L10.8185 5.58582L10.2911 5.20398L9.74719 5.58582L9.93079 4.90613L9.44739 4.47644H10.0792L10.2911 3.92175L10.5392 4.47644ZM13.5392 4.47644H14.0773L13.6544 4.90613L13.8185 5.58582L13.2911 5.20398L12.7472 5.58582L12.9308 4.90613L12.4474 4.47644H13.0792L13.2911 3.92175L13.5392 4.47644ZM3.03918 2.97644H3.57727L3.15442 3.40613L3.31848 4.08582L2.79114 3.70398L2.24719 4.08582L2.43079 3.40613L1.94739 2.97644H2.57922L2.79114 2.42175L3.03918 2.97644ZM6.03918 2.97644H6.57727L6.15442 3.40613L6.31848 4.08582L5.79114 3.70398L5.24719 4.08582L5.43079 3.40613L4.94739 2.97644H5.57922L5.79114 2.42175L6.03918 2.97644ZM9.03918 2.97644H9.57727L9.15442 3.40613L9.31848 4.08582L8.79114 3.70398L8.24719 4.08582L8.43079 3.40613L7.94739 2.97644H8.57922L8.79114 2.42175L9.03918 2.97644ZM12.0392 2.97644H12.5773L12.1544 3.40613L12.3185 4.08582L11.7911 3.70398L11.2472 4.08582L11.4308 3.40613L10.9474 2.97644H11.5792L11.7911 2.42175L12.0392 2.97644ZM1.53918 1.47644H2.07727L1.65442 1.90613L1.81848 2.58582L1.29114 2.20398L0.747192 2.58582L0.930786 1.90613L0.447388 1.47644H1.07922L1.29114 0.921753L1.53918 1.47644ZM4.53918 1.47644H5.07727L4.65442 1.90613L4.81848 2.58582L4.29114 2.20398L3.74719 2.58582L3.93079 1.90613L3.44739 1.47644H4.07922L4.29114 0.921753L4.53918 1.47644ZM7.53918 1.47644H8.07727L7.65442 1.90613L7.81848 2.58582L7.29114 2.20398L6.74719 2.58582L6.93079 1.90613L6.44739 1.47644H7.07922L7.29114 0.921753L7.53918 1.47644ZM10.5392 1.47644H11.0773L10.6544 1.90613L10.8185 2.58582L10.2911 2.20398L9.74719 2.58582L9.93079 1.90613L9.44739 1.47644H10.0792L10.2911 0.921753L10.5392 1.47644ZM13.5392 1.47644H14.0773L13.6544 1.90613L13.8185 2.58582L13.2911 2.20398L12.7472 2.58582L12.9308 1.90613L12.4474 1.47644H13.0792L13.2911 0.921753L13.5392 1.47644Z" fill="#F7FCFF"/>
</g>
</svg>
