<svg width="24" height="18" viewBox="0 0 24 18" fill="none" xmlns="http://www.w3.org/2000/svg">
<mask id="mask0_395_54349" style="mask-type:luminance" maskUnits="userSpaceOnUse" x="0" y="0" width="24" height="18">
<rect width="24" height="18" fill="white"/>
</mask>
<g mask="url(#mask0_395_54349)">
<path fill-rule="evenodd" clip-rule="evenodd" d="M0 0V18H24V0H0Z" fill="#F7FCFF"/>
<mask id="mask1_395_54349" style="mask-type:luminance" maskUnits="userSpaceOnUse" x="0" y="0" width="24" height="18">
<path fill-rule="evenodd" clip-rule="evenodd" d="M0 0V18H24V0H0Z" fill="white"/>
</mask>
<g mask="url(#mask1_395_54349)">
<rect y="1.5" width="24" height="2.25" fill="#2E42A5"/>
<rect y="6" width="24" height="2.25" fill="#2E42A5"/>
<rect y="10.5" width="24" height="2.25" fill="#2E42A5"/>
<rect y="14.25" width="24" height="2.25" fill="#2E42A5"/>
<rect width="10.5" height="10.5" fill="#F7FCFF"/>
<path fill-rule="evenodd" clip-rule="evenodd" d="M3.58699 1.93614C3.53203 1.93245 3.48404 1.97363 3.47981 2.02811C3.45925 2.29296 3.69238 2.53374 3.82145 2.66705L3.83418 2.6802C3.85457 2.70131 3.87545 2.72216 3.90161 2.7477C3.90159 2.74769 3.96264 2.80695 3.97935 2.82347C4.09144 2.93432 4.11574 3.03815 4.14301 3.15472L4.14977 3.18339C4.16156 3.23279 4.17369 3.29251 4.18701 3.35808C4.24605 3.64868 4.32846 4.05429 4.50845 4.18651C4.55254 4.2189 4.86139 4.02652 4.89449 3.98255C4.90617 3.96704 4.94069 3.94138 4.97856 3.91323C5.04803 3.86158 5.12874 3.80157 5.1002 3.78061C4.91172 3.64216 4.76854 3.30661 4.58251 2.82347C4.48318 2.596 4.2231 2.4514 4.00727 2.3314C3.82293 2.22891 3.67087 2.14437 3.67886 2.04147C3.68309 1.98699 3.64196 1.93983 3.58699 1.93614ZM6.62215 2.0104C6.5953 1.96229 6.53464 1.94447 6.48664 1.97059C6.25331 2.0976 6.17835 2.42426 6.13685 2.60511L6.13275 2.62295C6.12615 2.65154 6.12004 2.68041 6.11286 2.71626C6.11287 2.71624 6.09642 2.79972 6.09166 2.82273C6.05974 2.97711 5.9859 3.05403 5.90299 3.1404L5.88262 3.16168C5.84762 3.19847 5.80415 3.24116 5.75642 3.28804L5.75641 3.28806L5.7564 3.28806C5.54484 3.49585 5.24954 3.78587 5.23669 4.00884C5.23354 4.06345 5.5631 4.2177 5.618 4.22151C5.63736 4.22286 5.67769 4.23783 5.72192 4.25426L5.72193 4.25426C5.80308 4.28439 5.89736 4.3194 5.8994 4.28405C5.91286 4.05057 6.11629 3.74773 6.42016 3.32858C6.55684 3.12139 6.53646 2.82451 6.51955 2.57815C6.50511 2.36772 6.49319 2.19415 6.58385 2.1448C6.63184 2.11868 6.64899 2.0585 6.62215 2.0104ZM8.56201 3.77194C8.61493 3.78556 8.64715 3.83997 8.63397 3.89346C8.62079 3.94695 8.56721 3.97926 8.51429 3.96564C8.41434 3.9399 8.30468 4.07497 8.17173 4.23872C8.01608 4.43043 7.82852 4.66145 7.58725 4.71977C7.07915 4.81907 6.72384 4.90182 6.55476 5.06339C6.52916 5.08785 6.48408 4.99795 6.44528 4.92057C6.42413 4.87839 6.40485 4.83993 6.3916 4.82574C6.35405 4.78551 6.21823 4.44794 6.25778 4.41015C6.41924 4.25585 6.833 4.24513 7.12944 4.23745L7.12947 4.23745C7.19635 4.23572 7.25725 4.23414 7.30794 4.2311L7.33735 4.22943C7.45689 4.22281 7.56336 4.21691 7.69199 4.12577C7.71116 4.11219 7.78012 4.06236 7.78011 4.06237C7.8098 4.04104 7.83396 4.0241 7.85829 4.00769L7.87346 3.99744C8.02715 3.89348 8.30475 3.70569 8.56201 3.77194ZM1.74219 4.10455C1.70072 4.14081 1.6959 4.20386 1.73143 4.24537C1.90417 4.44719 2.23928 4.4526 2.42481 4.45559C2.43109 4.45569 2.43719 4.45579 2.44311 4.45589C2.47245 4.4564 2.50196 4.45638 2.53852 4.45595C2.5385 4.45595 2.62358 4.45468 2.64707 4.45455C2.80471 4.45367 2.89531 4.50991 2.99702 4.57305C3.00529 4.57818 3.01362 4.58336 3.02207 4.58855C3.06534 4.61514 3.11615 4.64879 3.17193 4.68573C3.41917 4.84947 3.76425 5.07802 3.98502 5.04423C4.03909 5.03596 4.12145 4.68153 4.11377 4.62704C4.11106 4.60782 4.11732 4.56525 4.12419 4.51858C4.13679 4.43293 4.15143 4.33343 4.11643 4.33879C3.88525 4.37416 3.54674 4.23814 3.07357 4.02806C2.84248 3.93744 2.55633 4.0191 2.31887 4.08686C2.11604 4.14474 1.94874 4.19248 1.88163 4.11407C1.84609 4.07256 1.78367 4.06829 1.74219 4.10455Z" fill="#FFC125"/>
<path d="M3.47981 2.02811L3.55459 2.03391V2.03391L3.47981 2.02811ZM3.58699 1.93614L3.58197 2.01097V2.01097L3.58699 1.93614ZM3.82145 2.66705L3.87536 2.6149L3.87534 2.61488L3.82145 2.66705ZM3.83418 2.6802L3.88813 2.6281L3.88809 2.62806L3.83418 2.6802ZM3.90161 2.7477L3.84926 2.80142L3.95401 2.69404L3.90161 2.7477ZM3.97935 2.82347L4.03209 2.77015L4.03209 2.77015L3.97935 2.82347ZM4.14301 3.15472L4.06998 3.17181L4.07001 3.17192L4.14301 3.15472ZM4.14977 3.18339L4.07676 3.20059L4.07682 3.20081L4.14977 3.18339ZM4.18701 3.35808L4.11352 3.37301V3.37301L4.18701 3.35808ZM4.50845 4.18651L4.46405 4.24696V4.24696L4.50845 4.18651ZM4.89449 3.98255L4.95441 4.02766V4.02766L4.89449 3.98255ZM4.97856 3.91323L5.02331 3.97341V3.97341L4.97856 3.91323ZM5.1002 3.78061L5.1446 3.72017L5.1446 3.72017L5.1002 3.78061ZM4.58251 2.82347L4.65256 2.7965L4.65124 2.79346L4.58251 2.82347ZM4.00727 2.3314L3.97083 2.39695V2.39695L4.00727 2.3314ZM3.67886 2.04147L3.75363 2.04727V2.04727L3.67886 2.04147ZM6.48664 1.97059L6.45079 1.90472V1.90472L6.48664 1.97059ZM6.62215 2.0104L6.55665 2.04694V2.04694L6.62215 2.0104ZM6.13685 2.60511L6.20995 2.62192L6.20995 2.62189L6.13685 2.60511ZM6.13275 2.62295L6.20583 2.63982L6.20584 2.63976L6.13275 2.62295ZM6.11286 2.71626L6.03929 2.70168L6.18641 2.73098L6.11286 2.71626ZM6.09166 2.82273L6.01821 2.80755V2.80755L6.09166 2.82273ZM5.90299 3.1404L5.84888 3.08846L5.8488 3.08854L5.90299 3.1404ZM5.88262 3.16168L5.82844 3.10982L5.82828 3.10999L5.88262 3.16168ZM5.75642 3.28804L5.70387 3.23453L5.70339 3.23501L5.75642 3.28804ZM5.75641 3.28806L5.80714 3.34339L5.80944 3.34109L5.75641 3.28806ZM5.7564 3.28806L5.70569 3.23274L5.70385 3.23455L5.7564 3.28806ZM5.23669 4.00884L5.31156 4.01316V4.01316L5.23669 4.00884ZM5.618 4.22151L5.62319 4.1467V4.1467L5.618 4.22151ZM5.72192 4.25426L5.6958 4.32461L5.69821 4.32541L5.72192 4.25426ZM5.72193 4.25426L5.74805 4.18391L5.74564 4.18311L5.72193 4.25426ZM5.8994 4.28405L5.82452 4.27973L5.8994 4.28405ZM6.42016 3.32858L6.48094 3.37264L6.48277 3.36988L6.42016 3.32858ZM6.51955 2.57815L6.44473 2.58329V2.58329L6.51955 2.57815ZM6.58385 2.1448L6.54799 2.07893L6.54799 2.07893L6.58385 2.1448ZM8.56201 3.77194L8.54331 3.84457V3.84457L8.56201 3.77194ZM8.51429 3.96564L8.49559 4.03827V4.03827L8.51429 3.96564ZM8.17173 4.23872L8.11351 4.19145V4.19145L8.17173 4.23872ZM7.58725 4.71977L7.60165 4.79344L7.60487 4.79267L7.58725 4.71977ZM6.55476 5.06339L6.60657 5.11762H6.60657L6.55476 5.06339ZM6.44528 4.92057L6.37824 4.95418V4.95418L6.44528 4.92057ZM6.3916 4.82574L6.44643 4.77457V4.77457L6.3916 4.82574ZM6.25778 4.41015L6.20596 4.35593V4.35593L6.25778 4.41015ZM7.12944 4.23745L7.13138 4.31243L7.13152 4.31242L7.12944 4.23745ZM7.12947 4.23745L7.12753 4.16247L7.12738 4.16248L7.12947 4.23745ZM7.30794 4.2311L7.30368 4.15622L7.30346 4.15624L7.30794 4.2311ZM7.33735 4.22943L7.3332 4.15454L7.33309 4.15455L7.33735 4.22943ZM7.69199 4.12577L7.73535 4.18697V4.18697L7.69199 4.12577ZM7.78011 4.06237L7.73636 4.00145L7.82336 4.12364L7.78011 4.06237ZM7.85829 4.00769L7.90023 4.06987L7.90028 4.06983L7.85829 4.00769ZM7.87346 3.99744L7.91545 4.05958L7.91548 4.05956L7.87346 3.99744ZM1.73143 4.24537L1.67445 4.29414L1.67445 4.29414L1.73143 4.24537ZM1.74219 4.10455L1.69283 4.04809H1.69283L1.74219 4.10455ZM2.42481 4.45559L2.42602 4.3806H2.42602L2.42481 4.45559ZM2.44311 4.45589L2.44181 4.53088H2.44181L2.44311 4.45589ZM2.53852 4.45595L2.53943 4.53094L2.53763 4.38095L2.53852 4.45595ZM2.64707 4.45455L2.64749 4.52955H2.64749L2.64707 4.45455ZM2.99702 4.57305L2.95747 4.63677H2.95747L2.99702 4.57305ZM3.02207 4.58855L3.06134 4.52465L3.06134 4.52465L3.02207 4.58855ZM3.17193 4.68573L3.13052 4.74826H3.13052L3.17193 4.68573ZM3.98502 5.04423L3.99636 5.11837V5.11837L3.98502 5.04423ZM4.11377 4.62704L4.0395 4.63751V4.63751L4.11377 4.62704ZM4.12419 4.51858L4.04999 4.50766V4.50766L4.12419 4.51858ZM4.11643 4.33879L4.12778 4.41292V4.41292L4.11643 4.33879ZM3.07357 4.02806L3.10403 3.95944L3.10095 3.95823L3.07357 4.02806ZM2.31887 4.08686L2.29829 4.01474V4.01474L2.31887 4.08686ZM1.88163 4.11407L1.82465 4.16284L1.82465 4.16284L1.88163 4.11407ZM3.47981 2.02811L3.55459 2.03391C3.55559 2.02099 3.56746 2.01 3.58197 2.01097L3.58699 1.93614L3.59202 1.86131C3.49659 1.85491 3.41249 1.92627 3.40504 2.0223L3.47981 2.02811ZM3.82145 2.66705L3.87534 2.61488C3.81036 2.54777 3.72469 2.45903 3.65731 2.35589C3.58962 2.2523 3.54614 2.14272 3.55459 2.03391L3.47981 2.02811L3.40504 2.0223C3.39292 2.17835 3.45572 2.32159 3.53173 2.43793C3.60804 2.55472 3.70347 2.65302 3.76757 2.71922L3.82145 2.66705ZM3.83418 2.6802L3.88809 2.62806L3.87536 2.6149L3.82145 2.66705L3.76755 2.7192L3.78028 2.73235L3.83418 2.6802ZM3.90161 2.7477L3.95401 2.69404C3.92817 2.66882 3.90784 2.64852 3.88813 2.6281L3.83418 2.6802L3.78023 2.7323C3.80129 2.75411 3.82272 2.7755 3.84921 2.80136L3.90161 2.7477ZM3.97935 2.82347L4.03209 2.77015C4.02347 2.76162 4.00377 2.74243 3.98651 2.72563C3.97782 2.71718 3.96965 2.70924 3.96366 2.70342C3.96067 2.70051 3.95821 2.69813 3.95651 2.69647C3.95566 2.69565 3.95499 2.695 3.95454 2.69456C3.95431 2.69434 3.95414 2.69417 3.95402 2.69406C3.95397 2.694 3.95392 2.69396 3.95389 2.69393C3.95388 2.69392 3.95386 2.69391 3.95386 2.6939C3.95385 2.6939 3.95385 2.69389 3.95385 2.69389C3.95385 2.69389 3.95384 2.69389 3.95384 2.69388C3.95384 2.69388 3.84784 2.69542 3.84926 2.80142L3.90161 2.7477L3.95395 2.69399C3.95538 2.79999 3.84938 2.80153 3.84937 2.80153C3.84937 2.80152 3.84937 2.80152 3.84937 2.80152C3.84937 2.80152 3.84938 2.80153 3.84938 2.80153C3.84939 2.80154 3.8494 2.80155 3.84941 2.80156C3.84944 2.80159 3.84948 2.80163 3.84954 2.80169C3.84965 2.8018 3.84983 2.80196 3.85005 2.80218C3.8505 2.80262 3.85116 2.80326 3.85201 2.80408C3.85371 2.80573 3.85615 2.80811 3.85914 2.81101C3.86511 2.81681 3.87325 2.82472 3.88191 2.83314C3.89934 2.85011 3.91853 2.86881 3.92661 2.8768L3.97935 2.82347ZM4.14301 3.15472L4.21604 3.13763C4.18841 3.01954 4.16045 2.89709 4.03209 2.77015L3.97935 2.82347L3.92661 2.8768C4.02244 2.97156 4.04306 3.05675 4.06998 3.17181L4.14301 3.15472ZM4.14977 3.18339L4.22277 3.16619L4.21601 3.13752L4.14301 3.15472L4.07001 3.17192L4.07677 3.20059L4.14977 3.18339ZM4.18701 3.35808L4.26051 3.34315C4.24727 3.27798 4.23487 3.21688 4.22272 3.16597L4.14977 3.18339L4.07682 3.20081C4.08825 3.24871 4.10011 3.30704 4.11352 3.37301L4.18701 3.35808ZM4.50845 4.18651L4.55285 4.12607C4.4837 4.07527 4.4239 3.96191 4.37366 3.80836C4.32476 3.65896 4.2902 3.48927 4.26051 3.34315L4.18701 3.35808L4.11352 3.37301C4.14287 3.51749 4.17902 3.6959 4.23109 3.85502C4.28181 4.00998 4.35321 4.16554 4.46405 4.24696L4.50845 4.18651ZM4.89449 3.98255L4.83458 3.93744C4.83662 3.93473 4.83486 3.93746 4.82322 3.94682C4.81339 3.95472 4.8 3.96461 4.78376 3.97583C4.75136 3.99823 4.71011 4.02424 4.66844 4.04802C4.62636 4.07201 4.58603 4.09247 4.55503 4.10479C4.5392 4.11107 4.52878 4.11403 4.5233 4.11499C4.52058 4.11547 4.52169 4.11498 4.52541 4.11526C4.52866 4.11551 4.54026 4.11682 4.55285 4.12607L4.50845 4.18651L4.46405 4.24696C4.48216 4.26026 4.50134 4.26386 4.51397 4.26482C4.52707 4.26583 4.53938 4.26448 4.54938 4.26271C4.56935 4.25918 4.59056 4.25207 4.6104 4.24419C4.65074 4.22817 4.69796 4.20386 4.74275 4.17831C4.78793 4.15254 4.83286 4.12424 4.86906 4.09922C4.88712 4.08673 4.90364 4.07463 4.9172 4.06372C4.92896 4.05427 4.94409 4.04138 4.95441 4.02766L4.89449 3.98255ZM4.97856 3.91323L4.93381 3.85304C4.91521 3.86687 4.89591 3.8812 4.87982 3.8941C4.86563 3.90546 4.84686 3.92113 4.83458 3.93744L4.89449 3.98255L4.95441 4.02766C4.95329 4.02915 4.95379 4.02821 4.95798 4.02436C4.96172 4.02092 4.96688 4.01654 4.9736 4.01117C4.98714 4.00031 5.00404 3.98773 5.02331 3.97341L4.97856 3.91323ZM5.1002 3.78061L5.0558 3.84106C5.04402 3.8324 5.03342 3.81725 5.03142 3.79793C5.02978 3.78212 5.03482 3.7716 5.03578 3.76966C5.03733 3.76651 5.03605 3.77001 5.02442 3.78109C5.00317 3.80132 4.96986 3.82623 4.93381 3.85304L4.97856 3.91323L5.02331 3.97341C5.05672 3.94857 5.09851 3.91766 5.12784 3.88973C5.1415 3.87673 5.15939 3.85807 5.17023 3.83616C5.17583 3.82484 5.18303 3.80579 5.18062 3.78248C5.17784 3.75568 5.16352 3.73406 5.1446 3.72017L5.1002 3.78061ZM4.58251 2.82347L4.51251 2.85042C4.60544 3.09176 4.68902 3.29989 4.77366 3.46544C4.85766 3.62975 4.94707 3.76118 5.0558 3.84106L5.1002 3.78061L5.1446 3.72017C5.06486 3.66159 4.98843 3.55602 4.90721 3.39716C4.82663 3.23954 4.7456 3.03833 4.6525 2.79653L4.58251 2.82347ZM4.00727 2.3314L3.97083 2.39695C4.07956 2.4574 4.19372 2.52102 4.29311 2.59678C4.39247 2.67251 4.47128 2.75617 4.51377 2.85349L4.58251 2.82347L4.65124 2.79346C4.59441 2.6633 4.49352 2.56093 4.38404 2.47748C4.27461 2.39407 4.15082 2.3254 4.04372 2.26585L4.00727 2.3314ZM3.67886 2.04147L3.60408 2.03566C3.59687 2.12853 3.6628 2.19739 3.72483 2.24574C3.7905 2.29692 3.88049 2.34673 3.97083 2.39695L4.00727 2.3314L4.04372 2.26585C3.94971 2.21359 3.8715 2.16988 3.81704 2.12743C3.75896 2.08217 3.75285 2.05731 3.75363 2.04727L3.67886 2.04147ZM3.58699 1.93614L3.58197 2.01097C3.59588 2.01191 3.60504 2.02336 3.60408 2.03566L3.67886 2.04147L3.75363 2.04727C3.76114 1.95061 3.68803 1.86776 3.59202 1.86131L3.58699 1.93614ZM6.48664 1.97059L6.5225 2.03647C6.53389 2.03027 6.54957 2.03425 6.55665 2.04694L6.62215 2.0104L6.68764 1.97385C6.64104 1.89034 6.53539 1.85867 6.45079 1.90472L6.48664 1.97059ZM6.13685 2.60511L6.20995 2.62189C6.23084 2.53085 6.25861 2.41067 6.30841 2.29797C6.35843 2.18479 6.42664 2.08864 6.5225 2.03647L6.48664 1.97059L6.45079 1.90472C6.31331 1.97955 6.22738 2.11023 6.17121 2.23735C6.11482 2.36495 6.08436 2.49852 6.06375 2.58834L6.13685 2.60511ZM6.13275 2.62295L6.20584 2.63976L6.20995 2.62192L6.13685 2.60511L6.06376 2.58831L6.05966 2.60615L6.13275 2.62295ZM6.11286 2.71626L6.18641 2.73098C6.19349 2.69558 6.19945 2.66747 6.20583 2.63982L6.13275 2.62295L6.05967 2.60608C6.05286 2.63561 6.04659 2.66524 6.03932 2.70154L6.11286 2.71626ZM6.09166 2.82273L6.16511 2.83791C6.16756 2.82604 6.17293 2.79907 6.17761 2.77545C6.17997 2.76355 6.18218 2.75238 6.1838 2.74419C6.18461 2.74009 6.18527 2.73673 6.18573 2.7344C6.18596 2.73324 6.18614 2.73233 6.18626 2.73171C6.18632 2.7314 6.18637 2.73116 6.1864 2.73101C6.18642 2.73093 6.18643 2.73087 6.18644 2.73083C6.18644 2.7308 6.18644 2.73079 6.18645 2.73078C6.18645 2.73077 6.18645 2.73077 6.18645 2.73077C6.18645 2.73076 6.18645 2.73076 6.18645 2.73076C6.18645 2.73076 6.1274 2.64268 6.03929 2.70168L6.11286 2.71626L6.18643 2.73084C6.09833 2.78984 6.03928 2.70177 6.03928 2.70176C6.03928 2.70176 6.03928 2.70176 6.03928 2.70176C6.03928 2.70177 6.03928 2.70177 6.03928 2.70177C6.03927 2.70178 6.03927 2.7018 6.03927 2.70182C6.03926 2.70186 6.03925 2.70192 6.03923 2.702C6.0392 2.70215 6.03916 2.70239 6.0391 2.70269C6.03897 2.70331 6.0388 2.70421 6.03857 2.70537C6.03811 2.70769 6.03745 2.71104 6.03664 2.71512C6.03503 2.72329 6.03283 2.73443 6.03048 2.74628C6.02575 2.77014 6.02051 2.79641 6.01821 2.80755L6.09166 2.82273ZM5.90299 3.1404L5.95709 3.19234C6.04109 3.10485 6.12856 3.0147 6.16511 2.83791L6.09166 2.82273L6.01821 2.80755C5.99093 2.93952 5.93072 3.00322 5.84888 3.08846L5.90299 3.1404ZM5.88262 3.16168L5.93681 3.21354L5.95717 3.19226L5.90299 3.1404L5.8488 3.08854L5.82844 3.10982L5.88262 3.16168ZM5.75642 3.28804L5.80898 3.34155C5.85641 3.29496 5.9009 3.25128 5.93696 3.21337L5.88262 3.16168L5.82828 3.10999C5.79435 3.14566 5.75189 3.18737 5.70387 3.23453L5.75642 3.28804ZM5.75641 3.28806L5.80944 3.34109L5.80946 3.34107L5.75642 3.28804L5.70339 3.23501L5.70338 3.23502L5.75641 3.28806ZM5.7564 3.28806L5.80708 3.34335L5.80709 3.34334L5.75641 3.28806L5.70573 3.23277L5.70572 3.23277L5.7564 3.28806ZM5.23669 4.00884L5.31156 4.01316C5.3165 3.92749 5.379 3.8156 5.48042 3.68983C5.57909 3.56746 5.70258 3.44605 5.80896 3.34157L5.7564 3.28806L5.70385 3.23455C5.59867 3.33786 5.46873 3.46535 5.36365 3.59568C5.2613 3.72261 5.16973 3.86722 5.16181 4.00452L5.23669 4.00884ZM5.618 4.22151L5.62319 4.1467C5.62659 4.14693 5.62333 4.14694 5.60915 4.14228C5.59716 4.13833 5.58158 4.13249 5.56332 4.12498C5.52689 4.11001 5.48261 4.08959 5.43997 4.06758C5.39693 4.04536 5.35781 4.02268 5.3306 4.00339C5.3167 3.99354 5.30856 3.98641 5.30476 3.98234C5.30287 3.98031 5.3039 3.98098 5.30568 3.98426C5.30724 3.98711 5.31246 3.99755 5.31156 4.01316L5.23669 4.00884L5.16181 4.00452C5.16052 4.02695 5.16795 4.045 5.17401 4.05611C5.18031 4.06765 5.18815 4.07723 5.19508 4.08466C5.20891 4.09949 5.22642 4.1134 5.24384 4.12575C5.27925 4.15086 5.32536 4.17722 5.37117 4.20087C5.41739 4.22473 5.4656 4.247 5.5063 4.26372C5.52661 4.27207 5.54576 4.27933 5.56229 4.28477C5.57663 4.28948 5.59568 4.29514 5.6128 4.29633L5.618 4.22151ZM5.72192 4.25426L5.74803 4.18395C5.7263 4.17588 5.70377 4.1675 5.68419 4.16103C5.66693 4.15532 5.64356 4.14811 5.62319 4.1467L5.618 4.22151L5.6128 4.29633C5.61094 4.29621 5.61199 4.29611 5.61751 4.29753C5.62244 4.29879 5.62891 4.30074 5.63708 4.30344C5.65356 4.30889 5.67332 4.31621 5.69582 4.32457L5.72192 4.25426ZM5.72193 4.25426L5.74564 4.18311L5.74564 4.18311L5.72192 4.25426L5.69821 4.32541L5.69821 4.32541L5.72193 4.25426ZM5.8994 4.28405L5.82452 4.27973C5.82536 4.26514 5.8323 4.24799 5.84741 4.2358C5.85977 4.22581 5.87134 4.22431 5.87349 4.22405C5.87698 4.22364 5.87335 4.22448 5.85772 4.22075C5.82918 4.21395 5.79015 4.19959 5.74803 4.18395L5.72193 4.25426L5.69582 4.32457C5.73485 4.33906 5.78354 4.35727 5.82293 4.36666C5.84128 4.37104 5.86667 4.37588 5.89095 4.37303C5.90349 4.37156 5.92339 4.36723 5.94162 4.35251C5.9626 4.33558 5.97292 4.3118 5.97427 4.28837L5.8994 4.28405ZM6.42016 3.32858L6.35944 3.28456C6.20765 3.49393 6.07862 3.67738 5.98587 3.83853C5.89382 3.99847 5.83229 4.14504 5.82452 4.27973L5.8994 4.28405L5.97427 4.28837C5.97997 4.18958 6.02688 4.06799 6.11588 3.91335C6.20418 3.75993 6.3288 3.58238 6.48088 3.3726L6.42016 3.32858ZM6.51955 2.57815L6.44473 2.58329C6.45325 2.7074 6.46207 2.83779 6.45267 2.96241C6.44327 3.08698 6.41603 3.19864 6.35756 3.28728L6.42016 3.32858L6.48277 3.36988C6.56098 3.25132 6.59189 3.11095 6.60224 2.97369C6.61259 2.83649 6.60277 2.69526 6.59438 2.57301L6.51955 2.57815ZM6.58385 2.1448L6.54799 2.07893C6.46618 2.12346 6.44433 2.21626 6.43756 2.29462C6.43041 2.37756 6.43765 2.48016 6.44473 2.58329L6.51955 2.57815L6.59438 2.57301C6.58701 2.4657 6.58107 2.3763 6.58701 2.30752C6.59334 2.23415 6.61086 2.21549 6.6197 2.21068L6.58385 2.1448ZM6.62215 2.0104L6.55665 2.04694C6.56344 2.05912 6.55882 2.07303 6.54799 2.07893L6.58385 2.1448L6.6197 2.21068C6.70486 2.16432 6.73453 2.05789 6.68764 1.97385L6.62215 2.0104ZM8.63397 3.89346L8.70679 3.9114C8.72967 3.81854 8.67399 3.72333 8.58072 3.69931L8.56201 3.77194L8.54331 3.84457C8.55587 3.8478 8.56462 3.8614 8.56115 3.87552L8.63397 3.89346ZM8.51429 3.96564L8.49559 4.03827C8.58948 4.06245 8.68377 4.00484 8.70679 3.9114L8.63397 3.89346L8.56115 3.87552C8.55781 3.88906 8.54494 3.89608 8.533 3.89301L8.51429 3.96564ZM8.17173 4.23872L8.22996 4.28599C8.29775 4.20249 8.35438 4.13306 8.40564 4.0868C8.4603 4.03746 8.48584 4.03576 8.49559 4.03827L8.51429 3.96564L8.533 3.89301C8.44279 3.86978 8.36352 3.92275 8.30514 3.97544C8.24333 4.03122 8.17866 4.1112 8.11351 4.19145L8.17173 4.23872ZM7.58725 4.71977L7.60487 4.79267C7.74292 4.7593 7.86126 4.67772 7.96245 4.5844C8.06359 4.49111 8.15272 4.38112 8.22996 4.28599L8.17173 4.23872L8.11351 4.19145C8.03509 4.28803 7.95262 4.38941 7.86075 4.47414C7.76892 4.55883 7.67284 4.62192 7.56963 4.64686L7.58725 4.71977ZM6.55476 5.06339L6.60657 5.11762C6.67811 5.04925 6.79534 4.99232 6.9659 4.93992C7.13511 4.88793 7.34734 4.84308 7.60164 4.79337L7.58725 4.71977L7.57286 4.64616C7.31906 4.69576 7.09958 4.74193 6.92184 4.79654C6.74545 4.85073 6.60048 4.91596 6.50294 5.00917L6.55476 5.06339ZM6.44528 4.92057L6.37824 4.95418C6.3969 4.9914 6.42009 5.03792 6.44249 5.07166C6.45293 5.08738 6.46819 5.10823 6.48789 5.12271C6.49807 5.13019 6.51558 5.14059 6.53895 5.14226C6.56583 5.14418 6.5896 5.13383 6.60657 5.11762L6.55476 5.06339L6.50294 5.00917C6.51351 4.99907 6.53028 4.99126 6.54964 4.99264C6.5655 4.99378 6.57498 5.00056 6.57673 5.00185C6.57956 5.00393 6.57633 5.00206 6.56745 4.98868C6.55121 4.96423 6.53246 4.92711 6.51232 4.88695L6.44528 4.92057ZM6.3916 4.82574L6.33677 4.87692C6.33551 4.87556 6.33634 4.8762 6.33941 4.88101C6.34215 4.88529 6.34556 4.89113 6.34969 4.89867C6.35803 4.9139 6.36748 4.93273 6.37824 4.95418L6.44528 4.92057L6.51232 4.88695C6.50193 4.86623 6.49117 4.84474 6.48127 4.82665C6.47254 4.8107 6.46036 4.78949 6.44643 4.77457L6.3916 4.82574ZM6.25778 4.41015L6.20596 4.35593C6.18972 4.37145 6.18284 4.38971 6.1797 4.40198C6.17643 4.41471 6.17563 4.42706 6.17563 4.43722C6.17564 4.45751 6.17896 4.47962 6.18327 4.50053C6.19205 4.54305 6.20779 4.59377 6.22517 4.64231C6.2427 4.69128 6.26277 4.74045 6.28113 4.78044C6.29029 4.80039 6.29934 4.81876 6.30772 4.83401C6.31499 4.84724 6.32506 4.86437 6.33677 4.87692L6.3916 4.82574L6.44643 4.77457C6.44875 4.77706 6.44637 4.77484 6.43918 4.76176C6.4331 4.7507 6.42569 4.7358 6.41745 4.71786C6.40102 4.68206 6.38256 4.63692 6.36639 4.59175C6.35006 4.54615 6.33692 4.50288 6.33017 4.47021C6.32673 4.45353 6.32563 4.44276 6.32563 4.43719C6.32563 4.43442 6.32593 4.43561 6.325 4.43922C6.32419 4.44237 6.32089 4.45357 6.30959 4.46437L6.25778 4.41015ZM7.12944 4.23745L7.1275 4.16248C6.98012 4.16629 6.79814 4.17092 6.6324 4.19457C6.47099 4.2176 6.30539 4.26091 6.20596 4.35593L6.25778 4.41015L6.30959 4.46437C6.37163 4.40509 6.49364 4.36589 6.65359 4.34306C6.80921 4.32086 6.98232 4.31629 7.13138 4.31243L7.12944 4.23745ZM7.12947 4.23745L7.12738 4.16248L7.12736 4.16248L7.12944 4.23745L7.13152 4.31242L7.13155 4.31242L7.12947 4.23745ZM7.30794 4.2311L7.30346 4.15624C7.25431 4.15918 7.19482 4.16073 7.12753 4.16247L7.12947 4.23745L7.13141 4.31242C7.19788 4.3107 7.2602 4.3091 7.31243 4.30597L7.30794 4.2311ZM7.33735 4.22943L7.33309 4.15455L7.30368 4.15622L7.30794 4.2311L7.3122 4.30598L7.34161 4.30431L7.33735 4.22943ZM7.69199 4.12577L7.64863 4.06458C7.53867 4.14249 7.45119 4.14801 7.3332 4.15454L7.33735 4.22943L7.3415 4.30431C7.4626 4.29761 7.58805 4.29134 7.73535 4.18697L7.69199 4.12577ZM7.78011 4.06237L7.82336 4.12364C7.71911 4.106 7.73611 4.00163 7.73614 4.00161C7.73614 4.0016 7.73615 4.0016 7.73616 4.00159C7.73616 4.00159 7.73616 4.00159 7.73616 4.00159C7.73615 4.0016 7.73614 4.0016 7.73613 4.00162C7.7361 4.00164 7.73605 4.00167 7.73598 4.00172C7.73585 4.00181 7.73566 4.00195 7.73541 4.00214C7.7349 4.0025 7.73415 4.00304 7.73319 4.00373C7.73128 4.00512 7.72851 4.00711 7.72514 4.00955C7.71839 4.01443 7.70918 4.02107 7.69938 4.02813C7.67965 4.04236 7.6579 4.058 7.64863 4.06458L7.69199 4.12577L7.73535 4.18697C7.74524 4.17996 7.76756 4.1639 7.7871 4.14981C7.79693 4.14272 7.80617 4.13606 7.81294 4.13117C7.81633 4.12872 7.8191 4.12672 7.82102 4.12533C7.82199 4.12464 7.82274 4.12409 7.82325 4.12372C7.82351 4.12354 7.8237 4.1234 7.82383 4.1233C7.8239 4.12326 7.82395 4.12322 7.82399 4.12319C7.824 4.12318 7.82402 4.12317 7.82403 4.12316C7.82403 4.12316 7.82404 4.12315 7.82405 4.12315C7.82405 4.12314 7.82406 4.12314 7.82407 4.12313C7.8241 4.12311 7.84111 4.01873 7.73685 4.0011L7.78011 4.06237ZM7.85829 4.00769L7.81635 3.94551C7.79122 3.96246 7.76643 3.97986 7.73636 4.00145L7.78011 4.06237L7.82385 4.12329C7.85318 4.10223 7.8767 4.08574 7.90023 4.06987L7.85829 4.00769ZM7.87346 3.99744L7.83146 3.9353L7.81629 3.94555L7.85829 4.00769L7.90028 4.06983L7.91545 4.05958L7.87346 3.99744ZM8.56201 3.77194L8.58072 3.69931C8.42914 3.66028 8.27717 3.69725 8.1494 3.7519C8.02113 3.80677 7.90776 3.88369 7.83143 3.93532L7.87346 3.99744L7.91548 4.05956C7.99284 4.00723 8.09512 3.93827 8.20839 3.88982C8.32216 3.84115 8.43762 3.81735 8.54331 3.84457L8.56201 3.77194ZM1.73143 4.24537L1.78841 4.1966C1.77998 4.18675 1.78061 4.17059 1.79156 4.16102L1.74219 4.10455L1.69283 4.04809C1.62083 4.11103 1.61182 4.22096 1.67445 4.29414L1.73143 4.24537ZM2.42481 4.45559L2.42602 4.3806C2.33263 4.37909 2.2093 4.37692 2.08872 4.35164C1.96761 4.32625 1.85938 4.27951 1.78841 4.1966L1.73143 4.24537L1.67445 4.29414C1.77623 4.41305 1.92192 4.46993 2.05794 4.49845C2.19448 4.52707 2.33146 4.52909 2.4236 4.53058L2.42481 4.45559ZM2.44311 4.45589L2.44442 4.3809C2.43844 4.3808 2.43229 4.3807 2.42602 4.3806L2.42481 4.45559L2.4236 4.53058C2.42989 4.53068 2.43594 4.53078 2.44181 4.53088L2.44311 4.45589ZM2.53852 4.45595L2.53763 4.38095C2.50153 4.38138 2.47279 4.3814 2.44442 4.3809L2.44311 4.45589L2.44181 4.53088C2.47211 4.53141 2.5024 4.53138 2.53941 4.53094L2.53852 4.45595ZM2.64707 4.45455L2.64665 4.37955C2.63453 4.37962 2.60703 4.37997 2.58295 4.38031C2.57082 4.38047 2.55944 4.38063 2.55109 4.38075C2.54691 4.38081 2.54349 4.38086 2.54111 4.3809C2.53993 4.38092 2.539 4.38093 2.53837 4.38094C2.53806 4.38094 2.53781 4.38095 2.53765 4.38095C2.53757 4.38095 2.53751 4.38095 2.53747 4.38095C2.53745 4.38095 2.53743 4.38095 2.53742 4.38095C2.53741 4.38095 2.53741 4.38095 2.5374 4.38095C2.5374 4.38095 2.5374 4.38095 2.53739 4.38095C2.53739 4.38095 2.46353 4.45697 2.53943 4.53094L2.53852 4.45595L2.53761 4.38095C2.61351 4.45492 2.53965 4.53094 2.53965 4.53094C2.53964 4.53094 2.53964 4.53094 2.53964 4.53094C2.53964 4.53094 2.53965 4.53094 2.53965 4.53094C2.53966 4.53094 2.53967 4.53094 2.53969 4.53094C2.53973 4.53094 2.53979 4.53094 2.53987 4.53093C2.54003 4.53093 2.54027 4.53093 2.54058 4.53092C2.54121 4.53091 2.54213 4.5309 2.54331 4.53088C2.54568 4.53085 2.54909 4.5308 2.55325 4.53074C2.56158 4.53062 2.57293 4.53046 2.58501 4.53029C2.60933 4.52996 2.63612 4.52961 2.64749 4.52955L2.64707 4.45455ZM2.99702 4.57305L3.03658 4.50933C2.93354 4.44537 2.82718 4.37855 2.64665 4.37955L2.64707 4.45455L2.64749 4.52955C2.78225 4.5288 2.85708 4.57445 2.95747 4.63677L2.99702 4.57305ZM3.02207 4.58855L3.06134 4.52465C3.05306 4.51956 3.04486 4.51447 3.03658 4.50933L2.99702 4.57305L2.95747 4.63677C2.96571 4.64189 2.97419 4.64715 2.98281 4.65245L3.02207 4.58855ZM3.17193 4.68573L3.21335 4.6232C3.1579 4.58648 3.10593 4.55205 3.06134 4.52465L3.02207 4.58855L2.98281 4.65245C3.02476 4.67823 3.07439 4.71109 3.13052 4.74826L3.17193 4.68573ZM3.98502 5.04423L3.97367 4.9701C3.88885 4.98308 3.76642 4.9452 3.62231 4.87216C3.48209 4.80109 3.33766 4.70554 3.21335 4.6232L3.17193 4.68573L3.13052 4.74826C3.25344 4.82967 3.40516 4.93026 3.55449 5.00595C3.69992 5.07967 3.86041 5.13917 3.99636 5.11837L3.98502 5.04423ZM4.11377 4.62704L4.0395 4.63751C4.03903 4.63414 4.03971 4.63732 4.0381 4.65217C4.03674 4.66471 4.03426 4.68117 4.03071 4.70059C4.02364 4.73934 4.01287 4.7869 4.00021 4.83318C3.98743 4.8799 3.97338 4.92288 3.96016 4.95351C3.95341 4.96915 3.94814 4.9786 3.94494 4.98316C3.94336 4.98543 3.9438 4.98429 3.94663 4.98186C3.9491 4.97974 3.95822 4.97246 3.97367 4.9701L3.98502 5.04423L3.99636 5.11837C4.01857 5.11497 4.03468 5.10395 4.04429 5.09571C4.05426 5.08715 4.06201 5.07749 4.06783 5.06917C4.07947 5.05255 4.08943 5.03253 4.09789 5.01293C4.11509 4.97307 4.13128 4.92249 4.14489 4.87276C4.15862 4.82259 4.17038 4.77081 4.17828 4.72752C4.18222 4.70592 4.18534 4.68568 4.18722 4.66838C4.18885 4.65338 4.19043 4.63356 4.18803 4.61657L4.11377 4.62704ZM4.12419 4.51858L4.04999 4.50766C4.04661 4.53059 4.0431 4.55437 4.04084 4.57487C4.03884 4.59294 4.03665 4.61729 4.0395 4.63751L4.11377 4.62704L4.18803 4.61657C4.18829 4.61841 4.18798 4.6174 4.18822 4.61171C4.18843 4.60663 4.18899 4.59989 4.18993 4.59134C4.19184 4.57408 4.1949 4.55324 4.19839 4.52949L4.12419 4.51858ZM4.11643 4.33879L4.12778 4.41292C4.11332 4.41513 4.09511 4.41192 4.08004 4.39967C4.0677 4.38965 4.06382 4.37865 4.06313 4.3766C4.062 4.37327 4.06358 4.37666 4.06318 4.39271C4.06246 4.42204 4.05653 4.46321 4.04999 4.50766L4.12419 4.51858L4.19839 4.52949C4.20445 4.4883 4.21214 4.43689 4.21314 4.3964C4.2136 4.37755 4.21306 4.35171 4.20523 4.32855C4.20118 4.31659 4.1928 4.29802 4.17462 4.28325C4.1537 4.26626 4.12829 4.2611 4.10509 4.26465L4.11643 4.33879ZM3.07357 4.02806L3.04313 4.0966C3.27949 4.20154 3.48576 4.28962 3.66267 4.34683C3.83825 4.40361 3.99441 4.43333 4.12778 4.41292L4.11643 4.33879L4.10509 4.26465C4.00727 4.27962 3.87859 4.25901 3.70882 4.20411C3.54039 4.14964 3.34082 4.06466 3.104 3.95951L3.07357 4.02806ZM2.31887 4.08686L2.33945 4.15898C2.45908 4.12484 2.58479 4.0891 2.70864 4.07239C2.83244 4.05568 2.94733 4.05911 3.04619 4.09788L3.07357 4.02806L3.10095 3.95823C2.96872 3.90638 2.82499 3.90533 2.68858 3.92374C2.55222 3.94214 2.41612 3.98111 2.29829 4.01474L2.31887 4.08686ZM1.88163 4.11407L1.82465 4.16284C1.88521 4.2336 1.98053 4.23568 2.05858 4.22601C2.1412 4.21576 2.24005 4.18735 2.33945 4.15898L2.31887 4.08686L2.29829 4.01474C2.19486 4.04426 2.10864 4.06865 2.04013 4.07715C1.96705 4.08621 1.94515 4.07295 1.9386 4.0653L1.88163 4.11407ZM1.74219 4.10455L1.79156 4.16102C1.80205 4.15184 1.81663 4.15347 1.82465 4.16284L1.88163 4.11407L1.9386 4.0653C1.87556 3.99164 1.76528 3.98475 1.69283 4.04809L1.74219 4.10455Z" fill="#984111"/>
<path fill-rule="evenodd" clip-rule="evenodd" d="M3.56697 8.433C3.51201 8.43669 3.46402 8.39551 3.45979 8.34103C3.43923 8.07618 3.67236 7.8354 3.80143 7.70209L3.81416 7.68894C3.83455 7.66783 3.85543 7.64698 3.88159 7.62144C3.88157 7.62145 3.94262 7.56219 3.95933 7.54567C4.07142 7.43482 4.09572 7.33099 4.12299 7.21442L4.12975 7.18575C4.14154 7.13636 4.15367 7.07666 4.16699 7.0111L4.16699 7.01107L4.167 7.01106L4.167 7.01106C4.22603 6.72046 4.30844 6.31485 4.48843 6.18263C4.53252 6.15024 4.84137 6.34262 4.87447 6.38659C4.88615 6.40209 4.92067 6.42776 4.95853 6.45591L4.95853 6.45591L4.95854 6.45591C5.02801 6.50756 5.10872 6.56757 5.08018 6.58853C4.8917 6.72698 4.74852 7.06253 4.56249 7.54567C4.46316 7.77314 4.20308 7.91774 3.98725 8.03774C3.80291 8.14023 3.65085 8.22477 3.65884 8.32767C3.66307 8.38215 3.62194 8.42931 3.56697 8.433ZM6.60213 8.35874C6.57528 8.40685 6.51462 8.42467 6.46662 8.39855C6.23329 8.27154 6.15833 7.94488 6.11683 7.76403L6.11273 7.74619C6.10613 7.7176 6.10002 7.68873 6.09284 7.65288C6.09285 7.6529 6.0764 7.56942 6.07164 7.54641C6.03972 7.39203 5.96588 7.31511 5.88297 7.22874L5.8626 7.20746C5.82752 7.17058 5.7834 7.12727 5.73476 7.07953C5.51979 6.8685 5.21667 6.57095 5.21667 6.3603C5.21667 6.26462 5.54308 6.15144 5.59798 6.14763C5.61734 6.14628 5.65767 6.13131 5.7019 6.11488L5.7019 6.11488C5.78306 6.08475 5.87734 6.04975 5.87938 6.08509C5.89284 6.31857 6.09627 6.62141 6.40014 7.04056C6.53682 7.24775 6.51644 7.54463 6.49953 7.79099C6.48509 8.00142 6.47317 8.17499 6.56383 8.22434C6.61182 8.25046 6.62897 8.31064 6.60213 8.35874ZM8.54199 6.5972C8.59491 6.58358 8.62713 6.52917 8.61395 6.47568C8.60077 6.42219 8.54719 6.38988 8.49427 6.4035C8.39432 6.42924 8.28466 6.29417 8.15171 6.13042C7.99606 5.93871 7.8085 5.70769 7.56723 5.64937C7.05913 5.55007 6.70382 5.46732 6.53474 5.30575C6.50914 5.28129 6.46406 5.37119 6.42526 5.44857C6.40411 5.49075 6.38483 5.52921 6.37158 5.5434C6.33403 5.58363 6.19821 5.9212 6.23776 5.95899C6.39922 6.11329 6.81298 6.12401 7.10942 6.13169L7.10945 6.13169C7.17633 6.13342 7.23723 6.135 7.28792 6.13804L7.31733 6.13971C7.43687 6.14633 7.54333 6.15223 7.67197 6.24337C7.69114 6.25695 7.7601 6.30678 7.76009 6.30677C7.78978 6.3281 7.81394 6.34504 7.83827 6.36145L7.85344 6.3717C8.00713 6.47566 8.28473 6.66345 8.54199 6.5972ZM1.72217 6.26459C1.6807 6.22833 1.67588 6.16529 1.71141 6.12377C1.88415 5.92195 2.21926 5.91654 2.40479 5.91355C2.41107 5.91345 2.41717 5.91335 2.42309 5.91325C2.45243 5.91274 2.48194 5.91276 2.5185 5.91319C2.51848 5.91319 2.60356 5.91446 2.62705 5.91459C2.78469 5.91547 2.87529 5.85923 2.97701 5.79609C2.98527 5.79096 2.9936 5.78578 3.00205 5.78059C3.04532 5.754 3.09613 5.72035 3.15191 5.68341C3.39915 5.51967 3.74423 5.29112 3.965 5.32491C4.01907 5.33318 4.10143 5.68761 4.09375 5.7421C4.09104 5.76132 4.0973 5.80389 4.10417 5.85056C4.11677 5.93621 4.13141 6.03571 4.09641 6.03035C3.86523 5.99498 3.52672 6.131 3.05355 6.34108C2.82246 6.4317 2.53631 6.35004 2.29885 6.28228C2.09602 6.2244 1.92872 6.17666 1.86161 6.25507C1.82607 6.29659 1.76365 6.30085 1.72217 6.26459Z" fill="#FFC125"/>
<path d="M3.45979 8.34103L3.53457 8.33523V8.33523L3.45979 8.34103ZM3.56697 8.433L3.56195 8.35817V8.35817L3.56697 8.433ZM3.80143 7.70209L3.85534 7.75424L3.85532 7.75426L3.80143 7.70209ZM3.81416 7.68894L3.86811 7.74104L3.86807 7.74108L3.81416 7.68894ZM3.88159 7.62144L3.82924 7.56773L3.93399 7.6751L3.88159 7.62144ZM3.95933 7.54567L4.01207 7.59899L4.01207 7.59899L3.95933 7.54567ZM4.12299 7.21442L4.04997 7.19733L4.04999 7.19722L4.12299 7.21442ZM4.12975 7.18575L4.05675 7.16855L4.0568 7.16833L4.12975 7.18575ZM4.16699 7.0111L4.09349 6.99617L4.09356 6.9958L4.16699 7.0111ZM4.16699 7.01107L4.24054 7.02578L4.24042 7.02637L4.16699 7.01107ZM4.167 7.01106L4.09337 6.99634L4.09423 6.99287L4.167 7.01106ZM4.167 7.01106L4.24057 7.02601L4.23976 7.02925L4.167 7.01106ZM4.48843 6.18263L4.44403 6.12218H4.44403L4.48843 6.18263ZM4.87447 6.38659L4.81456 6.4317V6.4317L4.87447 6.38659ZM4.95853 6.45591L4.9155 6.51738L4.91378 6.5161L4.95853 6.45591ZM4.95853 6.45591L5.00157 6.39444L5.00353 6.39591L4.95853 6.45591ZM4.95854 6.45591L4.91379 6.5161L4.91354 6.51591L4.95854 6.45591ZM5.08018 6.58853L5.12458 6.64897V6.64897L5.08018 6.58853ZM4.56249 7.54567L4.63255 7.57264L4.63122 7.57568L4.56249 7.54567ZM3.98725 8.03774L3.95081 7.97219V7.97219L3.98725 8.03774ZM3.65884 8.32767L3.73361 8.32187V8.32187L3.65884 8.32767ZM6.46662 8.39855L6.43077 8.46442V8.46442L6.46662 8.39855ZM6.60213 8.35874L6.66762 8.39529V8.39529L6.60213 8.35874ZM6.11683 7.76403L6.18993 7.74722L6.18993 7.74726L6.11683 7.76403ZM6.11273 7.74619L6.18581 7.72932L6.18582 7.72938L6.11273 7.74619ZM6.09284 7.65288L6.01927 7.66746L6.16639 7.63816L6.09284 7.65288ZM6.07164 7.54641L5.99819 7.56159V7.56159L6.07164 7.54641ZM5.88297 7.22874L5.82886 7.28068L5.82878 7.2806L5.88297 7.22874ZM5.8626 7.20746L5.80842 7.25932L5.80826 7.25916L5.8626 7.20746ZM5.73476 7.07953L5.7873 7.02601V7.02601L5.73476 7.07953ZM5.59798 6.14763L5.60317 6.22245V6.22245L5.59798 6.14763ZM5.7019 6.11488L5.67578 6.04453L5.67819 6.04373L5.7019 6.11488ZM5.7019 6.11488L5.72802 6.18523L5.72562 6.18603L5.7019 6.11488ZM5.87938 6.08509L5.8045 6.08941L5.87938 6.08509ZM6.40014 7.04056L6.46092 6.9965L6.46275 6.99926L6.40014 7.04056ZM6.49953 7.79099L6.57436 7.79613V7.79613L6.49953 7.79099ZM6.56383 8.22434L6.59968 8.15846V8.15846L6.56383 8.22434ZM8.54199 6.5972L8.52329 6.52457V6.52457L8.54199 6.5972ZM8.49427 6.4035L8.47557 6.33087V6.33087L8.49427 6.4035ZM8.15171 6.13042L8.09349 6.17769V6.17769L8.15171 6.13042ZM7.56723 5.64937L7.58163 5.5757L7.58485 5.57647L7.56723 5.64937ZM6.53474 5.30575L6.58655 5.25152V5.25152L6.53474 5.30575ZM6.42526 5.44857L6.35821 5.41496V5.41496L6.42526 5.44857ZM6.37158 5.5434L6.42641 5.59457L6.42641 5.59457L6.37158 5.5434ZM6.23776 5.95899L6.18594 6.01321V6.01321L6.23776 5.95899ZM7.10942 6.13169L7.11136 6.05672L7.11147 6.05672L7.10942 6.13169ZM7.10945 6.13169L7.1075 6.20667L7.1074 6.20666L7.10945 6.13169ZM7.28792 6.13804L7.28366 6.21292L7.28344 6.2129L7.28792 6.13804ZM7.31733 6.13971L7.31318 6.2146L7.31307 6.21459L7.31733 6.13971ZM7.67197 6.24337L7.71533 6.18217L7.71533 6.18217L7.67197 6.24337ZM7.76009 6.30677L7.71634 6.36769L7.80334 6.2455L7.76009 6.30677ZM7.83827 6.36145L7.88021 6.29927L7.88026 6.29931L7.83827 6.36145ZM7.85344 6.3717L7.89543 6.30956L7.89546 6.30958L7.85344 6.3717ZM1.71141 6.12377L1.65443 6.075L1.65444 6.075L1.71141 6.12377ZM1.72217 6.26459L1.67281 6.32105H1.67281L1.72217 6.26459ZM2.40479 5.91355L2.406 5.98854H2.406L2.40479 5.91355ZM2.42309 5.91325L2.42179 5.83826H2.42179L2.42309 5.91325ZM2.5185 5.91319L2.51941 5.8382L2.51761 5.98819L2.5185 5.91319ZM2.62705 5.91459L2.62747 5.83959H2.62747L2.62705 5.91459ZM2.97701 5.79609L2.93745 5.73237H2.93745L2.97701 5.79609ZM3.00205 5.78059L3.04132 5.84449L3.04132 5.84449L3.00205 5.78059ZM3.15191 5.68341L3.1105 5.62088L3.15191 5.68341ZM3.965 5.32491L3.97634 5.25077V5.25077L3.965 5.32491ZM4.09375 5.7421L4.01948 5.73163V5.73163L4.09375 5.7421ZM4.10417 5.85056L4.02997 5.86148V5.86148L4.10417 5.85056ZM4.09641 6.03035L4.10776 5.95622H4.10776L4.09641 6.03035ZM3.05355 6.34108L3.08401 6.4097L3.08093 6.41091L3.05355 6.34108ZM2.29885 6.28228L2.27827 6.3544V6.3544L2.29885 6.28228ZM1.86161 6.25507L1.80463 6.2063L1.80463 6.2063L1.86161 6.25507ZM3.45979 8.34103L3.53457 8.33523C3.53557 8.34815 3.54745 8.35914 3.56195 8.35817L3.56697 8.433L3.572 8.50783C3.47657 8.51423 3.39247 8.44287 3.38502 8.34684L3.45979 8.34103ZM3.80143 7.70209L3.85532 7.75426C3.79034 7.82137 3.70467 7.91011 3.63729 8.01325C3.5696 8.11684 3.52612 8.22642 3.53457 8.33523L3.45979 8.34103L3.38502 8.34684C3.3729 8.19079 3.4357 8.04755 3.51171 7.93121C3.58802 7.81442 3.68345 7.71612 3.74755 7.64992L3.80143 7.70209ZM3.81416 7.68894L3.86807 7.74108L3.85534 7.75424L3.80143 7.70209L3.74753 7.64995L3.76026 7.63679L3.81416 7.68894ZM3.88159 7.62144L3.93399 7.6751C3.90816 7.70032 3.88783 7.72062 3.86811 7.74104L3.81416 7.68894L3.76021 7.63684C3.78127 7.61503 3.8027 7.59364 3.82919 7.56778L3.88159 7.62144ZM3.95933 7.54567L4.01207 7.59899C4.00345 7.60752 3.98375 7.62671 3.96649 7.64351C3.9578 7.65196 3.94963 7.6599 3.94364 7.66572C3.94065 7.66863 3.93819 7.67101 3.93649 7.67267C3.93564 7.6735 3.93497 7.67414 3.93452 7.67458C3.93429 7.6748 3.93412 7.67497 3.934 7.67508C3.93395 7.67514 3.9339 7.67518 3.93387 7.67521C3.93386 7.67522 3.93385 7.67523 3.93384 7.67524C3.93383 7.67525 3.93383 7.67525 3.93383 7.67525C3.93383 7.67525 3.93382 7.67526 3.93382 7.67526C3.93382 7.67526 3.82782 7.67372 3.82924 7.56773L3.88159 7.62144L3.93393 7.67515C3.93536 7.56915 3.82936 7.56761 3.82936 7.56762C3.82935 7.56762 3.82935 7.56762 3.82935 7.56762C3.82935 7.56762 3.82936 7.56761 3.82936 7.56761C3.82937 7.5676 3.82938 7.56759 3.82939 7.56758C3.82942 7.56755 3.82946 7.56751 3.82952 7.56745C3.82964 7.56734 3.82981 7.56718 3.83003 7.56696C3.83048 7.56652 3.83114 7.56588 3.83199 7.56506C3.83369 7.56341 3.83613 7.56104 3.83912 7.55813C3.84509 7.55233 3.85323 7.54442 3.86189 7.536C3.87932 7.51903 3.89851 7.50033 3.90659 7.49234L3.95933 7.54567ZM4.12299 7.21442L4.19602 7.23151C4.16839 7.3496 4.14043 7.47206 4.01207 7.59899L3.95933 7.54567L3.90659 7.49234C4.00242 7.39758 4.02304 7.31239 4.04997 7.19733L4.12299 7.21442ZM4.12975 7.18575L4.20275 7.20295L4.19599 7.23162L4.12299 7.21442L4.04999 7.19722L4.05675 7.16855L4.12975 7.18575ZM4.16699 7.0111L4.24049 7.02603C4.22725 7.09119 4.21485 7.15227 4.2027 7.20317L4.12975 7.18575L4.0568 7.16833C4.06823 7.12044 4.08009 7.06213 4.09349 6.99617L4.16699 7.0111ZM4.16699 7.01107L4.24042 7.02637L4.24041 7.02639L4.16699 7.0111L4.09356 6.9958L4.09357 6.99578L4.16699 7.01107ZM4.167 7.01106L4.24054 7.02577L4.24054 7.02578L4.16699 7.01107L4.09345 6.99636L4.09345 6.99635L4.167 7.01106ZM4.167 7.01106L4.23976 7.02925L4.23976 7.02925L4.167 7.01106L4.09423 6.99287L4.09424 6.99287L4.167 7.01106ZM4.48843 6.18263L4.53284 6.24307C4.46368 6.29387 4.40389 6.40723 4.35364 6.56078C4.30474 6.71018 4.27018 6.87987 4.24049 7.02599L4.167 7.01106L4.0935 6.99613C4.12285 6.85165 4.15901 6.67324 4.21108 6.51412C4.26179 6.35916 4.33319 6.2036 4.44403 6.12218L4.48843 6.18263ZM4.87447 6.38659L4.81456 6.4317C4.8166 6.43442 4.81484 6.43168 4.8032 6.42233C4.79337 6.41442 4.77998 6.40454 4.76374 6.39331C4.73134 6.37091 4.6901 6.3449 4.64842 6.32112C4.60634 6.29713 4.56601 6.27667 4.53501 6.26435C4.51918 6.25807 4.50877 6.25512 4.50328 6.25415C4.50056 6.25367 4.50167 6.25416 4.50539 6.25388C4.50864 6.25363 4.52024 6.25232 4.53284 6.24307L4.48843 6.18263L4.44403 6.12218C4.46214 6.10888 4.48132 6.10528 4.49395 6.10432C4.50705 6.10331 4.51936 6.10467 4.52936 6.10643C4.54934 6.10996 4.57054 6.11707 4.59038 6.12495C4.63073 6.14097 4.67794 6.16528 4.72273 6.19083C4.76791 6.2166 4.81284 6.2449 4.84904 6.26992C4.8671 6.28241 4.88362 6.29451 4.89718 6.30542C4.90894 6.31487 4.92407 6.32777 4.93439 6.34148L4.87447 6.38659ZM4.95853 6.45591L4.91378 6.5161C4.89518 6.50227 4.87589 6.48794 4.85979 6.47504C4.84561 6.46368 4.82684 6.44801 4.81456 6.4317L4.87447 6.38659L4.93439 6.34148C4.93327 6.33999 4.93377 6.34093 4.93796 6.34478C4.9417 6.34822 4.94686 6.35259 4.95357 6.35797C4.96712 6.36882 4.98402 6.3814 5.00328 6.39572L4.95853 6.45591ZM4.95853 6.45591L4.91552 6.51735L4.91552 6.51735L4.95853 6.45591L5.00154 6.39447L5.00154 6.39447L4.95853 6.45591ZM4.95854 6.45591L4.91354 6.51591L4.91353 6.51591L4.95853 6.45591L5.00353 6.39591L5.00354 6.39591L4.95854 6.45591ZM5.08018 6.58853L5.03578 6.52809C5.024 6.53674 5.0134 6.5519 5.0114 6.57121C5.00976 6.58702 5.0148 6.59754 5.01576 6.59948C5.01731 6.60263 5.01603 6.59913 5.0044 6.58805C4.98315 6.56782 4.94984 6.54291 4.91379 6.5161L4.95854 6.45591L5.00329 6.39573C5.0367 6.42057 5.07849 6.45148 5.10782 6.47941C5.12148 6.49241 5.13937 6.51107 5.15021 6.53298C5.15581 6.5443 5.16301 6.56335 5.1606 6.58666C5.15782 6.61346 5.1435 6.63508 5.12458 6.64897L5.08018 6.58853ZM4.56249 7.54567L4.4925 7.51872C4.58542 7.27738 4.669 7.06925 4.75364 6.9037C4.83764 6.73939 4.92705 6.60796 5.03578 6.52809L5.08018 6.58853L5.12458 6.64897C5.04484 6.70755 4.96841 6.81312 4.88719 6.97198C4.80661 7.1296 4.72558 7.33081 4.63248 7.57262L4.56249 7.54567ZM3.98725 8.03774L3.95081 7.97219C4.05954 7.91174 4.1737 7.84812 4.2731 7.77236C4.37245 7.69663 4.45126 7.61297 4.49375 7.51565L4.56249 7.54567L4.63122 7.57568C4.57439 7.70584 4.4735 7.80822 4.36402 7.89166C4.25459 7.97507 4.1308 8.04374 4.0237 8.10329L3.98725 8.03774ZM3.65884 8.32767L3.58406 8.33348C3.57685 8.24061 3.64278 8.17175 3.70481 8.1234C3.77048 8.07222 3.86047 8.02241 3.95081 7.97219L3.98725 8.03774L4.0237 8.10329C3.92969 8.15555 3.85148 8.19926 3.79702 8.24171C3.73894 8.28698 3.73283 8.31183 3.73361 8.32187L3.65884 8.32767ZM3.56697 8.433L3.56195 8.35817C3.57586 8.35723 3.58502 8.34578 3.58406 8.33348L3.65884 8.32767L3.73361 8.32187C3.74112 8.41853 3.66801 8.50139 3.572 8.50783L3.56697 8.433ZM6.46662 8.39855L6.50248 8.33267C6.51387 8.33887 6.52955 8.3349 6.53663 8.3222L6.60213 8.35874L6.66762 8.39529C6.62102 8.4788 6.51537 8.51047 6.43077 8.46442L6.46662 8.39855ZM6.11683 7.76403L6.18993 7.74726C6.21082 7.83829 6.23859 7.95848 6.28839 8.07117C6.33841 8.18435 6.40662 8.2805 6.50248 8.33267L6.46662 8.39855L6.43077 8.46442C6.29329 8.38959 6.20736 8.25891 6.15119 8.1318C6.0948 8.00419 6.06434 7.87062 6.04373 7.7808L6.11683 7.76403ZM6.11273 7.74619L6.18582 7.72938L6.18993 7.74722L6.11683 7.76403L6.04374 7.78084L6.03964 7.76299L6.11273 7.74619ZM6.09284 7.65288L6.16639 7.63816C6.17347 7.67356 6.17943 7.70167 6.18581 7.72932L6.11273 7.74619L6.03965 7.76306C6.03284 7.73353 6.02657 7.7039 6.0193 7.6676L6.09284 7.65288ZM6.07164 7.54641L6.14509 7.53123C6.14754 7.5431 6.15291 7.57007 6.15759 7.59369C6.15995 7.60559 6.16216 7.61676 6.16378 7.62495C6.16459 7.62905 6.16525 7.63241 6.16571 7.63474C6.16594 7.6359 6.16612 7.63681 6.16624 7.63743C6.1663 7.63774 6.16635 7.63798 6.16638 7.63814C6.1664 7.63821 6.16641 7.63827 6.16642 7.63832C6.16642 7.63834 6.16642 7.63835 6.16643 7.63836C6.16643 7.63837 6.16643 7.63837 6.16643 7.63837C6.16643 7.63838 6.16643 7.63838 6.16643 7.63838C6.16643 7.63838 6.10738 7.72646 6.01927 7.66746L6.09284 7.65288L6.16641 7.6383C6.07831 7.5793 6.01926 7.66737 6.01926 7.66738C6.01926 7.66738 6.01926 7.66738 6.01926 7.66738C6.01926 7.66737 6.01926 7.66737 6.01926 7.66737C6.01925 7.66736 6.01925 7.66734 6.01925 7.66732C6.01924 7.66728 6.01923 7.66722 6.01921 7.66715C6.01918 7.66699 6.01914 7.66675 6.01908 7.66645C6.01895 7.66583 6.01878 7.66493 6.01855 7.66377C6.01809 7.66145 6.01743 7.6581 6.01662 7.65402C6.01501 7.64585 6.01281 7.63471 6.01046 7.62287C6.00573 7.599 6.00049 7.57273 5.99819 7.56159L6.07164 7.54641ZM5.88297 7.22874L5.93707 7.1768C6.02106 7.2643 6.10854 7.35444 6.14509 7.53123L6.07164 7.54641L5.99819 7.56159C5.97091 7.42962 5.91069 7.36592 5.82886 7.28068L5.88297 7.22874ZM5.8626 7.20746L5.91679 7.1556L5.93715 7.17688L5.88297 7.22874L5.82878 7.2806L5.80842 7.25932L5.8626 7.20746ZM5.73476 7.07953L5.7873 7.02601C5.83563 7.07345 5.88078 7.11776 5.91694 7.15577L5.8626 7.20746L5.80826 7.25916C5.77426 7.22341 5.73116 7.18109 5.68222 7.13305L5.73476 7.07953ZM5.21667 6.3603H5.29167C5.29167 6.39594 5.30484 6.4416 5.33386 6.49714C5.36249 6.55194 5.40381 6.6112 5.45345 6.67265C5.55289 6.79578 5.67919 6.91988 5.7873 7.02601L5.73476 7.07953L5.68222 7.13305C5.57536 7.02815 5.44261 6.89796 5.33675 6.7669C5.28373 6.70125 5.23584 6.63344 5.20092 6.5666C5.16638 6.50051 5.14167 6.42999 5.14167 6.3603H5.21667ZM5.59798 6.14763L5.60317 6.22245C5.6036 6.22242 5.59811 6.22307 5.58451 6.22657C5.57231 6.22971 5.5567 6.23431 5.53873 6.24023C5.50276 6.2521 5.45947 6.26859 5.4181 6.28764C5.37607 6.30699 5.33926 6.32751 5.31417 6.34676C5.3016 6.3564 5.29453 6.36379 5.29118 6.36834C5.28765 6.37312 5.29167 6.36998 5.29167 6.3603H5.21667H5.14167C5.14167 6.32671 5.15588 6.29909 5.17042 6.27936C5.18513 6.25939 5.204 6.24221 5.22289 6.22773C5.26071 6.19872 5.30893 6.17277 5.35537 6.15139C5.40246 6.1297 5.45107 6.1112 5.49174 6.09779C5.52919 6.08543 5.56836 6.0745 5.59278 6.07281L5.59798 6.14763ZM5.7019 6.11488L5.72801 6.18519C5.70628 6.19326 5.68375 6.20164 5.66417 6.20811C5.64691 6.21382 5.62354 6.22103 5.60317 6.22245L5.59798 6.14763L5.59278 6.07281C5.59092 6.07294 5.59197 6.07303 5.59749 6.07161C5.60242 6.07035 5.60889 6.0684 5.61706 6.0657C5.63354 6.06025 5.6533 6.05293 5.6758 6.04457L5.7019 6.11488ZM5.7019 6.11488L5.72562 6.18603L5.72562 6.18603L5.7019 6.11488L5.67819 6.04373L5.67819 6.04373L5.7019 6.11488ZM5.87938 6.08509L5.8045 6.08941C5.80534 6.104 5.81228 6.12115 5.82738 6.13334C5.83975 6.14333 5.85132 6.14484 5.85347 6.14509C5.85696 6.1455 5.85332 6.14466 5.8377 6.14839C5.80916 6.15519 5.77013 6.16955 5.72801 6.18519L5.7019 6.11488L5.6758 6.04457C5.71483 6.03008 5.76352 6.01187 5.80291 6.00248C5.82126 5.9981 5.84665 5.99326 5.87093 5.99611C5.88347 5.99758 5.90337 6.00191 5.9216 6.01663C5.94257 6.03356 5.9529 6.05734 5.95425 6.08077L5.87938 6.08509ZM6.40014 7.04056L6.33942 7.08458C6.18763 6.87521 6.0586 6.69176 5.96585 6.53061C5.8738 6.37067 5.81227 6.2241 5.8045 6.08941L5.87938 6.08509L5.95425 6.08077C5.95995 6.17956 6.00686 6.30115 6.09586 6.45579C6.18416 6.60921 6.30878 6.78676 6.46086 6.99654L6.40014 7.04056ZM6.49953 7.79099L6.42471 7.78586C6.43323 7.66174 6.44205 7.53135 6.43265 7.40673C6.42325 7.28216 6.39601 7.1705 6.33754 7.08186L6.40014 7.04056L6.46275 6.99926C6.54096 7.11782 6.57187 7.25819 6.58222 7.39545C6.59257 7.53265 6.58275 7.67388 6.57436 7.79613L6.49953 7.79099ZM6.56383 8.22434L6.52797 8.29021C6.44616 8.24568 6.42431 8.15288 6.41754 8.07452C6.41039 7.99158 6.41763 7.88898 6.42471 7.78586L6.49953 7.79099L6.57436 7.79613C6.56699 7.90344 6.56105 7.99284 6.56699 8.06162C6.57332 8.13499 6.59084 8.15365 6.59968 8.15846L6.56383 8.22434ZM6.60213 8.35874L6.53663 8.3222C6.54342 8.31002 6.5388 8.29611 6.52797 8.29021L6.56383 8.22434L6.59968 8.15846C6.68484 8.20482 6.71451 8.31125 6.66762 8.39529L6.60213 8.35874ZM8.61395 6.47568L8.68677 6.45774C8.70965 6.5506 8.65397 6.64581 8.5607 6.66983L8.54199 6.5972L8.52329 6.52457C8.53585 6.52134 8.5446 6.50774 8.54113 6.49362L8.61395 6.47568ZM8.49427 6.4035L8.47557 6.33087C8.56946 6.30669 8.66375 6.3643 8.68677 6.45774L8.61395 6.47568L8.54113 6.49362C8.53779 6.48008 8.52492 6.47306 8.51298 6.47613L8.49427 6.4035ZM8.15171 6.13042L8.20994 6.08315C8.27773 6.16665 8.33436 6.23608 8.38562 6.28234C8.44028 6.33168 8.46582 6.33338 8.47557 6.33087L8.49427 6.4035L8.51298 6.47613C8.42277 6.49936 8.3435 6.44639 8.28512 6.3937C8.22331 6.33792 8.15864 6.25794 8.09349 6.17769L8.15171 6.13042ZM7.56723 5.64937L7.58485 5.57647C7.7229 5.60984 7.84124 5.69142 7.94243 5.78474C8.04357 5.87803 8.1327 5.98802 8.20994 6.08315L8.15171 6.13042L8.09349 6.17769C8.01507 6.08111 7.9326 5.97973 7.84073 5.895C7.7489 5.81031 7.65282 5.74722 7.54961 5.72228L7.56723 5.64937ZM6.53474 5.30575L6.58655 5.25152C6.65809 5.31989 6.77532 5.37682 6.94588 5.42922C7.11509 5.48121 7.32731 5.52606 7.58161 5.57577L7.56723 5.64937L7.55284 5.72298C7.29904 5.67338 7.07956 5.62721 6.90182 5.5726C6.72543 5.51841 6.58046 5.45318 6.48292 5.35997L6.53474 5.30575ZM6.42526 5.44857L6.35821 5.41496C6.37688 5.37774 6.40007 5.33122 6.42247 5.29748C6.43291 5.28176 6.44817 5.26091 6.46787 5.24643C6.47805 5.23895 6.49556 5.22855 6.51893 5.22688C6.54581 5.22496 6.56958 5.23531 6.58655 5.25152L6.53474 5.30575L6.48292 5.35997C6.49349 5.37007 6.51026 5.37788 6.52962 5.3765C6.54548 5.37536 6.55496 5.36858 6.55671 5.36729C6.55954 5.36521 6.55631 5.36708 6.54743 5.38046C6.53119 5.40491 6.51244 5.44203 6.4923 5.48219L6.42526 5.44857ZM6.37158 5.5434L6.31675 5.49222C6.31549 5.49358 6.31632 5.49294 6.31939 5.48814C6.32213 5.48385 6.32554 5.47801 6.32967 5.47047C6.338 5.45524 6.34746 5.43641 6.35821 5.41496L6.42526 5.44857L6.4923 5.48219C6.48191 5.50291 6.47115 5.5244 6.46124 5.54249C6.45252 5.55844 6.44034 5.57965 6.42641 5.59457L6.37158 5.5434ZM6.23776 5.95899L6.18594 6.01321C6.1697 5.99769 6.16282 5.97943 6.15968 5.96716C6.15641 5.95443 6.15561 5.94208 6.15561 5.93192C6.15562 5.91163 6.15893 5.88952 6.16325 5.86861C6.17203 5.8261 6.18777 5.77537 6.20515 5.72683C6.22268 5.67786 6.24275 5.6287 6.26111 5.5887C6.27027 5.56875 6.27932 5.55038 6.2877 5.53513C6.29497 5.5219 6.30504 5.50477 6.31675 5.49222L6.37158 5.5434L6.42641 5.59457C6.42873 5.59208 6.42635 5.5943 6.41915 5.60738C6.41308 5.61844 6.40567 5.63334 6.39743 5.65128C6.381 5.68708 6.36254 5.73222 6.34637 5.77739C6.33004 5.82299 6.3169 5.86626 6.31015 5.89893C6.30671 5.91561 6.30561 5.92638 6.30561 5.93195C6.30561 5.93472 6.30591 5.93353 6.30498 5.92992C6.30417 5.92677 6.30087 5.91557 6.28957 5.90477L6.23776 5.95899ZM7.10942 6.13169L7.10748 6.20667C6.9601 6.20285 6.77812 6.19822 6.61238 6.17457C6.45097 6.15154 6.28537 6.10823 6.18594 6.01321L6.23776 5.95899L6.28957 5.90477C6.35161 5.96405 6.47362 6.00325 6.63357 6.02608C6.78919 6.04828 6.9623 6.05285 7.11136 6.05672L7.10942 6.13169ZM7.10945 6.13169L7.1074 6.20666L7.10738 6.20666L7.10942 6.13169L7.11147 6.05672L7.11149 6.05672L7.10945 6.13169ZM7.28792 6.13804L7.28344 6.2129C7.23429 6.20996 7.17479 6.20841 7.1075 6.20667L7.10945 6.13169L7.11139 6.05672C7.17786 6.05844 7.24018 6.06004 7.29241 6.06317L7.28792 6.13804ZM7.31733 6.13971L7.31307 6.21459L7.28366 6.21292L7.28792 6.13804L7.29218 6.06316L7.32159 6.06483L7.31733 6.13971ZM7.67197 6.24337L7.62861 6.30456C7.51865 6.22665 7.43117 6.22113 7.31318 6.2146L7.31733 6.13971L7.32148 6.06483C7.44257 6.07153 7.56803 6.0778 7.71533 6.18217L7.67197 6.24337ZM7.76009 6.30677L7.80334 6.2455C7.69908 6.26314 7.71609 6.36751 7.71612 6.36753C7.71612 6.36754 7.71613 6.36754 7.71614 6.36755C7.71614 6.36755 7.71614 6.36755 7.71614 6.36755C7.71613 6.36754 7.71612 6.36754 7.71611 6.36752C7.71608 6.3675 7.71603 6.36747 7.71596 6.36742C7.71583 6.36733 7.71564 6.36719 7.71539 6.367C7.71488 6.36664 7.71413 6.3661 7.71317 6.36541C7.71126 6.36402 7.70849 6.36203 7.70512 6.35959C7.69836 6.35471 7.68916 6.34807 7.67936 6.34101C7.65963 6.32678 7.63788 6.31114 7.6286 6.30456L7.67197 6.24337L7.71533 6.18217C7.72522 6.18918 7.74754 6.20524 7.76708 6.21933C7.77691 6.22642 7.78615 6.23308 7.79292 6.23797C7.79631 6.24042 7.79908 6.24242 7.801 6.24381C7.80197 6.2445 7.80272 6.24505 7.80323 6.24542C7.80349 6.2456 7.80368 6.24574 7.80381 6.24584C7.80388 6.24589 7.80393 6.24592 7.80396 6.24595C7.80398 6.24596 7.804 6.24597 7.80401 6.24598C7.80401 6.24598 7.80402 6.24599 7.80403 6.24599C7.80403 6.246 7.80404 6.246 7.80405 6.24601C7.80408 6.24603 7.82108 6.35041 7.71683 6.36804L7.76009 6.30677ZM7.83827 6.36145L7.79633 6.42363C7.7712 6.40668 7.74641 6.38928 7.71634 6.36769L7.76009 6.30677L7.80383 6.24585C7.83316 6.26691 7.85668 6.28341 7.88021 6.29927L7.83827 6.36145ZM7.85344 6.3717L7.81144 6.43384L7.79627 6.42359L7.83827 6.36145L7.88026 6.29931L7.89543 6.30956L7.85344 6.3717ZM8.54199 6.5972L8.5607 6.66983C8.40912 6.70886 8.25715 6.67189 8.12938 6.61724C8.00111 6.56237 7.88774 6.48545 7.81141 6.43382L7.85344 6.3717L7.89546 6.30958C7.97282 6.36191 8.0751 6.43087 8.18837 6.47932C8.30214 6.52799 8.4176 6.55179 8.52329 6.52457L8.54199 6.5972ZM1.71141 6.12377L1.76839 6.17254C1.75996 6.18239 1.76059 6.19856 1.77154 6.20812L1.72217 6.26459L1.67281 6.32105C1.60081 6.25811 1.5918 6.14818 1.65443 6.075L1.71141 6.12377ZM2.40479 5.91355L2.406 5.98854C2.31261 5.99005 2.18928 5.99222 2.0687 6.0175C1.94759 6.04289 1.83936 6.08963 1.76839 6.17254L1.71141 6.12377L1.65444 6.075C1.75621 5.95609 1.9019 5.89921 2.03792 5.8707C2.17446 5.84207 2.31144 5.84005 2.40358 5.83856L2.40479 5.91355ZM2.42309 5.91325L2.4244 5.98824C2.41842 5.98834 2.41227 5.98844 2.406 5.98854L2.40479 5.91355L2.40358 5.83856C2.40987 5.83846 2.41592 5.83836 2.42179 5.83826L2.42309 5.91325ZM2.5185 5.91319L2.51761 5.98819C2.48151 5.98776 2.45277 5.98774 2.4244 5.98824L2.42309 5.91325L2.42179 5.83826C2.45209 5.83773 2.48238 5.83776 2.51939 5.8382L2.5185 5.91319ZM2.62705 5.91459L2.62663 5.98959C2.61451 5.98952 2.58701 5.98917 2.56293 5.98884C2.5508 5.98867 2.53942 5.98851 2.53107 5.98839C2.52689 5.98833 2.52347 5.98828 2.5211 5.98824C2.51991 5.98822 2.51898 5.98821 2.51835 5.9882C2.51804 5.9882 2.51779 5.98819 2.51763 5.98819C2.51755 5.98819 2.51749 5.98819 2.51745 5.98819C2.51743 5.98819 2.51741 5.98819 2.5174 5.98819C2.51739 5.98819 2.51739 5.98819 2.51738 5.98819C2.51738 5.98819 2.51738 5.98819 2.51738 5.98819C2.51737 5.98819 2.44351 5.91217 2.51941 5.8382L2.5185 5.91319L2.51759 5.98819C2.59349 5.91422 2.51963 5.8382 2.51963 5.8382C2.51963 5.8382 2.51962 5.8382 2.51962 5.8382C2.51962 5.8382 2.51963 5.8382 2.51963 5.8382C2.51964 5.8382 2.51965 5.8382 2.51967 5.8382C2.51971 5.8382 2.51977 5.83821 2.51985 5.83821C2.52001 5.83821 2.52025 5.83821 2.52057 5.83822C2.52119 5.83823 2.52211 5.83824 2.5233 5.83826C2.52566 5.83829 2.52907 5.83834 2.53323 5.8384C2.54156 5.83852 2.55291 5.83868 2.56499 5.83885C2.58931 5.83918 2.6161 5.83953 2.62747 5.83959L2.62705 5.91459ZM2.97701 5.79609L3.01656 5.85981C2.91352 5.92377 2.80716 5.99059 2.62663 5.98959L2.62705 5.91459L2.62747 5.83959C2.76223 5.84034 2.83706 5.79469 2.93745 5.73237L2.97701 5.79609ZM3.00205 5.78059L3.04132 5.84449C3.03304 5.84958 3.02485 5.85467 3.01656 5.85981L2.97701 5.79609L2.93745 5.73237C2.94569 5.72725 2.95417 5.72199 2.96279 5.71669L3.00205 5.78059ZM3.15191 5.68341L3.19333 5.74594C3.13788 5.78266 3.08591 5.81709 3.04132 5.84449L3.00205 5.78059L2.96279 5.71669C3.00474 5.69091 3.05437 5.65805 3.1105 5.62088L3.15191 5.68341ZM3.965 5.32491L3.95365 5.39904C3.86883 5.38606 3.7464 5.42394 3.60229 5.49698C3.46207 5.56805 3.31764 5.6636 3.19333 5.74594L3.15191 5.68341L3.1105 5.62088C3.23342 5.53947 3.38514 5.43888 3.53447 5.36319C3.6799 5.28947 3.84039 5.22997 3.97634 5.25077L3.965 5.32491ZM4.09375 5.7421L4.01948 5.73163C4.01901 5.735 4.01969 5.73182 4.01808 5.71697C4.01672 5.70443 4.01424 5.68798 4.01069 5.66855C4.00362 5.6298 3.99285 5.58225 3.98019 5.53596C3.96741 5.48924 3.95336 5.44626 3.94014 5.41563C3.9334 5.39999 3.92812 5.39054 3.92492 5.38598C3.92334 5.38371 3.92378 5.38485 3.92661 5.38728C3.92908 5.3894 3.9382 5.39668 3.95365 5.39904L3.965 5.32491L3.97634 5.25077C3.99855 5.25417 4.01466 5.26519 4.02427 5.27343C4.03425 5.28199 4.04199 5.29165 4.04781 5.29997C4.05945 5.31659 4.06941 5.33661 4.07787 5.35621C4.09507 5.39607 4.11127 5.44665 4.12487 5.49638C4.1386 5.54655 4.15036 5.59833 4.15826 5.64162C4.1622 5.66322 4.16532 5.68346 4.1672 5.70076C4.16883 5.71576 4.17041 5.73558 4.16801 5.75257L4.09375 5.7421ZM4.10417 5.85056L4.02997 5.86148C4.02659 5.83855 4.02308 5.81477 4.02082 5.79427C4.01882 5.7762 4.01663 5.75185 4.01948 5.73163L4.09375 5.7421L4.16801 5.75257C4.16827 5.75073 4.16796 5.75174 4.1682 5.75743C4.16842 5.76251 4.16897 5.76925 4.16991 5.7778C4.17182 5.79506 4.17488 5.8159 4.17837 5.83965L4.10417 5.85056ZM4.09641 6.03035L4.10776 5.95622C4.0933 5.95401 4.07509 5.95722 4.06002 5.96947C4.04768 5.97949 4.0438 5.99049 4.04311 5.99254C4.04199 5.99587 4.04356 5.99249 4.04316 5.97643C4.04244 5.9471 4.03651 5.90593 4.02997 5.86148L4.10417 5.85056L4.17837 5.83965C4.18443 5.88084 4.19212 5.93225 4.19312 5.97274C4.19358 5.99159 4.19304 6.01743 4.18521 6.04059C4.18116 6.05255 4.17278 6.07112 4.1546 6.08589C4.13368 6.10289 4.10827 6.10804 4.08507 6.10449L4.09641 6.03035ZM3.05355 6.34108L3.02311 6.27254C3.25947 6.1676 3.46574 6.07952 3.64265 6.02231C3.81823 5.96553 3.97439 5.93581 4.10776 5.95622L4.09641 6.03035L4.08507 6.10449C3.98726 6.08952 3.85857 6.11013 3.68881 6.16503C3.52037 6.21951 3.3208 6.30449 3.08398 6.40963L3.05355 6.34108ZM2.29885 6.28228L2.31943 6.21016C2.43906 6.2443 2.56477 6.28004 2.68862 6.29675C2.81242 6.31346 2.92731 6.31003 3.02617 6.27126L3.05355 6.34108L3.08093 6.41091C2.9487 6.46276 2.80497 6.46381 2.66856 6.4454C2.5322 6.427 2.3961 6.38803 2.27827 6.3544L2.29885 6.28228ZM1.86161 6.25507L1.80463 6.2063C1.86519 6.13554 1.96051 6.13346 2.03856 6.14314C2.12118 6.15338 2.22003 6.1818 2.31943 6.21016L2.29885 6.28228L2.27827 6.3544C2.17484 6.32489 2.08862 6.30049 2.02011 6.292C1.94703 6.28293 1.92513 6.29619 1.91859 6.30384L1.86161 6.25507ZM1.72217 6.26459L1.77154 6.20812C1.78203 6.2173 1.79661 6.21567 1.80463 6.2063L1.86161 6.25507L1.91859 6.30384C1.85554 6.3775 1.74526 6.38439 1.67281 6.32105L1.72217 6.26459Z" fill="#984111"/>
<path fill-rule="evenodd" clip-rule="evenodd" d="M5.25005 1.54395C5.15447 1.54395 5.07348 1.61433 5.06015 1.70899L4.75005 3.91237H5.75005L5.43994 1.70899C5.42662 1.61433 5.34563 1.54395 5.25005 1.54395ZM7.87015 2.62894C7.80257 2.56136 7.69553 2.55386 7.61918 2.61137L5.84187 3.95012L6.54898 4.65722L7.88773 2.87992C7.94524 2.80357 7.93774 2.69653 7.87015 2.62894ZM8.79053 5.06011C8.88518 5.07343 8.95557 5.15442 8.95557 5.25C8.95557 5.34558 8.88518 5.42657 8.79053 5.43989L6.58715 5.75V4.75L8.79053 5.06011ZM7.87008 7.87015C7.93767 7.80257 7.94516 7.69553 7.88765 7.61918L6.54891 5.84187L5.8418 6.54898L7.6191 7.88773C7.69545 7.94524 7.80249 7.93774 7.87008 7.87015ZM5.43994 8.79014C5.42662 8.88479 5.34563 8.95518 5.25005 8.95518C5.15447 8.95518 5.07348 8.88479 5.06015 8.79014L4.75005 6.58676H5.75005L5.43994 8.79014ZM2.62984 7.87008C2.69743 7.93767 2.80447 7.94516 2.88082 7.88765L4.65812 6.54891L3.95102 5.8418L2.61227 7.6191C2.55476 7.69545 2.56226 7.80249 2.62984 7.87008ZM1.70947 5.43989C1.61482 5.42657 1.54443 5.34558 1.54443 5.25C1.54443 5.15442 1.61482 5.07343 1.70947 5.06011L3.91285 4.75V5.75L1.70947 5.43989ZM2.62992 2.62887C2.56233 2.69646 2.55484 2.8035 2.61235 2.87985L3.95109 4.65715L4.6582 3.95004L2.8809 2.61129C2.80455 2.55379 2.69751 2.56128 2.62992 2.62887Z" fill="#FFC125"/>
<path d="M5.06015 1.70899L4.98589 1.69853L4.98589 1.69853L5.06015 1.70899ZM4.75005 3.91237L4.67578 3.90191L4.66375 3.98737H4.75005V3.91237ZM5.75005 3.91237V3.98737H5.83634L5.82432 3.90191L5.75005 3.91237ZM5.43994 1.70899L5.36568 1.71944V1.71944L5.43994 1.70899ZM7.61918 2.61137L7.6643 2.67128H7.6643L7.61918 2.61137ZM7.87015 2.62894L7.81712 2.68198V2.68198L7.87015 2.62894ZM5.84187 3.95012L5.79675 3.89021L5.72782 3.94213L5.78884 4.00315L5.84187 3.95012ZM6.54898 4.65722L6.49595 4.71026L6.55697 4.77128L6.60889 4.70235L6.54898 4.65722ZM7.88773 2.87992L7.94764 2.92505V2.92505L7.88773 2.87992ZM8.79053 5.06011L8.80098 4.98584V4.98584L8.79053 5.06011ZM8.79053 5.43989L8.78007 5.36563V5.36563L8.79053 5.43989ZM6.58715 5.75H6.51215V5.83629L6.5976 5.82427L6.58715 5.75ZM6.58715 4.75L6.5976 4.67573L6.51215 4.66371V4.75H6.58715ZM7.88765 7.61918L7.82775 7.6643V7.6643L7.88765 7.61918ZM6.54891 5.84187L6.60881 5.79675L6.55689 5.72782L6.49587 5.78884L6.54891 5.84187ZM5.8418 6.54898L5.78877 6.49595L5.72775 6.55697L5.79668 6.60889L5.8418 6.54898ZM7.6191 7.88773L7.66423 7.82782V7.82782L7.6191 7.88773ZM5.43994 8.79014L5.51421 8.80059V8.80059L5.43994 8.79014ZM5.06015 8.79014L5.13442 8.77968V8.77968L5.06015 8.79014ZM4.75005 6.58676V6.51176H4.66375L4.67578 6.59721L4.75005 6.58676ZM5.75005 6.58676L5.82432 6.59721L5.83634 6.51176H5.75005V6.58676ZM2.88082 7.88765L2.8357 7.82775H2.8357L2.88082 7.88765ZM4.65812 6.54891L4.70325 6.60881L4.77218 6.55689L4.71116 6.49587L4.65812 6.54891ZM3.95102 5.8418L4.00405 5.78877L3.94303 5.72775L3.89111 5.79667L3.95102 5.8418ZM2.61227 7.6191L2.67218 7.66423H2.67218L2.61227 7.6191ZM1.70947 5.43989L1.71993 5.36563H1.71993L1.70947 5.43989ZM1.70947 5.06011L1.71993 5.13437H1.71993L1.70947 5.06011ZM3.91285 4.75H3.98785V4.66371L3.9024 4.67573L3.91285 4.75ZM3.91285 5.75L3.9024 5.82427L3.98785 5.83629V5.75H3.91285ZM2.61235 2.87985L2.55244 2.92497V2.92497L2.61235 2.87985ZM2.62992 2.62887L2.57689 2.57584H2.57689L2.62992 2.62887ZM3.95109 4.65715L3.89119 4.70227L3.94311 4.7712L4.00413 4.71018L3.95109 4.65715ZM4.6582 3.95004L4.71123 4.00307L4.77225 3.94206L4.70333 3.89014L4.6582 3.95004ZM2.8809 2.61129L2.83577 2.6712V2.6712L2.8809 2.61129ZM5.06015 1.70899L5.13442 1.71944C5.14253 1.66181 5.19185 1.61895 5.25005 1.61895V1.54395V1.46895C5.11708 1.46895 5.00442 1.56686 4.98589 1.69853L5.06015 1.70899ZM4.75005 3.91237L4.82432 3.92282L5.13442 1.71944L5.06015 1.70899L4.98589 1.69853L4.67578 3.90191L4.75005 3.91237ZM5.75005 3.91237V3.83737H4.75005V3.91237V3.98737H5.75005V3.91237ZM5.43994 1.70899L5.36568 1.71944L5.67578 3.92282L5.75005 3.91237L5.82432 3.90191L5.51421 1.69853L5.43994 1.70899ZM5.25005 1.54395V1.61895C5.30825 1.61895 5.35756 1.66181 5.36568 1.71944L5.43994 1.70899L5.51421 1.69853C5.49568 1.56686 5.38302 1.46895 5.25005 1.46895V1.54395ZM7.61918 2.61137L7.6643 2.67128C7.71079 2.63626 7.77597 2.64082 7.81712 2.68198L7.87015 2.62894L7.92319 2.57591C7.82917 2.48189 7.68026 2.47146 7.57405 2.55146L7.61918 2.61137ZM5.84187 3.95012L5.887 4.01002L7.6643 2.67128L7.61918 2.61137L7.57405 2.55146L5.79675 3.89021L5.84187 3.95012ZM6.54898 4.65722L6.60201 4.60419L5.89491 3.89708L5.84187 3.95012L5.78884 4.00315L6.49595 4.71026L6.54898 4.65722ZM7.88773 2.87992L7.82782 2.8348L6.48908 4.6121L6.54898 4.65722L6.60889 4.70235L7.94764 2.92505L7.88773 2.87992ZM7.87015 2.62894L7.81712 2.68198C7.85828 2.72313 7.86284 2.78831 7.82782 2.8348L7.88773 2.87992L7.94764 2.92505C8.02764 2.81884 8.01721 2.66993 7.92319 2.57591L7.87015 2.62894ZM8.95557 5.25H9.03057C9.03057 5.11703 8.93265 5.00437 8.80098 4.98584L8.79053 5.06011L8.78007 5.13437C8.83771 5.14248 8.88057 5.1918 8.88057 5.25H8.95557ZM8.79053 5.43989L8.80098 5.51416C8.93265 5.49563 9.03057 5.38297 9.03057 5.25H8.95557H8.88057C8.88057 5.3082 8.83771 5.35752 8.78007 5.36563L8.79053 5.43989ZM6.58715 5.75L6.5976 5.82427L8.80098 5.51416L8.79053 5.43989L8.78007 5.36563L6.57669 5.67573L6.58715 5.75ZM6.58715 4.75H6.51215V5.75H6.58715H6.66215V4.75H6.58715ZM8.79053 5.06011L8.80098 4.98584L6.5976 4.67573L6.58715 4.75L6.57669 4.82427L8.78007 5.13437L8.79053 5.06011ZM7.88765 7.61918L7.82775 7.6643C7.86276 7.71079 7.8582 7.77597 7.81705 7.81712L7.87008 7.87015L7.92311 7.92319C8.01713 7.82917 8.02756 7.68026 7.94756 7.57405L7.88765 7.61918ZM6.54891 5.84187L6.489 5.887L7.82775 7.6643L7.88765 7.61918L7.94756 7.57405L6.60881 5.79675L6.54891 5.84187ZM5.8418 6.54898L5.89483 6.60201L6.60194 5.89491L6.54891 5.84187L6.49587 5.78884L5.78877 6.49595L5.8418 6.54898ZM7.6191 7.88773L7.66423 7.82782L5.88692 6.48908L5.8418 6.54898L5.79668 6.60889L7.57398 7.94764L7.6191 7.88773ZM7.87008 7.87015L7.81705 7.81712C7.77589 7.85828 7.71072 7.86284 7.66423 7.82782L7.6191 7.88773L7.57398 7.94764C7.68019 8.02764 7.82909 8.01721 7.92311 7.92319L7.87008 7.87015ZM5.25005 8.95518V9.03018C5.38302 9.03018 5.49568 8.93226 5.51421 8.80059L5.43994 8.79014L5.36568 8.77968C5.35756 8.83732 5.30825 8.88018 5.25005 8.88018V8.95518ZM5.06015 8.79014L4.98589 8.80059C5.00442 8.93226 5.11708 9.03018 5.25005 9.03018V8.95518V8.88018C5.19185 8.88018 5.14253 8.83732 5.13442 8.77968L5.06015 8.79014ZM4.75005 6.58676L4.67578 6.59721L4.98589 8.80059L5.06015 8.79014L5.13442 8.77968L4.82432 6.5763L4.75005 6.58676ZM5.75005 6.58676V6.51176H4.75005V6.58676V6.66176H5.75005V6.58676ZM5.43994 8.79014L5.51421 8.80059L5.82432 6.59721L5.75005 6.58676L5.67578 6.5763L5.36568 8.77968L5.43994 8.79014ZM2.88082 7.88765L2.8357 7.82775C2.78921 7.86276 2.72403 7.8582 2.68288 7.81705L2.62984 7.87008L2.57681 7.92311C2.67083 8.01713 2.81974 8.02756 2.92595 7.94756L2.88082 7.88765ZM4.65812 6.54891L4.613 6.489L2.8357 7.82775L2.88082 7.88765L2.92595 7.94756L4.70325 6.60881L4.65812 6.54891ZM3.95102 5.8418L3.89799 5.89483L4.60509 6.60194L4.65812 6.54891L4.71116 6.49587L4.00405 5.78877L3.95102 5.8418ZM2.61227 7.6191L2.67218 7.66423L4.01092 5.88692L3.95102 5.8418L3.89111 5.79667L2.55236 7.57398L2.61227 7.6191ZM2.62984 7.87008L2.68288 7.81705C2.64172 7.77589 2.63716 7.71071 2.67218 7.66423L2.61227 7.6191L2.55236 7.57398C2.47236 7.68019 2.48279 7.82909 2.57681 7.92311L2.62984 7.87008ZM1.54443 5.25H1.46943C1.46943 5.38297 1.56735 5.49563 1.69902 5.51416L1.70947 5.43989L1.71993 5.36563C1.66229 5.35752 1.61943 5.3082 1.61943 5.25H1.54443ZM1.70947 5.06011L1.69902 4.98584C1.56735 5.00437 1.46943 5.11703 1.46943 5.25H1.54443H1.61943C1.61943 5.1918 1.66229 5.14248 1.71993 5.13437L1.70947 5.06011ZM3.91285 4.75L3.9024 4.67573L1.69902 4.98584L1.70947 5.06011L1.71993 5.13437L3.92331 4.82427L3.91285 4.75ZM3.91285 5.75H3.98785V4.75H3.91285H3.83785V5.75H3.91285ZM1.70947 5.43989L1.69902 5.51416L3.9024 5.82427L3.91285 5.75L3.92331 5.67573L1.71993 5.36563L1.70947 5.43989ZM2.61235 2.87985L2.67225 2.83472C2.63724 2.78823 2.6418 2.72306 2.68295 2.6819L2.62992 2.62887L2.57689 2.57584C2.48287 2.66986 2.47244 2.81876 2.55244 2.92497L2.61235 2.87985ZM3.95109 4.65715L4.011 4.61202L2.67225 2.83472L2.61235 2.87985L2.55244 2.92497L3.89119 4.70227L3.95109 4.65715ZM4.6582 3.95004L4.60517 3.89701L3.89806 4.60412L3.95109 4.65715L4.00413 4.71018L4.71123 4.00307L4.6582 3.95004ZM2.8809 2.61129L2.83577 2.6712L4.61308 4.00995L4.6582 3.95004L4.70333 3.89014L2.92602 2.55139L2.8809 2.61129ZM2.62992 2.62887L2.68295 2.6819C2.72411 2.64075 2.78928 2.63618 2.83577 2.6712L2.8809 2.61129L2.92602 2.55139C2.81981 2.47139 2.67091 2.48181 2.57689 2.57584L2.62992 2.62887Z" fill="#984111"/>
<path fill-rule="evenodd" clip-rule="evenodd" d="M5.25005 6.63113C6.05086 6.63113 6.70005 5.99048 6.70005 5.20021C6.70005 4.40993 6.05086 3.76929 5.25005 3.76929C4.44924 3.76929 3.80005 4.40993 3.80005 5.20021C3.80005 5.99048 4.44924 6.63113 5.25005 6.63113Z" fill="#FFC125" stroke="#984111" stroke-width="0.15"/>
<path d="M5.11012 4.82697C5.09517 4.81771 5.03176 4.77586 5.01618 4.76599C4.9613 4.73126 4.91753 4.70862 4.87688 4.69594C4.8546 4.68898 4.83427 4.68548 4.81587 4.68548C4.72763 4.68548 4.60296 4.74055 4.44528 4.8528L4.38678 4.77277C4.55997 4.64948 4.70186 4.58679 4.81587 4.58679C4.84524 4.58679 4.87555 4.59202 4.90703 4.60185C4.95787 4.61771 5.00849 4.6439 5.07016 4.68292C5.08699 4.69358 5.14986 4.73507 5.16329 4.74339C5.18515 4.75693 5.19929 4.76344 5.19912 4.76344C5.31852 4.76344 5.32575 5.19061 5.24131 5.32159C5.21849 5.35699 5.19047 5.38561 5.15376 5.41441C5.13964 5.42549 5.09531 5.45742 5.08878 5.46246C5.05936 5.48514 5.05003 5.49835 5.05003 5.51451C5.05003 5.51731 5.08597 5.52621 5.1661 5.52245C5.18198 5.52171 5.19774 5.52066 5.22096 5.51889C5.27791 5.51457 5.28527 5.51409 5.30364 5.51409V5.61277C5.28916 5.61277 5.2815 5.61327 5.22864 5.61729C5.20452 5.61912 5.18792 5.62022 5.17085 5.62103C5.02996 5.62764 4.95003 5.60784 4.95003 5.51451C4.95003 5.46091 4.97595 5.42421 5.02722 5.38469C5.03559 5.37823 5.07946 5.34664 5.09153 5.33717C5.12023 5.31465 5.14083 5.29361 5.15694 5.26862C5.1828 5.2285 5.19886 5.12412 5.19698 5.01345C5.19612 4.96264 5.19148 4.91601 5.18416 4.8833C5.18196 4.87348 5.17961 4.8654 5.17739 4.85947C5.15842 4.85488 5.138 4.84424 5.11012 4.82697Z" fill="#984111"/>
<path fill-rule="evenodd" clip-rule="evenodd" d="M5.66315 4.60144C5.61236 4.61731 5.56166 4.64351 5.50006 4.6825C5.48334 4.69308 5.42126 4.73435 5.40729 4.74304C5.38553 4.75652 5.37111 4.76349 5.37115 4.76355C5.25199 4.76392 5.24495 5.18991 5.32916 5.32117C5.35199 5.35657 5.38034 5.38514 5.41705 5.41394C5.43117 5.42502 5.47497 5.45773 5.48151 5.46277C5.51088 5.48542 5.52057 5.49837 5.52057 5.51453C5.52048 5.51734 5.48438 5.52609 5.40436 5.52234C5.38852 5.5216 5.3728 5.52019 5.34967 5.51843C5.29272 5.51411 5.28503 5.51453 5.26666 5.51453V5.61316C5.28115 5.61316 5.289 5.61305 5.34186 5.61707C5.3659 5.61889 5.38245 5.62017 5.39948 5.62097C5.54036 5.62758 5.62017 5.60784 5.62018 5.51453C5.62018 5.46092 5.59431 5.42417 5.54303 5.38464C5.53433 5.37796 5.49058 5.34621 5.47858 5.33679C5.45008 5.31439 5.42918 5.29331 5.41315 5.26843C5.3874 5.22812 5.37125 5.12391 5.37311 5.01355C5.37396 4.96297 5.37853 4.91635 5.3858 4.88367C5.388 4.87385 5.39042 4.86518 5.39264 4.85925C5.41155 4.85467 5.43227 4.84421 5.46002 4.82703C5.4748 4.81787 5.53728 4.77696 5.55377 4.76648C5.60856 4.7318 5.65282 4.70886 5.69342 4.69617C5.7157 4.68921 5.73655 4.68542 5.75494 4.68542C5.84312 4.68558 5.96772 4.74045 6.12506 4.85242L6.18365 4.77234C6.01075 4.64928 5.86885 4.58693 5.75494 4.58679C5.72557 4.58679 5.69463 4.59161 5.66315 4.60144Z" fill="#984111"/>
<path d="M5.26276 5.61121L5.26284 5.53621H5.26276V5.61121ZM5.62213 5.72937L5.57622 5.78869L5.57713 5.78937L5.62213 5.72937ZM5.65729 5.75574L5.70334 5.69653L5.70229 5.69574L5.65729 5.75574ZM5.71002 5.79675L5.77424 5.8355L5.80866 5.77846L5.75607 5.73755L5.71002 5.79675ZM5.67584 5.85339L5.74 5.89223L5.74006 5.89214L5.67584 5.85339ZM5.65338 5.8905L5.58922 5.85167L5.589 5.85203L5.65338 5.8905ZM5.26276 6.1532V6.2282L5.26291 6.2282L5.26276 6.1532ZM4.84869 5.90125L4.90883 5.85642L4.90869 5.85625L4.84869 5.90125ZM4.81647 5.85828L4.75636 5.90313L4.75647 5.90328L4.81647 5.85828ZM4.76764 5.79285L4.72853 5.72885L4.65832 5.77176L4.70753 5.8377L4.76764 5.79285ZM4.83795 5.74988L4.87706 5.81388L4.87795 5.81332L4.83795 5.74988ZM4.88287 5.72156L4.84342 5.65777L4.84288 5.65811L4.88287 5.72156ZM5.26276 5.70984L5.26285 5.63484H5.26276V5.70984ZM4.99127 5.77429L4.95784 5.70715L4.95773 5.70721L4.99127 5.77429ZM4.90533 5.81726L4.87179 5.75018L4.78607 5.79304L4.84828 5.86594L4.90533 5.81726ZM4.96783 5.8905L4.91078 5.93919L4.91091 5.93934L4.96783 5.8905ZM5.26276 6.05457V6.12957L5.26297 6.12957L5.26276 6.05457ZM5.53912 5.88367L5.6007 5.92649L5.60082 5.92631L5.53912 5.88367ZM5.58502 5.81726L5.64672 5.8599L5.6922 5.7941L5.62361 5.75295L5.58502 5.81726ZM5.51666 5.77625L5.47805 5.84054L5.47808 5.84056L5.51666 5.77625ZM5.26276 5.7616L5.26287 5.6866H5.26276V5.7616ZM5.50885 5.83386L5.57186 5.87455L5.61164 5.81293L5.55093 5.77178L5.50885 5.83386ZM5.26276 6.00378V6.07878L5.26302 6.07878L5.26276 6.00378ZM4.98834 5.83386L4.95192 5.7683L4.87444 5.81135L4.92971 5.88064L4.98834 5.83386ZM5.16705 5.87L5.15123 5.79668L4.97825 5.83402L5.12538 5.93235L5.16705 5.87ZM5.26276 5.90515V5.98015L5.2633 5.98015L5.26276 5.90515ZM5.34869 5.87L5.39492 5.92906L5.51952 5.83154L5.36515 5.79682L5.34869 5.87ZM5.26276 5.86023L5.2629 5.78523H5.26276V5.86023ZM5.26276 5.61121L5.26267 5.68621C5.3832 5.68634 5.48847 5.72077 5.57623 5.78868L5.62213 5.72937L5.66803 5.67006C5.55174 5.58006 5.41352 5.53638 5.26284 5.53621L5.26276 5.61121ZM5.62213 5.72937L5.57713 5.78937L5.61229 5.81574L5.65729 5.75574L5.70229 5.69574L5.66713 5.66937L5.62213 5.72937ZM5.65729 5.75574L5.61124 5.81494L5.66398 5.85595L5.71002 5.79675L5.75607 5.73755L5.70333 5.69654L5.65729 5.75574ZM5.71002 5.79675L5.64581 5.758L5.61163 5.81464L5.67584 5.85339L5.74006 5.89214L5.77424 5.8355L5.71002 5.79675ZM5.67584 5.85339L5.61168 5.81456L5.58922 5.85167L5.65338 5.8905L5.71754 5.92934L5.74 5.89223L5.67584 5.85339ZM5.65338 5.8905L5.589 5.85203C5.50048 6.00016 5.39083 6.07794 5.2626 6.0782L5.26276 6.1532L5.26291 6.2282C5.46346 6.22779 5.61411 6.10243 5.71776 5.92898L5.65338 5.8905ZM5.26276 6.1532V6.0782C5.13597 6.0782 5.01755 6.0023 4.90883 5.85642L4.84869 5.90125L4.78856 5.94607C4.9112 6.11061 5.06881 6.2282 5.26276 6.2282V6.1532ZM4.84869 5.90125L4.90869 5.85625L4.87647 5.81328L4.81647 5.85828L4.75647 5.90328L4.78869 5.94625L4.84869 5.90125ZM4.81647 5.85828L4.87657 5.81342L4.82775 5.74799L4.76764 5.79285L4.70753 5.8377L4.75636 5.90313L4.81647 5.85828ZM4.76764 5.79285L4.80675 5.85684L4.87706 5.81387L4.83795 5.74988L4.79884 5.68588L4.72853 5.72885L4.76764 5.79285ZM4.83795 5.74988L4.87795 5.81332L4.92287 5.785L4.88287 5.72156L4.84288 5.65811L4.79795 5.68643L4.83795 5.74988ZM4.88287 5.72156L4.92232 5.78535C5.02868 5.71957 5.14308 5.68621 5.26276 5.68621V5.61121V5.53621C5.11385 5.53621 4.97231 5.57806 4.84343 5.65777L4.88287 5.72156ZM5.26276 5.70984V5.63484C5.15649 5.63484 5.05396 5.6593 4.95784 5.70715L4.99127 5.77429L5.0247 5.84143C5.10046 5.80371 5.18014 5.78484 5.26276 5.78484V5.70984ZM4.99127 5.77429L4.95773 5.70721L4.87179 5.75018L4.90533 5.81726L4.93888 5.88434L5.02481 5.84137L4.99127 5.77429ZM4.90533 5.81726L4.84828 5.86594L4.91078 5.93919L4.96783 5.8905L5.02489 5.84182L4.96239 5.76858L4.90533 5.81726ZM4.96783 5.8905L4.91091 5.93934C5.00479 6.04878 5.12226 6.12957 5.26276 6.12957V6.05457V5.97957C5.18425 5.97957 5.10465 5.9348 5.02476 5.84167L4.96783 5.8905ZM5.26276 6.05457L5.26297 6.12957C5.40804 6.12916 5.51953 6.04321 5.6007 5.92649L5.53912 5.88367L5.47755 5.84085C5.41213 5.93492 5.3406 5.97935 5.26255 5.97957L5.26276 6.05457ZM5.53912 5.88367L5.60082 5.92631L5.64672 5.8599L5.58502 5.81726L5.52332 5.77462L5.47743 5.84102L5.53912 5.88367ZM5.58502 5.81726L5.62361 5.75295L5.55525 5.71193L5.51666 5.77625L5.47808 5.84056L5.54643 5.88157L5.58502 5.81726ZM5.51666 5.77625L5.55528 5.71195C5.46738 5.65916 5.3682 5.63498 5.26285 5.63484L5.26276 5.70984L5.26266 5.78484C5.3447 5.78495 5.4165 5.80357 5.47805 5.84054L5.51666 5.77625ZM5.26276 5.7616L5.26265 5.8366C5.34453 5.83672 5.41095 5.85811 5.46677 5.89594L5.50885 5.83386L5.55093 5.77178C5.46886 5.71615 5.37286 5.68676 5.26287 5.6866L5.26276 5.7616ZM5.50885 5.83386L5.44584 5.79318C5.37642 5.9007 5.31473 5.9286 5.2625 5.92878L5.26276 6.00378L5.26302 6.07878C5.38484 6.07836 5.48698 6.00599 5.57186 5.87455L5.50885 5.83386ZM5.26276 6.00378V5.92878C5.20724 5.92878 5.1352 5.89767 5.04697 5.78709L4.98834 5.83386L4.92971 5.88064C5.03224 6.00915 5.14292 6.07878 5.26276 6.07878V6.00378ZM4.98834 5.83386L5.02477 5.89942C5.10111 5.85701 5.18041 5.8366 5.26276 5.8366V5.7616V5.6866C5.1543 5.6866 5.05 5.71381 4.95192 5.7683L4.98834 5.83386ZM5.16705 5.87L5.12538 5.93235C5.16891 5.96145 5.21517 5.98015 5.26276 5.98015V5.90515V5.83015C5.25488 5.83015 5.23753 5.82689 5.20873 5.80764L5.16705 5.87ZM5.26276 5.90515L5.2633 5.98015C5.31097 5.9798 5.35475 5.96049 5.39492 5.92906L5.34869 5.87L5.30247 5.81093C5.28032 5.82827 5.26777 5.83011 5.26221 5.83015L5.26276 5.90515ZM5.34869 5.87L5.36515 5.79682C5.33411 5.78984 5.2999 5.7853 5.2629 5.78523L5.26276 5.86023L5.26261 5.93523C5.28744 5.93528 5.31067 5.93832 5.33224 5.94317L5.34869 5.87ZM5.26276 5.86023V5.78523C5.22584 5.78523 5.1881 5.78873 5.15123 5.79668L5.16705 5.87L5.18288 5.94331C5.20811 5.93786 5.23514 5.93523 5.26276 5.93523V5.86023Z" fill="#984111"/>
<path d="M4.75006 4.78015L4.75009 4.70515H4.75006V4.78015ZM4.95905 4.82312L4.99156 4.75553L4.99148 4.75549L4.95905 4.82312ZM5.07526 4.97546L5.15026 4.97563V4.97546H5.07526ZM4.95905 5.12781L4.99145 5.19544L4.99152 5.19541L4.95905 5.12781ZM4.75006 5.17078V5.24578L4.75009 5.24578L4.75006 5.17078ZM4.54108 5.12781L4.50862 5.19542L4.50872 5.19547L4.54108 5.12781ZM4.43561 5.02917L4.36206 5.04388L4.3636 5.05154L4.36667 5.05871L4.43561 5.02917ZM4.42487 4.97546L4.35132 4.96076L4.34838 4.97546L4.35132 4.99017L4.42487 4.97546ZM4.43561 4.92175L4.36657 4.89245L4.36357 4.89952L4.36206 4.90704L4.43561 4.92175ZM4.54108 4.82312L4.50866 4.75549L4.50862 4.75551L4.54108 4.82312ZM5.75006 4.78015L5.75009 4.70515H5.75006V4.78015ZM5.95905 4.82312L5.99156 4.75553L5.99148 4.75549L5.95905 4.82312ZM6.07526 4.97546L6.15026 4.97563V4.97546H6.07526ZM5.95905 5.12781L5.99145 5.19544L5.99152 5.19541L5.95905 5.12781ZM5.75006 5.17078V5.24578L5.75009 5.24578L5.75006 5.17078ZM5.54108 5.12781L5.50862 5.19542L5.50872 5.19547L5.54108 5.12781ZM5.43561 5.02917L5.36206 5.04388L5.3636 5.05154L5.36667 5.05871L5.43561 5.02917ZM5.42487 4.97546L5.35132 4.96076L5.34838 4.97546L5.35132 4.99017L5.42487 4.97546ZM5.43561 4.92175L5.36657 4.89245L5.36357 4.89952L5.36206 4.90704L5.43561 4.92175ZM5.54108 4.82312L5.50866 4.75549L5.50862 4.75551L5.54108 4.82312ZM4.75006 4.93054L4.75009 4.85554H4.75006V4.93054ZM4.60553 4.95789L4.57311 4.89025L4.57304 4.89029L4.60553 4.95789ZM4.58014 4.97546L4.52932 4.9203L4.46932 4.97557L4.52943 5.03073L4.58014 4.97546ZM4.60553 4.99304L4.57307 5.06066L4.57318 5.06071L4.60553 4.99304ZM4.75006 5.02039V5.09539L4.75009 5.09539L4.75006 5.02039ZM4.89459 4.99304L4.92704 5.06066L4.92711 5.06062L4.89459 4.99304ZM4.91901 4.97546L4.96879 5.03155L5.03178 4.97564L4.96897 4.91953L4.91901 4.97546ZM4.89459 4.95789L4.92727 4.89038L4.92705 4.89027L4.89459 4.95789ZM5.75006 4.93054L5.75009 4.85554H5.75006V4.93054ZM5.60553 4.95789L5.57311 4.89025L5.57304 4.89029L5.60553 4.95789ZM5.58014 4.97546L5.52932 4.9203L5.46932 4.97557L5.52943 5.03073L5.58014 4.97546ZM5.60553 4.99304L5.57307 5.06066L5.57318 5.06071L5.60553 4.99304ZM5.75006 5.02039V5.09539L5.75009 5.09539L5.75006 5.02039ZM5.89459 4.99304L5.92704 5.06066L5.92711 5.06062L5.89459 4.99304ZM5.91901 4.97546L5.96879 5.03155L6.03178 4.97564L5.96897 4.91953L5.91901 4.97546ZM5.89459 4.95789L5.92727 4.89038L5.92705 4.89027L5.89459 4.95789ZM4.75006 4.78015L4.75004 4.85515C4.81861 4.85517 4.88115 4.86894 4.92662 4.89075L4.95905 4.82312L4.99148 4.75549C4.92221 4.72228 4.83676 4.70518 4.75009 4.70515L4.75006 4.78015ZM4.95905 4.82312L4.92653 4.89071C4.947 4.90055 4.96688 4.91382 4.98079 4.92934C4.99389 4.94396 5.00026 4.95866 5.00026 4.97546H5.07526H5.15026C5.15026 4.85106 5.04913 4.78323 4.99156 4.75553L4.95905 4.82312ZM5.07526 4.97546L5.00026 4.9753C5.00022 4.99215 4.9938 5.00693 4.98068 5.02161C4.96675 5.03717 4.94691 5.05043 4.92657 5.0602L4.95905 5.12781L4.99152 5.19541C5.0493 5.16766 5.14999 5.09969 5.15026 4.97563L5.07526 4.97546ZM4.95905 5.12781L4.92664 5.06017C4.88116 5.08196 4.81855 5.09575 4.75004 5.09578L4.75006 5.17078L4.75009 5.24578C4.83673 5.24575 4.92223 5.22862 4.99145 5.19544L4.95905 5.12781ZM4.75006 5.17078V5.09578C4.68166 5.09578 4.61899 5.08193 4.57343 5.06015L4.54108 5.12781L4.50872 5.19547C4.57789 5.22855 4.66337 5.24578 4.75006 5.24578V5.17078ZM4.54108 5.12781L4.57353 5.06019C4.54076 5.04446 4.51439 5.02261 4.50455 4.99964L4.43561 5.02917L4.36667 5.05871C4.39777 5.1313 4.46363 5.17383 4.50862 5.19542L4.54108 5.12781ZM4.43561 5.02917L4.50915 5.01447L4.49841 4.96076L4.42487 4.97546L4.35132 4.99017L4.36206 5.04388L4.43561 5.02917ZM4.42487 4.97546L4.49841 4.99017L4.50915 4.93646L4.43561 4.92175L4.36206 4.90704L4.35132 4.96076L4.42487 4.97546ZM4.43561 4.92175L4.50465 4.95105C4.51436 4.92817 4.54039 4.90664 4.57353 4.89073L4.54108 4.82312L4.50862 4.75551C4.46377 4.77704 4.39762 4.81929 4.36657 4.89245L4.43561 4.92175ZM4.54108 4.82312L4.57349 4.89075C4.61902 4.86893 4.68151 4.85515 4.75006 4.85515V4.78015V4.70515C4.6633 4.70515 4.57793 4.72229 4.50866 4.75549L4.54108 4.82312ZM5.75006 4.78015L5.75004 4.85515C5.81861 4.85517 5.88115 4.86894 5.92662 4.89075L5.95905 4.82312L5.99148 4.75549C5.92221 4.72228 5.83676 4.70518 5.75009 4.70515L5.75006 4.78015ZM5.95905 4.82312L5.92653 4.89071C5.947 4.90055 5.96688 4.91382 5.98079 4.92934C5.99389 4.94396 6.00026 4.95866 6.00026 4.97546H6.07526H6.15026C6.15026 4.85106 6.04913 4.78323 5.99156 4.75553L5.95905 4.82312ZM6.07526 4.97546L6.00026 4.9753C6.00022 4.99215 5.9938 5.00693 5.98068 5.02161C5.96675 5.03717 5.94691 5.05043 5.92657 5.0602L5.95905 5.12781L5.99152 5.19541C6.0493 5.16766 6.14999 5.09969 6.15026 4.97563L6.07526 4.97546ZM5.95905 5.12781L5.92664 5.06017C5.88116 5.08196 5.81855 5.09575 5.75004 5.09578L5.75006 5.17078L5.75009 5.24578C5.83673 5.24575 5.92223 5.22862 5.99145 5.19544L5.95905 5.12781ZM5.75006 5.17078V5.09578C5.68166 5.09578 5.61899 5.08193 5.57343 5.06015L5.54108 5.12781L5.50872 5.19547C5.57789 5.22855 5.66337 5.24578 5.75006 5.24578V5.17078ZM5.54108 5.12781L5.57353 5.06019C5.54076 5.04446 5.51439 5.02261 5.50455 4.99964L5.43561 5.02917L5.36667 5.05871C5.39777 5.1313 5.46363 5.17383 5.50862 5.19542L5.54108 5.12781ZM5.43561 5.02917L5.50915 5.01447L5.49841 4.96076L5.42487 4.97546L5.35132 4.99017L5.36206 5.04388L5.43561 5.02917ZM5.42487 4.97546L5.49841 4.99017L5.50915 4.93646L5.43561 4.92175L5.36206 4.90704L5.35132 4.96076L5.42487 4.97546ZM5.43561 4.92175L5.50465 4.95105C5.51436 4.92817 5.54039 4.90664 5.57353 4.89073L5.54108 4.82312L5.50862 4.75551C5.46377 4.77704 5.39762 4.81929 5.36657 4.89245L5.43561 4.92175ZM5.54108 4.82312L5.57349 4.89075C5.61902 4.86893 5.68151 4.85515 5.75006 4.85515V4.78015V4.70515C5.6633 4.70515 5.57793 4.72229 5.50866 4.75549L5.54108 4.82312ZM4.75006 4.93054V4.85554C4.68156 4.85554 4.61868 4.86841 4.57311 4.89025L4.60553 4.95789L4.63795 5.02552C4.65849 5.01567 4.698 5.00554 4.75006 5.00554V4.93054ZM4.60553 4.95789L4.57304 4.89029C4.5485 4.90208 4.53479 4.91527 4.52932 4.9203L4.58014 4.97546L4.63095 5.03063C4.63381 5.028 4.6338 5.028 4.63432 5.02761C4.6346 5.0274 4.63565 5.02662 4.63802 5.02549L4.60553 4.95789ZM4.58014 4.97546L4.52943 5.03073C4.53491 5.03576 4.54885 5.04903 4.57307 5.06066L4.60553 4.99304L4.63798 4.92543C4.63585 4.9244 4.6348 4.92365 4.63437 4.92333C4.63374 4.92285 4.63355 4.92268 4.63084 4.9202L4.58014 4.97546ZM4.60553 4.99304L4.57318 5.06071C4.61869 5.08246 4.68161 5.09539 4.75006 5.09539V5.02039V4.94539C4.69814 4.94539 4.6585 4.93523 4.63788 4.92538L4.60553 4.99304ZM4.75006 5.02039L4.75009 5.09539C4.81848 5.09536 4.88146 5.08254 4.92704 5.06066L4.89459 4.99304L4.86214 4.92543C4.84169 4.93524 4.80212 4.94536 4.75003 4.94539L4.75006 5.02039ZM4.89459 4.99304L4.92711 5.06062C4.93953 5.05465 4.94927 5.04806 4.95697 5.04191C4.9607 5.03893 4.96371 5.03624 4.96585 5.03428C4.96684 5.03338 4.96783 5.03245 4.96828 5.03204C4.96889 5.03146 4.96893 5.03143 4.96879 5.03155L4.91901 4.97546L4.86922 4.91937C4.86797 4.92048 4.86683 4.92154 4.86618 4.92214C4.86537 4.9229 4.86501 4.92323 4.86454 4.92366C4.86378 4.92436 4.86348 4.92461 4.86333 4.92472C4.86327 4.92477 4.86303 4.925 4.86207 4.92546L4.89459 4.99304ZM4.91901 4.97546L4.96897 4.91953C4.97074 4.92111 4.9628 4.91368 4.95689 4.90897C4.94924 4.90287 4.93956 4.89633 4.92727 4.89038L4.89459 4.95789L4.86192 5.02539C4.86296 5.0259 4.8633 5.02619 4.86342 5.02628C4.86358 5.02641 4.86389 5.02667 4.86461 5.02733C4.86504 5.02772 4.86542 5.02807 4.86617 5.02877C4.86677 5.02933 4.86786 5.03035 4.86904 5.0314L4.91901 4.97546ZM4.89459 4.95789L4.92705 4.89027C4.88146 4.86839 4.81848 4.85557 4.75009 4.85554L4.75006 4.93054L4.75003 5.00554C4.80213 5.00556 4.84169 5.01568 4.86214 5.0255L4.89459 4.95789ZM5.75006 4.93054V4.85554C5.68156 4.85554 5.61868 4.86841 5.57311 4.89025L5.60553 4.95789L5.63795 5.02552C5.65849 5.01567 5.698 5.00554 5.75006 5.00554V4.93054ZM5.60553 4.95789L5.57304 4.89029C5.5485 4.90208 5.53479 4.91527 5.52932 4.9203L5.58014 4.97546L5.63095 5.03063C5.63381 5.028 5.6338 5.028 5.63432 5.02761C5.6346 5.0274 5.63565 5.02662 5.63802 5.02549L5.60553 4.95789ZM5.58014 4.97546L5.52943 5.03073C5.53491 5.03576 5.54885 5.04903 5.57307 5.06066L5.60553 4.99304L5.63798 4.92543C5.63585 4.9244 5.6348 4.92365 5.63437 4.92333C5.63374 4.92285 5.63355 4.92268 5.63084 4.9202L5.58014 4.97546ZM5.60553 4.99304L5.57318 5.06071C5.61869 5.08246 5.68161 5.09539 5.75006 5.09539V5.02039V4.94539C5.69814 4.94539 5.6585 4.93523 5.63788 4.92538L5.60553 4.99304ZM5.75006 5.02039L5.75009 5.09539C5.81848 5.09536 5.88146 5.08254 5.92704 5.06066L5.89459 4.99304L5.86214 4.92543C5.84169 4.93524 5.80212 4.94536 5.75003 4.94539L5.75006 5.02039ZM5.89459 4.99304L5.92711 5.06062C5.93953 5.05465 5.94927 5.04806 5.95697 5.04191C5.9607 5.03893 5.96371 5.03624 5.96585 5.03428C5.96684 5.03338 5.96783 5.03245 5.96828 5.03204C5.96889 5.03146 5.96893 5.03143 5.96879 5.03155L5.91901 4.97546L5.86922 4.91937C5.86797 4.92048 5.86683 4.92154 5.86618 4.92214C5.86537 4.9229 5.86501 4.92323 5.86454 4.92366C5.86378 4.92436 5.86348 4.92461 5.86333 4.92472C5.86327 4.92477 5.86303 4.925 5.86207 4.92546L5.89459 4.99304ZM5.91901 4.97546L5.96897 4.91953C5.97074 4.92111 5.9628 4.91368 5.95689 4.90897C5.94924 4.90287 5.93956 4.89633 5.92727 4.89038L5.89459 4.95789L5.86192 5.02539C5.86296 5.0259 5.8633 5.02619 5.86342 5.02628C5.86358 5.02641 5.86389 5.02667 5.86461 5.02733C5.86504 5.02772 5.86542 5.02807 5.86617 5.02877C5.86677 5.02933 5.86786 5.03035 5.86904 5.0314L5.91901 4.97546ZM5.89459 4.95789L5.92705 4.89027C5.88146 4.86839 5.81848 4.85557 5.75009 4.85554L5.75006 4.93054L5.75003 5.00554C5.80213 5.00556 5.84169 5.01568 5.86214 5.0255L5.89459 4.95789Z" fill="#984111"/>
</g>
</g>
</svg>
