<svg width="24" height="18" viewBox="0 0 24 18" fill="none" xmlns="http://www.w3.org/2000/svg">
<mask id="mask0_395_54392" style="mask-type:luminance" maskUnits="userSpaceOnUse" x="0" y="0" width="24" height="18">
<rect width="24" height="18" fill="white"/>
</mask>
<g mask="url(#mask0_395_54392)">
<path fill-rule="evenodd" clip-rule="evenodd" d="M0 0V18H24V0H0Z" fill="#2E42A5"/>
<mask id="mask1_395_54392" style="mask-type:luminance" maskUnits="userSpaceOnUse" x="0" y="0" width="24" height="18">
<path fill-rule="evenodd" clip-rule="evenodd" d="M0 0V18H24V0H0Z" fill="white"/>
</mask>
<g mask="url(#mask1_395_54392)">
<path fill-rule="evenodd" clip-rule="evenodd" d="M0 0V6H24V0H0Z" fill="#FECA00"/>
<path fill-rule="evenodd" clip-rule="evenodd" d="M0 12V18H24V12H0Z" fill="#E31D1C"/>
<path fill-rule="evenodd" clip-rule="evenodd" d="M10.6512 7.41992H11.4374L10.8192 8.04492L11.1161 8.89453L10.2899 8.47656L9.55261 8.89453L9.76355 8.04492L9.75476 8.03711L9.14148 8.6582L9.43835 9.50781L8.61121 9.08984L7.8739 9.50781L7.88269 9.46875L7.53015 9.82715L7.82703 10.6768L6.99988 10.2588L6.83289 10.3535H6.87097L6.25378 10.9785L6.55066 11.8281L5.72351 11.4102L4.98621 11.8281L5.19714 10.9785L4.49109 10.3535H5.41296L5.72253 9.5498L6.08484 10.3535H6.34265L6.47351 9.82715L5.76746 9.20215H6.68933L6.9989 8.39844L7.36121 9.20215H7.95007L8.08484 8.6582L7.37878 8.0332H8.30066L8.61023 7.22949L8.97253 8.0332H9.74988L9.0575 7.41992H9.97937L10.2889 6.61621L10.6512 7.41992Z" fill="#F7FCFF"/>
<path fill-rule="evenodd" clip-rule="evenodd" d="M13.3182 7.38745H12.5321L13.1503 8.01245L12.8534 8.86206L13.6805 8.44409L14.4169 8.86206L14.2069 8.01245L14.2177 8.00269L14.8319 8.62573L14.535 9.47534L15.3622 9.05737L16.0995 9.47534L16.0907 9.43628L16.4432 9.79468L16.1464 10.6443L16.9735 10.2263L17.1405 10.321H17.1024L17.7196 10.946L17.4227 11.7957L18.2499 11.3777L18.9872 11.7957L18.7762 10.946L19.4823 10.321H18.5604L18.2509 9.51733L17.8885 10.321H17.6307L17.4999 9.79468L18.2059 9.16968H17.2841L16.9745 8.36597L16.6122 9.16968H16.0233L15.8885 8.62573L16.5946 8.00073H15.6727L15.3632 7.19702L15.0009 8.00073H14.2206L14.913 7.38745H13.9901L13.6815 6.58374L13.3182 7.38745Z" fill="#F7FCFF"/>
<path fill-rule="evenodd" clip-rule="evenodd" d="M11.8747 7.90102L11.1377 8.31913L11.3482 7.46936L10.6422 6.84492H11.5643L11.8736 6.04077L12.2362 6.84492H13.0223L12.4047 7.46936L12.7016 8.31913L11.8747 7.90102Z" fill="#F7FCFF"/>
</g>
</g>
</svg>
