<svg width="24" height="18" viewBox="0 0 24 18" fill="none" xmlns="http://www.w3.org/2000/svg">
<mask id="mask0_395_53686" style="mask-type:luminance" maskUnits="userSpaceOnUse" x="0" y="0" width="24" height="18">
<rect width="24" height="18" fill="white"/>
</mask>
<g mask="url(#mask0_395_53686)">
<path fill-rule="evenodd" clip-rule="evenodd" d="M0 0V18H24V0H0Z" fill="#F7FCFF"/>
<mask id="mask1_395_53686" style="mask-type:luminance" maskUnits="userSpaceOnUse" x="0" y="0" width="24" height="18">
<path fill-rule="evenodd" clip-rule="evenodd" d="M0 0V18H24V0H0Z" fill="white"/>
</mask>
<g mask="url(#mask1_395_53686)">
<path fill-rule="evenodd" clip-rule="evenodd" d="M13.4 11.1288C13.4113 11.1337 13.8567 11.3266 13.857 11.5819C13.857 11.8406 14.6314 12.4963 14.6314 12.7528C14.6311 13.0094 13.9569 13.6295 13.6783 13.9052C13.3996 14.1808 13.0342 14.7106 12.7437 14.7108C12.4532 14.7108 12.2694 15.0994 12.024 15.0995C12.0173 15.0995 12.0124 15.0943 12.0064 15.0878C12.0004 15.0943 11.9955 15.0995 11.9888 15.0995C11.7434 15.0994 11.5596 14.7108 11.2691 14.7108C10.9786 14.7106 10.6131 14.1808 10.3345 13.9052C10.0559 13.6295 9.38168 13.0094 9.38139 12.7528C9.38139 12.4963 10.1558 11.8406 10.1558 11.5819C10.1561 11.3266 10.6017 11.1336 10.6128 11.1288L11.9888 10.5477C11.9888 10.5477 11.9954 10.6855 12.0064 10.913C12.0174 10.6855 12.024 10.5477 12.024 10.5477L13.4 11.1288ZM10.565 10.9608C10.5599 10.9605 9.7769 10.9214 9.7769 11.5067C9.77671 12.0936 9.05514 12.361 8.65093 12.3612C8.24679 12.3612 8.02404 12.6259 8.02397 13.0917C8.02397 13.5576 7.19695 13.2713 6.99956 13.0917C6.80233 12.9119 7.19729 12.1366 7.40288 12.1366C7.60839 12.1364 7.84343 11.9764 8.27983 11.9764C8.71571 11.976 8.3247 11.4072 8.77495 10.6561C9.21877 9.91598 9.62044 9.63222 9.63237 9.6239L10.565 10.9608ZM14.5376 9.6239C14.5473 9.63065 14.95 9.91384 15.3951 10.6561C15.8455 11.4075 15.4545 11.9764 15.8912 11.9764C16.3276 11.9765 16.5626 12.1366 16.7681 12.1366C16.9738 12.1377 17.3677 12.9122 17.1705 13.0917C16.9731 13.2713 16.146 13.5576 16.146 13.0917C16.146 12.6261 15.9239 12.3614 15.5201 12.3612C15.1159 12.3612 14.3933 12.0938 14.3931 11.5067C14.3931 10.9195 13.605 10.9608 13.605 10.9608L14.5376 9.6239ZM2.08257 3.65222C2.45297 3.49329 8.16761 5.35048 8.46929 5.35144C8.76822 5.35144 9.33056 6.07607 9.04936 6.38074C8.76846 6.68516 8.67378 6.86316 8.86186 6.86316C9.04932 6.86283 9.98286 6.62114 9.99858 6.61707V9.44519C9.99159 9.44685 9.08873 9.66016 8.86186 9.44519C8.6342 9.2293 8.15972 9.43239 8.15972 9.19714C8.15915 8.96469 7.64597 8.92644 7.6353 8.92566C7.6353 8.92566 7.15042 8.76552 7.14995 8.61511C7.14995 8.46464 6.83257 8.03894 6.83257 8.03894C6.81371 8.02826 5.61461 7.34798 4.59429 6.60242C3.56602 5.85111 2.59779 5.31453 2.45366 4.66687C1.91669 4.13513 1.71245 3.81124 2.08257 3.65222ZM22.0875 3.65222C22.4577 3.81122 22.2534 4.13505 21.7164 4.66687C21.5722 5.31454 20.604 5.85107 19.5757 6.60242C18.5532 7.34958 17.3513 8.03112 17.3375 8.03894C17.3375 8.03894 17.0201 8.46464 17.0201 8.61511C17.0196 8.76552 16.5347 8.92566 16.5347 8.92566C16.5204 8.92671 16.0118 8.96555 16.0113 9.19714C16.0113 9.43225 15.5369 9.22991 15.3091 9.44519C15.0815 9.66108 14.1714 9.44519 14.1714 9.44519V6.61707C14.1808 6.6195 15.1219 6.86316 15.3091 6.86316C15.4966 6.86287 15.4014 6.68495 15.1207 6.38074C14.8395 6.07607 15.4018 5.35144 15.7007 5.35144C16.0008 5.35105 21.717 3.49326 22.0875 3.65222ZM12.0562 3.60242C12.6459 3.60242 12.8599 4.30668 12.8599 4.44519C12.8599 4.58357 13.0621 5.31921 13.0621 5.31921C13.0589 5.31922 12.86 5.3199 12.8599 5.41394C12.8599 5.50752 13.4749 5.90787 13.4917 5.91882C13.4774 5.92309 13.0235 6.05937 13.2017 6.16101C13.2924 6.2126 13.3647 6.30471 13.4146 6.38367L10.4263 6.52917L10.6382 6.16101C10.6382 6.16101 10.4263 6.06531 10.5328 6.06531C10.6393 6.06498 10.9429 5.63855 10.9429 5.63855H10.816C10.812 5.63176 10.7576 5.53308 10.9429 5.53308C11.1318 5.53285 11.2831 4.86774 11.2876 4.84753C11.2876 4.84753 11.4138 4.5263 11.106 4.44519C10.7978 4.3642 10.4263 4.71375 10.4263 4.71375C10.4263 4.71375 10.5172 4.15509 10.6382 4.03406C10.7592 3.91317 11.1055 4.01054 11.106 3.86414C11.106 3.71726 11.4665 3.60243 12.0562 3.60242Z" fill="#E8AA00"/>
<path fill-rule="evenodd" clip-rule="evenodd" d="M6.53857 9.1322C6.78512 8.88617 6.75049 9.1322 6.75049 9.35876C6.74998 9.58531 6.32648 9.98837 6.19873 9.98864C6.30729 10.1989 6.42109 10.4113 6.53857 10.6224C6.53286 10.5036 6.59424 10.307 6.59424 10.307C6.59889 10.2969 6.69379 10.0937 6.93408 9.85388C7.18018 9.60846 7.14604 9.85408 7.146 10.0804C7.146 10.3069 6.72206 10.711 6.59424 10.7113C6.59186 10.7113 6.5896 10.7096 6.5874 10.7093C6.67289 10.8616 6.75872 11.0138 6.84619 11.1634C6.86217 11.0739 6.88793 10.9898 6.89014 10.9828C6.89014 10.9828 6.98373 10.7755 7.22998 10.5297C7.47652 10.2836 7.44189 10.5297 7.44189 10.7562C7.44146 10.9498 7.13212 11.2707 6.9624 11.3607C7.03021 11.4749 7.09808 11.5877 7.16553 11.6986C7.17767 11.6494 7.18581 11.6126 7.18701 11.6088C7.18701 11.6088 7.28042 11.4016 7.52686 11.1556C7.7734 10.9096 7.73877 11.1556 7.73877 11.3822C7.73838 11.554 7.49424 11.8265 7.3208 11.9486C7.36842 12.0256 7.41668 12.1007 7.46338 12.1752C7.47568 12.1261 7.48389 12.0902 7.48389 12.0902C7.48871 12.0797 7.58368 11.8766 7.82373 11.6371C8.06976 11.3918 8.03568 11.6373 8.03564 11.8636C8.03564 12.0339 7.79484 12.3034 7.62158 12.4271C8.19748 13.3313 8.65283 13.9789 8.65283 13.9789H8.12451C7.8625 13.8154 7.49499 13.1677 7.11475 12.3568C7.05758 12.3863 6.97094 12.4136 6.88818 12.4437C6.67529 12.5212 6.1506 12.261 6.10693 12.141C6.06407 12.023 6.47281 12.0039 6.48584 12.0033C6.48584 12.0033 6.71248 12.02 7.02783 12.1674C6.97696 12.0562 6.92538 11.9428 6.87451 11.8275C6.84641 11.8792 6.71532 11.9171 6.59131 11.9623C6.37842 12.0398 5.85377 11.7795 5.81006 11.6595C5.76639 11.5396 6.18994 11.5209 6.18994 11.5209C6.19746 11.5215 6.42178 11.5409 6.73193 11.6859C6.78259 11.7096 6.81705 11.7331 6.84131 11.7523C6.46051 10.8827 6.08929 9.92614 5.81787 9.20251C5.91673 9.42348 6.0258 9.65152 6.14307 9.8822C6.14357 9.76565 6.19602 9.59395 6.19873 9.58532C6.19873 9.58532 6.29214 9.37816 6.53857 9.1322ZM5.89307 10.8949C5.89307 10.8949 6.11969 10.9115 6.43506 11.059C6.75057 11.2065 6.50733 11.2588 6.29443 11.3363C6.08121 11.4132 5.55779 11.1525 5.51416 11.0326C5.47153 10.9142 5.88339 10.8953 5.89307 10.8949ZM5.59717 10.2201C5.60484 10.2207 5.82912 10.2392 6.13916 10.3841C6.45449 10.5316 6.2114 10.583 5.99854 10.6605C5.78564 10.738 5.26095 10.4777 5.21729 10.3578C5.17415 10.238 5.59717 10.2201 5.59717 10.2201ZM5.3501 9.54528C5.35778 9.54589 5.58205 9.56437 5.89209 9.70935C6.20742 9.85683 5.96433 9.90824 5.75146 9.98571C5.53857 10.0632 5.01388 9.80294 4.97021 9.68298C4.92707 9.56318 5.3501 9.54528 5.3501 9.54528ZM4.82764 8.73376C4.82783 8.60772 5.22184 8.73089 5.23096 8.73376C5.23096 8.73376 5.43811 8.82715 5.68408 9.0736C5.93011 9.32015 5.68408 9.28552 5.45752 9.28552C5.23094 9.28534 4.82764 8.8614 4.82764 8.73376ZM6.0083 8.35095C6.15583 8.03544 6.20816 8.27868 6.28564 8.49157C6.36263 8.70474 6.10182 9.22821 5.98193 9.27185C5.86312 9.31461 5.84454 8.89971 5.84424 8.89294C5.84424 8.89294 5.86086 8.66634 6.0083 8.35095ZM5.25732 8.00524C5.22734 7.65825 5.39432 7.84204 5.56787 7.98767C5.74128 8.13317 5.7776 8.71728 5.6958 8.81579C5.69068 8.8219 5.68439 8.82573 5.67822 8.82849C5.72082 8.94399 5.76788 9.06922 5.81787 9.20251C5.76141 9.0763 5.70837 8.95244 5.65967 8.83142C5.56331 8.83045 5.39278 8.56724 5.38623 8.557C5.38623 8.557 5.28734 8.35206 5.25732 8.00524Z" fill="#46A000"/>
<path fill-rule="evenodd" clip-rule="evenodd" d="M16.6476 13.5811L16.5167 13.6954L16.7716 13.8829L16.3937 15.5723L15.8859 15.1329L15.3546 15.377V15.1329L15.0831 15.377L14.88 14.6856H14.295L15.3546 13.4561H15.7286V13.0948H16.5167L16.6476 13.5811ZM18.5392 9.86725L18.3107 9.66608L16.964 12.1807L18.4679 10.4571L18.1779 10.3126L19.6632 9.3399L19.0167 10.9249L18.6554 10.6651L17.129 12.587L16.4962 12.3428L17.129 10.0928H16.7003L17.5587 8.50885L17.5841 10.2706L17.3185 10.1846L17.129 11.3604L18.0792 9.53815L17.7638 9.41998L18.9396 8.14655L18.5392 9.86725ZM21.5187 7.75397C21.5187 7.75397 21.1019 7.82926 21.1017 8.08209V11.0704C21.1024 11.0731 21.1787 11.3565 21.5187 11.3624C21.8571 11.3682 19.9497 11.3625 19.9161 11.3624C19.9293 11.3597 20.2854 11.284 20.2931 11.0704C20.3009 10.8527 20.2931 8.08209 20.2931 8.08209C20.2565 7.76086 19.9299 7.75411 19.9161 7.75397H21.5187ZM3.23157 7.8028C3.04098 7.8028 2.96845 8.04273 2.96692 8.04791L3.74426 10.2628C3.75583 10.2349 4.49524 8.45202 4.49524 8.13385C4.49518 7.816 4.18512 7.80299 4.17981 7.8028H5.6261L5.27649 7.91901C5.27649 7.91901 4.11926 10.5719 4.11926 11.1397C4.06454 11.2655 4.65247 11.3497 4.65247 11.3497H3.09973L3.42395 11.1397C3.24251 10.6713 2.12219 7.8028 2.12219 7.8028H3.23157Z" fill="#0093E1"/>
<path fill-rule="evenodd" clip-rule="evenodd" d="M9.25755 6.00964C9.25755 6.00964 9.9555 6.49157 10.6534 6.49157C11.3514 6.49157 12.0493 6.00964 12.0493 6.00964C12.0493 6.00964 12.7473 6.49157 13.4452 6.49157C14.1431 6.49157 14.8411 6.00964 14.8411 6.00964V8.18531C14.8411 10.4349 12.0493 12.1783 12.0493 12.1783C12.0493 12.1783 9.12238 10.5775 9.25755 8.15859V6.00964Z" fill="#F7FCFF"/>
<mask id="mask2_395_53686" style="mask-type:luminance" maskUnits="userSpaceOnUse" x="9" y="6" width="6" height="7">
<path fill-rule="evenodd" clip-rule="evenodd" d="M9.25755 6.00964C9.25755 6.00964 9.9555 6.49157 10.6534 6.49157C11.3514 6.49157 12.0493 6.00964 12.0493 6.00964C12.0493 6.00964 12.7473 6.49157 13.4452 6.49157C14.1431 6.49157 14.8411 6.00964 14.8411 6.00964V8.18531C14.8411 10.4349 12.0493 12.1783 12.0493 12.1783C12.0493 12.1783 9.12238 10.5775 9.25755 8.15859V6.00964Z" fill="white"/>
</mask>
<g mask="url(#mask2_395_53686)">
<path fill-rule="evenodd" clip-rule="evenodd" d="M9.05994 5.86505H14.9399V8.13011H9.05994V5.86505Z" fill="#2E42A5"/>
<path fill-rule="evenodd" clip-rule="evenodd" d="M10.1964 12.7079H9.70227V8.12976H10.1964V12.7079ZM11.0363 12.7079H10.5421V8.12976H11.0363V12.7079ZM11.8761 12.7079H11.382V8.12976H11.8761V12.7079ZM12.7159 12.7079H12.2218V8.12976H12.7159V12.7079ZM13.5568 12.7079H13.0626V8.12976H13.5568V12.7079ZM14.3966 12.7079H13.9025V8.12976H14.3966V12.7079Z" fill="#AF0100"/>
</g>
</g>
</g>
</svg>
